<svg width="24" height="24" viewBox="0 0 24 24" fill="none" xmlns="http://www.w3.org/2000/svg">
<path d="M2.41125 14.9163C3.03849 16.9668 4.30748 18.7618 6.03142 20.037C7.75536 21.3123 9.84316 22.0004 11.9875 22C17.5175 22 22 17.5225 22 12C22 6.4775 17.5175 2 11.9888 2C9.45034 1.99902 7.00641 2.9627 5.15182 4.69591C3.29723 6.42912 2.17058 8.80233 2 11.335L2.00375 11.3425L7.38375 13.5538C7.86898 13.2325 8.44367 13.0736 9.025 13.1L11.475 9.545L11.4738 9.495C11.4747 8.4867 11.8756 7.51997 12.5885 6.80688C13.3014 6.09379 14.268 5.69257 15.2763 5.69125C16.2845 5.69257 17.2511 6.09379 17.964 6.80688C18.6769 7.51997 19.0778 8.4867 19.0788 9.495C19.0784 10.0017 18.9769 10.5032 18.7803 10.9701C18.5837 11.4371 18.2959 11.8601 17.9337 12.2144C17.5716 12.5688 17.1424 12.8473 16.6713 13.0337C16.2001 13.2201 15.6965 13.3106 15.19 13.3L11.685 15.8C11.6969 16.2631 11.5928 16.7218 11.3823 17.1344C11.1717 17.547 10.8613 17.9004 10.4794 18.1625C10.0974 18.4246 9.65596 18.5871 9.19522 18.6351C8.73448 18.6831 8.26905 18.6152 7.84125 18.4375C7.43065 18.2664 7.06728 17.999 6.78183 17.6578C6.49638 17.3167 6.29724 16.9118 6.20125 16.4775L2.4125 14.9163H2.41125Z" fill="#17202C"/>
<path d="M8.08492 17.8537C8.60571 18.0525 9.18346 18.0406 9.69563 17.8206C10.2078 17.6006 10.6141 17.1897 10.8284 16.6751C11.0427 16.1605 11.0481 15.5826 10.8435 15.0641C10.6389 14.5455 10.2404 14.1271 9.73242 13.8975C9.22878 13.6873 8.66371 13.6784 8.15367 13.8725L9.43242 14.4025C9.62366 14.4821 9.79734 14.5986 9.94356 14.7453C10.0898 14.8921 10.2056 15.0662 10.2846 15.2577C10.3635 15.4492 10.4039 15.6544 10.4036 15.8616C10.4032 16.0687 10.362 16.2738 10.2824 16.465C10.2028 16.6562 10.0863 16.8299 9.93957 16.9761C9.79283 17.1223 9.61873 17.2382 9.42721 17.3172C9.23569 17.3961 9.0305 17.4365 8.82335 17.4361C8.61621 17.4358 8.41116 17.3946 8.21992 17.315L6.98242 16.8025C7.20762 17.2766 7.60035 17.6519 8.08492 17.8537ZM12.7424 9.49499C12.7428 10.1671 13.0097 10.8116 13.4848 11.2871C13.9598 11.7626 14.6041 12.0302 15.2762 12.0312C15.9483 12.0302 16.5926 11.7626 17.0676 11.2871C17.5426 10.8116 17.8096 10.1671 17.8099 9.49499C17.8089 8.8233 17.5417 8.17941 17.0667 7.70446C16.5918 7.2295 15.9479 6.96223 15.2762 6.96124C14.6045 6.96223 13.9606 7.2295 13.4856 7.70446C13.0107 8.17941 12.7434 8.8233 12.7424 9.49499ZM15.2799 7.58624C15.5301 7.58641 15.7778 7.63584 16.0088 7.73173C16.2399 7.82762 16.4498 7.96808 16.6266 8.14509C16.8034 8.3221 16.9436 8.5322 17.0391 8.76339C17.1347 8.99457 17.1838 9.24232 17.1837 9.49249C17.1835 9.74266 17.1341 9.99035 17.0382 10.2214C16.9423 10.4525 16.8018 10.6624 16.6248 10.8392C16.4478 11.0159 16.2377 11.1561 16.0065 11.2517C15.7753 11.3473 15.5276 11.3964 15.2774 11.3962C14.7722 11.3959 14.2878 11.1949 13.9308 10.8374C13.5737 10.4799 13.3733 9.99523 13.3737 9.48999C13.374 8.98476 13.575 8.50034 13.9325 8.14332C14.29 7.7863 14.7747 7.58591 15.2799 7.58624Z" fill="#17202C"/>
</svg>
