<?xml version="1.0" encoding="utf-8"?>
<!-- Generator: Adobe Illustrator 24.1.2, SVG Export Plug-In . SVG Version: 6.00 Build 0)  -->
<svg version="1.1" id="Layer_1" xmlns="http://www.w3.org/2000/svg" xmlns:xlink="http://www.w3.org/1999/xlink" x="0px" y="0px"
	 viewBox="0 0 553.8 219.3" style="enable-background:new 0 0 553.8 219.3;" xml:space="preserve">
<style type="text/css">
	.st0{fill:none;}
	.st1{fill:#FFFFFF;}
</style>
<rect x="0.5" y="0.5" class="st0" width="552.8" height="218.3"/>
<g>
	<path class="st1" d="M488.6,154.5h0.6c0.2,0,0.4,0,0.5,0.1c0.1,0,0.2,0.1,0.2,0.2c0,0.1,0.1,0.2,0.1,0.2c0,0.1-0.1,0.3-0.2,0.3
		c-0.1,0.1-0.3,0.1-0.6,0.1h-0.6V154.5z M489.1,154.1h-1v3h0.5v-1.3h0.3c0.2,0,0.3,0,0.4,0.1c0.1,0.1,0.3,0.3,0.5,0.7l0.3,0.5h0.6
		l-0.4-0.6c-0.2-0.3-0.3-0.5-0.5-0.6c-0.1-0.1-0.1-0.1-0.3-0.2c0.3,0,0.5-0.1,0.6-0.3c0.2-0.2,0.2-0.4,0.2-0.6c0-0.2,0-0.3-0.1-0.4
		c-0.1-0.1-0.2-0.2-0.4-0.3C489.8,154.1,489.5,154.1,489.1,154.1 M487,155.5c0-0.4,0.1-0.8,0.3-1.2c0.2-0.4,0.5-0.7,0.9-0.9
		c0.4-0.2,0.8-0.3,1.2-0.3c0.4,0,0.8,0.1,1.2,0.3c0.4,0.2,0.7,0.5,0.9,0.9c0.2,0.4,0.3,0.8,0.3,1.2c0,0.4-0.1,0.8-0.3,1.2
		c-0.2,0.4-0.5,0.7-0.9,0.9c-0.4,0.2-0.8,0.3-1.2,0.3c-0.4,0-0.8-0.1-1.2-0.3c-0.4-0.2-0.7-0.5-0.9-0.9
		C487.1,156.3,487,155.9,487,155.5 M486.9,154.1c-0.3,0.5-0.4,0.9-0.4,1.4c0,0.5,0.1,1,0.4,1.4c0.2,0.4,0.6,0.8,1,1
		c0.4,0.2,0.9,0.4,1.4,0.4c0.5,0,1-0.1,1.4-0.4c0.4-0.2,0.8-0.6,1-1c0.2-0.5,0.4-0.9,0.4-1.4c0-0.5-0.1-1-0.4-1.4
		c-0.3-0.5-0.6-0.8-1.1-1c-0.5-0.2-0.9-0.4-1.4-0.4c-0.5,0-0.9,0.1-1.4,0.4C487.5,153.3,487.1,153.7,486.9,154.1 M450.5,154.8
		c-1.7,1.8-2.5,4.3-2.5,7.7c0,3.4,0.8,6,2.5,7.7c1.7,1.8,4.2,2.7,7.5,2.7h17.6c6.4,0,9.6-2.6,9.6-7.7v-3.7h-24.7v3.9h20.3
		c0,2.2-2,3.3-5.9,3.3h-16.1c-2.1,0-3.7-0.5-4.8-1.6c-1.1-1.1-1.6-2.6-1.6-4.6c0-2,0.5-3.5,1.6-4.6c1.1-1.1,2.7-1.6,4.8-1.6h16.1
		c4,0,5.9,1.2,5.9,3.5h4.4c0-2.6-0.7-4.5-2.3-5.8c-1.6-1.3-4-1.9-7.2-1.9H458C454.7,152.2,452.2,153.1,450.5,154.8 M410.4,152.7
		h-4.3v19.7h4.2v-15l28.8,15h4.2v-19.7h-4.2v15L410.4,152.7z M400.5,152.7h-37.2v4.1h16.5l0,11.5h-16.5v4.1h37.2v-4.1H384v-11.5
		h16.5V152.7z M324.7,152.7h-4.2v19.7h4.2v-8.1h28.8v8.1h4.2v-19.7h-4.2v7.5h-28.8V152.7z M282.8,165.8h-4.4c0,1.7,0.2,3,0.7,4
		s1.3,1.8,2.6,2.3c1.3,0.5,3,0.8,5.2,0.8h20.5c1.1,0,2-0.1,2.9-0.2c0.8-0.2,1.5-0.3,2.1-0.6c0.6-0.2,1-0.5,1.4-0.9
		c0.4-0.4,0.7-0.7,0.9-1.1c0.2-0.3,0.4-0.7,0.5-1.2c0.1-0.5,0.2-0.9,0.2-1.2c0-0.3,0-0.7,0.1-1.2c0-1.6-0.2-2.8-0.8-3.6
		c-0.7-1-2.3-1.7-4.7-2c-1.7-0.2-5.8-0.4-12.1-0.5c-5.9-0.1-9.8-0.2-11.7-0.5c-1.9-0.3-2.9-0.9-2.9-1.8c0-0.8,0.3-1.3,0.9-1.6
		c0.6-0.3,1.9-0.4,4-0.4h18.2c1.8,0,3,0.2,3.6,0.7c0.7,0.5,1,1.3,1,2.4h4.4c0-2.3-0.6-4-1.9-5.3c-1.3-1.3-3.2-1.9-5.9-1.9h-20.7
		c-1.6,0-2.9,0.1-4,0.4c-1.1,0.3-1.9,0.7-2.5,1.2c-0.6,0.6-1,1.2-1.2,2c-0.2,0.7-0.4,1.7-0.4,2.8c0,1.1,0.2,1.9,0.6,2.6
		c0.7,1.3,2.5,2.2,5.2,2.7c1.9,0.3,5.6,0.5,11.3,0.6c2.3,0,4.1,0.1,5.6,0.1c1.4,0,2.8,0.1,4,0.2c1.2,0.1,2.2,0.2,2.8,0.3
		c0.6,0.1,1.2,0.2,1.7,0.4c0.5,0.2,0.8,0.4,0.9,0.6c0.1,0.2,0.2,0.5,0.2,0.9c0,0.8-0.3,1.4-0.9,1.7c-0.6,0.3-2,0.4-4,0.4h-18
		c-1.6,0-2.7-0.1-3.5-0.3c-0.7-0.2-1.2-0.5-1.5-0.9C282.9,167.3,282.8,166.7,282.8,165.8 M248.7,140.9h42.5l-21.2-36.8L248.7,140.9z
		 M273.4,152.7h-37.2v4.1h16.5l0,11.5h-16.5v4.1h37.2v-4.1h-16.5v-11.5h16.5V152.7z M198.6,152.7h-4.2v19.7h37.2v-8.6h-4.2v4.5
		h-28.8V152.7z M182.9,156.5c1,0,1.5,0.6,1.5,1.9c0,1.3-0.5,1.9-1.5,1.9h-26.2v-3.9H182.9z M156.7,164.2h26.6c1.3,0,2,0.7,2,2.2
		c0,1.4-0.7,2.2-2,2.2h-26.6V164.2z M183,152.7h-30.5v19.7h31.3c4,0,6-1.9,6-5.8c0-2.3-0.9-3.9-2.6-4.8c1-0.7,1.6-2,1.6-3.8
		C188.8,154.4,186.9,152.7,183,152.7 M114.3,152.7h-4.3v11.1c0,2.9,0.7,5.2,2.2,6.8c1.5,1.6,3.6,2.4,6.3,2.4h20.2
		c2.6,0,4.7-0.8,6.3-2.4c1.5-1.6,2.3-3.8,2.3-6.7v-11.1h-4.3v11c0,1.8-0.4,3.1-1.2,3.8c-0.8,0.8-2.2,1.1-4.1,1.1h-18
		c-2,0-3.4-0.4-4.1-1.1c-0.8-0.7-1.2-2-1.2-3.8V152.7z M72.8,156.8H99c1.6,0,2.4,1.1,2.4,3.2c0,2.2-0.8,3.4-2.4,3.4H72.8V156.8z
		 M99,152.7H68.6v19.7h4.3l0-4.9H99c2.1,0,3.7-0.7,5-2c1.2-1.4,1.9-3.2,1.9-5.5c0-2.2-0.6-4-1.9-5.3
		C102.8,153.3,101.1,152.7,99,152.7 M247.2,128.5H55.8v4.7h188.7L247.2,128.5z M82.8,83H117V69.8H67.9v45.3h14.9V99.6h30.8V86.5
		H82.8V83z M176.3,97.4V69.8h-14.9v27.6c0,3.3-2.5,4.5-6.5,4.5h-11.8c-4,0-6.5-1.3-6.5-4.5V69.8h-14.9v27.6
		c0,13.1,7.7,17.7,21.3,17.7h11.8C168.5,115.1,176.3,110.5,176.3,97.4 M181.4,115.1h43.1c-0.2-0.5-0.5-0.9-0.7-1.4c0,0,0,0,0,0
		c-0.2-0.5-0.4-1-0.6-1.4c0,0,0,0,0-0.1c-0.2-0.5-0.3-1-0.5-1.5c0,0,0-0.1,0-0.1c-0.1-0.5-0.3-1-0.4-1.4c0-0.1,0-0.1-0.1-0.2
		c-0.1-0.5-0.2-0.9-0.3-1.4c0-0.1,0-0.2-0.1-0.3c-0.1-0.5-0.2-0.9-0.3-1.4c0-0.1,0-0.2-0.1-0.3c-0.1-0.5-0.1-1-0.2-1.5
		c0-0.1,0-0.2,0-0.3c-0.1-0.6-0.1-1.2-0.2-1.8h-24.9V69.8h-14.9V115.1z M314.1,98.2V74.4c0-20.7-12.3-28.1-33.9-28.1h-20.5
		c-21.6,0-33.9,7.4-33.9,28.1v23.7c0,17,8.2,25,23.1,27.4l11.7-20.2h-0.8c-6.3,0-10.3-2-10.3-7.2V74.4c0-5.2,3.9-7.2,10.3-7.2h20.5
		c6.3,0,10.3,2,10.3,7.2v23.7c0,5.2-3.9,7.2-10.3,7.2h-0.8l11.7,20.2C305.8,123.2,314.1,115.2,314.1,98.2 M349.4,87.5
		c0,3.3-2.5,4.5-6.5,4.5h-15.5V83h15.5C346.9,83,349.4,84.2,349.4,87.5 M365.3,115.1l-10.1-11.9c5.8-2.4,9-7.4,9-15.7
		c0-13.1-7.7-17.7-21.3-17.7h-24.3c0.1,1.5,0.2,3,0.2,4.7v23.7c0,0.8,0,1.5,0,2.2c0,0.2,0,0.4,0,0.6c0,0.6-0.1,1.1-0.1,1.7
		c0,0.2,0,0.3,0,0.5c-0.1,1.4-0.3,2.8-0.6,4.2c0,0.1,0,0.1,0,0.2c-0.1,0.6-0.3,1.3-0.4,1.9c0,0.1,0,0.1,0,0.2
		c-0.5,2-1.2,3.8-2.1,5.6h12.1v-9.9h11.8l8.4,9.9H365.3z M421.2,97.4V69.8h-14.9v27.6c0,3.3-2.5,4.5-6.5,4.5H390
		c-4,0-6.5-1.3-6.5-4.5V69.8h-14.9v27.6c0,13.1,7.7,17.7,21.3,17.7h9.8C413.4,115.1,421.2,110.5,421.2,97.4 M470.8,115.1h14.9V69.8
		h-14.9l-14.5,17l-14.5-17H427v45.3h14.9V90.6l14.5,17l14.5-17V115.1z M498,133.2v-4.7H308.4H305h-12.3l2.7,4.7h29.2H498z"/>
</g>
<g>
</g>
<g>
</g>
<g>
</g>
<g>
</g>
<g>
</g>
<g>
</g>
</svg>
