<svg width="64" height="64" viewBox="0 0 64 64" fill="none" xmlns="http://www.w3.org/2000/svg">
<rect x="13.5576" y="29.2305" width="30.0512" height="30.7691" fill="#9B1C1C"/>
<path d="M13.5576 28.5183L29.9492 22.8203L46.3407 28.5183V33.0767H13.5576V28.5183Z" fill="#0F1A29"/>
<path d="M46.3418 11.2822H54.5376L60.0014 59.9999H40.8779L46.3418 11.2822Z" fill="#C12A2A"/>
<path fill-rule="evenodd" clip-rule="evenodd" d="M54.5395 11.2822H46.3437L45.6249 17.6914H55.2583L54.5395 11.2822ZM55.8335 22.8196H45.0498L44.1871 30.5117H56.6962L55.8335 22.8196ZM57.2713 35.6399H43.6119L42.7492 43.332H58.134L57.2713 35.6399ZM58.7092 48.4602H42.1741L40.8799 59.9999H60.0034L58.7092 48.4602Z" fill="#0F1A29"/>
<rect x="44.9834" y="10" width="10.9277" height="2.56409" fill="#0F1A29"/>
<path d="M38.6653 18.7744H45.6001L50.2234 59.9971H34.042L38.6653 18.7744Z" fill="#C12A2A"/>
<path fill-rule="evenodd" clip-rule="evenodd" d="M45.5982 18.7764H38.6633L38.055 24.2002H46.2065L45.5982 18.7764ZM46.6932 28.5394H37.5683L36.8383 35.0488H47.4232L46.6932 28.5394ZM47.9099 39.3881H36.3516L35.6217 45.8965H48.6398L47.9099 39.3881ZM49.1265 50.2357H35.135L34.04 59.999H50.2215L49.1265 50.2357Z" fill="#0F1A29"/>
<rect x="37.5166" y="17.6904" width="9.24652" height="2.16961" fill="#0F1A29"/>
<rect x="4" y="38" width="45" height="21.9998" fill="#C12A2A"/>
<path d="M18.998 50.6467C18.998 50.0944 19.4458 49.6467 19.998 49.6467H34.3617C34.914 49.6467 35.3617 50.0944 35.3617 50.6467V59.9996H18.998V50.6467Z" fill="#0F1A29"/>
<path d="M9.45898 41.8818H17.6408V44.4701H9.45898V41.8818Z" fill="#0F1A29"/>
<path d="M23.085 41.8818H31.2668V44.4701H23.085V41.8818Z" fill="#0F1A29"/>
<path d="M36.7256 41.8818H44.9074V44.4701H36.7256V41.8818Z" fill="#0F1A29"/>
<rect x="25.8496" y="27.9482" width="8.19578" height="2.56409" fill="#9B1C1C"/>
<path fill-rule="evenodd" clip-rule="evenodd" d="M18.7836 17.3855C18.0389 19.785 15.6782 21.5384 12.8812 21.5384C9.48641 21.5384 6.73438 18.9554 6.73438 15.7692C6.73438 12.583 9.48641 10 12.8812 10C14.5099 10 15.9906 10.5945 17.0905 11.5649C17.8367 10.6157 19.0368 10 20.3901 10C22.1851 10 23.7106 11.0833 24.2649 12.5913C25.9372 12.7989 27.2278 14.1423 27.2278 15.7686C27.2278 17.5387 25.6989 18.9737 23.8129 18.9737C22.6729 18.9737 21.6633 18.4494 21.0431 17.6437C20.8304 17.6757 20.6123 17.6923 20.3901 17.6923C19.8199 17.6923 19.2769 17.583 18.7836 17.3855ZM34.0536 11.9231C34.0536 12.9851 33.1363 13.8461 32.0047 13.8461C30.8731 13.8461 29.9557 12.9851 29.9557 11.9231C29.9557 10.861 30.8731 10 32.0047 10C33.1363 10 34.0536 10.861 34.0536 11.9231ZM39.5195 15.1277C39.5195 15.8358 38.9079 16.4098 38.1535 16.4098C37.3991 16.4098 36.7875 15.8358 36.7875 15.1277C36.7875 14.4197 37.3991 13.8457 38.1535 13.8457C38.9079 13.8457 39.5195 14.4197 39.5195 15.1277Z" fill="#425C75"/>
</svg>
