<svg width="64" height="64" viewBox="0 0 64 64" fill="none" xmlns="http://www.w3.org/2000/svg">
<circle cx="31.29" cy="27.29" r="4.29" fill="#681313"/>
<circle cx="31.85" cy="34.85" r="5.85" fill="#681313"/>
<circle cx="27.41" cy="34.41" r="7.41" fill="#681313"/>
<circle cx="25.97" cy="43.97" r="8.97" fill="#681313"/>
<circle cx="31.19" cy="44.19" r="8.19" fill="#681313"/>
<path d="M27.1429 30H27.8571L30 60H25L27.1429 30Z" fill="#465262"/>
<circle cx="30.12" cy="35.12" r="3.12" fill="#811313"/>
<circle cx="27.12" cy="32.12" r="3.12" fill="#811313"/>
<circle cx="27.68" cy="38.68" r="4.68" fill="#811313"/>
<circle cx="31.68" cy="42.68" r="4.68" fill="#811313"/>
<circle cx="26.1716" cy="44.0505" r="5.07" fill="#811313"/>
<circle cx="20.5" cy="15.5" r="5.5" fill="#9B1C1C"/>
<circle cx="22.5" cy="24.5" r="7.5" fill="#9B1C1C"/>
<circle cx="17.5" cy="25.5" r="9.5" fill="#9B1C1C"/>
<circle cx="21.5" cy="34.5" r="11.5" fill="#9B1C1C"/>
<circle cx="15.5" cy="40.5" r="10.5" fill="#9B1C1C"/>
<path d="M19 22H20L23 60H16L19 22Z" fill="#465262"/>
<circle cx="23" cy="28" r="4" fill="#C12A2A"/>
<circle cx="20" cy="23" r="4" fill="#C12A2A"/>
<circle cx="16" cy="31" r="6" fill="#C12A2A"/>
<circle cx="25" cy="36" r="6" fill="#C12A2A"/>
<circle cx="14.5" cy="40.5" r="6.5" fill="#C12A2A"/>
<circle cx="46.29" cy="27.29" r="4.29" fill="#9B1C1C"/>
<circle cx="46.85" cy="34.85" r="5.85" fill="#9B1C1C"/>
<circle cx="42.41" cy="34.41" r="7.41" fill="#9B1C1C"/>
<circle cx="40.97" cy="43.97" r="8.97" fill="#9B1C1C"/>
<circle cx="46.19" cy="44.19" r="8.19" fill="#9B1C1C"/>
<path d="M42.1429 30H42.8571L45 60H40L42.1429 30Z" fill="#465262"/>
<circle cx="45.12" cy="35.12" r="3.12" fill="#C12A2A"/>
<circle cx="42.12" cy="32.12" r="3.12" fill="#C12A2A"/>
<circle cx="42.68" cy="38.68" r="4.68" fill="#C12A2A"/>
<circle cx="46.68" cy="42.68" r="4.68" fill="#C12A2A"/>
<circle cx="41.1716" cy="44.0505" r="5.07" fill="#C12A2A"/>
</svg>
