<?xml version="1.0" encoding="utf-8"?>
<!-- Generator: Adobe Illustrator 24.1.2, SVG Export Plug-In . SVG Version: 6.00 Build 0)  -->
<svg version="1.1" xmlns="http://www.w3.org/2000/svg" xmlns:xlink="http://www.w3.org/1999/xlink" x="0px" y="0px"
	 viewBox="0 0 64 64" style="enable-background:new 0 0 64 64;" xml:space="preserve">
<style type="text/css">
	.st0{display:none;}
	.st1{display:inline;fill:#23394F;}
	.st2{display:inline;fill:#1A2B43;}
	.st3{display:inline;fill:#365D85;}
	.st4{display:inline;fill:none;}
	.st5{fill:#9B1C1C;}
	.st6{fill:#0F1A29;}
	.st7{fill:#425C75;}
	.st8{fill:#C12A2A;}
</style>
<g id="Layer_2" class="st0">
	<rect x="42" y="29" class="st1" width="12" height="31"/>
	<path class="st2" d="M36,11.4L48,7l12,4.4V15H36V11.4z"/>
	<rect x="38" y="15" class="st3" width="20" height="15"/>
	<rect x="39" y="16" class="st2" width="18" height="8"/>
	<path class="st3" d="M4,39.3V60h43V39.3L25.1,29L4,39.3z"/>
	<path class="st2" d="M17,19h9v9h-9l3.3-4.9L17,19z"/>
	<rect x="15" y="47" class="st2" width="21" height="13"/>
	<rect x="22" y="38" class="st2" width="7" height="6"/>
	<rect x="0" class="st4" width="64" height="64"/>
</g>
<g id="Layer_1">
	<path class="st5" d="M40.5,34.9l6.1-4.6l6.2,4.6v11.4H40.5V34.9z"/>
	<path class="st5" d="M21,34.9l6.2-4.6l6.1,4.6v9.8H21V34.9z"/>
	<path class="st6" d="M9.8,39l6.2-4.6l6.2,4.6v9.8H9.8V39z"/>
	<path class="st6" d="M49.8,40.4l5.1-3.9l5.1,3.9v8.4H49.8V40.4z"/>
	<rect x="12.9" y="42.1" class="st7" width="6.2" height="3.1"/>
	<path class="st5" d="M3.6,48.2l6.1-4.6l6.2,4.6V58H3.6V48.2z"/>
	<path class="st5" d="M45.7,48.2l6.1-4.6l6.2,4.6V58H45.7V48.2z"/>
	<path class="st8" d="M14.9,46l8.7-6.5l8.7,6.5v14H14.9V46z"/>
	<rect x="6.7" y="51.3" class="st6" width="6.2" height="3.1"/>
	<rect x="48.7" y="51.3" class="st6" width="6.2" height="3.1"/>
	<rect x="19" y="50.8" class="st6" width="9.2" height="4.1"/>
	<rect x="29.3" y="39.5" class="st5" width="19.5" height="20.5"/>
	<path class="st6" d="M29.3,33.9L39,22.1l9.7,11.7v3.6H29.3V33.9z"/>
	<rect x="31.3" y="39.5" class="st8" width="15.4" height="20.5"/>
	<rect x="29.3" y="36.8" class="st8" width="19.5" height="3.1"/>
	<rect x="35.4" y="47.7" class="st6" width="7.2" height="12.3"/>
	<path class="st6" d="M33.3,16h6.2v6.1h-6.2l2.2-3.4L33.3,16z"/>
</g>
</svg>
