<?xml version="1.0" encoding="utf-8"?>
<!-- Generator: Adobe Illustrator 24.1.2, SVG Export Plug-In . SVG Version: 6.00 Build 0)  -->
<svg version="1.1" id="Layer_1" xmlns="http://www.w3.org/2000/svg" xmlns:xlink="http://www.w3.org/1999/xlink" x="0px" y="0px"
	 viewBox="0 0 64 64" style="enable-background:new 0 0 64 64;" xml:space="preserve">
<style type="text/css">
	.st0{fill:#9B1C1C;}
	.st1{fill:#0F1A29;}
	.st2{fill:#C12A2A;}
	.st3{fill:#C73E3E;}
</style>
<rect x="8" y="24" class="st0" width="23" height="10"/>
<rect x="11" y="26" class="st1" width="14" height="8"/>
<path class="st1" d="M8,20.4l6.5-4.4l6.5,4.4V24H8V20.4z"/>
<path class="st2" d="M41,26.4l6-4.4l6,4.4V30H41V26.4z"/>
<rect x="23" y="15" class="st2" width="18" height="45"/>
<rect x="4" y="32" class="st3" width="19" height="28"/>
<rect x="41" y="30" class="st1" width="19" height="30"/>
<rect x="25" y="18" class="st1" width="6" height="6"/>
<rect x="25" y="26" class="st1" width="6" height="6"/>
<rect x="25" y="34" class="st1" width="6" height="14"/>
<rect x="17" y="34" class="st1" width="6" height="14"/>
<rect x="45" y="34" class="st2" width="11" height="14"/>
<rect x="6" y="34" class="st1" width="9" height="14"/>
<rect x="25" y="50" class="st1" width="14" height="10"/>
<rect x="22" y="13" class="st1" width="20" height="4"/>
<rect x="25" y="12" class="st1" width="6" height="1"/>
<rect x="33" y="18" class="st1" width="6" height="6"/>
<rect x="33" y="26" class="st1" width="6" height="14"/>
<rect x="33" y="42" class="st1" width="6" height="6"/>
</svg>
