<svg width="64" height="64" viewBox="0 0 64 64" fill="none" xmlns="http://www.w3.org/2000/svg">
<rect x="8" y="24" width="23" height="10" fill="#23394F"/>
<rect x="11" y="26" width="14" height="8" fill="#1A2B43"/>
<path d="M8 20.4444L14.5 16L21 20.4444V24H8V20.4444Z" fill="#1A2B43"/>
<path d="M41 26.4444L47 22L53 26.4444V30H41V26.4444Z" fill="#365D85"/>
<rect x="23" y="15" width="18" height="45" fill="#365D85"/>
<rect x="4" y="32" width="19" height="28" fill="#425C75"/>
<rect x="41" y="30" width="19" height="30" fill="#1A2B43"/>
<rect x="25" y="18" width="6" height="6" fill="#1A2B43"/>
<rect x="25" y="26" width="6" height="6" fill="#1A2B43"/>
<rect x="25" y="34" width="6" height="14" fill="#1A2B43"/>
<rect x="17" y="34" width="6" height="14" fill="#1A2B43"/>
<rect x="45" y="34" width="11" height="14" fill="#365D85"/>
<rect x="6" y="34" width="9" height="14" fill="#1A2B43"/>
<rect x="25" y="50" width="14" height="10" fill="#1A2B43"/>
<rect x="22" y="13" width="20" height="4" fill="#1A2B43"/>
<rect x="25" y="12" width="6" height="1" fill="#1A2B43"/>
<rect x="33" y="18" width="6" height="6" fill="#1A2B43"/>
<rect x="33" y="26" width="6" height="14" fill="#1A2B43"/>
<rect x="33" y="42" width="6" height="6" fill="#1A2B43"/>
</svg>
