<svg width="64" height="64" viewBox="0 0 64 64" fill="none" xmlns="http://www.w3.org/2000/svg">
<path d="M4 28.0001C4 28.0001 15 32.0001 32.5 24.5001C50 17.0001 60 28.0001 60 28.0001V60.0001H4V28.0001Z" fill="#365D85"/>
<path d="M19.5884 41.9858C20.0136 41.9079 20.4466 41.8144 20.8839 41.752C21.3297 41.6879 21.7273 41.6308 21.993 41.1545C22.1551 40.8635 22.5044 40.6487 22.8114 40.4729C23.9749 39.8061 24.294 38.7842 24.1129 37.5277C24.0931 37.3926 24.0948 37.2549 24.0905 37.183C27.0608 39.2077 30.3088 39.5203 33.8112 38.8578C34.1131 39.4311 34.7315 39.4848 35.3809 39.5186C36.371 39.5697 37.3076 39.8589 38.2253 40.2556C37.4836 40.4478 36.728 40.5777 36.2649 41.3329H37.744C37.4404 41.5632 37.2136 41.7364 36.9738 41.9183C37.6871 41.8516 38.2882 41.8048 38.8868 41.7356C39.1084 41.7104 39.3214 41.6186 39.5422 41.5849C39.8199 41.5424 40.1253 41.4463 40.3771 41.5173C41.0903 41.72 41.382 42.1339 42.0521 41.9044C42.9606 41.9044 43.2158 41.9044 44.012 41.9858C44.1741 42.0742 45.1004 41.72 45.3186 41.7356C45.1159 41.5831 44.8765 41.5797 44.6592 41.4506C44.3504 41.2679 44.0313 41.0973 43.7019 40.957C43.3784 40.8193 43.1947 40.5898 43.0145 40.2902C42.8411 40.001 42.5332 39.7879 42.265 39.5645C42.1262 39.4493 41.9459 39.3844 41.7846 39.2969C45.6019 39.8304 48.8352 38.5348 51.6097 36.0494C54.1678 33.7588 54.5145 29.8116 52.5576 27.0551C50.8163 24.6017 46.7386 24.2692 44.8205 26.468C43.0835 28.458 43.0326 31.7194 46.1849 33.396C47.2138 33.9424 48.2927 33.745 49.2397 33.0608C49.7951 32.6599 50.0211 31.7757 49.7986 31.0543C49.583 30.3555 49.0724 29.9987 48.3747 29.9069C47.8805 29.8419 47.4561 30.0056 47.194 30.4507C46.9473 30.8699 47.0008 31.2933 47.2819 31.8034C47.3018 31.5315 47.3035 31.3652 47.3276 31.2015C47.4122 30.6404 47.7537 30.3113 48.2237 30.3277C48.7438 30.3468 49.2337 30.7945 49.282 31.2968C49.3372 31.8692 49.0439 32.3862 48.523 32.6356C47.5881 33.0834 46.5626 32.9318 45.795 32.2338C44.8334 31.3591 44.4479 29.9276 44.9084 28.7144C45.0947 28.2225 45.3526 27.7367 45.6726 27.3219C46.4842 26.2697 47.5846 25.957 48.8654 26.2264C50.3186 26.5321 51.3864 27.3141 51.7563 28.8018C52.1962 30.5685 51.8616 32.2156 50.5903 33.5458C49.313 34.882 47.7985 35.871 45.8942 36.0399C44.7618 36.1403 43.6691 35.8805 42.5979 35.5246C40.3918 34.792 38.2123 33.9554 35.9699 33.3561C33.2101 32.6183 30.3924 32.103 27.6093 31.4466C25.291 30.8993 23.1616 29.9077 21.2435 28.4814C20.4155 27.8657 19.5557 27.2959 18.9123 26.4481C18.4569 25.8479 17.7454 25.6799 17.0114 25.7094C15.8083 25.7579 14.6034 25.7977 13.4046 25.9051C13.0786 25.9345 12.7155 26.1294 12.4689 26.3571C11.8608 26.9192 11.8427 27.6345 12.4249 28.2268C13.0398 28.8521 13.7134 29.4193 14.3628 30.0091C15.1399 30.7157 15.8928 31.4527 16.7061 32.1143C17.2486 32.5551 17.8696 32.9032 18.4733 33.2626C19.1891 33.6896 19.9291 34.0741 20.6467 34.4975C21.0072 34.7106 21.1961 35.0137 21.2366 35.477C21.2789 35.9541 21.4996 36.4157 21.6402 36.8842C21.9007 37.7537 21.8921 38.6223 21.6014 39.4814C21.3323 40.2772 20.7321 40.5093 19.986 40.1352C19.7049 39.994 19.4134 39.7481 19.1193 40.1049C19.2909 40.2244 19.4513 40.3361 19.6126 40.4487C19.5988 40.5041 19.585 40.5595 19.5712 40.615C18.9218 40.4989 18.2344 40.2261 17.7574 40.9466C18.0515 40.9605 18.3068 40.9726 18.5621 40.9847C18.5578 41.0194 18.5535 41.0549 18.5492 41.0895C18.2853 41.2861 18.0214 41.4827 17.7471 41.6871C18.1464 41.6871 18.4595 41.6481 18.757 41.6983C19.0442 41.7468 19.3159 41.8862 19.5867 41.9832L19.5884 41.9858Z" fill="#1A2B43"/>
<path d="M23.1029 40.9039C23.3402 41.0181 23.6069 41.1208 23.8665 41.1564C24.0812 41.1859 24.3425 41.1771 24.5863 41.0419C24.8417 40.9003 25.0026 40.6623 25.0858 40.3822L23.1029 40.9039ZM23.1029 40.9039L23.016 41.3014L22.5331 41.2031C22.4578 41.1878 22.3837 41.1703 22.3172 41.1544L22.3031 41.151L22.297 41.2075L22.2883 41.2876C22.371 41.3155 22.4467 41.3468 22.5133 41.376C22.5787 41.4048 22.6275 41.4274 22.671 41.4477C22.6818 41.4526 22.6922 41.4575 22.7024 41.4622C22.7483 41.4522 22.7951 41.4419 22.8427 41.4314C23.0916 41.3766 23.3602 41.3175 23.6218 41.275L23.1029 40.9039ZM24.8025 37.1238L24.8025 37.1236C24.7649 36.981 24.7158 36.8229 24.6712 36.6794C24.6466 36.6002 24.6234 36.5255 24.6042 36.4602C24.5726 36.3524 24.546 36.2522 24.526 36.1568L24.6981 36.0192L25.5155 36.3212L25.8176 37.594C25.8193 37.6612 25.8236 37.7981 25.8381 37.9114C25.9073 38.4584 25.8989 38.8529 25.8177 39.2194C25.7358 39.5895 25.5725 39.9642 25.2857 40.4646C25.2564 40.5156 25.2385 40.5404 25.2308 40.5501C25.2298 40.5508 25.2287 40.5516 25.2273 40.5525C25.2043 40.5681 25.1382 40.6128 25.0736 40.6845C25.0088 40.7564 24.9594 40.8379 24.9162 40.9251C24.9116 40.9297 24.8889 40.953 24.8251 40.9873C24.7359 41.0352 24.6109 41.0807 24.4583 41.1213C24.2173 41.1854 23.9733 41.2218 23.7778 41.251C23.7215 41.2594 23.6692 41.2672 23.6221 41.2749C23.6222 41.2749 23.6223 41.2749 23.6224 41.2749L24.8025 37.1238ZM24.8025 37.1238C24.9106 37.5345 25.0475 38.1049 25.1265 38.6811M24.8025 37.1238L25.1265 38.6811M25.1265 38.6811C25.2032 39.2402 25.2363 39.8756 25.0858 40.3821L25.1265 38.6811Z" stroke="#1A2B43"/>
</svg>
