<svg id="Layer_1" data-name="Layer 1" xmlns="http://www.w3.org/2000/svg" viewBox="0 0 31.096 106"><defs><style>.cls-1{fill:#365d85;}</style></defs><rect class="cls-1" x="7.793" y="80.898" width="15.595" height="0.024"/><rect class="cls-1" x="7.793" y="72.295" width="15.595" height="4.402"/><rect class="cls-1" x="7.793" y="63.692" width="15.595" height="4.402"/><rect class="cls-1" x="7.793" y="55.089" width="15.595" height="4.402"/><rect class="cls-1" x="7.793" y="46.486" width="15.595" height="4.402"/><rect class="cls-1" x="7.793" y="37.882" width="15.595" height="4.402"/><rect class="cls-1" x="7.793" y="29.279" width="15.595" height="4.402"/><rect class="cls-1" x="7.793" y="20.676" width="15.595" height="4.402"/><rect class="cls-1" x="7.793" y="12.073" width="15.595" height="4.402"/><rect class="cls-1" x="7.793" y="3.47" width="15.595" height="4.402"/><rect class="cls-1" x="0.084" y="3.47" width="3.596" height="4.402"/><rect class="cls-1" x="0.084" y="12.073" width="3.596" height="4.402"/><rect class="cls-1" x="0.084" y="20.676" width="3.596" height="4.402"/><path class="cls-1" d="M10.622,31.8a1.694,1.694,0,0,1,1.523-.216v-2.3H8.55v4.4h.208a4.4,4.4,0,0,1,.85-1.087A7.14,7.14,0,0,1,10.622,31.8Z" transform="translate(-8.465)"/><path class="cls-1" d="M9.41,39.466c.165-.145.345-.286.524-.426h0a8.164,8.164,0,0,0,.707-.6,1.14,1.14,0,0,0,.328-.561H8.55v2.455A5.875,5.875,0,0,1,9.41,39.466Z" transform="translate(-8.465)"/><path class="cls-1" d="M8.55,41.409v.875h.525a1,1,0,0,0-.312-.632A2.45,2.45,0,0,1,8.55,41.409Z" transform="translate(-8.465)"/><path class="cls-1" d="M11.015,48.33l-.163.167a3.62,3.62,0,0,1-2.212,1.37l-.09,0v1.017h3.595v-4.4H11.18c.061.061.124.123.188.184C11.819,47.1,11.673,47.67,11.015,48.33Z" transform="translate(-8.465)"/><rect class="cls-1" x="0.084" y="55.089" width="3.596" height="4.402"/><rect class="cls-1" x="0.084" y="63.692" width="3.596" height="4.402"/><rect class="cls-1" x="0.084" y="72.295" width="3.596" height="4.402"/><rect class="cls-1" x="0.084" y="80.898" width="3.596" height="0.024"/><rect class="cls-1" x="27.5" y="80.898" width="3.596" height="0.024"/><path class="cls-1" d="M39.561,72.3h-3.6v1.9l3.6-.572Z" transform="translate(-8.465)"/><rect class="cls-1" x="27.5" y="63.692" width="3.596" height="4.402"/><rect class="cls-1" x="7.793" y="98.129" width="15.595" height="4.402"/><path class="cls-1" d="M33.507,77.758a4.829,4.829,0,0,0-.121-.806l1.171-.918c-.062-.574-.116-1.083-.158-1.588l.8-.126V0h-2.57V106h2.57V79.839l-.853-.282A2.12,2.12,0,0,1,33.507,77.758Z" transform="translate(-8.465)"/><path class="cls-1" d="M12.916,34.191a2.035,2.035,0,0,0,.742.553c.329.156.312.7.273,1.116a14.127,14.127,0,0,1-.445,2.242,5.057,5.057,0,0,0,.315,4.065,4.394,4.394,0,0,1,.3.682c.049.126.1.266.167.426l-.394.183h0c-.331.153-.652.3-.959.456V106h2.571V0H12.916Z" transform="translate(-8.465)"/><rect class="cls-1" x="7.793" y="89.525" width="15.595" height="4.402"/><rect class="cls-1" x="7.793" y="85.3" width="15.595" height="0.024"/><rect class="cls-1" x="7.793" y="80.922" width="15.595" height="4.378"/><rect class="cls-1" x="0.084" y="85.3" width="3.596" height="0.024"/><rect class="cls-1" x="0.084" y="80.922" width="3.596" height="4.378"/><path class="cls-1" d="M8.55,91l1.157,1.045,0,0h0l0,0,.006.006.938.848c0,.162,0,.32,0,.478s0,.316,0,.478h0l.07.064h1.421v-4.4H8.55Z" transform="translate(-8.465)"/><path class="cls-1" d="M11.039,98.427h0l-.175.065h0c-.193.073-.368.138-.534.195-.032.192-.067.378-.1.564-.022.113-.044.227-.065.344l-.707.2-.9-.816v3.548h3.595v-4.4H11.082c-.015.1-.029.2-.043.3Z" transform="translate(-8.465)"/><rect class="cls-1" x="27.5" y="98.129" width="3.596" height="4.402"/><rect class="cls-1" x="27.5" y="89.525" width="3.596" height="4.402"/><rect class="cls-1" x="27.5" y="85.3" width="3.596" height="0.024"/><rect class="cls-1" x="27.5" y="80.922" width="3.596" height="4.378"/><rect class="cls-1" x="27.5" y="55.089" width="3.596" height="4.402"/><rect class="cls-1" x="27.5" y="46.486" width="3.596" height="4.402"/><rect class="cls-1" x="27.5" y="37.882" width="3.596" height="4.402"/><rect class="cls-1" x="27.5" y="29.279" width="3.596" height="4.402"/><path class="cls-1" d="M39.561,23.647l-1.153-1.042,0,0h0l0,0-.006-.006-.987-.893c0-.171,0-.337,0-.5s0-.332,0-.5h0l-.02-.018H35.965v4.4h3.6Z" transform="translate(-8.465)"/><path class="cls-1" d="M37.006,15.891h0l.184-.069h0c.2-.076.388-.145.563-.2.033-.2.07-.4.108-.594.023-.12.046-.24.068-.362l.744-.214.887.8V12.073h-3.6v4.4h.959c.027-.2.055-.4.082-.584Z" transform="translate(-8.465)"/><rect class="cls-1" x="27.5" y="3.47" width="3.596" height="4.402"/><path class="cls-1" d="M8.465,40.462v.828c.025.039.054.079.085.119V40.337C8.519,40.379,8.49,40.421,8.465,40.462Z" transform="translate(-8.465)"/></svg>