<svg id="Layer_4" data-name="Layer 4" xmlns="http://www.w3.org/2000/svg" viewBox="0 0 2048 4096"><defs><style>.cls-1{opacity:0.4;}.cls-10,.cls-2,.cls-3,.cls-4,.cls-8,.cls-9{fill:none;}.cls-10,.cls-3,.cls-4,.cls-5,.cls-6,.cls-8,.cls-9{stroke:#000;}.cls-3{stroke-width:2.672px;}.cls-4{stroke-width:1.205px;}.cls-5,.cls-6,.cls-7{fill:#fff;}.cls-5,.cls-8{stroke-width:1.336px;}.cls-6{stroke-width:1.099px;}.cls-9{stroke-width:1.455px;}.cls-10{stroke-width:1.61px;}</style></defs><g class="cls-1"><rect class="cls-2" width="2048" height="4096"/><path class="cls-3" d="M1784.622,497.463c5.019,2.837,8.438,3.925,12.378,5.8a76.125,76.125,0,0,0,17.711,6.243c12.307,2.6,23.692-2.086,35.931-2.552,13.581-.52,26.036-4.649,39.737-5.049,15.779-.46,31.975,8.324,46.676,13.537,5.359,1.9,9.658,4.216,15.38,2.574,6.6-1.895,12.06-4.793,18.982-5.494,14.811-1.5,25.392,3.5,39.268,7.487,12.939,3.712,20.1,7.724,33,11.442"/><line class="cls-4" x1="1875.035" y1="500.343" x2="1876.077" y2="506.685"/><line class="cls-4" x1="1879.794" y1="499.621" x2="1880.665" y2="505.988"/><line class="cls-4" x1="1884.622" y1="499.056" x2="1885.226" y2="505.455"/><line class="cls-4" x1="1889.515" y1="498.726" x2="1889.765" y2="505.148"/><line class="cls-4" x1="1894.564" y1="498.795" x2="1894.163" y2="505.21"/><line class="cls-4" x1="1899.559" y1="499.336" x2="1898.564" y2="505.686"/><line class="cls-4" x1="1904.426" y1="500.304" x2="1902.966" y2="506.563"/><line class="cls-4" x1="1909.178" y1="501.553" x2="1907.355" y2="507.716"/><line class="cls-4" x1="1913.807" y1="503.046" x2="1911.724" y2="509.126"/><line class="cls-4" x1="1918.347" y1="504.678" x2="1916.08" y2="510.692"/><line class="cls-4" x1="1922.804" y1="506.411" x2="1920.434" y2="512.385"/><line class="cls-4" x1="1927.21" y1="508.179" x2="1924.802" y2="514.138"/><line class="cls-4" x1="1931.576" y1="509.93" x2="1929.21" y2="515.906"/><line class="cls-4" x1="1935.925" y1="511.609" x2="1933.681" y2="517.632"/><line class="cls-4" x1="1940.374" y1="513.245" x2="1938.106" y2="519.259"/><line class="cls-4" x1="1944.595" y1="514.729" x2="1942.803" y2="520.901"/><line class="cls-4" x1="1948.395" y1="515.364" x2="1948.306" y2="521.79"/><line class="cls-4" x1="1789.698" y1="496.496" x2="1786.899" y2="502.281"/><line class="cls-4" x1="1793.888" y1="498.376" x2="1791.363" y2="504.287"/><line class="cls-4" x1="1798.344" y1="500.348" x2="1795.582" y2="506.152"/><line class="cls-4" x1="1802.545" y1="502.254" x2="1800.021" y2="508.164"/><line class="cls-4" x1="1806.782" y1="503.924" x2="1804.609" y2="509.972"/><line class="cls-4" x1="1811.087" y1="505.306" x2="1809.336" y2="511.49"/><line class="cls-4" x1="1815.472" y1="506.384" x2="1814.161" y2="512.676"/><line class="cls-4" x1="1819.748" y1="506.973" x2="1819.277" y2="513.383"/><line class="cls-4" x1="1824.137" y1="507.043" x2="1824.368" y2="513.466"/><line class="cls-4" x1="1828.615" y1="506.695" x2="1829.347" y2="513.08"/><line class="cls-4" x1="1833.173" y1="506.057" x2="1834.184" y2="512.404"/><path class="cls-3" d="M1423.93,246.623c17.255,9.112,33.417,19.018,49.947,29.321,8.021,5,18.757,8.448,22.565,17.874,1.727,4.277,1.793,8.751,2.918,13.281,1.6,6.444,5.392,11.615,8.666,17.307A292.383,292.383,0,0,0,1533.48,361.3c8.109,10.155,19.079,15.785,29.947,21.833,14.694,8.178,28.863,16.022,44.491,22.329,17.325,6.993,34.16,14.176,50.456,23.217a237.549,237.549,0,0,0,22.906,10.672c7.366,3.112,14.248,7.441,21.549,10.77,9.9,4.515,18.3,10.54,27.941,15.6,8.833,4.637,16.848,10.154,25.457,15.237,7.783,4.6,18.088,10.381,25.483,15.339"/><path class="cls-3" d="M993.269,19.758c8.077,7.136,16.379,14.113,24.335,21.451,4.538,4.186,11.082,10.736,16.226,13.922"/><path class="cls-3" d="M1200.215,137.217C1187.188,131.209,1038.2,57.2,1033.022,54.8"/><polygon class="cls-5" points="1426.07 245.746 1423.683 250.519 1417.702 247.553 1420.089 242.779 1426.07 245.746"/><polygon class="cls-5" points="1565.228 380.795 1562.842 385.569 1556.861 382.603 1559.247 377.829 1565.228 380.795"/><polygon class="cls-5" points="1788.304 496.295 1785.722 500.967 1777.415 496.412 1779.999 491.74 1788.304 496.295"/><rect class="cls-5" x="1859.8" y="503.589" width="7.265" height="5.333" transform="translate(-45.703 216.642) rotate(-6.573)"/><polygon class="cls-5" points="1963.842 511.252 1965.725 516.245 1958.919 518.784 1957.04 513.792 1963.842 511.252"/><path class="cls-3" d="M1205.784,139.5c7.885,4.74,12.074,8.272,12.2,16.59.092,6.1,1.156,13.764,6.982,17.27,9.788,5.89,22.246,9.086,32.713,13.8,12.914,5.815,26.1,10.136,39.3,15.148,20.679,7.851,83.161,22.96,122.14,42.958"/><polygon class="cls-5" points="1310.257 204.447 1308.187 209.366 1300.365 206.102 1302.436 201.183 1310.257 204.447"/><path class="cls-3" d="M1200.58,138.827a25.734,25.734,0,0,1,2.582,13.9c-.331,2.786-.969,5.543-1.412,8.3-.374,2.329-.624,4.8-1.17,7.061"/><path class="cls-3" d="M1216.837,150.24c-.933-2.1-4.347-2.175-6.354-1.847-2.7.442-6.722,2.584-7.4,5.479"/><polygon class="cls-5" points="1207.368 137.563 1204.797 142.241 1197.357 138.186 1199.929 133.509 1207.368 137.563"/><path class="cls-3" d="M194.526,3638.653c-13.41,5.448-26.053,14.72-41.226,13.034-11.8-1.686-23.6-3.371-35.4-4.214-5.058-.843-10.115-2.529-16.016-3.372-21.073-3.372-40.461,4.215-59,12.644-6.743,2.529-13.487,4.215-20.23,1.686-5.058-2.529-10.958-3.372-16.563-4.856"/><line class="cls-4" x1="103.071" y1="3647.875" x2="104.113" y2="3641.533"/><line class="cls-4" x1="98.483" y1="3647.178" x2="99.355" y2="3640.81"/><line class="cls-4" x1="93.922" y1="3646.645" x2="94.527" y2="3640.246"/><line class="cls-4" x1="89.384" y1="3646.337" x2="89.634" y2="3639.915"/><line class="cls-4" x1="84.985" y1="3646.4" x2="84.584" y2="3639.985"/><line class="cls-4" x1="80.585" y1="3646.875" x2="79.59" y2="3640.526"/><line class="cls-4" x1="76.183" y1="3647.753" x2="74.723" y2="3641.494"/><line class="cls-4" x1="71.793" y1="3648.906" x2="69.97" y2="3642.743"/><line class="cls-4" x1="67.425" y1="3650.316" x2="65.342" y2="3644.236"/><line class="cls-4" x1="63.069" y1="3651.881" x2="60.802" y2="3645.868"/><line class="cls-4" x1="58.715" y1="3653.575" x2="56.344" y2="3647.601"/><line class="cls-4" x1="54.346" y1="3655.328" x2="51.938" y2="3649.369"/><line class="cls-4" x1="49.938" y1="3657.096" x2="47.572" y2="3651.12"/><line class="cls-4" x1="45.468" y1="3658.821" x2="43.223" y2="3652.799"/><line class="cls-4" x1="41.043" y1="3660.449" x2="38.775" y2="3654.435"/><line class="cls-4" x1="36.345" y1="3662.091" x2="34.553" y2="3655.919"/><line class="cls-4" x1="30.842" y1="3662.98" x2="30.754" y2="3656.554"/><line class="cls-4" x1="192.25" y1="3643.471" x2="189.45" y2="3637.686"/><line class="cls-4" x1="187.786" y1="3645.477" x2="185.261" y2="3639.566"/><line class="cls-4" x1="183.566" y1="3647.341" x2="180.804" y2="3641.538"/><line class="cls-4" x1="179.127" y1="3649.354" x2="176.603" y2="3643.443"/><line class="cls-4" x1="174.539" y1="3651.162" x2="172.366" y2="3645.114"/><line class="cls-4" x1="169.813" y1="3652.68" x2="168.062" y2="3646.496"/><line class="cls-4" x1="164.987" y1="3653.865" x2="163.676" y2="3647.574"/><line class="cls-4" x1="159.872" y1="3654.573" x2="159.4" y2="3648.163"/><line class="cls-4" x1="154.78" y1="3654.656" x2="155.011" y2="3648.233"/><line class="cls-4" x1="149.802" y1="3654.27" x2="150.534" y2="3647.885"/><line class="cls-4" x1="144.965" y1="3653.594" x2="145.976" y2="3647.247"/><path class="cls-3" d="M555.218,3387.813c-17.255,9.112-33.416,19.018-49.947,29.32-8.021,5-18.757,8.449-22.565,17.875-1.727,4.277-1.792,8.751-2.918,13.281-1.6,6.444-5.392,11.614-8.665,17.307a292.592,292.592,0,0,1-25.454,36.894c-8.11,10.155-19.08,15.785-29.947,21.833-14.695,8.177-28.863,16.022-44.491,22.329-17.325,6.993-34.161,14.176-50.456,23.216a237.566,237.566,0,0,1-22.907,10.672c-7.365,3.113-14.248,7.442-21.549,10.771-9.9,4.514-18.3,10.54-27.941,15.6-8.832,4.638-16.848,10.154-25.457,15.238-7.783,4.6-18.087,10.381-25.483,15.338"/><path class="cls-3" d="M985.879,3160.948c-8.076,7.136-16.378,14.113-24.334,21.451-4.539,4.186-11.082,10.735-16.227,13.922"/><path class="cls-3" d="M778.933,3278.407c13.027-6.008,162.013-80.014,167.193-82.42"/><polygon class="cls-5" points="553.078 3386.936 555.466 3391.709 561.447 3388.742 559.06 3383.968 553.078 3386.936"/><polygon class="cls-5" points="413.92 3521.985 416.306 3526.759 422.288 3523.792 419.902 3519.018 413.92 3521.985"/><polygon class="cls-5" points="190.844 3637.485 193.427 3642.157 201.734 3637.602 199.15 3632.93 190.844 3637.485"/><rect class="cls-5" x="113.049" y="3643.813" width="5.333" height="7.265" transform="translate(-3520.999 3344.864) rotate(-83.427)"/><polygon class="cls-5" points="15.307 3652.442 13.423 3657.434 20.229 3659.974 22.108 3654.981 15.307 3652.442"/><path class="cls-3" d="M773.364,3280.694c-7.885,4.739-12.074,8.272-12.2,16.59-.092,6.1-1.156,13.764-6.983,17.27-9.787,5.89-22.246,9.086-32.712,13.8-12.914,5.815-26.1,10.136-39.3,15.148-20.679,7.851-83.162,22.96-122.14,42.957"/><polygon class="cls-5" points="668.892 3345.637 670.962 3350.556 678.784 3347.292 676.713 3342.373 668.892 3345.637"/><path class="cls-3" d="M778.568,3280.017a25.733,25.733,0,0,0-2.581,13.9c.33,2.786.969,5.543,1.411,8.3.375,2.328.625,4.8,1.17,7.061"/><path class="cls-3" d="M762.312,3291.43c.932-2.1,4.347-2.175,6.353-1.847,2.7.442,6.722,2.584,7.4,5.479"/><polygon class="cls-5" points="771.781 3278.753 774.351 3283.431 781.791 3279.376 779.22 3274.699 771.781 3278.753"/><path class="cls-3" d="M1510.619,3073.24c-5.018,2.838-8.437,3.925-12.377,5.8a76.125,76.125,0,0,1-17.711,6.243c-12.308,2.6-23.692-2.086-35.932-2.552-13.58-.519-26.036-4.649-39.736-5.049-15.779-.46-31.975,8.324-46.677,13.537-5.359,1.9-9.657,4.217-15.379,2.575-6.6-1.9-12.06-4.794-18.982-5.494-14.811-1.5-25.392,3.5-39.269,7.486-12.938,3.713-25.715,7.724-38.622,11.442"/><line class="cls-4" x1="1419.164" y1="3082.462" x2="1420.207" y2="3076.12"/><line class="cls-4" x1="1414.576" y1="3081.765" x2="1415.448" y2="3075.398"/><line class="cls-4" x1="1410.015" y1="3081.232" x2="1410.62" y2="3074.834"/><line class="cls-4" x1="1405.477" y1="3080.925" x2="1405.727" y2="3074.503"/><line class="cls-4" x1="1401.078" y1="3080.987" x2="1400.678" y2="3074.573"/><line class="cls-4" x1="1396.678" y1="3081.463" x2="1395.683" y2="3075.113"/><line class="cls-4" x1="1392.276" y1="3082.34" x2="1390.816" y2="3076.081"/><line class="cls-4" x1="1387.886" y1="3083.493" x2="1386.063" y2="3077.33"/><line class="cls-4" x1="1383.518" y1="3084.903" x2="1381.435" y2="3078.823"/><line class="cls-4" x1="1379.162" y1="3086.469" x2="1376.895" y2="3080.455"/><line class="cls-4" x1="1374.808" y1="3088.162" x2="1372.438" y2="3082.188"/><line class="cls-4" x1="1370.439" y1="3089.915" x2="1368.032" y2="3083.956"/><line class="cls-4" x1="1366.031" y1="3091.683" x2="1363.665" y2="3085.707"/><line class="cls-4" x1="1361.561" y1="3093.409" x2="1359.316" y2="3087.387"/><line class="cls-4" x1="1357.136" y1="3095.036" x2="1354.868" y2="3089.023"/><line class="cls-4" x1="1352.438" y1="3096.679" x2="1350.646" y2="3090.507"/><line class="cls-4" x1="1346.936" y1="3097.567" x2="1346.847" y2="3091.141"/><line class="cls-4" x1="1508.343" y1="3078.058" x2="1505.544" y2="3072.273"/><line class="cls-4" x1="1503.879" y1="3080.064" x2="1501.354" y2="3074.154"/><line class="cls-4" x1="1499.659" y1="3081.929" x2="1496.897" y2="3076.125"/><line class="cls-4" x1="1495.221" y1="3083.941" x2="1492.696" y2="3078.031"/><line class="cls-4" x1="1490.632" y1="3085.75" x2="1488.459" y2="3079.701"/><line class="cls-4" x1="1485.906" y1="3087.267" x2="1484.155" y2="3081.083"/><line class="cls-4" x1="1481.08" y1="3088.453" x2="1479.769" y2="3082.161"/><line class="cls-4" x1="1475.965" y1="3089.16" x2="1475.494" y2="3082.75"/><line class="cls-4" x1="1470.873" y1="3089.243" x2="1471.104" y2="3082.82"/><line class="cls-4" x1="1465.895" y1="3088.857" x2="1466.627" y2="3082.472"/><line class="cls-4" x1="1461.058" y1="3088.182" x2="1462.069" y2="3081.834"/><path class="cls-3" d="M1871.311,2822.4c-17.255,9.112-33.416,19.018-49.947,29.321-8.021,5-18.757,8.448-22.565,17.875-1.727,4.276-1.792,8.75-2.918,13.28-1.6,6.444-5.392,11.615-8.665,17.308a292.654,292.654,0,0,1-25.454,36.893c-8.11,10.156-19.079,15.785-29.947,21.833-14.694,8.178-28.863,16.022-44.491,22.329-17.325,6.993-34.161,14.176-50.456,23.217a237.566,237.566,0,0,1-22.907,10.672c-7.365,3.112-14.247,7.441-21.549,10.77-9.9,4.515-18.3,10.54-27.941,15.6-8.832,4.637-16.847,10.154-25.457,15.238-7.783,4.6-18.087,10.38-25.483,15.338"/><polygon class="cls-6" points="1853.797 2829.806 1855.415 2833.033 1861.394 2830.064 1859.777 2826.836 1853.797 2829.806"/><polygon class="cls-5" points="1730.013 2956.572 1732.399 2961.346 1738.381 2958.38 1735.995 2953.606 1730.013 2956.572"/><polygon class="cls-5" points="1506.938 3072.072 1509.52 3076.744 1517.827 3072.189 1515.243 3067.517 1506.938 3072.072"/><rect class="cls-5" x="1429.142" y="3078.4" width="5.333" height="7.265" transform="translate(-1793.868 4151.618) rotate(-83.427)"/><polygon class="cls-5" points="1331.4 3087.029 1329.516 3092.022 1336.323 3094.562 1338.201 3089.569 1331.4 3087.029"/><path class="cls-3" d="M2043.019,2760.661c-22.242,8.724-44.2,17.722-67.1,24.629-22.8,6.878-45.671,13.575-68.071,21.7a314.887,314.887,0,0,0-36.541,15.415"/><polygon class="cls-5" points="1984.985 2780.224 1987.055 2785.143 1994.877 2781.879 1992.806 2776.96 1984.985 2780.224"/><path class="cls-3" d="M985.879,3160.948c9.225-8.172,44.107-29.83,50.437-33.093,17.723-9.134,38.035-11.635,57.9-13.382,20.1-1.768,40.321-2.916,60.456-1.576,7.2.479,14.372,1.276,21.574,1.7a212.564,212.564,0,0,0,69.689-7.448"/><polygon class="cls-7" points="1356.777 321.517 1352.344 319.974 1355.372 311.343 1359.806 312.885 1356.777 321.517"/><polyline class="cls-8" points="1354.446 309.261 1355.408 311.245 1352.345 319.974 1350.417 320.9"/><polyline class="cls-8" points="1361.834 311.83 1359.841 312.787 1356.777 321.517 1357.706 323.436"/><polygon class="cls-7" points="1180.638 273.57 1177.065 270.537 1184.951 261.325 1188.525 264.358 1180.638 273.57"/><polyline class="cls-8" points="1185.194 258.639 1185.041 261.219 1177.065 270.537 1174.615 271.079"/><polyline class="cls-8" points="1191.149 263.694 1188.614 264.252 1180.638 273.57 1180.49 276.064"/><polygon class="cls-7" points="1494.39 285.121 1491.702 288.953 1485.31 284.507 1487.999 280.675 1494.39 285.121"/><polyline class="cls-8" points="1483.252 284.974 1485.237 284.455 1491.702 288.953 1491.889 290.921"/><polyline class="cls-8" points="1487.734 278.589 1487.926 280.624 1494.39 285.121 1496.312 284.62"/><polygon class="cls-7" points="1369.225 386.516 1365.674 389.574 1359.667 382.659 1363.22 379.601 1369.225 386.516"/><polyline class="cls-8" points="1357.393 382.42 1359.6 382.58 1365.674 389.574 1365.521 391.699"/><polyline class="cls-8" points="1363.311 377.324 1363.151 379.522 1369.225 386.516 1371.359 386.67"/><polygon class="cls-7" points="1774.135 402.432 1770.438 405.313 1762.908 395.735 1766.605 392.854 1774.135 402.432"/><polyline class="cls-8" points="1760.307 394.953 1762.824 395.626 1770.44 405.311 1770.49 407.818"/><polyline class="cls-8" points="1766.468 390.15 1766.518 392.743 1774.135 402.432 1776.567 403.079"/><polygon class="cls-7" points="1819.232 535.163 1814.824 536.779 1811.658 528.2 1816.061 526.584 1819.232 535.163"/><polyline class="cls-8" points="1809.611 527.176 1811.623 528.101 1814.826 536.779 1813.93 538.711"/><polyline class="cls-8" points="1816.953 524.485 1816.026 526.487 1819.232 535.163 1821.174 536.056"/><rect class="cls-7" x="1908.489" y="266.331" width="9.143" height="4.694" transform="translate(1463.648 2147.512) rotate(-84.542)"/><polyline class="cls-8" points="1909.766 262.102 1911.173 263.801 1910.289 273.005 1908.638 274.36"/><polyline class="cls-8" points="1917.554 262.845 1915.845 264.247 1914.96 273.452 1916.322 275.095"/><polygon class="cls-7" points="1976.941 241.121 1973.877 244.664 1966.918 238.7 1969.981 235.157 1976.941 241.121"/><polyline class="cls-8" points="1964.633 238.795 1966.842 238.63 1973.877 244.662 1974.038 246.788"/><polyline class="cls-8" points="1969.738 232.891 1969.902 235.089 1976.941 241.121 1979.074 240.962"/><polygon class="cls-7" points="1983.643 831.718 1980.131 834.821 1974.038 827.986 1977.549 824.882 1983.643 831.718"/><polyline class="cls-8" points="1971.758 827.775 1973.97 827.906 1980.132 834.82 1980.005 836.948"/><polyline class="cls-8" points="1977.609 822.603 1977.479 824.804 1983.643 831.718 1985.78 831.844"/><polygon class="cls-7" points="1428.394 697.857 1423.784 698.744 1422.045 689.767 1426.654 688.881 1428.394 697.857"/><polyline class="cls-8" points="1420.191 688.43 1422.025 689.665 1423.786 698.744 1422.589 700.509"/><polyline class="cls-8" points="1427.875 686.952 1426.632 688.779 1428.394 697.857 1430.167 699.051"/><rect class="cls-7" x="1184.356" y="610.514" width="4.696" height="9.141"/><polyline class="cls-8" points="1182.792 608.851 1184.358 610.409 1184.358 619.655 1182.845 621.161"/><polyline class="cls-8" points="1190.617 608.851 1189.052 610.409 1189.052 619.655 1190.565 621.161"/><polygon class="cls-7" points="1149.587 428.442 1146.732 430.816 1142.371 425.615 1145.226 423.239 1149.587 428.442"/><polyline class="cls-8" points="1140.627 425.457 1142.321 425.554 1146.732 430.816 1146.532 432.435"/><polyline class="cls-8" points="1145.383 421.503 1145.176 423.18 1149.587 428.442 1151.225 428.534"/><polygon class="cls-7" points="1392.532 209.829 1389.153 213.075 1382.776 206.498 1386.156 203.251 1392.532 209.829"/><polyline class="cls-8" points="1380.493 206.383 1382.705 206.422 1389.154 213.077 1389.116 215.206"/><polyline class="cls-8" points="1386.123 200.973 1386.084 203.176 1392.532 209.829 1394.67 209.869"/><rect class="cls-7" x="1349.835" y="178.687" width="4.676" height="9.181" transform="translate(1144.764 1531.959) rotate(-88.976)"/><polyline class="cls-8" points="1345.844 187.061 1347.436 185.53 1356.721 185.695 1358.207 187.228"/><polyline class="cls-8" points="1345.984 179.272 1347.52 180.856 1356.804 181.021 1358.344 179.542"/><polygon class="cls-7" points="1029.818 48.989 1026.606 52.4 1019.909 46.148 1023.12 42.736 1029.818 48.989"/><polyline class="cls-8" points="1017.621 46.147 1019.833 46.075 1026.608 52.399 1026.676 54.528"/><polyline class="cls-8" points="1022.972 40.462 1023.045 42.665 1029.818 48.989 1031.956 48.92"/><polygon class="cls-7" points="1372.136 223.111 1371.045 227.659 1362.114 225.536 1363.205 220.988 1372.136 223.111"/><polyline class="cls-8" points="1360.128 226.664 1362.013 225.511 1371.046 227.659 1372.166 229.472"/><polyline class="cls-8" points="1361.944 219.087 1363.103 220.964 1372.136 223.111 1373.958 221.996"/><rect class="cls-7" x="1200.312" y="110.935" width="4.696" height="9.142"/><polyline class="cls-8" points="1198.748 109.273 1200.312 110.831 1200.312 120.078 1198.8 121.584"/><polyline class="cls-8" points="1206.573 109.273 1205.007 110.831 1205.007 120.078 1206.52 121.584"/><rect class="cls-7" x="1498.662" y="720.358" width="4.676" height="9.18" transform="translate(594.463 2123.784) rotate(-82.834)"/><polyline class="cls-8" points="1494.299 728.035 1496.049 726.683 1505.263 727.837 1506.575 729.519"/><polyline class="cls-8" points="1495.279 720.305 1496.635 722.049 1505.846 723.2 1507.536 721.894"/><polygon class="cls-7" points="82.953 1254.808 80.265 1258.64 73.873 1254.194 76.561 1250.362 82.953 1254.808"/><polyline class="cls-8" points="71.815 1254.662 73.8 1254.142 80.265 1258.64 80.451 1260.608"/><polyline class="cls-8" points="76.297 1248.276 76.488 1250.311 82.953 1254.808 84.874 1254.307"/><polygon class="cls-7" points="362.698 1372.119 359.001 1375 351.47 1365.423 355.167 1362.541 362.698 1372.119"/><polyline class="cls-8" points="348.87 1364.64 351.387 1365.313 359.003 1374.999 359.053 1377.505"/><polyline class="cls-8" points="355.031 1359.837 355.081 1362.43 362.698 1372.119 365.13 1372.766"/><polygon class="cls-7" points="407.795 1504.85 403.387 1506.466 400.22 1497.887 404.624 1496.271 407.795 1504.85"/><polyline class="cls-8" points="398.174 1496.864 400.185 1497.789 403.389 1506.466 402.493 1508.398"/><polyline class="cls-8" points="405.515 1494.172 404.589 1496.174 407.795 1504.85 409.736 1505.743"/><rect class="cls-7" x="497.052" y="1236.018" width="9.143" height="4.694" transform="translate(-778.838 1619.933) rotate(-84.542)"/><polyline class="cls-8" points="498.329 1231.789 499.736 1233.488 498.852 1242.693 497.201 1244.047"/><polyline class="cls-8" points="506.117 1232.532 504.408 1233.934 503.523 1243.139 504.885 1244.782"/><rect class="cls-7" x="245.715" y="1087.446" width="4.694" height="9.143" transform="translate(-614.501 377.859) rotate(-37.579)"/><polyline class="cls-8" points="241.166 1089.458 243.354 1089.74 248.989 1097.071 248.707 1099.188"/><polyline class="cls-8" points="247.366 1084.687 247.073 1086.878 252.708 1094.21 254.825 1094.481"/><polygon class="cls-7" points="565.504 1210.808 562.44 1214.352 555.481 1208.387 558.544 1204.844 565.504 1210.808"/><polyline class="cls-8" points="553.196 1208.482 555.404 1208.317 562.44 1214.349 562.601 1216.475"/><polyline class="cls-8" points="558.301 1202.578 558.465 1204.776 565.504 1210.808 567.636 1210.649"/><polygon class="cls-7" points="572.205 1801.405 568.694 1804.509 562.601 1797.673 566.111 1794.569 572.205 1801.405"/><polyline class="cls-8" points="560.321 1797.462 562.533 1797.593 568.695 1804.507 568.568 1806.635"/><polyline class="cls-8" points="566.172 1792.29 566.042 1794.491 572.205 1801.405 574.342 1801.531"/><polygon class="cls-7" points="16.957 1667.544 12.347 1668.431 10.608 1659.454 15.217 1658.569 16.957 1667.544"/><polyline class="cls-8" points="8.753 1658.117 10.588 1659.352 12.349 1668.431 11.152 1670.196"/><polyline class="cls-8" points="16.438 1656.639 15.195 1658.467 16.957 1667.544 18.73 1668.738"/><polygon class="cls-7" points="1474.405 1978.878 1478.838 1980.42 1475.81 1989.052 1471.376 1987.509 1474.405 1978.878"/><polyline class="cls-8" points="1476.735 1991.133 1475.774 1989.15 1478.837 1980.42 1480.765 1979.495"/><polyline class="cls-8" points="1469.348 1988.565 1471.341 1987.607 1474.405 1978.878 1473.476 1976.959"/><polygon class="cls-7" points="1336.791 2015.274 1339.48 2011.441 1345.872 2015.888 1343.183 2019.72 1336.791 2015.274"/><polyline class="cls-8" points="1347.93 2015.42 1345.945 2015.94 1339.48 2011.442 1339.293 2009.474"/><polyline class="cls-8" points="1343.447 2021.806 1343.256 2019.77 1336.791 2015.274 1334.87 2015.775"/><polygon class="cls-7" points="1220.01 2168.511 1223.605 2165.513 1228.616 2171.472 1225.021 2174.47 1220.01 2168.511"/><polyline class="cls-8" points="1230.725 2171.558 1228.673 2171.541 1223.605 2165.513 1223.938 2163.564"/><polyline class="cls-8" points="1224.732 2176.553 1225.078 2174.538 1220.01 2168.511 1218.025 2168.494"/><polygon class="cls-7" points="1461.956 1913.878 1465.508 1910.821 1471.514 1917.736 1467.961 1920.793 1461.956 1913.878"/><polyline class="cls-8" points="1473.789 1917.974 1471.582 1917.815 1465.508 1910.821 1465.661 1908.696"/><polyline class="cls-8" points="1467.87 1923.07 1468.03 1920.872 1461.956 1913.878 1459.823 1913.724"/><polygon class="cls-7" points="1228.838 1753.29 1230.247 1757.759 1221.524 1760.551 1220.115 1756.081 1228.838 1753.29"/><polyline class="cls-8" points="1220.407 1762.548 1221.424 1760.582 1230.247 1757.759 1232.139 1758.739"/><polyline class="cls-8" points="1218.059 1755.099 1220.016 1756.113 1228.838 1753.29 1229.822 1751.391"/><polygon class="cls-7" points="1368.679 1591.427 1373.081 1593.036 1369.975 1601.652 1365.572 1600.042 1368.679 1591.427"/><polyline class="cls-8" points="1370.876 1603.754 1369.939 1601.75 1373.081 1593.036 1375.011 1592.133"/><polyline class="cls-8" points="1363.54 1601.074 1365.537 1600.141 1368.679 1591.427 1367.773 1589.49"/><polygon class="cls-7" points="1438.65 2090.565 1442.029 2087.319 1448.405 2093.896 1445.026 2097.144 1438.65 2090.565"/><polyline class="cls-8" points="1450.689 2094.012 1448.477 2093.972 1442.028 2087.318 1442.066 2085.188"/><polyline class="cls-8" points="1445.059 2099.422 1445.098 2097.219 1438.65 2090.565 1436.511 2090.526"/><rect class="cls-7" x="1476.671" y="2112.527" width="4.676" height="9.181" transform="translate(-664.197 3558.062) rotate(-88.976)"/><polyline class="cls-8" points="1485.338 2113.334 1483.745 2114.864 1474.461 2114.7 1472.975 2113.167"/><polyline class="cls-8" points="1485.198 2121.123 1483.662 2119.539 1474.377 2119.373 1472.837 2120.853"/><rect class="cls-7" x="1724.933" y="2334.728" width="9.181" height="4.676" transform="translate(-1096.064 1652.096) rotate(-39.87)"/><polyline class="cls-8" points="1731.831 2330.062 1731.629 2332.261 1724.503 2338.215 1722.376 2338.03"/><polyline class="cls-8" points="1736.824 2336.041 1734.626 2335.85 1727.499 2341.803 1727.304 2343.929"/><rect class="cls-7" x="1776.514" y="2494.847" width="4.676" height="9.181" transform="translate(-1046.785 3694.123) rotate(-77.479)"/><polyline class="cls-8" points="1785.808 2496.991 1783.943 2498.173 1774.877 2496.161 1773.726 2494.363"/><polyline class="cls-8" points="1784.119 2504.596 1782.929 2502.737 1773.864 2500.725 1772.06 2501.867"/><rect class="cls-7" x="87.225" y="1690.045" width="4.676" height="9.18" transform="translate(-1603.007 1572.091) rotate(-82.834)"/><polyline class="cls-8" points="82.862 1697.722 84.612 1696.37 93.825 1697.524 95.138 1699.206"/><polyline class="cls-8" points="83.842 1689.992 85.198 1691.736 94.409 1692.887 96.099 1691.581"/><rect class="cls-7" x="97.548" y="1873.076" width="4.676" height="9.18" transform="translate(-1458.962 826.191) rotate(-52.954)"/><polyline class="cls-8" points="92.538 1877.004 94.729 1876.704 102.143 1882.295 102.443 1884.407"/><polyline class="cls-8" points="97.239 1870.79 97.546 1872.978 104.959 1878.564 107.076 1878.274"/><polygon class="cls-7" points="1959.312 1858.762 1957.696 1854.354 1966.275 1851.187 1967.891 1855.591 1959.312 1858.762"/><polyline class="cls-8" points="1967.299 1849.141 1966.373 1851.152 1957.696 1854.356 1955.764 1853.46"/><polyline class="cls-8" points="1969.99 1856.482 1967.988 1855.556 1959.312 1858.762 1958.419 1860.703"/><polygon class="cls-7" points="1662.757 2023.172 1659.654 2019.661 1666.489 2013.568 1669.593 2017.078 1662.757 2023.172"/><polyline class="cls-8" points="1666.7 2011.288 1666.569 2013.5 1659.655 2019.662 1657.527 2019.534"/><polyline class="cls-8" points="1671.872 2017.139 1669.671 2017.009 1662.757 2023.172 1662.631 2025.309"/><polygon class="cls-7" points="1796.618 1467.924 1795.731 1463.314 1804.708 1461.575 1805.594 1466.184 1796.618 1467.924"/><polyline class="cls-8" points="1806.045 1459.72 1804.81 1461.555 1795.731 1463.316 1793.966 1462.119"/><polyline class="cls-8" points="1807.523 1467.405 1805.695 1466.162 1796.618 1467.924 1795.424 1469.697"/><rect class="cls-7" x="1874.82" y="1223.886" width="9.141" height="4.696"/><polyline class="cls-8" points="1885.624 1222.322 1884.066 1223.887 1874.82 1223.887 1873.313 1222.374"/><polyline class="cls-8" points="1885.624 1230.147 1884.066 1228.582 1874.82 1228.582 1873.313 1230.094"/><rect class="cls-7" x="1874.159" y="1296.133" width="4.696" height="9.141" transform="translate(-391.896 1560.43) rotate(-41.26)"/><polyline class="cls-8" points="1883.558 1302.81 1881.354 1302.671 1875.256 1295.721 1875.4 1293.59"/><polyline class="cls-8" points="1877.676 1307.97 1877.825 1305.767 1871.727 1298.816 1869.597 1298.681"/><rect class="cls-7" x="1764.936" y="1538.192" width="9.18" height="4.676" transform="translate(20.281 3104.05) rotate(-82.834)"/><polyline class="cls-8" points="1766.44 1533.829 1767.792 1535.579 1766.638 1544.792 1764.956 1546.105"/><polyline class="cls-8" points="1774.17 1534.809 1772.426 1536.165 1771.275 1545.376 1772.581 1547.066"/><rect class="cls-7" x="1108.513" y="1165.168" width="8.99" height="5.566" transform="translate(-247.847 301.366) rotate(-13.891)"/><polyline class="cls-9" points="1117.848 1161.972 1116.802 1164.144 1107.977 1166.332 1106.111 1164.949"/><polyline class="cls-9" points="1120.068 1170.979 1118.136 1169.544 1109.313 1171.734 1108.307 1173.833"/><rect class="cls-7" x="782.287" y="1224.477" width="5.566" height="8.99" transform="translate(-297.432 251.784) rotate(-15.357)"/><polyline class="cls-9" points="791.172 1233.657 788.973 1232.667 786.56 1223.901 787.894 1221.999"/><polyline class="cls-9" points="782.224 1236.106 783.608 1234.138 781.194 1225.375 779.07 1224.422"/><rect class="cls-7" x="1268.029" y="1085.709" width="4.748" height="11.337" transform="translate(-381.985 818.172) rotate(-31.277)"/><polyline class="cls-9" points="1277.804 1095.931 1275.443 1095.098 1269.487 1085.302 1269.822 1082.913"/><polyline class="cls-9" points="1271.035 1100.03 1271.386 1097.559 1265.429 1087.767 1263.15 1086.965"/><rect class="cls-7" x="1362.621" y="1053.648" width="4.815" height="10.566" transform="matrix(0.286, -0.958, 0.958, 0.286, -39.567, 2064.788)"/><polyline class="cls-9" points="1373.087 1057.142 1370.895 1058.166 1360.652 1055.117 1359.426 1053.136"/><polyline class="cls-9" points="1370.784 1064.83 1369.518 1062.778 1359.277 1059.73 1357.163 1060.72"/><rect class="cls-7" x="1517.149" y="899.002" width="4.815" height="10.566" transform="matrix(0.595, -0.804, 0.804, 0.595, -111.348, 1587.609)"/><polyline class="cls-9" points="1527.742 905.348 1525.333 905.564 1516.741 899.208 1516.264 896.928"/><polyline class="cls-9" points="1522.957 911.791 1522.467 909.431 1513.877 903.077 1511.552 903.287"/><rect class="cls-7" x="1139.174" y="1130.676" width="8.99" height="5.566" transform="translate(6.899 2273.837) rotate(-89.834)"/><polyline class="cls-9" points="1139.044 1127.312 1140.897 1128.855 1140.876 1137.946 1139.082 1139.422"/><polyline class="cls-9" points="1148.32 1127.346 1146.458 1128.872 1146.441 1137.963 1148.232 1139.448"/><rect class="cls-7" x="1313.443" y="1430.634" width="5.566" height="13.66" transform="translate(-627.677 1578.865) rotate(-51.681)"/><polyline class="cls-9" points="1306.036 1435.328 1309.018 1435.318 1319.861 1443.879 1320.516 1446.678"/><polyline class="cls-9" points="1311.795 1428.056 1312.47 1430.956 1323.311 1439.514 1326.19 1439.498"/><rect class="cls-7" x="1431.156" y="1601.455" width="5.566" height="13.66" transform="translate(-720.586 1636.246) rotate(-49.024)"/><polyline class="cls-9" points="1423.859 1605.678 1426.839 1605.807 1437.273 1614.861 1437.797 1617.688"/><polyline class="cls-9" points="1429.949 1598.681 1430.489 1601.609 1440.922 1610.661 1443.798 1610.778"/><rect class="cls-7" x="1075.868" y="1965.469" width="5.566" height="13.66" transform="translate(-1117.717 1493.324) rotate(-49.024)"/><polyline class="cls-9" points="1068.571 1969.693 1071.551 1969.821 1081.985 1978.876 1082.509 1981.702"/><polyline class="cls-9" points="1074.661 1962.696 1075.201 1965.623 1085.634 1974.675 1088.51 1974.793"/><rect class="cls-7" x="327.665" y="359.373" width="8.99" height="5.566" transform="translate(-77.231 90.336) rotate(-13.891)"/><polyline class="cls-9" points="337 356.177 335.954 358.349 327.129 360.537 325.263 359.155"/><polyline class="cls-9" points="339.22 365.185 337.288 363.749 328.466 365.939 327.459 368.038"/><rect class="cls-7" x="10.711" y="418.682" width="5.566" height="8.99" transform="translate(-111.586 18.682) rotate(-15.357)"/><polyline class="cls-9" points="19.596 427.862 17.398 426.872 14.985 418.106 16.318 416.204"/><polyline class="cls-9" points="10.648 430.311 12.033 428.343 9.618 419.58 7.494 418.627"/><rect class="cls-7" x="487.181" y="279.914" width="4.748" height="11.337" transform="translate(-77.119 295.669) rotate(-31.277)"/><polyline class="cls-9" points="496.956 290.136 494.595 289.303 488.639 279.507 488.974 277.118"/><polyline class="cls-9" points="490.187 294.235 490.538 291.764 484.581 281.972 482.302 281.171"/><rect class="cls-7" x="849.009" y="390.001" width="4.748" height="11.337" transform="translate(-85.154 461.292) rotate(-28.934)"/><polyline class="cls-9" points="858.592 400.521 856.266 399.592 850.715 389.561 851.148 387.188"/><polyline class="cls-9" points="851.66 404.34 852.112 401.885 846.561 391.858 844.316 390.964"/><rect class="cls-7" x="876.593" y="319.445" width="4.748" height="11.337" transform="translate(506.887 1185.252) rotate(-86.906)"/><polyline class="cls-9" points="886.904 321.575 884.884 323.054 873.435 322.44 871.652 320.815"/><polyline class="cls-9" points="886.466 329.477 884.624 327.792 873.179 327.18 871.231 328.609"/><rect class="cls-7" x="837.556" y="80.378" width="11.337" height="4.748" transform="translate(542.33 874.799) rotate(-74.803)"/><polyline class="cls-9" points="845.02 91.254 843.998 88.969 846.999 77.903 848.961 76.501"/><polyline class="cls-9" points="837.386 89.169 839.42 87.722 842.417 76.659 841.429 74.455"/><polygon class="cls-7" points="622.371 3462.707 626.804 3461.164 623.776 3452.533 619.343 3454.075 622.371 3462.707"/><polyline class="cls-8" points="624.702 3450.451 623.741 3452.435 626.804 3461.164 628.731 3462.09"/><polyline class="cls-8" points="617.315 3453.02 619.308 3453.977 622.371 3462.707 621.443 3464.626"/><polygon class="cls-7" points="798.51 3414.76 802.083 3411.727 794.198 3402.515 790.624 3405.548 798.51 3414.76"/><polyline class="cls-8" points="793.955 3399.829 794.107 3402.409 802.083 3411.727 804.533 3412.268"/><polyline class="cls-8" points="788 3404.883 790.534 3405.442 798.51 3414.76 798.658 3417.254"/><polygon class="cls-7" points="484.758 3426.311 487.447 3430.143 493.838 3425.696 491.15 3421.865 484.758 3426.311"/><polyline class="cls-8" points="495.896 3426.164 493.911 3425.645 487.447 3430.142 487.26 3432.111"/><polyline class="cls-8" points="491.414 3419.779 491.223 3421.814 484.758 3426.311 482.837 3425.81"/><polygon class="cls-7" points="609.923 3527.706 613.474 3530.764 619.481 3523.849 615.928 3520.791 609.923 3527.706"/><polyline class="cls-8" points="621.756 3523.61 619.549 3523.77 613.474 3530.764 613.628 3532.889"/><polyline class="cls-8" points="615.837 3518.514 615.997 3520.712 609.923 3527.706 607.79 3527.86"/><polygon class="cls-7" points="205.013 3543.621 208.71 3546.503 216.241 3536.925 212.544 3534.044 205.013 3543.621"/><polyline class="cls-8" points="218.841 3536.143 216.324 3536.816 208.708 3546.501 208.658 3549.007"/><polyline class="cls-8" points="212.68 3531.34 212.63 3533.933 205.013 3543.621 202.581 3544.268"/><polygon class="cls-7" points="159.916 3676.353 164.324 3677.969 167.491 3669.39 163.088 3667.774 159.916 3676.353"/><polyline class="cls-8" points="169.537 3668.366 167.526 3669.291 164.322 3677.969 165.219 3679.901"/><polyline class="cls-8" points="162.196 3665.675 163.122 3667.677 159.916 3676.353 157.975 3677.246"/><rect class="cls-7" x="63.741" y="3405.297" width="4.694" height="9.143" transform="translate(-324.016 21.744) rotate(-5.458)"/><polyline class="cls-8" points="69.382 3403.291 67.975 3404.99 68.86 3414.195 70.511 3415.55"/><polyline class="cls-8" points="61.594 3404.035 63.303 3405.437 64.189 3414.642 62.826 3416.284"/><rect class="cls-7" x="170.002" y="3157.837" width="9.143" height="4.694" transform="translate(-2630.053 1693.448) rotate(-59.23)"/><polyline class="cls-8" points="181.117 3156.826 178.979 3157.365 174.252 3165.313 174.783 3167.382"/><polyline class="cls-8" points="174.396 3152.824 174.946 3154.964 170.22 3162.913 168.15 3163.433"/><polygon class="cls-7" points="550.754 3839.046 555.364 3839.933 557.103 3830.957 552.495 3830.071 550.754 3839.046"/><polyline class="cls-8" points="558.958 3829.62 557.123 3830.855 555.363 3839.933 556.559 3841.699"/><polyline class="cls-8" points="551.274 3828.142 552.516 3829.969 550.754 3839.046 548.981 3840.24"/><rect class="cls-7" x="790.097" y="3751.704" width="4.696" height="9.141"/><polyline class="cls-8" points="796.356 3750.04 794.791 3751.599 794.791 3760.845 796.304 3762.351"/><polyline class="cls-8" points="788.531 3750.04 790.097 3751.599 790.097 3760.845 788.584 3762.351"/><polygon class="cls-7" points="829.561 3569.631 832.416 3572.005 836.777 3566.805 833.922 3564.429 829.561 3569.631"/><polyline class="cls-8" points="838.521 3566.647 836.827 3566.744 832.416 3572.005 832.616 3573.625"/><polyline class="cls-8" points="833.766 3562.693 833.972 3564.37 829.561 3569.631 827.923 3569.724"/><polygon class="cls-7" points="1123.092 3539.06 1127.095 3541.677 1131.31 3535.287 1127.306 3532.668 1123.092 3539.06"/><polyline class="cls-10" points="1133.409 3534.993 1131.358 3535.213 1127.095 3541.677 1127.689 3543.569"/><polyline class="cls-10" points="1126.74 3530.635 1127.354 3532.596 1123.092 3539.06 1121.108 3539.27"/><polygon class="cls-7" points="1447.931 3812.495 1448.518 3817.242 1456.118 3816.334 1455.532 3811.586 1447.931 3812.495"/><polyline class="cls-10" points="1457.698 3817.748 1456.206 3816.323 1448.518 3817.242 1447.456 3818.917"/><polyline class="cls-10" points="1456.72 3809.841 1455.619 3811.576 1447.931 3812.495 1446.49 3811.116"/><polygon class="cls-7" points="1393.812 3973.033 1392.233 3977.548 1399.447 3980.105 1401.028 3975.59 1393.812 3973.033"/><polyline class="cls-10" points="1400.236 3982.073 1399.531 3980.134 1392.233 3977.548 1390.538 3978.578"/><polyline class="cls-10" points="1402.866 3974.553 1401.11 3975.619 1393.812 3973.033 1393.132 3971.158"/><polygon class="cls-7" points="1095.117 3464.364 1095.647 3469.118 1103.257 3468.301 1102.729 3463.546 1095.117 3464.364"/><polyline class="cls-10" points="1104.821 3469.733 1103.346 3468.291 1095.647 3469.118 1094.565 3470.78"/><polyline class="cls-10" points="1103.937 3461.816 1102.816 3463.537 1095.117 3464.364 1093.692 3462.968"/><polygon class="cls-7" points="586.617 3351.019 589.996 3354.265 596.372 3347.688 592.992 3344.441 586.617 3351.019"/><polyline class="cls-8" points="598.656 3347.573 596.443 3347.612 589.995 3354.267 590.033 3356.396"/><polyline class="cls-8" points="593.026 3342.162 593.065 3344.366 586.617 3351.019 584.478 3351.059"/><rect class="cls-7" x="622.385" y="3322.129" width="9.181" height="4.676" transform="translate(-59.301 11.733) rotate(-1.024)"/><polyline class="cls-8" points="633.305 3328.25 631.712 3326.72 622.428 3326.885 620.941 3328.417"/><polyline class="cls-8" points="633.165 3320.461 631.629 3322.046 622.344 3322.211 620.804 3320.732"/><polygon class="cls-7" points="1026.224 3130.751 1028.415 3134.893 1036.532 3130.644 1034.343 3126.502 1026.224 3130.751"/><polyline class="cls-8" points="1038.738 3131.25 1036.625 3130.594 1028.414 3134.892 1027.782 3136.926"/><polyline class="cls-8" points="1035.089 3124.349 1034.434 3126.454 1026.224 3130.751 1024.181 3130.118"/><polygon class="cls-7" points="607.013 3364.301 608.103 3368.849 617.034 3366.726 615.943 3362.178 607.013 3364.301"/><polyline class="cls-8" points="619.021 3367.854 617.136 3366.7 608.103 3368.848 606.983 3370.662"/><polyline class="cls-8" points="617.204 3360.277 616.045 3362.154 607.013 3364.301 605.19 3363.186"/><rect class="cls-7" x="774.141" y="3252.125" width="4.696" height="9.142"/><polyline class="cls-8" points="780.401 3250.463 778.836 3252.021 778.836 3261.267 780.348 3262.774"/><polyline class="cls-8" points="772.576 3250.463 774.141 3252.021 774.141 3261.267 772.628 3262.774"/><rect class="cls-7" x="473.558" y="3863.8" width="9.18" height="4.676" transform="translate(-478.57 89.852) rotate(-7.166)"/><polyline class="cls-8" points="484.849 3869.224 483.1 3867.873 473.886 3869.027 472.573 3870.708"/><polyline class="cls-8" points="483.87 3861.495 482.513 3863.238 473.303 3864.39 471.612 3863.083"/><rect class="cls-7" x="1133.55" y="3218.274" width="4.748" height="11.337" transform="translate(-805.375 410.495) rotate(-15.197)"/><polyline class="cls-9" points="1134.128 3232.444 1135.15 3230.159 1132.15 3219.093 1130.187 3217.691"/><polyline class="cls-9" points="1141.762 3230.359 1139.728 3228.912 1136.731 3217.849 1137.72 3215.645"/><polygon class="cls-7" points="1938.465 2897.294 1942.898 2895.751 1939.87 2887.12 1935.436 2888.663 1938.465 2897.294"/><polyline class="cls-8" points="1940.795 2885.038 1939.834 2887.022 1942.897 2895.751 1944.824 2896.677"/><polyline class="cls-8" points="1933.408 2887.607 1935.401 2888.565 1938.465 2897.294 1937.536 2899.213"/><polygon class="cls-7" points="1800.851 2860.898 1803.54 2864.731 1809.932 2860.284 1807.243 2856.452 1800.851 2860.898"/><polyline class="cls-8" points="1811.99 2860.752 1810.004 2860.232 1803.54 2864.73 1803.353 2866.698"/><polyline class="cls-8" points="1807.507 2854.366 1807.316 2856.401 1800.851 2860.898 1798.93 2860.397"/><polygon class="cls-7" points="1484.055 2601.943 1488.119 2604.266 1492.009 2597.522 1487.946 2595.199 1484.055 2601.943"/><polyline class="cls-8" points="1494.071 2597.069 1492.053 2597.444 1488.119 2604.266 1488.788 2606.126"/><polyline class="cls-8" points="1487.296 2593.199 1487.99 2595.122 1484.055 2601.943 1482.103 2602.308"/><polygon class="cls-7" points="1926.016 2962.293 1929.568 2965.351 1935.574 2958.436 1932.021 2955.379 1926.016 2962.293"/><polyline class="cls-8" points="1937.849 2958.198 1935.642 2958.357 1929.568 2965.351 1929.721 2967.476"/><polyline class="cls-8" points="1931.93 2953.102 1932.09 2955.3 1926.016 2962.293 1923.883 2962.448"/><polygon class="cls-7" points="1521.106 2978.209 1524.803 2981.09 1532.334 2971.513 1528.637 2968.631 1521.106 2978.209"/><polyline class="cls-8" points="1534.934 2970.73 1532.417 2971.403 1524.802 2981.089 1524.752 2983.595"/><polyline class="cls-8" points="1528.774 2965.927 1528.723 2968.52 1521.106 2978.209 1518.674 2978.856"/><polygon class="cls-7" points="1476.009 3110.94 1480.417 3112.556 1483.584 3103.977 1479.181 3102.361 1476.009 3110.94"/><polyline class="cls-8" points="1485.63 3102.954 1483.619 3103.879 1480.416 3112.556 1481.312 3114.488"/><polyline class="cls-8" points="1478.289 3100.262 1479.216 3102.264 1476.009 3110.94 1474.068 3111.833"/><rect class="cls-7" x="1379.834" y="2839.884" width="4.694" height="9.143" transform="translate(-264.273 144.355) rotate(-5.458)"/><polyline class="cls-8" points="1385.475 2837.879 1384.069 2839.578 1384.953 2848.783 1386.604 2850.137"/><polyline class="cls-8" points="1377.688 2838.622 1379.396 2840.024 1380.282 2849.229 1378.919 2850.872"/><polygon class="cls-7" points="1318.301 2816.898 1321.364 2820.442 1328.324 2814.477 1325.26 2810.934 1318.301 2816.898"/><polyline class="cls-8" points="1330.608 2814.572 1328.4 2814.407 1321.364 2820.439 1321.203 2822.565"/><polyline class="cls-8" points="1325.503 2808.668 1325.339 2810.866 1318.301 2816.898 1316.168 2816.739"/><polygon class="cls-7" points="1866.847 3273.634 1871.457 3274.521 1873.196 3265.544 1868.588 3264.659 1866.847 3273.634"/><polyline class="cls-8" points="1875.051 3264.207 1873.216 3265.442 1871.456 3274.521 1872.653 3276.286"/><polyline class="cls-8" points="1867.367 3262.729 1868.609 3264.557 1866.847 3273.634 1865.075 3274.828"/><polygon class="cls-7" points="1885.802 3561.566 1886.82 3566.149 1895.749 3564.179 1894.73 3559.598 1885.802 3561.566"/><polyline class="cls-8" points="1897.712 3565.35 1895.85 3564.156 1886.819 3566.148 1885.675 3567.947"/><polyline class="cls-8" points="1896.016 3557.711 1894.832 3559.577 1885.802 3561.566 1884.002 3560.413"/><polygon class="cls-7" points="1902.71 2785.607 1906.089 2788.853 1912.465 2782.276 1909.085 2779.028 1902.71 2785.607"/><polyline class="cls-8" points="1914.749 2782.16 1912.537 2782.2 1906.088 2788.854 1906.126 2790.984"/><polyline class="cls-8" points="1909.119 2776.75 1909.158 2778.953 1902.71 2785.607 1900.571 2785.646"/><rect class="cls-7" x="1938.478" y="2756.717" width="9.181" height="4.676" transform="translate(-48.988 35.159) rotate(-1.024)"/><polyline class="cls-8" points="1949.398 2762.838 1947.805 2761.307 1938.521 2761.472 1937.035 2763.005"/><polyline class="cls-8" points="1949.258 2755.049 1947.722 2756.633 1938.437 2756.799 1936.897 2755.319"/><polygon class="cls-7" points="1923.106 2798.888 1924.197 2803.437 1933.127 2801.313 1932.037 2796.765 1923.106 2798.888"/><polyline class="cls-8" points="1935.114 2802.442 1933.229 2801.288 1924.196 2803.436 1923.076 2805.249"/><polyline class="cls-8" points="1933.297 2794.864 1932.138 2796.741 1923.106 2798.888 1921.283 2797.773"/><rect class="cls-7" x="1789.652" y="3298.388" width="9.18" height="4.676" transform="translate(-397.753 249.619) rotate(-7.166)"/><polyline class="cls-8" points="1800.942 3303.812 1799.193 3302.46 1789.979 3303.614 1788.666 3305.296"/><polyline class="cls-8" points="1799.963 3296.082 1798.606 3297.826 1789.396 3298.977 1787.705 3297.671"/><rect class="cls-7" x="581.773" y="247.853" width="4.815" height="10.566" transform="translate(174.785 740.722) rotate(-73.41)"/><polyline class="cls-9" points="592.239 251.347 590.048 252.371 579.804 249.322 578.578 247.341"/><polyline class="cls-9" points="589.936 259.035 588.67 256.983 578.429 253.935 576.315 254.926"/><rect class="cls-7" x="358.326" y="324.881" width="8.99" height="5.566" transform="translate(34.106 689.534) rotate(-89.834)"/><polyline class="cls-9" points="358.196 321.517 360.049 323.06 360.028 332.152 358.234 333.627"/><polyline class="cls-9" points="367.472 321.551 365.61 323.077 365.593 332.168 367.384 333.653"/><rect class="cls-7" x="532.595" y="624.84" width="5.566" height="13.66" transform="translate(-292.167 660.057) rotate(-51.681)"/><polyline class="cls-9" points="525.188 629.533 528.17 629.524 539.013 638.085 539.668 640.884"/><polyline class="cls-9" points="530.947 622.262 531.622 625.161 542.463 633.72 545.342 633.703"/><rect class="cls-7" x="392.821" y="985.931" width="5.566" height="13.66" transform="matrix(0.856, -0.517, 0.517, 0.856, -456.648, 347.979)"/><polyline class="cls-9" points="386.809 987.188 389.606 988.225 396.76 1000.043 396.393 1002.894"/><polyline class="cls-9" points="394.752 982.397 394.368 985.349 401.522 997.164 404.223 998.158"/><rect class="cls-7" x="708.582" y="2667.981" width="5.566" height="8.99" transform="translate(-2053.734 2721.436) rotate(-76.109)"/><polyline class="cls-9" points="716.205 2678.456 715.159 2676.283 706.334 2674.096 704.468 2675.478"/><polyline class="cls-9" points="718.424 2669.448 716.493 2670.884 707.67 2668.694 706.664 2666.594"/><rect class="cls-7" x="378.932" y="2608.673" width="8.99" height="5.566" transform="matrix(0.265, -0.964, 0.964, 0.265, -2236.332, 2289.615)"/><polyline class="cls-9" points="389.528 2606.771 387.33 2607.761 384.917 2616.526 386.25 2618.429"/><polyline class="cls-9" points="380.58 2604.321 381.965 2606.289 379.551 2615.052 377.426 2616.005"/><rect class="cls-7" x="863.091" y="2746.676" width="11.337" height="4.748" transform="translate(-1931.804 2064.315) rotate(-58.723)"/><polyline class="cls-9" points="876.161 2744.497 873.8 2745.329 867.843 2755.126 868.178 2757.514"/><polyline class="cls-9" points="869.391 2740.397 869.743 2742.869 863.786 2752.661 861.507 2753.462"/><rect class="cls-7" x="958.102" y="2779.089" width="10.566" height="4.815" transform="translate(-754.075 390.855) rotate(-16.59)"/><polyline class="cls-9" points="971.443 2783.285 969.252 2782.262 959.009 2785.31 957.783 2787.292"/><polyline class="cls-9" points="969.14 2775.598 967.875 2777.65 957.634 2780.697 955.52 2779.707"/><rect class="cls-7" x="739.242" y="2702.473" width="5.566" height="8.99" transform="translate(-7.844 2.163) rotate(-0.166)"/><polyline class="cls-9" points="737.4 2713.115 739.254 2711.573 739.233 2702.481 737.438 2701.006"/><polyline class="cls-9" points="746.677 2713.082 744.815 2711.556 744.797 2702.465 746.589 2700.98"/><rect class="cls-7" x="907.752" y="2400.18" width="13.66" height="5.566" transform="matrix(0.785, -0.62, 0.62, 0.785, -1292.895, 1084.732)"/><polyline class="cls-9" points="904.392 2405.099 907.375 2405.109 918.218 2396.548 918.873 2393.749"/><polyline class="cls-9" points="910.152 2412.371 910.827 2409.472 921.668 2400.913 924.546 2400.929"/></g></svg>