<svg xmlns="http://www.w3.org/2000/svg" viewBox="0 0 3840 2160"><defs><style>.cls-1{opacity:0.3;}.cls-2,.cls-4,.cls-5{fill:none;}.cls-3{fill:#fff;}.cls-4,.cls-5{stroke:#fff;stroke-miterlimit:10;}.cls-4{stroke-width:2px;}.cls-5{stroke-width:6px;}</style></defs><g id="Layer_3" data-name="Layer 3"><g class="cls-1"><rect class="cls-2" width="3840" height="2160"/><rect class="cls-2" width="3840" height="2160"/><path class="cls-3" d="M3345.143,653.067V677.14h3.639V653.067c4.79.547,8.666,3.2,9.343,6.608l1.978-.3-13.139-119.028L3333.823,659.37l1.978.3C3336.478,656.266,3340.354,653.615,3345.143,653.067Zm3.639-77.989,8.8,79.745a14.618,14.618,0,0,0-8.8-3.779Zm-1.819-16.468V558.6l0,.017h0Z"/><path class="cls-3" d="M3359.011,734.475a12.057,12.057,0,0,0-10.229-11.876V703.065h-3.639V722.6a12.043,12.043,0,0,0-10.228,11.856l-3.8,94.245q-.051.631-.051,1.276l2,.04.047-1.192a13.9,13.9,0,0,1,27.7,0l.047,1.192,2-.04c0-.429-.018-.855-.051-1.276Zm-13.868,79.719a15.915,15.915,0,0,0-11.743,7.487l3.518-87.185a10.048,10.048,0,0,1,8.225-9.862Z"/><rect class="cls-3" x="3313.126" y="688.282" width="12.986" height="3.639"/><rect class="cls-3" x="3367.814" y="688.282" width="12.986" height="3.639"/><polygon class="cls-3" points="3343.763 681.349 3338.797 681.349 3338.797 698.56 3343.798 698.56 3343.798 689.11 3350.243 698.56 3355.256 698.56 3355.256 681.349 3350.243 681.349 3350.243 690.871 3343.763 681.349"/><rect class="cls-3" x="2877.541" y="2008.611" width="153.211" height="8.562"/><path class="cls-3" d="M3036.368,1995.653v6.975H2878.541v-6.975h157.827m1-1H2877.541v8.975h159.827v-8.975Z"/><rect class="cls-3" x="2951.227" y="1994.653" width="86.141" height="8.975"/><rect class="cls-3" x="2891.551" y="1994.653" width="16.995" height="8.975"/><rect class="cls-3" x="2921.389" y="1994.653" width="16.995" height="8.975"/><path class="cls-3" d="M3196.2,1995.653v6.975H3038.368v-6.975H3196.2m1-1H3037.368v8.975H3197.2v-8.975Z"/><rect class="cls-3" x="3197.195" y="1994.653" width="159.827" height="8.975"/><path class="cls-3" d="M3515.849,1995.653v6.975H3358.022v-6.975h157.827m1-1H3357.022v8.975h159.827v-8.975Z"/><rect class="cls-3" x="3516.849" y="1994.653" width="159.827" height="8.975"/><path class="cls-3" d="M3182.962,2009.611v6.562H3031.751v-6.562h151.211m1-1H3030.751v8.562h153.211v-8.562Z"/><rect class="cls-3" x="3183.962" y="2008.611" width="153.211" height="8.562"/><rect class="cls-3" x="3490.384" y="2008.611" width="153.211" height="8.562"/><path class="cls-3" d="M3489.384,2009.611v6.562H3338.173v-6.562h151.211m1-1H3337.173v8.562h153.211v-8.562Z"/><path class="cls-3" d="M3675.676,2009.611v6.562h-31.082v-6.562h31.082m1-1h-33.082v8.562h33.082v-8.562Z"/><line class="cls-4" x1="2877.541" y1="2008.611" x2="2877.541" y2="2033"/><line class="cls-4" x1="2877.541" y1="1979.239" x2="2877.541" y2="2003.628"/><line class="cls-4" x1="3037.368" y1="1979.239" x2="3037.368" y2="2003.628"/><line class="cls-4" x1="3197.195" y1="1979.239" x2="3197.195" y2="2003.628"/><line class="cls-4" x1="3357.022" y1="1979.239" x2="3357.022" y2="2003.628"/><line class="cls-4" x1="3516.849" y1="1979.239" x2="3516.849" y2="2003.628"/><line class="cls-4" x1="3676.676" y1="1979.239" x2="3676.676" y2="2003.628"/><line class="cls-4" x1="3030.751" y1="2008.611" x2="3030.751" y2="2033"/><line class="cls-4" x1="3183.962" y1="2008.611" x2="3183.962" y2="2033"/><line class="cls-4" x1="3337.173" y1="2008.611" x2="3337.173" y2="2033"/><line class="cls-4" x1="3490.384" y1="2008.611" x2="3490.384" y2="2033"/><line class="cls-4" x1="3643.595" y1="2008.611" x2="3643.595" y2="2033"/><path class="cls-3" d="M2884.76,1986.1a.448.448,0,0,1-.232-.064.669.669,0,0,1-.388-.378,1.541,1.541,0,0,1-.116-.609,2.894,2.894,0,0,1,.053-.546c.034-.182.067-.336.095-.462l-.022-.02.21-.588.126-.463a1.014,1.014,0,0,0-.367.116,2.9,2.9,0,0,1-.347.157,1.226,1.226,0,0,1-.262.1,1.134,1.134,0,0,0-.263.1,1.416,1.416,0,0,0-.272.157.536.536,0,0,1-.274.115,1.661,1.661,0,0,0-.21.073,1.218,1.218,0,0,0-.272.137c-.057.042-.106.077-.148.106a.3.3,0,0,1-.168.042.634.634,0,0,1-.43-.221.617.617,0,0,1-.221-.409.546.546,0,0,1,.179-.389c.119-.119.227-.221.326-.3l.02.021-.02-.021h.02v-.021l.064-.021a.117.117,0,0,1,.084-.042h.062a1.319,1.319,0,0,1,.389-.357,2.087,2.087,0,0,1,.409-.252h.022c-.015,0-.022-.007-.022-.021a.926.926,0,0,1,.378-.293v.02a.992.992,0,0,1,.336-.305q.294-.2.4-.283l.021-.042.042.022a2.023,2.023,0,0,1,.242-.243.651.651,0,0,1,.263-.157v-.042a.572.572,0,0,1,.146-.105,1.394,1.394,0,0,0,.148-.084l.345-.262c.12-.091.228-.179.327-.263a1,1,0,0,0,.146-.136.288.288,0,0,1,.148-.1h.042a.181.181,0,0,1,.157.074.16.16,0,0,0,.137.073.075.075,0,0,0,.084-.084,1.087,1.087,0,0,1,.157-.283c.091-.134.189-.269.294-.41a3.03,3.03,0,0,1,.22-.272,2.229,2.229,0,0,1,.494.146c.216.084.333.183.346.294a.2.2,0,0,1-.02.084c-.057.07-.116.141-.179.21a1.675,1.675,0,0,1-.2.189,1.387,1.387,0,0,0-.21.21c-.07.084-.141.161-.21.231s-.183.242-.379.514-.392.557-.588.851a6.793,6.793,0,0,0-.4.651,1.084,1.084,0,0,0,.336-.063l.042.084v-.105a1.658,1.658,0,0,0,.325-.031,1.556,1.556,0,0,1,.3-.032c.224,0,.336.057.336.168,0,.084-.09.134-.273.147l-.147.021c-.028,0-.035.015-.021.042l.021.063h-.273a1.162,1.162,0,0,0-.23.021.3.3,0,0,1-.148.1.651.651,0,0,1-.1.01.347.347,0,0,0-.19.042.48.48,0,0,1-.188.063,4.55,4.55,0,0,0-.285.483,2.21,2.21,0,0,0-.177.526v.062a.825.825,0,0,1-.053.241,1.766,1.766,0,0,1-.095.243c-.042.126-.081.261-.115.409a1.463,1.463,0,0,0-.031.472,2.041,2.041,0,0,1,.031.294.609.609,0,0,0,.053.273.455.455,0,0,0,.178.084c.09.028.136.077.136.147a.085.085,0,0,1-.052.073A.187.187,0,0,1,2884.76,1986.1Zm-2.919-2.709a2.076,2.076,0,0,0,.6-.19c.2-.1.4-.181.579-.252a.887.887,0,0,1,.157-.063.567.567,0,0,1,.157-.021,2.156,2.156,0,0,1,.452-.2,2.412,2.412,0,0,1,.493-.116.825.825,0,0,0,.294-.252l.084-.126.042-.084.042-.105a.315.315,0,0,1,.106-.147.359.359,0,0,1,.062-.157.15.15,0,0,0,.022-.137l.084-.062a.054.054,0,0,1,.009-.033.036.036,0,0,0,.011-.031l.073-.137a.719.719,0,0,1,.075-.115.352.352,0,0,0,.062-.168.746.746,0,0,0,.106-.146.77.77,0,0,0,.084-.19,3.971,3.971,0,0,1-.42.283q-.17.1-.462.285c-.154.112-.309.227-.462.345a4.359,4.359,0,0,1-.484.326l-.041.042-.084.021a.579.579,0,0,1-.336.315c-.183.084-.274.175-.274.273-.168.141-.343.273-.524.4A2.884,2.884,0,0,0,2881.841,1983.388Zm.966-1.282a.061.061,0,0,1,.042-.021c-.015,0-.022-.007-.022-.021A.061.061,0,0,1,2882.807,1982.106Z"/><path class="cls-3" d="M2882.975,2039.068a1.335,1.335,0,0,1-.579-.116,1.943,1.943,0,0,1-.471-.325,1.124,1.124,0,0,1-.242-.5,2.424,2.424,0,0,1-.052-.462,2.716,2.716,0,0,1,.115-.8,7.707,7.707,0,0,1,.263-.735c.027-.084.055-.133.084-.148a.445.445,0,0,1,.062-.167c.029-.042.056-.084.084-.126.113-.182.241-.385.389-.609a2.7,2.7,0,0,1,.5-.578.939.939,0,0,1,.619-.241.173.173,0,0,1,.053.011.211.211,0,0,0,.052.01h.126a.4.4,0,0,1,.252.084,1.213,1.213,0,0,1,.19.189.929.929,0,0,0,.23.042q-.231.126-.294.105h-.1a.888.888,0,0,0-.61.325,4.718,4.718,0,0,0-.577.736c-.175.272-.3.486-.388.64a1.2,1.2,0,0,1-.106.168.306.306,0,0,0-.062.189.685.685,0,0,0-.148.305q-.082.261-.146.545a2.2,2.2,0,0,0-.064.431v.073a.347.347,0,0,0,.022.116l.1.189h-.062a.511.511,0,0,0,.5.336,1.2,1.2,0,0,0,.4-.073,2.131,2.131,0,0,0,.358-.159c.055-.027.132-.073.23-.135a.773.773,0,0,1,.252-.116,1.131,1.131,0,0,1,.379-.315.632.632,0,0,1,.084-.105l.084-.084.084-.063a2.952,2.952,0,0,0,.462-.494c.168-.217.3-.395.4-.535h.022l.252-.462a2.678,2.678,0,0,1,.136-.241c.049-.077.08-.13.094-.158a.784.784,0,0,1,.064-.284,1.1,1.1,0,0,1,.126-.241l-.022-.063a.058.058,0,0,0,.022-.042l.02-.084a.151.151,0,0,0,.022-.063.059.059,0,0,1,.02-.042l-.02-.063a.212.212,0,0,0,.052-.116.343.343,0,0,1,.052-.136v-.893a1.61,1.61,0,0,0-.021-.263.865.865,0,0,0-.189-.461.925.925,0,0,0-.672-.168,1.843,1.843,0,0,0-.986.284q-.464.282-.883.6a1.342,1.342,0,0,1-.294.189l-.23.231c-.084.084-.218.206-.4.367a5.352,5.352,0,0,0-.482.484.679.679,0,0,0-.21.388h-.126v-.315c.014-.042.058-.143.136-.3a1.236,1.236,0,0,1,.2-.325q0-.252.126-.315c.013-.042.031-.1.052-.157a.159.159,0,0,1,.116-.116,1.279,1.279,0,0,1,.294-.326c.139-.118.258-.227.356-.325l.084-.21.022.147a.359.359,0,0,1,.1-.105.53.53,0,0,1,.126-.063q.212-.126.5-.315a1.209,1.209,0,0,1,.525-.21l.022-.021a.549.549,0,0,1,.378-.042h.336v-.021a.282.282,0,0,0,.126.011.491.491,0,0,1,.126-.011,1.6,1.6,0,0,1,.556.105,2.913,2.913,0,0,1,.493.231,3.1,3.1,0,0,1,.662.546,1.16,1.16,0,0,1,.284.735v.084a1.062,1.062,0,0,1-.022.21c-.013.071-.028.147-.042.231a.565.565,0,0,0,0,.21h-.062a.914.914,0,0,0-.106.357,2.541,2.541,0,0,1-.084.4,5.83,5.83,0,0,1-1.049,1.722v.021a8.464,8.464,0,0,1-.746.735,5.891,5.891,0,0,1-1.06.745A2.6,2.6,0,0,1,2882.975,2039.068Z"/><path class="cls-3" d="M3036.525,2039.488a.514.514,0,0,1-.5-.242,1.2,1.2,0,0,1-.125-.557,2.061,2.061,0,0,1,.042-.419c.028-.14.048-.259.063-.357.042-.154.084-.305.126-.452s.084-.283.126-.409a3.177,3.177,0,0,1,.126-.389,1.23,1.23,0,0,1,.168-.325v-.063a.279.279,0,0,1,.073-.189.307.307,0,0,0,.073-.21l.084-.126-.02-.042a2.811,2.811,0,0,0,.1-.263c.042-.119.071-.206.084-.262a1.784,1.784,0,0,1,.168-.42.793.793,0,0,1,.075-.21c.048-.112.1-.231.157-.357l.21-.462-.042.042a.477.477,0,0,0-.252.147.349.349,0,0,1-.232.126h-.02a.509.509,0,0,1-.084-.011c-.042-.007-.064-.024-.064-.052s.049-.07.148-.126a3.433,3.433,0,0,0,.325-.326,3.764,3.764,0,0,0,.241-.305,3.61,3.61,0,0,1,.442-.545l.21-.126h.063v-.021a1.76,1.76,0,0,1,.314.042,2.5,2.5,0,0,1,.4.115c.126.049.188.123.188.221a.669.669,0,0,1-.157.4c-.105.141-.192.267-.263.379-.1.182-.2.371-.3.567a3.3,3.3,0,0,1-.367.546h-.064a1.286,1.286,0,0,0-.073.189c-.021.07-.045.14-.073.21q-.274.462-.557.913a9.859,9.859,0,0,0-.515.935.273.273,0,0,0-.042.063c-.013.029-.028.056-.042.084a2.867,2.867,0,0,0-.062.336,1.868,1.868,0,0,0-.19.829,1.18,1.18,0,0,0-.1.473.639.639,0,0,0,.042.283.546.546,0,0,0,.062.1.209.209,0,0,0,.116.011.743.743,0,0,1,.116-.011l.042.021c.042.014.049.049.02.1v.126a.657.657,0,0,1-.146.021Z"/><path class="cls-3" d="M3041.313,2039.068a1.33,1.33,0,0,1-.578-.116,1.943,1.943,0,0,1-.471-.325,1.136,1.136,0,0,1-.243-.5,2.5,2.5,0,0,1-.051-.462,2.716,2.716,0,0,1,.115-.8,7.707,7.707,0,0,1,.263-.735c.027-.084.055-.133.084-.148a.445.445,0,0,1,.062-.167l.084-.126c.112-.182.241-.385.389-.609a2.7,2.7,0,0,1,.5-.578.939.939,0,0,1,.619-.241.178.178,0,0,1,.053.011.211.211,0,0,0,.052.01h.126a.4.4,0,0,1,.252.084,1.213,1.213,0,0,1,.19.189.929.929,0,0,0,.23.042q-.231.126-.294.105h-.1a.886.886,0,0,0-.61.325,4.659,4.659,0,0,0-.577.736c-.176.272-.3.486-.388.64a1.2,1.2,0,0,1-.106.168.306.306,0,0,0-.062.189.685.685,0,0,0-.148.305c-.056.174-.1.356-.146.545a2.2,2.2,0,0,0-.064.431v.073a.347.347,0,0,0,.022.116l.1.189h-.062a.511.511,0,0,0,.5.336,1.2,1.2,0,0,0,.4-.073,2.082,2.082,0,0,0,.357-.159,2.585,2.585,0,0,0,.231-.135.756.756,0,0,1,.252-.116,1.131,1.131,0,0,1,.379-.315.585.585,0,0,1,.084-.105l.084-.084.084-.063a2.952,2.952,0,0,0,.462-.494c.168-.217.3-.395.4-.535h.022l.251-.462a2.462,2.462,0,0,1,.137-.241c.049-.077.08-.13.094-.158a.78.78,0,0,1,.063-.284,1.1,1.1,0,0,1,.126-.241l-.021-.063a.057.057,0,0,0,.021-.042l.021-.084a.146.146,0,0,0,.021-.063.061.061,0,0,1,.021-.042l-.021-.063a.206.206,0,0,0,.053-.116.343.343,0,0,1,.052-.136v-.893a1.61,1.61,0,0,0-.021-.263.865.865,0,0,0-.189-.461.925.925,0,0,0-.672-.168,1.841,1.841,0,0,0-.986.284q-.463.282-.883.6a1.342,1.342,0,0,1-.294.189l-.231.231q-.126.126-.4.367a5.225,5.225,0,0,0-.482.484.679.679,0,0,0-.21.388h-.126v-.315c.013-.042.058-.143.135-.3a1.26,1.26,0,0,1,.2-.325q0-.252.126-.315c.013-.042.031-.1.051-.157a.161.161,0,0,1,.117-.116,1.279,1.279,0,0,1,.294-.326c.139-.118.258-.227.356-.325l.084-.21.021.147a.375.375,0,0,1,.105-.105.53.53,0,0,1,.126-.063q.212-.126.5-.315a1.209,1.209,0,0,1,.525-.21l.022-.021a.549.549,0,0,1,.378-.042h.336v-.021a.282.282,0,0,0,.126.011.491.491,0,0,1,.126-.011,1.6,1.6,0,0,1,.556.105,2.913,2.913,0,0,1,.493.231,3.064,3.064,0,0,1,.661.546,1.156,1.156,0,0,1,.285.735v.084a1.062,1.062,0,0,1-.022.21c-.014.071-.028.147-.042.231a.525.525,0,0,0,0,.21h-.062a.914.914,0,0,0-.106.357,2.541,2.541,0,0,1-.084.4,5.813,5.813,0,0,1-1.05,1.722v.021a8.3,8.3,0,0,1-.745.735,5.891,5.891,0,0,1-1.06.745A2.608,2.608,0,0,1,3041.313,2039.068Z"/><path class="cls-3" d="M3047.823,2039.068a1.33,1.33,0,0,1-.578-.116,1.967,1.967,0,0,1-.472-.325,1.124,1.124,0,0,1-.242-.5,2.509,2.509,0,0,1-.052-.462,2.716,2.716,0,0,1,.116-.8c.076-.252.164-.5.262-.735.028-.084.056-.133.084-.148a.463.463,0,0,1,.063-.167l.084-.126c.112-.182.241-.385.389-.609a2.72,2.72,0,0,1,.5-.578.943.943,0,0,1,.62-.241.167.167,0,0,1,.052.011.217.217,0,0,0,.053.01h.126a.4.4,0,0,1,.252.084,1.207,1.207,0,0,1,.189.189.953.953,0,0,0,.231.042q-.231.126-.294.105h-.105a.886.886,0,0,0-.609.325,4.659,4.659,0,0,0-.577.736c-.176.272-.305.486-.389.64a1.1,1.1,0,0,1-.105.168.307.307,0,0,0-.063.189.687.687,0,0,0-.147.305q-.084.261-.147.545a2.182,2.182,0,0,0-.063.431v.073a.371.371,0,0,0,.021.116l.105.189h-.063a.513.513,0,0,0,.5.336,1.207,1.207,0,0,0,.4-.073,2.118,2.118,0,0,0,.357-.159,2.585,2.585,0,0,0,.231-.135.756.756,0,0,1,.252-.116,1.138,1.138,0,0,1,.378-.315.688.688,0,0,1,.084-.105l.084-.084.084-.063a2.912,2.912,0,0,0,.462-.494q.252-.326.4-.535h.021l.252-.462a2.462,2.462,0,0,1,.137-.241c.049-.077.08-.13.094-.158a.78.78,0,0,1,.063-.284,1.1,1.1,0,0,1,.126-.241l-.021-.063a.061.061,0,0,0,.021-.042l.021-.084a.161.161,0,0,0,.021-.063.061.061,0,0,1,.021-.042l-.021-.063a.212.212,0,0,0,.053-.116.329.329,0,0,1,.052-.136v-.893a1.61,1.61,0,0,0-.021-.263.873.873,0,0,0-.189-.461.927.927,0,0,0-.672-.168,1.847,1.847,0,0,0-.987.284q-.462.282-.882.6a1.342,1.342,0,0,1-.294.189l-.231.231c-.084.084-.218.206-.4.367a5.369,5.369,0,0,0-.483.484.686.686,0,0,0-.21.388h-.126v-.315c.014-.042.059-.143.136-.3a1.263,1.263,0,0,1,.2-.325q0-.252.126-.315c.014-.042.032-.1.052-.157a.162.162,0,0,1,.116-.116,1.319,1.319,0,0,1,.294-.326c.14-.118.259-.227.357-.325l.084-.21.021.147a.375.375,0,0,1,.105-.105.53.53,0,0,1,.126-.063q.21-.126.5-.315a1.209,1.209,0,0,1,.525-.21l.021-.021a.55.55,0,0,1,.378-.042h.336v-.021a.283.283,0,0,0,.126.011.5.5,0,0,1,.126-.011,1.6,1.6,0,0,1,.557.105,2.988,2.988,0,0,1,.493.231,3.089,3.089,0,0,1,.661.546,1.149,1.149,0,0,1,.284.735v.084a1.061,1.061,0,0,1-.021.21c-.014.071-.028.147-.042.231a.525.525,0,0,0,0,.21h-.063a.9.9,0,0,0-.105.357,2.664,2.664,0,0,1-.084.4,5.813,5.813,0,0,1-1.05,1.722v.021a8.434,8.434,0,0,1-.745.735,5.864,5.864,0,0,1-1.061.745A2.6,2.6,0,0,1,3047.823,2039.068Z"/><path class="cls-3" d="M3189.594,2039.488c-.113,0-.207-.088-.284-.262a1.1,1.1,0,0,1-.116-.411q-.019-.146.232-.4t.63-.588c.252-.238.548-.49.892-.756s.69-.539,1.039-.819q.714-.588,1.386-1.134t1.135-1a2.2,2.2,0,0,0,.546-.7.386.386,0,0,0,.02-.148,1.174,1.174,0,0,0-.336-.083,3.237,3.237,0,0,0-.356-.021,2.16,2.16,0,0,0-.379.031c-.111.022-.224.046-.336.073a1.375,1.375,0,0,0-.3.084,2.11,2.11,0,0,1-.368.106l-.178.042-.2.042a1.409,1.409,0,0,0-.378.2.8.8,0,0,1-.4.158,1.847,1.847,0,0,0-.274.231h.148c0,.042-.068.115-.2.221s-.27.2-.41.293-.224.144-.251.158a.342.342,0,0,1-.21.063c-.084,0-.183-.084-.294-.252a1.477,1.477,0,0,1-.19-.336c.112-.07.221-.14.326-.21a3.1,3.1,0,0,1,.326-.189.057.057,0,0,1,.042-.021h.02a3.235,3.235,0,0,1,.347-.2,1.706,1.706,0,0,1,.368-.157,1.246,1.246,0,0,1,.356-.2,5.909,5.909,0,0,1,.577-.21c.2-.064.354-.109.453-.137l.188-.063h.064v-.021l.566-.084h.21l.042-.021a1.136,1.136,0,0,0,.253-.021c.181.028.385.066.608.115a1.516,1.516,0,0,1,.588.263.687.687,0,0,1,.252.588,1.059,1.059,0,0,1-.22.651,2.542,2.542,0,0,1-.494.5c-.07.056-.143.112-.22.168s-.151.112-.22.168a6.925,6.925,0,0,0-.641.451,6.931,6.931,0,0,1-.64.451q-.233.149-.462.305c-.155.106-.309.214-.462.326a1.784,1.784,0,0,1-.526.284.92.92,0,0,0-.462.3c-.042.029-.1.073-.178.136s-.164.13-.263.2a2.3,2.3,0,0,1-.22.157,1.022,1.022,0,0,0-.158.116.549.549,0,0,1-.21.22c-.112.077-.2.144-.272.2l-.042.021.062-.021q.189-.063.473-.178a1.291,1.291,0,0,1,.451-.116,2.437,2.437,0,0,1,.242-.126,2.092,2.092,0,0,0,.515-.147l.1-.042a.119.119,0,0,0,.084-.042l.022-.021.168.021.21-.126.042.021a2.341,2.341,0,0,0,.3-.116c.148-.063.221-.122.221-.178l.148.021.168-.063v.021a.73.73,0,0,1,.23-.042l.126-.063h.084l.189-.042.021.021c.015,0,.021-.007.021-.021a.956.956,0,0,1,.546-.179c.252-.02.442-.031.568-.031a.878.878,0,0,1,.63.241.8.8,0,0,1,.272.515.3.3,0,0,1-.126.231h-.062a.4.4,0,0,0-.294-.315l-.462-.063a1.954,1.954,0,0,1-.515.115,4.688,4.688,0,0,1-.515.053.5.5,0,0,1-.336.063l-.125.063h-.022a3.324,3.324,0,0,0-.756.283,3.289,3.289,0,0,1-.756.284,5.469,5.469,0,0,0-.924.377q-.273.128-.525.253l-.42.21a.914.914,0,0,0-.252.158A.4.4,0,0,1,3189.594,2039.488Z"/><path class="cls-3" d="M3197.951,2039.068a1.33,1.33,0,0,1-.578-.116,1.967,1.967,0,0,1-.472-.325,1.124,1.124,0,0,1-.242-.5,2.509,2.509,0,0,1-.052-.462,2.716,2.716,0,0,1,.116-.8c.076-.252.164-.5.262-.735.028-.084.056-.133.084-.148a.463.463,0,0,1,.063-.167l.084-.126q.168-.273.388-.609a2.752,2.752,0,0,1,.5-.578.943.943,0,0,1,.62-.241.167.167,0,0,1,.052.011.217.217,0,0,0,.053.01h.126a.4.4,0,0,1,.252.084,1.207,1.207,0,0,1,.189.189.953.953,0,0,0,.231.042q-.231.126-.294.105h-.105a.886.886,0,0,0-.609.325,4.659,4.659,0,0,0-.577.736c-.176.272-.3.486-.389.64a1.1,1.1,0,0,1-.105.168.307.307,0,0,0-.063.189.676.676,0,0,0-.147.305q-.084.261-.147.545a2.182,2.182,0,0,0-.063.431v.073a.371.371,0,0,0,.021.116l.105.189h-.063a.513.513,0,0,0,.5.336,1.207,1.207,0,0,0,.4-.073,2.155,2.155,0,0,0,.357-.159,2.585,2.585,0,0,0,.231-.135.756.756,0,0,1,.252-.116,1.138,1.138,0,0,1,.378-.315.688.688,0,0,1,.084-.105l.084-.084.084-.063a2.912,2.912,0,0,0,.462-.494q.252-.326.4-.535h.021l.252-.462a2.462,2.462,0,0,1,.137-.241c.049-.077.08-.13.094-.158a.78.78,0,0,1,.063-.284,1.1,1.1,0,0,1,.126-.241l-.021-.063a.061.061,0,0,0,.021-.042l.021-.084a.161.161,0,0,0,.021-.063.061.061,0,0,1,.021-.042l-.021-.063a.212.212,0,0,0,.053-.116.329.329,0,0,1,.052-.136v-.893a1.61,1.61,0,0,0-.021-.263.873.873,0,0,0-.189-.461.927.927,0,0,0-.672-.168,1.847,1.847,0,0,0-.987.284q-.462.282-.882.6a1.342,1.342,0,0,1-.294.189l-.231.231c-.084.084-.218.206-.4.367a5.369,5.369,0,0,0-.483.484.686.686,0,0,0-.21.388h-.126v-.315c.014-.042.059-.143.136-.3a1.263,1.263,0,0,1,.2-.325q0-.252.126-.315c.014-.042.032-.1.052-.157a.162.162,0,0,1,.116-.116,1.319,1.319,0,0,1,.294-.326c.14-.118.259-.227.357-.325l.084-.21.021.147a.362.362,0,0,1,.105-.105.53.53,0,0,1,.126-.063q.21-.126.5-.315a1.209,1.209,0,0,1,.525-.21l.021-.021a.55.55,0,0,1,.378-.042h.336v-.021a.283.283,0,0,0,.126.011.5.5,0,0,1,.126-.011,1.6,1.6,0,0,1,.557.105,2.988,2.988,0,0,1,.493.231,3.089,3.089,0,0,1,.661.546,1.149,1.149,0,0,1,.284.735v.084a1.061,1.061,0,0,1-.021.21c-.014.071-.028.147-.042.231a.525.525,0,0,0,0,.21h-.063a.9.9,0,0,0-.105.357,2.664,2.664,0,0,1-.084.4,5.813,5.813,0,0,1-1.05,1.722v.021a8.575,8.575,0,0,1-.745.735,5.864,5.864,0,0,1-1.061.745A2.6,2.6,0,0,1,3197.951,2039.068Z"/><path class="cls-3" d="M3204.461,2039.068a1.327,1.327,0,0,1-.578-.116,1.948,1.948,0,0,1-.472-.325,1.124,1.124,0,0,1-.242-.5,2.509,2.509,0,0,1-.052-.462,2.716,2.716,0,0,1,.115-.8c.077-.252.164-.5.263-.735a.265.265,0,0,1,.084-.148.445.445,0,0,1,.063-.167c.028-.042.055-.084.084-.126q.168-.273.388-.609a2.752,2.752,0,0,1,.5-.578.943.943,0,0,1,.619-.241.167.167,0,0,1,.053.011.217.217,0,0,0,.053.01h.126a.4.4,0,0,1,.252.084,1.207,1.207,0,0,1,.189.189.953.953,0,0,0,.231.042c-.155.084-.252.119-.294.105h-.105a.886.886,0,0,0-.609.325,4.6,4.6,0,0,0-.577.736c-.176.272-.3.486-.389.64a1.1,1.1,0,0,1-.105.168.307.307,0,0,0-.063.189.676.676,0,0,0-.147.305q-.084.261-.147.545a2.182,2.182,0,0,0-.063.431v.073a.344.344,0,0,0,.021.116l.105.189h-.063a.513.513,0,0,0,.5.336,1.2,1.2,0,0,0,.4-.073,2.131,2.131,0,0,0,.358-.159,2.46,2.46,0,0,0,.23-.135.773.773,0,0,1,.252-.116,1.151,1.151,0,0,1,.379-.315.688.688,0,0,1,.084-.105l.084-.084.084-.063a2.912,2.912,0,0,0,.462-.494q.252-.326.4-.535h.022l.252-.462a2.462,2.462,0,0,1,.137-.241c.048-.077.08-.13.093-.158a.784.784,0,0,1,.064-.284,1.1,1.1,0,0,1,.126-.241l-.022-.063a.058.058,0,0,0,.022-.042l.02-.084a.151.151,0,0,0,.022-.063.063.063,0,0,1,.02-.042l-.02-.063a.212.212,0,0,0,.053-.116.327.327,0,0,1,.051-.136v-.893a1.73,1.73,0,0,0-.02-.263.874.874,0,0,0-.19-.461.924.924,0,0,0-.672-.168,1.846,1.846,0,0,0-.986.284q-.462.282-.883.6a1.319,1.319,0,0,1-.294.189l-.23.231c-.084.084-.218.206-.4.367a5.369,5.369,0,0,0-.483.484.679.679,0,0,0-.21.388h-.126v-.315c.014-.042.059-.143.136-.3a1.236,1.236,0,0,1,.2-.325q0-.252.126-.315c.014-.042.031-.1.052-.157a.159.159,0,0,1,.116-.116,1.3,1.3,0,0,1,.294-.326c.14-.118.259-.227.356-.325l.084-.21.022.147a.359.359,0,0,1,.1-.105.53.53,0,0,1,.126-.063q.212-.126.5-.315a1.212,1.212,0,0,1,.526-.21l.021-.021a.55.55,0,0,1,.378-.042h.336v-.021a.283.283,0,0,0,.126.011.491.491,0,0,1,.126-.011,1.6,1.6,0,0,1,.557.105,2.988,2.988,0,0,1,.493.231,3.114,3.114,0,0,1,.661.546,1.155,1.155,0,0,1,.284.735v.084a1.141,1.141,0,0,1-.021.21c-.014.071-.029.147-.042.231a.525.525,0,0,0,0,.21h-.063a.9.9,0,0,0-.105.357,2.8,2.8,0,0,1-.084.4,5.834,5.834,0,0,1-1.05,1.722v.021a8.575,8.575,0,0,1-.745.735,5.9,5.9,0,0,1-1.061.745A2.6,2.6,0,0,1,3204.461,2039.068Z"/><path class="cls-3" d="M3342.164,2040.811a1.094,1.094,0,0,1-.367-.084.386.386,0,0,1-.263-.231.206.206,0,0,1-.105-.189q0-.21.126-.252v-.021h.126v.147a.492.492,0,0,0,.042.2.185.185,0,0,0,.189.094.593.593,0,0,0,.2-.032c.064-.02.123-.039.179-.052h.021l.021.021v-.021h.021q.252-.107.514-.22a3.68,3.68,0,0,0,.494-.263l.546-.378c.112-.07.228-.144.347-.22a.88.88,0,0,1,.283-.137.511.511,0,0,1,.221-.241,2.325,2.325,0,0,0,.283-.2l.609-.555a4.31,4.31,0,0,0,.63-.715,1.33,1.33,0,0,0,.273-.766q0-.714-.8-.715a2.882,2.882,0,0,0-1.1.263q-.619.264-1.06.473a.44.44,0,0,0-.189.157.27.27,0,0,1-.231.116.39.39,0,0,1-.357-.252h-.021a1.086,1.086,0,0,0-.031-.252.99.99,0,0,1-.032-.252,3.445,3.445,0,0,1,.536-.315q.3-.147.64-.294.315-.147.651-.294a4.939,4.939,0,0,0,.609-.315l.021.021a.456.456,0,0,1,.315-.168l.021-.042a7.106,7.106,0,0,0,.682-.514.865.865,0,0,0,.389-.6q0-.294-.347-.336a4.831,4.831,0,0,0-.556-.042,4.431,4.431,0,0,0-.924.115,2.732,2.732,0,0,0-.861.326q-.336.21-.189.483a.533.533,0,0,1,.063.21h-.126a1.185,1.185,0,0,1-.368-.546,2.553,2.553,0,0,1-.178-.61l.063-.062q.063-.042.063,0h.021a.062.062,0,0,1,.042-.022.059.059,0,0,0,.042-.02.067.067,0,0,0,.063-.042h.084l.105-.042h.042v-.021l.126-.042h.042a.866.866,0,0,1,.357-.116,1.158,1.158,0,0,0,.336-.073.183.183,0,0,1,.084-.021h.021a1.663,1.663,0,0,0,.273-.021,1.663,1.663,0,0,1,.273-.021l.21-.042.021.021a1.021,1.021,0,0,1,.2-.021h.179a2.5,2.5,0,0,1,.431.063,2.922,2.922,0,0,1,.409.105,1.35,1.35,0,0,1,.514.326.748.748,0,0,1,.221.556.985.985,0,0,1-.315.714,3.06,3.06,0,0,1-.725.535c-.272.148-.507.27-.7.368l-.189.105h.042a2.288,2.288,0,0,1,.357.031c.126.022.252.046.378.074a.233.233,0,0,1,.126.074.178.178,0,0,0,.147.052l.105.083a2.252,2.252,0,0,1,.42.484,1.286,1.286,0,0,1,.252.567,1.155,1.155,0,0,0,.032.252.447.447,0,0,1-.011.252,1.765,1.765,0,0,1-.357.767,4.542,4.542,0,0,1-.661.7q-.369.315-.662.546a10.22,10.22,0,0,1-1.564.934A4.115,4.115,0,0,1,3342.164,2040.811Z"/><path class="cls-3" d="M3349.808,2039.068a1.335,1.335,0,0,1-.579-.116,1.943,1.943,0,0,1-.471-.325,1.124,1.124,0,0,1-.242-.5,2.424,2.424,0,0,1-.052-.462,2.716,2.716,0,0,1,.115-.8,7.707,7.707,0,0,1,.263-.735c.027-.084.055-.133.084-.148a.445.445,0,0,1,.062-.167c.029-.042.056-.084.084-.126.113-.182.241-.385.389-.609a2.7,2.7,0,0,1,.5-.578.939.939,0,0,1,.619-.241.173.173,0,0,1,.053.011.211.211,0,0,0,.052.01h.126a.4.4,0,0,1,.252.084,1.213,1.213,0,0,1,.19.189.929.929,0,0,0,.23.042q-.231.126-.294.105h-.1a.888.888,0,0,0-.61.325,4.718,4.718,0,0,0-.577.736c-.175.272-.3.486-.388.64a1.2,1.2,0,0,1-.106.168.306.306,0,0,0-.062.189.685.685,0,0,0-.148.305q-.082.261-.146.545a2.2,2.2,0,0,0-.064.431v.073a.347.347,0,0,0,.022.116l.1.189h-.062a.511.511,0,0,0,.5.336,1.2,1.2,0,0,0,.4-.073,2.131,2.131,0,0,0,.358-.159c.055-.027.132-.073.23-.135a.773.773,0,0,1,.252-.116,1.131,1.131,0,0,1,.379-.315.632.632,0,0,1,.084-.105l.084-.084.084-.063a2.952,2.952,0,0,0,.462-.494q.252-.326.4-.535h.022l.252-.462a2.678,2.678,0,0,1,.136-.241c.049-.077.08-.13.094-.158a.784.784,0,0,1,.064-.284,1.1,1.1,0,0,1,.126-.241l-.022-.063a.058.058,0,0,0,.022-.042l.02-.084a.151.151,0,0,0,.022-.063.059.059,0,0,1,.02-.042l-.02-.063a.212.212,0,0,0,.052-.116.343.343,0,0,1,.052-.136v-.893a1.61,1.61,0,0,0-.021-.263.865.865,0,0,0-.189-.461.925.925,0,0,0-.672-.168,1.843,1.843,0,0,0-.986.284q-.464.282-.883.6a1.342,1.342,0,0,1-.294.189l-.23.231c-.084.084-.218.206-.4.367a5.352,5.352,0,0,0-.482.484.679.679,0,0,0-.21.388h-.126v-.315c.014-.042.058-.143.136-.3a1.236,1.236,0,0,1,.2-.325q0-.252.126-.315c.013-.042.031-.1.052-.157a.159.159,0,0,1,.116-.116,1.279,1.279,0,0,1,.294-.326c.139-.118.258-.227.356-.325l.084-.21.022.147a.359.359,0,0,1,.1-.105.53.53,0,0,1,.126-.063q.211-.126.5-.315a1.209,1.209,0,0,1,.525-.21l.022-.021a.549.549,0,0,1,.378-.042h.336v-.021a.282.282,0,0,0,.126.011.491.491,0,0,1,.126-.011,1.6,1.6,0,0,1,.556.105,2.913,2.913,0,0,1,.493.231,3.1,3.1,0,0,1,.662.546,1.16,1.16,0,0,1,.284.735v.084a1.062,1.062,0,0,1-.022.21c-.013.071-.028.147-.042.231a.565.565,0,0,0,0,.21h-.062a.914.914,0,0,0-.106.357,2.541,2.541,0,0,1-.084.4,5.83,5.83,0,0,1-1.049,1.722v.021a8.464,8.464,0,0,1-.746.735,5.891,5.891,0,0,1-1.06.745A2.6,2.6,0,0,1,3349.808,2039.068Z"/><path class="cls-3" d="M3356.317,2039.068a1.33,1.33,0,0,1-.578-.116,1.943,1.943,0,0,1-.471-.325,1.136,1.136,0,0,1-.243-.5,2.5,2.5,0,0,1-.051-.462,2.716,2.716,0,0,1,.115-.8,7.707,7.707,0,0,1,.263-.735c.027-.084.055-.133.084-.148a.445.445,0,0,1,.062-.167l.084-.126c.112-.182.241-.385.389-.609a2.7,2.7,0,0,1,.5-.578.939.939,0,0,1,.619-.241.167.167,0,0,1,.052.011.226.226,0,0,0,.053.01h.126a.4.4,0,0,1,.252.084,1.257,1.257,0,0,1,.19.189.929.929,0,0,0,.23.042q-.231.126-.294.105h-.1a.886.886,0,0,0-.61.325,4.659,4.659,0,0,0-.577.736c-.176.272-.3.486-.389.64a1.1,1.1,0,0,1-.105.168.307.307,0,0,0-.063.189.687.687,0,0,0-.147.305c-.056.174-.1.356-.146.545a2.2,2.2,0,0,0-.064.431v.073a.347.347,0,0,0,.022.116l.1.189h-.062a.511.511,0,0,0,.5.336,1.207,1.207,0,0,0,.4-.073,2.082,2.082,0,0,0,.357-.159,2.585,2.585,0,0,0,.231-.135.756.756,0,0,1,.252-.116,1.131,1.131,0,0,1,.379-.315.585.585,0,0,1,.084-.105l.084-.084.084-.063a2.911,2.911,0,0,0,.461-.494q.252-.326.4-.535h.021l.252-.462a2.462,2.462,0,0,1,.137-.241c.049-.077.08-.13.094-.158a.78.78,0,0,1,.063-.284,1.1,1.1,0,0,1,.126-.241l-.021-.063a.061.061,0,0,0,.021-.042l.021-.084a.161.161,0,0,0,.021-.063.061.061,0,0,1,.021-.042l-.021-.063a.206.206,0,0,0,.053-.116.329.329,0,0,1,.052-.136v-.893a1.61,1.61,0,0,0-.021-.263.873.873,0,0,0-.189-.461.925.925,0,0,0-.672-.168,1.841,1.841,0,0,0-.986.284q-.463.282-.883.6a1.342,1.342,0,0,1-.294.189l-.231.231q-.126.126-.4.367a5.225,5.225,0,0,0-.482.484.679.679,0,0,0-.21.388h-.126v-.315c.013-.042.058-.143.135-.3a1.232,1.232,0,0,1,.2-.325q0-.252.126-.315c.013-.042.031-.1.051-.157a.162.162,0,0,1,.116-.116,1.319,1.319,0,0,1,.294-.326c.14-.118.259-.227.357-.325l.084-.21.021.147a.375.375,0,0,1,.105-.105.53.53,0,0,1,.126-.063q.21-.126.5-.315a1.209,1.209,0,0,1,.525-.21l.022-.021a.549.549,0,0,1,.378-.042h.335v-.021a.283.283,0,0,0,.126.011.5.5,0,0,1,.126-.011,1.6,1.6,0,0,1,.557.105,2.913,2.913,0,0,1,.493.231,3.064,3.064,0,0,1,.661.546,1.156,1.156,0,0,1,.285.735v.084a1.062,1.062,0,0,1-.022.21c-.014.071-.028.147-.042.231a.525.525,0,0,0,0,.21h-.062a.9.9,0,0,0-.106.357,2.664,2.664,0,0,1-.084.4,5.813,5.813,0,0,1-1.05,1.722v.021a8.3,8.3,0,0,1-.745.735,5.891,5.891,0,0,1-1.06.745A2.608,2.608,0,0,1,3356.317,2039.068Z"/><path class="cls-3" d="M3498.9,2039.026a.444.444,0,0,1-.232-.063.67.67,0,0,1-.389-.378,1.566,1.566,0,0,1-.115-.609,2.886,2.886,0,0,1,.053-.546c.035-.182.066-.336.1-.462l-.022-.021.209-.588.127-.463a1,1,0,0,0-.367.117,3.083,3.083,0,0,1-.348.157,1.246,1.246,0,0,1-.262.1,1.131,1.131,0,0,0-.263.094,1.431,1.431,0,0,0-.272.158.533.533,0,0,1-.273.115,1.475,1.475,0,0,0-.211.073,1.241,1.241,0,0,0-.272.137c-.056.042-.105.077-.148.1a.289.289,0,0,1-.168.042.632.632,0,0,1-.43-.22.621.621,0,0,1-.22-.41.547.547,0,0,1,.177-.388c.119-.119.229-.221.326-.305l.022.021-.022-.021h.022v-.021l.062-.021a.123.123,0,0,1,.084-.042h.063a1.333,1.333,0,0,1,.389-.357,1.925,1.925,0,0,1,.41-.252h.021c-.015,0-.021-.007-.021-.021a.935.935,0,0,1,.377-.294v.021a.992.992,0,0,1,.336-.305q.3-.2.4-.283l.02-.042.043.021a1.951,1.951,0,0,1,.242-.242.623.623,0,0,1,.261-.157v-.042a.627.627,0,0,1,.147-.106,1.115,1.115,0,0,0,.148-.084c.112-.084.227-.17.346-.261s.227-.179.326-.263a1.014,1.014,0,0,0,.147-.137.275.275,0,0,1,.146-.094h.043a.18.18,0,0,1,.156.074.162.162,0,0,0,.137.073.074.074,0,0,0,.084-.084,1.116,1.116,0,0,1,.158-.283c.09-.134.19-.27.293-.41a3.463,3.463,0,0,1,.221-.273,2.3,2.3,0,0,1,.494.147q.325.126.346.294a.185.185,0,0,1-.02.084c-.056.07-.117.14-.179.21a1.614,1.614,0,0,1-.2.189,1.431,1.431,0,0,0-.209.21q-.1.126-.21.231c-.057.07-.182.242-.379.514s-.391.557-.588.851a7.173,7.173,0,0,0-.4.651,1.074,1.074,0,0,0,.336-.063l.043.084v-.105a1.7,1.7,0,0,0,.324-.031,1.493,1.493,0,0,1,.305-.032c.225,0,.336.056.336.168,0,.084-.09.133-.273.147l-.147.021c-.027,0-.035.014-.021.042l.021.063h-.273a1.187,1.187,0,0,0-.231.021.3.3,0,0,1-.146.094.585.585,0,0,1-.106.011.346.346,0,0,0-.189.042.485.485,0,0,1-.188.063,4.452,4.452,0,0,0-.285.483,2.3,2.3,0,0,0-.178.525v.063a.823.823,0,0,1-.052.241,2.069,2.069,0,0,1-.094.242,3.929,3.929,0,0,0-.115.409,1.471,1.471,0,0,0-.032.473,1.854,1.854,0,0,1,.032.294.594.594,0,0,0,.052.272.428.428,0,0,0,.178.084c.09.029.137.078.137.148a.087.087,0,0,1-.053.073A.179.179,0,0,1,3498.9,2039.026Zm-2.92-2.709a2.038,2.038,0,0,0,.6-.189c.2-.1.4-.182.578-.252a1,1,0,0,1,.158-.063.573.573,0,0,1,.157-.021,2.116,2.116,0,0,1,.453-.2,2.253,2.253,0,0,1,.492-.116.828.828,0,0,0,.295-.252l.084-.126.041-.084.043-.105a.3.3,0,0,1,.105-.147.364.364,0,0,1,.063-.158.152.152,0,0,0,.021-.136l.084-.063a.043.043,0,0,1,.01-.032.038.038,0,0,0,.01-.031c.014-.028.039-.073.074-.137a.629.629,0,0,1,.074-.115.371.371,0,0,0,.063-.168.88.88,0,0,0,.105-.147.787.787,0,0,0,.084-.189,3.871,3.871,0,0,1-.42.283c-.113.064-.267.158-.463.284-.154.113-.308.228-.46.346a4.467,4.467,0,0,1-.485.326l-.041.042-.084.021a.579.579,0,0,1-.336.315c-.183.084-.273.175-.273.273-.168.14-.344.273-.526.4A3.03,3.03,0,0,0,3495.98,2036.317Zm.967-1.281a.06.06,0,0,1,.041-.021.019.019,0,0,1-.021-.021A.059.059,0,0,1,3496.947,2035.036Z"/><path class="cls-3" d="M3503.037,2039.068a1.327,1.327,0,0,1-.578-.116,1.972,1.972,0,0,1-.473-.325,1.134,1.134,0,0,1-.242-.5,2.5,2.5,0,0,1-.051-.462,2.652,2.652,0,0,1,.116-.8c.076-.252.164-.5.261-.735a.277.277,0,0,1,.084-.148.463.463,0,0,1,.063-.167c.029-.042.056-.084.084-.126q.17-.273.388-.609a2.81,2.81,0,0,1,.5-.578.945.945,0,0,1,.62-.241.157.157,0,0,1,.052.011.217.217,0,0,0,.053.01h.127a.4.4,0,0,1,.252.084,1.207,1.207,0,0,1,.189.189.941.941,0,0,0,.231.042c-.154.084-.252.119-.3.105h-.1a.882.882,0,0,0-.609.325,4.664,4.664,0,0,0-.578.736c-.176.272-.3.486-.389.64a.966.966,0,0,1-.105.168.314.314,0,0,0-.063.189.679.679,0,0,0-.146.305,5.49,5.49,0,0,0-.147.545,2.125,2.125,0,0,0-.064.431v.073a.4.4,0,0,0,.021.116l.106.189h-.063a.513.513,0,0,0,.5.336,1.216,1.216,0,0,0,.4-.073,2.232,2.232,0,0,0,.357-.159,2.6,2.6,0,0,0,.23-.135.756.756,0,0,1,.252-.116,1.141,1.141,0,0,1,.379-.315.632.632,0,0,1,.084-.105l.084-.084.084-.063a2.952,2.952,0,0,0,.461-.494q.252-.326.4-.535h.021l.252-.462c.043-.084.088-.164.137-.241s.08-.13.094-.158a.763.763,0,0,1,.064-.284,1.1,1.1,0,0,1,.125-.241l-.021-.063a.057.057,0,0,0,.021-.042l.022-.084a.18.18,0,0,0,.021-.063.059.059,0,0,1,.02-.042l-.02-.063a.212.212,0,0,0,.053-.116.314.314,0,0,1,.051-.136v-.893a1.611,1.611,0,0,0-.02-.263.889.889,0,0,0-.189-.461.927.927,0,0,0-.672-.168,1.844,1.844,0,0,0-.987.284c-.308.188-.6.387-.882.6a1.367,1.367,0,0,1-.295.189l-.231.231q-.126.126-.4.367a5.242,5.242,0,0,0-.483.484.689.689,0,0,0-.211.388h-.125v-.315c.014-.042.059-.143.135-.3a1.288,1.288,0,0,1,.2-.325c0-.168.041-.273.125-.315l.053-.157a.159.159,0,0,1,.115-.116,1.347,1.347,0,0,1,.3-.326c.139-.118.258-.227.356-.325l.084-.21.021.147a.354.354,0,0,1,.106-.105.524.524,0,0,1,.125-.063q.21-.126.5-.315a1.222,1.222,0,0,1,.526-.21l.021-.021a.553.553,0,0,1,.379-.042h.336v-.021a.279.279,0,0,0,.125.011.51.51,0,0,1,.127-.011,1.6,1.6,0,0,1,.557.105,2.976,2.976,0,0,1,.492.231,3.121,3.121,0,0,1,.662.546,1.149,1.149,0,0,1,.283.735v.084a1.141,1.141,0,0,1-.021.21c-.014.071-.028.147-.041.231a.525.525,0,0,0,0,.21h-.063a.868.868,0,0,0-.105.357,2.948,2.948,0,0,1-.084.4,5.8,5.8,0,0,1-1.051,1.722v.021a8.4,8.4,0,0,1-.744.735,5.935,5.935,0,0,1-1.061.745A2.6,2.6,0,0,1,3503.037,2039.068Z"/><path class="cls-3" d="M3509.547,2039.068a1.324,1.324,0,0,1-.578-.116,1.952,1.952,0,0,1-.473-.325,1.134,1.134,0,0,1-.242-.5,2.5,2.5,0,0,1-.051-.462,2.683,2.683,0,0,1,.115-.8q.115-.378.262-.735a.271.271,0,0,1,.084-.148.463.463,0,0,1,.063-.167c.029-.042.056-.084.084-.126q.169-.273.388-.609a2.81,2.81,0,0,1,.5-.578.944.944,0,0,1,.619-.241.162.162,0,0,1,.053.011.209.209,0,0,0,.053.01h.127a.4.4,0,0,1,.252.084,1.251,1.251,0,0,1,.189.189.93.93,0,0,0,.231.042c-.155.084-.252.119-.3.105h-.1a.882.882,0,0,0-.609.325,4.606,4.606,0,0,0-.578.736c-.176.272-.305.486-.389.64a.974.974,0,0,1-.106.168.313.313,0,0,0-.062.189.679.679,0,0,0-.146.305,5.49,5.49,0,0,0-.147.545,2.125,2.125,0,0,0-.064.431v.073a.371.371,0,0,0,.021.116l.106.189h-.063a.513.513,0,0,0,.5.336,1.206,1.206,0,0,0,.4-.073,2.206,2.206,0,0,0,.358-.159c.054-.027.133-.073.23-.135a.756.756,0,0,1,.252-.116,1.131,1.131,0,0,1,.379-.315.585.585,0,0,1,.084-.105l.084-.084.084-.063a2.952,2.952,0,0,0,.461-.494q.252-.326.4-.535h.022l.252-.462c.043-.084.088-.164.137-.241s.08-.13.093-.158a.767.767,0,0,1,.065-.284,1.1,1.1,0,0,1,.125-.241l-.022-.063a.055.055,0,0,0,.022-.042l.021-.084a.167.167,0,0,0,.022-.063.062.062,0,0,1,.019-.042l-.019-.063a.212.212,0,0,0,.053-.116.312.312,0,0,1,.05-.136v-.893a1.732,1.732,0,0,0-.019-.263.89.89,0,0,0-.19-.461.924.924,0,0,0-.672-.168,1.843,1.843,0,0,0-.986.284q-.462.282-.883.6a1.343,1.343,0,0,1-.295.189l-.23.231q-.126.126-.4.367a5.352,5.352,0,0,0-.482.484.682.682,0,0,0-.211.388h-.125v-.315c.014-.042.059-.143.135-.3a1.26,1.26,0,0,1,.2-.325c0-.168.041-.273.125-.315.014-.042.031-.1.053-.157a.157.157,0,0,1,.115-.116,1.326,1.326,0,0,1,.3-.326c.139-.118.258-.227.355-.325l.084-.21.022.147a.35.35,0,0,1,.105-.105.524.524,0,0,1,.125-.063q.212-.126.5-.315a1.217,1.217,0,0,1,.526-.21l.021-.021a.553.553,0,0,1,.379-.042h.336v-.021a.279.279,0,0,0,.125.011.5.5,0,0,1,.127-.011,1.6,1.6,0,0,1,.557.105,2.976,2.976,0,0,1,.492.231,3.146,3.146,0,0,1,.662.546,1.154,1.154,0,0,1,.283.735v.084a1.141,1.141,0,0,1-.021.21c-.014.071-.028.147-.041.231a.525.525,0,0,0,0,.21h-.063a.868.868,0,0,0-.105.357,3.114,3.114,0,0,1-.084.4,5.816,5.816,0,0,1-1.051,1.722v.021a8.4,8.4,0,0,1-.744.735,5.971,5.971,0,0,1-1.061.745A2.6,2.6,0,0,1,3509.547,2039.068Z"/><path class="cls-3" d="M3653.538,2039.026a.441.441,0,0,1-.231-.063.668.668,0,0,1-.389-.378,1.548,1.548,0,0,1-.115-.609,2.884,2.884,0,0,1,.052-.546c.035-.182.067-.336.095-.462l-.021-.021.21-.588.126-.463a1.027,1.027,0,0,0-.368.117,3.141,3.141,0,0,1-.346.157,1.234,1.234,0,0,1-.263.1,1.131,1.131,0,0,0-.263.094,1.431,1.431,0,0,0-.272.158.529.529,0,0,1-.274.115,1.5,1.5,0,0,0-.209.073,1.254,1.254,0,0,0-.273.137c-.057.042-.105.077-.147.1a.291.291,0,0,1-.168.042.632.632,0,0,1-.431-.22.619.619,0,0,1-.221-.41.545.545,0,0,1,.179-.388q.178-.178.326-.305l.021.021-.021-.021h.021v-.021l.063-.021a.119.119,0,0,1,.084-.042h.063a1.325,1.325,0,0,1,.388-.357,2.012,2.012,0,0,1,.409-.252h.022c-.015,0-.022-.007-.022-.021a.951.951,0,0,1,.378-.294v.021a.992.992,0,0,1,.336-.305c.2-.133.329-.227.4-.283l.02-.042.042.021a2.1,2.1,0,0,1,.242-.242.64.64,0,0,1,.263-.157v-.042a.588.588,0,0,1,.147-.106,1.166,1.166,0,0,0,.147-.084c.111-.084.227-.17.346-.261s.227-.179.326-.263a.912.912,0,0,0,.146-.137.279.279,0,0,1,.148-.094h.042a.181.181,0,0,1,.157.074.16.16,0,0,0,.137.073.074.074,0,0,0,.084-.084,1.1,1.1,0,0,1,.157-.283c.091-.134.19-.27.294-.41a3.044,3.044,0,0,1,.221-.273,2.313,2.313,0,0,1,.493.147q.325.126.347.294a.186.186,0,0,1-.021.084c-.057.07-.116.14-.179.21a1.76,1.76,0,0,1-.2.189,1.434,1.434,0,0,0-.21.21q-.105.126-.21.231c-.056.07-.182.242-.379.514s-.391.557-.588.851a6.669,6.669,0,0,0-.4.651,1.079,1.079,0,0,0,.336-.063l.042.084v-.105a1.73,1.73,0,0,0,.325-.031,1.493,1.493,0,0,1,.305-.032c.223,0,.336.056.336.168,0,.084-.091.133-.274.147l-.146.021c-.029,0-.035.014-.022.042l.022.063h-.274a1.162,1.162,0,0,0-.23.021.306.306,0,0,1-.148.094.566.566,0,0,1-.1.011.347.347,0,0,0-.19.042.48.48,0,0,1-.188.063,4.435,4.435,0,0,0-.284.483,2.2,2.2,0,0,0-.178.525v.063a.8.8,0,0,1-.053.241,1.9,1.9,0,0,1-.094.242c-.042.126-.081.262-.116.409a1.471,1.471,0,0,0-.031.473,1.769,1.769,0,0,1,.031.294.618.618,0,0,0,.053.272.428.428,0,0,0,.178.084c.091.029.137.078.137.148a.087.087,0,0,1-.053.073A.181.181,0,0,1,3653.538,2039.026Zm-2.919-2.709a2.048,2.048,0,0,0,.6-.189c.2-.1.395-.182.578-.252a.918.918,0,0,1,.157-.063.573.573,0,0,1,.157-.021,2.116,2.116,0,0,1,.453-.2,2.26,2.26,0,0,1,.493-.116.834.834,0,0,0,.294-.252l.084-.126.042-.084.042-.105a.307.307,0,0,1,.105-.147.364.364,0,0,1,.063-.158.149.149,0,0,0,.021-.136l.084-.063a.047.047,0,0,1,.01-.032.038.038,0,0,0,.011-.031c.013-.028.039-.073.073-.137a.629.629,0,0,1,.074-.115.359.359,0,0,0,.063-.168.777.777,0,0,0,.105-.147.749.749,0,0,0,.084-.189,3.971,3.971,0,0,1-.42.283c-.112.064-.267.158-.462.284q-.231.169-.462.346a4.347,4.347,0,0,1-.483.326l-.042.042-.084.021a.576.576,0,0,1-.336.315c-.183.084-.274.175-.274.273-.168.14-.342.273-.524.4A2.878,2.878,0,0,0,3650.619,2036.317Zm.966-1.281a.059.059,0,0,1,.042-.021c-.015,0-.022-.007-.022-.021A.059.059,0,0,1,3651.585,2035.036Z"/><path class="cls-3" d="M3657.675,2039.068a1.327,1.327,0,0,1-.578-.116,1.948,1.948,0,0,1-.472-.325,1.124,1.124,0,0,1-.242-.5,2.509,2.509,0,0,1-.052-.462,2.716,2.716,0,0,1,.115-.8,7.707,7.707,0,0,1,.263-.735.265.265,0,0,1,.084-.148.463.463,0,0,1,.062-.167c.029-.042.056-.084.084-.126.113-.182.242-.385.389-.609a2.752,2.752,0,0,1,.5-.578.941.941,0,0,1,.619-.241.173.173,0,0,1,.053.011.209.209,0,0,0,.053.01h.126a.4.4,0,0,1,.252.084,1.251,1.251,0,0,1,.189.189.94.94,0,0,0,.23.042c-.154.084-.251.119-.293.105h-.105a.886.886,0,0,0-.609.325,4.6,4.6,0,0,0-.577.736c-.176.272-.3.486-.389.64a1.112,1.112,0,0,1-.106.168.306.306,0,0,0-.062.189.685.685,0,0,0-.148.305q-.082.261-.146.545a2.2,2.2,0,0,0-.064.431v.073a.347.347,0,0,0,.022.116l.1.189h-.062a.513.513,0,0,0,.5.336,1.2,1.2,0,0,0,.4-.073,2.131,2.131,0,0,0,.358-.159,2.6,2.6,0,0,0,.23-.135.773.773,0,0,1,.252-.116,1.131,1.131,0,0,1,.379-.315.632.632,0,0,1,.084-.105l.084-.084.084-.063a2.912,2.912,0,0,0,.462-.494q.252-.326.4-.535h.022l.252-.462a2.462,2.462,0,0,1,.137-.241c.048-.077.08-.13.093-.158a.784.784,0,0,1,.064-.284,1.1,1.1,0,0,1,.126-.241l-.022-.063a.058.058,0,0,0,.022-.042l.02-.084a.151.151,0,0,0,.022-.063.063.063,0,0,1,.02-.042l-.02-.063a.2.2,0,0,0,.052-.116.343.343,0,0,1,.052-.136v-.893a1.73,1.73,0,0,0-.02-.263.874.874,0,0,0-.19-.461.924.924,0,0,0-.672-.168,1.846,1.846,0,0,0-.986.284q-.463.282-.883.6a1.319,1.319,0,0,1-.294.189l-.23.231c-.084.084-.218.206-.4.367a5.486,5.486,0,0,0-.482.484.679.679,0,0,0-.21.388h-.126v-.315c.014-.042.059-.143.136-.3a1.236,1.236,0,0,1,.2-.325q0-.252.126-.315c.014-.042.031-.1.052-.157a.159.159,0,0,1,.116-.116,1.3,1.3,0,0,1,.294-.326c.14-.118.259-.227.356-.325l.084-.21.022.147a.359.359,0,0,1,.1-.105.53.53,0,0,1,.126-.063q.212-.126.5-.315a1.208,1.208,0,0,1,.526-.21l.021-.021a.55.55,0,0,1,.378-.042h.336v-.021a.283.283,0,0,0,.126.011.491.491,0,0,1,.126-.011,1.6,1.6,0,0,1,.556.105,2.963,2.963,0,0,1,.494.231,3.114,3.114,0,0,1,.661.546,1.155,1.155,0,0,1,.284.735v.084a1.062,1.062,0,0,1-.022.21c-.013.071-.028.147-.042.231a.565.565,0,0,0,0,.21H3662a.9.9,0,0,0-.105.357,2.8,2.8,0,0,1-.084.4,5.834,5.834,0,0,1-1.05,1.722v.021a8.575,8.575,0,0,1-.745.735,5.9,5.9,0,0,1-1.061.745A2.6,2.6,0,0,1,3657.675,2039.068Z"/><path class="cls-3" d="M3664.185,2039.068a1.335,1.335,0,0,1-.579-.116,1.943,1.943,0,0,1-.471-.325,1.124,1.124,0,0,1-.242-.5,2.424,2.424,0,0,1-.052-.462,2.716,2.716,0,0,1,.115-.8,7.707,7.707,0,0,1,.263-.735c.027-.084.055-.133.084-.148a.445.445,0,0,1,.062-.167c.029-.042.056-.084.084-.126.113-.182.241-.385.389-.609a2.7,2.7,0,0,1,.5-.578.939.939,0,0,1,.619-.241.173.173,0,0,1,.053.011.211.211,0,0,0,.052.01h.126a.4.4,0,0,1,.252.084,1.213,1.213,0,0,1,.19.189.929.929,0,0,0,.23.042q-.231.126-.294.105h-.1a.888.888,0,0,0-.61.325,4.659,4.659,0,0,0-.577.736c-.175.272-.3.486-.388.64a1.2,1.2,0,0,1-.106.168.306.306,0,0,0-.062.189.685.685,0,0,0-.148.305q-.082.261-.146.545a2.2,2.2,0,0,0-.064.431v.073a.347.347,0,0,0,.022.116l.1.189h-.062a.511.511,0,0,0,.5.336,1.2,1.2,0,0,0,.4-.073,2.082,2.082,0,0,0,.357-.159,2.585,2.585,0,0,0,.231-.135.773.773,0,0,1,.252-.116,1.131,1.131,0,0,1,.379-.315.585.585,0,0,1,.084-.105l.084-.084.084-.063a2.952,2.952,0,0,0,.462-.494c.168-.217.3-.395.4-.535h.022l.252-.462a2.455,2.455,0,0,1,.136-.241c.049-.077.08-.13.094-.158a.8.8,0,0,1,.063-.284,1.1,1.1,0,0,1,.126-.241l-.021-.063a.057.057,0,0,0,.021-.042l.021-.084a.146.146,0,0,0,.021-.063.061.061,0,0,1,.021-.042l-.021-.063a.206.206,0,0,0,.053-.116.343.343,0,0,1,.052-.136v-.893a1.61,1.61,0,0,0-.021-.263.865.865,0,0,0-.189-.461.925.925,0,0,0-.672-.168,1.843,1.843,0,0,0-.986.284q-.464.282-.883.6a1.342,1.342,0,0,1-.294.189l-.23.231c-.084.084-.218.206-.4.367a5.352,5.352,0,0,0-.482.484.679.679,0,0,0-.21.388h-.126v-.315a3.213,3.213,0,0,1,.136-.3,1.236,1.236,0,0,1,.2-.325q0-.252.126-.315c.013-.042.031-.1.051-.157a.161.161,0,0,1,.117-.116,1.279,1.279,0,0,1,.294-.326c.139-.118.258-.227.356-.325l.084-.21.022.147a.359.359,0,0,1,.1-.105.53.53,0,0,1,.126-.063q.212-.126.5-.315a1.209,1.209,0,0,1,.525-.21l.022-.021a.549.549,0,0,1,.378-.042h.336v-.021a.282.282,0,0,0,.126.011.491.491,0,0,1,.126-.011,1.6,1.6,0,0,1,.556.105,2.913,2.913,0,0,1,.493.231,3.1,3.1,0,0,1,.662.546,1.16,1.16,0,0,1,.284.735v.084a1.062,1.062,0,0,1-.022.21c-.013.071-.028.147-.042.231a.565.565,0,0,0,0,.21h-.062a.914.914,0,0,0-.106.357,2.541,2.541,0,0,1-.084.4,5.813,5.813,0,0,1-1.05,1.722v.021a8.3,8.3,0,0,1-.745.735,5.891,5.891,0,0,1-1.06.745A2.607,2.607,0,0,1,3664.185,2039.068Z"/><path class="cls-3" d="M3046.525,1984.743a.514.514,0,0,1-.5-.242,1.2,1.2,0,0,1-.125-.557,2.078,2.078,0,0,1,.042-.42c.028-.139.048-.258.063-.356.042-.154.084-.3.126-.452s.084-.283.126-.409a3.123,3.123,0,0,1,.126-.389,1.214,1.214,0,0,1,.168-.325v-.063a.277.277,0,0,1,.073-.189.307.307,0,0,0,.073-.21l.084-.126-.02-.042a2.811,2.811,0,0,0,.1-.263c.042-.119.071-.206.084-.262a1.784,1.784,0,0,1,.168-.42.793.793,0,0,1,.075-.21c.048-.112.1-.231.157-.357l.21-.462-.042.042a.477.477,0,0,0-.252.147.349.349,0,0,1-.232.126h-.02a.509.509,0,0,1-.084-.011c-.042-.007-.064-.024-.064-.052s.049-.07.148-.126a3.433,3.433,0,0,0,.325-.326,3.764,3.764,0,0,0,.241-.305,3.62,3.62,0,0,1,.442-.546l.21-.125h.063v-.021a1.76,1.76,0,0,1,.314.042,2.4,2.4,0,0,1,.4.115c.126.049.188.123.188.221a.669.669,0,0,1-.157.4c-.105.141-.192.267-.263.379-.1.182-.2.371-.3.567a3.3,3.3,0,0,1-.367.546h-.064a1.286,1.286,0,0,0-.073.189c-.021.07-.045.14-.073.21q-.274.462-.557.913a9.859,9.859,0,0,0-.515.935.273.273,0,0,0-.042.063c-.013.028-.028.056-.042.084a2.829,2.829,0,0,0-.062.336,1.868,1.868,0,0,0-.19.829,1.18,1.18,0,0,0-.1.473.642.642,0,0,0,.042.283.546.546,0,0,0,.062.1.21.21,0,0,0,.116.01.858.858,0,0,1,.116-.01l.042.021c.042.014.049.049.02.105v.126a.657.657,0,0,1-.146.021Z"/><path class="cls-3" d="M3051.313,1984.323a1.33,1.33,0,0,1-.578-.116,1.972,1.972,0,0,1-.471-.325,1.136,1.136,0,0,1-.243-.5,2.5,2.5,0,0,1-.051-.462,2.716,2.716,0,0,1,.115-.8,7.707,7.707,0,0,1,.263-.735c.027-.084.055-.133.084-.148a.458.458,0,0,1,.062-.168l.084-.126c.112-.181.241-.384.389-.608a2.7,2.7,0,0,1,.5-.578.939.939,0,0,1,.619-.241.209.209,0,0,1,.053.01.179.179,0,0,0,.052.011h.126a.391.391,0,0,1,.252.084,1.213,1.213,0,0,1,.19.189.929.929,0,0,0,.23.042q-.231.126-.294.105h-.1a.882.882,0,0,0-.61.325,4.659,4.659,0,0,0-.577.736c-.176.272-.3.486-.388.64a1.2,1.2,0,0,1-.106.168.306.306,0,0,0-.062.189.685.685,0,0,0-.148.3c-.056.175-.1.357-.146.546a2.2,2.2,0,0,0-.064.431v.073a.342.342,0,0,0,.022.115l.1.19h-.062a.511.511,0,0,0,.5.336,1.228,1.228,0,0,0,.4-.073,2.082,2.082,0,0,0,.357-.159,2.585,2.585,0,0,0,.231-.135.782.782,0,0,1,.252-.117,1.139,1.139,0,0,1,.379-.314.633.633,0,0,1,.084-.106l.084-.083.084-.063a2.952,2.952,0,0,0,.462-.494c.168-.217.3-.395.4-.535h.022l.251-.462a2.462,2.462,0,0,1,.137-.241c.049-.078.08-.13.094-.159a.776.776,0,0,1,.063-.283,1.1,1.1,0,0,1,.126-.241l-.021-.064a.053.053,0,0,0,.021-.041l.021-.084a.146.146,0,0,0,.021-.063.061.061,0,0,1,.021-.042l-.021-.063a.206.206,0,0,0,.053-.116.338.338,0,0,1,.052-.136v-.893a1.61,1.61,0,0,0-.021-.263.872.872,0,0,0-.189-.462.93.93,0,0,0-.672-.168,1.842,1.842,0,0,0-.986.285q-.463.282-.883.6a1.382,1.382,0,0,1-.294.189l-.231.231q-.126.126-.4.367a5.1,5.1,0,0,0-.482.484.68.68,0,0,0-.21.387h-.126v-.314a3.254,3.254,0,0,1,.135-.305,1.26,1.26,0,0,1,.2-.325q0-.252.126-.315c.013-.042.031-.1.051-.158a.162.162,0,0,1,.117-.115,1.279,1.279,0,0,1,.294-.326c.139-.118.258-.227.356-.325l.084-.21.021.146a.371.371,0,0,1,.105-.1.576.576,0,0,1,.126-.064c.141-.084.309-.188.5-.314a1.209,1.209,0,0,1,.525-.21l.022-.021a.549.549,0,0,1,.378-.042h.336v-.021a.282.282,0,0,0,.126.011.491.491,0,0,1,.126-.011,1.6,1.6,0,0,1,.556.105,2.913,2.913,0,0,1,.493.231,3.064,3.064,0,0,1,.661.546,1.156,1.156,0,0,1,.285.735v.084a1.062,1.062,0,0,1-.022.21q-.021.1-.042.231a.525.525,0,0,0,0,.21h-.062a.914.914,0,0,0-.106.357,2.523,2.523,0,0,1-.084.4,5.8,5.8,0,0,1-1.05,1.723v.021a8.3,8.3,0,0,1-.745.735,5.891,5.891,0,0,1-1.06.745A2.608,2.608,0,0,1,3051.313,1984.323Z"/><path class="cls-3" d="M3057.823,1984.323a1.33,1.33,0,0,1-.578-.116,2,2,0,0,1-.472-.325,1.124,1.124,0,0,1-.242-.5,2.509,2.509,0,0,1-.052-.462,2.716,2.716,0,0,1,.116-.8c.076-.252.164-.5.262-.735.028-.084.056-.133.084-.148a.476.476,0,0,1,.063-.168l.084-.126c.112-.181.241-.384.389-.608a2.72,2.72,0,0,1,.5-.578.943.943,0,0,1,.62-.241.2.2,0,0,1,.052.01.185.185,0,0,0,.053.011h.126a.391.391,0,0,1,.252.084,1.207,1.207,0,0,1,.189.189.953.953,0,0,0,.231.042q-.231.126-.294.105h-.105a.882.882,0,0,0-.609.325,4.659,4.659,0,0,0-.577.736c-.176.272-.305.486-.389.64a1.1,1.1,0,0,1-.105.168.307.307,0,0,0-.063.189.688.688,0,0,0-.147.3q-.084.262-.147.546a2.182,2.182,0,0,0-.063.431v.073a.365.365,0,0,0,.021.115l.105.19h-.063a.513.513,0,0,0,.5.336,1.233,1.233,0,0,0,.4-.073,2.118,2.118,0,0,0,.357-.159,2.585,2.585,0,0,0,.231-.135.782.782,0,0,1,.252-.117,1.146,1.146,0,0,1,.378-.314.754.754,0,0,1,.084-.106l.084-.083.084-.063a2.912,2.912,0,0,0,.462-.494q.252-.325.4-.535h.021l.252-.462a2.462,2.462,0,0,1,.137-.241c.049-.078.08-.13.094-.159a.776.776,0,0,1,.063-.283,1.1,1.1,0,0,1,.126-.241l-.021-.064a.057.057,0,0,0,.021-.041l.021-.084a.161.161,0,0,0,.021-.063.061.061,0,0,1,.021-.042l-.021-.063a.212.212,0,0,0,.053-.116.324.324,0,0,1,.052-.136v-.893a1.61,1.61,0,0,0-.021-.263.88.88,0,0,0-.189-.462.932.932,0,0,0-.672-.168,1.848,1.848,0,0,0-.987.285q-.462.282-.882.6a1.382,1.382,0,0,1-.294.189l-.231.231c-.084.084-.218.206-.4.367a5.242,5.242,0,0,0-.483.484.687.687,0,0,0-.21.387h-.126v-.314c.014-.042.059-.144.136-.305a1.263,1.263,0,0,1,.2-.325q0-.252.126-.315c.014-.042.032-.1.052-.158a.162.162,0,0,1,.116-.115,1.319,1.319,0,0,1,.294-.326c.14-.118.259-.227.357-.325l.084-.21.021.146a.371.371,0,0,1,.105-.1.576.576,0,0,1,.126-.064c.14-.084.308-.188.5-.314a1.209,1.209,0,0,1,.525-.21l.021-.021a.55.55,0,0,1,.378-.042h.336v-.021a.283.283,0,0,0,.126.011.5.5,0,0,1,.126-.011,1.6,1.6,0,0,1,.557.105,2.988,2.988,0,0,1,.493.231,3.089,3.089,0,0,1,.661.546,1.149,1.149,0,0,1,.284.735v.084a1.061,1.061,0,0,1-.021.21q-.021.1-.042.231a.525.525,0,0,0,0,.21h-.063a.9.9,0,0,0-.105.357,2.644,2.644,0,0,1-.084.4,5.8,5.8,0,0,1-1.05,1.723v.021a8.434,8.434,0,0,1-.745.735,5.864,5.864,0,0,1-1.061.745A2.6,2.6,0,0,1,3057.823,1984.323Z"/><path class="cls-3" d="M3205.594,1984.743c-.113,0-.207-.088-.284-.263a1.093,1.093,0,0,1-.116-.41q-.019-.145.232-.4t.63-.588c.252-.238.548-.49.892-.756s.69-.539,1.039-.819q.714-.588,1.386-1.134t1.135-1a2.2,2.2,0,0,0,.546-.7.386.386,0,0,0,.02-.148,1.207,1.207,0,0,0-.336-.084,3.49,3.49,0,0,0-.356-.02,2.16,2.16,0,0,0-.379.031c-.111.022-.224.046-.336.073a1.375,1.375,0,0,0-.3.084,2.11,2.11,0,0,1-.368.106l-.178.042-.2.042a1.409,1.409,0,0,0-.378.2.8.8,0,0,1-.4.158,1.847,1.847,0,0,0-.274.231h.148c0,.042-.068.115-.2.22s-.27.2-.41.294-.224.144-.251.158a.342.342,0,0,1-.21.063c-.084,0-.183-.084-.294-.252a1.477,1.477,0,0,1-.19-.336c.112-.07.221-.14.326-.21a2.939,2.939,0,0,1,.326-.189.057.057,0,0,1,.042-.021h.02a3.235,3.235,0,0,1,.347-.2,1.654,1.654,0,0,1,.368-.157,1.246,1.246,0,0,1,.356-.2,5.659,5.659,0,0,1,.577-.21c.2-.064.354-.109.453-.137l.188-.064h.064v-.02l.566-.084h.21l.042-.022a1.148,1.148,0,0,0,.253-.02c.181.028.385.066.608.115a1.516,1.516,0,0,1,.588.263.687.687,0,0,1,.252.588,1.059,1.059,0,0,1-.22.651,2.6,2.6,0,0,1-.494.5c-.07.056-.143.112-.22.168s-.151.112-.22.168a6.925,6.925,0,0,0-.641.451,6.931,6.931,0,0,1-.64.451q-.233.149-.462.3t-.462.326a1.762,1.762,0,0,1-.526.283.926.926,0,0,0-.462.3c-.042.028-.1.073-.178.136s-.164.13-.263.2a2.5,2.5,0,0,1-.22.157,1.108,1.108,0,0,0-.158.115.544.544,0,0,1-.21.221c-.112.077-.2.144-.272.2l-.042.022.062-.022c.126-.042.284-.1.473-.177a1.3,1.3,0,0,1,.451-.117,2.437,2.437,0,0,1,.242-.126,2.038,2.038,0,0,0,.515-.146l.1-.042a.119.119,0,0,0,.084-.042l.022-.021.168.021.21-.126.042.021a2.341,2.341,0,0,0,.3-.116c.148-.063.221-.122.221-.178l.148.021.168-.063v.021a.73.73,0,0,1,.23-.042l.126-.063h.084l.189-.042.021.021c.015,0,.021-.007.021-.021a.949.949,0,0,1,.546-.179c.252-.021.442-.031.568-.031a.878.878,0,0,1,.63.241.8.8,0,0,1,.272.515.3.3,0,0,1-.126.231h-.062a.4.4,0,0,0-.294-.315l-.462-.063a1.954,1.954,0,0,1-.515.115,4.966,4.966,0,0,1-.515.053.5.5,0,0,1-.336.063l-.125.063h-.022a3.324,3.324,0,0,0-.756.283,3.243,3.243,0,0,1-.756.283,5.572,5.572,0,0,0-.924.378q-.273.128-.525.253l-.42.21a.936.936,0,0,0-.252.157A.392.392,0,0,1,3205.594,1984.743Z"/><path class="cls-3" d="M3213.951,1984.323a1.33,1.33,0,0,1-.578-.116,2,2,0,0,1-.472-.325,1.124,1.124,0,0,1-.242-.5,2.509,2.509,0,0,1-.052-.462,2.716,2.716,0,0,1,.116-.8c.076-.252.164-.5.262-.735.028-.084.056-.133.084-.148a.476.476,0,0,1,.063-.168l.084-.126q.168-.272.388-.608a2.752,2.752,0,0,1,.5-.578.943.943,0,0,1,.62-.241.2.2,0,0,1,.052.01.185.185,0,0,0,.053.011h.126a.391.391,0,0,1,.252.084,1.207,1.207,0,0,1,.189.189.953.953,0,0,0,.231.042q-.231.126-.294.105h-.105a.882.882,0,0,0-.609.325,4.659,4.659,0,0,0-.577.736c-.176.272-.3.486-.389.64a1.1,1.1,0,0,1-.105.168.307.307,0,0,0-.063.189.677.677,0,0,0-.147.3q-.084.262-.147.546a2.182,2.182,0,0,0-.063.431v.073a.365.365,0,0,0,.021.115l.105.19h-.063a.513.513,0,0,0,.5.336,1.233,1.233,0,0,0,.4-.073,2.155,2.155,0,0,0,.357-.159,2.585,2.585,0,0,0,.231-.135.782.782,0,0,1,.252-.117,1.146,1.146,0,0,1,.378-.314.754.754,0,0,1,.084-.106l.084-.083.084-.063a2.912,2.912,0,0,0,.462-.494q.252-.325.4-.535h.021l.252-.462a2.462,2.462,0,0,1,.137-.241c.049-.078.08-.13.094-.159a.776.776,0,0,1,.063-.283,1.1,1.1,0,0,1,.126-.241l-.021-.064a.057.057,0,0,0,.021-.041l.021-.084a.161.161,0,0,0,.021-.063.061.061,0,0,1,.021-.042l-.021-.063a.212.212,0,0,0,.053-.116.324.324,0,0,1,.052-.136v-.893a1.61,1.61,0,0,0-.021-.263.88.88,0,0,0-.189-.462.932.932,0,0,0-.672-.168,1.848,1.848,0,0,0-.987.285q-.462.282-.882.6a1.382,1.382,0,0,1-.294.189l-.231.231c-.084.084-.218.206-.4.367a5.242,5.242,0,0,0-.483.484.687.687,0,0,0-.21.387h-.126v-.314c.014-.042.059-.144.136-.305a1.263,1.263,0,0,1,.2-.325q0-.252.126-.315c.014-.042.032-.1.052-.158a.162.162,0,0,1,.116-.115,1.319,1.319,0,0,1,.294-.326c.14-.118.259-.227.357-.325l.084-.21.021.146a.359.359,0,0,1,.105-.1.576.576,0,0,1,.126-.064c.14-.084.308-.188.5-.314a1.209,1.209,0,0,1,.525-.21l.021-.021a.55.55,0,0,1,.378-.042h.336v-.021a.283.283,0,0,0,.126.011.5.5,0,0,1,.126-.011,1.6,1.6,0,0,1,.557.105,2.988,2.988,0,0,1,.493.231,3.089,3.089,0,0,1,.661.546,1.149,1.149,0,0,1,.284.735v.084a1.061,1.061,0,0,1-.021.21q-.021.1-.042.231a.525.525,0,0,0,0,.21h-.063a.9.9,0,0,0-.105.357,2.644,2.644,0,0,1-.084.4,5.8,5.8,0,0,1-1.05,1.723v.021a8.575,8.575,0,0,1-.745.735,5.864,5.864,0,0,1-1.061.745A2.6,2.6,0,0,1,3213.951,1984.323Z"/><path class="cls-3" d="M3220.461,1984.323a1.327,1.327,0,0,1-.578-.116,1.976,1.976,0,0,1-.472-.325,1.124,1.124,0,0,1-.242-.5,2.509,2.509,0,0,1-.052-.462,2.716,2.716,0,0,1,.115-.8c.077-.252.164-.5.263-.735a.265.265,0,0,1,.084-.148.457.457,0,0,1,.063-.168c.028-.042.055-.084.084-.126q.168-.272.388-.608a2.752,2.752,0,0,1,.5-.578.943.943,0,0,1,.619-.241.2.2,0,0,1,.053.01.185.185,0,0,0,.053.011h.126a.4.4,0,0,1,.252.084,1.207,1.207,0,0,1,.189.189.953.953,0,0,0,.231.042c-.155.084-.252.119-.294.105h-.105a.882.882,0,0,0-.609.325,4.6,4.6,0,0,0-.577.736c-.176.272-.3.486-.389.64a1.1,1.1,0,0,1-.105.168.307.307,0,0,0-.063.189.677.677,0,0,0-.147.3q-.084.262-.147.546a2.182,2.182,0,0,0-.063.431v.073a.339.339,0,0,0,.021.115l.105.19h-.063a.513.513,0,0,0,.5.336,1.223,1.223,0,0,0,.4-.073,2.131,2.131,0,0,0,.358-.159,2.46,2.46,0,0,0,.23-.135.8.8,0,0,1,.252-.117,1.159,1.159,0,0,1,.379-.314.754.754,0,0,1,.084-.106l.084-.083.084-.063a2.912,2.912,0,0,0,.462-.494q.252-.325.4-.535h.022l.252-.462a2.462,2.462,0,0,1,.137-.241c.048-.078.08-.13.093-.159a.779.779,0,0,1,.064-.283,1.1,1.1,0,0,1,.126-.241l-.022-.064a.055.055,0,0,0,.022-.041l.02-.084a.151.151,0,0,0,.022-.063.063.063,0,0,1,.02-.042l-.02-.063a.212.212,0,0,0,.053-.116.322.322,0,0,1,.051-.136v-.893a1.73,1.73,0,0,0-.02-.263.881.881,0,0,0-.19-.462.928.928,0,0,0-.672-.168,1.847,1.847,0,0,0-.986.285q-.462.282-.883.6a1.358,1.358,0,0,1-.294.189l-.23.231c-.084.084-.218.206-.4.367a5.242,5.242,0,0,0-.483.484.68.68,0,0,0-.21.387h-.126v-.314c.014-.042.059-.144.136-.305a1.236,1.236,0,0,1,.2-.325q0-.252.126-.315l.052-.158a.159.159,0,0,1,.116-.115,1.3,1.3,0,0,1,.294-.326c.14-.118.259-.227.356-.325l.084-.21.022.146a.355.355,0,0,1,.1-.1.576.576,0,0,1,.126-.064c.141-.084.309-.188.5-.314a1.212,1.212,0,0,1,.526-.21l.021-.021a.55.55,0,0,1,.378-.042h.336v-.021a.283.283,0,0,0,.126.011.491.491,0,0,1,.126-.011,1.6,1.6,0,0,1,.557.105,2.988,2.988,0,0,1,.493.231,3.114,3.114,0,0,1,.661.546,1.155,1.155,0,0,1,.284.735v.084a1.141,1.141,0,0,1-.021.21c-.014.07-.029.147-.042.231a.525.525,0,0,0,0,.21h-.063a.9.9,0,0,0-.105.357,2.778,2.778,0,0,1-.084.4,5.826,5.826,0,0,1-1.05,1.723v.021a8.575,8.575,0,0,1-.745.735,5.9,5.9,0,0,1-1.061.745A2.6,2.6,0,0,1,3220.461,1984.323Z"/><path class="cls-3" d="M3364.164,1986.065a1.07,1.07,0,0,1-.367-.084.383.383,0,0,1-.263-.23.206.206,0,0,1-.105-.189q0-.21.126-.252v-.021h.126v.147a.492.492,0,0,0,.042.2.185.185,0,0,0,.189.093.593.593,0,0,0,.2-.031c.064-.02.123-.039.179-.052h.021l.021.021v-.021h.021q.252-.106.514-.22a3.68,3.68,0,0,0,.494-.263l.546-.378c.112-.07.228-.144.347-.221a.872.872,0,0,1,.283-.136.511.511,0,0,1,.221-.241,2.325,2.325,0,0,0,.283-.2l.609-.555a4.31,4.31,0,0,0,.63-.715,1.33,1.33,0,0,0,.273-.766q0-.714-.8-.715a2.882,2.882,0,0,0-1.1.263q-.619.264-1.06.473a.44.44,0,0,0-.189.157.27.27,0,0,1-.231.116.39.39,0,0,1-.357-.252h-.021a1.086,1.086,0,0,0-.031-.252.99.99,0,0,1-.032-.252,3.445,3.445,0,0,1,.536-.315q.3-.147.64-.294.315-.147.651-.294a4.939,4.939,0,0,0,.609-.315l.021.021a.456.456,0,0,1,.315-.168l.021-.042a6.972,6.972,0,0,0,.682-.515.863.863,0,0,0,.389-.6c0-.2-.116-.308-.347-.336a4.831,4.831,0,0,0-.556-.042,4.431,4.431,0,0,0-.924.115,2.732,2.732,0,0,0-.861.326q-.336.21-.189.483a.533.533,0,0,1,.063.21h-.126a1.185,1.185,0,0,1-.368-.546,2.553,2.553,0,0,1-.178-.61l.063-.062q.063-.042.063,0h.021a.062.062,0,0,1,.042-.022.059.059,0,0,0,.042-.02.067.067,0,0,0,.063-.042h.084l.105-.042h.042v-.022l.126-.042h.042a.879.879,0,0,1,.357-.115,1.158,1.158,0,0,0,.336-.073.185.185,0,0,1,.084-.022h.021a1.667,1.667,0,0,0,.273-.02,1.659,1.659,0,0,1,.273-.022l.21-.042.021.022a1.026,1.026,0,0,1,.2-.022h.179a2.529,2.529,0,0,1,.431.064,3.123,3.123,0,0,1,.409.1,1.365,1.365,0,0,1,.514.327.748.748,0,0,1,.221.556.985.985,0,0,1-.315.714,3.06,3.06,0,0,1-.725.535c-.272.148-.507.27-.7.367l-.189.106h.042a2.288,2.288,0,0,1,.357.031c.126.022.252.046.378.073a.234.234,0,0,1,.126.075.178.178,0,0,0,.147.051l.105.084a2.252,2.252,0,0,1,.42.484,1.282,1.282,0,0,1,.252.567,1.169,1.169,0,0,0,.032.252.447.447,0,0,1-.011.252,1.765,1.765,0,0,1-.357.767,4.587,4.587,0,0,1-.661.7c-.246.21-.466.391-.662.546a10.3,10.3,0,0,1-1.564.934A4.113,4.113,0,0,1,3364.164,1986.065Z"/><path class="cls-3" d="M3371.808,1984.323a1.335,1.335,0,0,1-.579-.116,1.972,1.972,0,0,1-.471-.325,1.124,1.124,0,0,1-.242-.5,2.424,2.424,0,0,1-.052-.462,2.716,2.716,0,0,1,.115-.8,7.707,7.707,0,0,1,.263-.735c.027-.084.055-.133.084-.148a.458.458,0,0,1,.062-.168c.029-.042.056-.084.084-.126.113-.181.241-.384.389-.608a2.7,2.7,0,0,1,.5-.578.939.939,0,0,1,.619-.241.2.2,0,0,1,.053.01.179.179,0,0,0,.052.011h.126a.391.391,0,0,1,.252.084,1.213,1.213,0,0,1,.19.189.929.929,0,0,0,.23.042q-.231.126-.294.105h-.1a.884.884,0,0,0-.61.325,4.718,4.718,0,0,0-.577.736c-.175.272-.3.486-.388.64a1.2,1.2,0,0,1-.106.168.306.306,0,0,0-.062.189.685.685,0,0,0-.148.3q-.082.262-.146.546a2.2,2.2,0,0,0-.064.431v.073a.342.342,0,0,0,.022.115l.1.19h-.062a.511.511,0,0,0,.5.336,1.228,1.228,0,0,0,.4-.073,2.131,2.131,0,0,0,.358-.159c.055-.027.132-.073.23-.135a.8.8,0,0,1,.252-.117,1.139,1.139,0,0,1,.379-.314.688.688,0,0,1,.084-.106l.084-.083.084-.063a2.952,2.952,0,0,0,.462-.494q.252-.325.4-.535h.022l.252-.462a2.678,2.678,0,0,1,.136-.241c.049-.078.08-.13.094-.159a.779.779,0,0,1,.064-.283,1.1,1.1,0,0,1,.126-.241l-.022-.064a.055.055,0,0,0,.022-.041l.02-.084a.151.151,0,0,0,.022-.063.059.059,0,0,1,.02-.042l-.02-.063a.212.212,0,0,0,.052-.116.338.338,0,0,1,.052-.136v-.893a1.61,1.61,0,0,0-.021-.263.872.872,0,0,0-.189-.462.93.93,0,0,0-.672-.168,1.844,1.844,0,0,0-.986.285q-.464.282-.883.6a1.382,1.382,0,0,1-.294.189l-.23.231c-.084.084-.218.206-.4.367a5.226,5.226,0,0,0-.482.484.68.68,0,0,0-.21.387h-.126v-.314c.014-.042.058-.144.136-.305a1.236,1.236,0,0,1,.2-.325q0-.252.126-.315c.013-.042.031-.1.052-.158a.159.159,0,0,1,.116-.115,1.279,1.279,0,0,1,.294-.326c.139-.118.258-.227.356-.325l.084-.21.022.146a.355.355,0,0,1,.1-.1.576.576,0,0,1,.126-.064c.141-.084.309-.188.5-.314a1.209,1.209,0,0,1,.525-.21l.022-.021a.549.549,0,0,1,.378-.042h.336v-.021a.282.282,0,0,0,.126.011.491.491,0,0,1,.126-.011,1.6,1.6,0,0,1,.556.105,2.913,2.913,0,0,1,.493.231,3.1,3.1,0,0,1,.662.546,1.16,1.16,0,0,1,.284.735v.084a1.062,1.062,0,0,1-.022.21c-.013.07-.028.147-.042.231a.565.565,0,0,0,0,.21h-.062a.914.914,0,0,0-.106.357,2.523,2.523,0,0,1-.084.4,5.822,5.822,0,0,1-1.049,1.723v.021a8.464,8.464,0,0,1-.746.735,5.891,5.891,0,0,1-1.06.745A2.6,2.6,0,0,1,3371.808,1984.323Z"/><path class="cls-3" d="M3378.317,1984.323a1.33,1.33,0,0,1-.578-.116,1.972,1.972,0,0,1-.471-.325,1.136,1.136,0,0,1-.243-.5,2.5,2.5,0,0,1-.051-.462,2.716,2.716,0,0,1,.115-.8,7.707,7.707,0,0,1,.263-.735c.027-.084.055-.133.084-.148a.458.458,0,0,1,.062-.168l.084-.126c.112-.181.241-.384.389-.608a2.7,2.7,0,0,1,.5-.578.939.939,0,0,1,.619-.241.2.2,0,0,1,.052.01.191.191,0,0,0,.053.011h.126a.391.391,0,0,1,.252.084,1.257,1.257,0,0,1,.19.189.929.929,0,0,0,.23.042q-.231.126-.294.105h-.1a.882.882,0,0,0-.61.325,4.659,4.659,0,0,0-.577.736c-.176.272-.3.486-.389.64a1.1,1.1,0,0,1-.105.168.307.307,0,0,0-.063.189.688.688,0,0,0-.147.3c-.056.175-.1.357-.146.546a2.2,2.2,0,0,0-.064.431v.073a.342.342,0,0,0,.022.115l.1.19h-.062a.511.511,0,0,0,.5.336,1.233,1.233,0,0,0,.4-.073,2.082,2.082,0,0,0,.357-.159,2.585,2.585,0,0,0,.231-.135.782.782,0,0,1,.252-.117,1.139,1.139,0,0,1,.379-.314.633.633,0,0,1,.084-.106l.084-.083.084-.063a2.911,2.911,0,0,0,.461-.494q.252-.325.4-.535h.021l.252-.462a2.462,2.462,0,0,1,.137-.241c.049-.078.08-.13.094-.159a.776.776,0,0,1,.063-.283,1.1,1.1,0,0,1,.126-.241l-.021-.064a.057.057,0,0,0,.021-.041l.021-.084a.161.161,0,0,0,.021-.063.061.061,0,0,1,.021-.042l-.021-.063a.206.206,0,0,0,.053-.116.324.324,0,0,1,.052-.136v-.893a1.61,1.61,0,0,0-.021-.263.88.88,0,0,0-.189-.462.93.93,0,0,0-.672-.168,1.842,1.842,0,0,0-.986.285q-.463.282-.883.6a1.382,1.382,0,0,1-.294.189l-.231.231q-.126.126-.4.367a5.1,5.1,0,0,0-.482.484.68.68,0,0,0-.21.387h-.126v-.314a3.254,3.254,0,0,1,.135-.305,1.232,1.232,0,0,1,.2-.325q0-.252.126-.315c.013-.042.031-.1.051-.158a.162.162,0,0,1,.116-.115,1.319,1.319,0,0,1,.294-.326c.14-.118.259-.227.357-.325l.084-.21.021.146a.371.371,0,0,1,.105-.1.576.576,0,0,1,.126-.064c.14-.084.308-.188.5-.314a1.209,1.209,0,0,1,.525-.21l.022-.021a.549.549,0,0,1,.378-.042h.335v-.021a.283.283,0,0,0,.126.011.5.5,0,0,1,.126-.011,1.6,1.6,0,0,1,.557.105,2.913,2.913,0,0,1,.493.231,3.064,3.064,0,0,1,.661.546,1.156,1.156,0,0,1,.285.735v.084a1.062,1.062,0,0,1-.022.21q-.021.1-.042.231a.525.525,0,0,0,0,.21h-.062a.9.9,0,0,0-.106.357,2.644,2.644,0,0,1-.084.4,5.8,5.8,0,0,1-1.05,1.723v.021a8.3,8.3,0,0,1-.745.735,5.891,5.891,0,0,1-1.06.745A2.608,2.608,0,0,1,3378.317,1984.323Z"/><path class="cls-3" d="M3527.9,1984.281a.444.444,0,0,1-.232-.063.676.676,0,0,1-.389-.378,1.568,1.568,0,0,1-.115-.61,2.883,2.883,0,0,1,.053-.545c.035-.182.066-.336.1-.462l-.022-.021.209-.588.127-.463a1,1,0,0,0-.367.117,3.083,3.083,0,0,1-.348.157,1.246,1.246,0,0,1-.262.1,1.131,1.131,0,0,0-.263.094,1.472,1.472,0,0,0-.272.157.528.528,0,0,1-.273.116,1.475,1.475,0,0,0-.211.073,1.241,1.241,0,0,0-.272.137c-.056.042-.105.077-.148.105a.3.3,0,0,1-.168.042.629.629,0,0,1-.43-.221.617.617,0,0,1-.22-.409.547.547,0,0,1,.177-.388c.119-.12.229-.221.326-.305l.022.02-.022-.02h.022v-.022l.062-.02a.123.123,0,0,1,.084-.042h.063a1.346,1.346,0,0,1,.389-.358,1.948,1.948,0,0,1,.41-.251h.021c-.015,0-.021-.007-.021-.021a.927.927,0,0,1,.377-.294v.021a.992.992,0,0,1,.336-.305q.3-.2.4-.283l.02-.042.043.021a1.951,1.951,0,0,1,.242-.242.613.613,0,0,1,.261-.157v-.042a.627.627,0,0,1,.147-.106,1.115,1.115,0,0,0,.148-.084l.346-.261c.119-.091.227-.179.326-.263a1.014,1.014,0,0,0,.147-.137.282.282,0,0,1,.146-.095h.043a.18.18,0,0,1,.156.075.162.162,0,0,0,.137.073.074.074,0,0,0,.084-.084,1.116,1.116,0,0,1,.158-.283c.09-.134.19-.27.293-.41a3.463,3.463,0,0,1,.221-.273,2.3,2.3,0,0,1,.494.147q.325.126.346.294a.185.185,0,0,1-.02.084c-.056.07-.117.14-.179.21a1.614,1.614,0,0,1-.2.189,1.431,1.431,0,0,0-.209.21c-.07.084-.14.161-.21.23s-.182.243-.379.515-.391.557-.588.851a7.173,7.173,0,0,0-.4.651,1.074,1.074,0,0,0,.336-.063l.043.084v-.105a1.7,1.7,0,0,0,.324-.031,1.493,1.493,0,0,1,.305-.032c.225,0,.336.056.336.168,0,.083-.09.133-.273.147l-.147.02c-.027,0-.035.015-.021.042l.021.064h-.273a1.274,1.274,0,0,0-.231.02.3.3,0,0,1-.146.1.585.585,0,0,1-.106.011.346.346,0,0,0-.189.042.479.479,0,0,1-.188.062,4.558,4.558,0,0,0-.285.484,2.3,2.3,0,0,0-.178.525v.063a.829.829,0,0,1-.052.241,2.144,2.144,0,0,1-.094.242,3.929,3.929,0,0,0-.115.409,1.471,1.471,0,0,0-.032.473,1.854,1.854,0,0,1,.032.294.594.594,0,0,0,.052.272.428.428,0,0,0,.178.084c.09.029.137.077.137.148a.087.087,0,0,1-.053.073A.179.179,0,0,1,3527.9,1984.281Zm-2.92-2.709a2.069,2.069,0,0,0,.6-.189c.2-.1.4-.182.578-.252a1.115,1.115,0,0,1,.158-.064.614.614,0,0,1,.157-.02,2.116,2.116,0,0,1,.453-.2,2.321,2.321,0,0,1,.492-.117.808.808,0,0,0,.295-.252l.084-.125.041-.084.043-.105a.3.3,0,0,1,.105-.147.364.364,0,0,1,.063-.158.152.152,0,0,0,.021-.136l.084-.063a.041.041,0,0,1,.01-.032.038.038,0,0,0,.01-.031c.014-.028.039-.074.074-.137a.593.593,0,0,1,.074-.115.371.371,0,0,0,.063-.168.926.926,0,0,0,.105-.147.8.8,0,0,0,.084-.189,3.871,3.871,0,0,1-.42.283q-.169.095-.463.284c-.154.112-.308.228-.46.346a4.617,4.617,0,0,1-.485.326l-.041.042-.084.021a.579.579,0,0,1-.336.315c-.183.084-.273.175-.273.272-.168.141-.344.274-.526.4A3.03,3.03,0,0,0,3524.98,1981.572Zm.967-1.281a.06.06,0,0,1,.041-.021.019.019,0,0,1-.021-.021A.059.059,0,0,1,3525.947,1980.291Z"/><path class="cls-3" d="M3532.037,1984.323a1.327,1.327,0,0,1-.578-.116,2,2,0,0,1-.473-.325,1.134,1.134,0,0,1-.242-.5,2.5,2.5,0,0,1-.051-.462,2.652,2.652,0,0,1,.116-.8c.076-.252.164-.5.261-.735a.277.277,0,0,1,.084-.148.476.476,0,0,1,.063-.168c.029-.042.056-.084.084-.126q.17-.272.388-.608a2.81,2.81,0,0,1,.5-.578.945.945,0,0,1,.62-.241.182.182,0,0,1,.052.01.185.185,0,0,0,.053.011h.127a.391.391,0,0,1,.252.084,1.207,1.207,0,0,1,.189.189.941.941,0,0,0,.231.042c-.154.084-.252.119-.3.105h-.1a.878.878,0,0,0-.609.325,4.664,4.664,0,0,0-.578.736c-.176.272-.3.486-.389.64a.966.966,0,0,1-.105.168.314.314,0,0,0-.063.189.679.679,0,0,0-.146.3,5.586,5.586,0,0,0-.147.546,2.125,2.125,0,0,0-.064.431v.073a.4.4,0,0,0,.021.115l.106.19h-.063a.513.513,0,0,0,.5.336,1.243,1.243,0,0,0,.4-.073,2.232,2.232,0,0,0,.357-.159,2.6,2.6,0,0,0,.23-.135.782.782,0,0,1,.252-.117,1.149,1.149,0,0,1,.379-.314.688.688,0,0,1,.084-.106l.084-.083.084-.063a2.952,2.952,0,0,0,.461-.494q.252-.325.4-.535h.021l.252-.462c.043-.084.088-.164.137-.241s.08-.13.094-.159a.759.759,0,0,1,.064-.283,1.1,1.1,0,0,1,.125-.241l-.021-.064a.053.053,0,0,0,.021-.041l.022-.084a.18.18,0,0,0,.021-.063.059.059,0,0,1,.02-.042l-.02-.063a.212.212,0,0,0,.053-.116.309.309,0,0,1,.051-.136v-.893a1.611,1.611,0,0,0-.02-.263.9.9,0,0,0-.189-.462.932.932,0,0,0-.672-.168,1.845,1.845,0,0,0-.987.285c-.308.188-.6.387-.882.6a1.408,1.408,0,0,1-.295.189l-.231.231q-.126.126-.4.367a5.12,5.12,0,0,0-.483.484.69.69,0,0,0-.211.387h-.125v-.314c.014-.042.059-.144.135-.305a1.288,1.288,0,0,1,.2-.325c0-.168.041-.273.125-.315l.053-.158a.159.159,0,0,1,.115-.115,1.347,1.347,0,0,1,.3-.326c.139-.118.258-.227.356-.325l.084-.21.021.146a.351.351,0,0,1,.106-.1.57.57,0,0,1,.125-.064c.14-.084.308-.188.5-.314a1.222,1.222,0,0,1,.526-.21l.021-.021a.553.553,0,0,1,.379-.042h.336v-.021a.279.279,0,0,0,.125.011.51.51,0,0,1,.127-.011,1.6,1.6,0,0,1,.557.105,2.976,2.976,0,0,1,.492.231,3.121,3.121,0,0,1,.662.546,1.149,1.149,0,0,1,.283.735v.084a1.141,1.141,0,0,1-.021.21c-.014.07-.028.147-.041.231a.525.525,0,0,0,0,.21h-.063a.868.868,0,0,0-.105.357,2.926,2.926,0,0,1-.084.4,5.788,5.788,0,0,1-1.051,1.723v.021a8.4,8.4,0,0,1-.744.735,5.935,5.935,0,0,1-1.061.745A2.6,2.6,0,0,1,3532.037,1984.323Z"/><path class="cls-3" d="M3538.547,1984.323a1.324,1.324,0,0,1-.578-.116,1.981,1.981,0,0,1-.473-.325,1.134,1.134,0,0,1-.242-.5,2.5,2.5,0,0,1-.051-.462,2.683,2.683,0,0,1,.115-.8q.115-.378.262-.735a.271.271,0,0,1,.084-.148.476.476,0,0,1,.063-.168c.029-.042.056-.084.084-.126q.169-.272.388-.608a2.81,2.81,0,0,1,.5-.578.944.944,0,0,1,.619-.241.188.188,0,0,1,.053.01.178.178,0,0,0,.053.011h.127a.4.4,0,0,1,.252.084,1.251,1.251,0,0,1,.189.189.93.93,0,0,0,.231.042c-.155.084-.252.119-.3.105h-.1a.878.878,0,0,0-.609.325,4.606,4.606,0,0,0-.578.736c-.176.272-.305.486-.389.64a.974.974,0,0,1-.106.168.313.313,0,0,0-.062.189.679.679,0,0,0-.146.3,5.586,5.586,0,0,0-.147.546,2.125,2.125,0,0,0-.064.431v.073a.365.365,0,0,0,.021.115l.106.19h-.063a.513.513,0,0,0,.5.336,1.232,1.232,0,0,0,.4-.073,2.206,2.206,0,0,0,.358-.159c.054-.027.133-.073.23-.135a.782.782,0,0,1,.252-.117,1.139,1.139,0,0,1,.379-.314.633.633,0,0,1,.084-.106l.084-.083.084-.063a2.952,2.952,0,0,0,.461-.494q.252-.325.4-.535h.022l.252-.462c.043-.084.088-.164.137-.241s.08-.13.093-.159a.762.762,0,0,1,.065-.283,1.1,1.1,0,0,1,.125-.241l-.022-.064a.052.052,0,0,0,.022-.041l.021-.084a.167.167,0,0,0,.022-.063.062.062,0,0,1,.019-.042l-.019-.063a.212.212,0,0,0,.053-.116.308.308,0,0,1,.05-.136v-.893a1.732,1.732,0,0,0-.019-.263.9.9,0,0,0-.19-.462.928.928,0,0,0-.672-.168,1.844,1.844,0,0,0-.986.285q-.462.282-.883.6a1.383,1.383,0,0,1-.295.189l-.23.231q-.126.126-.4.367a5.226,5.226,0,0,0-.482.484.683.683,0,0,0-.211.387h-.125v-.314c.014-.042.059-.144.135-.305a1.26,1.26,0,0,1,.2-.325c0-.168.041-.273.125-.315.014-.042.031-.1.053-.158a.158.158,0,0,1,.115-.115,1.326,1.326,0,0,1,.3-.326c.139-.118.258-.227.355-.325l.084-.21.022.146a.347.347,0,0,1,.105-.1.57.57,0,0,1,.125-.064c.141-.084.309-.188.5-.314a1.217,1.217,0,0,1,.526-.21l.021-.021a.553.553,0,0,1,.379-.042h.336v-.021a.279.279,0,0,0,.125.011.5.5,0,0,1,.127-.011,1.6,1.6,0,0,1,.557.105,2.976,2.976,0,0,1,.492.231,3.146,3.146,0,0,1,.662.546,1.154,1.154,0,0,1,.283.735v.084a1.141,1.141,0,0,1-.021.21c-.014.07-.028.147-.041.231a.525.525,0,0,0,0,.21h-.063a.868.868,0,0,0-.105.357,3.09,3.09,0,0,1-.084.4,5.808,5.808,0,0,1-1.051,1.723v.021a8.4,8.4,0,0,1-.744.735,5.971,5.971,0,0,1-1.061.745A2.6,2.6,0,0,1,3538.547,1984.323Z"/><path class="cls-3" d="M3683.084,1985.121a1.546,1.546,0,0,1-.483-.116c-.21-.077-.322-.186-.336-.325q0-.126.084-.126h.063l.084.105a.441.441,0,0,0,.315.147l.063-.042a.248.248,0,0,0,.105.021h.189l.336-.105.02-.042h.085q.042-.021.063,0-.021,0,.168-.105h.063a3.759,3.759,0,0,1,.462-.252,2.688,2.688,0,0,0,.441-.253,6.829,6.829,0,0,0,1.071-.84,6.4,6.4,0,0,0,1.008-1.186,2.2,2.2,0,0,0,.42-1.187.459.459,0,0,0-.116-.367.627.627,0,0,0-.388-.094,2.247,2.247,0,0,0-.609.125,5.167,5.167,0,0,0-.756.305,1.536,1.536,0,0,0-.462.3c-.056.056-.164.154-.326.294a.7.7,0,0,1-.409.21.579.579,0,0,1-.231-.105.829.829,0,0,1-.263-.253.173.173,0,0,1,.032-.252.05.05,0,0,0-.01-.031.038.038,0,0,1-.011-.031.425.425,0,0,1,.053-.19.664.664,0,0,1,.073-.126l-.042-.042.105-.062a1.145,1.145,0,0,1,.168-.41c.112-.2.248-.437.409-.7s.312-.507.452-.725.238-.367.294-.451c.028-.07.084-.186.168-.347s.174-.227.273-.2l.314.063a.582.582,0,0,0,.4.209,3.083,3.083,0,0,0,.483.042.249.249,0,0,1,.105-.02c.181,0,.353-.007.514-.022a1.8,1.8,0,0,0,.473-.1.365.365,0,0,1,.115-.021.6.6,0,0,0,.137-.021,1.083,1.083,0,0,1,.241-.063,1.615,1.615,0,0,1,.241-.021.229.229,0,0,1,.127-.042h.126l.126-.063a.764.764,0,0,0,.126-.01.97.97,0,0,0,.126-.032l.084.126a1.152,1.152,0,0,1-.147.063.815.815,0,0,0-.105.042l-.105.042a.18.18,0,0,0-.126.062.767.767,0,0,1-.095.075.221.221,0,0,1-.115.051h-.148a.305.305,0,0,1-.188.064.2.2,0,0,0-.147.042v.02a.5.5,0,0,1-.336.106c-.014.042-.063.077-.147.1a1.513,1.513,0,0,1-.546.126c-.266.029-.434.042-.5.042a.412.412,0,0,0-.136.042,1.053,1.053,0,0,1-.179.064.474.474,0,0,1-.2,0,.324.324,0,0,0-.2.02,1.46,1.46,0,0,0-.219.253c-.119.154-.26.339-.42.556s-.309.424-.442.62a4.568,4.568,0,0,0-.283.462h.021a.126.126,0,0,0,.084-.084.312.312,0,0,0,.094-.011.568.568,0,0,0,.074-.031l.042-.021v-.042a.985.985,0,0,0,.284-.074.947.947,0,0,1,.262-.073.163.163,0,0,1,.116-.074.763.763,0,0,0,.135-.031.344.344,0,0,1,.137-.053,1.5,1.5,0,0,0,.157-.031l.042-.021.022.021a.834.834,0,0,1,.378-.084,2.1,2.1,0,0,1,1.47.662,1,1,0,0,1,.273.681,1.137,1.137,0,0,1-.2.652c-.134.2-.256.392-.368.588l-.042.063h-.126l-.042.021c-.014.1-.053.15-.116.157a.165.165,0,0,0-.136.116.937.937,0,0,1-.011.126.21.21,0,0,1-.052.126.377.377,0,0,0-.168.1,1.654,1.654,0,0,1-.6.442q-.453.231-.683.378a.622.622,0,0,1-.2.1.386.386,0,0,0-.179.094c-.07.056-.179.133-.325.231a1.339,1.339,0,0,1-.389.189,2.178,2.178,0,0,1-.724.315A3.209,3.209,0,0,1,3683.084,1985.121Z"/><path class="cls-3" d="M3690.056,1984.323a1.327,1.327,0,0,1-.578-.116,1.957,1.957,0,0,1-.472-.325,1.124,1.124,0,0,1-.242-.5,2.509,2.509,0,0,1-.052-.462,2.716,2.716,0,0,1,.115-.8,7.707,7.707,0,0,1,.263-.735.265.265,0,0,1,.084-.148.476.476,0,0,1,.062-.168c.029-.042.056-.084.084-.126.113-.181.242-.384.389-.608a2.7,2.7,0,0,1,.5-.578.939.939,0,0,1,.619-.241.2.2,0,0,1,.053.01.178.178,0,0,0,.053.011h.125a.391.391,0,0,1,.252.084,1.213,1.213,0,0,1,.19.189.929.929,0,0,0,.23.042q-.231.126-.294.105h-.1a.882.882,0,0,0-.609.325,4.664,4.664,0,0,0-.578.736c-.175.272-.3.486-.388.64a1.2,1.2,0,0,1-.106.168.306.306,0,0,0-.062.189.685.685,0,0,0-.148.3q-.082.262-.146.546a2.2,2.2,0,0,0-.064.431v.073a.342.342,0,0,0,.022.115l.1.19h-.062a.511.511,0,0,0,.5.336,1.223,1.223,0,0,0,.4-.073,2.131,2.131,0,0,0,.358-.159c.055-.027.132-.073.23-.135a.8.8,0,0,1,.252-.117,1.139,1.139,0,0,1,.379-.314.688.688,0,0,1,.084-.106l.084-.083.084-.063a2.912,2.912,0,0,0,.462-.494q.252-.325.4-.535h.022l.252-.462a2.678,2.678,0,0,1,.136-.241c.049-.078.08-.13.094-.159a.779.779,0,0,1,.064-.283,1.1,1.1,0,0,1,.126-.241l-.022-.064a.055.055,0,0,0,.022-.041l.02-.084a.151.151,0,0,0,.022-.063.059.059,0,0,1,.02-.042l-.02-.063a.212.212,0,0,0,.052-.116.338.338,0,0,1,.052-.136v-.893a1.73,1.73,0,0,0-.02-.263.881.881,0,0,0-.19-.462.93.93,0,0,0-.672-.168,1.847,1.847,0,0,0-.986.285q-.464.282-.883.6a1.382,1.382,0,0,1-.294.189l-.23.231c-.084.084-.218.206-.4.367a5.226,5.226,0,0,0-.482.484.68.68,0,0,0-.21.387h-.126v-.314c.014-.042.058-.144.136-.305a1.236,1.236,0,0,1,.2-.325q0-.252.126-.315c.013-.042.031-.1.052-.158a.159.159,0,0,1,.116-.115,1.279,1.279,0,0,1,.294-.326c.139-.118.259-.227.356-.325l.084-.21.022.146a.355.355,0,0,1,.1-.1.576.576,0,0,1,.126-.064c.141-.084.309-.188.5-.314a1.209,1.209,0,0,1,.525-.21l.022-.021a.55.55,0,0,1,.378-.042h.336v-.021a.282.282,0,0,0,.126.011.491.491,0,0,1,.126-.011,1.6,1.6,0,0,1,.556.105,2.963,2.963,0,0,1,.494.231,3.114,3.114,0,0,1,.661.546,1.16,1.16,0,0,1,.284.735v.084a1.062,1.062,0,0,1-.022.21c-.013.07-.028.147-.042.231a.565.565,0,0,0,0,.21h-.062a.914.914,0,0,0-.106.357,2.523,2.523,0,0,1-.084.4,5.822,5.822,0,0,1-1.049,1.723v.021a8.464,8.464,0,0,1-.746.735,5.856,5.856,0,0,1-1.06.745A2.6,2.6,0,0,1,3690.056,1984.323Z"/><path class="cls-3" d="M3696.565,1984.323a1.33,1.33,0,0,1-.578-.116,1.972,1.972,0,0,1-.471-.325,1.136,1.136,0,0,1-.243-.5,2.5,2.5,0,0,1-.051-.462,2.716,2.716,0,0,1,.115-.8,7.707,7.707,0,0,1,.263-.735c.027-.084.055-.133.084-.148a.458.458,0,0,1,.062-.168l.084-.126c.112-.181.241-.384.389-.608a2.7,2.7,0,0,1,.5-.578.939.939,0,0,1,.619-.241.209.209,0,0,1,.053.01.179.179,0,0,0,.052.011h.126a.391.391,0,0,1,.252.084,1.213,1.213,0,0,1,.19.189.929.929,0,0,0,.23.042q-.231.126-.294.105h-.1a.882.882,0,0,0-.61.325,4.659,4.659,0,0,0-.577.736c-.176.272-.3.486-.389.64a1.1,1.1,0,0,1-.105.168.306.306,0,0,0-.062.189.685.685,0,0,0-.148.3c-.056.175-.1.357-.146.546a2.2,2.2,0,0,0-.064.431v.073a.342.342,0,0,0,.022.115l.1.19h-.062a.511.511,0,0,0,.5.336,1.233,1.233,0,0,0,.4-.073,2.082,2.082,0,0,0,.357-.159,2.585,2.585,0,0,0,.231-.135.782.782,0,0,1,.252-.117,1.139,1.139,0,0,1,.379-.314.633.633,0,0,1,.084-.106l.084-.083.084-.063a2.952,2.952,0,0,0,.462-.494c.168-.217.3-.395.4-.535h.021l.252-.462a2.462,2.462,0,0,1,.137-.241c.049-.078.08-.13.094-.159a.776.776,0,0,1,.063-.283,1.1,1.1,0,0,1,.126-.241l-.021-.064a.057.057,0,0,0,.021-.041l.021-.084a.161.161,0,0,0,.021-.063.061.061,0,0,1,.021-.042l-.021-.063a.206.206,0,0,0,.053-.116.324.324,0,0,1,.052-.136v-.893a1.61,1.61,0,0,0-.021-.263.88.88,0,0,0-.189-.462.93.93,0,0,0-.672-.168,1.842,1.842,0,0,0-.986.285q-.463.282-.883.6a1.382,1.382,0,0,1-.294.189l-.231.231q-.126.126-.4.367a5.1,5.1,0,0,0-.482.484.68.68,0,0,0-.21.387h-.126v-.314a3.254,3.254,0,0,1,.135-.305,1.26,1.26,0,0,1,.2-.325q0-.252.126-.315c.013-.042.031-.1.051-.158a.162.162,0,0,1,.117-.115,1.292,1.292,0,0,1,.293-.326c.14-.118.259-.227.357-.325l.084-.21.021.146a.371.371,0,0,1,.105-.1.576.576,0,0,1,.126-.064c.14-.084.308-.188.5-.314a1.209,1.209,0,0,1,.525-.21l.022-.021a.549.549,0,0,1,.378-.042h.336v-.021a.278.278,0,0,0,.125.011.5.5,0,0,1,.126-.011,1.6,1.6,0,0,1,.557.105,2.913,2.913,0,0,1,.493.231,3.064,3.064,0,0,1,.661.546,1.156,1.156,0,0,1,.285.735v.084a1.062,1.062,0,0,1-.022.21q-.021.1-.042.231a.525.525,0,0,0,0,.21h-.062a.9.9,0,0,0-.106.357,2.644,2.644,0,0,1-.084.4,5.8,5.8,0,0,1-1.05,1.723v.021a8.3,8.3,0,0,1-.745.735,5.891,5.891,0,0,1-1.06.745A2.608,2.608,0,0,1,3696.565,1984.323Z"/><polyline class="cls-4" points="0 2107.407 3787.407 2107.407 3787.407 0"/><polyline class="cls-5" points="0 2090.873 3770.873 2090.873 3770.873 0"/></g></g></svg>