<svg id="Layer_6" data-name="Layer 6" xmlns="http://www.w3.org/2000/svg" viewBox="0 0 2048 4096"><defs><style>.cls-1{opacity:0.2;}.cls-2{fill:none;}.cls-3{fill:#fff;}</style></defs><g class="cls-1"><rect class="cls-2" width="2048" height="4096"/><polygon class="cls-3" points="1452.369 270.156 1446.79 276.6 1455.94 281.488 1459.063 281.488 1462.634 277.044 1452.369 270.156"/><polygon class="cls-3" points="1464.419 277.488 1459.956 282.599 1471.114 289.487 1474.015 289.71 1478.478 285.044 1464.419 277.488"/><polygon class="cls-3" points="1459.51 285.044 1466.652 297.931 1471.561 292.154 1459.51 285.044"/><polygon class="cls-3" points="1473.792 291.931 1475.8 294.82 1483.61 288.376 1480.039 286.154 1473.792 291.931"/><polygon class="cls-3" points="1447.013 279.044 1451.923 287.043 1456.162 283.488 1447.013 279.044"/><polygon class="cls-3" points="1457.725 286.376 1439.426 296.82 1446.12 303.486 1449.245 301.042 1447.013 297.264 1454.6 293.931 1457.502 295.486 1462.857 299.486 1465.089 299.042 1457.725 286.376"/><polygon class="cls-3" points="1445.675 282.377 1433.847 289.931 1437.863 295.486 1450.361 288.154 1445.675 282.377"/><polygon class="cls-3" points="1433.177 278.377 1427.153 281.266 1432.063 288.599 1444.559 280.377 1442.104 275.933 1433.177 278.377"/><polygon class="cls-3" points="1428.715 285.932 1430.946 289.265 1421.128 295.264 1418.673 293.042 1428.715 285.932"/><polygon class="cls-3" points="1432.063 291.709 1421.798 296.82 1426.26 302.375 1435.855 296.82 1432.063 291.709"/><polygon class="cls-3" points="1437.195 298.375 1428.045 303.93 1430.276 307.263 1436.525 303.708 1440.319 306.152 1443.666 304.374 1437.195 298.375"/><polygon class="cls-3" points="1463.75 253.047 1459.286 259.046 1462.857 261.713 1467.766 256.157 1463.75 253.047"/><polygon class="cls-3" points="1469.106 257.268 1465.089 263.046 1469.328 266.157 1473.122 260.379 1469.106 257.268"/><polygon class="cls-3" points="1476.023 259.046 1470.444 267.489 1474.015 269.712 1479.818 261.268 1476.023 259.046"/><polygon class="cls-3" points="1481.602 261.713 1475.577 270.156 1479.594 272.155 1485.618 263.934 1481.602 261.713"/><polygon class="cls-3" points="1366.232 270.378 1371.142 273.267 1361.991 283.488 1356.859 280.155 1366.232 270.378"/><polygon class="cls-3" points="1372.703 274.378 1377.166 277.933 1367.794 287.265 1364 285.488 1372.703 274.378"/><polygon class="cls-3" points="1377.613 279.266 1374.935 282.377 1378.729 286.154 1381.183 281.933 1377.613 279.266"/><polygon class="cls-3" points="1373.373 283.933 1369.356 289.265 1372.926 293.265 1377.835 287.932 1373.373 283.933"/><polygon class="cls-3" points="1368.24 291.043 1361.322 298.597 1365.562 301.93 1371.81 294.82 1368.24 291.043"/><polygon class="cls-3" points="1373.15 295.486 1375.158 297.042 1371.364 301.93 1366.901 302.597 1373.15 295.486"/><polygon class="cls-3" points="1391.448 285.932 1393.01 287.488 1385.423 298.82 1382.745 297.708 1386.762 291.043 1391.448 285.932"/><polygon class="cls-3" points="1380.96 301.042 1377.389 305.708 1372.926 307.929 1377.166 310.596 1383.638 302.153 1380.96 301.042"/><polygon class="cls-3" points="1386.985 301.486 1388.547 306.152 1398.589 304.152 1397.474 299.042 1386.985 301.486"/><polygon class="cls-3" points="1396.135 283.488 1398.589 287.709 1406.623 283.488 1405.284 279.044 1396.135 283.488"/><polygon class="cls-3" points="1407.292 278.377 1409.301 281.933 1422.466 277.267 1421.128 274.156 1407.292 278.377"/><polygon class="cls-3" points="1467.766 247.269 1464.865 251.27 1468.66 254.158 1472.007 249.714 1467.766 247.269"/><polygon class="cls-3" points="1474.239 251.936 1471.337 255.046 1474.462 258.602 1477.14 254.158 1474.239 251.936"/><polygon class="cls-3" points="1413.54 226.161 1409.747 229.494 1413.54 233.271 1419.565 232.605 1413.54 226.161"/><polygon class="cls-3" points="1415.772 220.384 1414.879 223.494 1421.351 231.494 1424.476 232.161 1423.136 227.049 1419.788 219.051 1415.772 220.384"/><polygon class="cls-3" points="1425.367 214.829 1421.351 217.495 1424.476 225.939 1428.492 220.606 1425.367 214.829"/><polygon class="cls-3" points="1430.276 222.606 1425.814 227.716 1425.814 231.05 1442.551 223.939 1440.541 218.384 1430.276 222.606"/><polygon class="cls-3" points="1430.053 231.716 1418.45 235.493 1442.996 249.714 1445.229 247.936 1431.616 237.493 1430.053 231.716"/><polygon class="cls-3" points="1432.063 230.16 1433.177 233.938 1442.996 229.05 1441.658 225.494 1432.063 230.16"/><polygon class="cls-3" points="1441.434 237.271 1438.98 240.159 1449.245 247.269 1451.923 243.937 1441.434 237.271"/><polygon class="cls-3" points="1451.253 248.603 1448.798 252.381 1452.369 254.602 1455.27 250.603 1451.253 248.603"/><polygon class="cls-3" points="1440.541 261.046 1436.302 268.6 1440.319 269.934 1445.897 262.601 1440.541 261.046"/><polygon class="cls-3" points="1426.93 261.935 1424.697 265.934 1432.731 268.379 1435.185 264.379 1426.93 261.935"/><polygon class="cls-3" points="1414.433 263.268 1409.747 267.934 1411.309 269.49 1416.888 267.934 1420.458 267.489 1414.433 263.268"/><polygon class="cls-3" points="1412.201 261.935 1407.739 265.712 1395.018 253.936 1398.589 247.936 1412.201 261.935"/><polygon class="cls-3" points="1401.044 246.603 1408.408 253.269 1415.102 245.492 1408.408 243.27 1402.606 244.381 1401.044 246.603"/><polygon class="cls-3" points="1416.664 246.603 1411.755 252.825 1427.822 253.047 1416.664 246.603"/><polygon class="cls-3" points="1411.085 255.936 1418.45 262.823 1421.798 265.268 1429.608 255.713 1411.085 255.936"/><polygon class="cls-3" points="1392.118 235.493 1392.34 239.048 1398.143 243.937 1402.606 240.382 1392.118 235.493"/><polygon class="cls-3" points="1392.118 241.937 1391.671 250.825 1396.58 246.159 1392.118 241.937"/><polygon class="cls-3" points="1376.496 231.271 1377.166 237.049 1387.208 239.271 1387.208 233.271 1376.496 231.271"/><polygon class="cls-3" points="1379.398 240.826 1378.952 249.492 1387.208 249.714 1387.655 241.27 1379.398 240.826"/><polygon class="cls-3" points="1378.729 251.491 1388.101 252.381 1386.762 257.713 1375.158 271.045 1371.142 268.6 1378.729 257.047 1378.729 251.491"/><polygon class="cls-3" points="1360.876 285.932 1365.786 289.487 1361.322 295.042 1356.19 291.709 1360.876 285.932"/><polygon class="cls-3" points="1355.074 292.82 1349.272 299.486 1354.181 303.93 1360.653 297.931 1355.074 292.82"/><polygon class="cls-3" points="1362.661 311.263 1364 314.818 1372.926 313.04 1371.587 309.04 1362.661 311.263"/><polygon class="cls-3" points="1347.71 301.263 1345.032 305.929 1348.156 308.374 1352.396 304.597 1347.71 301.263"/><polygon class="cls-3" points="1505.144 717.773 1510.389 721.438 1520.32 714.662 1515.632 707.995 1509.162 709.996 1505.144 717.773"/><polygon class="cls-3" points="1517.529 707.885 1521.435 713.774 1530.249 710.774 1527.795 704.996 1517.529 707.885"/><polygon class="cls-3" points="1530.808 704.552 1532.37 709.996 1539.287 707.218 1537.055 702.773 1530.808 704.552"/><polygon class="cls-3" points="1515.075 727.587 1519.538 731.29 1523.259 728.624 1520.431 723.883 1515.075 727.587"/><polygon class="cls-3" points="1521.77 732.92 1524.746 730.254 1529.804 735.142 1527.275 738.4 1521.77 732.92"/><polygon class="cls-3" points="1521.622 722.993 1525.193 727.735 1536.944 724.18 1534.118 717.513 1521.622 722.993"/><polygon class="cls-3" points="1536.498 716.922 1538.431 722.55 1544.085 720.773 1542.151 714.847 1536.498 716.922"/><polygon class="cls-3" points="1527.72 729.364 1537.985 726.104 1542.894 739.881 1533.226 739.881 1527.72 729.364"/><polygon class="cls-3" points="1532.629 744.325 1532.333 758.398 1546.615 758.545 1546.169 745.361 1532.629 744.325"/><polygon class="cls-3" points="1488.149 713.365 1491.421 714.106 1490.38 719.883 1486.512 719.292 1488.149 713.365"/><polygon class="cls-3" points="1626.206 730.994 1628.884 736.548 1638.255 731.437 1635.577 726.104 1626.206 730.994"/><polygon class="cls-3" points="1643.166 724.772 1642.719 729.66 1652.091 730.77 1652.761 725.882 1643.166 724.772"/><polygon class="cls-3" points="1656.777 725.882 1655.886 730.105 1661.241 730.994 1662.356 725.439 1656.777 725.882"/><polygon class="cls-3" points="1655.886 732.549 1655.216 736.77 1659.455 737.659 1661.018 732.992 1655.886 732.549"/><polygon class="cls-3" points="1657.447 710.995 1657.67 716.995 1662.803 716.328 1662.356 710.329 1657.447 710.995"/><polygon class="cls-3" points="1814.325 492.797 1810.084 495.908 1816.556 498.575 1818.787 494.352 1814.325 492.797"/><polygon class="cls-3" points="1820.126 495.243 1818.118 499.019 1829.052 502.574 1830.169 500.797 1820.126 495.243"/><polygon class="cls-3" points="1816.333 491.242 1828.606 487.021 1830.392 487.687 1825.928 494.798 1816.333 491.242"/><polygon class="cls-3" points="1831.953 488.354 1827.937 496.353 1832.4 498.353 1836.862 490.353 1831.953 488.354"/><polygon class="cls-3" points="1831.953 486.132 1835.748 488.354 1863.418 485.02 1863.195 478.133 1831.953 486.132"/><polygon class="cls-3" points="1839.764 490.353 1860.517 488.354 1863.865 494.576 1847.351 494.576 1839.764 490.353"/><polygon class="cls-3" points="1821.689 477.467 1821.689 481.021 1825.705 480.132 1821.689 477.467"/><polygon class="cls-3" points="1821.689 473.911 1824.59 477.467 1837.756 472.8 1836.639 468.356 1821.689 473.911"/><polygon class="cls-3" points="1826.151 478.355 1827.268 479.911 1839.54 476.8 1838.202 473.467 1826.151 478.355"/><polygon class="cls-3" points="1838.647 468.134 1841.325 475.911 1846.458 474.799 1845.789 466.134 1838.647 468.134"/><polygon class="cls-3" points="1852.483 463.912 1853.376 473.467 1862.748 470.8 1860.07 462.135 1852.483 463.912"/><polygon class="cls-3" points="1861.857 461.468 1864.311 470.356 1868.997 468.801 1866.319 459.024 1861.857 461.468"/><polygon class="cls-3" points="1869.22 462.801 1870.558 468.356 1879.932 466.801 1879.262 462.135 1869.22 462.801"/><polygon class="cls-3" points="1814.844 473.836 1813.505 485.316 1808.372 480.799 1814.844 473.836"/><polygon class="cls-3" points="1807.257 482.058 1811.72 486.427 1805.024 491.02 1801.529 485.983 1807.257 482.058"/><polygon class="cls-3" points="1799.892 486.799 1803.39 492.056 1800.414 495.686 1795.504 490.945 1799.892 486.799"/><polygon class="cls-3" points="1797.884 479.317 1801.753 483.835 1808.746 478.502 1814.548 472.059 1807.108 469.466 1797.884 479.317"/><polygon class="cls-3" points="1808.149 467.319 1811.2 459.024 1812.611 459.024 1814.77 469.392 1808.149 467.319"/><polygon class="cls-3" points="1255.026 588.047 1257.11 591.898 1270.2 586.27 1267.821 581.677 1261.423 583.75 1255.026 588.047"/><polygon class="cls-3" points="1271.094 581.53 1273.028 586.27 1287.012 585.231 1285.971 580.937 1271.094 581.53"/><polygon class="cls-3" points="1293.707 581.232 1294.153 584.937 1302.633 585.382 1303.079 581.53 1293.707 581.232"/><polygon class="cls-3" points="1304.566 581.381 1304.418 585.382 1315.724 587.01 1315.724 581.973 1304.566 581.381"/><polygon class="cls-3" points="1322.865 581.826 1322.717 587.01 1332.982 588.936 1333.428 582.714 1322.865 581.826"/><polygon class="cls-3" points="1321.675 594.269 1320.782 600.785 1331.197 602.415 1332.089 596.638 1321.675 594.269"/><polygon class="cls-3" points="1313.046 592.047 1311.856 597.38 1318.104 598.713 1319.294 593.973 1313.046 592.047"/><polygon class="cls-3" points="1292.516 597.527 1291.772 602.86 1298.17 603.305 1298.616 598.268 1292.516 597.527"/><polygon class="cls-3" points="1283.144 587.453 1283.293 590.713 1287.16 591.158 1287.16 587.01 1283.144 587.453"/><polygon class="cls-3" points="1300.996 598.713 1300.104 602.86 1306.501 604.49 1307.839 600.638 1300.996 598.713"/><polygon class="cls-3" points="1014.988 560.124 1014.542 565.235 1021.905 567.233 1025.03 564.79 1023.022 560.569 1014.988 560.124"/><polygon class="cls-3" points="1026.369 567.455 1022.798 570.566 1028.6 575.899 1032.617 571.9 1026.369 567.455"/><polygon class="cls-3" points="1034.626 573.9 1030.385 576.788 1032.84 582.566 1038.419 580.565 1034.626 573.9"/><polygon class="cls-3" points="1040.65 572.345 1041.989 577.233 1047.792 575.677 1045.56 571.233 1040.65 572.345"/><polygon class="cls-3" points="1045.114 559.235 1045.783 564.568 1050.246 564.79 1049.577 559.235 1045.114 559.235"/><polygon class="cls-3" points="1029.493 550.569 1028.823 553.902 1032.617 555.236 1033.956 551.236 1029.493 550.569"/><rect class="cls-3" x="1012.613" y="549.616" width="4.751" height="5.907" transform="translate(281.466 1445.586) rotate(-79.165)"/><polygon class="cls-3" points="1188.601 625.228 1185.924 629.005 1190.164 631.671 1192.842 627.672 1188.601 625.228"/><polygon class="cls-3" points="1195.519 628.338 1193.287 631.893 1201.321 635.449 1202.883 631.449 1195.519 628.338"/><polygon class="cls-3" points="1166.733 621.672 1167.848 624.783 1177.221 622.339 1175.435 618.561 1166.733 621.672"/><polygon class="cls-3" points="1162.269 622.784 1164.055 626.116 1156.914 629.894 1154.236 626.338 1162.269 622.784"/><polygon class="cls-3" points="1155.575 631.004 1153.567 638.338 1147.988 636.782 1149.103 629.005 1155.575 631.004"/><polygon class="cls-3" points="1171.642 632.116 1173.873 636.559 1180.345 633.893 1178.782 630.116 1171.642 632.116"/><polygon class="cls-3" points="1193.511 618.118 1191.726 621.894 1196.412 624.116 1198.643 619.895 1193.511 618.118"/><polygon class="cls-3" points="1142.855 620.338 1146.425 625.895 1155.575 621.894 1152.897 615.672 1142.855 620.338"/><polygon class="cls-3" points="1156.69 615.229 1158.253 620.116 1166.733 617.227 1165.394 612.34 1156.69 615.229"/><polygon class="cls-3" points="1849.658 518.276 1856.201 528.647 1860.219 527.461 1855.161 514.425 1849.658 518.276"/><polygon class="cls-3" points="1857.839 533.386 1862.004 542.867 1866.319 541.533 1862.897 532.646 1857.839 533.386"/><polygon class="cls-3" points="1863.195 544.791 1867.36 551.458 1871.973 548.347 1868.848 541.978 1863.195 544.791"/><polygon class="cls-3" points="1846.234 520.794 1841.624 524.497 1846.83 530.126 1850.996 526.572 1846.234 520.794"/><polygon class="cls-3" points="1930.439 185.424 1926.719 191.054 1920.768 185.573 1924.637 181.277 1930.439 185.424"/><polygon class="cls-3" points="1926.124 179.647 1931.48 183.499 1938.322 173.722 1933.413 170.167 1926.124 179.647"/><polygon class="cls-3" points="1912.734 177.573 1919.876 183.944 1923.148 179.647 1916.899 173.722 1912.734 177.573"/><polygon class="cls-3" points="1943.382 179.647 1938.175 187.499 1942.935 190.905 1948.142 182.906 1943.382 179.647"/><polygon class="cls-3" points="1933.413 160.835 1929.248 166.019 1939.067 172.537 1942.489 167.945 1933.413 160.835"/><polygon class="cls-3" points="378.4 2034.051 372.516 2037.354 369.734 2029.757 375.139 2027.708 378.4 2034.051"/><polygon class="cls-3" points="377.208 2026.939 380.207 2032.815 390.765 2027.254 388.027 2021.846 377.208 2026.939"/><polygon class="cls-3" points="412.618 2036.527 416.052 2045.459 420.928 2043.136 418.083 2035.009 412.618 2036.527"/><polygon class="cls-3" points="398.989 2036.558 390.765 2041.157 393.439 2046.364 401.729 2041.635 398.989 2036.558"/><polygon class="cls-3" points="393.173 2013.549 387.098 2016.252 392.844 2026.541 397.989 2024.024 393.173 2013.549"/><polygon class="cls-3" points="1849.658 205.126 1849.509 209.422 1857.392 210.311 1857.543 205.57 1849.658 205.126"/><polygon class="cls-3" points="1860.369 206.163 1859.923 210.163 1867.361 211.051 1867.657 207.2 1860.369 206.163"/><polygon class="cls-3" points="1859.327 198.164 1858.881 201.868 1865.873 203.348 1866.469 199.053 1859.327 198.164"/><polygon class="cls-3" points="1390.982 446.227 1386.688 448.151 1390.124 454.78 1395.277 452.214 1390.982 446.227"/><polygon class="cls-3" points="1398.843 440.228 1395.277 443.299 1400.463 448.67 1404.669 444.739 1398.843 440.228"/><line class="cls-3" x1="1193.139" y1="128.468" x2="1192.321" y2="130.098"/><polygon class="cls-3" points="1188.772 129.51 1184.396 127.473 1185.561 124.993 1189.936 127.03 1188.772 129.51"/><polygon class="cls-3" points="1191.114 130.636 1189.718 129.986 1190.934 127.397 1192.33 128.047 1191.114 130.636"/><polygon class="cls-3" points="1193.027 131.571 1191.631 130.921 1192.89 128.24 1194.287 128.89 1193.027 131.571"/><polygon class="cls-3" points="1204.893 166.081 1202.955 165.739 1203.688 161.619 1205.626 161.96 1204.893 166.081"/><rect class="cls-3" x="1195.662" y="162.219" width="4.185" height="1.968" transform="translate(968.623 1350.111) rotate(-86.833)"/><polygon class="cls-3" points="1195.707 128.298 1193.077 127.535 1193.587 125.788 1196.217 126.55 1195.707 128.298"/><polygon class="cls-3" points="1209.281 135.057 1206.699 133.907 1207.665 131.753 1210.248 132.903 1209.281 135.057"/><polygon class="cls-3" points="1192.821 139.085 1189.309 137.52 1190.071 135.824 1193.582 137.388 1192.821 139.085"/><polygon class="cls-3" points="1184.575 134.33 1180.528 132.527 1181.287 130.838 1185.332 132.638 1184.575 134.33"/><rect class="cls-3" x="1191.139" y="104.714" width="3.053" height="5.942" transform="matrix(0.207, -0.978, 0.978, 0.207, 840.714, 1252.315)"/><polygon class="cls-3" points="1187.237 108.654 1181.85 106.15 1183.145 103.385 1188.53 105.885 1187.237 108.654"/><polygon class="cls-3" points="1182.785 117.345 1177.103 115.609 1178.298 111.725 1183.979 113.456 1182.785 117.345"/><polygon class="cls-3" points="1187.001 118.51 1183.6 117.47 1184.796 113.586 1188.197 114.621 1187.001 118.51"/><rect class="cls-3" x="1183.41" y="93.055" width="4.083" height="3.542" transform="translate(-3.649 76.724) rotate(-3.701)"/><polygon class="cls-3" points="1179.023 104.792 1176.982 101.891 1180.324 99.559 1182.367 102.457 1179.023 104.792"/><rect class="cls-3" x="1170.826" y="101.758" width="5.644" height="6.387" transform="translate(-1.745 21.795) rotate(-1.063)"/><rect class="cls-3" x="1175.736" y="92.76" width="4.084" height="6.387" transform="translate(-1.587 22.014) rotate(-1.07)"/><rect class="cls-3" x="1188.35" y="97.604" width="3.053" height="5.942" transform="translate(859.962 1248.215) rotate(-78.793)"/><polygon class="cls-3" points="1214.422 109.99 1209.162 112.747 1207.078 108.812 1212.335 106.054 1214.422 109.99"/><polygon class="cls-3" points="787.002 2016.046 789.695 2020.051 787.416 2021.572 784.724 2017.568 787.002 2016.046"/><rect class="cls-3" x="777.228" y="2026.904" width="3.053" height="5.942" transform="translate(-1002.535 783.336) rotate(-34.027)"/><polygon class="cls-3" points="783.33 2032.952 785.462 2038.497 782.608 2039.585 780.475 2034.044 783.33 2032.952"/><polygon class="cls-3" points="795.617 2026.872 798.495 2032.07 794.936 2034.032 792.055 2028.838 795.617 2026.872"/><polygon class="cls-3" points="793.396 2023.104 795.118 2026.215 791.559 2028.177 789.833 2025.069 793.396 2023.104"/><rect class="cls-3" x="773.23" y="2042.092" width="3.542" height="4.083" transform="translate(-1284.752 1311.654) rotate(-49.66)"/><polygon class="cls-3" points="786.55 2041.438 786 2044.942 781.977 2044.296 782.523 2040.792 786.55 2041.438"/><rect class="cls-3" x="784.015" y="2050.768" width="6.387" height="5.644" transform="translate(-846.204 580.874) rotate(-26.988)"/><rect class="cls-3" x="778.107" y="2046.616" width="6.387" height="4.084" transform="translate(-1250.261 1223.923) rotate(-47.029)"/><rect class="cls-3" x="774.289" y="2033.954" width="3.053" height="5.942" transform="translate(-1022.718 805.572) rotate(-34.752)"/><polygon class="cls-3" points="764.717 2013.094 770.415 2014.769 769.177 2019.045 763.481 2017.374 764.717 2013.094"/><polygon class="cls-3" points="1185.308 137.145 1183.811 136.477 1185.462 132.797 1186.963 133.463 1185.308 137.145"/><polygon class="cls-3" points="526.779 3411.346 532.358 3417.79 523.208 3422.678 520.085 3422.678 516.514 3418.234 526.779 3411.346"/><polygon class="cls-3" points="514.73 3418.678 519.192 3423.789 508.034 3430.677 505.133 3430.899 500.671 3426.233 514.73 3418.678"/><polygon class="cls-3" points="519.639 3426.233 512.497 3439.121 507.588 3433.343 519.639 3426.233"/><polygon class="cls-3" points="505.356 3433.121 503.348 3436.01 495.538 3429.566 499.109 3427.344 505.356 3433.121"/><polygon class="cls-3" points="532.135 3420.234 527.226 3428.233 522.987 3424.678 532.135 3420.234"/><polygon class="cls-3" points="521.424 3427.566 539.722 3438.01 533.028 3444.675 529.904 3442.231 532.135 3438.454 524.548 3435.121 521.647 3436.676 516.291 3440.676 514.06 3440.232 521.424 3427.566"/><polygon class="cls-3" points="533.473 3423.567 545.301 3431.121 541.285 3436.676 528.787 3429.344 533.473 3423.567"/><polygon class="cls-3" points="545.971 3419.567 551.995 3422.456 547.086 3429.788 534.59 3421.567 537.044 3417.123 545.971 3419.567"/><polygon class="cls-3" points="550.434 3427.122 548.202 3430.454 558.021 3436.454 560.475 3434.232 550.434 3427.122"/><polygon class="cls-3" points="547.086 3432.899 557.351 3438.01 552.888 3443.564 543.293 3438.01 547.086 3432.899"/><polygon class="cls-3" points="541.953 3439.565 551.103 3445.12 548.872 3448.453 542.623 3444.898 538.829 3447.342 535.483 3445.564 541.953 3439.565"/><polygon class="cls-3" points="515.398 3394.236 519.862 3400.236 516.291 3402.903 511.382 3397.347 515.398 3394.236"/><polygon class="cls-3" points="510.042 3398.458 514.06 3404.236 509.821 3407.346 506.026 3401.569 510.042 3398.458"/><polygon class="cls-3" points="503.125 3400.236 508.704 3408.679 505.133 3410.901 499.331 3402.458 503.125 3400.236"/><polygon class="cls-3" points="497.546 3402.903 503.572 3411.346 499.554 3413.345 493.53 3405.124 497.546 3402.903"/><polygon class="cls-3" points="586.652 3398.014 582.188 3401.569 591.561 3410.902 595.354 3409.125 586.652 3398.014"/><polygon class="cls-3" points="580.671 3402.903 583.349 3406.013 579.555 3409.79 577.101 3405.569 580.671 3402.903"/><polygon class="cls-3" points="584.639 3407.579 589.313 3412.346 586.291 3416.775 580.732 3412.123 584.639 3407.579"/><polygon class="cls-3" points="587.7 3427.122 586.138 3428.677 593.725 3440.009 596.403 3438.898 592.386 3432.232 587.7 3427.122"/><polygon class="cls-3" points="598.189 3442.231 601.759 3446.898 606.222 3449.119 601.982 3451.785 595.511 3443.342 598.189 3442.231"/><polygon class="cls-3" points="592.163 3442.676 590.602 3447.342 580.559 3445.342 581.675 3440.232 592.163 3442.676"/><polygon class="cls-3" points="583.014 3424.678 580.559 3428.899 572.526 3424.678 573.865 3420.234 583.014 3424.678"/><polygon class="cls-3" points="571.857 3419.567 569.848 3423.123 556.682 3418.456 558.021 3415.346 571.857 3419.567"/><polygon class="cls-3" points="511.382 3388.459 514.283 3392.459 510.489 3395.347 507.141 3390.904 511.382 3388.459"/><polygon class="cls-3" points="504.91 3393.125 507.811 3396.236 504.687 3399.792 502.009 3395.347 504.91 3393.125"/><polygon class="cls-3" points="565.608 3367.351 569.402 3370.684 565.608 3374.461 559.584 3373.795 565.608 3367.351"/><polygon class="cls-3" points="563.376 3361.573 564.269 3364.684 557.797 3372.684 554.673 3373.35 556.013 3368.239 559.36 3360.241 563.376 3361.573"/><polygon class="cls-3" points="553.781 3356.019 557.797 3358.685 554.673 3367.129 550.657 3361.796 553.781 3356.019"/><polygon class="cls-3" points="548.872 3363.796 553.335 3368.906 553.335 3372.239 536.598 3365.128 538.607 3359.574 548.872 3363.796"/><polygon class="cls-3" points="549.095 3372.905 560.698 3376.683 536.153 3390.904 533.92 3389.126 547.532 3378.683 549.095 3372.905"/><polygon class="cls-3" points="547.086 3371.35 545.971 3375.128 536.153 3370.24 537.491 3366.684 547.086 3371.35"/><polygon class="cls-3" points="537.714 3378.461 540.169 3381.349 529.904 3388.459 527.226 3385.127 537.714 3378.461"/><polygon class="cls-3" points="527.896 3389.793 530.35 3393.57 526.779 3395.792 523.878 3391.793 527.896 3389.793"/><polygon class="cls-3" points="538.607 3402.236 542.847 3409.79 538.829 3411.124 533.251 3403.791 538.607 3402.236"/><polygon class="cls-3" points="547.978 3397.014 550.21 3401.014 542.177 3403.458 539.722 3399.458 547.978 3397.014"/><polygon class="cls-3" points="564.715 3404.458 569.402 3409.124 567.84 3410.679 562.261 3409.124 558.69 3408.679 564.715 3404.458"/><polygon class="cls-3" points="566.947 3403.124 571.41 3406.902 584.13 3395.126 580.559 3389.126 566.947 3403.124"/><polygon class="cls-3" points="578.105 3387.793 570.741 3394.459 564.046 3386.682 570.741 3384.46 576.542 3385.571 578.105 3387.793"/><polygon class="cls-3" points="562.484 3387.793 567.393 3394.015 551.327 3394.236 562.484 3387.793"/><polygon class="cls-3" points="568.063 3397.125 560.698 3404.013 557.351 3406.458 549.54 3396.903 568.063 3397.125"/><polygon class="cls-3" points="587.031 3376.683 586.808 3380.238 581.006 3385.127 576.542 3381.572 587.031 3376.683"/><polygon class="cls-3" points="587.031 3383.127 587.477 3392.015 582.568 3387.349 587.031 3383.127"/><polygon class="cls-3" points="602.652 3372.461 601.982 3378.238 591.941 3380.46 591.941 3374.461 602.652 3372.461"/><polygon class="cls-3" points="599.751 3382.016 600.197 3390.681 591.941 3390.904 591.494 3382.46 599.751 3382.016"/><polygon class="cls-3" points="616.487 3452.452 615.148 3456.007 606.222 3454.23 607.561 3450.23 616.487 3452.452"/><polygon class="cls-3" points="474.004 3858.963 468.759 3862.628 458.829 3855.852 463.516 3849.185 469.987 3851.186 474.004 3858.963"/><polygon class="cls-3" points="461.619 3849.074 457.714 3854.963 448.899 3851.963 451.354 3846.185 461.619 3849.074"/><polygon class="cls-3" points="448.34 3845.742 446.779 3851.186 439.862 3848.408 442.093 3843.963 448.34 3845.742"/><polygon class="cls-3" points="464.074 3868.776 459.611 3872.48 455.89 3869.814 458.718 3865.073 464.074 3868.776"/><polygon class="cls-3" points="457.378 3874.109 454.402 3871.444 449.345 3876.332 451.873 3879.59 457.378 3874.109"/><polygon class="cls-3" points="457.527 3864.183 453.956 3868.925 442.204 3865.369 445.031 3858.703 457.527 3864.183"/><polygon class="cls-3" points="442.65 3858.112 440.717 3863.74 435.063 3861.963 436.997 3856.037 442.65 3858.112"/><polygon class="cls-3" points="451.428 3870.553 441.164 3867.294 436.254 3881.071 445.922 3881.071 451.428 3870.553"/><polygon class="cls-3" points="446.519 3885.515 446.815 3899.588 432.533 3899.735 432.98 3886.551 446.519 3885.515"/><polygon class="cls-3" points="490.999 3854.555 487.728 3855.296 488.768 3861.072 492.637 3860.481 490.999 3854.555"/><polygon class="cls-3" points="352.943 3872.183 350.265 3877.738 340.893 3872.627 343.571 3867.294 352.943 3872.183"/><polygon class="cls-3" points="335.982 3865.962 336.429 3870.85 327.057 3871.96 326.387 3867.072 335.982 3865.962"/><polygon class="cls-3" points="322.371 3867.072 323.263 3871.295 317.907 3872.183 316.792 3866.629 322.371 3867.072"/><polygon class="cls-3" points="323.263 3873.739 323.933 3877.96 319.693 3878.848 318.13 3874.182 323.263 3873.739"/><polygon class="cls-3" points="321.701 3852.185 321.478 3858.185 316.346 3857.518 316.792 3851.518 321.701 3852.185"/><polygon class="cls-3" points="164.824 3633.987 169.065 3637.098 162.592 3639.765 160.361 3635.542 164.824 3633.987"/><polygon class="cls-3" points="159.023 3636.432 161.031 3640.208 150.096 3643.764 148.98 3641.987 159.023 3636.432"/><polygon class="cls-3" points="162.816 3632.431 150.543 3628.21 148.756 3628.877 153.221 3635.987 162.816 3632.431"/><polygon class="cls-3" points="147.195 3629.544 151.211 3637.543 146.748 3639.543 142.286 3631.543 147.195 3629.544"/><polygon class="cls-3" points="147.195 3627.322 143.401 3629.544 115.73 3626.21 115.954 3619.323 147.195 3627.322"/><polygon class="cls-3" points="139.385 3631.543 118.632 3629.544 115.284 3635.765 131.798 3635.765 139.385 3631.543"/><polygon class="cls-3" points="157.46 3618.656 157.46 3622.211 153.444 3621.322 157.46 3618.656"/><polygon class="cls-3" points="157.46 3615.1 154.559 3618.656 141.393 3613.99 142.509 3609.546 157.46 3615.1"/><polygon class="cls-3" points="152.997 3619.545 151.881 3621.1 139.608 3617.99 140.946 3614.657 152.997 3619.545"/><polygon class="cls-3" points="140.501 3609.324 137.823 3617.101 132.691 3615.989 133.359 3607.323 140.501 3609.324"/><polygon class="cls-3" points="126.665 3605.101 125.772 3614.657 116.4 3611.99 119.078 3603.324 126.665 3605.101"/><polygon class="cls-3" points="117.292 3602.657 114.837 3611.546 110.151 3609.991 112.829 3600.214 117.292 3602.657"/><polygon class="cls-3" points="109.928 3603.991 108.59 3609.546 99.217 3607.99 99.887 3603.324 109.928 3603.991"/><polygon class="cls-3" points="164.304 3615.026 165.644 3626.506 170.776 3621.989 164.304 3615.026"/><polygon class="cls-3" points="171.891 3623.248 167.429 3627.616 174.124 3632.21 177.619 3627.173 171.891 3623.248"/><polygon class="cls-3" points="179.257 3627.989 175.758 3633.246 178.734 3636.876 183.645 3632.135 179.257 3627.989"/><polygon class="cls-3" points="181.265 3620.506 177.396 3625.025 170.403 3619.692 164.6 3613.249 172.04 3610.656 181.265 3620.506"/><polygon class="cls-3" points="171 3608.508 167.948 3600.214 166.537 3600.214 164.379 3610.582 171 3608.508"/><polygon class="cls-3" points="724.122 3729.237 722.039 3733.088 708.948 3727.46 711.327 3722.867 717.725 3724.94 724.122 3729.237"/><polygon class="cls-3" points="708.055 3722.719 706.12 3727.46 692.137 3726.421 693.178 3722.127 708.055 3722.719"/><polygon class="cls-3" points="685.442 3722.422 684.995 3726.126 676.515 3726.571 676.069 3722.719 685.442 3722.422"/><polygon class="cls-3" points="674.582 3722.571 674.73 3726.571 663.424 3728.2 663.424 3723.163 674.582 3722.571"/><polygon class="cls-3" points="656.284 3723.016 656.432 3728.2 646.167 3730.126 645.72 3723.904 656.284 3723.016"/><polygon class="cls-3" points="657.473 3735.459 658.366 3741.975 647.952 3743.605 647.059 3737.828 657.473 3735.459"/><polygon class="cls-3" points="666.102 3733.237 667.292 3738.569 661.044 3739.903 659.854 3735.162 666.102 3733.237"/><polygon class="cls-3" points="686.633 3738.717 687.376 3744.05 680.979 3744.495 680.532 3739.458 686.633 3738.717"/><polygon class="cls-3" points="696.004 3728.643 695.856 3731.903 691.988 3732.348 691.988 3728.2 696.004 3728.643"/><polygon class="cls-3" points="678.153 3739.903 679.045 3744.05 672.648 3745.68 671.309 3741.828 678.153 3739.903"/><polygon class="cls-3" points="964.16 3701.313 964.607 3706.424 957.243 3708.423 954.119 3705.979 956.127 3701.758 964.16 3701.313"/><polygon class="cls-3" points="952.78 3708.645 956.35 3711.756 950.548 3717.089 946.532 3713.089 952.78 3708.645"/><polygon class="cls-3" points="944.523 3715.09 948.763 3717.977 946.308 3723.755 940.729 3721.755 944.523 3715.09"/><polygon class="cls-3" points="938.498 3713.535 937.159 3718.422 931.357 3716.867 933.588 3712.423 938.498 3713.535"/><polygon class="cls-3" points="934.035 3700.425 933.366 3705.758 928.902 3705.979 929.571 3700.425 934.035 3700.425"/><polygon class="cls-3" points="949.655 3691.759 950.325 3695.092 946.532 3696.425 945.193 3692.426 949.655 3691.759"/><rect class="cls-3" x="961.207" y="3691.383" width="5.907" height="4.751" transform="translate(-677.188 247.103) rotate(-10.835)"/><polygon class="cls-3" points="790.547 3766.417 793.225 3770.195 788.985 3772.861 786.307 3768.861 790.547 3766.417"/><polygon class="cls-3" points="783.629 3769.528 785.861 3773.082 777.828 3776.638 776.265 3772.639 783.629 3769.528"/><polygon class="cls-3" points="812.416 3762.862 811.3 3765.972 801.928 3763.529 803.713 3759.751 812.416 3762.862"/><polygon class="cls-3" points="816.879 3763.974 815.094 3767.306 822.235 3771.084 824.913 3767.528 816.879 3763.974"/><polygon class="cls-3" points="823.574 3772.194 825.582 3779.527 831.161 3777.972 830.045 3770.195 823.574 3772.194"/><polygon class="cls-3" points="807.507 3773.306 805.275 3777.749 798.804 3775.083 800.366 3771.305 807.507 3773.306"/><polygon class="cls-3" points="785.638 3759.307 787.423 3763.083 782.737 3765.306 780.505 3761.085 785.638 3759.307"/><polygon class="cls-3" points="1128.209 3474.134 1132.838 3474.214 1132.475 3479.209 1127.667 3478.998 1128.209 3474.134"/><polygon class="cls-3" points="1127.33 3482.101 1131.521 3481.879 1130.721 3490.628 1126.467 3490.048 1127.33 3482.101"/><polygon class="cls-3" points="1120.631 3472.691 1124.731 3473.49 1123.746 3478.581 1119.023 3477.88 1120.631 3472.691"/><polygon class="cls-3" points="836.293 3761.528 832.723 3767.084 823.574 3763.083 826.252 3756.862 836.293 3761.528"/><polygon class="cls-3" points="822.458 3756.418 820.896 3761.306 812.416 3758.417 813.755 3753.529 822.458 3756.418"/><polygon class="cls-3" points="129.49 3659.465 122.947 3669.836 118.929 3668.65 123.987 3655.615 129.49 3659.465"/><polygon class="cls-3" points="121.309 3674.576 117.145 3684.057 112.829 3682.723 116.251 3673.836 121.309 3674.576"/><polygon class="cls-3" points="115.954 3685.981 111.789 3692.648 107.176 3689.537 110.3 3683.168 115.954 3685.981"/><polygon class="cls-3" points="132.914 3661.984 137.524 3665.687 132.319 3671.316 128.152 3667.762 132.914 3661.984"/><polygon class="cls-3" points="48.709 3326.614 52.429 3332.244 58.38 3326.763 54.512 3322.467 48.709 3326.614"/><polygon class="cls-3" points="53.025 3320.837 47.669 3324.689 40.826 3314.912 45.735 3311.357 53.025 3320.837"/><polygon class="cls-3" points="66.414 3318.763 59.272 3325.134 56 3320.837 62.249 3314.912 66.414 3318.763"/><polygon class="cls-3" points="35.767 3320.837 40.973 3328.689 36.213 3332.095 31.006 3324.096 35.767 3320.837"/><polygon class="cls-3" points="45.735 3302.025 49.9 3307.209 40.082 3313.726 36.66 3309.135 45.735 3302.025"/><polygon class="cls-3" points="129.49 3346.316 129.639 3350.612 121.756 3351.501 121.606 3346.76 129.49 3346.316"/><polygon class="cls-3" points="118.779 3347.353 119.226 3351.353 111.787 3352.241 111.491 3348.39 118.779 3347.353"/><polygon class="cls-3" points="119.821 3339.354 120.267 3343.058 113.276 3344.538 112.679 3340.242 119.821 3339.354"/><polygon class="cls-3" points="588.166 3587.416 592.46 3589.341 589.024 3595.97 583.871 3593.404 588.166 3587.416"/><line class="cls-3" x1="786.009" y1="3269.658" x2="786.827" y2="3271.288"/><polygon class="cls-3" points="790.377 3270.7 794.752 3268.663 793.587 3266.182 789.213 3268.219 790.377 3270.7"/><polygon class="cls-3" points="788.034 3271.826 789.431 3271.176 788.215 3268.587 786.818 3269.237 788.034 3271.826"/><polygon class="cls-3" points="786.122 3272.761 787.517 3272.111 786.258 3269.429 784.862 3270.079 786.122 3272.761"/><polygon class="cls-3" points="774.255 3307.271 776.193 3306.929 775.46 3302.808 773.523 3303.149 774.255 3307.271"/><rect class="cls-3" x="780.41" y="3302.3" width="1.968" height="4.185" transform="translate(-181.378 48.22) rotate(-3.167)"/><polygon class="cls-3" points="783.441 3269.488 786.072 3268.724 785.561 3266.978 782.932 3267.74 783.441 3269.488"/><polygon class="cls-3" points="769.868 3276.247 772.45 3275.097 771.483 3272.943 768.901 3274.093 769.868 3276.247"/><polygon class="cls-3" points="786.327 3280.274 789.839 3278.71 789.077 3277.014 785.566 3278.578 786.327 3280.274"/><polygon class="cls-3" points="794.574 3275.52 798.62 3273.716 797.861 3272.028 793.816 3273.828 794.574 3275.52"/><rect class="cls-3" x="783.512" y="3247.348" width="5.942" height="3.053" transform="translate(-654.737 232.813) rotate(-11.932)"/><polygon class="cls-3" points="791.912 3249.844 797.299 3247.34 796.004 3244.574 790.618 3247.074 791.912 3249.844"/><polygon class="cls-3" points="796.363 3258.535 802.045 3256.799 800.851 3252.915 795.169 3254.646 796.363 3258.535"/><polygon class="cls-3" points="792.147 3259.7 795.548 3258.66 794.353 3254.775 790.952 3255.811 792.147 3259.7"/><rect class="cls-3" x="791.926" y="3233.975" width="3.542" height="4.083" transform="translate(-2486.806 3819.158) rotate(-86.299)"/><polygon class="cls-3" points="800.125 3245.982 802.166 3243.081 798.824 3240.749 796.781 3243.647 800.125 3245.982"/><rect class="cls-3" x="802.306" y="3243.32" width="6.387" height="5.644" transform="translate(-2455.029 3991.271) rotate(-88.937)"/><rect class="cls-3" x="798.177" y="3235.101" width="6.387" height="4.084" transform="translate(-2450.175 3977.915) rotate(-88.93)"/><rect class="cls-3" x="786.301" y="3240.238" width="5.942" height="3.053" transform="translate(-615.001 215.215) rotate(-11.207)"/><polygon class="cls-3" points="764.727 3251.18 769.987 3253.937 772.07 3250.002 766.814 3247.244 764.727 3251.18"/><polygon class="cls-3" points="793.84 3278.335 795.338 3277.666 793.687 3273.987 792.186 3274.653 793.84 3278.335"/><polygon class="cls-3" points="1842.872 2845.933 1848.451 2852.377 1839.301 2857.265 1836.179 2857.265 1832.608 2852.821 1842.872 2845.933"/><polygon class="cls-3" points="1830.823 2853.266 1835.285 2858.376 1824.127 2865.264 1821.226 2865.487 1816.764 2860.821 1830.823 2853.266"/><polygon class="cls-3" points="1835.732 2860.821 1828.59 2873.708 1823.681 2867.931 1835.732 2860.821"/><polygon class="cls-3" points="1821.45 2867.708 1819.442 2870.597 1811.631 2864.153 1815.202 2861.931 1821.45 2867.708"/><polygon class="cls-3" points="1848.228 2854.821 1843.319 2862.821 1839.08 2859.265 1848.228 2854.821"/><polygon class="cls-3" points="1849.566 2858.154 1861.394 2865.709 1857.378 2871.263 1844.88 2863.932 1849.566 2858.154"/><polygon class="cls-3" points="1862.064 2854.154 1868.088 2857.043 1863.179 2864.376 1850.683 2856.155 1853.137 2851.71 1862.064 2854.154"/><polygon class="cls-3" points="1831.491 2828.824 1835.955 2834.824 1832.384 2837.49 1827.475 2831.935 1831.491 2828.824"/><polygon class="cls-3" points="1826.135 2833.046 1830.153 2838.823 1825.914 2841.934 1822.119 2836.156 1826.135 2833.046"/><polygon class="cls-3" points="1819.218 2834.824 1824.797 2843.267 1821.226 2845.489 1815.424 2837.045 1819.218 2834.824"/><polygon class="cls-3" points="1813.639 2837.49 1819.665 2845.933 1815.647 2847.933 1809.623 2839.711 1813.639 2837.49"/><polygon class="cls-3" points="1929.01 2846.156 1924.1 2849.044 1933.25 2859.265 1938.383 2855.932 1929.01 2846.156"/><polygon class="cls-3" points="1922.539 2850.155 1918.075 2853.71 1927.448 2863.042 1931.241 2861.265 1922.539 2850.155"/><polygon class="cls-3" points="1917.629 2855.044 1920.307 2858.154 1916.513 2861.931 1914.058 2857.71 1917.629 2855.044"/><polygon class="cls-3" points="1921.869 2859.71 1925.886 2865.042 1922.315 2869.042 1917.406 2863.709 1921.869 2859.71"/><polygon class="cls-3" points="1927.001 2866.82 1933.919 2874.374 1929.679 2877.708 1923.431 2870.597 1927.001 2866.82"/><polygon class="cls-3" points="1922.092 2871.263 1920.084 2872.819 1923.878 2877.708 1928.34 2878.374 1922.092 2871.263"/><polygon class="cls-3" points="1903.794 2861.709 1902.231 2863.265 1909.818 2874.597 1912.496 2873.486 1908.479 2866.82 1903.794 2861.709"/><polygon class="cls-3" points="1914.282 2876.819 1917.852 2881.485 1922.315 2883.706 1918.075 2886.373 1911.604 2877.93 1914.282 2876.819"/><polygon class="cls-3" points="1899.107 2859.265 1896.652 2863.487 1888.619 2859.265 1889.958 2854.821 1899.107 2859.265"/><polygon class="cls-3" points="1887.95 2854.154 1885.941 2857.71 1872.776 2853.044 1874.114 2849.933 1887.95 2854.154"/><polygon class="cls-3" points="1827.475 2823.047 1830.376 2827.047 1826.582 2829.935 1823.234 2825.491 1827.475 2823.047"/><polygon class="cls-3" points="1821.003 2827.713 1823.904 2830.824 1820.78 2834.379 1818.102 2829.935 1821.003 2827.713"/><polygon class="cls-3" points="1881.702 2801.938 1885.495 2805.271 1881.702 2809.048 1875.677 2808.382 1881.702 2801.938"/><polygon class="cls-3" points="1879.469 2796.161 1880.363 2799.272 1873.89 2807.271 1870.766 2807.938 1872.106 2802.827 1875.453 2794.828 1879.469 2796.161"/><polygon class="cls-3" points="1865.189 2807.493 1876.792 2811.27 1852.246 2825.491 1850.013 2823.713 1863.626 2813.27 1865.189 2807.493"/><polygon class="cls-3" points="1853.807 2813.048 1856.262 2815.937 1845.997 2823.047 1843.319 2819.714 1853.807 2813.048"/><polygon class="cls-3" points="1843.989 2824.38 1846.443 2828.158 1842.872 2830.379 1839.971 2826.38 1843.989 2824.38"/><polygon class="cls-3" points="1854.7 2836.823 1858.94 2844.378 1854.922 2845.711 1849.345 2838.379 1854.7 2836.823"/><polygon class="cls-3" points="1868.311 2837.712 1870.544 2841.711 1862.511 2844.156 1860.056 2840.156 1868.311 2837.712"/><polygon class="cls-3" points="1880.808 2839.045 1885.495 2843.712 1883.933 2845.267 1878.354 2843.712 1874.784 2843.267 1880.808 2839.045"/><polygon class="cls-3" points="1883.04 2837.712 1887.503 2841.489 1900.223 2829.713 1896.652 2823.713 1883.04 2837.712"/><polygon class="cls-3" points="1894.198 2822.381 1886.834 2829.046 1880.139 2821.269 1886.834 2819.047 1892.635 2820.158 1894.198 2822.381"/><polygon class="cls-3" points="1878.577 2822.381 1883.486 2828.602 1867.42 2828.824 1878.577 2822.381"/><polygon class="cls-3" points="1884.156 2831.713 1876.792 2838.6 1873.444 2841.045 1865.634 2831.49 1884.156 2831.713"/><polygon class="cls-3" points="1903.124 2811.27 1902.901 2814.825 1897.099 2819.714 1892.635 2816.159 1903.124 2811.27"/><polygon class="cls-3" points="1903.124 2817.714 1903.57 2826.602 1898.661 2821.936 1903.124 2817.714"/><polygon class="cls-3" points="1918.745 2807.048 1918.075 2812.826 1908.034 2815.048 1908.034 2809.048 1918.745 2807.048"/><polygon class="cls-3" points="1915.844 2816.603 1916.29 2825.269 1908.034 2825.491 1907.587 2817.048 1915.844 2816.603"/><polygon class="cls-3" points="1916.513 2827.268 1907.14 2828.158 1908.479 2833.49 1920.084 2846.822 1924.1 2844.378 1916.513 2832.824 1916.513 2827.268"/><polygon class="cls-3" points="1934.366 2861.709 1929.456 2865.264 1933.919 2870.819 1939.052 2867.487 1934.366 2861.709"/><polygon class="cls-3" points="1940.167 2868.598 1945.97 2875.264 1941.06 2879.707 1934.588 2873.708 1940.167 2868.598"/><polygon class="cls-3" points="1932.58 2887.04 1931.241 2890.595 1922.315 2888.818 1923.654 2884.817 1932.58 2887.04"/><polygon class="cls-3" points="1790.097 3293.55 1784.853 3297.215 1774.922 3290.439 1779.609 3283.773 1786.08 3285.773 1790.097 3293.55"/><polygon class="cls-3" points="1777.712 3283.662 1773.807 3289.551 1764.993 3286.551 1767.447 3280.773 1777.712 3283.662"/><polygon class="cls-3" points="1764.434 3280.329 1762.872 3285.773 1755.955 3282.995 1758.186 3278.551 1764.434 3280.329"/><polygon class="cls-3" points="1780.167 3303.364 1775.704 3307.067 1771.983 3304.401 1774.811 3299.661 1780.167 3303.364"/><polygon class="cls-3" points="1773.471 3308.697 1770.496 3306.031 1765.438 3310.919 1767.967 3314.177 1773.471 3308.697"/><polygon class="cls-3" points="1773.62 3298.771 1770.049 3303.513 1758.297 3299.957 1761.124 3293.29 1773.62 3298.771"/><polygon class="cls-3" points="1758.744 3292.699 1756.81 3298.327 1751.157 3296.55 1753.09 3290.625 1758.744 3292.699"/><polygon class="cls-3" points="1767.522 3305.141 1757.257 3301.881 1752.347 3315.658 1762.016 3315.658 1767.522 3305.141"/><polygon class="cls-3" points="1762.612 3320.102 1762.909 3334.175 1748.626 3334.323 1749.073 3321.138 1762.612 3320.102"/><polygon class="cls-3" points="1807.093 3289.142 1803.821 3289.883 1804.861 3295.66 1808.73 3295.069 1807.093 3289.142"/><polygon class="cls-3" points="1669.036 3306.771 1666.358 3312.326 1656.986 3307.214 1659.664 3301.881 1669.036 3306.771"/><polygon class="cls-3" points="1652.076 3300.549 1652.522 3305.437 1643.15 3306.547 1642.48 3301.66 1652.076 3300.549"/><polygon class="cls-3" points="1638.464 3301.66 1639.356 3305.882 1634 3306.771 1632.885 3301.216 1638.464 3301.66"/><polygon class="cls-3" points="1639.356 3308.326 1640.026 3312.547 1635.787 3313.436 1634.224 3308.77 1639.356 3308.326"/><polygon class="cls-3" points="1637.795 3286.773 1637.571 3292.772 1632.439 3292.106 1632.885 3286.106 1637.795 3286.773"/><polygon class="cls-3" points="1480.917 3068.574 1485.158 3071.685 1478.685 3074.352 1476.454 3070.13 1480.917 3068.574"/><polygon class="cls-3" points="1475.116 3071.02 1477.124 3074.796 1466.189 3078.352 1465.073 3076.574 1475.116 3071.02"/><polygon class="cls-3" points="1478.909 3067.019 1466.636 3062.798 1464.85 3063.465 1469.314 3070.575 1478.909 3067.019"/><polygon class="cls-3" points="1463.288 3064.131 1467.304 3072.13 1462.842 3074.13 1458.379 3066.13 1463.288 3064.131"/><polygon class="cls-3" points="1463.288 3061.909 1459.494 3064.131 1431.824 3060.797 1432.047 3053.911 1463.288 3061.909"/><polygon class="cls-3" points="1455.478 3066.13 1434.725 3064.131 1431.377 3070.353 1447.891 3070.353 1455.478 3066.13"/><polygon class="cls-3" points="1473.553 3053.244 1473.553 3056.798 1469.537 3055.909 1473.553 3053.244"/><polygon class="cls-3" points="1473.553 3049.688 1470.652 3053.244 1457.486 3048.578 1458.602 3044.133 1473.553 3049.688"/><polygon class="cls-3" points="1469.09 3054.132 1467.974 3055.688 1455.701 3052.577 1457.039 3049.244 1469.09 3054.132"/><polygon class="cls-3" points="1456.594 3043.911 1453.916 3051.688 1448.784 3050.576 1449.452 3041.911 1456.594 3043.911"/><polygon class="cls-3" points="1442.758 3039.689 1441.865 3049.244 1432.493 3046.577 1435.171 3037.912 1442.758 3039.689"/><polygon class="cls-3" points="1433.385 3037.245 1430.93 3046.134 1426.245 3044.578 1428.922 3034.801 1433.385 3037.245"/><polygon class="cls-3" points="1426.021 3038.579 1424.683 3044.133 1415.31 3042.578 1415.98 3037.912 1426.021 3038.579"/><polygon class="cls-3" points="1480.397 3049.613 1481.737 3061.093 1486.869 3056.576 1480.397 3049.613"/><polygon class="cls-3" points="1487.984 3057.835 1483.522 3062.204 1490.217 3066.797 1493.712 3061.76 1487.984 3057.835"/><polygon class="cls-3" points="1495.35 3062.576 1491.852 3067.833 1494.827 3071.463 1499.738 3066.723 1495.35 3062.576"/><polygon class="cls-3" points="1497.358 3055.094 1493.489 3059.613 1486.496 3054.28 1480.693 3047.836 1488.133 3045.243 1497.358 3055.094"/><polygon class="cls-3" points="1487.093 3043.096 1484.041 3034.801 1482.63 3034.801 1480.472 3045.169 1487.093 3043.096"/><polygon class="cls-3" points="2040.215 3163.825 2038.132 3167.675 2025.041 3162.047 2027.421 3157.454 2033.818 3159.528 2040.215 3163.825"/><polygon class="cls-3" points="2024.148 3157.307 2022.214 3162.047 2008.23 3161.008 2009.271 3156.715 2024.148 3157.307"/><polygon class="cls-3" points="2001.535 3157.009 2001.088 3160.714 1992.608 3161.159 1992.162 3157.307 2001.535 3157.009"/><polygon class="cls-3" points="1990.675 3157.158 1990.824 3161.159 1979.517 3162.787 1979.517 3157.75 1990.675 3157.158"/><polygon class="cls-3" points="1972.377 3157.603 1972.525 3162.787 1962.26 3164.713 1961.814 3158.492 1972.377 3157.603"/><polygon class="cls-3" points="1973.566 3170.046 1974.459 3176.562 1964.045 3178.192 1963.153 3172.416 1973.566 3170.046"/><polygon class="cls-3" points="1982.195 3167.824 1983.385 3173.157 1977.137 3174.491 1975.947 3169.75 1982.195 3167.824"/><polygon class="cls-3" points="2002.726 3173.304 2003.469 3178.637 1997.072 3179.082 1996.625 3174.046 2002.726 3173.304"/><polygon class="cls-3" points="2012.098 3163.231 2011.949 3166.49 2008.082 3166.935 2008.082 3162.787 2012.098 3163.231"/><polygon class="cls-3" points="1994.246 3174.491 1995.138 3178.637 1988.741 3180.267 1987.402 3176.415 1994.246 3174.491"/><polygon class="cls-3" points="1445.584 3094.053 1439.04 3104.424 1435.023 3103.238 1440.08 3090.202 1445.584 3094.053"/><polygon class="cls-3" points="1437.403 3109.163 1433.238 3118.644 1428.922 3117.311 1432.345 3108.423 1437.403 3109.163"/><polygon class="cls-3" points="1432.047 3120.569 1427.882 3127.235 1423.269 3124.124 1426.393 3117.756 1432.047 3120.569"/><polygon class="cls-3" points="1449.007 3096.571 1453.617 3100.274 1448.412 3105.903 1444.245 3102.349 1449.007 3096.571"/><polygon class="cls-3" points="1364.803 2761.201 1368.522 2766.831 1374.473 2761.35 1370.605 2757.055 1364.803 2761.201"/><polygon class="cls-3" points="1369.118 2755.424 1363.762 2759.276 1356.919 2749.499 1361.828 2745.944 1369.118 2755.424"/><polygon class="cls-3" points="1382.507 2753.351 1375.365 2759.721 1372.093 2755.424 1378.342 2749.499 1382.507 2753.351"/><polygon class="cls-3" points="1351.86 2755.424 1357.067 2763.276 1352.306 2766.682 1347.099 2758.684 1351.86 2755.424"/><polygon class="cls-3" points="1361.828 2736.612 1365.993 2741.796 1356.175 2748.314 1352.753 2743.722 1361.828 2736.612"/><polygon class="cls-3" points="1445.584 2780.903 1445.732 2785.2 1437.849 2786.088 1437.699 2781.347 1445.584 2780.903"/><polygon class="cls-3" points="1434.872 2781.941 1435.319 2785.94 1427.881 2786.828 1427.584 2782.977 1434.872 2781.941"/><polygon class="cls-3" points="1435.914 2773.941 1436.361 2777.645 1429.369 2779.125 1428.772 2774.83 1435.914 2773.941"/><polygon class="cls-3" points="1918.076 3005.929 1922.37 3007.854 1918.934 3014.482 1913.781 3011.917 1918.076 3005.929"/><polygon class="cls-3" points="40.932 1239.843 35.353 1246.287 44.503 1251.175 47.626 1251.175 51.197 1246.731 40.932 1239.843"/><polygon class="cls-3" points="52.982 1247.176 48.519 1252.286 59.677 1259.174 62.578 1259.397 67.041 1254.731 52.982 1247.176"/><polygon class="cls-3" points="62.355 1261.618 64.363 1264.507 72.173 1258.063 68.602 1255.841 62.355 1261.618"/><polygon class="cls-3" points="35.576 1248.731 40.485 1256.73 44.725 1253.175 35.576 1248.731"/><polygon class="cls-3" points="34.238 1252.064 22.41 1259.619 26.426 1265.173 38.924 1257.841 34.238 1252.064"/><polygon class="cls-3" points="21.74 1248.064 15.716 1250.953 20.625 1258.286 33.122 1250.065 30.667 1245.62 21.74 1248.064"/><polygon class="cls-3" points="52.313 1222.734 47.849 1228.734 51.42 1231.4 56.329 1225.845 52.313 1222.734"/><polygon class="cls-3" points="57.669 1226.956 53.651 1232.733 57.891 1235.844 61.685 1230.066 57.669 1226.956"/><polygon class="cls-3" points="64.586 1228.734 59.007 1237.177 62.578 1239.399 68.381 1230.955 64.586 1228.734"/><polygon class="cls-3" points="70.165 1231.4 64.14 1239.843 68.157 1241.843 74.181 1233.621 70.165 1231.4"/><polygon class="cls-3" points="56.329 1216.957 53.428 1220.957 57.222 1223.845 60.57 1219.401 56.329 1216.957"/><polygon class="cls-3" points="62.801 1221.623 59.9 1224.734 63.025 1228.289 65.703 1223.845 62.801 1221.623"/><polygon class="cls-3" points="26.65 1210.402 24.196 1213.291 34.461 1220.401 37.138 1217.068 26.65 1210.402"/><polygon class="cls-3" points="39.816 1218.29 37.361 1222.068 40.932 1224.289 43.833 1220.29 39.816 1218.29"/><polygon class="cls-3" points="29.104 1230.733 24.865 1238.288 28.882 1239.621 34.46 1232.289 29.104 1230.733"/><polygon class="cls-3" points="15.493 1231.622 13.26 1235.621 21.294 1238.066 23.748 1234.066 15.493 1231.622"/><polygon class="cls-3" points="1378.813 2030.239 1384.392 2023.795 1375.242 2018.907 1372.119 2018.907 1368.548 2023.35 1378.813 2030.239"/><polygon class="cls-3" points="1366.763 2022.906 1371.226 2017.796 1360.068 2010.907 1357.166 2010.685 1352.704 2015.351 1366.763 2022.906"/><polygon class="cls-3" points="1357.39 2008.464 1355.382 2005.574 1347.571 2012.019 1351.142 2014.241 1357.39 2008.464"/><polygon class="cls-3" points="1384.168 2021.351 1379.259 2013.351 1375.02 2016.906 1384.168 2021.351"/><polygon class="cls-3" points="1385.506 2018.018 1397.334 2010.463 1393.318 2004.908 1380.821 2012.24 1385.506 2018.018"/><polygon class="cls-3" points="1398.004 2022.018 1404.028 2019.129 1399.119 2011.796 1386.623 2020.017 1389.077 2024.462 1398.004 2022.018"/><polygon class="cls-3" points="1367.431 2047.348 1371.895 2041.348 1368.324 2038.682 1363.415 2044.237 1367.431 2047.348"/><polygon class="cls-3" points="1362.076 2043.126 1366.093 2037.349 1361.854 2034.238 1358.059 2040.015 1362.076 2043.126"/><polygon class="cls-3" points="1355.158 2041.348 1360.737 2032.905 1357.166 2030.683 1351.364 2039.127 1355.158 2041.348"/><polygon class="cls-3" points="1349.579 2038.682 1355.605 2030.239 1351.587 2028.239 1345.563 2036.46 1349.579 2038.682"/><polygon class="cls-3" points="1453.569 2021.128 1456.247 2018.018 1452.453 2014.241 1449.999 2018.462 1453.569 2021.128"/><polygon class="cls-3" points="1457.809 2016.462 1461.826 2011.13 1458.256 2007.13 1453.346 2012.463 1457.809 2016.462"/><polygon class="cls-3" points="1462.941 2009.352 1469.859 2001.798 1465.619 1998.464 1459.371 2005.574 1462.941 2009.352"/><polygon class="cls-3" points="1458.032 2004.908 1456.024 2003.353 1459.818 1998.464 1464.28 1997.798 1458.032 2004.908"/><polygon class="cls-3" points="1439.734 2014.463 1438.171 2012.907 1445.758 2001.575 1448.436 2002.686 1444.42 2009.352 1439.734 2014.463"/><polygon class="cls-3" points="1450.222 1999.353 1453.792 1994.687 1458.256 1992.465 1454.015 1989.799 1447.544 1998.242 1450.222 1999.353"/><polygon class="cls-3" points="1444.196 1998.909 1442.635 1994.243 1432.592 1996.242 1433.708 2001.353 1444.196 1998.909"/><polygon class="cls-3" points="1435.047 2016.906 1432.592 2012.685 1424.559 2016.906 1425.898 2021.351 1435.047 2016.906"/><polygon class="cls-3" points="1423.89 2022.018 1421.881 2018.462 1408.716 2023.128 1410.054 2026.239 1423.89 2022.018"/><polygon class="cls-3" points="1363.415 2053.125 1366.316 2049.125 1362.522 2046.237 1359.174 2050.681 1363.415 2053.125"/><polygon class="cls-3" points="1356.943 2048.459 1359.844 2045.348 1356.72 2041.793 1354.042 2046.237 1356.943 2048.459"/><polygon class="cls-3" points="1417.642 2074.234 1421.435 2070.9 1417.642 2067.124 1411.617 2067.79 1417.642 2074.234"/><polygon class="cls-3" points="1415.41 2080.011 1416.303 2076.9 1409.831 2068.901 1406.706 2068.234 1408.046 2073.345 1411.394 2081.344 1415.41 2080.011"/><polygon class="cls-3" points="1405.815 2085.566 1409.831 2082.899 1406.706 2074.456 1402.69 2079.789 1405.815 2085.566"/><polygon class="cls-3" points="1400.905 2077.789 1405.368 2072.678 1405.368 2069.345 1388.631 2076.456 1390.64 2082.011 1400.905 2077.789"/><polygon class="cls-3" points="1401.129 2068.679 1412.732 2064.902 1388.186 2050.681 1385.953 2052.458 1399.566 2062.902 1401.129 2068.679"/><polygon class="cls-3" points="1399.119 2070.234 1398.004 2066.457 1388.186 2071.345 1389.524 2074.901 1399.119 2070.234"/><polygon class="cls-3" points="1389.747 2063.124 1392.202 2060.235 1381.937 2053.125 1379.259 2056.458 1389.747 2063.124"/><polygon class="cls-3" points="1379.929 2051.792 1382.384 2048.014 1378.813 2045.793 1375.911 2049.792 1379.929 2051.792"/><polygon class="cls-3" points="1390.64 2039.349 1394.88 2031.794 1390.862 2030.461 1385.285 2037.793 1390.64 2039.349"/><polygon class="cls-3" points="1404.252 2038.46 1406.484 2034.461 1398.451 2032.016 1395.996 2036.016 1404.252 2038.46"/><polygon class="cls-3" points="1416.748 2037.126 1421.435 2032.46 1419.873 2030.905 1414.294 2032.46 1410.724 2032.905 1416.748 2037.126"/><polygon class="cls-3" points="1418.981 2038.46 1423.443 2034.682 1436.163 2046.459 1432.592 2052.458 1418.981 2038.46"/><polygon class="cls-3" points="1430.138 2053.791 1422.774 2047.126 1416.079 2054.902 1422.774 2057.125 1428.576 2056.013 1430.138 2053.791"/><polygon class="cls-3" points="1414.517 2053.791 1419.426 2047.57 1403.36 2047.348 1414.517 2053.791"/><polygon class="cls-3" points="1420.096 2044.459 1412.732 2037.571 1409.384 2035.127 1401.574 2044.682 1420.096 2044.459"/><polygon class="cls-3" points="1468.52 1989.132 1467.182 1985.577 1458.256 1987.354 1459.594 1991.354 1468.52 1989.132"/><polygon class="cls-3" points="93.707 1687.46 98.952 1691.125 108.883 1684.349 104.195 1677.683 97.725 1679.683 93.707 1687.46"/><polygon class="cls-3" points="106.092 1677.572 109.998 1683.461 118.812 1680.461 116.357 1674.683 106.092 1677.572"/><polygon class="cls-3" points="119.371 1674.239 120.932 1679.683 127.849 1676.905 125.618 1672.461 119.371 1674.239"/><polygon class="cls-3" points="103.638 1697.274 108.1 1700.977 111.822 1698.311 108.994 1693.571 103.638 1697.274"/><polygon class="cls-3" points="110.333 1702.607 113.309 1699.941 118.367 1704.829 115.838 1708.087 110.333 1702.607"/><polygon class="cls-3" points="110.184 1692.681 113.755 1697.423 125.507 1693.867 122.681 1687.2 110.184 1692.681"/><polygon class="cls-3" points="125.061 1686.609 126.994 1692.237 132.648 1690.46 130.714 1684.535 125.061 1686.609"/><polygon class="cls-3" points="76.712 1683.052 79.984 1683.793 78.943 1689.57 75.074 1688.979 76.712 1683.052"/><polygon class="cls-3" points="214.768 1700.681 217.446 1706.236 226.818 1701.124 224.14 1695.791 214.768 1700.681"/><polygon class="cls-3" points="231.729 1694.459 231.282 1699.347 240.654 1700.457 241.324 1695.57 231.729 1694.459"/><polygon class="cls-3" points="245.34 1695.57 244.448 1699.792 249.804 1700.681 250.919 1695.126 245.34 1695.57"/><polygon class="cls-3" points="244.448 1702.236 243.779 1706.457 248.018 1707.346 249.581 1702.68 244.448 1702.236"/><polygon class="cls-3" points="246.01 1680.683 246.233 1686.682 251.365 1686.016 250.919 1680.016 246.01 1680.683"/><polygon class="cls-3" points="402.888 1462.484 398.647 1465.595 405.119 1468.262 407.35 1464.04 402.888 1462.484"/><polygon class="cls-3" points="408.688 1464.93 406.68 1468.706 417.615 1472.262 418.731 1470.484 408.688 1464.93"/><polygon class="cls-3" points="404.896 1460.929 417.168 1456.708 418.955 1457.375 414.491 1464.485 404.896 1460.929"/><polygon class="cls-3" points="420.516 1458.041 416.5 1466.04 420.963 1468.04 425.425 1460.04 420.516 1458.041"/><polygon class="cls-3" points="410.251 1447.154 410.251 1450.708 414.267 1449.819 410.251 1447.154"/><polygon class="cls-3" points="410.251 1443.598 413.152 1447.154 426.319 1442.488 425.202 1438.043 410.251 1443.598"/><polygon class="cls-3" points="414.714 1448.042 415.83 1449.598 428.103 1446.487 426.765 1443.154 414.714 1448.042"/><polygon class="cls-3" points="427.21 1437.821 429.888 1445.598 435.02 1444.486 434.352 1435.821 427.21 1437.821"/><polygon class="cls-3" points="441.046 1433.599 441.939 1443.154 451.311 1440.487 448.633 1431.822 441.046 1433.599"/><polygon class="cls-3" points="450.419 1431.155 452.874 1440.044 457.56 1438.488 454.882 1428.711 450.419 1431.155"/><polygon class="cls-3" points="403.407 1443.523 402.067 1455.003 396.935 1450.486 403.407 1443.523"/><polygon class="cls-3" points="395.82 1451.745 400.283 1456.114 393.587 1460.707 390.092 1455.67 395.82 1451.745"/><polygon class="cls-3" points="388.455 1456.486 391.953 1461.743 388.977 1465.373 384.067 1460.633 388.455 1456.486"/><polygon class="cls-3" points="386.447 1449.004 390.315 1453.523 397.309 1448.19 403.111 1441.746 395.671 1439.153 386.447 1449.004"/><polygon class="cls-3" points="396.712 1437.006 399.763 1428.711 401.174 1428.711 403.333 1439.079 396.712 1437.006"/><polygon class="cls-3" points="438.221 1487.963 444.764 1498.334 448.782 1497.148 443.724 1484.112 438.221 1487.963"/><polygon class="cls-3" points="446.402 1503.073 450.567 1512.554 454.882 1511.22 451.46 1502.333 446.402 1503.073"/><polygon class="cls-3" points="451.757 1514.479 455.923 1521.145 460.535 1518.034 457.411 1511.665 451.757 1514.479"/><polygon class="cls-3" points="909.342 1721.358 914.529 1730.321 918.67 1728.519 914.287 1720.064 909.342 1721.358"/><polygon class="cls-3" points="916.139 1732.269 920.304 1738.935 924.917 1735.825 921.792 1729.456 916.139 1732.269"/><polygon class="cls-3" points="434.797 1490.481 430.187 1494.184 435.393 1499.813 439.559 1496.259 434.797 1490.481"/><polygon class="cls-3" points="519.002 1155.111 515.282 1160.741 509.331 1155.26 513.2 1150.965 519.002 1155.111"/><polygon class="cls-3" points="514.687 1149.334 520.042 1153.186 526.885 1143.409 521.976 1139.854 514.687 1149.334"/><polygon class="cls-3" points="501.297 1147.261 508.439 1153.631 511.711 1149.334 505.462 1143.409 501.297 1147.261"/><polygon class="cls-3" points="531.945 1149.334 526.738 1157.186 531.498 1160.592 536.705 1152.594 531.945 1149.334"/><polygon class="cls-3" points="521.976 1130.522 517.811 1135.706 527.629 1142.224 531.052 1137.632 521.976 1130.522"/><polygon class="cls-3" points="438.221 1174.813 438.072 1179.11 445.955 1179.998 446.106 1175.257 438.221 1174.813"/><polygon class="cls-3" points="448.932 1175.851 448.486 1179.85 455.924 1180.738 456.22 1176.887 448.932 1175.851"/><polygon class="cls-3" points="447.89 1167.851 447.444 1171.555 454.435 1173.035 455.032 1168.74 447.89 1167.851"/><polygon class="cls-3" points="95.604 1486.947 91.31 1488.871 94.746 1495.5 99.899 1492.934 95.604 1486.947"/><polygon class="cls-3" points="1776.702 1544.674 1773.037 1549.919 1779.813 1559.85 1786.479 1555.162 1784.479 1548.692 1776.702 1544.674"/><polygon class="cls-3" points="1786.59 1557.059 1780.701 1560.965 1783.701 1569.779 1789.479 1567.324 1786.59 1557.059"/><polygon class="cls-3" points="1789.923 1570.338 1784.479 1571.899 1787.257 1578.816 1791.701 1576.585 1789.923 1570.338"/><polygon class="cls-3" points="1766.888 1554.605 1763.185 1559.067 1765.851 1562.789 1770.591 1559.961 1766.888 1554.605"/><polygon class="cls-3" points="1761.555 1561.3 1764.221 1564.276 1759.333 1569.334 1756.075 1566.805 1761.555 1561.3"/><polygon class="cls-3" points="1771.482 1561.151 1766.739 1564.722 1770.295 1576.474 1776.962 1573.648 1771.482 1561.151"/><polygon class="cls-3" points="1777.553 1576.028 1771.925 1577.961 1773.702 1583.615 1779.628 1581.681 1777.553 1576.028"/><polygon class="cls-3" points="1765.111 1567.25 1768.371 1577.515 1754.594 1582.424 1754.594 1572.756 1765.111 1567.25"/><polygon class="cls-3" points="1750.15 1572.159 1736.077 1571.863 1735.93 1586.145 1749.114 1585.699 1750.15 1572.159"/><polygon class="cls-3" points="1781.11 1527.679 1780.369 1530.95 1774.592 1529.91 1775.183 1526.041 1781.11 1527.679"/><polygon class="cls-3" points="1763.481 1665.735 1757.927 1668.413 1763.038 1677.785 1768.371 1675.107 1763.481 1665.735"/><polygon class="cls-3" points="1769.703 1682.696 1764.815 1682.249 1763.705 1691.621 1768.593 1692.291 1769.703 1682.696"/><polygon class="cls-3" points="1768.593 1696.307 1764.37 1695.415 1763.481 1700.771 1769.036 1701.886 1768.593 1696.307"/><polygon class="cls-3" points="1761.926 1695.415 1757.705 1694.745 1756.816 1698.985 1761.482 1700.548 1761.926 1695.415"/><polygon class="cls-3" points="1783.479 1696.977 1777.48 1697.2 1778.146 1702.332 1784.146 1701.886 1783.479 1696.977"/><polygon class="cls-3" points="1494.989 2492.975 1488.826 2493.178 1489.711 2503.816 1495.671 2503.524 1494.989 2492.975"/><polygon class="cls-3" points="1496.758 2505.99 1492.345 2508.139 1496.249 2516.731 1500.777 2514.773 1496.758 2505.99"/><polygon class="cls-3" points="1508.33 2500.09 1508.333 2504.998 1517.767 2505.246 1517.987 2500.317 1508.33 2500.09"/><polygon class="cls-3" points="1501.666 2520.31 1497.432 2519.471 1496.61 2524.837 1502.178 2525.883 1501.666 2520.31"/><polygon class="cls-3" points="1494.989 2519.501 1490.76 2518.884 1489.924 2523.134 1494.609 2524.639 1494.989 2519.501"/><polygon class="cls-3" points="1519.154 2516.89 1513.158 2516.569 1513.358 2521.741 1519.373 2521.84 1519.154 2516.89"/><polygon class="cls-3" points="1432.866 3818.315 1433.019 3824.479 1443.664 3823.68 1443.42 3817.717 1432.866 3818.315"/><polygon class="cls-3" points="1469.037 3803.052 1470.964 3807.566 1479.739 3804.094 1478.009 3799.474 1469.037 3803.052"/><polygon class="cls-3" points="1456.808 3803.156 1456.81 3808.064 1466.245 3808.312 1466.464 3803.383 1456.808 3803.156"/><polygon class="cls-3" points="1438.623 3811.344 1442.866 3812.135 1443.626 3806.759 1438.047 3805.777 1438.623 3811.344"/><polygon class="cls-3" points="1434.769 3807.195 1430.496 3807.284 1430.373 3811.614 1435.243 3812.325 1434.769 3807.195"/><polygon class="cls-3" points="1466.244 3816.603 1460.249 3816.282 1460.448 3821.453 1466.464 3821.552 1466.244 3816.603"/><polygon class="cls-3" points="2001.678 1853.855 1998.567 1849.614 1995.9 1856.086 2000.123 1858.317 2001.678 1853.855"/><polygon class="cls-3" points="1999.232 1859.655 1995.456 1857.647 1991.9 1868.582 1993.678 1869.698 1999.232 1859.655"/><polygon class="cls-3" points="2003.233 1855.863 2007.454 1868.135 2006.787 1869.922 1999.677 1865.458 2003.233 1855.863"/><polygon class="cls-3" points="2006.121 1871.483 1998.122 1867.467 1996.122 1871.93 2004.122 1876.392 2006.121 1871.483"/><polygon class="cls-3" points="2008.343 1871.483 2006.121 1875.277 2009.455 1902.948 2016.342 1902.724 2008.343 1871.483"/><polygon class="cls-3" points="2004.122 1879.294 2006.121 1900.047 1999.899 1903.394 1999.899 1886.881 2004.122 1879.294"/><polygon class="cls-3" points="2017.008 1861.218 2013.454 1861.218 2014.343 1865.234 2017.008 1861.218"/><polygon class="cls-3" points="2020.564 1861.218 2017.008 1864.119 2021.674 1877.286 2026.119 1876.169 2020.564 1861.218"/><polygon class="cls-3" points="2016.12 1865.681 2014.564 1866.797 2017.675 1879.07 2021.008 1877.732 2016.12 1865.681"/><polygon class="cls-3" points="2026.341 1878.177 2018.564 1880.855 2019.676 1885.987 2028.341 1885.319 2026.341 1878.177"/><polygon class="cls-3" points="2030.563 1892.013 2021.008 1892.906 2023.675 1902.278 2032.34 1899.6 2030.563 1892.013"/><polygon class="cls-3" points="2033.007 1901.386 2024.118 1903.841 2025.674 1908.527 2035.451 1905.849 2033.007 1901.386"/><polygon class="cls-3" points="2031.674 1908.75 2026.119 1910.088 2027.674 1919.462 2032.34 1918.792 2031.674 1908.75"/><polygon class="cls-3" points="2020.639 1854.374 2009.159 1853.034 2013.676 1847.902 2020.639 1854.374"/><polygon class="cls-3" points="2012.417 1846.787 2008.048 1851.25 2003.455 1844.554 2008.492 1841.059 2012.417 1846.787"/><polygon class="cls-3" points="2007.676 1839.422 2002.419 1842.92 1998.789 1839.944 2003.529 1835.033 2007.676 1839.422"/><polygon class="cls-3" points="2015.158 1837.414 2010.64 1841.282 2015.972 1848.276 2022.416 1854.078 2025.009 1846.638 2015.158 1837.414"/><polygon class="cls-3" points="2027.156 1847.679 2035.451 1850.73 2035.451 1852.141 2025.083 1854.3 2027.156 1847.679"/><polygon class="cls-3" points="1906.427 1294.556 1902.577 1296.639 1908.205 1309.73 1912.798 1307.351 1910.725 1300.953 1906.427 1294.556"/><polygon class="cls-3" points="1912.945 1310.623 1908.205 1312.558 1909.244 1326.542 1913.538 1325.501 1912.945 1310.623"/><polygon class="cls-3" points="1913.243 1333.236 1909.538 1333.683 1909.093 1342.163 1912.945 1342.609 1913.243 1333.236"/><polygon class="cls-3" points="1913.094 1344.096 1909.093 1343.948 1907.465 1355.254 1912.502 1355.254 1913.094 1344.096"/><polygon class="cls-3" points="1912.649 1362.394 1907.465 1362.246 1905.539 1372.511 1911.76 1372.958 1912.649 1362.394"/><polygon class="cls-3" points="1900.206 1361.205 1893.69 1360.312 1892.06 1370.727 1897.836 1371.619 1900.206 1361.205"/><polygon class="cls-3" points="1902.428 1352.576 1897.095 1351.386 1895.762 1357.634 1900.502 1358.824 1902.428 1352.576"/><polygon class="cls-3" points="1896.948 1332.046 1891.615 1331.302 1891.17 1337.7 1896.207 1338.146 1896.948 1332.046"/><polygon class="cls-3" points="1907.021 1322.674 1903.762 1322.823 1903.317 1326.69 1907.465 1326.69 1907.021 1322.674"/><polygon class="cls-3" points="1895.762 1340.526 1891.615 1339.633 1889.985 1346.03 1893.837 1347.369 1895.762 1340.526"/><polygon class="cls-3" points="1934.351 1054.518 1929.24 1054.071 1927.241 1061.435 1929.685 1064.56 1933.906 1062.552 1934.351 1054.518"/><polygon class="cls-3" points="1927.02 1065.898 1923.909 1062.328 1918.576 1068.13 1922.575 1072.147 1927.02 1065.898"/><polygon class="cls-3" points="1920.575 1074.155 1917.687 1069.915 1911.909 1072.37 1913.91 1077.949 1920.575 1074.155"/><polygon class="cls-3" points="1922.13 1080.18 1917.242 1081.519 1918.798 1087.321 1923.242 1085.09 1922.13 1080.18"/><polygon class="cls-3" points="1935.24 1084.644 1929.907 1085.313 1929.685 1089.776 1935.24 1089.107 1935.24 1084.644"/><polygon class="cls-3" points="1943.905 1069.023 1940.573 1068.353 1939.239 1072.147 1943.239 1073.485 1943.905 1069.023"/><rect class="cls-3" x="1938.952" y="1052.142" width="5.907" height="4.751" transform="translate(541.136 2763.567) rotate(-79.165)"/><polygon class="cls-3" points="1869.247 1228.131 1865.47 1225.453 1862.804 1229.693 1866.803 1232.371 1869.247 1228.131"/><polygon class="cls-3" points="1866.136 1235.049 1862.582 1232.817 1859.026 1240.851 1863.026 1242.413 1866.136 1235.049"/><polygon class="cls-3" points="1872.803 1206.262 1869.692 1207.378 1872.136 1216.751 1875.914 1214.965 1872.803 1206.262"/><polygon class="cls-3" points="1871.691 1201.799 1868.359 1203.585 1864.581 1196.443 1868.137 1193.766 1871.691 1201.799"/><polygon class="cls-3" points="1863.471 1195.104 1856.137 1193.096 1857.693 1187.517 1865.47 1188.633 1863.471 1195.104"/><polygon class="cls-3" points="1862.359 1211.172 1857.916 1213.403 1860.582 1219.874 1864.359 1218.312 1862.359 1211.172"/><polygon class="cls-3" points="1876.357 1233.04 1872.581 1231.256 1870.359 1235.942 1874.58 1238.173 1876.357 1233.04"/><polygon class="cls-3" points="1874.137 1182.385 1868.58 1185.955 1872.581 1195.104 1878.803 1192.427 1874.137 1182.385"/><polygon class="cls-3" points="1879.246 1196.22 1874.358 1197.782 1877.247 1206.262 1882.135 1204.924 1879.246 1196.22"/><polygon class="cls-3" points="1976.199 1889.188 1965.828 1895.731 1967.014 1899.749 1980.05 1894.691 1976.199 1889.188"/><polygon class="cls-3" points="1961.089 1897.369 1951.608 1901.534 1952.942 1905.849 1961.829 1902.427 1961.089 1897.369"/><polygon class="cls-3" points="1949.684 1902.724 1943.017 1906.889 1946.128 1911.502 1952.497 1908.378 1949.684 1902.724"/><polygon class="cls-3" points="1973.681 1885.764 1969.978 1881.154 1964.349 1886.36 1967.903 1890.526 1973.681 1885.764"/><polygon class="cls-3" points="462.515 1501.674 466.326 1499.685 463.211 1492.388 459.013 1494.595 462.515 1501.674"/><polygon class="cls-3" points="458.135 1491.844 461.835 1490.26 458.94 1483.351 455.443 1484.992 458.135 1491.844"/><polygon class="cls-3" points="451.69 1496.695 455.132 1495.257 452.972 1488.445 448.941 1490.044 451.69 1496.695"/><polygon class="cls-3" points="2032.618 1440.573 2030.693 1436.279 2024.065 1439.715 2026.63 1444.868 2032.618 1440.573"/><rect class="cls-3" x="1133.641" y="1147.732" width="5.24" height="10.261"/><rect class="cls-3" x="1127.965" y="1136.598" width="11.134" height="5.895"/><rect class="cls-3" x="1113.557" y="1136.379" width="9.606" height="6.768"/><rect class="cls-3" x="956.235" y="1377.613" width="9.606" height="5.183" transform="translate(-238.393 201.254) rotate(-10.644)"/><rect class="cls-3" x="944.449" y="1374.97" width="5.322" height="9.606" transform="translate(-670.361 1809.397) rotate(-70.408)"/><rect class="cls-3" x="932.501" y="1370.493" width="4.97" height="9.606" transform="translate(-589.859 2038.987) rotate(-79.312)"/><rect class="cls-3" x="914.163" y="1368.264" width="8.237" height="5.394" transform="translate(-599.161 2019.145) rotate(-79.316)"/><rect class="cls-3" x="1231.554" y="997.78" width="5.394" height="8.238" transform="translate(-27.391 34.72) rotate(-1.594)"/><rect class="cls-3" x="1223.731" y="1037.042" width="5.394" height="8.237" transform="translate(-331.915 641.527) rotate(-25.946)"/><rect class="cls-3" x="1219.129" y="1039.002" width="5.394" height="3.461" transform="translate(-332.192 639.471) rotate(-25.946)"/><rect class="cls-3" x="324.841" y="1239.334" width="5.394" height="8.237" transform="translate(-657.704 417.163) rotate(-35.258)"/><rect class="cls-3" x="329.451" y="1241.399" width="5.394" height="3.461" transform="translate(-656.672 419.765) rotate(-35.258)"/><rect class="cls-3" x="1246.977" y="948.852" width="5.394" height="8.238" transform="translate(-318.129 1061.757) rotate(-41.298)"/><rect class="cls-3" x="924.218" y="1387.103" width="5.912" height="5.034" transform="matrix(0.084, -0.996, 0.996, 0.084, -535.673, 2196.325)"/><rect class="cls-3" x="942.698" y="1391.85" width="4.851" height="4.672" transform="translate(-523.89 2218.208) rotate(-85.156)"/><rect class="cls-3" x="944.327" y="1399.692" width="3.881" height="6.563" transform="translate(-615.822 752.104) rotate(-33.382)"/><rect class="cls-3" x="932.724" y="1398.853" width="3.881" height="4.721" transform="matrix(0.865, -0.503, 0.503, 0.865, -577.619, 659.597)"/><rect class="cls-3" x="1006.737" y="1486.929" width="4.721" height="3.881" transform="translate(-731.176 1943.248) rotate(-70.505)"/><rect class="cls-3" x="1333.421" y="1459.798" width="3.881" height="4.72" transform="translate(-642.313 1362.657) rotate(-44.715)"/><rect class="cls-3" x="1353.53" y="1488.878" width="3.881" height="4.72" transform="translate(-597.102 992.688) rotate(-33.407)"/><rect class="cls-3" x="1341.596" y="1451.349" width="3.882" height="4.72" transform="translate(-634.002 1365.964) rotate(-44.715)"/><rect class="cls-3" x="1378.543" y="1502.736" width="6.536" height="11.872" transform="translate(-578.561 923.491) rotate(-30.892)"/><rect class="cls-3" x="1369.434" y="1471.76" width="6.537" height="11.872" transform="translate(-563.899 914.25) rotate(-30.887)"/><rect class="cls-3" x="1343.918" y="1475.488" width="6.537" height="11.872" transform="translate(-610.382 1060.171) rotate(-35.573)"/><rect class="cls-3" x="1357.049" y="1496.45" width="6.537" height="11.872" transform="translate(-511.843 726.085) rotate(-25.32)"/><rect class="cls-3" x="1014.788" y="1489.234" width="3.881" height="4.721" transform="translate(-713.37 2006.715) rotate(-72.301)"/><rect class="cls-3" x="934.581" y="1758.699" width="4.721" height="3.881" transform="translate(-962.066 1151.146) rotate(-44.186)"/><rect class="cls-3" x="941.588" y="1755.694" width="10.128" height="4.868" transform="translate(-156.21 93.538) rotate(-5.226)"/><rect class="cls-3" x="940.634" y="1764.105" width="3.881" height="4.721" transform="translate(-982.7 1216.77) rotate(-45.981)"/><rect class="cls-3" x="1039.297" y="1531.283" width="3.881" height="8.978" transform="translate(-749.488 1049.898) rotate(-40.683)"/><rect class="cls-3" x="1040.864" y="1535.067" width="6.535" height="3.569" transform="translate(-749.479 1051.998) rotate(-40.681)"/><rect class="cls-3" x="1813.947" y="3834.323" width="3.881" height="4.721" transform="translate(-124.02 61.191) rotate(-1.867)"/><rect class="cls-3" x="1806.64" y="3844.189" width="3.881" height="4.721" transform="translate(-1975.219 1910.117) rotate(-37.716)"/><rect class="cls-3" x="1801.161" y="3836.168" width="3.881" height="4.721" transform="translate(-1323.822 973.599) rotate(-22.342)"/><rect class="cls-3" x="1821.626" y="3834.501" width="4.721" height="3.881" transform="translate(-241.325 124.34) rotate(-3.662)"/><rect class="cls-3" x="1826.336" y="3845.271" width="3.881" height="8.978" transform="translate(-2338.073 2952.666) rotate(-52.445)"/><rect class="cls-3" x="1828.063" y="3848.442" width="6.535" height="3.569" transform="translate(-2337.226 2955.157) rotate(-52.444)"/><rect class="cls-3" x="1118.578" y="1146.422" width="6.768" height="13.755"/><rect class="cls-3" x="1114.37" y="1156.035" width="10.6" height="5.484" transform="translate(-242.812 298.504) rotate(-13.715)"/><rect class="cls-3" x="1120.308" y="1169.499" width="7.528" height="5.484" transform="translate(-245.883 299.939) rotate(-13.715)"/><rect class="cls-3" x="1129.93" y="1121.533" width="9.824" height="6.986"/><rect class="cls-3" x="1119.233" y="1121.315" width="7.859" height="7.205"/><rect class="cls-3" x="1099.911" y="1119.896" width="5.24" height="7.204" transform="translate(-187.325 2025.769) rotate(-80.513)"/><rect class="cls-3" x="1132.332" y="1109.089" width="6.985" height="9.17"/><rect class="cls-3" x="1131.677" y="1099.046" width="7.204" height="3.931"/><rect class="cls-3" x="1124.909" y="1096.644" width="4.366" height="6.768"/><rect class="cls-3" x="1147.942" y="1121.642" width="5.458" height="5.896"/><rect class="cls-3" x="1153.728" y="1114.372" width="4.367" height="4.717"/><rect class="cls-3" x="1149.361" y="1102.103" width="6.331" height="10.042"/><rect class="cls-3" x="1133.205" y="1167.6" width="4.804" height="8.077"/><rect class="cls-3" x="1147.833" y="1164.979" width="6.768" height="6.113"/><rect class="cls-3" x="1145.213" y="1180.044" width="6.549" height="4.803" transform="translate(-241.374 2068.723) rotate(-78.359)"/><rect class="cls-3" x="1095.029" y="1294.706" width="6.55" height="4.803" transform="translate(-600.068 1362.651) rotate(-51.954)"/><rect class="cls-3" x="1147.833" y="1136.816" width="5.458" height="7.205"/><path class="cls-3" d="M1242.745,948.053a2.556,2.556,0,1,1,2.556,2.556A2.556,2.556,0,0,1,1242.745,948.053Z"/><rect class="cls-3" x="352.793" y="341.937" width="5.24" height="10.261"/><rect class="cls-3" x="347.117" y="330.803" width="11.134" height="5.895"/><rect class="cls-3" x="332.709" y="330.585" width="9.606" height="6.768"/><rect class="cls-3" x="175.387" y="571.818" width="9.606" height="5.183" transform="translate(-102.995 43.165) rotate(-10.644)"/><rect class="cls-3" x="163.601" y="569.175" width="5.322" height="9.606" transform="translate(-430.236 538.153) rotate(-70.408)"/><rect class="cls-3" x="151.653" y="564.698" width="4.97" height="9.606" transform="translate(-434.071 615.34) rotate(-79.312)"/><rect class="cls-3" x="133.315" y="562.469" width="8.237" height="5.394" transform="translate(-443.415 595.434) rotate(-79.316)"/><rect class="cls-3" x="450.706" y="191.985" width="5.394" height="8.238" transform="translate(-5.279 12.688) rotate(-1.594)"/><rect class="cls-3" x="442.883" y="231.247" width="5.394" height="8.237" transform="translate(-58.067 218.673) rotate(-25.946)"/><rect class="cls-3" x="438.281" y="233.207" width="5.394" height="3.461" transform="translate(-58.343 216.617) rotate(-25.946)"/><rect class="cls-3" x="143.37" y="581.308" width="5.912" height="5.034" transform="matrix(0.084, -0.996, 0.996, 0.084, -447.758, 680.404)"/><rect class="cls-3" x="161.85" y="586.055" width="4.851" height="4.672" transform="translate(-435.885 702.396) rotate(-85.156)"/><rect class="cls-3" x="163.479" y="593.897" width="3.881" height="6.563" transform="translate(-301.285 189.536) rotate(-33.382)"/><rect class="cls-3" x="151.876" y="593.058" width="3.881" height="4.721" transform="translate(-278.417 157.975) rotate(-30.172)"/><rect class="cls-3" x="225.889" y="681.134" width="4.721" height="3.881" transform="translate(-491.838 670.282) rotate(-70.505)"/><rect class="cls-3" x="552.573" y="654.003" width="3.881" height="4.72" transform="translate(-301.337 580.085) rotate(-44.715)"/><rect class="cls-3" x="560.748" y="645.554" width="3.882" height="4.72" transform="translate(-293.026 583.392) rotate(-44.715)"/><rect class="cls-3" x="597.695" y="696.941" width="6.536" height="11.872" transform="matrix(0.858, -0.513, 0.513, 0.858, -275.62, 408.266)"/><rect class="cls-3" x="588.586" y="665.965" width="6.537" height="11.872" transform="translate(-260.984 399.12) rotate(-30.887)"/><rect class="cls-3" x="233.94" y="683.439" width="3.881" height="4.721" transform="translate(-489.169 702.015) rotate(-72.301)"/><rect class="cls-3" x="258.449" y="725.488" width="3.881" height="8.978" transform="translate(-412.922 346.152) rotate(-40.683)"/><rect class="cls-3" x="260.016" y="729.272" width="6.535" height="3.569" transform="translate(-412.915 348.282) rotate(-40.681)"/><rect class="cls-3" x="337.73" y="340.627" width="6.768" height="13.755"/><rect class="cls-3" x="333.522" y="350.24" width="10.6" height="5.484" transform="translate(-74.028 90.396) rotate(-13.715)"/><rect class="cls-3" x="339.46" y="363.704" width="7.528" height="5.484" transform="translate(-77.096 91.826) rotate(-13.715)"/><rect class="cls-3" x="349.082" y="315.738" width="9.824" height="6.986"/><rect class="cls-3" x="338.385" y="315.52" width="7.859" height="7.205"/><rect class="cls-3" x="319.063" y="314.101" width="5.24" height="7.204" transform="matrix(0.165, -0.986, 0.986, 0.165, -44.696, 582.621)"/><rect class="cls-3" x="351.484" y="303.294" width="6.985" height="9.17"/><rect class="cls-3" x="350.829" y="293.251" width="7.204" height="3.931"/><rect class="cls-3" x="344.061" y="290.849" width="4.366" height="6.768"/><rect class="cls-3" x="367.094" y="315.847" width="5.458" height="5.896"/><rect class="cls-3" x="372.88" y="308.577" width="4.367" height="4.717"/><rect class="cls-3" x="368.513" y="296.309" width="6.331" height="10.042"/><rect class="cls-3" x="352.357" y="361.805" width="4.804" height="8.077"/><rect class="cls-3" x="366.985" y="359.184" width="6.768" height="6.113"/><rect class="cls-3" x="364.365" y="374.249" width="6.549" height="4.803" transform="translate(-75.445 660.73) rotate(-78.359)"/><rect class="cls-3" x="314.181" y="488.912" width="6.55" height="4.803" transform="translate(-265.108 438.525) rotate(-51.954)"/><rect class="cls-3" x="366.985" y="331.021" width="5.458" height="7.205"/><rect class="cls-3" x="731.998" y="2682.435" width="5.24" height="10.261"/><rect class="cls-3" x="726.322" y="2697.935" width="11.134" height="5.895"/><rect class="cls-3" x="711.913" y="2697.28" width="9.606" height="6.768"/><rect class="cls-3" x="556.802" y="2455.42" width="5.183" height="9.606" transform="translate(-1961.821 2555.582) rotate(-79.356)"/><rect class="cls-3" x="540.663" y="2457.994" width="9.606" height="5.322" transform="translate(-793.509 325.356) rotate(-19.592)"/><rect class="cls-3" x="528.539" y="2462.647" width="9.606" height="4.97" transform="translate(-447.949 141.687) rotate(-10.688)"/><rect class="cls-3" x="513.941" y="2465.348" width="5.394" height="8.237" transform="translate(-448.884 138.598) rotate(-10.684)"/><rect class="cls-3" x="828.488" y="2835.832" width="8.238" height="5.394" transform="translate(-2027.983 3591.856) rotate(-88.406)"/><rect class="cls-3" x="814.4" y="2836.21" width="5.394" height="8.238" transform="translate(-126.077 39.34) rotate(-2.561)"/><rect class="cls-3" x="811.622" y="2849.036" width="8.238" height="5.394" transform="translate(-124.843 38.707) rotate(-2.525)"/><rect class="cls-3" x="1207.67" y="2963.223" width="8.238" height="5.394" transform="translate(-1890.196 3767.671) rotate(-82.268)"/><rect class="cls-3" x="1192.197" y="2960.035" width="8.238" height="5.394" transform="matrix(0.204, -0.979, 0.979, 0.204, -1948.289, 3528.777)"/><rect class="cls-3" x="1190.138" y="2973.811" width="5.394" height="8.238" transform="translate(-1966.284 3535.505) rotate(-78.18)"/><rect class="cls-3" x="820.665" y="2796.57" width="8.237" height="5.394" transform="translate(-2053.201 2316.184) rotate(-64.054)"/><rect class="cls-3" x="818.452" y="2796.998" width="3.461" height="5.394" transform="translate(-2056.173 2312.287) rotate(-64.054)"/><rect class="cls-3" x="837.56" y="2880.653" width="3.461" height="5.394" transform="translate(-1916.4 1689.916) rotate(-50.354)"/><rect class="cls-3" x="843.912" y="2884.759" width="8.238" height="5.394" transform="translate(-1880.968 1618.943) rotate(-48.702)"/><rect class="cls-3" x="523.013" y="2447.852" width="5.034" height="5.912" transform="translate(-204.77 53.037) rotate(-4.837)"/><rect class="cls-3" x="541.144" y="2443.816" width="4.672" height="4.851" transform="translate(-204.622 54.629) rotate(-4.844)"/><rect class="cls-3" x="541.342" y="2435.513" width="6.563" height="3.881" transform="translate(-1790.369 1551.112) rotate(-56.618)"/><rect class="cls-3" x="530.661" y="2437.273" width="4.721" height="3.881" transform="translate(-1843.624 1674.077) rotate(-59.828)"/><rect class="cls-3" x="1609.6" y="2467.736" width="9.606" height="5.183" transform="translate(-1333.563 2605.647) rotate(-59.463)"/><rect class="cls-3" x="1613.934" y="2454.423" width="9.606" height="5.322" transform="translate(-846.84 4062.856) rotate(-89.698)"/><rect class="cls-3" x="1613.85" y="2441.675" width="9.606" height="4.97" transform="translate(-1052.962 3650.986) rotate(-80.795)"/><rect class="cls-3" x="1617.563" y="2422.859" width="5.394" height="8.237" transform="translate(-1034.733 3637.957) rotate(-80.791)"/><rect class="cls-3" x="1632.263" y="2438.732" width="5.034" height="5.912" transform="translate(-1147.757 3386.058) rotate(-74.943)"/><rect class="cls-3" x="1607.214" y="2435.535" width="5.034" height="5.912" transform="translate(-1163.212 3359.502) rotate(-74.943)"/><rect class="cls-3" x="1630.629" y="2457.695" width="4.672" height="4.851" transform="translate(-1166.782 3398.301) rotate(-74.951)"/><rect class="cls-3" x="1628.936" y="2465.552" width="4.672" height="4.851" transform="translate(-1175.623 3402.483) rotate(-74.951)"/><rect class="cls-3" x="1638.899" y="2460.905" width="3.881" height="6.563" transform="translate(-1147.841 1470.29) rotate(-36.725)"/><rect class="cls-3" x="1620.703" y="2420.56" width="4.721" height="3.881" transform="translate(-1033.358 3625.109) rotate(-80.535)"/><rect class="cls-3" x="1632.419" y="2431.005" width="4.721" height="3.881" transform="translate(-1033.871 3645.393) rotate(-80.535)"/><rect class="cls-3" x="1638.141" y="2446.938" width="3.881" height="4.721" transform="translate(-1185.38 1609.242) rotate(-39.635)"/><rect class="cls-3" x="605.513" y="2349.197" width="3.881" height="4.721" transform="translate(-749.943 337.532) rotate(-19.495)"/><rect class="cls-3" x="931.358" y="2376.329" width="4.72" height="3.881" transform="translate(-1413.265 1368.485) rotate(-45.285)"/><rect class="cls-3" x="939.534" y="2384.778" width="4.72" height="3.882" transform="translate(-1416.846 1376.799) rotate(-45.285)"/><rect class="cls-3" x="974.231" y="2328.488" width="11.872" height="6.536" transform="translate(-1524.034 1975.681) rotate(-59.108)"/><rect class="cls-3" x="965.123" y="2359.463" width="11.872" height="6.537" transform="translate(-1555.08 1983.16) rotate(-59.113)"/><rect class="cls-3" x="612.724" y="2346.893" width="4.721" height="3.881" transform="translate(-684.986 298.184) rotate(-17.699)"/><rect class="cls-3" x="1659.528" y="2043.629" width="4.721" height="3.881" transform="translate(-98.178 83.837) rotate(-2.807)"/><rect class="cls-3" x="1659.53" y="2035.117" width="3.881" height="4.721" transform="translate(-35.708 29.647) rotate(-1.011)"/><rect class="cls-3" x="635.105" y="2302.715" width="8.978" height="3.881" transform="translate(-1525.03 1287.346) rotate(-49.317)"/><rect class="cls-3" x="640.704" y="2300.309" width="3.569" height="6.535" transform="translate(-1523.232 1289.223) rotate(-49.319)"/><rect class="cls-3" x="408.856" y="2963.986" width="3.881" height="8.978" transform="translate(-977.691 312.783) rotate(-19.723)"/><rect class="cls-3" x="407.038" y="2969.74" width="6.535" height="3.569" transform="translate(-978.82 312.834) rotate(-19.725)"/><rect class="cls-3" x="716.934" y="2680.251" width="6.768" height="13.755"/><rect class="cls-3" x="715.284" y="2676.35" width="5.484" height="10.6" transform="translate(-2057.401 2743.407) rotate(-76.285)"/><rect class="cls-3" x="719.686" y="2664.423" width="5.484" height="7.528" transform="translate(-2040.963 2737.397) rotate(-76.285)"/><rect class="cls-3" x="728.287" y="2711.908" width="9.824" height="6.986"/><rect class="cls-3" x="717.589" y="2711.908" width="7.859" height="7.205"/><rect class="cls-3" x="697.286" y="2714.31" width="7.204" height="5.24" transform="matrix(0.986, -0.165, 0.165, 0.986, -438.232, 152.684)"/><rect class="cls-3" x="730.689" y="2722.169" width="6.985" height="9.17"/><rect class="cls-3" x="730.034" y="2737.451" width="7.204" height="3.931"/><rect class="cls-3" x="723.266" y="2737.015" width="4.366" height="6.768"/><rect class="cls-3" x="746.298" y="2712.889" width="5.458" height="5.896"/><rect class="cls-3" x="752.084" y="2721.339" width="4.367" height="4.717"/><rect class="cls-3" x="756.19" y="2686.236" width="4.367" height="4.717"/><rect class="cls-3" x="704.305" y="2694.223" width="4.717" height="4.367" transform="translate(-1692.312 1276.936) rotate(-44.702)"/><rect class="cls-3" x="747.718" y="2728.282" width="6.331" height="10.042"/><rect class="cls-3" x="731.561" y="2664.751" width="4.804" height="8.077"/><rect class="cls-3" x="746.189" y="2669.335" width="6.768" height="6.113"/><rect class="cls-3" x="756.779" y="2669.444" width="6.113" height="6.768" transform="translate(-1970.59 3188.708) rotate(-84.83)"/><rect class="cls-3" x="767.382" y="2669.771" width="6.768" height="6.113" transform="translate(-167.497 54.097) rotate(-3.626)"/><rect class="cls-3" x="746.558" y="2685.155" width="6.768" height="8.819" transform="translate(-3.437 0.961) rotate(-0.073)"/><rect class="cls-3" x="744.443" y="2654.707" width="4.803" height="6.549" transform="translate(-520.954 205.365) rotate(-11.641)"/><rect class="cls-3" x="694.258" y="2540.045" width="4.803" height="6.55" transform="translate(-1419.394 969.748) rotate(-38.046)"/><rect class="cls-3" x="746.189" y="2696.406" width="5.458" height="7.205"/></g></svg>