<?xml version="1.0" encoding="utf-8"?>
<!-- Generator: Adobe Illustrator 16.0.0, SVG Export Plug-In . SVG Version: 6.00 Build 0)  -->
<!DOCTYPE svg PUBLIC "-//W3C//DTD SVG 1.1//EN" "http://www.w3.org/Graphics/SVG/1.1/DTD/svg11.dtd">
<svg version="1.1" id="Layer_1" xmlns="http://www.w3.org/2000/svg" xmlns:xlink="http://www.w3.org/1999/xlink" x="0px" y="0px"
	 width="141.7px" height="141.7px" viewBox="0 0 141.7 141.7" enable-background="new 0 0 141.7 141.7" xml:space="preserve">
<g>
	<g>
		<rect x="62.227" y="15.319" fill="#FFFFFF" width="17.429" height="115.119"/>
		<path fill="#231F20" d="M77.383,17.592v110.574H64.5V17.592H77.383 M81.929,13.046h-4.546H64.5h-4.545v4.545v110.574v4.546H64.5
			h12.884h4.546v-4.546V17.592V13.046L81.929,13.046z"/>
	</g>
	<g>
		<rect x="80.41" y="45.773" fill="#FFFFFF" width="17.428" height="54.21"/>
		<path fill="#231F20" d="M95.565,48.046v49.665H82.682V48.046H95.565 M100.111,43.501h-4.546H82.682h-4.546v4.545v49.665v4.546
			h4.546h12.883h4.546v-4.546V48.046V43.501L100.111,43.501z"/>
	</g>
	<g>
		<rect x="44.045" y="45.773" fill="#FFFFFF" width="17.429" height="54.21"/>
		<path fill="#231F20" d="M59.201,48.046v49.665H46.318V48.046H59.201 M63.747,43.501h-4.545H46.318h-4.545v4.545v49.665v4.546
			h4.545h12.883h4.545v-4.546V48.046V43.501L63.747,43.501z"/>
	</g>
</g>
</svg>
