<svg width="256" height="256" viewBox="0 0 256 256" fill="none" xmlns="http://www.w3.org/2000/svg">
<g clip-path="url(#clip0_2293_81038)">
<path d="M65.5378 190.256L53.622 178.34L22.4424 218.06L30.1876 225.805L37.9329 233.749L77.6522 202.37L65.5378 190.256Z" fill="white"/>
<path d="M19.0684 227.998C21.4515 227.998 23.6361 228.991 25.4234 230.579C27.0122 232.168 28.0052 234.551 28.0052 236.935C28.0052 239.318 27.0122 241.502 25.4234 243.29C23.8347 244.879 21.4515 245.872 19.0684 245.872C16.6852 245.872 14.5006 244.879 12.7133 243.29C11.1245 241.701 10.1315 239.318 10.1315 236.935C10.1315 234.551 11.1245 232.367 12.7133 230.579C14.5006 228.792 16.6852 227.998 19.0684 227.998ZM19.0684 217.869C14.1034 217.869 9.33712 219.657 5.56379 223.43C-1.78428 230.778 -1.78428 242.893 5.56379 250.439C9.33712 254.213 14.1034 256 19.0684 256C24.0333 256 28.7996 254.213 32.5729 250.439C39.921 243.091 39.921 230.977 32.5729 223.43C28.7996 219.657 24.0333 217.869 19.0684 217.869Z" fill="white"/>
<path opacity="0.7" d="M85.1988 170.797L38.9258 138.028L78.4465 177.549L85.1988 170.797Z" fill="white"/>
<path opacity="0.2" d="M85.3968 170.995L78.6445 177.747L118.165 217.269L85.3968 170.995Z" fill="white"/>
<path d="M65.7949 190.058L78.4316 177.418L38.8255 137.823L26.1888 150.463L65.7949 190.058Z" fill="white"/>
<path opacity="0.4" d="M105.71 229.885L118.347 217.244L78.7405 177.649L66.1038 190.289L105.71 229.885Z" fill="white"/>
<path d="M0 0L57.1958 17.6753L180.723 152.921L163.445 163.447L0 0Z" fill="white"/>
<path opacity="0.4" d="M0 0L17.6751 57.1964L152.919 180.725L163.445 163.447L0 0Z" fill="white"/>
<path d="M91.5603 135.043L75.2754 152.917L92.5533 163.443L106.852 148.945L91.5603 135.043Z" fill="white"/>
<path d="M255.998 0L198.802 17.6753L133.066 89.3694L148.954 106.846L255.998 0Z" fill="white"/>
<path opacity="0.4" d="M92.5557 163.447L103.081 180.725L122.345 163.05L106.855 148.949L92.5557 163.447Z" fill="white"/>
<path opacity="0.4" d="M256.001 0L148.957 106.846L164.845 124.323L238.325 57.1964L256.001 0Z" fill="white"/>
<path d="M190.456 190.256L202.173 178.34L233.551 218.06L225.806 225.805L217.862 233.749L178.143 202.37L190.456 190.256Z" fill="white"/>
<path d="M236.93 227.998C239.313 227.998 241.497 228.991 243.285 230.579C244.874 232.168 245.867 234.551 245.867 236.935C245.867 239.318 244.874 241.502 243.285 243.29C241.696 244.879 239.313 245.872 236.93 245.872C234.547 245.872 232.362 244.879 230.575 243.29C228.986 241.701 227.993 239.318 227.993 236.935C227.993 234.551 228.986 232.367 230.575 230.579C232.163 228.792 234.547 227.998 236.93 227.998ZM236.93 217.869C231.965 217.869 227.198 219.657 223.425 223.43C216.077 230.778 216.077 242.893 223.425 250.439C227.198 254.213 231.965 256 236.93 256C241.895 256 246.661 254.213 250.434 250.439C257.782 243.091 257.782 230.977 250.434 223.43C246.661 219.657 241.696 217.869 236.93 217.869Z" fill="white"/>
<path d="M170.794 170.797L177.546 177.549L217.067 138.028L170.794 170.797Z" fill="white"/>
<path opacity="0.8" d="M170.595 170.995L137.826 217.269L177.347 177.747L170.595 170.995Z" fill="white"/>
<path opacity="0.7" d="M190.099 190.223L229.699 150.622L217.061 137.983L177.46 177.584L190.099 190.223Z" fill="white"/>
<path opacity="0.4" d="M189.862 190.416L177.222 177.777L137.762 217.244L150.402 229.882L189.862 190.416Z" fill="white"/>
</g>
<defs>
<clipPath id="clip0_2293_81038">
<rect width="256" height="256" fill="white"/>
</clipPath>
</defs>
</svg>
