<?xml version="1.0" encoding="iso-8859-1"?>
<!-- Generator: Adobe Illustrator 19.0.0, SVG Export Plug-In . SVG Version: 6.00 Build 0)  -->
<svg version="1.1" id="Layer_1" xmlns="http://www.w3.org/2000/svg" xmlns:xlink="http://www.w3.org/1999/xlink" x="0px" y="0px"
	 viewBox="0 0 512 512" style="enable-background:new 0 0 512 512;" xml:space="preserve">
<g>
	<g>
		<path fill="#ffffff" d="M477.576,229.429l0.043-0.043L345.664,96.226c-9.134-9.219-21.312-14.313-34.29-14.342c-0.039,0-0.076,0-0.115,0
			c-12.934,0-25.094,5.036-34.245,14.187l-16.12,16.122c-1.763,1.763-3.823,2.026-4.893,2.026s-3.13-0.263-4.892-2.026
			L234.987,96.07c-9.151-9.15-21.309-14.185-34.243-14.185c-0.039,0-0.078,0-0.115,0c-12.979,0.029-25.157,5.123-34.29,14.342
			L34.384,229.386l0.043,0.043C13.165,250.722,0,280.098,0,312.494c0,64.857,52.765,117.622,117.622,117.622
			c45.947,0,85.799-26.497,105.147-64.999c9.624,6.1,21.018,9.648,33.232,9.648c12.213,0,23.607-3.548,33.232-9.648
			c19.348,38.502,59.2,64.999,105.147,64.999C459.235,430.115,512,377.35,512,312.494C512,280.098,498.835,250.722,477.576,229.429z
			 M117.622,388.602c-41.966,0-76.108-34.142-76.108-76.108s34.142-76.108,76.108-76.108s76.108,34.142,76.108,76.108
			S159.588,388.602,117.622,388.602z M256,340.169c-15.285,0-27.676-12.39-27.676-27.676s12.39-27.676,27.676-27.676
			s27.676,12.39,27.676,27.676S271.285,340.169,256,340.169z M394.378,388.602c-41.966,0-76.108-34.142-76.108-76.108
			s34.142-76.108,76.108-76.108c41.966,0,76.108,34.142,76.108,76.108S436.344,388.602,394.378,388.602z"/>
	</g>
</g>
</svg>
