<svg id="Layer_2" data-name="Layer 2" xmlns="http://www.w3.org/2000/svg" viewBox="0 0 45.483 44.3"><defs><style>.cls-1{fill:#998551;}.cls-2{fill:#e3cd83;}.cls-3{fill:#e6dcbc;}</style></defs><polygon class="cls-1" points="24.571 37.541 25.83 36.94 25.83 22.38 24.571 21.445 24.571 37.541"/><polygon class="cls-1" points="24.054 39.138 24.054 17.605 21.816 15.018 21.816 43.753 24.054 39.138"/><polygon class="cls-1" points="30.025 34.936 30.025 25.497 26.346 22.764 26.346 36.693 30.025 34.936"/><polygon class="cls-1" points="27.296 16.814 30.025 18.885 30.025 15.931 27.296 16.814"/><polygon class="cls-1" points="34.221 14.572 30.542 15.764 30.542 19.277 34.221 22.07 34.221 14.572"/><polygon class="cls-1" points="34.221 32.933 34.221 28.615 30.542 25.881 30.542 34.69 34.221 32.933"/><polygon class="cls-1" points="37.758 31.243 34.737 28.998 34.737 32.686 37.758 31.243"/><polygon class="cls-1" points="34.737 14.405 34.737 22.462 37.771 24.765 37.771 13.423 34.737 14.405"/><polygon class="cls-1" points="38.287 13.256 38.287 25.157 40.134 26.559 40.863 12.422 38.287 13.256"/><polygon class="cls-1" points="45.125 6.922 22.008 14.45 24.396 17.211 42.156 11.46 45.125 6.922"/><polygon class="cls-1" points="39.307 31.751 41.071 30.908 41.22 28.031 26.697 17.008 24.571 17.697 24.571 20.802 39.307 31.751"/><polygon class="cls-1" points="24.505 39.392 22.126 44.3 43.692 33.348 41.285 31.379 24.505 39.392"/><polygon class="cls-1" points="42.576 11.761 41.586 30.958 43.933 32.878 45.428 7.402 42.884 11.29 42.576 11.761"/><polygon class="cls-1" points="21.859 13.193 21.858 13.955 45.481 6.263 45.483 5.6 21.859 13.193"/><polygon class="cls-1" points="29.951 10.021 29.952 9.368 26.508 10.47 26.509 11.127 29.951 10.021"/><polygon class="cls-1" points="41.666 6.254 41.669 5.58 38.223 6.672 38.225 7.361 41.666 6.254"/><polygon class="cls-2" points="17.723 36.947 18.811 37.522 18.811 21.478 17.723 22.372 17.723 36.947"/><polygon class="cls-2" points="19.327 39.143 21.3 43.646 21.3 15.074 19.327 17.598 19.327 39.143"/><polygon class="cls-2" points="13.93 34.943 17.206 36.674 17.206 22.797 13.93 25.49 13.93 34.943"/><polygon class="cls-2" points="13.93 15.942 13.93 18.852 16.359 16.812 13.93 15.942"/><polygon class="cls-2" points="10.138 14.584 10.138 22.037 13.414 19.285 13.414 15.757 10.138 14.584"/><polygon class="cls-2" points="10.138 32.94 13.414 34.671 13.414 25.914 10.138 28.607 10.138 32.94"/><polygon class="cls-2" points="9.621 32.667 9.621 29.031 6.928 31.245 9.621 32.667"/><polygon class="cls-2" points="9.621 14.399 6.928 13.435 6.928 24.731 9.621 22.47 9.621 14.399"/><polygon class="cls-2" points="6.412 13.249 4.134 12.434 4.791 26.526 6.412 25.165 6.412 13.249"/><polygon class="cls-2" points="2.965 11.466 18.981 17.203 21.136 14.446 0.286 6.935 2.965 11.466"/><polygon class="cls-2" points="18.811 17.691 16.922 17.014 3.811 28.024 3.946 30.916 5.51 31.742 18.811 20.809 18.811 17.691"/><polygon class="cls-2" points="18.868 39.384 3.734 31.388 1.567 33.349 21.012 44.275 18.868 39.384"/><polygon class="cls-2" points="2.535 11.754 0.011 7.487 1.357 32.843 3.431 30.965 2.535 11.754"/><polygon class="cls-2" points="8.089 8.458 4.345 7.127 4.345 7.837 8.089 9.186 8.089 8.458"/><polygon class="cls-2" points="3.828 6.943 0 5.581 0.002 6.272 3.828 7.651 3.828 6.943"/><polygon class="cls-2" points="17.728 11.887 17.728 12.659 21.302 13.947 21.3 13.172 17.728 11.887"/><polygon class="cls-2" points="17.212 11.703 13.038 10.218 13.038 10.969 17.212 12.473 17.212 11.703"/><polygon class="cls-2" points="12.522 10.783 12.522 10.035 8.605 8.642 8.605 9.372 12.522 10.783"/><polygon class="cls-2" points="4.648 3.251 4.65 3.881 25.989 11.171 25.99 10.465 4.648 3.251"/><polygon class="cls-2" points="15.757 0.676 15.759 1.315 37.694 7.447 37.695 6.716 15.757 0.676"/><polygon class="cls-3" points="4.398 4.34 0.663 5.187 4.05 6.407 7.672 5.459 4.398 4.34"/><polygon class="cls-3" points="22.904 3.849 19.498 2.897 14.904 4.099 18.335 5.141 22.904 3.849"/><polygon class="cls-3" points="16.471 8.465 12.85 7.228 9.195 8.261 12.767 9.548 16.471 8.465"/><polygon class="cls-3" points="27.685 5.185 23.859 4.116 19.25 5.418 22.997 6.556 27.685 5.185"/><path class="cls-3" d="M32.489,11.707a.246.246,0,0,1,.141.045.258.258,0,0,1,.1.209l0,.85,6.475-2.081-3.528-.986L30.9,11.223Z" transform="translate(-2.265 -2.956)"/><polygon class="cls-3" points="17.32 8.755 13.591 9.845 17.37 11.207 21.112 10.05 17.32 8.755"/><polygon class="cls-3" points="18.512 2.621 15.588 1.804 10.868 2.874 13.96 3.813 18.512 2.621"/><polygon class="cls-3" points="34.498 3.192 34.776 3.111 30.637 2.2 30.487 2.242 34.498 3.192"/><polygon class="cls-3" points="23.9 6.83 27.748 7.999 32.496 6.53 28.625 5.448 23.9 6.83"/><path class="cls-3" d="M44.248,7.923a.252.252,0,0,1,.16.121.165.165,0,0,1,.018.032l0,.013a.256.256,0,0,1,.02.095l0,.86,2.483-.8-3.743-.824-.456.141Z" transform="translate(-2.265 -2.956)"/><polygon class="cls-3" points="39.477 4.372 39.902 4.24 35.826 3.343 35.515 3.433 39.477 4.372"/><polygon class="cls-3" points="11.991 6.934 8.557 5.761 4.908 6.717 8.36 7.96 11.991 6.934"/><polygon class="cls-3" points="29.454 1.997 29.57 1.965 26.01 1.181 26.01 1.181 29.454 1.997"/><polygon class="cls-3" points="25.353 11.499 21.943 10.334 18.178 11.498 21.586 12.71 25.353 11.499"/><polygon class="cls-3" points="7.71 2.455 5.387 2.927 26.24 9.987 29.318 9.015 7.71 2.455"/><polygon class="cls-3" points="18.787 0 16.67 0.386 37.954 6.212 40.96 5.255 18.787 0"/></svg>