<svg width="24" height="24" xmlns="http://www.w3.org/2000/svg">

 <g>
  <title>background</title>
  <rect fill="none" id="canvas_background" height="402" width="582" y="-1" x="-1"/>
 </g>
 <g>
  <title>Layer 1</title>
  <path stroke="null" id="svg_1" fill="#fff" d="m21.02989,6.20559l-6.0084,5.48863l-1.29705,-1.41865l-1.30301,-1.4258l5.37299,-5.87965l4.67559,-1.44011l-1.44011,4.67559zm-6.13358,8.69073l-0.86073,1.41865l-11.06428,-10.10938l-1.4413,-4.67559l4.67559,1.44011l10.10938,11.06548l-1.41865,0.86073zm-11.8058,4.45504c0.0918,0 0.18478,0.00835 0.27658,0.02504l2.55357,-3.24501l0.97517,0.97398l0.99186,0.99306l-3.25098,2.55715l-0.01192,-0.01073c0.08464,0.48282 -0.05961,0.99663 -0.43156,1.36858c-0.30519,0.304 -0.70336,0.45659 -1.10273,0.45659c-0.39937,0 -0.79874,-0.15259 -1.10273,-0.45659c-0.60919,-0.60919 -0.60919,-1.59747 0,-2.20547c0.304,-0.30519 0.70336,-0.45659 1.10273,-0.45659zm-0.51501,2.07433c0.13829,0.1371 0.31949,0.21339 0.51501,0.21339c0.19432,0 0.37672,-0.0763 0.51381,-0.21339c0.1371,-0.13829 0.21339,-0.32069 0.21339,-0.51501c0,-0.19432 -0.0763,-0.37791 -0.2122,-0.51501c-0.13829,-0.1371 -0.32069,-0.21339 -0.51501,-0.21339c-0.19551,0 -0.37672,0.0763 -0.51501,0.21339c-0.13829,0.1371 -0.21339,0.32069 -0.21339,0.51501c0,0.19432 0.07511,0.37672 0.21339,0.51501zm5.38491,-5.34915l0.55196,-0.55077l2.68351,3.78506l-1.02882,1.03001l-3.23548,-3.23548l1.02882,-1.02882zm-1.04789,1.01094l-3.23429,-3.23548l1.02882,-1.02882l3.78625,2.68351l-0.55077,0.55077l-1.03001,1.03001zm3.36304,-3.36304l1.26248,1.1528l-1.57363,1.43772l-0.86192,-1.41865l-1.41746,-0.86073l1.33282,-1.45918l1.25771,1.14803zm5.76282,2.3521l1.03001,1.02882l-3.23429,3.23548l-1.03001,-1.03001l2.68351,-3.78506l0.55077,0.55077zm0.01907,-0.01907l-0.55077,-0.55077l3.78625,-2.68351l1.02882,1.02882l-3.23429,3.23548l-1.03001,-1.03001zm2.02188,0.07391l2.55357,3.24501c0.0918,-0.01669 0.18478,-0.02504 0.27777,-0.02504c0.39818,0 0.79754,0.1514 1.10273,0.45659c0.60799,0.60799 0.60799,1.59628 0,2.20547c-0.30519,0.304 -0.70456,0.45659 -1.10273,0.45659c-0.39937,0 -0.79874,-0.15259 -1.10392,-0.45659c-0.37195,-0.37195 -0.5162,-0.88695 -0.43156,-1.36858l-0.01192,0.01073l-3.25098,-2.55715l0.99306,-0.99306l0.97398,-0.97398zm2.31633,5.29431c0.1371,0.1371 0.32069,0.21339 0.51501,0.21339c0.19432,0 0.37672,-0.0763 0.51381,-0.21339c0.1371,-0.13829 0.21339,-0.32069 0.21339,-0.51501c0,-0.19432 -0.0763,-0.37791 -0.2122,-0.51501c-0.13829,-0.1371 -0.32069,-0.21339 -0.51501,-0.21339c-0.19432,0 -0.37791,0.0763 -0.51501,0.21339c-0.1371,0.1371 -0.21339,0.32069 -0.21339,0.51501c0,0.19432 0.0763,0.37672 0.21339,0.51501z" clip-rule="evenodd" fill-rule="evenodd"/>
 </g>
</svg>