<?xml version="1.0" encoding="iso-8859-1"?>
<!-- Generator: Adobe Illustrator 19.0.0, SVG Export Plug-In . SVG Version: 6.00 Build 0)  -->
<svg version="1.1" id="Capa_1" xmlns="http://www.w3.org/2000/svg" xmlns:xlink="http://www.w3.org/1999/xlink" x="0px" y="0px"
	 viewBox="0 0 512 512" style="enable-background:new 0 0 512 512;" xml:space="preserve">
<path style="fill:#57555C;" d="M220.705,60.908l-35.303-35.303c-5.859-5.859-5.859-15.352,0-21.211s15.352-5.859,21.211,0
	l35.303,35.303c5.859,5.859,5.859,15.352,0,21.211C236.056,66.768,226.564,66.768,220.705,60.908z"/>
<path style="fill:#3C3A41;" d="M270.099,60.908c-5.859-5.859-5.859-15.352,0-21.211l35.303-35.303
	c5.859-5.859,15.352-5.859,21.211,0s5.859,15.352,0,21.211L291.31,60.908C285.451,66.768,275.959,66.768,270.099,60.908z"/>
<g>
	<path style="fill:#57555C;" d="M128.039,206.016c-2.256,0-4.541-0.513-6.694-1.582L85.88,186.709
		c-15.337-7.676-24.873-23.101-24.873-40.254V105c0-8.291,6.709-15,15-15s15,6.709,15,15v41.455c0,5.728,3.179,10.869,8.291,13.418
		l35.464,17.725c7.412,3.706,10.415,12.715,6.709,20.127C138.849,202.983,133.546,206.016,128.039,206.016z"/>
	<path style="fill:#57555C;" d="M46.007,376c-8.291,0-15-6.709-15-15v-41.455c0-17.153,9.536-32.578,24.873-40.254l43.418-21.709
		c7.427-3.677,16.406-0.703,20.127,6.709c3.706,7.412,0.703,16.421-6.709,20.127l-43.418,21.709
		c-5.112,2.549-8.291,7.69-8.291,13.418V361C61.007,369.291,54.298,376,46.007,376z"/>
	<path style="fill:#57555C;" d="M76.007,512c-8.291,0-15-6.709-15-15v-42.455c0-17.153,9.536-32.578,24.873-40.254l49.424-24.712
		c7.427-3.691,16.406-0.688,20.127,6.709c3.706,7.412,0.703,16.421-6.709,20.127l-49.424,24.712
		c-5.112,2.549-8.291,7.69-8.291,13.418V497C91.007,505.291,84.298,512,76.007,512z"/>
</g>
<g>
	<path style="fill:#3C3A41;" d="M383.976,206.016c-5.508,0-10.796-3.032-13.433-8.291c-3.706-7.412-0.703-16.421,6.709-20.127
		l35.449-17.725c5.112-2.549,8.291-7.69,8.291-13.418V105c0-8.291,6.709-15,15-15s15,6.709,15,15v41.455
		c0,17.153-9.536,32.578-24.873,40.254l-35.449,17.725C388.517,205.503,386.232,206.016,383.976,206.016z"/>
	<path style="fill:#3C3A41;" d="M465.993,376c-8.291,0-15-6.709-15-15v-41.455c0-5.728-3.179-10.869-8.291-13.418l-43.418-21.709
		c-7.412-3.706-10.415-12.715-6.709-20.127c3.721-7.412,12.7-10.386,20.127-6.709l43.418,21.709
		c15.337,7.676,24.873,23.101,24.873,40.254V361C480.993,369.291,474.284,376,465.993,376z"/>
	<path style="fill:#3C3A41;" d="M435.993,512c-8.291,0-15-6.709-15-15v-42.455c0-5.728-3.179-10.869-8.291-13.418l-49.409-24.712
		c-7.412-3.706-10.415-12.715-6.709-20.127c3.721-7.397,12.7-10.4,20.127-6.709l49.409,24.712
		c15.337,7.676,24.873,23.101,24.873,40.254V497C450.993,505.291,444.284,512,435.993,512z"/>
</g>
<path style="fill:#FD003A;" d="M421.007,286c0,68.699-30.3,129.3-76.199,164.099H167.207c-45.899-34.799-76.2-95.4-76.2-164.099
	c0-48.001,14.7-92.8,39.3-127l44.101-6.601c24.598,16.802,53.099,24.901,81.599,24.901s57.001-8.099,81.599-24.901L381.707,159
	C406.308,193.2,421.007,237.999,421.007,286z"/>
<path style="fill:#E50027;" d="M421.007,286c0,68.699-30.3,129.3-76.199,164.099h-88.801v-272.8c28.5,0,57.001-8.099,81.599-24.901
	L381.707,159C406.308,193.2,421.007,237.999,421.007,286z"/>
<path style="fill:#57555C;" d="M331.007,105v15c0,8.399-6.599,15-15,15h-120c-8.401,0-15-6.601-15-15v-15c0-41.4,33.6-75,75-75
	S331.007,63.6,331.007,105z"/>
<circle style="fill:#5C000A;" cx="316.01" cy="256" r="15"/>
<circle style="fill:#6F000D;" cx="196.01" cy="346" r="15"/>
<circle style="fill:#5C000A;" cx="316.01" cy="346" r="15"/>
<circle style="fill:#6F000D;" cx="196.01" cy="256" r="15"/>
<g>
	<path style="fill:#E50027;" d="M344.808,450.099C319.307,469.6,288.708,481,256.007,481s-63.3-11.4-88.801-30.901l77.701-84
		c2.699-3.3,6.899-5.099,11.1-5.099c4.201,0,8.401,1.8,11.1,5.099L344.808,450.099z"/>
	<path style="fill:#E50027;" d="M381.707,159c-31.199,21-65.4,48.3-125.7,48.3c-60.601,0-95.099-27.599-125.7-48.3
		c29.7-41.4,74.399-69,125.7-69S352.308,117.9,381.707,159z"/>
</g>
<path style="fill:#3C3A41;" d="M331.007,105v15c0,8.399-6.599,15-15,15h-60V30C297.407,30,331.007,63.6,331.007,105z"/>
<g>
	<path style="fill:#C1001F;" d="M381.707,159c-31.199,21-65.4,48.3-125.7,48.3V90C307.308,90,352.308,117.9,381.707,159z"/>
	<path style="fill:#C1001F;" d="M344.808,450.099C319.307,469.6,288.708,481,256.007,481V361c4.2,0,8.401,1.8,11.1,5.099
		L344.808,450.099z"/>
</g>
<g>
</g>
<g>
</g>
<g>
</g>
<g>
</g>
<g>
</g>
<g>
</g>
<g>
</g>
<g>
</g>
<g>
</g>
<g>
</g>
<g>
</g>
<g>
</g>
<g>
</g>
<g>
</g>
<g>
</g>
</svg>
