<?xml version="1.0" encoding="utf-8"?>
<!-- Generator: Adobe Illustrator 17.1.0, SVG Export Plug-In . SVG Version: 6.00 Build 0)  -->
<!DOCTYPE svg PUBLIC "-//W3C//DTD SVG 1.1//EN" "http://www.w3.org/Graphics/SVG/1.1/DTD/svg11.dtd">
<svg version="1.1" id="Capa_1" xmlns="http://www.w3.org/2000/svg" xmlns:xlink="http://www.w3.org/1999/xlink" x="0px" y="0px"
	 viewBox="0 0 444.8 444.8" enable-background="new 0 0 444.8 444.8" xml:space="preserve">
<g>
	<path fill="#FFFFFF" d="M352,196.7L165.9,10.8C159,3.6,150.5,0,140.2,0s-18.8,3.6-25.7,10.8L92.8,32.3c-7,7-10.6,15.6-10.6,25.7
		c0,9.9,3.5,18.6,10.6,26l138.8,138.5L92.8,361.2c-7,7-10.6,15.6-10.6,25.7c0,9.9,3.5,18.6,10.6,26l21.7,21.4
		c7,7,15.6,10.6,25.7,10.6c10.1,0,18.7-3.5,25.7-10.6L352,248.4c7-7.4,10.6-16.1,10.6-26C362.6,212.3,359.1,203.8,352,196.7z"/>
</g>
</svg>
