<?xml version="1.0" encoding="utf-8"?>
<!-- Generator: Adobe Illustrator 17.1.0, SVG Export Plug-In . SVG Version: 6.00 Build 0)  -->
<!DOCTYPE svg PUBLIC "-//W3C//DTD SVG 1.1//EN" "http://www.w3.org/Graphics/SVG/1.1/DTD/svg11.dtd">
<svg version="1.1" id="Capa_1" xmlns="http://www.w3.org/2000/svg" xmlns:xlink="http://www.w3.org/1999/xlink" x="0px" y="0px"
	 viewBox="0 0 444.8 444.8" enable-background="new 0 0 444.8 444.8" xml:space="preserve">
<g>
	<path fill="#FFFFFF" d="M196.7,92.8L10.8,278.9C3.6,285.8,0,294.3,0,304.6c0,10.3,3.6,18.8,10.8,25.7L32.3,352
		c7,7,15.6,10.6,25.7,10.6c9.9,0,18.6-3.5,26-10.6l138.5-138.8L361.2,352c7,7,15.6,10.6,25.7,10.6c9.9,0,18.6-3.5,26-10.6l21.4-21.7
		c7-7,10.6-15.6,10.6-25.7c0-10.1-3.5-18.7-10.6-25.7L248.4,92.8c-7.4-7-16.1-10.6-26-10.6C212.3,82.2,203.8,85.7,196.7,92.8z"/>
</g>
</svg>
