<?xml version="1.0" encoding="utf-8"?>
<!-- Generator: Adobe Illustrator 17.1.0, SVG Export Plug-In . SVG Version: 6.00 Build 0)  -->
<!DOCTYPE svg PUBLIC "-//W3C//DTD SVG 1.1//EN" "http://www.w3.org/Graphics/SVG/1.1/DTD/svg11.dtd">
<svg version="1.1" id="Capa_1" xmlns="http://www.w3.org/2000/svg" xmlns:xlink="http://www.w3.org/1999/xlink" x="0px" y="0px"
	 viewBox="0 0 444.8 444.8" enable-background="new 0 0 444.8 444.8" xml:space="preserve">
<g>
	<path fill="#FFFFFF" d="M92.8,248.1L278.9,434c6.9,7.2,15.4,10.8,25.7,10.8c10.3,0,18.8-3.6,25.7-10.8l21.7-21.4
		c7-7,10.6-15.6,10.6-25.7c0-9.9-3.5-18.6-10.6-26L213.3,222.4L352,83.6c7-7,10.6-15.6,10.6-25.7c0-9.9-3.5-18.6-10.6-26l-21.7-21.4
		c-7-7-15.6-10.6-25.7-10.6c-10.1,0-18.7,3.5-25.7,10.6L92.8,196.4c-7,7.4-10.6,16.1-10.6,26C82.2,232.5,85.7,241.1,92.8,248.1z"/>
</g>
</svg>
