<?xml version="1.0" encoding="utf-8"?>
<!-- Generator: Adobe Illustrator 25.0.0, SVG Export Plug-In . SVG Version: 6.00 Build 0)  -->
<svg version="1.1" id="Layer_1" xmlns="http://www.w3.org/2000/svg" xmlns:xlink="http://www.w3.org/1999/xlink" x="0px" y="0px"
	 viewBox="0 0 24 24" style="enable-background:new 0 0 24 24;" xml:space="preserve">
<style type="text/css">
	.st0{fill:#FFFFFF;}
	.st1{fill:none;}
	.st2{fill:none;stroke:#FFFFFF;stroke-width:1.3995;stroke-miterlimit:10;}
</style>
<g>
	<path class="st0" d="M12,6.7c3.9,0,7.5,3.4,9.2,5.3c-1.9,2.1-5.5,5.3-9.2,5.3c-3.9,0-7.5-3.4-9.2-5.3C4.7,9.8,8.3,6.7,12,6.7
		 M12,4.6C5.4,4.6,0.1,12,0.1,12s5.3,7.4,11.9,7.4S23.9,12,23.9,12S18.6,4.6,12,4.6L12,4.6z"/>
</g>
<g>
	<rect class="st1" width="24" height="24"/>
</g>
<line class="st2" x1="12" y1="23.4" x2="12" y2="20.4"/>
<line class="st2" x1="16.4" y1="22.8" x2="15.5" y2="20"/>
<line class="st2" x1="20.3" y1="21.1" x2="18.7" y2="18.5"/>
<line class="st2" x1="23.5" y1="18.5" x2="21.5" y2="16.3"/>
<line class="st2" x1="7.7" y1="22.8" x2="8.6" y2="20"/>
<line class="st2" x1="3.7" y1="21.1" x2="5.4" y2="18.5"/>
<line class="st2" x1="0.6" y1="18.5" x2="2.6" y2="16.3"/>
</svg>
