<!-- Generated by IcoMoon.io -->
<svg version="1.1" xmlns="http://www.w3.org/2000/svg" width="1024" height="1024" viewBox="0 0 1024 1024">
<title></title>
<g id="icomoon-ignore">
</g>
<path fill="#878c91" d="M268.19 219.429v-146.286c0-12.932 5.137-25.335 14.282-34.48s21.547-14.282 34.48-14.282h585.141c12.932 0 25.337 5.137 34.48 14.282 9.15 9.145 14.285 21.547 14.285 34.48v682.668c0 12.932-5.135 25.337-14.285 34.48-9.143 9.143-21.548 14.285-34.48 14.285h-146.284v146.286c0 26.917-21.943 48.757-49.103 48.757h-584.46c-6.43 0.037-12.805-1.192-18.758-3.628-5.953-2.428-11.366-6.012-15.929-10.547-4.563-4.528-8.185-9.918-10.66-15.85-2.474-5.939-3.751-12.303-3.757-18.732l0.146-682.67c0-26.917 21.943-48.762 49.103-48.762h145.798zM170.812 316.953l-0.146 585.144h487.619v-585.144h-487.473zM365.713 219.429h390.095v487.619h97.526v-585.143h-487.621v97.524z"></path>
</svg>
