<?xml version="1.0" encoding="utf-8"?>
<!-- Generator: Adobe Illustrator 23.0.6, SVG Export Plug-In . SVG Version: 6.00 Build 0)  -->
<svg version="1.1" id="Layer_1" xmlns="http://www.w3.org/2000/svg" xmlns:xlink="http://www.w3.org/1999/xlink" x="0px" y="0px"
	 viewBox="0 0 32 32" style="enable-background:new 0 0 32 32;" xml:space="preserve">
<style type="text/css">
	.st0{fill:#FFFFFF;stroke:#000000;stroke-width:2;}
</style>
<path class="st0" d="M19.5,23.6c0.6,1,1.9,1,2.6,0.1l3.8-5.9c0.6-1-0.1-2.3-1.3-2.3h-1.1V8c0-0.8-0.7-1.5-1.5-1.5h-2
	c-0.8,0-1.5,0.7-1.5,1.5v7.5h-1.1c-1.2,0-1.9,1.3-1.3,2.3L19.5,23.6z M12,7.5c-0.6-0.9-2-0.9-2.5,0.1l-3.4,5.6
	c-0.6,1,0.1,2.3,1.3,2.3h1.1V23c0,0.8,0.7,1.5,1.5,1.5h2c0.8,0,1.5-0.7,1.5-1.5v-7.5h1.1c1.2,0,1.9-1.3,1.2-2.3L12,7.5z"/>
</svg>
