<svg width="28" height="28" viewBox="0 0 28 28" fill="none" xmlns="http://www.w3.org/2000/svg">
<g clip-path="url(#clip0_3464_85720)">
<rect opacity="0.4" x="1.16016" y="4.41077" width="2.29688" height="10.3906" transform="rotate(-45 1.16016 4.41077)" fill="white"/>
<rect x="2.78516" y="2.78662" width="2.29688" height="10.3906" transform="rotate(-45 2.78516 2.78662)" fill="white"/>
<rect opacity="0.4" x="16.2422" y="19.4911" width="2.29687" height="10.3906" transform="rotate(-45 16.2422 19.4911)" fill="white"/>
<rect x="17.8672" y="17.867" width="2.29687" height="10.3906" transform="rotate(-45 17.8672 17.867)" fill="white"/>
<rect opacity="0.4" x="19.4922" y="11.7572" width="2.29688" height="10.3906" transform="rotate(-135 19.4922 11.7572)" fill="white"/>
<rect x="17.8672" y="10.1331" width="2.29688" height="10.3906" transform="rotate(-135 17.8672 10.1331)" fill="white"/>
<rect opacity="0.4" x="4.41016" y="26.8384" width="2.29688" height="10.3906" transform="rotate(-135 4.41016 26.8384)" fill="white"/>
<rect x="2.78516" y="25.2143" width="2.29688" height="10.3906" transform="rotate(-135 2.78516 25.2143)" fill="white"/>
</g>
<defs>
<clipPath id="clip0_3464_85720">
<rect width="28" height="28" fill="white"/>
</clipPath>
</defs>
</svg>
