<?xml version="1.0" encoding="utf-8"?>
<!-- Generator: Adobe Illustrator 16.0.0, SVG Export Plug-In . SVG Version: 6.00 Build 0)  -->
<!DOCTYPE svg PUBLIC "-//W3C//DTD SVG 1.1//EN" "http://www.w3.org/Graphics/SVG/1.1/DTD/svg11.dtd">
<svg version="1.1" id="Layer_1" xmlns="http://www.w3.org/2000/svg" xmlns:xlink="http://www.w3.org/1999/xlink" x="0px" y="0px"
	 width="141.73px" height="141.73px" viewBox="0 0 141.73 141.73" enable-background="new 0 0 141.73 141.73" xml:space="preserve">
<g opacity="0.6">
	<g>
		<path fill="#FFFFFF" d="M133.008,108.611c-2.547-0.196-2.449,1.184-6.855,0.492c-3.73-0.584-13.129-3.851-19.496-7.231
			c-0.553,0.325-0.965,0.543-1.137,0.629c-2.135,1.074-4.346,1.199-5.82,1.199c-0.523,0-1.041-0.018-1.549-0.044
			c0.047,0.668,0.041,1.381-0.049,2.134c-0.094,0.808-0.273,1.662-0.555,2.535c3.014,1.711,4.98,2.866,5.49,3.244
			c3.723,2.761,14.984,11.24,17.434,14.297c2.451,3.056,4.896,10.943,12.732,10.648c7.836-0.296,7.443-3.451,7.443-5.028
			s-3.428-3.451-3.525-7.099c-0.098-3.649,3.629-5.62,3.529-7.396C140.547,115.218,135.552,108.808,133.008,108.611z"/>
	</g>
	<g>
		<path fill="#FFFFFF" d="M115.119,61.309c1.205,2.172,1.744,4.659,1.848,7.237c4.986-2.666,8.207-4.358,8.598-4.501
			c2.154-0.789,4.875,0.967,9.201,0.188c3.236-0.583,7.164-3.14,6.959-6.597c-0.293-4.93-4.893-6.554-6.264-7.146
			c-1.371-0.591-0.299-5.771-0.689-7.25c-0.393-1.479-4.014-3.746-7.15-3.747c-4.055-0.001-7.961,6.966-9.902,10.02
			C116.992,54.705,115.849,58.931,115.119,61.309z"/>
	</g>
	<g>
		<path fill="#FFFFFF" d="M6.966,64.234c4.327,0.779,7.047-0.977,9.202-0.188c0.393,0.144,3.64,1.851,8.668,4.538
			c0.099-2.591,0.637-5.092,1.848-7.274c-0.724-2.356-1.852-6.526-2.58-11.652c-1.908-2.976-5.875-10.164-9.994-10.163
			c-3.135,0.001-6.757,2.268-7.148,3.747C6.57,44.72,7.643,49.9,6.27,50.491c-1.37,0.592-5.97,2.216-6.263,7.146
			C-0.199,61.094,3.729,63.651,6.966,64.234z"/>
	</g>
	<g>
		<path fill="#FFFFFF" d="M43.7,105.79c-0.089-0.753-0.096-1.466-0.047-2.134c-0.51,0.026-1.026,0.044-1.548,0.044
			c-1.477,0-3.686-0.125-5.822-1.199c-0.175-0.088-0.6-0.312-1.171-0.648c-6.367,3.388-15.794,6.666-19.531,7.251
			c-4.407,0.691-4.31-0.688-6.855-0.492c-2.546,0.197-7.542,6.606-7.643,8.381c-0.102,1.775,3.627,3.746,3.528,7.396
			c-0.097,3.647-3.524,5.521-3.524,7.099s-0.393,4.732,7.442,5.028c7.836,0.295,10.284-7.593,12.733-10.648
			c2.448-3.057,13.712-11.536,17.433-14.297c0.513-0.38,2.502-1.549,5.55-3.278C43.971,107.429,43.793,106.587,43.7,105.79z"/>
	</g>
</g>
<radialGradient id="SVGID_1_" cx="70.9011" cy="55.136" r="48.0029" gradientTransform="matrix(1 0 0 1.0067 0 -2.746582e-004)" gradientUnits="userSpaceOnUse">
	<stop  offset="0" style="stop-color:#FFFFFF"/>
	<stop  offset="1" style="stop-color:#FFFFFF;stop-opacity:0.4"/>
</radialGradient>
<path fill="url(#SVGID_1_)" d="M42.625,60.017c2.87-1.314,6.233-2.198,9.831-2.255c0.18-0.002,0.36-0.004,0.536-0.004
	c10.991,0,15.33,5.484,16.088,8.383c0.28,1.076,0.367,2.308,0.448,3.499c0.041,0.59,0.109,1.578,0.185,1.894
	c0.067,0.268,0.107,0.36,0.203,0.584c0.277,0.647,0.583,1.441,0.675,2.665c0.032,0.418,0.025,0.836-0.023,1.252l0.332-0.071
	l0.332,0.071c-0.048-0.416-0.055-0.834-0.023-1.252c0.103-1.327,0.462-2.165,0.677-2.665c0.096-0.225,0.137-0.316,0.203-0.585
	c0.074-0.314,0.143-1.302,0.184-1.893c0.082-1.191,0.168-2.423,0.449-3.499c0.758-2.898,5.094-8.382,16.088-8.383
	c0.178,0,0.355,0.002,0.535,0.004c3.6,0.057,6.961,0.94,9.832,2.255C97.652,56.842,97,52.491,99.334,46.59l6.313-15.97
	c-0.721-2.954-1.869-5.819-3.596-8.41C91.73,6.722,74.299,5.926,70.909,5.923h-0.009h-0.024h-0.005
	c-3.436,0.005-20.82,0.832-31.12,16.287c-1.728,2.591-2.874,5.456-3.595,8.412l6.313,15.968
	C44.802,52.491,44.151,56.843,42.625,60.017z"/>
<g>
	<path fill="#FFFFFF" d="M80.517,85.756c0.289,0.87,0.494,1.721,0.609,2.516c0.508,3.509,0.582,8.307-1.939,11.24
		c-1.262,1.47-3.01,2.277-4.922,2.277c-0.529,0-1.033-0.062-1.514-0.186l-3.743,0.011c-0.467,0.117-0.957,0.175-1.471,0.175
		c-1.912,0-3.66-0.808-4.922-2.277c-2.521-2.934-2.446-7.731-1.94-11.24c0.115-0.794,0.321-1.646,0.608-2.516
		c-4.436,2.21-10.117,3.833-15.917,3.833c-0.66,0-1.31-0.054-1.942-0.159l1.118,2.325c0.984-0.07,2.002-0.141,3.035-0.141
		c4.121,0,6.955,1.369,8.424,4.07c1.906,3.501,0.45,6.523-0.25,7.976c-0.127,0.265-0.312,0.648-0.376,0.845
		c0.468,2.227,7.875,4.562,15.28,4.819l0.422,0.003c7.429-0.252,14.882-2.596,15.351-4.822c-0.064-0.196-0.25-0.58-0.377-0.845
		c-0.699-1.452-2.154-4.475-0.25-7.977c1.469-2.7,4.305-4.069,8.426-4.069c1.033,0,2.049,0.07,3.033,0.141l1.119-2.325
		c-0.633,0.105-1.281,0.159-1.941,0.159C90.636,89.589,84.955,87.966,80.517,85.756z"/>
</g>
<path fill="#FFFFFF" d="M111.414,82.125c-0.221-1.348-0.752-2.759-1.689-4.22c-2.064,6.029-4.234,7.174-4.234,7.174v-0.001v0.001
	c0,0,7.066-14.678,3.1-20.587c-0.129-0.191-0.275-0.381-0.438-0.573c-2.447-2.877-8.398-6.095-4.623-15.647l0,0l0,0
	c-0.188,3.508,0.348,6.155,1.088,8.093c0.123,0.322,0.252,0.626,0.385,0.91c1.193,2.558,2.658,3.577,2.658,3.578
	c0-0.002,9.088-24.747-1.859-41.174c-2.051-3.078-4.354-5.644-6.783-7.783c-4.047-3.565-8.441-5.942-12.586-7.52
	c-0.828-0.316-1.646-0.599-2.451-0.853c-0.402-0.127-0.799-0.248-1.193-0.361c-1.576-0.453-3.084-0.795-4.484-1.052
	c-0.35-0.065-0.693-0.124-1.027-0.178c-2.018-0.325-3.771-0.474-5.135-0.528c-0.455-0.018-0.866-0.026-1.229-0.026H70.91
	c-0.002,0-0.004,0-0.004,0h-0.005l0,0l0,0h-0.001h-0.007h-0.001c0,0,0,0,0,0C66.719,1.381,56.17,2.356,46.506,8.997
	c-0.42,0.289-0.839,0.588-1.255,0.899c-0.832,0.621-1.656,1.286-2.466,1.999c-0.405,0.357-0.806,0.726-1.204,1.105
	c-0.794,0.762-1.571,1.571-2.33,2.434c-1.136,1.293-2.224,2.705-3.25,4.243c-0.683,1.026-1.289,2.086-1.823,3.169
	c-1.071,2.167-1.854,4.433-2.413,6.73c-0.278,1.149-0.499,2.307-0.672,3.464c-0.171,1.158-0.292,2.315-0.373,3.465
	c-0.872,12.647,3.422,24.344,3.423,24.345c0.001-0.001,2.188-1.524,3.393-5.517c0.111-0.363,0.211-0.746,0.303-1.15
	c0.363-1.619,0.559-3.574,0.436-5.914l0,0l0,0c1.007,2.547,1.321,4.644,1.196,6.404c-0.282,3.96-2.797,6.215-4.684,8.06
	c-0.63,0.615-1.189,1.185-1.573,1.756c-0.867,1.292-1.208,3.005-1.208,4.892c-0.002,2.695,0.686,5.745,1.513,8.434
	c0.166,0.54,0.337,1.062,0.51,1.566c0.257,0.755,0.518,1.465,0.767,2.11c0.164,0.431,0.324,0.832,0.474,1.198
	c0.602,1.468,1.043,2.387,1.043,2.387v-0.001v0.001c0,0-1.661-0.876-3.459-5.135c-0.257-0.608-0.517-1.286-0.776-2.04
	c-0.374,0.585-0.685,1.162-0.935,1.729c-0.628,1.42-0.891,2.783-0.876,4.074c0.002,0.259,0.016,0.515,0.04,0.768
	c0.072,0.758,0.236,1.489,0.47,2.191c0.552,1.637,1.495,3.113,2.579,4.39c0.309,0.364,0.629,0.713,0.957,1.044
	s0.659,0.645,0.99,0.939c0.332,0.296,0.664,0.573,0.989,0.832c0.65,0.517,1.276,0.957,1.829,1.313
	c0.553,0.356,1.034,0.629,1.395,0.812c0.174,0.087,0.366,0.156,0.572,0.214c0.069,0.02,0.148,0.031,0.222,0.048
	c0.143,0.032,0.286,0.064,0.441,0.086c0.093,0.013,0.195,0.021,0.293,0.03c0.146,0.015,0.294,0.028,0.45,0.036
	c0.109,0.006,0.222,0.007,0.335,0.009c0.139,0.003,0.279,0.006,0.421,0.005c0.37-0.005,0.749-0.017,1.141-0.037
	c0.074-0.005,0.152-0.01,0.226-0.015c0.388-0.023,0.779-0.05,1.178-0.078c0.462-0.034,0.928-0.067,1.392-0.092
	c0.018-0.001,0.037-0.002,0.055-0.003c0.39-0.02,0.772-0.03,1.15-0.034c0.062-0.001,0.127-0.005,0.188-0.005
	c0.087,0,0.172,0.004,0.258,0.005c0.101,0.002,0.201,0.004,0.3,0.007c0.198,0.008,0.39,0.021,0.581,0.036
	c0.075,0.007,0.151,0.011,0.226,0.019c0.257,0.027,0.508,0.065,0.746,0.115c0.044,0.01,0.083,0.022,0.125,0.033
	c0.192,0.044,0.376,0.098,0.552,0.158c0.072,0.025,0.139,0.057,0.208,0.086c0.139,0.057,0.275,0.123,0.402,0.194
	c0.067,0.038,0.132,0.079,0.196,0.121c0.123,0.083,0.235,0.176,0.342,0.275c0.049,0.045,0.103,0.087,0.148,0.137
	c0.143,0.154,0.273,0.324,0.379,0.518c0,0.001,0.002,0.002,0.002,0.003c1.415,2.6-1.501,4.227-1.167,7.071
	c0.98,8.375,19.37,8.925,20.018,8.941l0,0h0.007c0.001,0,0.001,0,0.001,0l0,0l0,0h0.003h0.007l0,0
	c0.223-0.007,2.542-0.074,5.531-0.502c0.543-0.078,1.107-0.168,1.686-0.271c0.869-0.154,1.768-0.342,2.668-0.563
	c0.9-0.224,1.801-0.482,2.676-0.784c0.582-0.201,1.154-0.421,1.701-0.662c3.025-1.326,5.42-3.28,5.756-6.159
	c0.334-2.845-2.582-4.472-1.168-7.071c0.107-0.196,0.238-0.365,0.383-0.521c0.047-0.051,0.098-0.092,0.148-0.137
	c0.105-0.1,0.219-0.192,0.34-0.274c0.064-0.043,0.131-0.084,0.197-0.122c0.127-0.071,0.262-0.137,0.4-0.194
	c0.07-0.028,0.139-0.061,0.211-0.086c0.174-0.061,0.357-0.113,0.547-0.157c0.043-0.011,0.084-0.024,0.131-0.034
	c0.238-0.05,0.486-0.088,0.744-0.115c0.074-0.008,0.152-0.012,0.229-0.019c0.189-0.016,0.381-0.028,0.578-0.036
	c0.1-0.003,0.197-0.005,0.301-0.007c0.086-0.001,0.168-0.005,0.258-0.005c0.061,0,0.125,0.004,0.186,0.005
	c0.379,0.004,0.762,0.015,1.15,0.034c0.02,0.001,0.037,0.002,0.057,0.003c0.461,0.024,0.926,0.058,1.389,0.092
	c0.4,0.028,0.795,0.055,1.184,0.078c0.074,0.005,0.148,0.01,0.221,0.015c0.395,0.021,0.773,0.032,1.143,0.037
	c0.145,0.001,0.283-0.002,0.422-0.005c0.113-0.002,0.227-0.003,0.334-0.009c0.156-0.008,0.305-0.021,0.453-0.037
	c0.098-0.009,0.195-0.017,0.291-0.029c0.156-0.021,0.301-0.054,0.445-0.087c0.072-0.016,0.148-0.027,0.217-0.047
	c0.205-0.058,0.4-0.127,0.572-0.214c0.813-0.409,2.23-1.279,3.717-2.526c0.496-0.416,0.996-0.874,1.486-1.37
	c1.307-1.324,2.523-2.924,3.275-4.743c0.375-0.908,0.635-1.871,0.73-2.882c0.023-0.253,0.037-0.509,0.039-0.768
	C111.543,83.191,111.502,82.662,111.414,82.125z M36.156,30.622c0.722-2.956,1.868-5.821,3.595-8.412
	C50.051,6.755,67.435,5.928,70.871,5.923h0.005h0.024h0.009c3.389,0.003,20.821,0.799,31.141,16.287
	c1.727,2.591,2.875,5.456,3.596,8.41l-6.313,15.97C97,52.491,97.652,56.842,99.177,60.017c-2.871-1.314-6.232-2.198-9.832-2.255
	c-0.18-0.002-0.357-0.004-0.535-0.004c-10.994,0.001-15.33,5.485-16.088,8.383c-0.281,1.076-0.367,2.308-0.449,3.499
	c-0.041,0.59-0.109,1.578-0.184,1.893c-0.066,0.269-0.107,0.36-0.203,0.585c-0.215,0.5-0.575,1.338-0.677,2.665
	c-0.032,0.418-0.024,0.836,0.023,1.252l-0.332-0.071l-0.332,0.071c0.048-0.416,0.055-0.834,0.023-1.252
	c-0.092-1.224-0.398-2.018-0.675-2.665c-0.096-0.224-0.136-0.316-0.203-0.584c-0.076-0.315-0.145-1.303-0.185-1.894
	c-0.081-1.191-0.167-2.423-0.448-3.499c-0.758-2.899-5.097-8.383-16.088-8.383c-0.176,0-0.356,0.002-0.536,0.004
	c-3.598,0.057-6.961,0.94-9.831,2.255c1.526-3.174,2.176-7.526-0.157-13.428L36.156,30.622z M70.904,88.831
	c0,0.005-0.001,0.008-0.003,0.012l0,0l0,0c0-0.004-0.001-0.007-0.001-0.012c-0.002-0.009-0.004-0.018-0.007-0.03v0.085
	c-0.002,0.013-0.002,0.014-0.005,0.02c-0.001,0.007-0.003,0.021-0.003,0.021s-0.275,2.632-0.956,4.936
	c-0.151,0.511-0.323,1.007-0.517,1.453c-0.192,0.447-0.407,0.846-0.644,1.162c-0.357,0.475-0.766,0.767-1.229,0.767l0,0l0,0
	c-2.29,0-2.827-3.449-2.557-6.865c0.04-0.487,0.095-0.976,0.164-1.452c0.344-2.383,1.757-5.036,3.233-6.691
	c0.294-0.331,0.592-0.622,0.885-0.864c0.583-0.48,1.146-0.763,1.621-0.763l0,0l0,0l0.003,0.001c0,0,0.004,0.001,0.005,0.001v0.002
	l0.007-0.001l0.001-0.001l0,0l0,0l0.003,0.001c0,0,0.004,0.001,0.007,0.001v-0.002c0.003-0.001,0.004-0.001,0.006-0.001l0.003-0.001
	l0,0l0,0c1.9,0,5.187,4.506,5.74,8.318c0.24,1.669,0.313,3.469,0.1,4.966c-0.061,0.429-0.146,0.832-0.256,1.2
	c-0.166,0.553-0.391,1.026-0.684,1.389c-0.195,0.241-0.42,0.432-0.678,0.563c-0.26,0.131-0.551,0.2-0.877,0.2l0,0l0,0
	c-0.154,0-0.303-0.031-0.445-0.094c-0.428-0.183-0.801-0.621-1.123-1.206c-0.217-0.389-0.406-0.845-0.58-1.331
	c-0.172-0.487-0.322-1.008-0.455-1.526c-0.262-1.04-0.448-2.081-0.567-2.86c-0.12-0.779-0.175-1.3-0.175-1.3
	s-0.002-0.008-0.003-0.01c0-0.006-0.002-0.012-0.006-0.03v-0.085C70.908,88.813,70.906,88.822,70.904,88.831z M39.368,81.452
	c-0.411-0.798-0.594-1.578-0.543-2.161c0.345-3.899-0.199-5.767-0.604-7.179c-0.042-0.142-0.08-0.278-0.117-0.412
	c-0.184-0.667-0.307-1.261-0.243-1.976c0.038-0.419,0.624-1.286,1.68-2.286c0.423-0.401,0.92-0.821,1.488-1.243
	c0.853-0.632,1.864-1.266,3.016-1.834c0.769-0.378,1.6-0.726,2.488-1.025c0.445-0.149,0.905-0.286,1.377-0.408
	c1.419-0.365,2.963-0.595,4.616-0.62c0.157-0.003,0.312-0.004,0.466-0.004c0.205,0,0.39,0.012,0.588,0.017
	c0.245,0.005,0.493,0.008,0.728,0.02c0.263,0.012,0.512,0.034,0.763,0.053c0.223,0.018,0.449,0.034,0.662,0.057
	c0.243,0.026,0.473,0.06,0.702,0.093c0.202,0.028,0.408,0.055,0.6,0.089c0.222,0.039,0.432,0.083,0.644,0.128
	c0.182,0.038,0.366,0.074,0.539,0.115c0.204,0.05,0.395,0.105,0.587,0.159c0.16,0.045,0.327,0.089,0.479,0.137
	c0.187,0.059,0.358,0.122,0.531,0.185c0.145,0.052,0.293,0.101,0.429,0.155c0.166,0.066,0.317,0.136,0.473,0.205
	c0.127,0.057,0.259,0.112,0.379,0.17c0.148,0.072,0.282,0.147,0.42,0.221c0.11,0.06,0.226,0.119,0.329,0.179
	c0.131,0.077,0.251,0.156,0.373,0.235c0.091,0.061,0.192,0.12,0.28,0.181c0.115,0.081,0.215,0.161,0.321,0.242
	c0.08,0.061,0.164,0.121,0.238,0.182c0.099,0.082,0.185,0.162,0.275,0.245c0.065,0.058,0.136,0.118,0.196,0.177
	c0.085,0.082,0.155,0.161,0.231,0.241c0.051,0.056,0.109,0.113,0.157,0.168c0.069,0.08,0.126,0.156,0.185,0.233
	c0.041,0.052,0.086,0.105,0.124,0.156c0.055,0.076,0.095,0.145,0.141,0.217c0.03,0.047,0.065,0.098,0.092,0.143
	c0.042,0.074,0.072,0.139,0.106,0.208c0.018,0.036,0.041,0.077,0.056,0.112c0.037,0.087,0.063,0.165,0.083,0.238
	c0.003,0.011,0.009,0.024,0.012,0.034c0.086,0.329,0.146,0.741,0.194,1.194c0.023,0.228,0.044,0.465,0.062,0.708
	c0.095,1.214,0.148,2.568,0.363,3.436c0.086,0.347,0.173,0.611,0.252,0.828c0.042,0.108,0.081,0.207,0.118,0.296
	c0.189,0.45,0.338,0.722,0.388,1.371c0.078,1.014-0.695,2.241-2.079,3.481c-0.616,0.552-1.351,1.106-2.188,1.646
	c-3.973,2.561-10.204,4.784-16.458,4.784l0,0l0,0c-1.12,0-2.097-0.242-2.933-0.637C40.969,83.718,39.945,82.568,39.368,81.452z
	 M97.26,91.755c-0.984-0.07-2-0.141-3.033-0.141c-4.121,0-6.957,1.369-8.426,4.069c-1.904,3.502-0.449,6.524,0.25,7.977
	c0.127,0.265,0.313,0.648,0.377,0.845c-0.469,2.227-7.922,4.57-15.351,4.822l-0.422-0.003c-7.404-0.258-14.812-2.593-15.28-4.819
	c0.064-0.196,0.25-0.58,0.376-0.845c0.7-1.452,2.156-4.475,0.25-7.976c-1.469-2.701-4.303-4.07-8.424-4.07
	c-1.033,0-2.05,0.07-3.035,0.141l-1.118-2.325c0.632,0.105,1.282,0.159,1.942,0.159c5.801,0,11.482-1.623,15.917-3.833
	c-0.288,0.87-0.493,1.722-0.608,2.516c-0.506,3.509-0.581,8.307,1.94,11.24c1.263,1.47,3.011,2.277,4.922,2.277
	c0.514,0,1.004-0.058,1.471-0.175l3.743-0.011c0.48,0.124,0.984,0.186,1.514,0.186c1.912,0,3.66-0.808,4.922-2.277
	c2.521-2.934,2.447-7.731,1.939-11.24c-0.115-0.795-0.32-1.646-0.609-2.516c4.438,2.21,10.119,3.833,15.92,3.833
	c0.66,0,1.309-0.054,1.941-0.159L97.26,91.755z M103.699,71.7c-0.037,0.134-0.076,0.271-0.117,0.412
	c-0.08,0.282-0.168,0.582-0.252,0.914c-0.043,0.165-0.082,0.339-0.121,0.521c-0.08,0.365-0.152,0.768-0.209,1.221
	c-0.145,1.131-0.193,2.573-0.023,4.522c0.094,1.049-0.57,2.738-1.967,4.016c-0.156,0.142-0.32,0.278-0.492,0.408
	c-1.039,0.783-2.402,1.329-4.08,1.329l0,0l0,0c-2.635,0-5.264-0.395-7.721-1.042c-2.766-0.729-5.316-1.778-7.412-2.947
	c-0.932-0.52-1.771-1.063-2.502-1.614c-0.367-0.274-0.703-0.552-1.012-0.827c-0.309-0.274-0.584-0.55-0.83-0.822
	c-0.488-0.545-0.846-1.078-1.053-1.582c-0.154-0.378-0.223-0.739-0.197-1.077c0.012-0.13,0.023-0.244,0.043-0.35
	c0.051-0.312,0.135-0.527,0.236-0.769c0.137-0.32,0.307-0.685,0.479-1.377c0.129-0.521,0.201-1.216,0.256-1.952
	c0.096-1.226,0.148-2.563,0.363-3.386c0.008-0.027,0.023-0.062,0.033-0.09c0.018-0.059,0.035-0.116,0.064-0.181
	c0.016-0.039,0.041-0.083,0.063-0.124c0.031-0.065,0.059-0.127,0.098-0.196c0.027-0.047,0.064-0.1,0.098-0.149
	c0.043-0.069,0.084-0.137,0.137-0.21c0.037-0.053,0.086-0.11,0.129-0.165c0.059-0.074,0.111-0.146,0.178-0.224
	c0.051-0.059,0.113-0.121,0.17-0.181c0.07-0.077,0.137-0.151,0.217-0.228c0.064-0.063,0.141-0.126,0.209-0.189
	c0.088-0.077,0.168-0.154,0.262-0.232c0.08-0.064,0.17-0.128,0.254-0.192c0.102-0.077,0.195-0.154,0.307-0.23
	c0.094-0.065,0.201-0.129,0.303-0.195c0.113-0.074,0.225-0.148,0.348-0.22c0.109-0.065,0.234-0.127,0.352-0.19
	c0.131-0.071,0.258-0.142,0.398-0.211c0.127-0.062,0.266-0.119,0.398-0.178c0.148-0.067,0.295-0.133,0.453-0.197
	c0.143-0.057,0.299-0.109,0.451-0.164c0.164-0.06,0.328-0.12,0.506-0.176c0.162-0.051,0.334-0.097,0.506-0.145
	c0.186-0.052,0.365-0.105,0.561-0.153c0.18-0.043,0.373-0.081,0.561-0.12c0.205-0.043,0.408-0.086,0.623-0.124
	c0.199-0.035,0.408-0.063,0.613-0.091c0.229-0.032,0.451-0.065,0.689-0.09c0.215-0.024,0.445-0.041,0.672-0.058
	c0.248-0.02,0.496-0.04,0.756-0.053c0.236-0.012,0.484-0.014,0.73-0.02c0.197-0.004,0.383-0.017,0.586-0.017
	c0.154,0,0.309,0.001,0.467,0.004c4.957,0.077,8.938,1.99,11.496,3.887c0.852,0.633,1.547,1.263,2.064,1.825
	c0.693,0.747,1.074,1.37,1.104,1.704C104.006,70.439,103.883,71.032,103.699,71.7z"/>
</svg>
