<?xml version="1.0" encoding="utf-8"?>
<!-- Generator: Adobe Illustrator 25.0.0, SVG Export Plug-In . SVG Version: 6.00 Build 0)  -->
<svg version="1.1" id="Layer_1" xmlns="http://www.w3.org/2000/svg" xmlns:xlink="http://www.w3.org/1999/xlink" x="0px" y="0px"
	 viewBox="0 0 24 24" style="enable-background:new 0 0 24 24;" xml:space="preserve">
<style type="text/css">
	.st0{fill:none;}
	.st1{fill:#FFFFFF;}
</style>
<g>
	<rect class="st0" width="24" height="24"/>
</g>
<path class="st1" d="M20.9,2.8h-6.5c0.2-0.3,0.3-0.6,0.3-1C14.8,0.8,14,0,13,0h-2c-1,0-1.7,0.8-1.7,1.7c0,0.4,0.1,0.7,0.3,1H3.1v3.3
	h1.3V24h15.4V6.1h1.3V2.8z M8.9,21.1c0,0.6-0.5,1-1,1s-1-0.5-1-1v-15h2.1V21.1z M13,21.1c0,0.6-0.5,1-1,1s-1-0.5-1-1v-15H13V21.1z
	 M17.2,21.1c0,0.6-0.5,1-1,1c-0.6,0-1-0.5-1-1v-15h2.1V21.1z"/>
</svg>
