<?xml version="1.0" encoding="utf-8"?>
<!-- Generator: Adobe Illustrator 17.1.0, SVG Export Plug-In . SVG Version: 6.00 Build 0)  -->
<!DOCTYPE svg PUBLIC "-//W3C//DTD SVG 1.1//EN" "http://www.w3.org/Graphics/SVG/1.1/DTD/svg11.dtd">
<svg version="1.1" id="Слой_1" xmlns="http://www.w3.org/2000/svg" xmlns:xlink="http://www.w3.org/1999/xlink" x="0px" y="0px"
	 viewBox="-74 0 362 362" enable-background="new -74 0 362 362" xml:space="preserve">
<path fill="#FFFFFF" d="M0.5,181c0-4.3,1.3-8.5,3.6-11.7L110.6,9.6c3.8-5.8,10.2-9.6,17.7-9.6l63.9,0c11.7,0,21.3,9.6,21.3,21.3
	c0,4.3-1.3,8.5-3.6,11.7l-98.6,148l98.6,148c2.3,3.2,3.6,7.5,3.6,11.7c0,11.7-9.6,21.3-21.3,21.3h-63.9c-7.5,0-13.8-3.8-17.7-9.6
	L4.2,192.7C1.8,189.5,0.5,185.3,0.5,181z"/>
</svg>
