<?xml version="1.0" encoding="utf-8"?>
<!-- Generator: Adobe Illustrator 17.1.0, SVG Export Plug-In . SVG Version: 6.00 Build 0)  -->
<!DOCTYPE svg PUBLIC "-//W3C//DTD SVG 1.1//EN" "http://www.w3.org/Graphics/SVG/1.1/DTD/svg11.dtd">
<svg version="1.1" id="Слой_1" xmlns="http://www.w3.org/2000/svg" xmlns:xlink="http://www.w3.org/1999/xlink" x="0px" y="0px"
	 viewBox="-74 0 362 362" enable-background="new -74 0 362 362" xml:space="preserve">
<path fill="#FFFFFF" d="M107,74.5c4.3,0,8.5,1.3,11.7,3.6l159.7,106.5c5.8,3.8,9.6,10.2,9.6,17.7v63.9c0,11.7-9.6,21.3-21.3,21.3
	c-4.3,0-8.5-1.3-11.7-3.6l-148-98.6l-148,98.6c-3.2,2.3-7.5,3.6-11.7,3.6c-11.7,0-21.3-9.6-21.3-21.3v-63.9c0-7.5,3.8-13.8,9.6-17.7
	L95.3,78.2C98.5,75.8,102.7,74.5,107,74.5z"/>
</svg>
