<?xml version="1.0" encoding="utf-8"?>
<!-- Generator: Adobe Illustrator 17.1.0, SVG Export Plug-In . SVG Version: 6.00 Build 0)  -->
<!DOCTYPE svg PUBLIC "-//W3C//DTD SVG 1.1//EN" "http://www.w3.org/Graphics/SVG/1.1/DTD/svg11.dtd">
<svg version="1.1" id="Слой_1" xmlns="http://www.w3.org/2000/svg" xmlns:xlink="http://www.w3.org/1999/xlink" x="0px" y="0px"
	 viewBox="-74 0 362 362" enable-background="new -74 0 362 362" xml:space="preserve">
<path fill="#FFFFFF" d="M213.5,181c0,4.3-1.3,8.5-3.6,11.7L103.4,352.4c-3.8,5.8-10.2,9.6-17.7,9.6H21.8c-11.7,0-21.3-9.6-21.3-21.3
	c0-4.3,1.3-8.5,3.6-11.7l98.6-148L4.2,33c-2.3-3.2-3.6-7.5-3.6-11.7C0.5,9.6,10.1,0,21.8,0l63.9,0c7.5,0,13.8,3.8,17.7,9.6
	l106.5,159.7C212.2,172.5,213.5,176.7,213.5,181z"/>
</svg>
