<svg width="24" height="25" viewBox="0 0 24 25" fill="none" xmlns="http://www.w3.org/2000/svg">
<g clip-path="url(#clip0_5238_93846)">
<path d="M4 18.6172H6V20.6172H18V4.61719H6V6.61719H4V3.61719C4 3.35197 4.10536 3.09762 4.29289 2.91008C4.48043 2.72254 4.73478 2.61719 5 2.61719H19C19.2652 2.61719 19.5196 2.72254 19.7071 2.91008C19.8946 3.09762 20 3.35197 20 3.61719V21.6172C20 21.8824 19.8946 22.1368 19.7071 22.3243C19.5196 22.5118 19.2652 22.6172 19 22.6172H5C4.73478 22.6172 4.48043 22.5118 4.29289 22.3243C4.10536 22.1368 4 21.8824 4 21.6172V18.6172ZM6 11.6172H13V13.6172H6V16.6172L1 12.6172L6 8.61719V11.6172Z" fill="#D6E1F0"/>
</g>
<defs>
<clipPath id="clip0_5238_93846">
<rect width="24" height="24" fill="white" transform="translate(0 0.617188)"/>
</clipPath>
</defs>
</svg>
