<svg width="256" height="257" viewBox="0 0 256 257" fill="none" xmlns="http://www.w3.org/2000/svg">
<path opacity="0.12" d="M128 141.756L206.933 250.556L128 208.956V141.756Z" fill="white"/>
<path opacity="0.09" d="M128.001 141.756V208.956L49.0674 250.556L128.001 141.756Z" fill="white"/>
<path opacity="0.55" d="M128 141.756L192 163.089L206.933 250.556L128 141.756Z" fill="white"/>
<path opacity="0.8" d="M128.001 141.756L49.0674 250.556L64.0007 163.089L128.001 141.756Z" fill="white"/>
<path opacity="0.5" d="M128 141.755L64 163.089L0 100.155L128 141.755Z" fill="white"/>
<path opacity="0.03" d="M128 141.755L256 100.155L192 163.089L128 141.755Z" fill="white"/>
<path opacity="0.9" d="M128 141.755L0 100.155L88.5333 87.3555L128 141.755Z" fill="white"/>
<path opacity="0.6" d="M128 141.755L167.467 87.3555L256 100.155L128 141.755Z" fill="white"/>
<path opacity="0.75" d="M128.001 141.755L88.5342 87.3555L128.001 7.35547V141.755Z" fill="white"/>
<path opacity="0.3" d="M128 141.755V7.35547L167.467 87.3555L128 141.755Z" fill="white"/>
</svg>
