<?xml version="1.0" encoding="UTF-8"?>
<!DOCTYPE svg  PUBLIC '-//W3C//DTD SVG 1.1//EN'  'http://www.w3.org/Graphics/SVG/1.1/DTD/svg11.dtd' [
	<!ENTITY ns_flows "http://ns.adobe.com/Flows/1.0/">
	<!ENTITY ns_extend "http://ns.adobe.com/Extensibility/1.0/">
	<!ENTITY ns_ai "http://ns.adobe.com/AdobeIllustrator/10.0/">
	<!ENTITY ns_graphs "http://ns.adobe.com/Graphs/1.0/">
]>
<svg enable-background="new 0 0 141.7 141.7" version="1.1" viewBox="0 0 141.7 141.7" xml:space="preserve" xmlns="http://www.w3.org/2000/svg">
<g fill="#fff">
	<path d="m51.7 90v31.9h-31.9v-31.9h31.9m6.4-12.8h-44.6c-3.5 0-6.4 2.9-6.4 6.4v44.6c0 3.5 2.9 6.4 6.4 6.4h44.6c3.5 0 6.4-2.9 6.4-6.4v-44.6c0-3.5-2.9-6.4-6.4-6.4z"/>
	<path d="m121.9 19.8v31.9h-31.9v-31.9h31.9m6.4-12.7h-44.7c-3.5 0-6.4 2.9-6.4 6.4v44.6c0 3.5 2.9 6.4 6.4 6.4h44.6c3.5 0 6.4-2.9 6.4-6.4v-44.6c0-3.6-2.8-6.4-6.3-6.4z"/>
	<path d="m121.9 90v31.9h-31.9v-31.9h31.9m6.4-12.8h-44.7c-3.5 0-6.4 2.9-6.4 6.4v44.6c0 3.5 2.9 6.4 6.4 6.4h44.6c3.5 0 6.4-2.9 6.4-6.4v-44.6c0-3.5-2.8-6.4-6.3-6.4z"/>
	<path d="m58.1 7.1h-44.6c-3.5 0-6.4 2.9-6.4 6.4v44.6c0 3.5 2.9 6.4 6.4 6.4h44.6c3.5 0 6.4-2.9 6.4-6.4v-44.6c0-3.6-2.9-6.4-6.4-6.4zm0 13.8c0 1.2-0.4 2.4-1 3.5l-18.2 28.7c-2 3.1-5.4 5-9.1 5-3.6 0-7-1.8-8.9-4.8l-6.5-9.9c-0.7-1-1-2.1-1-3.3v-1.4c0-3.4 2.7-6.1 6.1-6.1 2.1 0 4 1.1 5.2 2.9l4.3 6.8 17.2-25.9c1.2-1.8 3.2-2.9 5.4-2.9 3.6 0 6.5 2.9 6.5 6.5v0.9z"/>
</g>
</svg>

