<svg width="39" height="38" viewBox="0 0 39 38" fill="none" xmlns="http://www.w3.org/2000/svg">
<path d="M16.84 27.74L30.235 14.345L27.575 11.685L16.84 22.42L11.425 17.005L8.765 19.665L16.84 27.74ZM19.5 38C16.8717 38 14.4017 37.5009 12.09 36.5028C9.77833 35.5059 7.7675 34.1525 6.0575 32.4425C4.3475 30.7325 2.99407 28.7217 1.9972 26.41C0.999067 24.0983 0.5 21.6283 0.5 19C0.5 16.3717 0.999067 13.9017 1.9972 11.59C2.99407 9.27833 4.3475 7.2675 6.0575 5.5575C7.7675 3.8475 9.77833 2.49343 12.09 1.4953C14.4017 0.498433 16.8717 0 19.5 0C22.1283 0 24.5983 0.498433 26.91 1.4953C29.2217 2.49343 31.2325 3.8475 32.9425 5.5575C34.6525 7.2675 36.0059 9.27833 37.0028 11.59C38.0009 13.9017 38.5 16.3717 38.5 19C38.5 21.6283 38.0009 24.0983 37.0028 26.41C36.0059 28.7217 34.6525 30.7325 32.9425 32.4425C31.2325 34.1525 29.2217 35.5059 26.91 36.5028C24.5983 37.5009 22.1283 38 19.5 38Z" fill="url(#paint0_linear_2739_36231)"/>
<defs>
<linearGradient id="paint0_linear_2739_36231" x1="19.5" y1="0" x2="19.5" y2="38" gradientUnits="userSpaceOnUse">
<stop stop-color="#FEEE42"/>
<stop offset="1" stop-color="#EC8117"/>
</linearGradient>
</defs>
</svg>
