<?xml version="1.0" encoding="utf-8"?>
<!-- Generator: Adobe Illustrator 23.0.6, SVG Export Plug-In . SVG Version: 6.00 Build 0)  -->
<svg version="1.1" id="Layer_1" xmlns="http://www.w3.org/2000/svg" xmlns:xlink="http://www.w3.org/1999/xlink" x="0px" y="0px"
	 viewBox="0 0 141.7 141.7" style="enable-background:new 0 0 141.7 141.7;" xml:space="preserve">
<style type="text/css">
	.st0{fill:#FFFFFF;}
	.st1{fill:url(#SVGID_1_);}
	.st2{fill:url(#SVGID_2_);}
</style>
<g>
	<g>
		<path class="st0" d="M61.6,132.9l-6.2-36.6c-4.3,0.8-6.3,1.4-6.7,1.6l-1.6,0.8l0.5,3.2L61.6,132.9z"/>
	</g>
	<linearGradient id="SVGID_1_" gradientUnits="userSpaceOnUse" x1="15.2035" y1="70.6109" x2="111.3585" y2="29.0053">
		<stop  offset="5.376340e-03" style="stop-color:#FFFFFF;stop-opacity:0.6"/>
		<stop  offset="2.159017e-02" style="stop-color:#FFFFFF;stop-opacity:0.6366"/>
		<stop  offset="0.1828" style="stop-color:#FFFFFF"/>
		<stop  offset="0.7097" style="stop-color:#FFFFFF;stop-opacity:0.5"/>
		<stop  offset="1" style="stop-color:#FFFFFF"/>
	</linearGradient>
	<path class="st1" d="M28.5,98.7L0.8,36.8c0,0,16.2-9.7,31.9-12.5c15.7-2.8,25.4-1.4,37.9-6c12.5-4.6,17.1-9.9,23.8-17.3
		c19.6,19,17.6,34,28,58c-16.2,22.2-45.8,18-65.2,24C33.6,90.3,28.5,98.7,28.5,98.7z"/>
	<path class="st0" d="M34.2,102.3l-1.9,3.9l15.6,34.6l8.3-3.7L38.8,98.5C35.8,100.4,34.5,101.9,34.2,102.3z"/>
	<linearGradient id="SVGID_2_" gradientUnits="userSpaceOnUse" x1="58.4328" y1="64.1216" x2="139.634" y2="50.3975">
		<stop  offset="5.376340e-03" style="stop-color:#FFFFFF;stop-opacity:0.5"/>
		<stop  offset="2.159017e-02" style="stop-color:#FFFFFF;stop-opacity:0.5183"/>
		<stop  offset="0.1828" style="stop-color:#FFFFFF;stop-opacity:0.7"/>
		<stop  offset="0.7097" style="stop-color:#FFFFFF;stop-opacity:0.2"/>
		<stop  offset="1" style="stop-color:#FFFFFF;stop-opacity:0.6"/>
	</linearGradient>
	<path class="st2" d="M128.6,16.7c-3.9,2.8-7.2,5.2-11.2,7.1c1.6,4.1,2.8,8.2,4,12.4c1.9,6.3,3.8,12.7,7,20.1l1.5,3.5l-2.3,3.1
		c-13.2,18-34,20.9-50.8,23.2c-5.1,0.7-10,1.4-14.4,2.4c3.7-0.4,8.1-0.8,13.3-1.1c19.1-1.1,45.1,10,64.9-7.6
		C136.9,53.9,142.2,39.9,128.6,16.7z"/>
</g>
</svg>
