<svg width="256" height="257" viewBox="0 0 256 257" fill="none" xmlns="http://www.w3.org/2000/svg">
<g clip-path="url(#clip0_74_36034)">
<path d="M128 141.355L206.933 250.155L128 208.555V141.355Z" fill="#9D6928"/>
<path d="M128.001 141.355V208.555L49.0674 250.155L128.001 141.355Z" fill="#B0762A"/>
<path d="M128 141.355L192 162.689L206.933 250.155L128 141.355Z" fill="#E2B139"/>
<path d="M128.001 141.355L49.0674 250.155L64.0007 162.689L128.001 141.355Z" fill="#FBED62"/>
<path d="M128 141.355L64 162.688L0 99.7549L128 141.355Z" fill="#E5A930"/>
<path d="M128 141.355L256 99.7549L192 162.688L128 141.355Z" fill="#895C24"/>
<path d="M128 141.355L0 99.7551L88.5333 86.9551L128 141.355Z" fill="#F8E97B"/>
<path d="M128 141.355L167.467 86.9551L256 99.7551L128 141.355Z" fill="#EBC84D"/>
<path d="M128.001 141.355L88.5342 86.9551L128.001 6.95508V141.355Z" fill="#FBED63"/>
<path d="M128 141.355V6.95508L167.467 86.9551L128 141.355Z" fill="#C88C2B"/>
</g>
<defs>
<clipPath id="clip0_74_36034">
<rect width="256" height="256" fill="white" transform="translate(0 0.955078)"/>
</clipPath>
</defs>
</svg>
