<?xml version="1.0" encoding="utf-8"?>
<!-- Generator: Adobe Illustrator 16.0.0, SVG Export Plug-In . SVG Version: 6.00 Build 0)  -->
<!DOCTYPE svg PUBLIC "-//W3C//DTD SVG 1.1//EN" "http://www.w3.org/Graphics/SVG/1.1/DTD/svg11.dtd" [
	<!ENTITY ns_flows "http://ns.adobe.com/Flows/1.0/">
	<!ENTITY ns_extend "http://ns.adobe.com/Extensibility/1.0/">
	<!ENTITY ns_ai "http://ns.adobe.com/AdobeIllustrator/10.0/">
	<!ENTITY ns_graphs "http://ns.adobe.com/Graphs/1.0/">
]>
<svg version="1.1" id="Layer_1" xmlns:x="&ns_extend;" xmlns:i="&ns_ai;" xmlns:graph="&ns_graphs;"
	 xmlns="http://www.w3.org/2000/svg" xmlns:xlink="http://www.w3.org/1999/xlink" xmlns:a="http://ns.adobe.com/AdobeSVGViewerExtensions/3.0/"
	 x="0px" y="0px" width="141.7px" height="141.7px" viewBox="0 0 141.7 141.7" enable-background="new 0 0 141.7 141.7"
	 xml:space="preserve">
<path opacity="0.7" fill="#FFFFFF" enable-background="new    " d="M125,112.1c-2.1-1.4-3.8-2.1-3.8-5.4c7-0.9,10.9-2.6,10.8-4
	c0-0.7-0.3,0-1.2-1.9c-0.9-1.9,0.3-18.8-2-25.6c-2.6-7.6-8.7-6.5-9.3-6.6c-0.6-0.1-1.4-1.9-5.4-1.7c-17.5,0.6-15.6,21.5-15.7,26.8
	c-0.3,9-2,8.3-1.9,9.1c0.5,2.5,8.9,3.7,10.4,3.9c0,2-0.1,3.9-6.4,6.5c-0.4,0.2-0.7,0.3-1.1,0.5c9.2,3.6,17.8,7.7,22.7,13h19.6
	C141,116.1,129.1,114.8,125,112.1z M105.7,113.4c3.1-2,3.8-4.1,3.8-6.8v-2.3l-2.2-0.3c-3.7-0.5-6.4-1.3-7.6-1.9
	c0.6-1.5,1.2-4,1.3-8.5c0-0.5,0-1.2,0-2c0-10.8,1.5-21.9,13.2-22.3c0.1,0,0.2,0,0.4,0c1.8,0,2.4,0.5,2.9,0.8c0.4,0.3,1,0.7,1.8,0.9
	h0.2h0.2c0.1,0,0.2,0,0.4,0c0.1,0,0.3,0,0.6,0c2.8,0,4.8,1.6,5.8,4.8c1.3,3.8,1.4,11.6,1.4,17.2c0.1,5.5,0.1,7.5,0.7,8.7
	c0.1,0.2,0.2,0.3,0.2,0.5c-1.3,0.5-3.7,1.3-7.8,1.8l-2.3,0.3v2.3c0,4.4,2.4,6,4.3,7.2c0.2,0.1,0.4,0.3,0.6,0.4
	c1.3,0.8,2.9,1.5,4.7,2.2c4.9,1.9,8.8,3.8,10.3,7.6h-15.4C118.8,119.7,112.2,116.3,105.7,113.4z"/>
<path opacity="0.15" fill="#FFFFFF" enable-background="new    " d="M128.3,116.4c-1.9-0.7-3.5-1.4-4.7-2.2
	c-0.2-0.1-0.4-0.3-0.6-0.4c-1.9-1.2-4.3-2.8-4.3-7.2v-2.3l2.3-0.3c4.1-0.5,6.6-1.2,7.8-1.8c-0.1-0.1-0.2-0.3-0.2-0.5
	c-0.6-1.2-0.6-3.2-0.7-8.7c-0.1-5.7-0.2-13.4-1.4-17.2c-1.1-3.3-3-4.8-5.8-4.8c-0.2,0-0.4,0-0.6,0c-0.2,0-0.3,0-0.4,0h-0.2h-0.2
	c-0.9-0.1-1.4-0.6-1.8-0.9c-0.5-0.4-1.1-0.8-2.9-0.8c-0.1,0-0.2,0-0.4,0c-11.7,0.4-13.3,11.5-13.2,22.3c0,0.8,0,1.5,0,2
	c-0.1,4.6-0.7,7-1.3,8.5c1.3,0.6,3.9,1.3,7.6,1.9l2.2,0.3v2.3c0,2.6-0.7,4.7-3.8,6.8c6.6,2.9,13.1,6.3,17.5,10.6h15.4
	C137.1,120.2,133.2,118.3,128.3,116.4z"/>
<path opacity="0.7" fill="#FFFFFF" enable-background="new    " d="M45.8,102.7c0-0.7-0.3,0-1.2-1.9c-0.9-1.9,0.3-18.8-2-25.6
	c-2.6-7.6-8.7-6.5-9.3-6.6c-0.6-0.1-1.4-1.9-5.4-1.7c-17.5,0.6-15.6,21.5-15.7,26.8c-0.3,9-2,8.3-1.9,9.1c0.5,2.5,8.9,3.7,10.4,3.9
	c0,2-0.1,3.9-6.4,6.5C7.4,116,0.7,117.8,0,126.6h20.3c4.7-5.2,13-9.3,22-12.9c-1.4-0.5-2.6-1.1-3.5-1.6c-2.1-1.4-3.8-2.1-3.8-5.4
	C42,105.8,45.9,104.1,45.8,102.7z M34.7,104.1l-2.3,0.3v2.3c0,4,2,5.6,3.8,6.8c-6.4,2.8-12.7,6.2-17,10.5H3.1
	c1.3-4,4.8-5.6,10.3-7.7c0.6-0.2,1.3-0.5,1.9-0.8c6.7-2.7,8-5.3,8-8.9v-2.3l-2.2-0.3c-3.7-0.5-6.4-1.3-7.6-1.9
	c0.6-1.5,1.2-4,1.3-8.5c0-0.5,0-1.2,0-2c0-10.8,1.5-21.9,13.2-22.3c0.1,0,0.2,0,0.4,0c1.8,0,2.4,0.5,2.9,0.8c0.4,0.3,1,0.7,1.8,0.9
	h0.2h0.2c0.1,0,0.2,0,0.4,0c0.1,0,0.3,0,0.6,0c2.8,0,4.8,1.6,5.8,4.8c1.3,3.8,1.4,11.6,1.4,17.2c0.1,5.5,0.1,7.5,0.7,8.7
	c0.1,0.2,0.2,0.3,0.2,0.5C41.2,102.9,38.8,103.6,34.7,104.1z"/>
<path opacity="0.15" fill="#FFFFFF" enable-background="new    " d="M41.5,93.2c-0.1-5.7-0.2-13.4-1.4-17.2c-1.1-3.3-3-4.8-5.8-4.8
	c-0.2,0-0.4,0-0.6,0c-0.2,0-0.3,0-0.4,0h-0.2h-0.2c-0.9-0.1-1.4-0.6-1.8-0.9c-0.5-0.4-1.1-0.8-2.9-0.8c-0.1,0-0.2,0-0.4,0
	C16.1,69.9,14.5,81,14.6,91.8c0,0.8,0,1.4,0,2c-0.1,4.6-0.6,7-1.3,8.5c1.3,0.6,3.9,1.3,7.6,1.9l2.2,0.3v2.3c0,3.6-1.3,6.2-8,8.9
	c-0.6,0.3-1.3,0.5-1.9,0.8c-5.5,2.2-9,3.8-10.3,7.7H19c4.3-4.3,10.6-7.7,17-10.5c-1.8-1.2-3.8-2.8-3.8-6.8v-2.3l2.3-0.3
	c4.1-0.5,6.6-1.2,7.8-1.8c-0.1-0.1-0.2-0.3-0.2-0.5C41.7,100.6,41.6,98.7,41.5,93.2z"/>
<path fill="#FFFFFF" d="M122.9,134.9C121,123.4,91,115.6,87.5,113c-2.7-2-4.2-8.6-2.3-12.2c3.8-5.3,4.4-10.6,4.5-12.5
	c3.8,0.2,2.5-4.4,3.4-6.3c0.9-2,1.5-3.5,1-5.6c-0.4-1.6-1.7-1.5-2.1-1.3c4.8-19.1-4.1-19.3-4.1-19.3s-3.6-12.5-21.1-11.2
	c-16.4,1.2-20.7,16.2-16.4,30.5c-0.4,0.1-1.6,0.4-1.8,1.2c-0.5,2.1,0.6,3.7,1.5,5.7s-0.4,6.6,3.4,6.3c0.1,1.9,0.7,7,4.3,12.2
	c2.2,3.7,0.4,10.2-2.3,12.1C52,115.2,21.9,123,20,134.5c0,0-0.7,3.3-0.6,7h104.2C123.6,137.9,122.9,134.9,122.9,134.9z"/>
</svg>
