<?xml version="1.0" encoding="utf-8"?>
<!-- Generator: Adobe Illustrator 23.0.6, SVG Export Plug-In . SVG Version: 6.00 Build 0)  -->
<svg version="1.1" id="Layer_1" xmlns="http://www.w3.org/2000/svg" xmlns:xlink="http://www.w3.org/1999/xlink" x="0px" y="0px"
	 viewBox="0 0 24 24" style="enable-background:new 0 0 24 24;" xml:space="preserve">
<style type="text/css">
	.st0{fill:url(#SVGID_1_);}
	.st1{fill:url(#SVGID_2_);}
	.st2{fill:#FCF284;}
	.st3{fill:url(#SVGID_3_);}
	.st4{fill:url(#SVGID_4_);}
	.st5{fill:url(#SVGID_5_);}
	.st6{fill:url(#SVGID_6_);}
	.st7{fill:url(#SVGID_7_);}
	.st8{fill:url(#SVGID_8_);}
</style>
<g>
	<g>
		<linearGradient id="SVGID_1_" gradientUnits="userSpaceOnUse" x1="20.5633" y1="19.2144" x2="1.5059" y2="19.2144">
			<stop  offset="0" style="stop-color:#FFF479"/>
			<stop  offset="0.341" style="stop-color:#FBDC00"/>
			<stop  offset="1" style="stop-color:#AF7B2B"/>
		</linearGradient>
		<path class="st0" d="M20.6,15.8C20.6,15.8,20.6,15.8,20.6,15.8c0,2-4.3,3.6-9.5,3.6c-5.3,0-9.5-1.6-9.5-3.6v3.3h0
			c0,2,4.3,3.6,9.5,3.6c5.2,0,9.5-1.6,9.5-3.6h0L20.6,15.8L20.6,15.8z"/>
	</g>
	<g>
		
			<radialGradient id="SVGID_2_" cx="7.7464" cy="13.0945" r="15.2338" fx="-0.4432" fy="7.0922" gradientTransform="matrix(0.9959 9.077086e-02 -6.710888e-02 0.7363 0.9107 2.7503)" gradientUnits="userSpaceOnUse">
			<stop  offset="0.2867" style="stop-color:#FFF7A2"/>
			<stop  offset="0.3322" style="stop-color:#FFF595"/>
			<stop  offset="0.4166" style="stop-color:#FFF172"/>
			<stop  offset="0.5301" style="stop-color:#FFEA3B"/>
			<stop  offset="0.5576" style="stop-color:#FFE82C"/>
			<stop  offset="0.7101" style="stop-color:#F5CE2C"/>
			<stop  offset="0.9404" style="stop-color:#E4A12D"/>
		</radialGradient>
		<path class="st1" d="M11.1,19C5.7,19,2,17.3,2,15.8c0-1.5,3.8-3.2,9.1-3.2c5.4,0,9.1,1.7,9.1,3.2C20.2,17.3,16.5,19,11.1,19z"/>
		<path class="st2" d="M11.1,13c5.3,0,8.8,1.7,8.8,2.8c0,1.1-3.4,2.8-8.8,2.8c-5.3,0-8.8-1.7-8.8-2.8C2.3,14.6,5.7,13,11.1,13
			 M11.1,12.2c-5.3,0-9.5,1.6-9.5,3.6c0,2,4.3,3.6,9.5,3.6c5.3,0,9.5-1.6,9.5-3.6C20.6,13.8,16.3,12.2,11.1,12.2L11.1,12.2z"/>
	</g>
	<linearGradient id="SVGID_3_" gradientUnits="userSpaceOnUse" x1="3.4702" y1="15.6728" x2="22.5014" y2="15.6728">
		<stop  offset="0" style="stop-color:#805619"/>
		<stop  offset="7.503572e-02" style="stop-color:#674716"/>
		<stop  offset="0.1744" style="stop-color:#4D3714"/>
		<stop  offset="0.2769" style="stop-color:#3B2B12"/>
		<stop  offset="0.3834" style="stop-color:#302410"/>
		<stop  offset="0.5" style="stop-color:#2C2210"/>
		<stop  offset="0.5528" style="stop-color:#342914"/>
		<stop  offset="0.6343" style="stop-color:#4A3E1E"/>
		<stop  offset="0.7343" style="stop-color:#6D5F30"/>
		<stop  offset="0.8489" style="stop-color:#9E8D48"/>
		<stop  offset="0.9744" style="stop-color:#DCC766"/>
		<stop  offset="1" style="stop-color:#EAD46D"/>
	</linearGradient>
	<path class="st3" d="M22.5,12.2C22.5,12.2,22.5,12.2,22.5,12.2c0,2-4.3,3.6-9.5,3.6c-5.3,0-9.5-1.6-9.5-3.6v3.3h0
		c0,2,4.3,3.6,9.5,3.6c5.2,0,9.5-1.6,9.5-3.6h0L22.5,12.2L22.5,12.2z"/>
	<g>
		<linearGradient id="SVGID_4_" gradientUnits="userSpaceOnUse" x1="22.461" y1="14.6552" x2="3.4036" y2="14.6552">
			<stop  offset="0" style="stop-color:#FFF479"/>
			<stop  offset="0.341" style="stop-color:#FBDC00"/>
			<stop  offset="1" style="stop-color:#AF7B2B"/>
		</linearGradient>
		<path class="st4" d="M22.5,11.2C22.5,11.2,22.5,11.2,22.5,11.2c0,2-4.3,3.6-9.5,3.6c-5.3,0-9.5-1.6-9.5-3.6v3.3h0
			c0,2,4.3,3.6,9.5,3.6c5.2,0,9.5-1.6,9.5-3.6h0L22.5,11.2L22.5,11.2z"/>
	</g>
	<g>
		
			<radialGradient id="SVGID_5_" cx="9.3602" cy="7.05" r="14.5859" fx="3.5171" fy="1.3322" gradientTransform="matrix(0.9959 9.077086e-02 -6.710888e-02 0.7363 0.5118 1.0097)" gradientUnits="userSpaceOnUse">
			<stop  offset="0.2867" style="stop-color:#FFF7A2"/>
			<stop  offset="0.3322" style="stop-color:#FFF595"/>
			<stop  offset="0.4166" style="stop-color:#FFF172"/>
			<stop  offset="0.5301" style="stop-color:#FFEA3B"/>
			<stop  offset="0.5576" style="stop-color:#FFE82C"/>
			<stop  offset="0.7101" style="stop-color:#F5CE2C"/>
			<stop  offset="0.9404" style="stop-color:#E4A12D"/>
		</radialGradient>
		<path class="st5" d="M13,14.4c-5.4,0-9.1-1.7-9.1-3.2C3.8,9.7,7.6,8,13,8c5.4,0,9.1,1.7,9.1,3.2C22.1,12.7,18.4,14.4,13,14.4z"/>
		<path class="st2" d="M13,8.4c5.3,0,8.8,1.7,8.8,2.8c0,1.1-3.4,2.8-8.8,2.8c-5.3,0-8.8-1.7-8.8-2.8C4.2,10.1,7.6,8.4,13,8.4
			 M13,7.7c-5.3,0-9.5,1.6-9.5,3.6c0,2,4.3,3.6,9.5,3.6c5.3,0,9.5-1.6,9.5-3.6C22.5,9.3,18.2,7.7,13,7.7L13,7.7z"/>
	</g>
	<linearGradient id="SVGID_6_" gradientUnits="userSpaceOnUse" x1="2.5511" y1="9.5346" x2="21.5823" y2="9.5346">
		<stop  offset="0" style="stop-color:#805619"/>
		<stop  offset="7.503572e-02" style="stop-color:#674716"/>
		<stop  offset="0.1744" style="stop-color:#4D3714"/>
		<stop  offset="0.2769" style="stop-color:#3B2B12"/>
		<stop  offset="0.3834" style="stop-color:#302410"/>
		<stop  offset="0.5" style="stop-color:#2C2210"/>
		<stop  offset="0.5528" style="stop-color:#342914"/>
		<stop  offset="0.6343" style="stop-color:#4A3E1E"/>
		<stop  offset="0.7343" style="stop-color:#6D5F30"/>
		<stop  offset="0.8489" style="stop-color:#9E8D48"/>
		<stop  offset="0.9744" style="stop-color:#DCC766"/>
		<stop  offset="1" style="stop-color:#EAD46D"/>
	</linearGradient>
	<path class="st6" d="M21.6,6.1C21.6,6.1,21.6,6.1,21.6,6.1c0,2-4.3,3.6-9.5,3.6c-5.3,0-9.5-1.6-9.5-3.6v3.3h0c0,2,4.3,3.6,9.5,3.6
		c5.2,0,9.5-1.6,9.5-3.6h0L21.6,6.1L21.6,6.1z"/>
	<g>
		<linearGradient id="SVGID_7_" gradientUnits="userSpaceOnUse" x1="21.5419" y1="8.517" x2="2.4845" y2="8.517">
			<stop  offset="0" style="stop-color:#FFF479"/>
			<stop  offset="0.341" style="stop-color:#FBDC00"/>
			<stop  offset="1" style="stop-color:#AF7B2B"/>
		</linearGradient>
		<path class="st7" d="M21.6,5.1C21.6,5.1,21.6,5.1,21.6,5.1c0,2-4.3,3.6-9.5,3.6c-5.3,0-9.5-1.6-9.5-3.6v3.3h0c0,2,4.3,3.6,9.5,3.6
			c5.2,0,9.5-1.6,9.5-3.6h0L21.6,5.1L21.6,5.1z"/>
	</g>
	<g>
		
			<radialGradient id="SVGID_8_" cx="8.7249" cy="2.3969" r="15.2344" fx="0.5349" fy="-3.6057" gradientTransform="matrix(0.9959 9.077086e-02 -6.710888e-02 0.7363 0.1969 -0.1598)" gradientUnits="userSpaceOnUse">
			<stop  offset="0.2867" style="stop-color:#FFF7A2"/>
			<stop  offset="0.3322" style="stop-color:#FFF595"/>
			<stop  offset="0.4166" style="stop-color:#FFF172"/>
			<stop  offset="0.5301" style="stop-color:#FFEA3B"/>
			<stop  offset="0.5576" style="stop-color:#FFE82C"/>
			<stop  offset="0.7101" style="stop-color:#F5CE2C"/>
			<stop  offset="0.9404" style="stop-color:#E4A12D"/>
		</radialGradient>
		<path class="st8" d="M12.1,8.3c-5.4,0-9.1-1.7-9.1-3.2c0-1.5,3.8-3.2,9.1-3.2c5.4,0,9.1,1.7,9.1,3.2C21.2,6.6,17.4,8.3,12.1,8.3z"
			/>
		<path class="st2" d="M12.1,2.3c5.3,0,8.8,1.7,8.8,2.8c0,1.1-3.4,2.8-8.8,2.8c-5.3,0-8.8-1.7-8.8-2.8C3.3,4,6.7,2.3,12.1,2.3
			 M12.1,1.5c-5.3,0-9.5,1.6-9.5,3.6c0,2,4.3,3.6,9.5,3.6c5.3,0,9.5-1.6,9.5-3.6C21.6,3.1,17.3,1.5,12.1,1.5L12.1,1.5z"/>
	</g>
</g>
</svg>
