<!-- Generated by IcoMoon.io -->
<svg version="1.1" xmlns="http://www.w3.org/2000/svg" width="1024" height="1024" viewBox="0 0 1024 1024">
<title></title>
<g id="icomoon-ignore">
</g>
<path fill="#ffbd4b" d="M512 97.402c109.961 0 215.4 43.68 293.163 121.429 77.749 77.749 121.429 183.209 121.429 293.163s-43.68 215.4-121.429 293.163c-77.749 77.749-183.209 121.429-293.163 121.429s-215.4-43.68-293.163-121.429c-77.749-77.749-121.429-183.209-121.429-293.163s43.68-215.4 121.429-293.163c77.749-77.749 183.209-121.429 293.163-121.429zM512 6.397c-134.099 0-262.7 53.27-357.515 148.088-94.818 94.812-148.088 223.419-148.088 357.515s53.27 262.7 148.088 357.515c94.812 94.818 223.419 148.088 357.515 148.088s262.7-53.27 357.515-148.088c94.818-94.812 148.088-223.419 148.088-357.515s-53.27-262.7-148.088-357.515c-94.812-94.818-223.419-148.088-357.515-148.088z"></path>
<path fill="#ffbd4b" d="M509.275 619.269h-36.91c-3.212 0.259-6.378-0.847-8.719-3.079-2.335-2.22-3.61-5.328-3.518-8.546-1.459-31.738 1.055-63.529 7.473-94.656 3.748-15.304 11.619-29.3 22.755-40.445 10.114-10.726 21.035-20.223 31.957-30.337 10.927-10.109 23.965-21.232 36.299-31.346 24.27-20.223 21.341-55.416-8.995-71.994-17.587-9.555-38.415-11.227-57.3-4.567-18.891 6.643-34.074 20.984-41.794 39.454-2.474 6.182-4.503 12.53-6.066 19.011-2.422 8.794-6.47 11.937-15.569 10.818l-72.104-8.702c-3.742-0.15-7.225-1.955-9.532-4.919s-3.177-6.781-2.399-10.449c3.333-32.125 17.104-62.277 39.194-85.839s51.31-39.23 83.158-44.609c42.619-9.434 87.137-5.334 127.305 11.735 36.097 14.774 64.22 44.177 77.357 80.897 6.937 17.691 9.036 36.906 6.083 55.669-2.953 18.77-10.853 36.409-22.875 51.12-17.328 20.99-36.853 40.076-58.247 56.931-6.775 5.865-13.251 12.133-20.223 17.893v0.006c-11.008 9.030-17.178 22.68-16.688 36.906 0 15.471-1.009 30.839-1.413 46.315h0.006c0.381 3.725-0.934 7.433-3.587 10.068-2.647 2.653-6.343 3.967-10.068 3.587h-35.59z"></path>
<path fill="#ffbd4b" d="M561.437 729.405c0 13.407-5.322 26.278-14.802 35.758s-22.351 14.802-35.758 14.802c-13.407 0-26.272-5.322-35.752-14.802s-14.808-22.351-14.808-35.758c0-13.407 5.328-26.272 14.808-35.752s22.333-14.808 35.752-14.808c13.407 0 26.278 5.328 35.758 14.808s14.802 22.333 14.802 35.752z"></path>
</svg>
