<svg width="22" height="20" viewBox="0 0 22 20" fill="none" xmlns="http://www.w3.org/2000/svg">
<path d="M1.79989 4.19984L5.99989 6.99984L10.1859 1.13984C10.2784 1.01021 10.4005 0.904544 10.5421 0.83164C10.6837 0.758737 10.8406 0.720703 10.9999 0.720703C11.1591 0.720703 11.3161 0.758737 11.4577 0.83164C11.5993 0.904544 11.7214 1.01021 11.8139 1.13984L15.9999 6.99984L20.1999 4.19984C20.3588 4.09408 20.5447 4.03604 20.7356 4.03257C20.9265 4.0291 21.1144 4.08035 21.2771 4.18026C21.4398 4.28017 21.5705 4.42456 21.6537 4.59637C21.737 4.76819 21.7693 4.96024 21.7469 5.14984L20.1039 19.1168C20.0752 19.3601 19.9583 19.5844 19.7753 19.7471C19.5922 19.9099 19.3558 19.9998 19.1109 19.9998H2.88889C2.64395 19.9998 2.40755 19.9099 2.22451 19.7471C2.04148 19.5844 1.92454 19.3601 1.89589 19.1168L0.252885 5.14884C0.230685 4.95932 0.263171 4.76741 0.346506 4.59576C0.429842 4.4241 0.560548 4.27987 0.723196 4.1801C0.885845 4.08032 1.07364 4.02916 1.26442 4.03266C1.45521 4.03616 1.641 4.09417 1.79989 4.19984ZM10.9999 13.9998C11.5303 13.9998 12.039 13.7891 12.4141 13.4141C12.7892 13.039 12.9999 12.5303 12.9999 11.9998C12.9999 11.4694 12.7892 10.9607 12.4141 10.5856C12.039 10.2106 11.5303 9.99984 10.9999 9.99984C10.4695 9.99984 9.96074 10.2106 9.58567 10.5856C9.2106 10.9607 8.99989 11.4694 8.99989 11.9998C8.99989 12.5303 9.2106 13.039 9.58567 13.4141C9.96074 13.7891 10.4695 13.9998 10.9999 13.9998Z" fill="#878C91"/>
</svg>
