<svg width="12" height="11" viewBox="0 0 12 11" fill="none" xmlns="http://www.w3.org/2000/svg">
<path d="M1.39994 2.6009L3.49994 4.0009L5.59294 1.0709C5.63919 1.00608 5.70026 0.953248 5.77105 0.916797C5.84184 0.880345 5.92032 0.861328 5.99994 0.861328C6.07957 0.861328 6.15804 0.880345 6.22884 0.916797C6.29963 0.953248 6.36069 1.00608 6.40694 1.0709L8.49994 4.0009L10.5999 2.6009C10.6794 2.54802 10.7724 2.519 10.8678 2.51726C10.9633 2.51553 11.0572 2.54115 11.1386 2.59111C11.2199 2.64106 11.2852 2.71326 11.3269 2.79916C11.3685 2.88507 11.3847 2.9811 11.3734 3.0759L10.5519 10.0594C10.5376 10.181 10.4791 10.2932 10.3876 10.3745C10.2961 10.4559 10.1779 10.5009 10.0554 10.5009H1.94444C1.82198 10.5009 1.70377 10.4559 1.61226 10.3745C1.52074 10.2932 1.46227 10.181 1.44794 10.0594L0.626443 3.0754C0.615343 2.98064 0.631585 2.88468 0.673253 2.79885C0.714921 2.71303 0.780274 2.64091 0.861598 2.59103C0.942922 2.54114 1.03682 2.51556 1.13221 2.51731C1.2276 2.51906 1.3205 2.54806 1.39994 2.6009ZM5.99994 7.5009C6.26516 7.5009 6.51951 7.39554 6.70705 7.208C6.89459 7.02047 6.99994 6.76611 6.99994 6.5009C6.99994 6.23568 6.89459 5.98133 6.70705 5.79379C6.51951 5.60625 6.26516 5.5009 5.99994 5.5009C5.73473 5.5009 5.48037 5.60625 5.29284 5.79379C5.1053 5.98133 4.99994 6.23568 4.99994 6.5009C4.99994 6.76611 5.1053 7.02047 5.29284 7.208C5.48037 7.39554 5.73473 7.5009 5.99994 7.5009Z" fill="#C12A2A"/>
</svg>
