<svg width="256" height="257" viewBox="0 0 256 257" fill="none" xmlns="http://www.w3.org/2000/svg">
<g clip-path="url(#clip0_3169_75944)">
<path d="M147.179 218.719C147.179 218.719 108.094 228.162 88.8412 246.718C86.4212 249.054 97.8655 259.704 100.977 256.284C113.373 242.664 123.808 234.077 148.58 223.384C151.35 222.19 147.179 218.719 147.179 218.719Z" fill="url(#paint0_linear_3169_75944)"/>
<path d="M232.195 104.345C222.02 91.3886 213.044 82.3841 211.367 83.6497C209.511 85.0545 217.308 98.5174 228.788 113.727C229.934 115.249 231.073 116.725 232.197 118.158V104.345H232.195Z" fill="url(#paint1_linear_3169_75944)"/>
<path d="M232.213 104.345C242.39 91.3886 251.364 82.3841 253.043 83.6497C254.899 85.0545 247.098 98.5174 235.622 113.727C234.472 115.249 233.337 116.725 232.211 118.158V104.345H232.213Z" fill="url(#paint2_linear_3169_75944)"/>
<path d="M211.087 84.1597L211.119 84.1954C210.747 87.1539 218.198 99.6949 228.79 113.728C229.936 115.25 231.075 116.726 232.199 118.159H232.209C233.334 116.726 234.474 115.248 235.621 113.728C246.201 99.7088 253.647 87.1797 253.292 84.2054L253.329 84.1617C253.329 84.1617 256.242 96.9371 253.155 111.288C250.061 125.641 236.471 133.217 232.211 133.217C227.949 133.217 214.361 125.641 211.266 111.288C208.174 96.9352 211.087 84.1597 211.087 84.1597Z" fill="url(#paint3_linear_3169_75944)"/>
<path d="M225.777 148.51C221.213 132.677 216.277 120.962 214.249 121.504C211.998 122.108 214.167 137.515 219.093 155.925C219.587 157.763 220.088 159.561 220.593 161.307L225.777 148.51Z" fill="url(#paint4_linear_3169_75944)"/>
<path d="M225.795 148.514C240.093 140.326 251.791 135.351 252.87 137.157C254.066 139.154 241.779 148.704 225.43 158.492C223.796 159.469 222.187 160.413 220.607 161.315L225.795 148.514Z" fill="url(#paint5_linear_3169_75944)"/>
<path d="M213.797 121.875L213.805 121.917C212.355 124.52 214.552 138.936 219.092 155.924C219.587 157.762 220.087 159.56 220.592 161.306L220.602 161.31C222.18 160.408 223.789 159.464 225.426 158.489C240.496 149.468 252.104 140.651 252.888 137.758L252.94 137.732C252.94 137.732 250.842 150.671 242.587 162.804C234.335 174.946 218.893 176.863 214.947 175.264C210.996 173.664 201.246 161.537 203.771 147.076C206.293 132.618 213.797 121.875 213.797 121.875Z" fill="url(#paint6_linear_3169_75944)"/>
<path d="M202.835 183.445C204.728 167.081 204.691 154.365 202.606 154.085C200.3 153.775 196.362 168.827 193.807 187.712C193.552 189.598 193.32 191.452 193.115 193.258L202.835 183.445Z" fill="url(#paint7_linear_3169_75944)"/>
<path d="M202.845 183.458C219.197 181.419 231.906 181.342 232.207 183.418C232.542 185.725 217.52 189.8 198.664 192.526C196.781 192.796 194.927 193.046 193.125 193.271L202.845 183.458Z" fill="url(#paint8_linear_3169_75944)"/>
<path d="M202.048 154.248L202.042 154.293C199.7 156.131 196.165 170.287 193.807 187.708C193.552 189.594 193.32 191.448 193.115 193.254L193.119 193.26C194.925 193.035 196.773 192.789 198.657 192.516C216.038 190.003 230.15 186.347 231.99 183.983L232.046 183.975C232.046 183.975 225.126 195.101 212.827 203.12C200.532 211.139 185.543 206.957 182.519 203.957C179.493 200.959 175.172 186.007 183.072 173.639C190.981 161.273 202.048 154.248 202.048 154.248Z" fill="url(#paint9_linear_3169_75944)"/>
<path d="M171.646 206.048C176.975 190.459 179.637 178.027 177.66 177.308C175.473 176.515 168.425 190.385 161.916 208.297C161.267 210.083 160.649 211.845 160.061 213.57L171.646 206.048Z" fill="url(#paint10_linear_3169_75944)"/>
<path d="M171.658 206.06C188.061 207.542 200.501 210.169 200.352 212.265C200.189 214.586 184.65 215.376 165.642 214.033C163.74 213.9 161.884 213.747 160.066 213.58L171.658 206.06Z" fill="url(#paint11_linear_3169_75944)"/>
<path d="M177.077 177.352L177.063 177.394C174.381 178.691 167.918 191.769 161.916 208.295C161.266 210.082 160.648 211.844 160.06 213.569L160.062 213.574C161.872 213.737 163.736 213.888 165.633 214.023C183.155 215.265 197.719 214.687 200.024 212.772L200.075 212.776C200.075 212.776 190.948 222.18 177.23 227.401C163.511 232.622 149.756 225.345 147.433 221.774C145.117 218.2 144.07 202.675 154.423 192.267C164.777 181.862 177.077 177.352 177.077 177.352Z" fill="url(#paint12_linear_3169_75944)"/>
<path d="M223.636 62.8971C208.317 56.8332 196.027 53.5807 195.218 55.5179C194.32 57.6676 207.839 65.3687 225.42 72.7241C227.173 73.4572 228.901 74.1606 230.594 74.8262L223.636 62.8971Z" fill="url(#paint13_linear_3169_75944)"/>
<path d="M223.648 62.8897C225.911 46.5696 229.124 34.2709 231.208 34.5173C233.519 34.7935 233.573 50.3526 231.326 69.2774C231.101 71.1669 230.865 73.0167 230.61 74.8207L223.648 62.8897Z" fill="url(#paint14_linear_3169_75944)"/>
<path d="M195.229 56.1011L195.27 56.115C196.44 58.8569 209.194 65.9341 225.419 72.7212C227.171 73.4544 228.9 74.1577 230.593 74.8233L230.601 74.8193C230.851 73.0173 231.089 71.1695 231.312 69.278C233.39 51.8353 233.505 37.2637 231.699 34.8715L231.709 34.8159C231.709 34.8159 240.668 44.3807 245.23 58.3324C249.792 72.2881 241.868 85.6835 238.188 87.8273C234.507 89.9731 218.95 90.2791 209.047 79.4427C199.149 68.6044 195.229 56.1011 195.229 56.1011Z" fill="url(#paint15_linear_3169_75944)"/>
<path d="M198.16 30.3174C181.866 27.9074 169.154 27.5438 168.81 29.616C168.425 31.9109 183.346 36.3237 202.14 39.4748C204.015 39.7888 205.857 40.0769 207.659 40.3431L198.16 30.3174Z" fill="url(#paint16_linear_3169_75944)"/>
<path d="M198.17 30.3062C196.65 13.9027 196.974 1.19278 199.062 0.958335C201.377 0.700043 204.975 15.8379 207.103 34.7747C207.31 36.6661 207.5 38.5219 207.671 40.3339L198.17 30.3062Z" fill="url(#paint17_linear_3169_75944)"/>
<path d="M168.953 30.1841L168.999 30.188C170.763 32.5902 184.798 36.5698 202.14 39.4766C204.015 39.7905 205.857 40.0786 207.659 40.3449L207.663 40.3429C207.496 38.5289 207.305 36.6731 207.095 34.7836C205.138 17.3271 201.923 3.11113 199.62 1.19382L199.616 1.13818C199.616 1.13818 210.516 8.41008 218.148 20.9531C225.771 33.4962 221.11 48.3459 218.021 51.2785C214.927 54.2072 199.847 58.0517 187.739 49.7606C175.625 41.4635 168.953 30.1841 168.953 30.1841Z" fill="url(#paint18_linear_3169_75944)"/>
<path d="M108.817 218.719C108.817 218.719 147.905 228.162 167.155 246.718C169.575 249.054 158.131 259.704 155.02 256.284C142.624 242.664 132.193 234.077 107.418 223.384C104.645 222.19 108.817 218.719 108.817 218.719Z" fill="url(#paint19_linear_3169_75944)"/>
<path d="M23.7988 104.345C33.9775 91.3886 42.9541 82.3841 44.631 83.6497C46.4888 85.0545 38.6903 98.5174 27.2123 113.727C26.0658 115.249 24.9254 116.725 23.7988 118.158V104.345Z" fill="url(#paint20_linear_3169_75944)"/>
<path d="M23.7821 104.345C13.6073 91.3889 4.63072 82.3844 2.9558 83.6521C1.0961 85.0568 8.89452 98.5197 20.3706 113.729C21.519 115.251 22.6555 116.727 23.7821 118.16V104.345Z" fill="url(#paint21_linear_3169_75944)"/>
<path d="M44.9115 84.1597L44.8817 84.1954C45.2532 87.1539 37.8025 99.6949 27.2106 113.728C26.0642 115.25 24.9237 116.726 23.7972 118.159H23.7912C22.6666 116.726 21.5282 115.248 20.3798 113.728C9.79974 99.7088 2.35299 87.1797 2.70665 84.2054L2.67287 84.1617C2.67287 84.1617 -0.241847 96.9371 2.84772 111.288C5.93927 125.641 19.5314 133.217 23.7912 133.217C28.051 133.217 41.6431 125.641 44.7367 111.288C47.8262 96.9352 44.9115 84.1597 44.9115 84.1597Z" fill="url(#paint22_linear_3169_75944)"/>
<path d="M30.2188 148.51C34.7865 132.677 39.7199 120.962 41.7525 121.504C44.0036 122.108 41.8299 137.515 36.9045 155.925C36.4118 157.763 35.9111 159.561 35.4045 161.307L30.2188 148.51Z" fill="url(#paint23_linear_3169_75944)"/>
<path d="M30.2064 148.514C15.9089 140.326 4.20833 135.351 3.13145 137.157C1.93337 139.154 14.2221 148.704 30.568 158.492C32.2032 159.469 33.8125 160.413 35.3941 161.315L30.2064 148.514Z" fill="url(#paint24_linear_3169_75944)"/>
<path d="M42.2037 121.875L42.1918 121.917C43.6461 124.52 41.4487 138.936 36.9047 155.924C36.412 157.762 35.9113 159.56 35.4046 161.306L35.4007 161.31C33.8191 160.408 32.2138 159.464 30.5766 158.489C15.5023 149.47 3.89705 140.655 3.10826 137.762L3.05859 137.736C3.05859 137.736 5.15473 150.675 13.4081 162.808C21.6615 174.95 37.1054 176.867 41.0533 175.268C44.9992 173.668 54.7527 161.541 52.2294 147.08C49.7061 132.618 42.2037 121.875 42.2037 121.875Z" fill="url(#paint25_linear_3169_75944)"/>
<path d="M53.1606 183.445C51.2691 167.081 51.3068 154.365 53.391 154.085C55.6978 153.775 59.6377 168.827 62.1908 187.712C62.4432 189.598 62.6716 191.452 62.8823 193.258L53.1606 183.445Z" fill="url(#paint26_linear_3169_75944)"/>
<path d="M53.1504 183.458C36.8045 181.419 24.0926 181.342 23.7926 183.418C23.4588 185.725 38.4755 189.8 57.3347 192.526C59.2183 192.796 61.07 193.046 62.8741 193.271L53.1504 183.458Z" fill="url(#paint27_linear_3169_75944)"/>
<path d="M53.9488 154.248L53.9528 154.293C56.2993 156.131 59.8339 170.287 62.1903 187.708C62.4426 189.594 62.6711 191.448 62.8817 193.254L62.8777 193.26C61.0717 193.035 59.2239 192.789 57.3384 192.516C39.9534 190.003 25.8447 186.347 24.0049 183.983L23.9492 183.975C23.9492 183.975 30.8694 195.101 43.1641 203.12C55.4628 211.139 70.4516 206.957 73.4756 203.957C76.4996 200.959 80.823 186.007 72.9193 173.639C65.0136 161.273 53.9488 154.248 53.9488 154.248Z" fill="url(#paint28_linear_3169_75944)"/>
<path d="M84.3508 206.048C79.026 190.459 76.3617 178.027 78.3366 177.308C80.5241 176.515 87.5715 190.385 94.0805 208.297C94.7302 210.083 95.3501 211.845 95.9362 213.57L84.3508 206.048Z" fill="url(#paint29_linear_3169_75944)"/>
<path d="M84.344 206.06C67.9366 207.542 55.4968 210.169 55.6478 212.265C55.8108 214.586 71.35 215.376 90.3603 214.033C92.2597 213.9 94.1174 213.747 95.9314 213.58L84.344 206.06Z" fill="url(#paint30_linear_3169_75944)"/>
<path d="M78.9159 177.352L78.9317 177.394C81.614 178.691 88.0733 191.769 94.0796 208.295C94.7293 210.082 95.3492 211.844 95.9353 213.569L95.9313 213.574C94.1193 213.737 92.2596 213.888 90.3602 214.023C72.842 215.265 58.2764 214.687 55.9736 212.772L55.918 212.776C55.918 212.776 65.0456 222.18 78.7668 227.401C92.4881 232.622 106.241 225.345 108.564 221.774C110.882 218.2 111.929 202.675 101.576 192.267C91.2205 181.862 78.9159 177.352 78.9159 177.352Z" fill="url(#paint31_linear_3169_75944)"/>
<path d="M32.3623 62.8971C47.679 56.8332 59.9717 53.5807 60.7803 55.5179C61.6804 57.6676 48.1578 65.3687 30.5781 72.7241C28.8237 73.4572 27.0951 74.1606 25.4023 74.8262L32.3623 62.8971Z" fill="url(#paint32_linear_3169_75944)"/>
<path d="M32.3472 62.8897C30.0881 46.5696 26.8714 34.2709 24.7832 34.5173C22.4745 34.7935 22.4228 50.3526 24.67 69.2774C24.8965 71.1669 25.1349 73.0167 25.3832 74.8207L32.3472 62.8897Z" fill="url(#paint33_linear_3169_75944)"/>
<path d="M60.7655 56.1011L60.7238 56.115C59.5515 58.8569 46.7959 65.9341 30.5772 72.7212C28.8228 73.4544 27.0942 74.1577 25.4014 74.8233L25.3935 74.8193C25.1431 73.0173 24.9047 71.1695 24.6802 69.278C22.6079 51.8353 22.4907 37.2637 24.2927 34.8715L24.2868 34.8159C24.2868 34.8159 15.33 44.3807 10.7682 58.3324C6.20637 72.2881 14.128 85.6835 17.8057 87.8273C21.4873 89.9731 37.0444 90.2791 46.9449 79.4427C56.8454 68.6044 60.7655 56.1011 60.7655 56.1011Z" fill="url(#paint34_linear_3169_75944)"/>
<path d="M57.8351 30.3174C74.1333 27.9074 86.8432 27.5438 87.1889 29.616C87.5724 31.9109 72.6511 36.3237 53.8594 39.4748C51.9798 39.7888 50.138 40.0769 48.3379 40.3431L57.8351 30.3174Z" fill="url(#paint35_linear_3169_75944)"/>
<path d="M57.8234 30.3062C59.3453 13.9027 59.0215 1.19278 56.9333 0.958335C54.6206 0.700043 51.0204 15.8379 48.8925 34.7747C48.6858 36.6661 48.4911 38.5219 48.3242 40.3339L57.8234 30.3062Z" fill="url(#paint36_linear_3169_75944)"/>
<path d="M87.0412 30.1841L86.9994 30.188C85.2331 32.5902 71.198 36.5698 53.8606 39.4766C51.9811 39.7905 50.1392 40.0786 48.3391 40.3449L48.3332 40.3429C48.5001 38.5289 48.6888 36.6731 48.9014 34.7836C50.8605 17.3271 54.0712 3.11113 56.376 1.19382L56.378 1.13818C56.378 1.13818 45.4781 8.41008 37.8505 20.9531C30.2269 33.4962 34.8841 48.3459 37.9777 51.2785C41.0692 54.2072 56.1475 58.0517 68.2594 49.7606C80.3733 41.4635 87.0412 30.1841 87.0412 30.1841Z" fill="url(#paint37_linear_3169_75944)"/>
</g>
<defs>
<linearGradient id="paint0_linear_3169_75944" x1="97.3785" y1="256.49" x2="140.079" y2="213.789" gradientUnits="userSpaceOnUse">
<stop stop-color="#FFD002"/>
<stop offset="1" stop-color="#FAA919"/>
</linearGradient>
<linearGradient id="paint1_linear_3169_75944" x1="211.091" y1="100.845" x2="232.194" y2="100.845" gradientUnits="userSpaceOnUse">
<stop stop-color="#FFD002"/>
<stop offset="1" stop-color="#F9A11B"/>
</linearGradient>
<linearGradient id="paint2_linear_3169_75944" x1="255.571" y1="86.8546" x2="231.505" y2="110.921" gradientUnits="userSpaceOnUse">
<stop stop-color="#FCF8CC"/>
<stop offset="0.3276" stop-color="#FDE682"/>
<stop offset="0.6488" stop-color="#FED540"/>
<stop offset="0.8806" stop-color="#FFCB18"/>
<stop offset="1" stop-color="#FFC708"/>
</linearGradient>
<linearGradient id="paint3_linear_3169_75944" x1="216.103" y1="84.7633" x2="249.321" y2="117.981" gradientUnits="userSpaceOnUse">
<stop stop-color="#FBF5B5"/>
<stop offset="0.0236" stop-color="#FBF3A7"/>
<stop offset="0.1754" stop-color="#FCE84E"/>
<stop offset="0.282" stop-color="#FDE216"/>
<stop offset="0.3333" stop-color="#FDDF00"/>
<stop offset="0.5" stop-color="#FFDE00"/>
<stop offset="1" stop-color="#F58B1F"/>
</linearGradient>
<linearGradient id="paint4_linear_3169_75944" x1="214.864" y1="121.498" x2="222.931" y2="154.371" gradientUnits="userSpaceOnUse">
<stop stop-color="#FFD002"/>
<stop offset="1" stop-color="#F9A11B"/>
</linearGradient>
<linearGradient id="paint5_linear_3169_75944" x1="252.95" y1="149.05" x2="220.607" y2="149.051" gradientUnits="userSpaceOnUse">
<stop stop-color="#FCF8CC"/>
<stop offset="0.3276" stop-color="#FDE682"/>
<stop offset="0.6488" stop-color="#FED540"/>
<stop offset="0.8806" stop-color="#FFCB18"/>
<stop offset="1" stop-color="#FFC708"/>
</linearGradient>
<linearGradient id="paint6_linear_3169_75944" x1="218.83" y1="125.773" x2="237.875" y2="170.763" gradientUnits="userSpaceOnUse">
<stop stop-color="#FBF5B5"/>
<stop offset="0.0236" stop-color="#FBF3A7"/>
<stop offset="0.1754" stop-color="#FCE84E"/>
<stop offset="0.282" stop-color="#FDE216"/>
<stop offset="0.3333" stop-color="#FDDF00"/>
<stop offset="0.5" stop-color="#FFDE00"/>
<stop offset="1" stop-color="#F58B1F"/>
</linearGradient>
<linearGradient id="paint7_linear_3169_75944" x1="193.097" y1="173.662" x2="204.195" y2="173.662" gradientUnits="userSpaceOnUse">
<stop stop-color="#FFD002"/>
<stop offset="1" stop-color="#F9A11B"/>
</linearGradient>
<linearGradient id="paint8_linear_3169_75944" x1="220.298" y1="195.827" x2="205.309" y2="180.973" gradientUnits="userSpaceOnUse">
<stop stop-color="#FCF8CC"/>
<stop offset="0.3276" stop-color="#FDE682"/>
<stop offset="0.6488" stop-color="#FED540"/>
<stop offset="0.8806" stop-color="#FFCB18"/>
<stop offset="1" stop-color="#FFC708"/>
</linearGradient>
<linearGradient id="paint9_linear_3169_75944" x1="184.299" y1="171.191" x2="215.347" y2="201.959" gradientUnits="userSpaceOnUse">
<stop stop-color="#FBF5B5"/>
<stop offset="0.0236" stop-color="#FBF3A7"/>
<stop offset="0.1754" stop-color="#FCE84E"/>
<stop offset="0.282" stop-color="#FDE216"/>
<stop offset="0.3333" stop-color="#FDDF00"/>
<stop offset="0.5" stop-color="#FFDE00"/>
<stop offset="1" stop-color="#F58B1F"/>
</linearGradient>
<linearGradient id="paint10_linear_3169_75944" x1="160.069" y1="195.412" x2="178.32" y2="195.412" gradientUnits="userSpaceOnUse">
<stop stop-color="#FFD002"/>
<stop offset="1" stop-color="#F9A11B"/>
</linearGradient>
<linearGradient id="paint11_linear_3169_75944" x1="186.08" y1="221.856" x2="174.59" y2="204.155" gradientUnits="userSpaceOnUse">
<stop stop-color="#FCF8CC"/>
<stop offset="0.3276" stop-color="#FDE682"/>
<stop offset="0.6488" stop-color="#FED540"/>
<stop offset="0.8806" stop-color="#FFCB18"/>
<stop offset="1" stop-color="#FFC708"/>
</linearGradient>
<linearGradient id="paint12_linear_3169_75944" x1="156.608" y1="190.857" x2="178.921" y2="225.23" gradientUnits="userSpaceOnUse">
<stop stop-color="#FBF5B5"/>
<stop offset="0.0236" stop-color="#FBF3A7"/>
<stop offset="0.1754" stop-color="#FCE84E"/>
<stop offset="0.282" stop-color="#FDE216"/>
<stop offset="0.3333" stop-color="#FDDF00"/>
<stop offset="0.5" stop-color="#FFDE00"/>
<stop offset="1" stop-color="#F58B1F"/>
</linearGradient>
<linearGradient id="paint13_linear_3169_75944" x1="203.644" y1="70.5061" x2="221.87" y2="59.8725" gradientUnits="userSpaceOnUse">
<stop stop-color="#FFD002"/>
<stop offset="1" stop-color="#F9A11B"/>
</linearGradient>
<linearGradient id="paint14_linear_3169_75944" x1="226.707" y1="47.1926" x2="237.342" y2="65.421" gradientUnits="userSpaceOnUse">
<stop stop-color="#FCF8CC"/>
<stop offset="0.3276" stop-color="#FDE682"/>
<stop offset="0.6488" stop-color="#FED540"/>
<stop offset="0.8806" stop-color="#FFCB18"/>
<stop offset="1" stop-color="#FFC708"/>
</linearGradient>
<linearGradient id="paint15_linear_3169_75944" x1="215.56" y1="49.0348" x2="237.41" y2="86.4875" gradientUnits="userSpaceOnUse">
<stop stop-color="#FBF5B5"/>
<stop offset="0.0236" stop-color="#FBF3A7"/>
<stop offset="0.1754" stop-color="#FCE84E"/>
<stop offset="0.282" stop-color="#FDE216"/>
<stop offset="0.3333" stop-color="#FDDF00"/>
<stop offset="0.5" stop-color="#FFDE00"/>
<stop offset="1" stop-color="#F58B1F"/>
</linearGradient>
<linearGradient id="paint16_linear_3169_75944" x1="180.609" y1="42.122" x2="196.028" y2="27.5156" gradientUnits="userSpaceOnUse">
<stop stop-color="#FFD002"/>
<stop offset="1" stop-color="#F9A11B"/>
</linearGradient>
<linearGradient id="paint17_linear_3169_75944" x1="194.034" y1="10.5965" x2="209.041" y2="26.4392" gradientUnits="userSpaceOnUse">
<stop stop-color="#FCF8CC"/>
<stop offset="0.3276" stop-color="#FDE682"/>
<stop offset="0.6488" stop-color="#FED540"/>
<stop offset="0.8806" stop-color="#FFCB18"/>
<stop offset="1" stop-color="#FFC708"/>
</linearGradient>
<linearGradient id="paint18_linear_3169_75944" x1="186.465" y1="18.3474" x2="217.682" y2="49.5641" gradientUnits="userSpaceOnUse">
<stop stop-color="#FBF5B5"/>
<stop offset="0.0236" stop-color="#FBF3A7"/>
<stop offset="0.1754" stop-color="#FCE84E"/>
<stop offset="0.282" stop-color="#FDE216"/>
<stop offset="0.3333" stop-color="#FDDF00"/>
<stop offset="0.5" stop-color="#FFDE00"/>
<stop offset="1" stop-color="#F58B1F"/>
</linearGradient>
<linearGradient id="paint19_linear_3169_75944" x1="116.267" y1="214.139" x2="158.969" y2="256.841" gradientUnits="userSpaceOnUse">
<stop stop-color="#FFD002"/>
<stop offset="1" stop-color="#FAA919"/>
</linearGradient>
<linearGradient id="paint20_linear_3169_75944" x1="44.9036" y1="100.847" x2="23.7982" y2="100.847" gradientUnits="userSpaceOnUse">
<stop stop-color="#FCF8CC"/>
<stop offset="0.3276" stop-color="#FDE682"/>
<stop offset="0.6488" stop-color="#FED540"/>
<stop offset="0.8806" stop-color="#FFCB18"/>
<stop offset="1" stop-color="#FFC708"/>
</linearGradient>
<linearGradient id="paint21_linear_3169_75944" x1="2.68102" y1="100.845" x2="23.7799" y2="100.845" gradientUnits="userSpaceOnUse">
<stop stop-color="#FFD002"/>
<stop offset="1" stop-color="#F9A11B"/>
</linearGradient>
<linearGradient id="paint22_linear_3169_75944" x1="5.51408" y1="82.5871" x2="41.6638" y2="118.737" gradientUnits="userSpaceOnUse">
<stop stop-color="#FBF5B5"/>
<stop offset="0.0236" stop-color="#FBF3A7"/>
<stop offset="0.1754" stop-color="#FCE84E"/>
<stop offset="0.282" stop-color="#FDE216"/>
<stop offset="0.3333" stop-color="#FDDF00"/>
<stop offset="0.5" stop-color="#FFDE00"/>
<stop offset="1" stop-color="#F58B1F"/>
</linearGradient>
<linearGradient id="paint23_linear_3169_75944" x1="41.1332" y1="121.498" x2="33.0655" y2="154.372" gradientUnits="userSpaceOnUse">
<stop stop-color="#FCF8CC"/>
<stop offset="0.3276" stop-color="#FDE682"/>
<stop offset="0.6488" stop-color="#FED540"/>
<stop offset="0.8806" stop-color="#FFCB18"/>
<stop offset="1" stop-color="#FFC708"/>
</linearGradient>
<linearGradient id="paint24_linear_3169_75944" x1="3.0461" y1="149.05" x2="35.39" y2="149.051" gradientUnits="userSpaceOnUse">
<stop stop-color="#FFD002"/>
<stop offset="1" stop-color="#F9A11B"/>
</linearGradient>
<linearGradient id="paint25_linear_3169_75944" x1="4.55821" y1="134.98" x2="52.2694" y2="155.178" gradientUnits="userSpaceOnUse">
<stop stop-color="#FBF5B5"/>
<stop offset="0.0236" stop-color="#FBF3A7"/>
<stop offset="0.1754" stop-color="#FCE84E"/>
<stop offset="0.282" stop-color="#FDE216"/>
<stop offset="0.3333" stop-color="#FDDF00"/>
<stop offset="0.5" stop-color="#FFDE00"/>
<stop offset="1" stop-color="#F58B1F"/>
</linearGradient>
<linearGradient id="paint26_linear_3169_75944" x1="65.6895" y1="166.102" x2="50.6977" y2="180.959" gradientUnits="userSpaceOnUse">
<stop stop-color="#FFD002"/>
<stop offset="1" stop-color="#F9A11B"/>
</linearGradient>
<linearGradient id="paint27_linear_3169_75944" x1="35.6992" y1="195.827" x2="50.687" y2="180.975" gradientUnits="userSpaceOnUse">
<stop stop-color="#FCF8CC"/>
<stop offset="0.3276" stop-color="#FDE682"/>
<stop offset="0.6488" stop-color="#FED540"/>
<stop offset="0.8806" stop-color="#FFCB18"/>
<stop offset="1" stop-color="#FFC708"/>
</linearGradient>
<linearGradient id="paint28_linear_3169_75944" x1="37.464" y1="167.614" x2="75.0973" y2="205.589" gradientUnits="userSpaceOnUse">
<stop stop-color="#FBF5B5"/>
<stop offset="0.0236" stop-color="#FBF3A7"/>
<stop offset="0.1754" stop-color="#FCE84E"/>
<stop offset="0.282" stop-color="#FDE216"/>
<stop offset="0.3333" stop-color="#FDDF00"/>
<stop offset="0.5" stop-color="#FFDE00"/>
<stop offset="1" stop-color="#F58B1F"/>
</linearGradient>
<linearGradient id="paint29_linear_3169_75944" x1="92.906" y1="186.437" x2="81.4136" y2="204.141" gradientUnits="userSpaceOnUse">
<stop stop-color="#FFD002"/>
<stop offset="1" stop-color="#F9A11B"/>
</linearGradient>
<linearGradient id="paint30_linear_3169_75944" x1="69.9172" y1="221.856" x2="81.4076" y2="204.156" gradientUnits="userSpaceOnUse">
<stop stop-color="#FCF8CC"/>
<stop offset="0.3276" stop-color="#FDE682"/>
<stop offset="0.6488" stop-color="#FED540"/>
<stop offset="0.8806" stop-color="#FFCB18"/>
<stop offset="1" stop-color="#FFC708"/>
</linearGradient>
<linearGradient id="paint31_linear_3169_75944" x1="65.6443" y1="193.916" x2="110.489" y2="223.027" gradientUnits="userSpaceOnUse">
<stop stop-color="#FBF5B5"/>
<stop offset="0.0236" stop-color="#FBF3A7"/>
<stop offset="0.1754" stop-color="#FCE84E"/>
<stop offset="0.282" stop-color="#FDE216"/>
<stop offset="0.3333" stop-color="#FDDF00"/>
<stop offset="0.5" stop-color="#FFDE00"/>
<stop offset="1" stop-color="#F58B1F"/>
</linearGradient>
<linearGradient id="paint32_linear_3169_75944" x1="52.3524" y1="70.5047" x2="34.126" y2="59.8711" gradientUnits="userSpaceOnUse">
<stop stop-color="#FCF8CC"/>
<stop offset="0.3276" stop-color="#FDE682"/>
<stop offset="0.6488" stop-color="#FED540"/>
<stop offset="0.8806" stop-color="#FFCB18"/>
<stop offset="1" stop-color="#FFC708"/>
</linearGradient>
<linearGradient id="paint33_linear_3169_75944" x1="15.8787" y1="49.2307" x2="34.1066" y2="59.8652" gradientUnits="userSpaceOnUse">
<stop stop-color="#FFD002"/>
<stop offset="1" stop-color="#F9A11B"/>
</linearGradient>
<linearGradient id="paint34_linear_3169_75944" x1="12.6068" y1="56.3998" x2="48.0132" y2="77.0566" gradientUnits="userSpaceOnUse">
<stop stop-color="#FBF5B5"/>
<stop offset="0.0236" stop-color="#FBF3A7"/>
<stop offset="0.1754" stop-color="#FCE84E"/>
<stop offset="0.282" stop-color="#FDE216"/>
<stop offset="0.3333" stop-color="#FDDF00"/>
<stop offset="0.5" stop-color="#FFDE00"/>
<stop offset="1" stop-color="#F58B1F"/>
</linearGradient>
<linearGradient id="paint35_linear_3169_75944" x1="75.3903" y1="42.1216" x2="59.9706" y2="27.5154" gradientUnits="userSpaceOnUse">
<stop stop-color="#FCF8CC"/>
<stop offset="0.3276" stop-color="#FDE682"/>
<stop offset="0.6488" stop-color="#FED540"/>
<stop offset="0.8806" stop-color="#FFCB18"/>
<stop offset="1" stop-color="#FFC708"/>
</linearGradient>
<linearGradient id="paint36_linear_3169_75944" x1="44.4673" y1="12.8321" x2="60.3094" y2="27.8384" gradientUnits="userSpaceOnUse">
<stop stop-color="#FFD002"/>
<stop offset="1" stop-color="#F9A11B"/>
</linearGradient>
<linearGradient id="paint37_linear_3169_75944" x1="40.0361" y1="18.2562" x2="70.2671" y2="48.4872" gradientUnits="userSpaceOnUse">
<stop stop-color="#FBF5B5"/>
<stop offset="0.0236" stop-color="#FBF3A7"/>
<stop offset="0.1754" stop-color="#FCE84E"/>
<stop offset="0.282" stop-color="#FDE216"/>
<stop offset="0.3333" stop-color="#FDDF00"/>
<stop offset="0.5" stop-color="#FFDE00"/>
<stop offset="1" stop-color="#F58B1F"/>
</linearGradient>
<clipPath id="clip0_3169_75944">
<rect width="256" height="256" fill="white" transform="translate(0 0.955078)"/>
</clipPath>
</defs>
</svg>
