<?xml version="1.0" encoding="utf-8"?>
<!-- Generator: Adobe Illustrator 23.0.6, SVG Export Plug-In . SVG Version: 6.00 Build 0)  -->
<svg version="1.1" id="Layer_1" xmlns="http://www.w3.org/2000/svg" xmlns:xlink="http://www.w3.org/1999/xlink" x="0px" y="0px"
	 viewBox="0 0 1451.3 1451.3" style="enable-background:new 0 0 1451.3 1451.3;" xml:space="preserve">
<style type="text/css">
	.st0{fill:#FFFFFF;}
</style>
<g>
	<path class="st0" d="M1315.7,735.9c3-159.8-58.3-313.1-172.7-427.5c-101.8-101.8-237-162.8-380.7-171.7
		c-142.3-8.8-282.7,34-395.3,120.4l36.3,47.3c0,0,0,0,0,0l12.1,15.8l48.4,63.1c170.7-131,414.3-114.8,566.7,37.6
		c71.2,71.2,114.2,162.9,124.1,260.7l-101.4-34.2l78.1,388.6l297.5-261.9L1315.7,735.9z"/>
	<path class="st0" d="M1048.1,1146.9l-24.2-31.5c0,0,0,0,0,0l-36.3-47.3c-77.3,59.3-169.5,88.4-261.4,88.4
		c-111.2,0-221.9-42.6-305.3-126C350.4,960,307,867.7,296.9,769.8L398.2,804l-78.1-388.6L22.6,677.2l113.1,38.2
		c-2.7,159.6,59.4,314.2,172.7,427.5c101.8,101.8,237,162.8,380.7,171.7c12.2,0.8,24.4,1.1,36.6,1.1c129.6,0,255.8-42.5,358.7-121.5
		L1048.1,1146.9C1048.1,1147,1048.1,1146.9,1048.1,1146.9z"/>
</g>
</svg>
