<?xml version="1.0" encoding="utf-8"?>
<!-- Generator: Adobe Illustrator 23.0.6, SVG Export Plug-In . SVG Version: 6.00 Build 0)  -->
<svg version="1.1" id="Layer_1" xmlns="http://www.w3.org/2000/svg" xmlns:xlink="http://www.w3.org/1999/xlink" x="0px" y="0px"
	 viewBox="0 0 1451.3 1451.3" style="enable-background:new 0 0 1451.3 1451.3;" xml:space="preserve">
<style type="text/css">
	.st0{fill:#FFFFFF;}
</style>
<g>
	<path class="st0" d="M524.4,552.7v-84.9c0-149.6,69.6-224.5,209.1-224.5c130.3,0,195.5,74.9,195.5,224.6v84.9h98.1v-93.8
		c0-91.6-25.9-165.3-77.5-221.2c-53.3-57.6-125.4-86.4-216-86.4c-95.3,0-170.3,27.6-225.1,82.6c-54.8,54.9-82.2,129.8-82.2,224.9v94
		H524.4z"/>
	<path class="st0" d="M1024.8,603.7H428.4c-44.1,0-80,35.8-80,80v536.4c0,44.2,35.8,80,80,80h596.3c44.2,0,80-35.8,80-80V683.7
		C1104.7,639.6,1068.9,603.7,1024.8,603.7z M805.7,1167.6H647.6l33.7-227.1c-32-16.5-54.6-49.1-54.6-87.6
		c0-55.2,44.7-99.9,99.9-99.9c55.1,0,99.9,44.7,99.9,99.9c0,38.5-22.5,71.1-54.6,87.6L805.7,1167.6z"/>
</g>
</svg>
