<?xml version="1.0" encoding="utf-8"?>
<!-- Generator: Adobe Illustrator 23.0.6, SVG Export Plug-In . SVG Version: 6.00 Build 0)  -->
<svg version="1.1" id="Layer_1" xmlns="http://www.w3.org/2000/svg" xmlns:xlink="http://www.w3.org/1999/xlink" x="0px" y="0px"
	 viewBox="0 0 1451.3 1451.3" style="enable-background:new 0 0 1451.3 1451.3;" xml:space="preserve">
<style type="text/css">
	.st0{fill:#FFFFFF;}
</style>
<g>
	<g>
		<path class="st0" d="M651.3,1273l4.7-2.3l-63.7-325.1c-37.4,6.6-54.3,12.3-57.6,13.5l-13.9,6.8l4.7,27.9L651.3,1273z"/>
	</g>
	<g>
		<path class="st0" d="M359.7,966.6L120,431.2c0,0,139.8-83.9,275.7-107.9c135.8-24,219.8-12,327.6-51.9
			c107.9-40,147.8-85.9,205.8-149.8c169.8,163.8,151.8,293.7,241.7,501.5C1031,814.7,775.3,778.8,607.5,830.7
			C403.4,893.9,359.7,966.6,359.7,966.6z"/>
	</g>
	<g>
		<path class="st0" d="M409,997.5l-16.5,33.3L527,1329.9l71.5-32.2l-150-333.4C423,981.5,411.8,994,409,997.5z"/>
	</g>
	<g>
		<path class="st0" d="M1224.7,257.8c-33.9,24.1-62.6,45-96.4,61.3c13.4,35.4,24.1,70.8,35,106.8c16.3,54.1,33.3,110.1,60.9,174
			l13.2,30.4l-19.5,26.8C1104,813.1,923.8,837.7,779,857.4c-44.3,6-86.6,11.9-124.1,20.6c31.7-3.6,69.7-7,115.1-9.8
			c165-9.9,390.2,86.8,561.4-65.5C1296.5,579.4,1342.4,457.8,1224.7,257.8z"/>
	</g>
</g>
</svg>
