<svg width="18" height="20" viewBox="0 0 18 20" fill="none" xmlns="http://www.w3.org/2000/svg">
<path d="M15.7213 8.08039H16.6813C16.9359 8.08039 17.1801 8.18153 17.3601 8.36157C17.5402 8.5416 17.6413 8.78578 17.6413 9.04039V18.6404C17.6413 18.895 17.5402 19.1392 17.3601 19.3192C17.1801 19.4993 16.9359 19.6004 16.6813 19.6004H1.32133C1.06672 19.6004 0.82254 19.4993 0.642506 19.3192C0.462471 19.1392 0.361328 18.895 0.361328 18.6404V9.04039C0.361328 8.78578 0.462471 8.5416 0.642506 8.36157C0.82254 8.18153 1.06672 8.08039 1.32133 8.08039H2.28133V7.12039C2.28133 6.23791 2.45515 5.36407 2.79286 4.54876C3.13057 3.73345 3.62556 2.99264 4.24957 2.36863C4.87358 1.74462 5.61439 1.24963 6.42969 0.91192C7.245 0.574208 8.11884 0.400391 9.00133 0.400391C9.88381 0.400391 10.7577 0.574208 11.573 0.91192C12.3883 1.24963 13.1291 1.74462 13.7531 2.36863C14.3771 2.99264 14.8721 3.73345 15.2098 4.54876C15.5475 5.36407 15.7213 6.23791 15.7213 7.12039V8.08039ZM13.8013 8.08039V7.12039C13.8013 5.84735 13.2956 4.62645 12.3954 3.72628C11.4953 2.8261 10.2744 2.32039 9.00133 2.32039C7.72829 2.32039 6.50739 2.8261 5.60721 3.72628C4.70704 4.62645 4.20133 5.84735 4.20133 7.12039V8.08039H13.8013ZM8.04133 11.9204V15.7604H9.96133V11.9204H8.04133Z" fill="#D6E1F0"/>
</svg>
