<?xml version="1.0" encoding="UTF-8"?>
<!DOCTYPE svg  PUBLIC '-//W3C//DTD SVG 1.1//EN'  'http://www.w3.org/Graphics/SVG/1.1/DTD/svg11.dtd' [
	<!ENTITY ns_flows "http://ns.adobe.com/Flows/1.0/">
	<!ENTITY ns_extend "http://ns.adobe.com/Extensibility/1.0/">
	<!ENTITY ns_ai "http://ns.adobe.com/AdobeIllustrator/10.0/">
	<!ENTITY ns_graphs "http://ns.adobe.com/Graphs/1.0/">
]>
<svg enable-background="new 0 0 141.7 141.7" version="1.1" viewBox="0 0 141.7 141.7" xml:space="preserve" xmlns="http://www.w3.org/2000/svg">
<path d="m140.9 132.6c-2.6-15.6-43.4-26.2-48.2-29.8-3.6-2.7-5.7-11.7-3.1-16.6 5.2-7.2 6-14.4 6.1-16.9 5.1 0.3 3.3-5.9 4.6-8.6 1.2-2.7 2.1-4.7 1.4-7.6-0.5-2.2-2.3-2-2.9-1.8 6.6-26-5.6-26.2-5.6-26.2s-5-16.9-28.7-15.3c-22.3 1.6-28.1 22.1-22.3 41.5-0.5 0.2-2.1 0.5-2.4 1.7-0.7 2.9 0.8 5 2 7.7s-0.6 8.9 4.6 8.6c0.1 2.5 0.9 9.5 5.9 16.6 3 5 0.5 13.8-3.1 16.5-4.8 3.5-45.6 14.2-48.2 29.8 0 0-0.9 4.5-0.9 9.5h141.7c0-5-0.9-9.1-0.9-9.1z" fill="#fff"/>
</svg>
