<svg width="64" height="64" viewBox="0 0 64 64" fill="none" xmlns="http://www.w3.org/2000/svg">
<path d="M51.67 33.1089L23.406 51.9515C23.2052 52.0851 22.9719 52.1618 22.731 52.1733C22.4901 52.1848 22.2506 52.1308 22.038 52.017C21.8254 51.9031 21.6476 51.7338 21.5236 51.5269C21.3996 51.32 21.3341 51.0834 21.334 50.8422V13.1569C21.3341 12.9157 21.3996 12.6791 21.5236 12.4722C21.6476 12.2653 21.8254 12.0959 22.038 11.9821C22.2506 11.8683 22.4901 11.8142 22.731 11.8257C22.9719 11.8373 23.2052 11.9139 23.406 12.0475L51.67 30.8902C51.8526 31.012 52.0023 31.1769 52.1059 31.3704C52.2094 31.564 52.2636 31.78 52.2636 31.9995C52.2636 32.219 52.2094 32.4351 52.1059 32.6286C52.0023 32.8221 51.8526 32.9871 51.67 33.1089Z" fill="#D6E1F0"/>
</svg>
