<?xml version="1.0" encoding="utf-8"?>
<!-- Generator: Adobe Illustrator 16.0.0, SVG Export Plug-In . SVG Version: 6.00 Build 0)  -->
<!DOCTYPE svg PUBLIC "-//W3C//DTD SVG 1.1//EN" "http://www.w3.org/Graphics/SVG/1.1/DTD/svg11.dtd">
<svg version="1.1" id="Layer_1" xmlns="http://www.w3.org/2000/svg" xmlns:xlink="http://www.w3.org/1999/xlink" x="0px" y="0px"
	 width="141.7px" height="141.7px" viewBox="0 0 141.7 141.7" enable-background="new 0 0 141.7 141.7" xml:space="preserve">
<g>
	
		<linearGradient id="SVGID_1_" gradientUnits="userSpaceOnUse" x1="3934.0005" y1="141.4927" x2="3911.9053" y2="119.3976" gradientTransform="matrix(-1 0 0 1 3989.0225 0)">
		<stop  offset="0" style="stop-color:#D0D2D3"/>
		<stop  offset="1" style="stop-color:#6D6E70"/>
	</linearGradient>
	<path fill="url(#SVGID_1_)" d="M80.791,121.948c0,0-20.224,4.885-30.187,14.489c-1.251,1.205,4.671,6.718,6.281,4.95
		c6.414-7.05,11.813-11.493,24.632-17.025C82.952,123.744,80.791,121.948,80.791,121.948z"/>
	
		<linearGradient id="SVGID_2_" gradientUnits="userSpaceOnUse" x1="3875.1558" y1="60.9497" x2="3864.2368" y2="60.9497" gradientTransform="matrix(-1 0 0 1 3989.0225 0)">
		<stop  offset="0" style="stop-color:#D0D2D3"/>
		<stop  offset="1" style="stop-color:#626366"/>
	</linearGradient>
	<path fill="url(#SVGID_2_)" d="M124.787,62.761c-5.267-6.704-9.908-11.363-10.777-10.708c-0.962,0.728,3.073,7.694,9.014,15.566
		c0.593,0.787,1.184,1.552,1.764,2.292V62.761z"/>
	
		<linearGradient id="SVGID_3_" gradientUnits="userSpaceOnUse" x1="-36.4385" y1="53.7109" x2="-48.8922" y2="66.1646" gradientTransform="matrix(1 0 0 1 173.3223 0)">
		<stop  offset="0" style="stop-color:#FFFFFF"/>
		<stop  offset="0.4265" style="stop-color:#CACBCD"/>
		<stop  offset="0.805" style="stop-color:#A2A3A6"/>
		<stop  offset="1" style="stop-color:#929497"/>
	</linearGradient>
	<path fill="url(#SVGID_3_)" d="M124.796,62.761c5.265-6.704,9.91-11.363,10.778-10.708c0.96,0.728-3.074,7.694-9.014,15.566
		c-0.595,0.787-1.184,1.552-1.765,2.292V62.761z"/>
	
		<linearGradient id="SVGID_4_" gradientUnits="userSpaceOnUse" x1="3872.564" y1="52.6284" x2="3855.374" y2="69.8183" gradientTransform="matrix(-1 0 0 1 3989.0225 0)">
		<stop  offset="0" style="stop-color:#FFFFFF"/>
		<stop  offset="0.166" style="stop-color:#E6E7E7"/>
		<stop  offset="0.3333" style="stop-color:#D0D2D3"/>
		<stop  offset="0.3412" style="stop-color:#CED0D1"/>
		<stop  offset="0.4272" style="stop-color:#C0C2C4"/>
		<stop  offset="0.5" style="stop-color:#BBBDBF"/>
		<stop  offset="1" style="stop-color:#4D4D4F"/>
	</linearGradient>
	<path fill="url(#SVGID_4_)" d="M113.863,52.316l0.015,0.019c-0.19,1.532,3.666,8.021,9.146,15.284
		c0.593,0.787,1.184,1.552,1.764,2.292h0.005c0.583-0.74,1.172-1.505,1.766-2.292c5.475-7.256,9.328-13.738,9.146-15.277
		l0.017-0.025c0,0,1.509,6.612-0.089,14.039c-1.601,7.426-8.634,11.349-10.839,11.349c-2.204,0-9.236-3.923-10.838-11.349
		C112.353,58.928,113.863,52.316,113.863,52.316z"/>
	
		<linearGradient id="SVGID_5_" gradientUnits="userSpaceOnUse" x1="3873.2056" y1="71.6382" x2="3869.031" y2="88.649" gradientTransform="matrix(-1 0 0 1 3989.0225 0)">
		<stop  offset="0" style="stop-color:#D0D2D3"/>
		<stop  offset="1" style="stop-color:#626366"/>
	</linearGradient>
	<path fill="url(#SVGID_5_)" d="M121.463,85.617c-2.361-8.193-4.915-14.257-5.964-13.976c-1.166,0.311-0.042,8.283,2.505,17.811
		c0.257,0.952,0.515,1.886,0.776,2.787L121.463,85.617z"/>
	
		<linearGradient id="SVGID_6_" gradientUnits="userSpaceOnUse" x1="330.145" y1="763.7769" x2="314.6332" y2="770.0622" gradientTransform="matrix(0.9268 0.3755 -0.3755 0.9268 116.3462 -745.9418)">
		<stop  offset="0" style="stop-color:#FFFFFF"/>
		<stop  offset="0.4265" style="stop-color:#CACBCD"/>
		<stop  offset="0.805" style="stop-color:#A2A3A6"/>
		<stop  offset="1" style="stop-color:#929497"/>
	</linearGradient>
	<path fill="url(#SVGID_6_)" d="M121.471,85.617c7.398-4.235,13.455-6.808,14.014-5.876c0.618,1.035-5.74,5.978-14.199,11.043
		c-0.846,0.503-1.679,0.99-2.496,1.458L121.471,85.617z"/>
	
		<linearGradient id="SVGID_7_" gradientUnits="userSpaceOnUse" x1="3506.8608" y1="758.5737" x2="3488.9856" y2="776.449" gradientTransform="matrix(-0.9268 -0.3755 -0.3755 0.9268 3652.873 687.632)">
		<stop  offset="0" style="stop-color:#FFFFFF"/>
		<stop  offset="0.166" style="stop-color:#E6E7E7"/>
		<stop  offset="0.3333" style="stop-color:#D0D2D3"/>
		<stop  offset="0.3412" style="stop-color:#CED0D1"/>
		<stop  offset="0.4272" style="stop-color:#C0C2C4"/>
		<stop  offset="0.5" style="stop-color:#BBBDBF"/>
		<stop  offset="1" style="stop-color:#4D4D4F"/>
	</linearGradient>
	<path fill="url(#SVGID_7_)" d="M115.263,71.834l0.005,0.021c-0.751,1.346,0.389,8.809,2.736,17.596
		c0.257,0.952,0.515,1.886,0.776,2.787l0.004,0.003c0.816-0.468,1.65-0.955,2.496-1.462c7.8-4.667,13.806-9.229,14.214-10.725
		l0.025-0.016c0,0-1.083,6.696-5.357,12.977c-4.271,6.281-12.261,7.273-14.304,6.445c-2.044-0.824-7.089-7.104-5.782-14.586
		S115.263,71.834,115.263,71.834z"/>
	
		<linearGradient id="SVGID_8_" gradientUnits="userSpaceOnUse" x1="2904.1704" y1="1296.1411" x2="2900.0903" y2="1292.0978" gradientTransform="matrix(-0.7103 -0.7039 -0.7039 0.7103 3079.7388 1222.2285)">
		<stop  offset="0" style="stop-color:#D0D2D3"/>
		<stop  offset="1" style="stop-color:#626366"/>
	</linearGradient>
	<path fill="url(#SVGID_8_)" d="M109.592,103.696c0.98-8.47,0.96-15.051-0.118-15.194c-1.193-0.162-3.232,7.628-4.553,17.402
		c-0.132,0.974-0.251,1.935-0.359,2.869L109.592,103.696z"/>
	
		<linearGradient id="SVGID_9_" gradientUnits="userSpaceOnUse" x1="929.5874" y1="1293.564" x2="918.6704" y2="1293.564" gradientTransform="matrix(0.7103 0.7039 -0.7039 0.7103 368.8828 -1463.054)">
		<stop  offset="0" style="stop-color:#FFFFFF"/>
		<stop  offset="0.4265" style="stop-color:#CACBCD"/>
		<stop  offset="0.805" style="stop-color:#A2A3A6"/>
		<stop  offset="1" style="stop-color:#929497"/>
	</linearGradient>
	<path fill="url(#SVGID_9_)" d="M109.6,103.7c8.459-1.056,15.036-1.096,15.191-0.021c0.174,1.193-7.599,3.303-17.356,4.716
		c-0.976,0.139-1.933,0.267-2.866,0.385L109.6,103.7z"/>
	
		<linearGradient id="SVGID_10_" gradientUnits="userSpaceOnUse" x1="2908.3042" y1="1298.437" x2="2885.6816" y2="1298.437" gradientTransform="matrix(-0.7103 -0.7039 -0.7039 0.7103 3079.7388 1222.2285)">
		<stop  offset="0" style="stop-color:#FFFFFF"/>
		<stop  offset="0.166" style="stop-color:#E6E7E7"/>
		<stop  offset="0.3333" style="stop-color:#D0D2D3"/>
		<stop  offset="0.3412" style="stop-color:#CED0D1"/>
		<stop  offset="0.4272" style="stop-color:#C0C2C4"/>
		<stop  offset="0.5" style="stop-color:#BBBDBF"/>
		<stop  offset="1" style="stop-color:#4D4D4F"/>
	</linearGradient>
	<path fill="url(#SVGID_10_)" d="M109.185,88.585l-0.003,0.023c-1.214,0.952-3.042,8.278-4.261,17.295
		c-0.132,0.974-0.251,1.935-0.359,2.869l0.003,0.004c0.936-0.12,1.891-0.247,2.866-0.389c8.995-1.3,16.297-3.191,17.249-4.415
		l0.03-0.002c0,0-3.583,5.758-9.945,9.906c-6.365,4.15-14.117,1.983-15.684,0.433c-1.568-1.552-3.804-9.287,0.286-15.689
		C103.459,92.22,109.185,88.585,109.185,88.585z"/>
	
		<linearGradient id="SVGID_11_" gradientUnits="userSpaceOnUse" x1="2519.2271" y1="1481.9019" x2="2514.0847" y2="1473.9802" gradientTransform="matrix(-0.5445 -0.8388 -0.8388 0.5445 2702.1997 1416.1201)">
		<stop  offset="0" style="stop-color:#D0D2D3"/>
		<stop  offset="1" style="stop-color:#626366"/>
	</linearGradient>
	<path fill="url(#SVGID_11_)" d="M93.454,115.39c2.757-8.066,4.136-14.499,3.111-14.871c-1.133-0.41-4.779,6.768-8.146,16.035
		c-0.338,0.926-0.656,1.835-0.96,2.729L93.454,115.39z"/>
	
		<linearGradient id="SVGID_12_" gradientUnits="userSpaceOnUse" x1="1314.6177" y1="1477.2397" x2="1303.6978" y2="1477.2397" gradientTransform="matrix(0.5445 0.8388 -0.8388 0.5445 624.2206 -1783.4874)">
		<stop  offset="0" style="stop-color:#FFFFFF"/>
		<stop  offset="0.4265" style="stop-color:#CACBCD"/>
		<stop  offset="0.805" style="stop-color:#A2A3A6"/>
		<stop  offset="1" style="stop-color:#929497"/>
	</linearGradient>
	<path fill="url(#SVGID_12_)" d="M93.458,115.395c8.489,0.767,14.927,2.129,14.848,3.212c-0.083,1.2-8.124,1.61-17.962,0.917
		c-0.982-0.071-1.942-0.15-2.883-0.236L93.458,115.395z"/>
	
		<linearGradient id="SVGID_13_" gradientUnits="userSpaceOnUse" x1="2522.1821" y1="1482.1196" x2="2500.9749" y2="1482.1196" gradientTransform="matrix(-0.5445 -0.8388 -0.8388 0.5445 2702.1997 1416.1211)">
		<stop  offset="0" style="stop-color:#FFFFFF"/>
		<stop  offset="0.166" style="stop-color:#E6E7E7"/>
		<stop  offset="0.3333" style="stop-color:#D0D2D3"/>
		<stop  offset="0.3412" style="stop-color:#CED0D1"/>
		<stop  offset="0.4272" style="stop-color:#C0C2C4"/>
		<stop  offset="0.5" style="stop-color:#BBBDBF"/>
		<stop  offset="1" style="stop-color:#4D4D4F"/>
	</linearGradient>
	<path fill="url(#SVGID_13_)" d="M96.264,100.542l-0.009,0.021c-1.386,0.672-4.729,7.438-7.837,15.991
		c-0.338,0.926-0.656,1.835-0.96,2.729l0.001,0.005c0.936,0.083,1.899,0.16,2.882,0.229c9.069,0.643,16.604,0.346,17.797-0.646
		l0.027,0.002c0,0-4.723,4.866-11.822,7.568c-7.101,2.7-14.22-1.063-15.419-2.91c-1.2-1.849-1.74-9.886,3.615-15.272
		C89.897,102.874,96.264,100.542,96.264,100.542z"/>
	
		<linearGradient id="SVGID_14_" gradientUnits="userSpaceOnUse" x1="3955.0894" y1="-1043.9409" x2="3944.1694" y2="-1043.9409" gradientTransform="matrix(-0.8637 0.5039 0.5039 0.8637 4052.064 -1046.0684)">
		<stop  offset="0" style="stop-color:#D0D2D3"/>
		<stop  offset="1" style="stop-color:#626366"/>
	</linearGradient>
	<path fill="url(#SVGID_14_)" d="M120.356,41.314c-7.927-3.139-14.287-4.821-14.704-3.821c-0.467,1.113,6.529,5.097,15.627,8.905
		c0.91,0.38,1.803,0.741,2.681,1.087L120.356,41.314z"/>
	
		<linearGradient id="SVGID_15_" gradientUnits="userSpaceOnUse" x1="-121.9258" y1="-1048.7798" x2="-121.9258" y2="-1037.8584" gradientTransform="matrix(0.8637 -0.5039 0.5039 0.8637 755.7325 877.5804)">
		<stop  offset="0" style="stop-color:#FFFFFF"/>
		<stop  offset="0.4265" style="stop-color:#CACBCD"/>
		<stop  offset="0.805" style="stop-color:#A2A3A6"/>
		<stop  offset="1" style="stop-color:#929497"/>
	</linearGradient>
	<path fill="url(#SVGID_15_)" d="M120.363,41.309c1.17-8.444,2.836-14.81,3.912-14.681c1.197,0.141,1.223,8.192,0.062,17.986
		c-0.118,0.979-0.238,1.936-0.372,2.87L120.363,41.309z"/>
	
		<linearGradient id="SVGID_16_" gradientUnits="userSpaceOnUse" x1="3944.1655" y1="-1050.4302" x2="3944.1655" y2="-1027.9888" gradientTransform="matrix(-0.8637 0.5039 0.5039 0.8637 4052.064 -1046.0684)">
		<stop  offset="0" style="stop-color:#FFFFFF"/>
		<stop  offset="0.166" style="stop-color:#E6E7E7"/>
		<stop  offset="0.3333" style="stop-color:#D0D2D3"/>
		<stop  offset="0.3412" style="stop-color:#CED0D1"/>
		<stop  offset="0.4272" style="stop-color:#C0C2C4"/>
		<stop  offset="0.5" style="stop-color:#BBBDBF"/>
		<stop  offset="1" style="stop-color:#4D4D4F"/>
	</linearGradient>
	<path fill="url(#SVGID_16_)" d="M105.658,37.796l0.02,0.009c0.606,1.417,7.206,5.082,15.602,8.592
		c0.91,0.38,1.803,0.741,2.681,1.087l0.002-0.001c0.13-0.932,0.255-1.889,0.368-2.868c1.075-9.024,1.136-16.565,0.202-17.804
		l0.004-0.029c0,0,4.637,4.949,6.996,12.171c2.361,7.219-1.74,14.153-3.643,15.262c-1.904,1.109-9.955,1.268-15.082-4.34
		C107.685,44.268,105.658,37.796,105.658,37.796z"/>
	
		<linearGradient id="SVGID_17_" gradientUnits="userSpaceOnUse" x1="3822.1802" y1="-1519.3701" x2="3811.1885" y2="-1519.3701" gradientTransform="matrix(-0.726 0.6877 0.6877 0.726 3917.8645 -1494.887)">
		<stop  offset="0" style="stop-color:#D0D2D3"/>
		<stop  offset="1" style="stop-color:#626366"/>
	</linearGradient>
	<path fill="url(#SVGID_17_)" d="M107.175,24.455c-8.436-1.246-15.012-1.435-15.19-0.363c-0.199,1.188,7.523,3.474,17.247,5.103
		c0.971,0.162,1.927,0.313,2.856,0.451L107.175,24.455z"/>
	
		<linearGradient id="SVGID_18_" gradientUnits="userSpaceOnUse" x1="9.7148" y1="-1526.4434" x2="9.7148" y2="-1515.1519" gradientTransform="matrix(0.726 -0.6877 0.6877 0.726 1147.7217 1129.129)">
		<stop  offset="0" style="stop-color:#FFFFFF"/>
		<stop  offset="0.4265" style="stop-color:#CACBCD"/>
		<stop  offset="0.805" style="stop-color:#A2A3A6"/>
		<stop  offset="1" style="stop-color:#929497"/>
	</linearGradient>
	<path fill="url(#SVGID_18_)" d="M107.18,24.449c-0.788-8.489-0.62-15.065,0.461-15.186c1.198-0.137,3.06,7.697,4.16,17.496
		c0.106,0.98,0.206,1.939,0.296,2.879L107.18,24.449z"/>
	
		<linearGradient id="SVGID_19_" gradientUnits="userSpaceOnUse" x1="3887.9009" y1="18.2603" x2="3871.7463" y2="34.4149" gradientTransform="matrix(-1 0 0 1 3989.0225 0)">
		<stop  offset="0" style="stop-color:#FFFFFF"/>
		<stop  offset="0.166" style="stop-color:#E6E7E7"/>
		<stop  offset="0.3333" style="stop-color:#D0D2D3"/>
		<stop  offset="0.3412" style="stop-color:#CED0D1"/>
		<stop  offset="0.4272" style="stop-color:#C0C2C4"/>
		<stop  offset="0.5" style="stop-color:#BBBDBF"/>
		<stop  offset="1" style="stop-color:#4D4D4F"/>
	</linearGradient>
	<path fill="url(#SVGID_19_)" d="M92.059,24.386l0.025,0.001c0.912,1.244,8.177,3.303,17.147,4.807
		c0.971,0.162,1.927,0.313,2.856,0.451l0.005-0.003c-0.088-0.938-0.186-1.899-0.295-2.879c-1.015-9.03-2.678-16.388-3.867-17.379
		l-0.004-0.03c0,0,5.642,3.761,9.59,10.254c3.944,6.49,1.534,14.174-0.066,15.693c-1.6,1.514-9.403,3.502-15.671-0.787
		C95.511,30.221,92.059,24.386,92.059,24.386z"/>
	<linearGradient id="SVGID_20_" gradientUnits="userSpaceOnUse" x1="64.7954" y1="119.5786" x2="86.8905" y2="141.6737">
		<stop  offset="0" style="stop-color:#D0D2D3"/>
		<stop  offset="1" style="stop-color:#6D6E70"/>
	</linearGradient>
	<path fill="url(#SVGID_20_)" d="M60.941,121.948c0,0,20.225,4.885,30.187,14.489c1.253,1.205-4.67,6.718-6.279,4.95
		c-6.414-7.05-11.813-11.493-24.631-17.025C58.781,123.744,60.941,121.948,60.941,121.948z"/>
	<linearGradient id="SVGID_21_" gradientUnits="userSpaceOnUse" x1="27.8652" y1="60.9512" x2="16.9443" y2="60.9512">
		<stop  offset="0" style="stop-color:#FFFFFF"/>
		<stop  offset="0.4265" style="stop-color:#CACBCD"/>
		<stop  offset="0.805" style="stop-color:#A2A3A6"/>
		<stop  offset="1" style="stop-color:#929497"/>
	</linearGradient>
	<path fill="url(#SVGID_21_)" d="M16.944,62.761c5.267-6.704,9.913-11.363,10.779-10.708c0.962,0.728-3.073,7.694-9.013,15.566
		c-0.594,0.787-1.183,1.552-1.767,2.292V62.761z"/>
	
		<linearGradient id="SVGID_22_" gradientUnits="userSpaceOnUse" x1="3809.6841" y1="60.9497" x2="3798.7651" y2="60.9497" gradientTransform="matrix(-1 0 0 1 3815.7002 0)">
		<stop  offset="0" style="stop-color:#D0D2D3"/>
		<stop  offset="1" style="stop-color:#626366"/>
	</linearGradient>
	<path fill="url(#SVGID_22_)" d="M16.937,62.761c-5.265-6.704-9.911-11.363-10.778-10.708c-0.962,0.728,3.074,7.694,9.013,15.566
		c0.594,0.787,1.184,1.552,1.766,2.292V62.761z"/>
	<linearGradient id="SVGID_23_" gradientUnits="userSpaceOnUse" x1="7.4839" y1="51.5024" x2="26.1911" y2="70.2096">
		<stop  offset="0" style="stop-color:#FFFFFF"/>
		<stop  offset="0.166" style="stop-color:#E6E7E7"/>
		<stop  offset="0.3333" style="stop-color:#D0D2D3"/>
		<stop  offset="0.3412" style="stop-color:#CED0D1"/>
		<stop  offset="0.4272" style="stop-color:#C0C2C4"/>
		<stop  offset="0.5" style="stop-color:#BBBDBF"/>
		<stop  offset="1" style="stop-color:#4D4D4F"/>
	</linearGradient>
	<path fill="url(#SVGID_23_)" d="M27.871,52.316l-0.017,0.019c0.191,1.532-3.662,8.021-9.144,15.284
		c-0.594,0.787-1.183,1.552-1.767,2.292h-0.003c-0.583-0.74-1.171-1.505-1.766-2.292C9.702,60.363,5.848,53.88,6.03,52.341
		l-0.016-0.025c0,0-1.51,6.612,0.089,14.039c1.601,7.426,8.634,11.349,10.837,11.349c2.205,0,9.238-3.923,10.838-11.349
		C29.378,58.928,27.871,52.316,27.871,52.316z"/>
	<linearGradient id="SVGID_24_" gradientUnits="userSpaceOnUse" x1="25.9155" y1="71.6372" x2="21.7407" y2="88.6488">
		<stop  offset="0" style="stop-color:#FFFFFF"/>
		<stop  offset="0.4265" style="stop-color:#CACBCD"/>
		<stop  offset="0.805" style="stop-color:#A2A3A6"/>
		<stop  offset="1" style="stop-color:#929497"/>
	</linearGradient>
	<path fill="url(#SVGID_24_)" d="M20.267,85.617c2.365-8.193,4.917-14.257,5.969-13.976c1.165,0.311,0.039,8.283-2.508,17.811
		c-0.254,0.952-0.513,1.886-0.778,2.787L20.267,85.617z"/>
	
		<linearGradient id="SVGID_25_" gradientUnits="userSpaceOnUse" x1="3895.9624" y1="-680.9409" x2="3880.4512" y2="-674.6558" gradientTransform="matrix(-0.9268 0.3755 0.3755 0.9268 3872.6763 -745.9418)">
		<stop  offset="0" style="stop-color:#D0D2D3"/>
		<stop  offset="1" style="stop-color:#626366"/>
	</linearGradient>
	<path fill="url(#SVGID_25_)" d="M20.26,85.617c-7.399-4.235-13.455-6.808-14.012-5.876c-0.619,1.035,5.739,5.978,14.198,11.043
		c0.846,0.503,1.68,0.99,2.496,1.458L20.26,85.617z"/>
	
		<linearGradient id="SVGID_26_" gradientUnits="userSpaceOnUse" x1="-76.3833" y1="-688.0659" x2="-57.4251" y2="-669.1077" gradientTransform="matrix(0.9268 -0.3755 0.3755 0.9268 336.1503 687.632)">
		<stop  offset="0" style="stop-color:#FFFFFF"/>
		<stop  offset="0.166" style="stop-color:#E6E7E7"/>
		<stop  offset="0.3333" style="stop-color:#D0D2D3"/>
		<stop  offset="0.3412" style="stop-color:#CED0D1"/>
		<stop  offset="0.4272" style="stop-color:#C0C2C4"/>
		<stop  offset="0.5" style="stop-color:#BBBDBF"/>
		<stop  offset="1" style="stop-color:#4D4D4F"/>
	</linearGradient>
	<path fill="url(#SVGID_26_)" d="M26.47,71.834l-0.008,0.021c0.754,1.346-0.385,8.809-2.734,17.596
		c-0.254,0.952-0.513,1.886-0.778,2.787l-0.003,0.003c-0.818-0.468-1.649-0.955-2.496-1.462C12.653,86.113,6.646,81.55,6.239,80.055
		L6.213,80.04c0,0,1.084,6.696,5.355,12.977c4.272,6.281,12.264,7.273,14.305,6.445c2.042-0.824,7.091-7.104,5.785-14.586
		C30.352,77.393,26.47,71.834,26.47,71.834z"/>
	
		<linearGradient id="SVGID_27_" gradientUnits="userSpaceOnUse" x1="175.2212" y1="-1413.7241" x2="164.3003" y2="-1413.7241" gradientTransform="matrix(0.7103 -0.7039 0.7039 0.7103 909.2837 1222.2285)">
		<stop  offset="0" style="stop-color:#D0D2D3"/>
		<stop  offset="1" style="stop-color:#626366"/>
	</linearGradient>
	<path fill="url(#SVGID_27_)" d="M32.14,103.696c-0.98-8.47-0.958-15.051,0.119-15.194c1.193-0.162,3.233,7.628,4.555,17.402
		c0.131,0.974,0.248,1.935,0.357,2.869L32.14,103.696z"/>
	
		<linearGradient id="SVGID_28_" gradientUnits="userSpaceOnUse" x1="3662.314" y1="-1414.5396" x2="3651.397" y2="-1414.5396" gradientTransform="matrix(-0.7103 0.7039 0.7039 0.7103 3620.1396 -1463.054)">
		<stop  offset="0" style="stop-color:#FFFFFF"/>
		<stop  offset="0.4265" style="stop-color:#CACBCD"/>
		<stop  offset="0.805" style="stop-color:#A2A3A6"/>
		<stop  offset="1" style="stop-color:#929497"/>
	</linearGradient>
	<path fill="url(#SVGID_28_)" d="M32.131,103.7c-8.457-1.056-15.035-1.096-15.19-0.021c-0.173,1.193,7.598,3.303,17.357,4.716
		c0.974,0.139,1.934,0.267,2.867,0.385L32.131,103.7z"/>
	
		<linearGradient id="SVGID_29_" gradientUnits="userSpaceOnUse" x1="164.2974" y1="-1423.4507" x2="164.2974" y2="-1395.783" gradientTransform="matrix(0.7103 -0.7039 0.7039 0.7103 909.2837 1222.2285)">
		<stop  offset="0" style="stop-color:#FFFFFF"/>
		<stop  offset="0.166" style="stop-color:#E6E7E7"/>
		<stop  offset="0.3333" style="stop-color:#D0D2D3"/>
		<stop  offset="0.3412" style="stop-color:#CED0D1"/>
		<stop  offset="0.4272" style="stop-color:#C0C2C4"/>
		<stop  offset="0.5" style="stop-color:#BBBDBF"/>
		<stop  offset="1" style="stop-color:#4D4D4F"/>
	</linearGradient>
	<path fill="url(#SVGID_29_)" d="M32.548,88.585l0.002,0.023c1.213,0.952,3.042,8.278,4.263,17.295
		c0.131,0.974,0.248,1.935,0.357,2.869l-0.004,0.004c-0.934-0.12-1.89-0.247-2.865-0.389c-8.996-1.3-16.297-3.191-17.25-4.415
		l-0.028-0.002c0,0,3.582,5.758,9.944,9.906c6.364,4.15,14.12,1.983,15.686,0.433c1.565-1.552,3.801-9.287-0.289-15.689
		C38.272,92.22,32.548,88.585,32.548,88.585z"/>
	
		<linearGradient id="SVGID_30_" gradientUnits="userSpaceOnUse" x1="427.5601" y1="-1748.8325" x2="416.6392" y2="-1748.8325" gradientTransform="matrix(0.5445 -0.8388 0.8388 0.5445 1286.8217 1416.1201)">
		<stop  offset="0" style="stop-color:#D0D2D3"/>
		<stop  offset="1" style="stop-color:#626366"/>
	</linearGradient>
	<path fill="url(#SVGID_30_)" d="M48.28,115.39c-2.754-8.066-4.135-14.499-3.112-14.871c1.132-0.41,4.78,6.768,8.146,16.035
		c0.337,0.926,0.657,1.835,0.96,2.729L48.28,115.39z"/>
	
		<linearGradient id="SVGID_31_" gradientUnits="userSpaceOnUse" x1="3409.3296" y1="-1749.6558" x2="3398.4097" y2="-1749.6558" gradientTransform="matrix(-0.5445 0.8388 0.8388 0.5445 3364.8018 -1783.4874)">
		<stop  offset="0" style="stop-color:#FFFFFF"/>
		<stop  offset="0.4265" style="stop-color:#CACBCD"/>
		<stop  offset="0.805" style="stop-color:#A2A3A6"/>
		<stop  offset="1" style="stop-color:#929497"/>
	</linearGradient>
	<path fill="url(#SVGID_31_)" d="M48.276,115.395c-8.49,0.767-14.928,2.129-14.85,3.212c0.084,1.2,8.125,1.61,17.964,0.917
		c0.98-0.071,1.942-0.15,2.881-0.236L48.276,115.395z"/>
	
		<linearGradient id="SVGID_32_" gradientUnits="userSpaceOnUse" x1="416.6353" y1="-1758.5581" x2="416.6353" y2="-1730.8922" gradientTransform="matrix(0.5445 -0.8388 0.8388 0.5445 1286.8217 1416.1211)">
		<stop  offset="0" style="stop-color:#FFFFFF"/>
		<stop  offset="0.166" style="stop-color:#E6E7E7"/>
		<stop  offset="0.3333" style="stop-color:#D0D2D3"/>
		<stop  offset="0.3412" style="stop-color:#CED0D1"/>
		<stop  offset="0.4272" style="stop-color:#C0C2C4"/>
		<stop  offset="0.5" style="stop-color:#BBBDBF"/>
		<stop  offset="1" style="stop-color:#4D4D4F"/>
	</linearGradient>
	<path fill="url(#SVGID_32_)" d="M45.468,100.542l0.008,0.021c1.389,0.672,4.73,7.438,7.838,15.991
		c0.337,0.926,0.657,1.835,0.96,2.729l0,0.005c-0.939,0.083-1.901,0.16-2.884,0.229c-9.066,0.643-16.604,0.346-17.793-0.646
		l-0.03,0.002c0,0,4.724,4.866,11.822,7.568c7.102,2.7,14.219-1.063,15.418-2.91c1.202-1.849,1.743-9.886-3.614-15.272
		C51.834,102.874,45.468,100.542,45.468,100.542z"/>
	
		<linearGradient id="SVGID_33_" gradientUnits="userSpaceOnUse" x1="631.8306" y1="894.9155" x2="620.9097" y2="894.9155" gradientTransform="matrix(0.8637 0.5039 -0.5039 0.8637 -63.0419 -1046.0684)">
		<stop  offset="0" style="stop-color:#FFFFFF"/>
		<stop  offset="0.4265" style="stop-color:#CACBCD"/>
		<stop  offset="0.805" style="stop-color:#A2A3A6"/>
		<stop  offset="1" style="stop-color:#929497"/>
	</linearGradient>
	<path fill="url(#SVGID_33_)" d="M21.376,41.314c7.927-3.139,14.288-4.821,14.706-3.821c0.467,1.113-6.531,5.097-15.627,8.905
		c-0.911,0.38-1.803,0.741-2.68,1.087L21.376,41.314z"/>
	
		<linearGradient id="SVGID_34_" gradientUnits="userSpaceOnUse" x1="3206.7974" y1="894.4858" x2="3195.8755" y2="894.4858" gradientTransform="matrix(-0.8637 -0.5039 -0.5039 0.8637 3233.29 877.5804)">
		<stop  offset="0" style="stop-color:#D0D2D3"/>
		<stop  offset="1" style="stop-color:#626366"/>
	</linearGradient>
	<path fill="url(#SVGID_34_)" d="M21.37,41.309c-1.17-8.444-2.834-14.81-3.915-14.681c-1.194,0.141-1.221,8.192-0.059,17.986
		c0.118,0.979,0.242,1.936,0.37,2.87L21.37,41.309z"/>
	
		<linearGradient id="SVGID_35_" gradientUnits="userSpaceOnUse" x1="610.3862" y1="898.9761" x2="631.5986" y2="898.9761" gradientTransform="matrix(0.8637 0.5039 -0.5039 0.8637 -63.0419 -1046.0684)">
		<stop  offset="0" style="stop-color:#FFFFFF"/>
		<stop  offset="0.166" style="stop-color:#E6E7E7"/>
		<stop  offset="0.3333" style="stop-color:#D0D2D3"/>
		<stop  offset="0.3412" style="stop-color:#CED0D1"/>
		<stop  offset="0.4272" style="stop-color:#C0C2C4"/>
		<stop  offset="0.5" style="stop-color:#BBBDBF"/>
		<stop  offset="1" style="stop-color:#4D4D4F"/>
	</linearGradient>
	<path fill="url(#SVGID_35_)" d="M36.075,37.796l-0.021,0.009c-0.605,1.417-7.207,5.082-15.599,8.592
		c-0.911,0.38-1.803,0.741-2.68,1.087l-0.004-0.001c-0.13-0.932-0.253-1.889-0.369-2.868c-1.073-9.024-1.133-16.565-0.202-17.804
		l-0.003-0.029c0,0-4.636,4.949-6.996,12.171c-2.361,7.219,1.739,14.153,3.643,15.262c1.905,1.109,9.955,1.268,15.078-4.34
		C34.048,44.268,36.075,37.796,36.075,37.796z"/>
	
		<linearGradient id="SVGID_36_" gradientUnits="userSpaceOnUse" x1="1029.0688" y1="1126.3921" x2="1018.0772" y2="1126.3921" gradientTransform="matrix(0.726 0.6877 -0.6877 0.726 71.158 -1494.887)">
		<stop  offset="0" style="stop-color:#FFFFFF"/>
		<stop  offset="0.4265" style="stop-color:#CACBCD"/>
		<stop  offset="0.805" style="stop-color:#A2A3A6"/>
		<stop  offset="1" style="stop-color:#929497"/>
	</linearGradient>
	<path fill="url(#SVGID_36_)" d="M34.557,24.455c8.436-1.246,15.012-1.435,15.19-0.363c0.2,1.188-7.523,3.474-17.247,5.103
		c-0.971,0.162-1.926,0.313-2.857,0.451L34.557,24.455z"/>
	
		<linearGradient id="SVGID_37_" gradientUnits="userSpaceOnUse" x1="2808.603" y1="1126.3833" x2="2797.3125" y2="1126.3833" gradientTransform="matrix(-0.726 -0.6877 -0.6877 0.726 2841.3008 1129.1281)">
		<stop  offset="0" style="stop-color:#D0D2D3"/>
		<stop  offset="1" style="stop-color:#626366"/>
	</linearGradient>
	<path fill="url(#SVGID_37_)" d="M34.552,24.449c0.79-8.489,0.622-15.065-0.459-15.186c-1.197-0.137-3.061,7.697-4.162,17.496
		c-0.106,0.98-0.208,1.939-0.294,2.879L34.552,24.449z"/>
	<linearGradient id="SVGID_38_" gradientUnits="userSpaceOnUse" x1="25.3462" y1="18.2124" x2="40.9897" y2="33.8559">
		<stop  offset="0" style="stop-color:#FFFFFF"/>
		<stop  offset="0.166" style="stop-color:#E6E7E7"/>
		<stop  offset="0.3333" style="stop-color:#D0D2D3"/>
		<stop  offset="0.3412" style="stop-color:#CED0D1"/>
		<stop  offset="0.4272" style="stop-color:#C0C2C4"/>
		<stop  offset="0.5" style="stop-color:#BBBDBF"/>
		<stop  offset="1" style="stop-color:#4D4D4F"/>
	</linearGradient>
	<path fill="url(#SVGID_38_)" d="M49.672,24.386l-0.022,0.001c-0.915,1.244-8.178,3.303-17.15,4.807
		c-0.971,0.162-1.926,0.313-2.857,0.451l-0.003-0.003c0.088-0.938,0.185-1.899,0.294-2.879c1.015-9.03,2.676-16.388,3.87-17.379
		v-0.03c0,0-5.64,3.761-9.588,10.254c-3.945,6.49-1.534,14.174,0.067,15.693c1.599,1.514,9.402,3.502,15.67-0.787
		C46.222,30.221,49.672,24.386,49.672,24.386z"/>
</g>
</svg>
