<?xml version="1.0" encoding="UTF-8"?>
<!DOCTYPE svg  PUBLIC '-//W3C//DTD SVG 1.1//EN'  'http://www.w3.org/Graphics/SVG/1.1/DTD/svg11.dtd' [
	<!ENTITY ns_flows "http://ns.adobe.com/Flows/1.0/">
	<!ENTITY ns_extend "http://ns.adobe.com/Extensibility/1.0/">
	<!ENTITY ns_ai "http://ns.adobe.com/AdobeIllustrator/10.0/">
	<!ENTITY ns_graphs "http://ns.adobe.com/Graphs/1.0/">
]>
<svg enable-background="new 0 0 141.7 141.7" version="1.1" viewBox="0 0 141.7 141.7" xml:space="preserve" xmlns="http://www.w3.org/2000/svg">
<g fill="#fff">
		<path d="m3.3 19.9c0 4.3 3.5 7.8 7.8 7.8h69.8v-15.6h-69.9c-4.3 0-7.7 3.5-7.7 7.8z"/>
		<path d="m130.7 12.1h-20.4v-8c0-2.3-1.8-4.1-4.1-4.1h-14c-2.3 0-4.1 1.8-4.1 4.1v31.5c0 2.3 1.8 4.1 4.1 4.1h14c2.3 0 4.1-1.8 4.1-4.1v-8h20.4c4.3 0 7.8-3.5 7.8-7.8s-3.5-7.7-7.8-7.7z"/>
		<path d="m3.3 121.9c0 4.3 3.5 7.8 7.8 7.8h45.3v-15.5h-45.4c-4.3-0.1-7.7 3.4-7.7 7.7z"/>
		<path d="m130.7 114.1h-44.3v-8c0-2.3-1.8-4.1-4.1-4.1h-14c-2.3 0-4.1 1.8-4.1 4.1v31.5c0 2.3 1.8 4.1 4.1 4.1h14c2.3 0 4.1-1.8 4.1-4.1v-8h44.3c4.3 0 7.8-3.5 7.8-7.8 0-4.2-3.5-7.7-7.8-7.7z"/>
		<path d="m3.3 70.9c0 4.3 3.5 7.8 7.8 7.8h18.2v-15.6h-18.3c-4.3 0-7.7 3.5-7.7 7.8z"/>
		<path d="m130.7 63.1h-71.7v-8c0-2.3-1.8-4.1-4.1-4.1h-14c-2.3 0-4.1 1.8-4.1 4.1v31.5c0 2.3 1.8 4.1 4.1 4.1h14c2.3 0 4.1-1.8 4.1-4.1v-8h71.7c4.3 0 7.8-3.5 7.8-7.8 0-4.2-3.5-7.7-7.8-7.7z"/>
</g>
</svg>

