<svg id="Layer_2" data-name="Layer 2" xmlns="http://www.w3.org/2000/svg" viewBox="0 0 40.803 45.97"><defs><style>.cls-1{fill:#fbed63;}.cls-2{fill:#c88c2b;}.cls-3{fill:#888;}.cls-4{fill:#895c24;}.cls-5{fill:#e6e7e8;}.cls-6{fill:#a6a8ab;}.cls-7{fill:#6d6e70;}.cls-8{fill:#c5c7c9;}.cls-9{fill:#929497;}.cls-10{fill:#d0d2d3;}</style></defs><polygon class="cls-1" points="20.402 0 20.402 0 0 34.84 20.402 34.84 20.402 0"/><polygon class="cls-2" points="20.402 34.84 40.803 34.84 20.402 0 20.402 34.84"/><polygon class="cls-2" points="20.402 14.162 20.402 14.161 8.293 34.84 20.402 34.84 20.402 14.162"/><rect class="cls-3" x="20.402" y="14.162" height="20.678"/><polygon class="cls-4" points="20.402 34.84 32.511 34.84 20.402 14.162 20.402 34.84"/><polygon class="cls-5" points="20.402 17.063 20.402 17.063 3.474 45.97 20.402 45.97 20.402 17.063"/><polygon class="cls-6" points="20.402 45.97 37.329 45.97 20.402 17.063 20.402 45.97"/><polygon class="cls-7" points="3.474 45.97 8.928 42.953 31.875 42.953 37.329 45.97 3.474 45.97"/><polygon class="cls-8" points="20.402 22.588 20.402 22.587 8.928 42.953 31.875 42.953 20.402 22.588"/><polygon class="cls-9" points="20.402 22.588 20.402 22.587 20.402 35.953 31.875 42.953 20.402 22.588"/><polygon class="cls-5" points="20.402 35.953 8.928 42.953 31.875 42.953 20.402 35.953"/><polygon class="cls-10" points="20.402 27.802 20.402 27.802 13.403 40.224 27.4 40.224 20.402 27.802"/></svg>