<svg width="64" height="64" viewBox="0 0 64 64" fill="none" xmlns="http://www.w3.org/2000/svg">
<path d="M49.4327 52.1793C44.5938 56.3722 38.4034 58.6763 32.0007 58.6673C17.2727 58.6673 5.33398 46.7287 5.33398 32.0007C5.33398 17.2727 17.2727 5.33398 32.0007 5.33398C46.7287 5.33398 58.6673 17.2727 58.6673 32.0007C58.6673 37.6967 56.8807 42.9767 53.8407 47.3073L45.334 32.0007H53.334C53.3336 27.0839 51.6348 22.3182 48.5251 18.5097C45.4154 14.7012 41.0856 12.0838 36.2682 11.1003C31.4508 10.1167 26.4415 10.8274 22.0878 13.112C17.734 15.3967 14.3031 19.1151 12.3754 23.6382C10.4476 28.1613 10.1415 33.2115 11.5086 37.9344C12.8758 42.6572 15.8324 46.7629 19.8782 49.5568C23.924 52.3507 28.8108 53.6614 33.7117 53.267C38.6126 52.8727 43.2269 50.7975 46.774 47.3927L49.4327 52.1793Z" fill="#D6E1F0"/>
</svg>
