<svg id="Capa_1" enable-background="new 0 0 512 512" height="512" viewBox="0 0 512 512" width="512" xmlns="http://www.w3.org/2000/svg"><g>
  <path fill="#ffffff" d="m106 391c58.872 0 105-32.944 105-75v-15h-33.68l-45.582-159.525c16.595-2.968 30.055-6.246 42.319-9.269 20.729-5.096 39.628-9.402 66.943-10.657v307.423l-124.57 83.028h279.111l-124.541-83.027v-307.424c27.316 1.254 46.214 5.561 66.943 10.657 12.264 3.023 25.724 6.301 42.319 9.269l-45.582 159.525h-33.68v15c0 42.056 46.128 75 105 75s106-32.944 106-75v-15h-34.68l-43.685-152.88c21.357 1.732 47.33 2.88 78.365 2.88v-30c-89.971 0-128.471-27.7-161.562-52.134-23.15-17.106-45.192-34.345-79.438-38.059v-30.807h-30v30.807c-34.246 3.713-56.288 20.953-79.438 38.059-33.091 24.434-71.591 52.134-161.562 52.134v30c31.027 0 56.999-1.146 78.353-2.878l-43.673 152.878h-34.68v15c0 42.056 47.128 75 106 75zm340.109-90h-80.219l40.107-140.367zm-340.114-140.389 40.114 140.389h-80.22z"/></g></svg>
