<?xml version="1.0" encoding="iso-8859-1"?>
<!-- Generator: Adobe Illustrator 19.0.0, SVG Export Plug-In . SVG Version: 6.00 Build 0)  -->
<svg xmlns="http://www.w3.org/2000/svg" xmlns:xlink="http://www.w3.org/1999/xlink" version="1.1" id="Layer_1" x="0px" y="0px" viewBox="0 0 512.568 512.568" style="enable-background:new 0 0 512.568 512.568;" xml:space="preserve" width="512" height="512">
<path fill="#fff" transform="rotate(90 256 256)" d="M255.284,325.284c-38.598,0-70-31.402-70-70c0-38.598,31.402-70,70-70s70,31.402,70,70  C325.284,293.882,293.882,325.284,255.284,325.284z M255.284,225.284c-16.542,0-30,13.458-30,30s13.458,30,30,30s30-13.458,30-30  S271.826,225.284,255.284,225.284z M133.427,333.141l-76.858-76.857l76.858-76.858l-28.285-28.284L0,256.284l105.142,105.143  L133.427,333.141z M512.568,256.284L410.427,154.142l-28.285,28.284L456,256.284l-74.858,74.857l28.285,28.285L512.568,256.284z"/>
</svg>