<svg xmlns:x="http://ns.adobe.com/Extensibility/1.0/" xmlns:i="http://ns.adobe.com/AdobeIllustrator/10.0/" xmlns:graph="http://ns.adobe.com/Graphs/1.0/" xmlns="http://www.w3.org/2000/svg" xmlns:xlink="http://www.w3.org/1999/xlink" version="1.1" x="0px" y="0px" viewBox="0 0 100 125" enable-background="new 0 0 100 100" xml:space="preserve">
	<g>
		<path fill="#fff" d="M50,5C25.3,5,5.2,25.1,5,49.7c-0.1,12,4.5,23.4,13,31.9c8.4,8.6,19.7,13.3,31.7,13.4H50 c24.7,0,44.8-20.1,45-44.7C95.2,25.5,75.1,5.2,50,5z M72.6,72.6c-0.6,0.6-1.3,0.9-2.1,0.9c-0.7,0-1.4-0.2-2-0.8l-8.2-8 c-3.5,2.7-7.9,4.2-12.4,4.2c-5.5,0-10.7-2.2-14.6-6.1c-8.1-8-8.1-21.1,0-29.2c3.9-4,9.1-6.1,14.6-6.1s10.7,2.2,14.6,6.1 c7.3,7.3,8,18.9,1.9,27l8.2,7.9C73.7,69.6,73.7,71.5,72.6,72.6z"/>
		<path fill="#fff" d="M47.9,33.4c-4,0-7.7,1.6-10.5,4.4c-5.8,5.8-5.8,15.2,0,21c2.8,2.9,6.5,4.4,10.5,4.4s7.7-1.6,10.5-4.4 c5.8-5.8,5.8-15.3,0-21C55.6,34.9,51.9,33.4,47.9,33.4z"/>
	</g>
</svg>