<svg width="24" height="24" viewBox="0 0 24 24" fill="none" xmlns="http://www.w3.org/2000/svg">
<path fill-rule="evenodd" clip-rule="evenodd" d="M24 10.427V13.573L21.28 14.24L20.32 16.8L21.573 19.3259L19.52 21.44L17.12 20.16L14.4 21.28L13.573 24H10.427L9.6 21.28L7.2 20.16L4.64 21.28L2.72 19.52L3.84 16.8L2.72 14.4L0 13.44V10.427L2.72 9.6L3.84 7.04L2.56 4.48L4.67408 2.42704L7.04 3.68L9.76 2.72L10.427 0.08992L13.573 0L14.4 2.72L17.12 3.68L19.3259 2.42704L21.573 4.67408L20.32 7.04L21.28 9.6L24 10.427ZM12 7.04C9.34896 7.04 7.2 9.18896 7.2 11.84C7.2 14.491 9.34896 16.64 12 16.64C14.651 16.64 16.8 14.491 16.8 11.84C16.8 9.18896 14.651 7.04 12 7.04Z" fill="#D6E1F0"/>
</svg>
