<?xml version="1.0" encoding="utf-8"?>
<!-- Generator: Adobe Illustrator 23.0.6, SVG Export Plug-In . SVG Version: 6.00 Build 0)  -->
<svg version="1.1" id="Layer_1" xmlns="http://www.w3.org/2000/svg" xmlns:xlink="http://www.w3.org/1999/xlink" x="0px" y="0px"
	 viewBox="0 0 141.7 141.7" style="enable-background:new 0 0 141.7 141.7;" xml:space="preserve">
<style type="text/css">
	.st0{opacity:0.5;}
	.st1{fill:url(#SVGID_1_);}
	.st2{fill:#FFFFFF;}
	.st3{opacity:0.4;}
	.st4{fill:url(#SVGID_2_);}
</style>
<g>
	<g class="st0">
		<linearGradient id="SVGID_1_" gradientUnits="userSpaceOnUse" x1="29.983" y1="16.3401" x2="151.2173" y2="137.5744">
			<stop  offset="5.376340e-03" style="stop-color:#FFFFFF;stop-opacity:0.6"/>
			<stop  offset="0.1452" style="stop-color:#FFFFFF"/>
			<stop  offset="0.2419" style="stop-color:#FFFFFF"/>
			<stop  offset="0.2737" style="stop-color:#FFFFFF;stop-opacity:0.9371"/>
			<stop  offset="0.7473" style="stop-color:#FFFFFF;stop-opacity:0"/>
		</linearGradient>
		<path class="st1" d="M70.9,130.2c-47.9-28-47.3-61.7-46.7-97.3c0-2.6,0.1-5.2,0.1-7.8c15.6-2.7,38-10.7,46.6-14
			c8.6,3.2,31,11.3,46.6,14c0,1.8,0,3.5,0,5.3C118,66.9,118.3,101.4,70.9,130.2z"/>
	</g>
	<g>
		<path class="st2" d="M121.9,21.3c-18-2.1-51-14.9-51-14.9c0,0-33,12.8-51,14.9c0,39.5-7,81.3,51,114
			C127,102.5,121.9,60.8,121.9,21.3z M70.9,130.2c-47.9-28-47.3-61.7-46.7-97.3c0-2.6,0.1-5.2,0.1-7.8c15.6-2.7,38-10.7,46.6-14
			c8.6,3.2,31,11.3,46.6,14c0,1.8,0,3.5,0,5.3C118,66.9,118.3,101.4,70.9,130.2z"/>
	</g>
	<g class="st3">
		<linearGradient id="SVGID_2_" gradientUnits="userSpaceOnUse" x1="28.8371" y1="17.487" x2="150.0724" y2="138.7223">
			<stop  offset="5.376340e-03" style="stop-color:#FFFFFF;stop-opacity:0.6"/>
			<stop  offset="0.1452" style="stop-color:#FFFFFF"/>
			<stop  offset="0.2419" style="stop-color:#FFFFFF"/>
			<stop  offset="0.2737" style="stop-color:#FFFFFF;stop-opacity:0.9371"/>
			<stop  offset="0.7473" style="stop-color:#FFFFFF;stop-opacity:0"/>
		</linearGradient>
		<path class="st4" d="M70.8,116.2C35.6,93,35.5,67.1,36,34.7c12.7-3.1,26.8-8,34.9-11c8.1,3,22.2,7.8,34.9,10.9
			C106.1,65.6,105.4,92.5,70.8,116.2z"/>
	</g>
	<g>
		<path class="st2" d="M70.9,20.2c-8.7,3.2-24.6,8.7-38.2,11.9c0,0.3,0,0.7,0,1c-0.6,33.3-1.1,62.3,38.1,87.2
			c38.3-25.3,38.6-54.6,38.3-88.2C95.5,28.9,79.7,23.4,70.9,20.2L70.9,20.2z M70.8,116.2C35.6,93,35.5,67.1,36,34.7
			c12.7-3.1,26.8-8,34.9-11c8.1,3,22.2,7.8,34.9,10.9C106.1,65.6,105.4,92.5,70.8,116.2L70.8,116.2z"/>
	</g>
</g>
</svg>
