<svg width="128" height="128" viewBox="0 0 128 128" fill="none" xmlns="http://www.w3.org/2000/svg">
<g clip-path="url(#clip0_773_58681)">
<path d="M63.9994 117.334C34.5434 117.334 10.666 93.4563 10.666 64.0003C10.666 34.5443 34.5434 10.667 63.9994 10.667C93.4554 10.667 117.333 34.5443 117.333 64.0003C117.333 93.4563 93.4554 117.334 63.9994 117.334ZM63.9994 106.667C75.3153 106.667 86.1677 102.172 94.1692 94.1702C102.171 86.1687 106.666 75.3162 106.666 64.0003C106.666 52.6844 102.171 41.832 94.1692 33.8304C86.1677 25.8289 75.3153 21.3337 63.9994 21.3337C52.6834 21.3337 41.831 25.8289 33.8295 33.8304C25.8279 41.832 21.3327 52.6844 21.3327 64.0003C21.3327 75.3162 25.8279 86.1687 33.8295 94.1702C41.831 102.172 52.6834 106.667 63.9994 106.667ZM69.3327 64.0003H90.666V74.667H58.666V37.3337H69.3327V64.0003Z" fill="#D6E1F0"/>
</g>
<defs>
<clipPath id="clip0_773_58681">
<rect width="128" height="128" fill="white"/>
</clipPath>
</defs>
</svg>
