<?xml version="1.0" encoding="utf-8"?>
<!-- Generator: Adobe Illustrator 23.0.6, SVG Export Plug-In . SVG Version: 6.00 Build 0)  -->
<svg version="1.1" id="Layer_1" xmlns="http://www.w3.org/2000/svg" xmlns:xlink="http://www.w3.org/1999/xlink" x="0px" y="0px"
	 viewBox="0 0 141.7 141.7" style="enable-background:new 0 0 141.7 141.7;" xml:space="preserve">
<style type="text/css">
	.st0{opacity:0.3;fill:#FFFFFF;}
	.st1{fill:#FFFFFF;}
</style>
<path class="st0" d="M120.9,84c0,27.7-22.4,50.1-50.1,50.1S20.8,111.6,20.8,84s22.4-50.1,50.1-50.1S120.9,56.3,120.9,84z"/>
<path class="st1" d="M70.8,33.9c27.7,0,50.1,22.4,50.1,50.1s-22.4,50.1-50.1,50.1S20.8,111.6,20.8,84S43.2,33.9,70.8,33.9
	 M70.8,29.3c-30.1,0-54.6,24.5-54.6,54.6s24.5,54.6,54.6,54.6c30.1,0,54.6-24.5,54.6-54.6S101,29.3,70.8,29.3L70.8,29.3z"/>
<g>
	<path class="st1" d="M80.9,84c0,5.5-4.5,10-10,10c-5.5,0-10-4.5-10-10s4.5-10,10-10C76.4,73.9,80.9,78.4,80.9,84z"/>
</g>
<g>
	<rect x="62.4" y="6.8" class="st1" width="17" height="14.6"/>
</g>
<g>
	
		<rect x="104.4" y="20.5" transform="matrix(0.5728 -0.8197 0.8197 0.5728 22.9109 101.9594)" class="st1" width="9.7" height="17"/>
</g>
<g>
	<rect x="23.9" y="24.1" transform="matrix(0.8197 -0.5728 0.5728 0.8197 -10.7645 23.8053)" class="st1" width="17" height="9.7"/>
</g>
<g>
	<rect x="66.2" y="30.6" class="st1" width="9.4" height="13.8"/>
</g>
<g>
	<rect x="110.4" y="79.3" class="st1" width="13.8" height="9.4"/>
</g>
<g>
	<rect x="66.2" y="123.5" class="st1" width="9.4" height="13.8"/>
</g>
<g>
	<rect x="17.5" y="79.3" class="st1" width="13.8" height="9.4"/>
</g>
<g>
	<rect x="65.2" y="67" transform="matrix(0.707 -0.7072 0.7072 0.707 -25.1865 80.2749)" class="st1" width="38.2" height="7.1"/>
</g>
<path class="st1" d="M82.6,14.9H59.1c-1.6,0-2.8-1.3-2.8-2.8V5.9c0-1.6,1.3-2.8,2.8-2.8h23.4c1.6,0,2.8,1.3,2.8,2.8v6.2
	C85.4,13.6,84.1,14.9,82.6,14.9z"/>
</svg>
