<svg width="256" height="257" viewBox="0 0 256 257" fill="none" xmlns="http://www.w3.org/2000/svg">
<g clip-path="url(#clip0_74_36026)">
<circle cx="128" cy="128.955" r="128" transform="rotate(-180 128 128.955)" fill="url(#paint0_angular_74_36026)"/>
<path d="M5 128.955C5 61.024 60.069 5.95508 128 5.95508C195.931 5.95509 251 61.0241 251 128.955C251 196.886 195.931 251.955 128 251.955C60.069 251.955 4.99999 196.886 5 128.955Z" fill="url(#paint1_angular_74_36026)"/>
<path fill-rule="evenodd" clip-rule="evenodd" d="M128 23.9551C70.0101 23.9551 23 70.9652 23 128.955C23 186.945 70.0101 233.955 128 233.955C185.99 233.955 233 186.945 233 128.955C233 70.9652 185.99 23.9551 128 23.9551ZM128 5.95508C60.069 5.95508 5 61.024 5 128.955C4.99999 196.886 60.069 251.955 128 251.955C195.931 251.955 251 196.886 251 128.955C251 61.0241 195.931 5.95509 128 5.95508Z" fill="url(#paint2_linear_74_36026)"/>
<path fill-rule="evenodd" clip-rule="evenodd" d="M128 20.9551C68.3533 20.9551 20 69.3083 20 128.955C20 188.602 68.3532 236.955 128 236.955C187.647 236.955 236 188.602 236 128.955C236 69.3083 187.647 20.9551 128 20.9551ZM128 8.95508C61.7258 8.95508 8 62.6809 8 128.955C7.99999 195.229 61.7258 248.955 128 248.955C194.274 248.955 248 195.229 248 128.955C248 62.6809 194.274 8.95509 128 8.95508Z" fill="url(#paint3_linear_74_36026)"/>
<path d="M128 42.8438L147.777 99.7399L208 100.967L160 137.358L177.443 195.013L128 160.608L78.5573 195.013L96 137.358L48 100.967L108.223 99.7399L128 42.8438Z" fill="url(#paint4_linear_74_36026)"/>
<path fill-rule="evenodd" clip-rule="evenodd" d="M128 219.955C178.258 219.955 219 179.213 219 128.955C219 78.6972 178.258 37.9551 128 37.9551C77.7421 37.9551 37 78.6972 37 128.955C37 179.213 77.7421 219.955 128 219.955ZM128 241.955C190.408 241.955 241 191.363 241 128.955C241 66.5469 190.408 15.9551 128 15.9551C65.5918 15.9551 15 66.5469 15 128.955C15 191.363 65.5918 241.955 128 241.955Z" fill="url(#paint5_linear_74_36026)"/>
</g>
<defs>
<radialGradient id="paint0_angular_74_36026" cx="0" cy="0" r="1" gradientUnits="userSpaceOnUse" gradientTransform="translate(128 128.955) rotate(90) scale(128)">
<stop offset="0.0254603" stop-color="#F5F3F1"/>
<stop offset="0.0625" stop-color="#FDFBF9"/>
<stop offset="0.166667" stop-color="#F7F5F3"/>
<stop offset="0.265625" stop-color="#D6D2CF"/>
<stop offset="0.354167" stop-color="#E3E1DF"/>
<stop offset="0.453125" stop-color="#D3CFCC"/>
<stop offset="0.546875" stop-color="#9E9B99"/>
<stop offset="0.65625" stop-color="#D3CECD"/>
<stop offset="0.729167" stop-color="#BEB7B2"/>
<stop offset="0.8125" stop-color="#F7F5F3"/>
<stop offset="0.911458" stop-color="#FEFCFA"/>
<stop offset="0.973466" stop-color="#EBEBEB"/>
</radialGradient>
<radialGradient id="paint1_angular_74_36026" cx="0" cy="0" r="1" gradientUnits="userSpaceOnUse" gradientTransform="translate(128 128.955) rotate(-90) scale(123 123)">
<stop offset="0.0254603" stop-color="#F5F3F1"/>
<stop offset="0.0625" stop-color="#FDFBF9"/>
<stop offset="0.166667" stop-color="#F7F5F3"/>
<stop offset="0.265625" stop-color="#D6D2CF"/>
<stop offset="0.354167" stop-color="#E3E1DF"/>
<stop offset="0.453125" stop-color="#D3CFCC"/>
<stop offset="0.546875" stop-color="#9E9B99"/>
<stop offset="0.65625" stop-color="#D3CECD"/>
<stop offset="0.729167" stop-color="#BEB7B2"/>
<stop offset="0.8125" stop-color="#F7F5F3"/>
<stop offset="0.911458" stop-color="#FEFCFA"/>
<stop offset="0.973466" stop-color="#EBEBEB"/>
</radialGradient>
<linearGradient id="paint2_linear_74_36026" x1="128" y1="251.955" x2="128" y2="5.95508" gradientUnits="userSpaceOnUse">
<stop stop-color="#7D7977"/>
<stop offset="1" stop-color="#D1C9C4"/>
</linearGradient>
<linearGradient id="paint3_linear_74_36026" x1="128" y1="248.955" x2="128" y2="8.95508" gradientUnits="userSpaceOnUse">
<stop stop-color="#E8E4E3"/>
<stop offset="0.130208" stop-color="#6D6B69"/>
<stop offset="1" stop-color="white"/>
</linearGradient>
<linearGradient id="paint4_linear_74_36026" x1="128" y1="42.8438" x2="128" y2="195.013" gradientUnits="userSpaceOnUse">
<stop stop-color="#475BA2"/>
<stop offset="1" stop-color="#201F62"/>
</linearGradient>
<linearGradient id="paint5_linear_74_36026" x1="128" y1="15.9551" x2="128" y2="241.955" gradientUnits="userSpaceOnUse">
<stop stop-color="#475BA2"/>
<stop offset="1" stop-color="#201F62"/>
</linearGradient>
<clipPath id="clip0_74_36026">
<rect width="256" height="256" fill="white" transform="translate(0 0.955078)"/>
</clipPath>
</defs>
</svg>
