<svg width="18" height="20" viewBox="0 0 18 20" fill="none" xmlns="http://www.w3.org/2000/svg">
<path d="M9.00004 14.8004C12.5156 14.8004 15.5904 16.3124 17.2628 18.5684L15.4944 19.4046C14.1332 17.7918 11.7332 16.7204 9.00004 16.7204C6.26692 16.7204 3.86692 17.7918 2.50564 19.4046L0.738281 18.5674C2.4106 16.3114 5.48452 14.8004 9.00004 14.8004ZM9.00004 0.400391C10.2731 0.400391 11.494 0.906103 12.3942 1.80628C13.2943 2.70645 13.8 3.92735 13.8 5.20039V8.08039C13.8 9.35343 13.2943 10.5743 12.3942 11.4745C11.494 12.3747 10.2731 12.8804 9.00004 12.8804C7.727 12.8804 6.5061 12.3747 5.60593 11.4745C4.70575 10.5743 4.20004 9.35343 4.20004 8.08039V5.20039C4.20004 3.92735 4.70575 2.70645 5.60593 1.80628C6.5061 0.906103 7.727 0.400391 9.00004 0.400391Z" fill="#D6E1F0"/>
</svg>
