<svg id="Layer" enable-background="new 0 0 512 512" height="512" viewBox="0 0 512 512" width="512" xmlns="http://www.w3.org/2000/svg"><path fill="#ffffff" d="m99 160h-55c-24.301 0-44 19.699-44 44v104c0 24.301 19.699 44 44 44h55c2.761 0 5-2.239 5-5v-182c0-2.761-2.239-5-5-5z"/><path fill="#ffffff" d="m280 56h-24c-5.269 0-10.392 1.734-14.578 4.935l-103.459 79.116c-1.237.946-1.963 2.414-1.963 3.972v223.955c0 1.557.726 3.026 1.963 3.972l103.459 79.115c4.186 3.201 9.309 4.936 14.579 4.936h23.999c13.255 0 24-10.745 24-24v-352.001c0-13.255-10.745-24-24-24z"/></svg>