<svg width="114" height="99" viewBox="0 0 114 99" fill="none" xmlns="http://www.w3.org/2000/svg">
<path d="M61.6185 3.00042L112.424 91.0004C112.892 91.8112 113.138 92.7309 113.138 93.667C113.138 94.6032 112.892 95.5229 112.424 96.3337C111.956 97.1444 111.283 97.8177 110.472 98.2858C109.661 98.7539 108.741 99.0004 107.805 99.0004H6.19453C5.25834 99.0004 4.33866 98.7539 3.52791 98.2858C2.71716 97.8177 2.04391 97.1444 1.57583 96.3337C1.10774 95.5229 0.861322 94.6032 0.861328 93.667C0.861334 92.7309 1.10777 91.8112 1.57586 91.0004L52.3812 3.00042C52.8493 2.18971 53.5226 1.5165 54.3333 1.04845C55.1441 0.580392 56.0637 0.333984 56.9999 0.333984C57.936 0.333984 58.8557 0.580392 59.6664 1.04845C60.4771 1.5165 61.1504 2.18971 61.6185 3.00042ZM51.6665 72.3337V83.0004H62.3332V72.3337H51.6665ZM51.6665 35.0004V61.6671H62.3332V35.0004H51.6665Z" fill="#C12A2A"/>
</svg>
