<svg width="612.006" height="612.006" xmlns="http://www.w3.org/2000/svg">

 <g>
  <title>background</title>
  <rect fill="none" id="canvas_background" height="402" width="582" y="-1" x="-1"/>
 </g>
 <g>
  <title>Layer 1</title>
  <g stroke="null" id="svg_1">
   <g stroke="null" id="svg_2">
    <g stroke="null" id="svg_3">
     <g stroke="null" id="svg_4">
      <rect stroke="null" id="svg_5" height="69.925" width="69.925" y="216.63174" x="215.68135" fill="#ffffff"/>
      <rect stroke="null" id="svg_6" height="69.925" width="69.925" y="216.63174" x="326.39536" fill="#ffffff"/>
      <rect stroke="null" id="svg_7" height="69.925" width="69.925" y="216.63174" x="437.10938" fill="#ffffff"/>
     </g>
     <g stroke="null" id="svg_8">
      <rect stroke="null" id="svg_9" height="69.925" width="69.925" y="321.51924" x="104.96733" fill="#ffffff"/>
      <rect stroke="null" id="svg_10" height="69.925" width="69.925" y="321.51924" x="215.68135" fill="#ffffff"/>
      <rect stroke="null" id="svg_11" height="69.925" width="69.925" y="321.51924" x="326.39536" fill="#ffffff"/>
      <rect stroke="null" id="svg_12" height="69.925" width="69.925" y="321.51924" x="437.10938" fill="#ffffff"/>
     </g>
     <g stroke="null" id="svg_13">
      <rect stroke="null" id="svg_14" height="69.91901" width="69.925" y="426.41103" x="104.96733" fill="#ffffff"/>
      <rect stroke="null" id="svg_15" height="69.91901" width="69.925" y="426.41103" x="215.68135" fill="#ffffff"/>
      <rect stroke="null" id="svg_16" height="69.91901" width="69.925" y="426.41103" x="326.39536" fill="#ffffff"/>
     </g>
    </g>
    <g stroke="null" id="svg_17">
     <path stroke="null" id="svg_18" d="m533.03835,62.53782l-454.07584,0c-19.30327,0 -34.9625,15.6541 -34.9625,34.95736l0,82.54298l524.00084,0l0,-82.54298c0,-19.30327 -15.65923,-34.95736 -34.9625,-34.95736zm-356.87026,90.27199c-14.47766,0 -26.22145,-11.74378 -26.22145,-26.22145c0,-14.4828 11.74378,-26.22145 26.22145,-26.22145c14.4828,0 26.21631,11.73351 26.21631,26.22145c0,14.47681 -11.73351,26.22145 -26.21631,26.22145zm259.67495,0c-14.4828,0 -26.22744,-11.74378 -26.22744,-26.22145c0,-14.4828 11.74378,-26.22145 26.22744,-26.22145c14.47766,0 26.21117,11.73351 26.21117,26.22145c0,14.47681 -11.73351,26.22145 -26.21117,26.22145z" fill="#ffffff"/>
    </g>
    <path stroke="null" id="svg_19" d="m544.69823,514.50567c0,6.42586 -5.22288,11.65388 -11.65388,11.65388l-454.0767,0c-6.42586,0 -11.65388,-5.22888 -11.65388,-11.65388l0,-300.55986l-23.30862,0l0,300.55986c0,19.3084 15.65324,34.9625 34.9625,34.9625l454.07584,0c19.30327,0 34.9625,-15.65324 34.9625,-34.9625l0,-300.55986l-23.30263,0l0,300.55986l-0.00514,0z" fill="#ffffff"/>
   </g>
  </g>
  <g id="svg_20"/>
  <g id="svg_21"/>
  <g id="svg_22"/>
  <g id="svg_23"/>
  <g id="svg_24"/>
  <g id="svg_25"/>
  <g id="svg_26"/>
  <g id="svg_27"/>
  <g id="svg_28"/>
  <g id="svg_29"/>
  <g id="svg_30"/>
  <g id="svg_31"/>
  <g id="svg_32"/>
  <g id="svg_33"/>
  <g id="svg_34"/>
 </g>
</svg>