<?xml version="1.0" encoding="utf-8"?>
<!-- Generator: Adobe Illustrator 16.0.0, SVG Export Plug-In . SVG Version: 6.00 Build 0)  -->
<!DOCTYPE svg PUBLIC "-//W3C//DTD SVG 1.1//EN" "http://www.w3.org/Graphics/SVG/1.1/DTD/svg11.dtd" [
	<!ENTITY ns_flows "http://ns.adobe.com/Flows/1.0/">
	<!ENTITY ns_extend "http://ns.adobe.com/Extensibility/1.0/">
	<!ENTITY ns_ai "http://ns.adobe.com/AdobeIllustrator/10.0/">
	<!ENTITY ns_graphs "http://ns.adobe.com/Graphs/1.0/">
]>
<svg version="1.1" id="Layer_1" xmlns:x="&ns_extend;" xmlns:i="&ns_ai;" xmlns:graph="&ns_graphs;"
	 xmlns="http://www.w3.org/2000/svg" xmlns:xlink="http://www.w3.org/1999/xlink" xmlns:a="http://ns.adobe.com/AdobeSVGViewerExtensions/3.0/"
	 x="0px" y="0px" width="141.7px" height="141.7px" viewBox="0 0 141.7 141.7" enable-background="new 0 0 141.7 141.7"
	 xml:space="preserve">
<g>
	
		<linearGradient id="SVGID_1_" gradientUnits="userSpaceOnUse" x1="375.5444" y1="-191.4541" x2="387.644" y2="-203.5536" gradientTransform="matrix(1 0 0 -1 -351.0547 -86.2656)">
		<stop  offset="0" style="stop-color:#FFFFFF"/>
		<stop  offset="1" style="stop-color:#FFFFFF;stop-opacity:0"/>
		<a:midPointStop  offset="0" style="stop-color:#FFFFFF"/>
		<a:midPointStop  offset="0.5" style="stop-color:#FFFFFF"/>
		<a:midPointStop  offset="1" style="stop-color:#FFFFFF;stop-opacity:0"/>
	</linearGradient>
	<polygon fill="url(#SVGID_1_)" points="39.4,102.2 39.4,102.2 33.4,96.2 17.7,116.2 21.6,120.1 21.6,120.1 25.5,124.1 45.5,108.3 	
		"/>
	<path fill="#FFFFFF" d="M16,121.2c1.2,0,2.3,0.5,3.2,1.3c0.8,0.8,1.3,2,1.3,3.2c0,1.2-0.5,2.3-1.3,3.2c-0.8,0.8-2,1.3-3.2,1.3
		s-2.3-0.5-3.2-1.3c-0.8-0.8-1.3-2-1.3-3.2c0-1.2,0.5-2.3,1.3-3.2C13.7,121.6,14.8,121.2,16,121.2 M16,116.1c-2.5,0-4.9,0.9-6.8,2.8
		c-3.7,3.7-3.7,9.8,0,13.6c1.9,1.9,4.3,2.8,6.8,2.8s4.9-0.9,6.8-2.8c3.7-3.7,3.7-9.8,0-13.6C20.9,117,18.5,116.1,16,116.1L16,116.1z
		"/>
	<polygon opacity="0.7" fill="#FFFFFF" enable-background="new    " points="49.3,92.4 26,75.9 45.9,95.8 	"/>
	<polygon opacity="0.2" fill="#FFFFFF" enable-background="new    " points="49.4,92.5 46,95.9 65.9,115.8 	"/>
	
		<rect x="28.3" y="74.9" transform="matrix(-0.707 0.7072 -0.7072 -0.707 118.8702 128.6777)" fill="#FFFFFF" width="9" height="28.2"/>
	
		<rect x="48.3" y="95" transform="matrix(-0.707 0.7072 -0.7072 -0.707 167.3255 148.7927)" opacity="0.4" fill="#FFFFFF" enable-background="new    " width="9" height="28.2"/>
	<g>
		<polygon fill="#FFFFFF" points="6.4,6.4 35.2,15.3 97.4,83.4 88.7,88.7 		"/>
		<polygon opacity="0.4" fill="#FFFFFF" enable-background="new    " points="6.4,6.4 15.3,35.2 83.4,97.4 88.7,88.7 		"/>
	</g>
	<g>
		<polygon fill="#FFFFFF" points="52.5,74.4 44.3,83.4 53,88.7 60.2,81.4 		"/>
		<polygon fill="#FFFFFF" points="135.3,6.4 106.5,15.3 73.4,51.4 81.4,60.2 		"/>
		<polygon opacity="0.4" fill="#FFFFFF" enable-background="new    " points="53,88.7 58.3,97.4 68,88.5 60.2,81.4 		"/>
		<polygon opacity="0.4" fill="#FFFFFF" enable-background="new    " points="135.3,6.4 81.4,60.2 89.4,69 126.4,35.2 		"/>
	</g>
	
		<linearGradient id="SVGID_2_" gradientUnits="userSpaceOnUse" x1="727.5649" y1="-191.4155" x2="739.6644" y2="-203.5151" gradientTransform="matrix(-1 0 0 -1 844.7158 -86.2656)">
		<stop  offset="0" style="stop-color:#FFFFFF"/>
		<stop  offset="1" style="stop-color:#FFFFFF;stop-opacity:0"/>
		<a:midPointStop  offset="0" style="stop-color:#FFFFFF"/>
		<a:midPointStop  offset="0.5" style="stop-color:#FFFFFF"/>
		<a:midPointStop  offset="1" style="stop-color:#FFFFFF;stop-opacity:0"/>
	</linearGradient>
	<polygon fill="url(#SVGID_2_)" points="102.3,102.2 102.3,102.2 108.2,96.2 124,116.2 120.1,120.1 120.1,120.1 116.1,124.1 
		96.1,108.3 	"/>
	<path fill="#FFFFFF" d="M125.7,121.2c1.2,0,2.3,0.5,3.2,1.3c0.8,0.8,1.3,2,1.3,3.2c0,1.2-0.5,2.3-1.3,3.2c-0.8,0.8-2,1.3-3.2,1.3
		c-1.2,0-2.3-0.5-3.2-1.3c-0.8-0.8-1.3-2-1.3-3.2c0-1.2,0.5-2.3,1.3-3.2C123.3,121.6,124.5,121.2,125.7,121.2 M125.7,116.1
		c-2.5,0-4.9,0.9-6.8,2.8c-3.7,3.7-3.7,9.8,0,13.6c1.9,1.9,4.3,2.8,6.8,2.8s4.9-0.9,6.8-2.8c3.7-3.7,3.7-9.8,0-13.6
		C130.6,117,128.1,116.1,125.7,116.1L125.7,116.1z"/>
	<polygon fill="#FFFFFF" points="92.4,92.4 95.8,95.8 115.7,75.9 	"/>
	<polygon opacity="0.8" fill="#FFFFFF" enable-background="new    " points="92.3,92.5 75.8,115.8 95.7,95.9 	"/>
	
		<rect x="94.8" y="84.5" transform="matrix(-0.7071 0.7071 -0.7071 -0.7071 248.8447 74.9558)" opacity="0.7" fill="#FFFFFF" enable-background="new    " width="28.2" height="9"/>
	
		<rect x="84.4" y="95" transform="matrix(0.7072 0.7071 -0.7071 0.7072 103.1238 -30.9479)" opacity="0.4" fill="#FFFFFF" enable-background="new    " width="9" height="28.1"/>
</g>
</svg>
