<?xml version="1.0" encoding="utf-8"?>
<!-- Generator: Adobe Illustrator 16.0.0, SVG Export Plug-In . SVG Version: 6.00 Build 0)  -->
<!DOCTYPE svg PUBLIC "-//W3C//DTD SVG 1.1//EN" "http://www.w3.org/Graphics/SVG/1.1/DTD/svg11.dtd">
<svg version="1.1" id="Layer_1" xmlns="http://www.w3.org/2000/svg" xmlns:xlink="http://www.w3.org/1999/xlink" x="0px" y="0px"
	 width="141.7px" height="141.7px" viewBox="0 0 141.7 141.7" enable-background="new 0 0 141.7 141.7" xml:space="preserve">
<g>
	<g>
		<polygon fill="#FFFFFF" points="40.245,128.059 40.271,45.128 71.059,14.519 101.855,45.128 101.865,128.19 		"/>
		<path fill="#231F20" d="M71.059,17.695l28.543,28.371l0.01,79.867l-57.113-0.121l0.025-79.746L71.059,17.695 M71.058,11.342
			L67.882,14.5L39.347,42.871l-1.328,1.32l0,1.873l-0.025,79.746l-0.001,4.497l4.497,0.009l57.113,0.121l4.516,0.01v-4.516
			l-0.011-79.866v-1.874l-1.329-1.321L74.235,14.5L71.058,11.342L71.058,11.342z"/>
	</g>
</g>
<g>
	<polygon fill="#FFFFFF" points="89.167,50.407 89.172,115.473 52.938,115.397 52.958,50.407 71.06,32.411 	"/>
</g>
</svg>
