<?xml version="1.0" encoding="utf-8"?>
<!-- Generator: Adobe Illustrator 16.0.0, SVG Export Plug-In . SVG Version: 6.00 Build 0)  -->
<!DOCTYPE svg PUBLIC "-//W3C//DTD SVG 1.1//EN" "http://www.w3.org/Graphics/SVG/1.1/DTD/svg11.dtd">
<svg version="1.1" id="Layer_1" xmlns="http://www.w3.org/2000/svg" xmlns:xlink="http://www.w3.org/1999/xlink" x="0px" y="0px"
	 width="141.7px" height="141.7px" viewBox="0 0 141.7 141.7" enable-background="new 0 0 141.7 141.7" xml:space="preserve">
<g>
	<g>
		<rect x="80.079" y="43.76" fill="#FFFFFF" width="17.429" height="54.209"/>
		<path fill="#231F20" d="M95.235,46.033v49.664H82.351V46.033H95.235 M99.781,41.488h-4.546H82.351h-4.546v4.545v49.664v4.546
			h4.546h12.884h4.546v-4.546V46.033V41.488L99.781,41.488z"/>
	</g>
	<g>
		<rect x="43.714" y="43.76" fill="#FFFFFF" width="17.429" height="54.209"/>
		<path fill="#231F20" d="M58.871,46.033v49.664H45.987V46.033H58.871 M63.416,41.488h-4.545H45.987h-4.545v4.545v49.664v4.546
			h4.545h12.883h4.545v-4.546V46.033V41.488L63.416,41.488z"/>
	</g>
	<g>
		<polygon fill="#FFFFFF" points="44.112,130.491 44.112,113.062 62.351,113.062 62.351,13.306 79.78,13.306 79.78,113.062 
			98.018,113.062 98.018,130.491 		"/>
		<path fill="#231F20" d="M77.507,15.579v99.756h18.238v12.884H46.385v-12.884h18.239V15.579H77.507 M82.053,11.033h-4.546H64.624
			h-4.545v4.545v95.21H46.385h-4.545v4.546v12.884v4.546h4.545h49.361h4.546v-4.546v-12.884v-4.546h-4.546H82.053v-95.21V11.033
			L82.053,11.033z"/>
	</g>
</g>
</svg>
