<?xml version="1.0" encoding="utf-8"?>
<!-- Generator: Adobe Illustrator 16.0.0, SVG Export Plug-In . SVG Version: 6.00 Build 0)  -->
<!DOCTYPE svg PUBLIC "-//W3C//DTD SVG 1.1//EN" "http://www.w3.org/Graphics/SVG/1.1/DTD/svg11.dtd">
<svg version="1.1" id="Layer_1" xmlns="http://www.w3.org/2000/svg" xmlns:xlink="http://www.w3.org/1999/xlink" x="0px" y="0px"
	 width="141.7px" height="141.7px" viewBox="0 0 141.7 141.7" enable-background="new 0 0 141.7 141.7" xml:space="preserve">
<g>
	<g>
		<rect x="80.41" y="46.773" fill="#FFFFFF" width="17.428" height="54.21"/>
		<path fill="#231F20" d="M95.565,49.046v49.665H82.682V49.046H95.565 M100.111,44.501h-4.546H82.682h-4.546v4.545v49.665v4.546
			h4.546h12.883h4.546v-4.546V49.046V44.501L100.111,44.501z"/>
	</g>
	<g>
		<rect x="44.045" y="46.773" fill="#FFFFFF" width="17.429" height="54.21"/>
		<path fill="#231F20" d="M59.201,49.046v49.665H46.318V49.046H59.201 M63.747,44.501h-4.545H46.318h-4.545v4.545v49.665v4.546
			h4.545h12.883h4.545v-4.546V49.046V44.501L63.747,44.501z"/>
	</g>
	<g>
		<polygon fill="#FFFFFF" points="61.989,131.438 61.989,37.815 47.749,37.815 70.702,4.597 93.659,37.815 79.418,37.815 
			79.418,131.438 		"/>
		<path fill="#231F20" d="M70.702,8.595l18.624,26.948h-12.18v93.623H64.262V35.542h-12.18L70.702,8.595 M70.701,0.599l-3.739,5.412
			l-18.62,26.948l-4.926,7.129h8.666h7.635v89.078v4.546h4.545h12.884h4.546v-4.546V40.088h7.634h8.667l-4.928-7.13L74.441,6.01
			L70.701,0.599L70.701,0.599z"/>
	</g>
</g>
</svg>
