<?xml version="1.0" encoding="utf-8"?>
<!-- Generator: Adobe Illustrator 23.0.6, SVG Export Plug-In . SVG Version: 6.00 Build 0)  -->
<svg version="1.1" id="Layer_1" xmlns="http://www.w3.org/2000/svg" xmlns:xlink="http://www.w3.org/1999/xlink" x="0px" y="0px"
	 viewBox="0 0 141.7 141.7" style="enable-background:new 0 0 141.7 141.7;" xml:space="preserve">
<style type="text/css">
	.st0{fill:#FFFFFF;}
	.st1{fill:#231F20;}
</style>
<g>
	<g>
		<polygon class="st0" points="18.4,57.1 29.9,43.6 36.8,41.8 35,48.7 21.5,60.2 		"/>
		<path class="st1" d="M33.8,44.8l-0.7,2.7l-13,11.1l11.1-13L33.8,44.8 M39.8,38.8l-7.1,1.8L30,41.3l-1.3,0.3l-0.9,1l-11.1,13
			l6.1,6.1l13-11.1l1-0.9l0.3-1.3l0.7-2.7L39.8,38.8L39.8,38.8z"/>
	</g>
	<g>
		<polygon class="st0" points="42.9,30.6 56.4,19.1 59.5,22.2 48,35.7 41.1,37.5 		"/>
		<path class="st1" d="M57.8,20.8l-11.1,13l-2.7,0.7l0.7-2.7L57.8,20.8 M55,17.5L42,28.5l-1,0.9l-0.3,1.3l-0.7,2.7l-1.8,7.1l7.1-1.8
			l2.7-0.7l1.3-0.3l0.9-1l11.1-13L55,17.5L55,17.5z"/>
	</g>
	<g>
		<path class="st0" d="M96.1,128.3c-2.1,0-3.9-0.7-5.2-2.1c-1.8-1.9-0.8-5.3,2.4-14.4c0.9-2.7,2.3-6.6,2.6-8.2
			c-0.6-0.5-1.5-1.2-2.7-2.3C89.3,98,78,88.4,74.8,86.9c-1.6,0.9-5.7,3.2-10.3,5.9c-13.4,7.7-33.7,19.3-36.8,20.8
			c-1,0.4-2.1,0.7-3.4,0.7c-3.4,0-7.9-1.8-9.6-5.2c-1.1-2.1-0.8-4.4,0.7-6.4c3.3-4.4,25.3-34.2,30.6-41.3
			c-7.5-7.2-10.1-9.7-10.1-12.7c0-1,0.3-1.9,0.8-2.6c-3.3-4.5-1.5-8.7-1.4-8.9l0.3-0.8l0.8-0.3c0.2-0.1,1.4-0.6,3.1-0.6
			c1.5,0,3.6,0.4,5.8,2c0.7-0.4,1.6-0.8,2.6-0.8c3,0,5.6,2.6,12.8,10.1c7.1-5.3,36.9-27.2,41.3-30.6c1.2-0.9,2.5-1.4,3.8-1.4
			c2.2,0,4.3,1.3,5.9,3.7c2,3.1,2.5,7.1,1.3,9.9c-1.4,3.1-13.1,23.4-20.8,36.9c-2.7,4.6-5,8.7-5.9,10.3c1.5,3.2,11,14.5,14.3,18.3
			c1.1,1.3,1.8,2.2,2.3,2.8c1.6-0.3,5.2-1.5,8.2-2.6c5.7-2,9.5-3.3,11.9-3.3c1.1,0,1.9,0.3,2.5,0.9c1.5,1.4,2.9,3.9,1.7,8.4
			c-1.6,5.5-7.1,12.3-10.5,14l2.2,2.6l-3.1,3.1l-2.6-2.2C111.2,121.1,102.3,128.3,96.1,128.3z"/>
		<path class="st1" d="M105.8,17c3.9,0,6.8,6.8,5.2,10.5c-2,4.4-25.9,45.7-26.9,47.7c-1,2,16.4,21.7,17.7,23.4
			c0.1,0.2,0.4,0.2,0.7,0.2c3.4,0,16.4-5.9,20.5-5.9c0.5,0,0.9,0.1,1.1,0.3c5.4,5.1-6,18.4-8.8,19c-0.4,0.1-0.7,0.1-1.1,0.1
			c-0.8,0-1.5-0.2-2.1-0.4l5.1,6.1l-6.1-5.1c0.3,0.9,0.5,2,0.3,3.2c-0.5,2.3-9.3,10.2-15.4,10.2c-1.4,0-2.7-0.4-3.6-1.5
			c-1.9-2.1,7.2-21,5.4-22.3c-1.7-1.2-20.3-17.7-23.2-17.7c-0.1,0-0.2,0-0.2,0c-2,1-43.3,24.9-47.7,26.9c-0.7,0.3-1.6,0.5-2.5,0.5
			c-4.5,0-10.3-3.9-7.1-8.1c3.8-5.1,31.7-42.9,31.7-42.9c-10.8-10.3-12.6-12-9.4-15.1c-4-4-2.2-8-2.2-8s0.9-0.4,2.2-0.4
			c1.5,0,3.6,0.5,5.8,2.6c0.9-0.9,1.7-1.4,2.6-1.4c2.2,0,5.2,3.1,12.5,10.8c0,0,37.8-27.9,42.9-31.7C104.1,17.2,105,17,105.8,17
			 M105.8,12.6c-1.8,0-3.5,0.6-5.1,1.8C96.5,17.5,70,37.1,60.9,43.8c-6.7-7-9.4-9.4-13-9.4c0,0,0,0,0,0c-0.9,0-1.7,0.2-2.4,0.4
			c-2.2-1.3-4.4-1.6-6-1.6c-2.1,0-3.6,0.6-4,0.8L34,34.7l-0.7,1.5c-0.9,2-1.4,5.9,0.9,9.9c-0.3,0.7-0.5,1.6-0.4,2.5
			c0,3.6,2.5,6.3,9.4,13c-6.7,9.1-26.3,35.6-29.4,39.8c-2,2.7-2.4,5.9-0.9,8.7c2.1,4.2,7.4,6.4,11.5,6.4c1.6,0,3-0.3,4.3-0.9
			c3-1.3,19.2-10.6,37-20.9c3.7-2.1,7.2-4.1,9.2-5.3c3.9,2.4,13.5,10.6,16.9,13.5c0.7,0.6,1.3,1.1,1.7,1.5c-0.5,1.8-1.5,4.6-2.2,6.7
			c-3.3,9.4-4.7,13.7-2,16.6c1.7,1.8,4.1,2.8,6.8,2.8c4.6,0,9.3-2.8,12.4-5.1c1.2-0.9,3.5-2.7,5.2-4.8l0.8,0.6l6.1-6.1l-0.7-0.8
			c3.8-3.1,8-8.9,9.4-13.8c1.7-5.8-0.7-9.1-2.2-10.6c-1-1-2.4-1.5-4-1.5c-2.7,0-6.6,1.3-12.6,3.4c-2.1,0.7-4.9,1.7-6.7,2.2
			c-0.4-0.5-0.9-1-1.5-1.7c-2.9-3.4-11-13-13.5-16.9c1.1-2,3.2-5.5,5.3-9.2c10.2-17.8,19.5-34.1,20.9-37c1.8-3.9,0.6-8.8-1.4-11.9
			C111.5,14.3,108.7,12.6,105.8,12.6L105.8,12.6z"/>
	</g>
</g>
</svg>
