<?xml version="1.0" encoding="utf-8"?>
<!-- Generator: Adobe Illustrator 16.0.0, SVG Export Plug-In . SVG Version: 6.00 Build 0)  -->
<!DOCTYPE svg PUBLIC "-//W3C//DTD SVG 1.1//EN" "http://www.w3.org/Graphics/SVG/1.1/DTD/svg11.dtd">
<svg version="1.1" id="Layer_1" xmlns="http://www.w3.org/2000/svg" xmlns:xlink="http://www.w3.org/1999/xlink" x="0px" y="0px"
	 width="141.7px" height="141.7px" viewBox="0 0 141.7 141.7" enable-background="new 0 0 141.7 141.7" xml:space="preserve">
<g>
	<g>
		<path fill="#FFFFFF" stroke="#231F20" stroke-width="4.5454" stroke-miterlimit="10" d="M73.298,64.856
			c-0.862-0.354-1.749-0.523-2.62-0.526v0.043c-2.697-0.03-5.265,1.562-6.361,4.218c-0.354,0.862-0.524,1.749-0.526,2.622h0.043
			c-0.031,2.695,1.562,5.265,4.218,6.36c0.862,0.354,1.749,0.522,2.622,0.525v-0.044c2.696,0.032,5.265-1.561,6.359-4.217
			c0.355-0.861,0.523-1.749,0.527-2.621h-0.045C77.545,68.52,75.955,65.951,73.298,64.856z"/>
		<path fill="#FFFFFF" stroke="#231F20" stroke-width="4.5454" stroke-miterlimit="10" d="M128.401,66.517H113.06l0.002-0.589
			h-0.532c-1.736-15.008-11.412-27.953-25.718-33.845c-3.51-1.446-7.141-2.4-10.84-2.877V14.086H65.38v15.276
			c-14.995,1.75-27.96,11.453-33.836,25.713c-1.524,3.702-2.506,7.536-2.954,11.442H12.948V77.11h15.964
			c1.926,14.742,11.515,27.42,25.626,33.238c3.508,1.443,7.139,2.396,10.842,2.874v16.317h10.592v-16.477
			c14.991-1.749,27.957-11.451,33.834-25.708c1.369-3.322,2.301-6.751,2.804-10.245h15.791V66.517z M100.012,83.319
			c-4.229,10.265-13.37,17.365-24.04,19.046V90.082H65.38v12.426c-2.317-0.401-4.595-1.042-6.808-1.955
			C48.47,96.388,41.476,87.523,39.634,77.11h12.773V66.517H39.28c0.387-2.521,1.065-5,2.057-7.408
			c4.23-10.266,13.372-17.368,24.042-19.049v13.485h10.592V39.919c2.313,0.401,4.592,1.044,6.807,1.957
			c10.489,4.321,17.646,13.708,19.144,24.641H88.943V77.11h12.927C101.462,79.219,100.846,81.292,100.012,83.319z"/>
	</g>
	<g>
		<g>
			<polygon fill="#FFFFFF" points="60.284,83.176 49.234,76.467 96.938,22.257 132.009,11.451 121.204,46.523 66.993,94.226 			"/>
			<path d="M128.572,14.888l-9.352,30.353L67.528,90.728l-5.59-9.206l-9.206-5.59L98.22,24.24L128.572,14.888 M135.446,8.014
				l-8.213,2.531l-30.352,9.352l-1.226,0.377l-0.848,0.963L49.32,72.929l-3.584,4.072l4.637,2.816l8.257,5.013l5.013,8.257
				l2.815,4.637l4.073-3.584l51.692-45.486l0.963-0.848l0.378-1.227l9.352-30.353L135.446,8.014L135.446,8.014z"/>
		</g>
		<g>
			<path fill="#FFFFFF" d="M22.901,132.958c-3.313-0.001-6.425-1.291-8.766-3.633c-2.341-2.339-3.631-5.452-3.631-8.764
				c0-3.314,1.29-6.429,3.632-8.769c2.338-2.337,5.448-3.623,8.758-3.623c0.201,0,0.401,0.005,0.603,0.015l17.459-22.186
				l16.386,16.389l-22.07,17.368c0.018,0.271,0.028,0.54,0.028,0.806c0,3.311-1.29,6.423-3.632,8.765
				C29.327,131.667,26.214,132.958,22.901,132.958C22.901,132.958,22.901,132.958,22.901,132.958z M22.902,118.105
				c-0.655,0-1.271,0.255-1.733,0.718c-0.471,0.471-0.719,1.071-0.719,1.738c0,0.655,0.253,1.269,0.713,1.727
				c0.468,0.471,1.083,0.726,1.738,0.726c0.664,0,1.263-0.249,1.734-0.72c0.463-0.463,0.718-1.078,0.718-1.732
				c0-0.665-0.248-1.265-0.718-1.734C24.171,118.361,23.556,118.105,22.902,118.105z"/>
			<path d="M41.159,89.416l6.442,6.444H47.6l6.326,6.324L32.861,118.76c0.107,0.595,0.166,1.197,0.166,1.801
				c0,2.589-0.989,5.181-2.966,7.157c-1.977,1.978-4.567,2.966-7.16,2.966c-2.59,0-5.182-0.988-7.158-2.966
				c-1.978-1.977-2.965-4.568-2.965-7.157c0-2.593,0.987-5.185,2.965-7.161c1.976-1.975,4.563-2.958,7.152-2.958
				c0.579,0,1.159,0.049,1.731,0.147l-0.073-0.072L41.159,89.416 M22.902,125.286c1.262,0,2.447-0.491,3.341-1.385
				c0.892-0.892,1.384-2.079,1.384-3.34c0-1.265-0.492-2.45-1.384-3.342c-0.894-0.895-2.081-1.387-3.341-1.387
				c-1.263,0-2.45,0.492-3.341,1.385c-0.894,0.894-1.383,2.079-1.383,3.344c0,1.261,0.489,2.448,1.383,3.338
				C20.452,124.794,21.639,125.286,22.902,125.286 M40.753,82.581l-3.167,4.024l-15.188,19.3c-3.73,0.123-7.219,1.632-9.869,4.28
				c-2.771,2.769-4.298,6.454-4.298,10.376c0,3.919,1.526,7.604,4.298,10.372c2.768,2.771,6.452,4.297,10.371,4.297
				c3.92,0,7.604-1.526,10.375-4.299c2.705-2.704,4.224-6.279,4.294-10.093l19.167-15.082l4.023-3.167l-3.621-3.62l-6.326-6.324
				l-6.44-6.442L40.753,82.581L40.753,82.581z M22.902,120.74c-0.062,0-0.086-0.015-0.119-0.047c-0.042-0.042-0.06-0.065-0.06-0.132
				s0.016-0.094,0.051-0.129c0.042-0.042,0.072-0.054,0.128-0.054c0.047,0,0.08,0.008,0.126,0.054
				c0.042,0.042,0.054,0.071,0.054,0.129c0,0.055-0.013,0.086-0.052,0.125C22.984,120.732,22.952,120.74,22.902,120.74
				L22.902,120.74z"/>
		</g>
		<g>
			<polygon fill="#FFFFFF" points="25.316,72.688 34.962,63.044 61.457,81.83 80.296,108.378 70.653,118.024 			"/>
			<path d="M35.212,66.007L59.827,83.46l17.505,24.668l-6.68,6.682L28.531,72.688L35.212,66.007 M34.712,60.08l-2.713,2.713
				l-6.682,6.681l-3.214,3.214l3.214,3.214l42.122,42.122l3.214,3.215l3.214-3.215l6.68-6.682l2.713-2.715l-2.221-3.13L63.534,80.83
				l-0.447-0.63l-0.631-0.447L37.841,62.299L34.712,60.08L34.712,60.08z"/>
		</g>
	</g>
</g>
</svg>
