<?xml version="1.0" encoding="utf-8"?>
<!-- Generator: Adobe Illustrator 16.0.0, SVG Export Plug-In . SVG Version: 6.00 Build 0)  -->
<!DOCTYPE svg PUBLIC "-//W3C//DTD SVG 1.1//EN" "http://www.w3.org/Graphics/SVG/1.1/DTD/svg11.dtd">
<svg version="1.1" id="Layer_1" xmlns="http://www.w3.org/2000/svg" xmlns:xlink="http://www.w3.org/1999/xlink" x="0px" y="0px"
	 width="141.7px" height="141.7px" viewBox="0 0 141.7 141.7" enable-background="new 0 0 141.7 141.7" xml:space="preserve">
<g>
	<g>
		<path fill="#FFFFFF" d="M11.975,62.686l-0.028-1.048l0.031-0.281c4.07-25.629,29.501-44.956,59.157-44.956
			c29.655,0,55.087,19.327,59.159,44.956l0.038,0.238l-0.056,1.042l-0.542,0.669l-58.59,65.042L11.975,62.686z M75.68,99.311
			l18.088-35.324H75.68V99.311z M66.589,99.3V63.987H48.503L66.589,99.3z M86.983,97.185l29.905-33.198h-12.907L86.983,97.185z
			 M55.281,97.163L38.288,63.987H25.387L55.281,97.163z"/>
		<path fill="#231F20" d="M71.135,18.674c29.05,0,53.052,18.728,56.915,43.04l-0.004,0.072l-56.902,63.167L14.225,61.787
			l-0.002-0.073C18.083,37.402,42.085,18.674,71.135,18.674 M77.039,111.62l44.956-49.906h-19.403L77.039,111.62 M73.408,108.736
			l24.077-47.022H73.408V108.736 M68.862,108.723V61.714H44.786L68.862,108.723 M65.228,111.596l-25.55-49.882H20.279
			L65.228,111.596 M71.135,14.129c-14.955,0-29.395,4.736-40.66,13.335C19.162,36.1,11.796,48.01,9.733,61.001l-0.066,0.415
			l0.011,0.419l0.002,0.073l0.045,1.676l1.122,1.246l56.919,63.167l3.377,3.748l3.377-3.749l56.901-63.167l1.075-1.194l0.087-1.604
			l0.004-0.072l0.025-0.482L132.539,61c-2.063-12.991-9.431-24.901-20.743-33.536C100.53,18.865,86.09,14.129,71.135,14.129
			L71.135,14.129z M105.371,66.259h6.412L96.927,82.75L105.371,66.259L105.371,66.259z M77.954,66.259h12.098L77.954,89.885V66.259
			L77.954,66.259z M52.221,66.259h12.096v23.618L52.221,66.259L52.221,66.259z M30.494,66.259h6.405l8.436,16.47L30.494,66.259
			L30.494,66.259z"/>
	</g>
</g>
</svg>
