<?xml version="1.0" encoding="utf-8"?>
<!-- Generator: Adobe Illustrator 16.0.0, SVG Export Plug-In . SVG Version: 6.00 Build 0)  -->
<!DOCTYPE svg PUBLIC "-//W3C//DTD SVG 1.1//EN" "http://www.w3.org/Graphics/SVG/1.1/DTD/svg11.dtd">
<svg version="1.1" id="Layer_1" xmlns="http://www.w3.org/2000/svg" xmlns:xlink="http://www.w3.org/1999/xlink" x="0px" y="0px"
	 width="141.7px" height="141.7px" viewBox="0 0 141.7 141.7" enable-background="new 0 0 141.7 141.7" xml:space="preserve">
<g>
	<g>
		<path fill="#FFFFFF" stroke="#231F20" stroke-width="4.5454" stroke-miterlimit="10" d="M73.574,64.856
			c-0.862-0.354-1.749-0.523-2.62-0.526v0.043c-2.697-0.03-5.265,1.562-6.361,4.218c-0.354,0.862-0.524,1.749-0.526,2.622h0.043
			c-0.031,2.695,1.562,5.265,4.218,6.36c0.862,0.354,1.749,0.522,2.622,0.525v-0.044c2.696,0.032,5.265-1.561,6.359-4.217
			c0.355-0.861,0.523-1.749,0.527-2.621h-0.045C77.821,68.52,76.23,65.951,73.574,64.856z"/>
		<path fill="#FFFFFF" stroke="#231F20" stroke-width="4.5454" stroke-miterlimit="10" d="M128.676,66.517h-15.341l0.002-0.589
			h-0.532c-1.736-15.008-11.412-27.953-25.718-33.845c-3.51-1.446-7.141-2.4-10.84-2.877V14.086H65.655v15.276
			c-14.995,1.75-27.96,11.453-33.836,25.713c-1.524,3.702-2.506,7.536-2.954,11.442H13.223V77.11h15.964
			c1.926,14.742,11.515,27.42,25.626,33.238c3.508,1.443,7.139,2.396,10.842,2.874v16.317h10.592v-16.477
			c14.991-1.749,27.957-11.451,33.834-25.708c1.369-3.322,2.301-6.751,2.804-10.245h15.791V66.517z M100.288,83.319
			c-4.229,10.265-13.37,17.365-24.04,19.046V90.082H65.655v12.426c-2.317-0.401-4.595-1.042-6.808-1.955
			C48.745,96.388,41.751,87.523,39.91,77.11h12.773V66.517H39.556c0.387-2.521,1.065-5,2.057-7.408
			c4.23-10.266,13.372-17.368,24.042-19.049v13.485h10.592V39.919c2.313,0.401,4.592,1.044,6.807,1.957
			c10.489,4.321,17.646,13.708,19.144,24.641H89.218V77.11h12.927C101.738,79.219,101.122,81.292,100.288,83.319z"/>
	</g>
	<g>
		<path fill="#FFFFFF" d="M39.77,138.29c-1.685,0-4.041-1.599-13.266-9.003c-2.042-1.64-3.972-3.188-5.096-4.005
			c-1.64-1.193-2.073-2.585-2.148-3.543c-0.106-1.357,0.459-2.578,1.067-3.187c0.144-0.158,2.835-3.191,5.686-6.402
			c8.742-9.848,12.696-14.296,13.019-14.617c0.583-0.582,1.342-0.836,2.077-1.082c0.258-0.087,0.694-0.232,0.945-0.354
			c0.255-0.948,0.583-3.528,0.791-5.863l-2.369-3.474l3.3-4.838c-0.134-0.139-0.265-0.27-0.384-0.38
			c-1.077-1.008-1.423-2.543-0.882-3.913c0.571-1.446,1.956-2.346,3.614-2.346c0.416,0,0.844,0.058,1.277,0.171
			c0.374-0.244,0.973-0.84,1.309-1.278l0.767-1.003l1.488,0.145l3.529-3.531l2.563-4.343l26.486-26.485l0.535,0.535l17.504-17.502
			l0.616,0.094l7.165-7.165c-0.697-0.833-1.089-1.853-1.088-2.859c0.001-0.961,0.36-1.847,1.012-2.495
			c0.642-0.644,1.529-1.003,2.49-1.003c1.004,0,2.022,0.392,2.853,1.086l2.554-2.553l5.351,5.348l-1.432,1.433l2.494,2.493
			l-13.295,13.294l0.238,1.541L93.557,48.188l1.284,1.283l-1.325,1.595C84.228,62.245,74.24,75.192,73.601,77.509
			c-0.654,2.421-2.359,3.604-3.663,4.058l-7.621,7.051c0.712,1.036,1.202,2.168,1.417,3.302c0.378,1.983-0.119,3.835-1.364,5.079
			l-1.808,1.809c-0.958,0.959-2.303,1.487-3.786,1.487c-0.83,0-1.682-0.16-2.518-0.464c0.119,1.328,0.598,2.842,1.467,4.752
			c0.5,1.097,0.564,2.124,0.192,3.051c-0.588,1.467-1.975,2.021-3.09,2.468c-0.73,0.293-1.485,0.595-1.976,1.085
			c-1.916,1.917-3.589,9.12-4.811,14.38c-1.86,8.011-2.885,12.424-6.024,12.712l-0.104,0.01L39.77,138.29z"/>
		<path fill="#231F20" d="M117.183,10.31l2.137,2.136l-1.432,1.433l2.493,2.492l-12.502,12.502l0.238,1.541L90.342,48.189
			l1.426,1.425c0,0-19.236,23.151-20.36,27.301c-0.629,2.325-2.605,2.606-2.605,2.606l-9.649,8.928
			c0.119,0.103,0.236,0.213,0.351,0.326c2.172,2.173,2.737,5.141,1.261,6.616L58.956,97.2c-0.556,0.556-1.322,0.821-2.179,0.821
			c-1.358,0-2.94-0.668-4.261-1.911c-1.129,3.021-0.435,5.948,1.142,9.414c1.142,2.507-2.327,1.973-4.411,4.054
			c-4.59,4.592-6.316,26.15-9.437,26.438c-0.013,0.001-0.026,0.002-0.041,0.002c-1.808,0-13.24-9.824-17.026-12.574
			c-1.987-1.445-1.005-3.088-0.81-3.283c0.194-0.195,18.18-20.497,18.702-21.018c0.52-0.52,2.671-0.714,3.339-1.738
			c0.669-1.022,1.201-7.785,1.201-7.785l-1.95-2.859l3.434-5.033c0,0-0.98-1.156-1.716-1.845c-0.852-0.797-0.349-2.326,1.18-2.326
			c0.287,0,0.611,0.055,0.969,0.178c0.115,0.04,0.235,0.058,0.357,0.058c1.356,0,3.065-2.234,3.065-2.234l1.299,0.126l4.491-4.494
			l2.563-4.342l24.676-24.675l0.535,0.535l18.297-18.295l0.616,0.094l9.57-9.571l-1.291-1.292c-0.787-0.787-0.959-1.89-0.382-2.464
			c0.229-0.23,0.544-0.341,0.889-0.341c0.518,0,1.104,0.251,1.576,0.724l1.29,1.288L117.183,10.31 M56.103,95.819
			c0.425,0,0.801-0.129,1.071-0.399l1.811-1.81c0.758-0.758,0.406-2.342-0.783-3.531c-0.135-0.134-0.272-0.256-0.414-0.366
			l-3.257,3.012c-0.447,0.548-0.829,1.09-1.152,1.619c0.083,0.101,0.171,0.197,0.266,0.291C54.409,95.4,55.336,95.819,56.103,95.819
			 M117.183,3.883l-2.917,2.915c-0.796-0.331-1.643-0.508-2.488-0.508c-1.57,0-3.029,0.596-4.108,1.678
			c-1.068,1.063-1.666,2.521-1.667,4.089c-0.001,0.848,0.176,1.698,0.509,2.498l-5.108,5.109l-0.616-0.094l-1.625,1.625
			L84.078,36.279l-0.535-0.535l-3.213,3.212L55.654,63.632l-0.408,0.408l-0.293,0.497l-2.27,3.846l-2.567,2.568l-1.677-0.163
			l-1.535,2.007c-0.057,0.072-0.128,0.155-0.205,0.239c-0.192-0.017-0.385-0.024-0.576-0.024c-2.572,0-4.821,1.485-5.729,3.783
			c-0.704,1.785-0.49,3.741,0.514,5.297l-1.438,2.107l-1.747,2.561l1.747,2.562l1.034,1.517c-0.133,1.347-0.293,2.645-0.438,3.567
			c-0.828,0.284-1.793,0.673-2.643,1.522c-0.317,0.316-2.257,2.488-13.114,14.72c-2.758,3.106-5.367,6.045-5.696,6.409
			c-0.87,0.93-1.788,2.721-1.62,4.861c0.159,2.027,1.251,3.875,3.076,5.202c1.083,0.786,2.991,2.318,5.012,3.94
			c10.181,8.171,12.24,9.503,14.688,9.503h0.21l0.25-0.021c3.989-0.367,5.382-4.669,5.978-6.506c0.709-2.189,1.36-4.99,2.049-7.956
			c0.959-4.13,2.745-11.818,4.206-13.288c0.158-0.158,0.792-0.412,1.211-0.58c1.273-0.51,3.405-1.363,4.355-3.732
			c0.421-1.049,0.722-2.74-0.234-4.839c-0.177-0.388-0.332-0.751-0.468-1.091c1.875-0.122,3.579-0.87,4.844-2.136l1.808-1.809
			c1.785-1.783,2.51-4.376,1.988-7.111c-0.156-0.821-0.423-1.638-0.788-2.428l5.979-5.532c1.944-0.828,3.837-2.604,4.609-5.334
			c1.094-2.687,10.942-15.386,19.496-25.681l2.649-3.189l-1.142-1.142l14.56-14.561l1.631-1.63l-0.238-1.541l10.871-10.872
			l3.215-3.215l-2.494-2.493l1.432-1.433l-3.214-3.212l-2.137-2.136L117.183,3.883L117.183,3.883z"/>
	</g>
</g>
</svg>
