<?xml version="1.0" encoding="utf-8"?>
<!-- Generator: Adobe Illustrator 16.0.0, SVG Export Plug-In . SVG Version: 6.00 Build 0)  -->
<!DOCTYPE svg PUBLIC "-//W3C//DTD SVG 1.1//EN" "http://www.w3.org/Graphics/SVG/1.1/DTD/svg11.dtd">
<svg version="1.1" id="Layer_1" xmlns="http://www.w3.org/2000/svg" xmlns:xlink="http://www.w3.org/1999/xlink" x="0px" y="0px"
	 width="141.7px" height="141.7px" viewBox="0 0 141.7 141.7" enable-background="new 0 0 141.7 141.7" xml:space="preserve">
<g>
	<path fill="#FFFFFF" stroke="#231F20" stroke-width="4.5454" stroke-miterlimit="10" d="M73.988,64.856
		c-0.86-0.354-1.747-0.523-2.618-0.526v0.043c-2.698-0.03-5.266,1.562-6.362,4.218c-0.354,0.862-0.524,1.749-0.526,2.622h0.043
		c-0.031,2.695,1.562,5.265,4.218,6.36c0.862,0.354,1.749,0.522,2.621,0.525v-0.044c2.695,0.032,5.267-1.561,6.36-4.217
		c0.354-0.861,0.523-1.749,0.527-2.621h-0.045C78.237,68.52,76.646,65.951,73.988,64.856z"/>
	<path fill="#FFFFFF" stroke="#231F20" stroke-width="4.5454" stroke-miterlimit="10" d="M129.092,66.517h-15.341l0.002-0.589
		h-0.532c-1.736-15.008-11.413-27.953-25.718-33.845c-3.512-1.446-7.143-2.4-10.841-2.877V14.086H66.07v15.276
		c-14.995,1.75-27.96,11.453-33.836,25.713c-1.524,3.702-2.506,7.536-2.954,11.442H13.638V77.11h15.964
		c1.925,14.742,11.514,27.42,25.625,33.238c3.508,1.443,7.139,2.396,10.842,2.874v16.317h10.592v-16.477
		c14.992-1.749,27.958-11.451,33.833-25.708c1.369-3.322,2.303-6.751,2.804-10.245h15.793V66.517z M100.704,83.319
		c-4.229,10.265-13.372,17.365-24.041,19.046V90.082H66.07v12.426c-2.317-0.401-4.595-1.042-6.808-1.955
		C49.16,96.388,42.166,87.523,40.325,77.11h12.773V66.517H39.971c0.387-2.521,1.065-5,2.057-7.408
		c4.23-10.266,13.372-17.368,24.042-19.049v13.485h10.592V39.919c2.313,0.401,4.591,1.044,6.807,1.957
		c10.49,4.321,17.647,13.708,19.145,24.641H89.634V77.11h12.925C102.152,79.219,101.538,81.292,100.704,83.319z"/>
</g>
<g>
	<g>
		<g>
			
				<rect x="23.756" y="106.687" transform="matrix(-0.7072 0.707 -0.707 -0.7072 135.2654 189.9607)" fill="#FFFFFF" width="9.082" height="32.606"/>
			<path fill="#231F20" d="M19.979,111.101l20.208,20.206l-3.574,3.574l-20.208-20.208L19.979,111.101 M19.98,105.404l-2.849,2.848
				l-3.573,3.572l-2.85,2.85l2.85,2.849l20.208,20.208l2.849,2.85l2.849-2.85l3.574-3.574l2.849-2.849l-2.849-2.85l-20.208-20.206
				L19.98,105.404L19.98,105.404z"/>
		</g>
		<g>
			<polygon fill="#FFFFFF" points="69.038,58.303 87.206,47.968 103.319,64.083 92.984,82.248 			"/>
			<path fill="#231F20" d="M86.867,50.479l13.941,13.943L92.54,78.955L72.332,58.747L86.867,50.479 M87.544,45.458l-2.67,1.519
				l-14.535,8.269l-4.595,2.614l3.738,3.738l20.208,20.208l3.737,3.737l2.613-4.595l8.269-14.532l1.519-2.669l-2.171-2.172
				L89.716,47.629L87.544,45.458L87.544,45.458z"/>
		</g>
		<g>
			<path fill="#FFFFFF" d="M21.303,84.546c-1.283,0-2.489-0.499-3.396-1.407C17,82.233,16.5,81.027,16.5,79.744
				c0-1.282,0.5-2.488,1.407-3.396l29.178-29.179c4.544-4.543,11.223-6.752,20.416-6.752c3.467,0,6.716,0.305,9.327,0.55
				l0.277,0.026c0.869,0.08,1.649,0.152,2.32,0.195c1.268,0.084,2.522,0.228,3.915,0.394c1.808,0.215,3.511,0.417,5.082,0.417
				c2.599,0,4.337-0.579,5.634-1.876l15.673-15.675c0.908-0.907,2.114-1.406,3.396-1.406c1.002,0,1.957,0.304,2.76,0.87
				c1.125-1.109,2.611-1.718,4.191-1.718c1.594,0,3.092,0.621,4.218,1.748l2.297,2.298c2.325,2.325,2.325,6.11,0.001,8.438
				l-26.464,26.462l-9.635-9.634c-0.682,0.058-1.39,0.086-2.128,0.086c-2.188,0-4.297-0.249-6.157-0.469
				c-1.14-0.137-2.314-0.277-3.401-0.348c-0.819-0.053-1.79-0.142-2.879-0.245c-2.382-0.223-5.348-0.5-8.386-0.5
				c-6.55,0-11.02,1.286-13.667,3.932L24.698,83.14C23.792,84.047,22.585,84.546,21.303,84.546z"/>
			<path fill="#231F20" d="M120.077,24.208c1.011,0,2.021,0.386,2.793,1.157l2.297,2.298c1.543,1.543,1.543,4.044,0,5.589
				l-25.038,25.037l-7.886-7.885l1.548-1.55c-1.781,0.54-3.617,0.723-5.425,0.723c-2.05,0-4.064-0.236-5.921-0.455
				c-1.231-0.147-2.395-0.285-3.508-0.357c-0.803-0.052-1.753-0.14-2.818-0.241c-2.427-0.227-5.443-0.509-8.576-0.509
				c-5.544,0-11.452,0.883-15.091,4.521L23.273,81.715c-0.544,0.545-1.257,0.816-1.971,0.816c-0.713,0-1.427-0.271-1.971-0.816
				c-1.089-1.089-1.089-2.854,0-3.943l29.178-29.178c5.007-5.006,12.36-6.162,18.991-6.162c3.366,0,6.547,0.298,9.139,0.541
				c1.003,0.092,1.899,0.177,2.658,0.226c1.262,0.083,2.553,0.234,3.805,0.383c1.833,0.218,3.628,0.431,5.32,0.431
				c2.695,0,5.134-0.541,7.059-2.467l15.673-15.675c0.544-0.544,1.258-0.815,1.972-0.815c0.713,0,1.428,0.271,1.973,0.815
				c0.298,0.301,0.509,0.655,0.643,1.033l1.539-1.539C118.052,24.593,119.065,24.207,120.077,24.208 M120.077,20.178L120.077,20.178
				c-1.597,0-3.122,0.465-4.421,1.333c-0.796-0.318-1.65-0.484-2.53-0.484c-1.82,0-3.531,0.708-4.818,1.994L92.631,38.697
				c-0.636,0.636-1.633,1.287-4.209,1.287c-1.453,0-3.098-0.195-4.84-0.402c-1.425-0.169-2.707-0.316-4.02-0.403
				c-0.64-0.041-1.396-0.11-2.272-0.191l-0.282-0.026c-2.645-0.249-5.945-0.558-9.508-0.558c-9.754,0-16.898,2.401-21.84,7.341
				L16.482,74.923c-1.288,1.288-1.997,3-1.997,4.82c0,1.821,0.709,3.534,1.998,4.821c1.286,1.287,2.999,1.996,4.819,1.996
				c1.821,0,3.534-0.709,4.821-1.997L55.3,55.385c2.218-2.217,6.337-3.342,12.242-3.342c2.944,0,5.857,0.272,8.199,0.492
				c1.092,0.104,2.069,0.194,2.937,0.25c1.031,0.066,2.178,0.204,3.287,0.336c1.923,0.227,4.094,0.484,6.4,0.484
				c0.46,0,0.909-0.011,1.349-0.031l7.565,7.564l2.849,2.849l2.849-2.849l25.038-25.037c3.111-3.115,3.11-8.178,0.001-11.288
				l-2.297-2.297C124.212,21.009,122.208,20.178,120.077,20.178L120.077,20.178L120.077,20.178z"/>
		</g>
		<g>
			
				<rect x="58.396" y="86.814" transform="matrix(-0.7071 0.7071 -0.7071 -0.7071 182.9844 112.0386)" fill="#FFFFFF" width="19.783" height="14.208"/>
			<path fill="#231F20" d="M70.258,84.75l7.197,7.198l-11.139,11.14l-7.197-7.198L70.258,84.75 M70.258,79.051l-2.849,2.85
				L56.27,93.041l-2.849,2.849l2.849,2.849l7.197,7.198l2.849,2.85l2.849-2.85l11.14-11.14l2.849-2.849l-2.849-2.849l-7.197-7.198
				L70.258,79.051L70.258,79.051z"/>
		</g>
		<g>
			
				<rect x="46.14" y="99.629" transform="matrix(-0.707 0.7072 -0.7072 -0.707 170.173 142.9696)" fill="#FFFFFF" width="18.666" height="14.209"/>
			<path fill="#231F20" d="M57.048,97.959l7.198,7.197l-10.351,10.351l-7.196-7.197L57.048,97.959 M57.047,92.261l-2.849,2.85
				L43.85,105.461l-2.848,2.849l2.849,2.849l7.196,7.197l2.849,2.85l2.849-2.85l10.351-10.35l2.849-2.85l-2.849-2.85l-7.198-7.197
				L57.047,92.261L57.047,92.261z"/>
		</g>
		<g>
			
				<rect x="47.932" y="75.971" transform="matrix(-0.7071 0.7071 -0.7071 -0.7071 157.7235 101.5741)" fill="#FFFFFF" width="19.782" height="14.968"/>
			<path fill="#231F20" d="M59.525,74.018l7.735,7.734l-11.139,11.14l-7.734-7.734L59.525,74.018 M59.524,68.32l-2.849,2.849
				l-11.138,11.14l-2.849,2.849l2.849,2.849l7.734,7.734l2.849,2.85l2.849-2.85l11.139-11.14l2.849-2.849l-2.849-2.85l-7.735-7.734
				L59.524,68.32L59.524,68.32z"/>
		</g>
		<g>
			<path fill="#FFFFFF" d="M24.041,88.5l0.868-1.363c2.643-4.149,5.765-8.166,9.281-11.938l1.423-1.525l10.53,10.528L32.941,97.404
				L24.041,88.5z"/>
			<path fill="#231F20" d="M35.663,76.574l7.63,7.629L32.941,94.554l-6.333-6.335C29.13,84.259,32.158,80.333,35.663,76.574
				 M35.561,70.774l-2.845,3.053c-3.599,3.86-6.798,7.975-9.506,12.229l-1.737,2.727l2.286,2.286l6.333,6.335l2.849,2.85l2.85-2.85
				l10.352-10.352l2.849-2.849l-2.849-2.85l-7.63-7.629L35.561,70.774L35.561,70.774z"/>
		</g>
		<g>
			<path fill="#FFFFFF" d="M34.832,74.452l1.532-1.514c3.859-3.858,8.019-7.308,12.364-10.254l1.378-0.935l9.244,9.246
				L45.362,84.984L34.832,74.452z"/>
			<path fill="#231F20" d="M49.859,64.352l6.642,6.644L45.362,82.134l-7.67-7.672c0.033-0.032,0.064-0.066,0.097-0.1
				C41.651,70.501,45.727,67.153,49.859,64.352 M50.354,59.148l-2.756,1.869c-4.45,3.018-8.708,6.549-12.658,10.497l-0.098,0.102
				l-2.869,2.826l2.869,2.87l7.67,7.672l2.85,2.85l2.849-2.85L59.35,73.844l2.849-2.849l-2.848-2.849l-6.642-6.644L50.354,59.148
				L50.354,59.148z"/>
		</g>
		<g>
			<path fill="#FFFFFF" d="M79.589,92.792l12.263-12.263L97,85.675l-0.406,1.188c-1.478,4.327-3.604,8.739-6.32,13.114l-1.341,2.158
				L79.589,92.792z"/>
			<path fill="#231F20" d="M91.852,83.377l2.836,2.835c-1.417,4.149-3.479,8.439-6.126,12.703l-6.124-6.124L91.852,83.377
				 M91.852,77.68l-2.85,2.848l-9.414,9.414l-2.849,2.85l2.849,2.85l6.125,6.123l3.592,3.593l2.68-4.315
				c2.797-4.505,4.989-9.056,6.517-13.527l0.812-2.376l-1.776-1.775l-2.836-2.835L91.852,77.68L91.852,77.68z"/>
		</g>
		<g>
			<path fill="#FFFFFF" d="M75.399,115.02l-9.018-9.019l13.987-13.989l9.168,9.167l-0.934,1.379
				c-2.951,4.354-6.401,8.514-10.255,12.364l-1.511,1.489L75.399,115.02z"/>
			<path fill="#231F20" d="M80.368,94.862l6.566,6.565c-2.801,4.132-6.147,8.209-10.011,12.07c-0.032,0.032-0.067,0.064-0.1,0.098
				l-7.594-7.594L80.368,94.862 M80.368,89.164l-2.85,2.85l-11.138,11.14l-2.849,2.849l2.849,2.849l7.594,7.594l2.892,2.893
				l2.824-2.91l0.082-0.08c3.942-3.94,7.474-8.199,10.496-12.658l1.868-2.756l-2.354-2.354l-6.566-6.565L80.368,89.164
				L80.368,89.164z"/>
		</g>
		<g>
			
				<rect x="35.676" y="88.787" transform="matrix(-0.7071 0.7071 -0.7071 -0.7071 144.9087 132.5153)" fill="#FFFFFF" width="18.666" height="14.966"/>
			<path fill="#231F20" d="M46.316,87.228l7.734,7.733L43.7,105.313l-7.733-7.734L46.316,87.228 M46.316,81.53l-2.849,2.85
				L33.118,94.73l-2.849,2.849l2.849,2.849l7.733,7.734l2.849,2.85l2.849-2.85L56.9,97.81l2.849-2.849l-2.849-2.85l-7.734-7.733
				L46.316,81.53L46.316,81.53z"/>
		</g>
		<g>
			<path fill="#FFFFFF" d="M41.686,130.695l13.052-13.055l9.031,9.033l-2.267,1.314c-5.02,2.91-10.015,5.021-14.846,6.271
				l-1.114,0.289L41.686,130.695z"/>
			<path fill="#231F20" d="M54.738,120.49l5.754,5.755c-4.859,2.817-9.722,4.868-14.34,6.063l-1.616-1.614L54.738,120.49
				 M54.738,114.791l-2.85,2.851l-10.202,10.204l-2.85,2.851l2.852,2.849l1.616,1.614l1.628,1.627l2.229-0.577
				c5.008-1.296,10.174-3.476,15.352-6.479l4.534-2.628l-3.705-3.706l-5.754-5.755L54.738,114.791L54.738,114.791z"/>
		</g>
		<g>
			<path fill="#FFFFFF" d="M49.151,62.353l2.157-1.34c4.374-2.717,8.787-4.844,13.116-6.321l1.188-0.405l5.221,5.225L58.57,71.774
				L49.151,62.353z"/>
			<path fill="#231F20" d="M65.075,56.599l2.91,2.912l-9.415,9.414l-6.199-6.2C56.633,60.077,60.923,58.016,65.075,56.599
				 M66.15,51.974l-2.376,0.811c-4.474,1.527-9.025,3.719-13.529,6.517l-4.314,2.68l3.591,3.592l6.199,6.2l2.849,2.85l2.85-2.85
				l9.415-9.414l2.849-2.848l-2.848-2.849l-2.91-2.912L66.15,51.974L66.15,51.974z"/>
		</g>
		<g>
			
				<rect x="61.497" y="63.626" transform="matrix(-0.7072 0.7071 -0.7071 -0.7072 170.0665 71.7804)" fill="#FFFFFF" width="17.343" height="14.965"/>
			<path fill="#231F20" d="M71.01,62.534l7.732,7.734l-9.413,9.414l-7.734-7.734L71.01,62.534 M71.011,56.836l-2.85,2.849
				l-9.415,9.414l-2.849,2.849l2.849,2.85l7.734,7.734l2.849,2.849l2.85-2.85l9.413-9.413l2.849-2.849l-2.849-2.849l-7.732-7.734
				L71.011,56.836L71.011,56.836z"/>
		</g>
		<g>
			<path fill="#FFFFFF" d="M16.739,105.745l0.289-1.114c1.251-4.831,3.361-9.825,6.271-14.846l1.314-2.267l9.107,9.106
				l-13.052,13.052L16.739,105.745z"/>
			<path fill="#231F20" d="M25.042,90.795l5.829,5.829l-10.203,10.202l-1.69-1.691C20.174,100.517,22.226,95.654,25.042,90.795
				 M24.185,84.24l-2.629,4.535c-3.002,5.178-5.182,10.343-6.479,15.35l-0.578,2.229l1.628,1.63l1.69,1.691l2.849,2.851l2.85-2.85
				L33.72,99.474l2.849-2.85l-2.849-2.849l-5.829-5.83L24.185,84.24L24.185,84.24z"/>
		</g>
		<g>
			<path fill="#FFFFFF" d="M53.958,118.421l13.2-13.201l10.454,10.454l-1.526,1.423c-3.774,3.519-7.791,6.641-11.937,9.28
				l-1.363,0.868L53.958,118.421z"/>
			<path fill="#231F20" d="M67.159,108.07l7.554,7.554c-3.76,3.505-7.686,6.534-11.645,9.055l-6.26-6.257L67.159,108.07
				 M67.159,102.372l-2.849,2.85l-10.351,10.352l-2.85,2.85l2.85,2.849l6.26,6.257l2.286,2.285l2.727-1.736
				c4.25-2.705,8.363-5.903,12.228-9.506l3.053-2.846l-2.951-2.951l-7.553-7.553L67.159,102.372L67.159,102.372z"/>
		</g>
		<g>
			
				<rect x="23.434" y="101.133" transform="matrix(-0.707 0.7072 -0.7072 -0.707 132.567 162.317)" fill="#FFFFFF" width="18.456" height="14.969"/>
			<path fill="#231F20" d="M33.895,99.649l7.735,7.735l-10.202,10.201l-7.733-7.734L33.895,99.649 M33.894,93.951l-2.849,2.85
				l-10.2,10.202l-2.848,2.849l2.849,2.849l7.733,7.734l2.849,2.85l2.85-2.849l10.202-10.201l2.849-2.85l-2.849-2.849l-7.735-7.736
				L33.894,93.951L33.894,93.951z"/>
		</g>
		<g>
			
				<rect x="33.898" y="111.976" transform="matrix(-0.7071 0.7071 -0.7071 -0.7071 157.8212 172.7902)" fill="#FFFFFF" width="18.456" height="14.207"/>
			<path fill="#231F20" d="M44.627,110.381l7.198,7.196l-10.202,10.203l-7.197-7.198L44.627,110.381 M44.626,104.683l-2.849,2.849
				l-10.201,10.201l-2.849,2.85l2.849,2.849l7.197,7.198l2.849,2.85l2.849-2.85l10.202-10.203l2.85-2.85l-2.85-2.849l-7.198-7.196
				L44.626,104.683L44.626,104.683z"/>
		</g>
		<g>
			
				<rect x="71.961" y="74.469" transform="matrix(-0.7071 0.7071 -0.7071 -0.7071 195.3287 82.2367)" fill="#FFFFFF" width="17.343" height="14.206"/>
			<path fill="#231F20" d="M81.742,73.267l7.196,7.196l-9.414,9.416l-7.196-7.198L81.742,73.267 M81.742,67.569l-2.849,2.849
				l-9.415,9.415l-2.849,2.849l2.848,2.849l7.196,7.198l2.85,2.851l2.85-2.851l9.414-9.416l2.849-2.849l-2.849-2.85l-7.197-7.196
				L81.742,67.569L81.742,67.569z"/>
		</g>
	</g>
	<g>
		<g>
			
				<rect x="26.112" y="109.043" transform="matrix(-0.7073 0.7069 -0.7069 -0.7073 135.2571 189.9739)" fill="#FFFFFF" width="4.371" height="27.895"/>
			<path fill="#231F20" d="M19.979,112.065l19.244,19.242l-2.609,2.61l-19.243-19.244L19.979,112.065 M19.979,111.101l-3.573,3.572
				l20.208,20.208l3.574-3.574L19.979,111.101L19.979,111.101z"/>
		</g>
		<g>
			<polygon fill="#FFFFFF" points="72.889,58.822 86.809,50.903 100.383,64.479 92.464,78.397 			"/>
			<path fill="#231F20" d="M86.752,51.328l13.206,13.208L92.389,77.84L73.446,58.897L86.752,51.328 M86.867,50.479l-14.535,8.269
				L92.54,78.955l8.269-14.533L86.867,50.479L86.867,50.479z"/>
		</g>
		<g>
			<path fill="#FFFFFF" d="M21.302,82.191c-0.653,0-1.268-0.254-1.729-0.717c-0.462-0.462-0.717-1.076-0.717-1.73
				c0-0.653,0.255-1.268,0.717-1.73L48.75,48.835c4.08-4.079,10.213-6.062,18.75-6.062c3.357,0,6.545,0.299,9.106,0.54l0.282,0.026
				c0.894,0.083,1.696,0.157,2.387,0.201c1.205,0.08,2.428,0.22,3.786,0.381c1.88,0.224,3.649,0.434,5.36,0.434
				c3.229,0,5.549-0.815,7.3-2.566l15.673-15.675c0.462-0.461,1.076-0.716,1.73-0.716c0.653,0,1.269,0.254,1.732,0.716
				c0.248,0.252,0.438,0.557,0.562,0.905l0.181,0.509l1.921-1.92c0.683-0.683,1.591-1.059,2.556-1.059
				c0.964,0,1.87,0.375,2.552,1.058l2.297,2.298c1.407,1.407,1.407,3.698,0,5.107l-24.797,24.796l-7.403-7.403l2.266-2.27
				l-1.299,0.394c-1.573,0.476-3.315,0.708-5.326,0.708c-2.049,0-4.085-0.241-5.881-0.453c-1.167-0.14-2.374-0.285-3.526-0.359
				c-0.8-0.051-1.746-0.139-2.808-0.24c-2.434-0.228-5.46-0.511-8.608-0.511c-7.206,0-12.221,1.512-15.333,4.622L23.032,81.474
				C22.57,81.937,21.956,82.191,21.302,82.191z"/>
			<path fill="#231F20" d="M120.077,24.889L120.077,24.889c0.873,0,1.693,0.34,2.311,0.958l2.297,2.298
				c1.274,1.274,1.274,3.35,0,4.625l-24.556,24.555l-6.922-6.921l1.066-1.068l1.918-1.921l-2.598,0.787
				c-1.541,0.466-3.251,0.693-5.228,0.693c-2.029,0-4.055-0.239-5.84-0.45c-1.173-0.141-2.385-0.286-3.545-0.36
				c-0.802-0.052-1.741-0.139-2.8-0.24c-2.439-0.228-5.475-0.512-8.639-0.512c-7.301,0-12.395,1.544-15.573,4.722L22.791,81.233
				c-0.397,0.398-0.926,0.617-1.489,0.617c-0.562,0-1.091-0.219-1.489-0.617c-0.398-0.397-0.617-0.927-0.617-1.489
				s0.219-1.092,0.617-1.489l29.178-29.179c4.013-4.012,10.067-5.962,18.509-5.962c3.342,0,6.521,0.298,9.076,0.538l0.283,0.026
				c0.911,0.084,1.698,0.157,2.393,0.201c1.197,0.08,2.416,0.219,3.774,0.381c1.885,0.224,3.664,0.435,5.396,0.435
				c3.326,0,5.723-0.847,7.541-2.667l15.672-15.674c0.398-0.397,0.928-0.616,1.49-0.616s1.093,0.219,1.488,0.613
				c0.215,0.217,0.378,0.48,0.484,0.781l0.36,1.018l0.765-0.764l1.539-1.538C118.38,25.229,119.203,24.889,120.077,24.889
				 M120.077,24.208c-1.012,0-2.024,0.386-2.797,1.158l-1.539,1.539c-0.134-0.377-0.345-0.731-0.643-1.033
				c-0.545-0.544-1.26-0.815-1.973-0.815c-0.714,0-1.428,0.271-1.972,0.815L95.481,41.546c-1.925,1.926-4.363,2.467-7.059,2.467
				c-1.692,0-3.487-0.213-5.32-0.431c-1.252-0.149-2.543-0.3-3.805-0.383c-0.759-0.048-1.655-0.133-2.658-0.226
				c-2.592-0.243-5.773-0.541-9.139-0.541c-6.631,0-13.984,1.155-18.991,6.162L19.332,77.772c-1.089,1.09-1.089,2.854,0,3.943
				c0.544,0.545,1.258,0.816,1.971,0.816c0.714,0,1.427-0.271,1.971-0.816l29.178-29.179c3.64-3.638,9.547-4.521,15.091-4.521
				c3.133,0,6.149,0.282,8.576,0.509c1.065,0.101,2.016,0.189,2.818,0.241c1.113,0.072,2.276,0.209,3.508,0.357
				c1.856,0.219,3.87,0.455,5.921,0.455c1.808,0,3.644-0.183,5.425-0.723l-1.548,1.55l7.886,7.885l25.038-25.037
				c1.543-1.545,1.543-4.046,0-5.589l-2.297-2.298C122.098,24.593,121.087,24.208,120.077,24.208L120.077,24.208z"/>
		</g>
		<g>
			
				<rect x="60.751" y="89.17" transform="matrix(-0.7071 0.7071 -0.7071 -0.7071 182.9838 112.0426)" fill="#FFFFFF" width="15.072" height="9.497"/>
			<path fill="#231F20" d="M70.258,85.713l6.233,6.234l-10.175,10.176l-6.233-6.234L70.258,85.713 M70.258,84.75l-11.139,11.14
				l7.197,7.198l11.139-11.14L70.258,84.75L70.258,84.75z"/>
		</g>
		<g>
			
				<rect x="48.495" y="101.985" transform="matrix(-0.7071 0.7072 -0.7072 -0.7071 170.1723 142.9717)" fill="#FFFFFF" width="13.955" height="9.497"/>
			<path fill="#231F20" d="M57.048,98.923l6.234,6.233l-9.386,9.387l-6.232-6.233L57.048,98.923 M57.048,97.959L46.699,108.31
				l7.196,7.197l10.351-10.351L57.048,97.959L57.048,97.959z"/>
		</g>
		<g>
			
				<rect x="50.288" y="78.327" transform="matrix(-0.7071 0.7071 -0.7071 -0.7071 157.7233 101.5748)" fill="#FFFFFF" width="15.071" height="10.257"/>
			<path fill="#231F20" d="M59.525,74.982l6.771,6.771L56.121,91.928l-6.77-6.771L59.525,74.982 M59.525,74.018l-11.138,11.14
				l7.734,7.734l11.139-11.14L59.525,74.018L59.525,74.018z"/>
		</g>
		<g>
			<path fill="#FFFFFF" d="M27.043,88.172c2.473-3.853,5.375-7.587,8.629-11.107l7.139,7.138l-9.87,9.869L27.043,88.172z"/>
			<path fill="#231F20" d="M35.683,77.557l6.646,6.646l-9.387,9.388l-5.463-5.465C29.847,84.466,32.603,80.917,35.683,77.557
				 M35.663,76.574c-3.505,3.76-6.533,7.686-9.055,11.646l6.333,6.335l10.352-10.352L35.663,76.574L35.663,76.574z"/>
		</g>
		<g>
			<path fill="#FFFFFF" d="M38.173,74.461c3.645-3.626,7.56-6.878,11.645-9.669l6.202,6.203L45.362,81.652L38.173,74.461z"/>
			<path fill="#231F20" d="M49.777,65.233l5.76,5.762L45.362,81.17l-6.707-6.708C42.147,71.016,45.884,67.915,49.777,65.233
				 M49.859,64.352c-4.132,2.802-8.208,6.15-12.07,10.011c-0.033,0.033-0.064,0.067-0.097,0.1l7.67,7.672l11.139-11.139
				L49.859,64.352L49.859,64.352z"/>
		</g>
		<g>
			<path fill="#FFFFFF" d="M82.92,92.792l8.932-8.932l2.444,2.443c-1.376,3.975-3.325,8.031-5.798,12.066L82.92,92.792z"/>
			<path fill="#231F20" d="M91.852,84.341l2.052,2.052c-1.32,3.766-3.159,7.604-5.472,11.429l-5.03-5.03L91.852,84.341
				 M91.852,83.377l-9.414,9.414l6.124,6.124c2.647-4.264,4.709-8.554,6.126-12.703L91.852,83.377L91.852,83.377z"/>
		</g>
		<g>
			<path fill="#FFFFFF" d="M69.712,106.001l10.656-10.657l6.126,6.125c-2.796,4.092-6.048,8.008-9.669,11.645L69.712,106.001z"/>
			<path fill="#231F20" d="M80.368,95.826l5.685,5.684c-2.678,3.89-5.771,7.617-9.229,11.121l-6.628-6.629L80.368,95.826
				 M80.368,94.862l-11.138,11.14l7.594,7.594c0.032-0.033,0.067-0.065,0.1-0.098c3.863-3.861,7.21-7.938,10.011-12.07
				L80.368,94.862L80.368,94.862z"/>
		</g>
		<g>
			
				<rect x="38.031" y="91.142" transform="matrix(-0.7071 0.7071 -0.7071 -0.7071 144.9089 132.5147)" fill="#FFFFFF" width="13.955" height="10.255"/>
			<path fill="#231F20" d="M46.316,88.192l6.77,6.77l-9.386,9.388l-6.769-6.771L46.316,88.192 M46.316,87.228l-10.35,10.351
				l7.733,7.734l10.351-10.352L46.316,87.228L46.316,87.228z"/>
		</g>
		<g>
			<path fill="#FFFFFF" d="M45.018,130.694l9.72-9.722l5.198,5.199c-4.639,2.651-9.239,4.587-13.682,5.758L45.018,130.694z"/>
			<path fill="#231F20" d="M54.738,121.454l4.641,4.642c-4.416,2.487-8.79,4.319-13.022,5.454l-0.856-0.855L54.738,121.454
				 M54.738,120.49l-10.202,10.204l1.616,1.614c4.618-1.195,9.481-3.246,14.34-6.063L54.738,120.49L54.738,120.49z"/>
		</g>
		<g>
			<path fill="#FFFFFF" d="M52.917,62.789c4.034-2.474,8.091-4.423,12.067-5.798l2.519,2.521l-8.933,8.932L52.917,62.789z"/>
			<path fill="#231F20" d="M64.895,57.382l2.127,2.128l-8.451,8.45l-5.106-5.106C57.288,60.542,61.127,58.703,64.895,57.382
				 M65.075,56.599c-4.152,1.417-8.442,3.479-12.704,6.126l6.199,6.2l9.415-9.414L65.075,56.599L65.075,56.599z"/>
		</g>
		<g>
			
				<rect x="63.853" y="65.981" transform="matrix(-0.7072 0.707 -0.707 -0.7072 170.0665 71.7806)" fill="#FFFFFF" width="12.632" height="10.255"/>
			<path fill="#231F20" d="M71.01,63.499l6.769,6.77l-8.449,8.45l-6.77-6.771L71.01,63.499 M71.01,62.534l-9.415,9.414l7.734,7.734
				l9.413-9.414L71.01,62.534L71.01,62.534z"/>
		</g>
		<g>
			<path fill="#FFFFFF" d="M19.357,105.033c1.171-4.443,3.107-9.043,5.758-13.682l5.273,5.273l-9.721,9.72L19.357,105.033z"/>
			<path fill="#231F20" d="M25.191,91.909l4.716,4.716l-9.238,9.237l-0.931-0.932C20.873,100.699,22.705,96.325,25.191,91.909
				 M25.042,90.795c-2.816,4.858-4.868,9.722-6.064,14.34l1.69,1.691l10.203-10.202L25.042,90.795L25.042,90.795z"/>
		</g>
		<g>
			<path fill="#FFFFFF" d="M57.29,118.421l9.869-9.869l7.063,7.063c-3.523,3.257-7.257,6.158-11.106,8.629L57.29,118.421z"/>
			<path fill="#231F20" d="M67.159,109.034l6.57,6.57c-3.361,3.082-6.912,5.838-10.567,8.204l-5.389-5.387L67.159,109.034
				 M67.159,108.07l-10.351,10.352l6.26,6.257c3.959-2.521,7.885-5.55,11.645-9.055L67.159,108.07L67.159,108.07z"/>
		</g>
		<g>
			
				<rect x="25.79" y="103.489" transform="matrix(-0.7071 0.7072 -0.7072 -0.7071 132.566 162.3188)" fill="#FFFFFF" width="13.745" height="10.258"/>
			<path fill="#231F20" d="M33.895,100.613l6.771,6.771l-9.238,9.237l-6.769-6.771L33.895,100.613 M33.895,99.649l-10.2,10.202
				l7.733,7.734l10.202-10.201L33.895,99.649L33.895,99.649z"/>
		</g>
		<g>
			
				<rect x="36.253" y="114.332" transform="matrix(-0.7071 0.7071 -0.7071 -0.7071 157.8208 172.791)" fill="#FFFFFF" width="13.745" height="9.497"/>
			<path fill="#231F20" d="M44.627,111.345l6.234,6.232l-9.238,9.239l-6.233-6.234L44.627,111.345 M44.627,110.381l-10.201,10.201
				l7.197,7.198l10.202-10.203L44.627,110.381L44.627,110.381z"/>
		</g>
		<g>
			
				<rect x="74.317" y="76.825" transform="matrix(-0.7071 0.7071 -0.7071 -0.7071 195.3291 82.2366)" fill="#FFFFFF" width="12.631" height="9.495"/>
			<path fill="#231F20" d="M81.742,74.231l6.232,6.232l-8.45,8.451l-6.232-6.233L81.742,74.231 M81.742,73.267l-9.414,9.414
				l7.196,7.198l9.414-9.416L81.742,73.267L81.742,73.267z"/>
		</g>
	</g>
	<g>
		<g>
			<path fill="#FFFFFF" d="M88.047,48.511c-4.991,0-9.679-1.939-13.199-5.46c-7.278-7.278-7.278-19.121,0-26.398
				c3.521-3.521,8.208-5.46,13.199-5.46s9.679,1.939,13.2,5.459c3.521,3.521,5.46,8.208,5.46,13.2s-1.939,9.679-5.46,13.2
				C97.726,46.572,93.039,48.511,88.047,48.511z M88.048,19.249c-2.837,0-5.502,1.102-7.502,3.102
				c-4.136,4.136-4.136,10.867,0,15.003c2,1.999,4.665,3.101,7.502,3.101s5.5-1.102,7.5-3.101c4.136-4.136,4.136-10.867,0-15.003
				C93.548,20.35,90.885,19.249,88.048,19.249z"/>
			<path fill="#231F20" d="M88.047,13.208c4.265,0,8.529,1.623,11.775,4.87c6.493,6.492,6.493,17.058,0,23.55
				c-3.246,3.247-7.511,4.87-11.775,4.87c-4.264,0-8.528-1.623-11.774-4.87c-6.492-6.492-6.492-17.058,0-23.55
				C79.519,14.831,83.784,13.208,88.047,13.208 M88.048,42.469c3.231,0,6.464-1.23,8.925-3.691c4.922-4.923,4.922-12.93,0-17.853
				c-2.461-2.461-5.693-3.692-8.925-3.692c-3.232,0-6.465,1.23-8.927,3.692c-4.922,4.923-4.922,12.93,0,17.853
				C81.583,41.239,84.816,42.469,88.048,42.469 M88.047,9.178c-5.529,0-10.723,2.148-14.624,6.05
				c-8.063,8.063-8.063,21.185,0.001,29.248c3.9,3.901,9.094,6.05,14.623,6.05s10.723-2.148,14.624-6.05
				c3.901-3.901,6.051-9.094,6.051-14.624s-2.149-10.723-6.051-14.624C98.77,11.327,93.577,9.178,88.047,9.178L88.047,9.178z
				 M88.048,38.44c-2.3,0-4.458-0.892-6.078-2.512c-3.35-3.35-3.35-8.803,0.001-12.154c1.619-1.619,3.778-2.511,6.077-2.511
				s4.456,0.892,6.075,2.512c3.351,3.351,3.351,8.804,0,12.155C92.504,37.548,90.347,38.44,88.048,38.44L88.048,38.44z"/>
		</g>
		<path fill="#FFFFFF" stroke="#FFFFFF" stroke-width="1.0073" stroke-miterlimit="10" d="M76.273,41.627
			c-6.492-6.492-6.492-17.058,0-23.55c6.492-6.493,17.057-6.493,23.55,0c6.493,6.492,6.493,17.058,0,23.55
			C93.33,48.12,82.765,48.12,76.273,41.627z M96.973,20.926c-4.922-4.922-12.928-4.922-17.852,0c-4.922,4.923-4.922,12.93,0,17.853
			c4.924,4.921,12.93,4.921,17.852,0C101.895,33.855,101.895,25.849,96.973,20.926z"/>
	</g>
</g>
</svg>
