<?xml version="1.0" encoding="utf-8"?>
<!-- Generator: Adobe Illustrator 16.0.0, SVG Export Plug-In . SVG Version: 6.00 Build 0)  -->
<!DOCTYPE svg PUBLIC "-//W3C//DTD SVG 1.1//EN" "http://www.w3.org/Graphics/SVG/1.1/DTD/svg11.dtd">
<svg version="1.1" id="Layer_1" xmlns="http://www.w3.org/2000/svg" xmlns:xlink="http://www.w3.org/1999/xlink" x="0px" y="0px"
	 width="141.7px" height="141.7px" viewBox="0 0 141.7 141.7" enable-background="new 0 0 141.7 141.7" xml:space="preserve">
<g>
	<g>
		<path fill="#FFFFFF" stroke="#231F20" stroke-width="4.5454" stroke-miterlimit="10" d="M73.669,64.856
			c-0.86-0.354-1.747-0.523-2.619-0.526v0.043c-2.697-0.03-5.265,1.562-6.361,4.218c-0.354,0.862-0.524,1.749-0.526,2.622h0.043
			c-0.031,2.695,1.562,5.265,4.218,6.36c0.862,0.354,1.749,0.522,2.622,0.525v-0.044c2.695,0.032,5.266-1.561,6.36-4.217
			c0.354-0.861,0.523-1.749,0.527-2.621h-0.045C77.918,68.52,76.328,65.951,73.669,64.856z"/>
		<path fill="#FFFFFF" stroke="#231F20" stroke-width="4.5454" stroke-miterlimit="10" d="M128.774,66.517h-15.341l0.002-0.589
			h-0.532c-1.736-15.008-11.413-27.953-25.718-33.845c-3.512-1.446-7.143-2.4-10.841-2.877V14.086H65.752v15.276
			c-14.995,1.75-27.96,11.453-33.836,25.713c-1.524,3.702-2.506,7.536-2.954,11.442H13.32V77.11h15.964
			c1.926,14.742,11.515,27.42,25.626,33.238c3.508,1.443,7.139,2.396,10.842,2.874v16.317h10.592v-16.477
			c14.992-1.749,27.958-11.451,33.833-25.708c1.369-3.322,2.303-6.751,2.804-10.245h15.793V66.517z M100.385,83.319
			c-4.229,10.265-13.372,17.365-24.041,19.046V90.082H65.752v12.426c-2.317-0.401-4.595-1.042-6.808-1.955
			C48.842,96.388,41.848,87.523,40.006,77.11H52.78V66.517H39.652c0.387-2.521,1.065-5,2.057-7.408
			c4.23-10.266,13.372-17.368,24.042-19.049v13.485h10.592V39.919c2.313,0.401,4.591,1.044,6.807,1.957
			c10.49,4.321,17.647,13.708,19.145,24.641H89.316V77.11h12.925C101.833,79.219,101.219,81.292,100.385,83.319z"/>
	</g>
	<g>
		<g>
			<path fill="#FFFFFF" d="M93.636,122.597l-6.73-19.991H55.126l-6.664,19.991H22.296l37.81-101.568h21.68l38.019,101.568H93.636z
				 M79.981,81.869l-9.022-26.87l-8.923,26.87H79.981z"/>
			<path fill="#231F20" d="M80.209,23.302l36.317,97.023H95.269l-6.73-19.991h-35.05l-6.664,19.991H25.567l36.118-97.023H80.209
				 M58.886,84.141h24.255L70.947,47.824L58.886,84.141 M83.362,18.756h-3.152H61.685h-3.158l-1.102,2.959l-36.118,97.023
				l-2.283,6.131h6.542h21.258h3.276l1.036-3.107l5.628-16.883h28.508l5.688,16.896l1.042,3.095h3.266h21.258h6.555l-2.298-6.139
				L84.466,21.708L83.362,18.756L83.362,18.756z M65.185,79.595l5.786-17.42l5.849,17.42H65.185L65.185,79.595z"/>
		</g>
	</g>
</g>
</svg>
