<?xml version="1.0" encoding="utf-8"?>
<!-- Generator: Adobe Illustrator 16.0.0, SVG Export Plug-In . SVG Version: 6.00 Build 0)  -->
<!DOCTYPE svg PUBLIC "-//W3C//DTD SVG 1.1//EN" "http://www.w3.org/Graphics/SVG/1.1/DTD/svg11.dtd">
<svg version="1.1" id="Layer_1" xmlns="http://www.w3.org/2000/svg" xmlns:xlink="http://www.w3.org/1999/xlink" x="0px" y="0px"
	 width="141.7px" height="141.7px" viewBox="0 0 141.7 141.7" enable-background="new 0 0 141.7 141.7" xml:space="preserve">
<g>
	<g>
		<path fill="#FFFFFF" stroke="#231F20" stroke-width="4.5454" stroke-miterlimit="10" d="M73.283,64.856
			c-0.86-0.354-1.747-0.523-2.619-0.526v0.043c-2.697-0.03-5.265,1.562-6.361,4.218c-0.354,0.862-0.524,1.749-0.526,2.622h0.043
			c-0.031,2.695,1.562,5.265,4.218,6.36c0.862,0.354,1.749,0.522,2.622,0.525v-0.044c2.695,0.032,5.266-1.561,6.36-4.217
			c0.354-0.861,0.523-1.749,0.527-2.621h-0.045C77.532,68.52,75.941,65.951,73.283,64.856z"/>
		<path fill="#FFFFFF" stroke="#231F20" stroke-width="4.5454" stroke-miterlimit="10" d="M128.387,66.517h-15.341l0.002-0.589
			h-0.532c-1.736-15.008-11.413-27.953-25.718-33.845c-3.512-1.446-7.143-2.4-10.841-2.877V14.086H65.365v15.276
			c-14.995,1.75-27.96,11.453-33.836,25.713c-1.524,3.702-2.506,7.536-2.954,11.442H12.933V77.11h15.964
			c1.926,14.742,11.515,27.42,25.626,33.238c3.508,1.443,7.139,2.396,10.842,2.874v16.317h10.592v-16.477
			c14.992-1.749,27.958-11.451,33.833-25.708c1.369-3.322,2.303-6.751,2.804-10.245h15.793V66.517z M99.999,83.319
			c-4.229,10.265-13.372,17.365-24.041,19.046V90.082H65.365v12.426c-2.317-0.401-4.595-1.042-6.808-1.955
			C48.455,96.388,41.461,87.523,39.62,77.11h12.773V66.517H39.266c0.387-2.521,1.065-5,2.057-7.408
			c4.23-10.266,13.372-17.368,24.042-19.049v13.485h10.592V39.919c2.313,0.401,4.591,1.044,6.807,1.957
			c10.49,4.321,17.647,13.708,19.145,24.641H88.929V77.11h12.925C101.447,79.219,100.833,81.292,99.999,83.319z"/>
	</g>
	<g>
		<g>
			<g>
				<polygon fill="#FFFFFF" points="23.151,119.323 11.2,85.355 46.753,49.785 92.624,95.799 57.113,131.269 				"/>
				<path fill="#231F20" d="M46.751,53.001l42.659,42.794l-32.892,32.855l-31.585-11.11L13.818,85.95L46.751,53.001 M46.756,46.567
					l-3.219,3.221L10.604,82.737l-2.022,2.022l0.95,2.699l11.115,31.591l0.723,2.056l2.056,0.724l31.585,11.11l2.697,0.948
					l2.023-2.021l32.892-32.855l3.213-3.209l-3.206-3.216L49.971,49.792L46.756,46.567L46.756,46.567z"/>
			</g>
		</g>
		<g>
			<path fill="#FFFFFF" d="M72.521,56.459L113.479,15.5c1.803-1.803,4.2-2.796,6.75-2.796s4.947,0.993,6.75,2.795
				c3.721,3.723,3.721,9.778,0.001,13.5L86.021,69.958L72.521,56.459z"/>
			<path fill="#231F20" d="M120.229,14.978c1.861,0,3.723,0.71,5.144,2.13c2.839,2.84,2.839,7.445,0,10.285L86.021,66.744
				L75.735,56.459l39.352-39.352C116.506,15.688,118.368,14.978,120.229,14.978 M120.229,10.432c-3.157,0-6.125,1.229-8.356,3.461
				L72.521,53.246l-3.214,3.214l3.214,3.214l10.286,10.285l3.214,3.214l3.214-3.214l39.352-39.352
				c4.606-4.608,4.606-12.105,0.001-16.713C126.354,11.661,123.386,10.432,120.229,10.432L120.229,10.432z"/>
		</g>
		<g>
			<path fill="#FFFFFF" d="M61.236,90.79c-2.55,0-4.946-0.993-6.749-2.795c-1.803-1.804-2.796-4.201-2.796-6.751
				c0-2.551,0.993-4.948,2.797-6.75l21.938-21.939l13.499,13.5l-21.94,21.941C66.183,89.796,63.786,90.79,61.236,90.79z"/>
			<path fill="#231F20" d="M76.426,55.769l10.285,10.285L66.378,86.387c-1.42,1.42-3.281,2.129-5.142,2.129
				s-3.722-0.709-5.142-2.129c-2.841-2.841-2.841-7.447,0-10.286L76.426,55.769 M76.426,49.34l-3.214,3.214L52.88,72.887
				c-2.232,2.23-3.462,5.198-3.462,8.356c0,3.157,1.229,6.125,3.462,8.357c2.232,2.231,5.199,3.461,8.356,3.461
				s6.124-1.229,8.356-3.46l20.333-20.334l3.214-3.214l-3.214-3.214L79.64,52.554L76.426,49.34L76.426,49.34z"/>
		</g>
	</g>
</g>
</svg>
