<?xml version="1.0" encoding="utf-8"?>
<!-- Generator: Adobe Illustrator 16.0.0, SVG Export Plug-In . SVG Version: 6.00 Build 0)  -->
<!DOCTYPE svg PUBLIC "-//W3C//DTD SVG 1.1//EN" "http://www.w3.org/Graphics/SVG/1.1/DTD/svg11.dtd">
<svg version="1.1" id="Layer_1" xmlns="http://www.w3.org/2000/svg" xmlns:xlink="http://www.w3.org/1999/xlink" x="0px" y="0px"
	 width="141.7px" height="141.7px" viewBox="0 0 141.7 141.7" enable-background="new 0 0 141.7 141.7" xml:space="preserve">
<g>
	
		<linearGradient id="SVGID_1_" gradientUnits="userSpaceOnUse" x1="3932.9536" y1="141.0864" x2="3911.4619" y2="119.5947" gradientTransform="matrix(-1 0 0 1 3989.0225 0)">
		<stop  offset="0" style="stop-color:#FFD002"/>
		<stop  offset="1" style="stop-color:#FAA919"/>
	</linearGradient>
	<path fill="url(#SVGID_1_)" d="M81.134,122.076c0,0-19.672,4.753-29.362,14.092c-1.218,1.176,4.542,6.536,6.108,4.815
		c6.239-6.855,11.491-11.177,23.959-16.559C83.233,123.823,81.134,122.076,81.134,122.076z"/>
	
		<linearGradient id="SVGID_2_" gradientUnits="userSpaceOnUse" x1="3875.7202" y1="62.7495" x2="3865.0991" y2="62.7495" gradientTransform="matrix(-1 0 0 1 3989.0225 0)">
		<stop  offset="0" style="stop-color:#FFD002"/>
		<stop  offset="1" style="stop-color:#F9A11B"/>
	</linearGradient>
	<path fill="url(#SVGID_2_)" d="M123.924,64.511c-5.121-6.521-9.639-11.053-10.483-10.416c-0.934,0.707,2.99,7.483,8.768,15.138
		c0.577,0.766,1.15,1.509,1.716,2.23V64.511z"/>
	
		<linearGradient id="SVGID_3_" gradientUnits="userSpaceOnUse" x1="-37.6328" y1="55.708" x2="-49.7457" y2="67.8209" gradientTransform="matrix(1 0 0 1 173.3223 0)">
		<stop  offset="0" style="stop-color:#FCF8CC"/>
		<stop  offset="0.3276" style="stop-color:#FDE682"/>
		<stop  offset="0.6488" style="stop-color:#FED540"/>
		<stop  offset="0.8806" style="stop-color:#FFCB18"/>
		<stop  offset="1" style="stop-color:#FFC708"/>
	</linearGradient>
	<path fill="url(#SVGID_3_)" d="M123.933,64.511c5.122-6.521,9.639-11.053,10.484-10.416c0.934,0.707-2.992,7.483-8.768,15.138
		c-0.579,0.766-1.15,1.509-1.717,2.23V64.511z"/>
	
		<linearGradient id="SVGID_4_" gradientUnits="userSpaceOnUse" x1="3873.1987" y1="54.6558" x2="3856.48" y2="71.3744" gradientTransform="matrix(-1 0 0 1 3989.0225 0)">
		<stop  offset="0" style="stop-color:#FBF5B5"/>
		<stop  offset="0.0236" style="stop-color:#FBF3A7"/>
		<stop  offset="0.1754" style="stop-color:#FCE84E"/>
		<stop  offset="0.282" style="stop-color:#FDE216"/>
		<stop  offset="0.3333" style="stop-color:#FDDF00"/>
		<stop  offset="0.5" style="stop-color:#FFDE00"/>
		<stop  offset="1" style="stop-color:#F58B1F"/>
	</linearGradient>
	<path fill="url(#SVGID_4_)" d="M113.299,54.352l0.016,0.018c-0.187,1.489,3.563,7.801,8.894,14.864
		c0.577,0.766,1.15,1.509,1.716,2.23h0.005c0.566-0.721,1.14-1.465,1.717-2.23c5.325-7.056,9.073-13.362,8.894-14.859l0.019-0.022
		c0,0,1.466,6.43-0.088,13.653c-1.557,7.224-8.397,11.037-10.541,11.037c-2.145,0-8.984-3.813-10.542-11.037
		C111.833,60.782,113.299,54.352,113.299,54.352z"/>
	
		<linearGradient id="SVGID_5_" gradientUnits="userSpaceOnUse" x1="3873.8228" y1="73.145" x2="3869.7625" y2="89.6899" gradientTransform="matrix(-1 0 0 1 3989.0225 0)">
		<stop  offset="0" style="stop-color:#FFD002"/>
		<stop  offset="1" style="stop-color:#F9A11B"/>
	</linearGradient>
	<path fill="url(#SVGID_5_)" d="M120.692,86.74c-2.297-7.969-4.781-13.865-5.802-13.592c-1.133,0.304-0.041,8.058,2.438,17.324
		c0.249,0.925,0.501,1.83,0.755,2.709L120.692,86.74z"/>
	
		<linearGradient id="SVGID_6_" gradientUnits="userSpaceOnUse" x1="329.4917" y1="765.2456" x2="314.4044" y2="771.3589" gradientTransform="matrix(0.9268 0.3755 -0.3755 0.9268 116.346 -745.9417)">
		<stop  offset="0" style="stop-color:#FCF8CC"/>
		<stop  offset="0.3276" style="stop-color:#FDE682"/>
		<stop  offset="0.6488" style="stop-color:#FED540"/>
		<stop  offset="0.8806" style="stop-color:#FFCB18"/>
		<stop  offset="1" style="stop-color:#FFC708"/>
	</linearGradient>
	<path fill="url(#SVGID_6_)" d="M120.702,86.742c7.196-4.121,13.084-6.625,13.627-5.716c0.602,1.005-5.582,5.812-13.811,10.738
		c-0.822,0.492-1.632,0.967-2.427,1.421L120.702,86.742z"/>
	
		<linearGradient id="SVGID_7_" gradientUnits="userSpaceOnUse" x1="3506.9429" y1="760.1655" x2="3489.5557" y2="777.5527" gradientTransform="matrix(-0.9268 -0.3755 -0.3755 0.9268 3652.873 687.6318)">
		<stop  offset="0" style="stop-color:#FBF5B5"/>
		<stop  offset="0.0236" style="stop-color:#FBF3A7"/>
		<stop  offset="0.1754" style="stop-color:#FCE84E"/>
		<stop  offset="0.282" style="stop-color:#FDE216"/>
		<stop  offset="0.3333" style="stop-color:#FDDF00"/>
		<stop  offset="0.5" style="stop-color:#FFDE00"/>
		<stop  offset="1" style="stop-color:#F58B1F"/>
	</linearGradient>
	<path fill="url(#SVGID_7_)" d="M114.663,73.334l0.004,0.021c-0.73,1.31,0.376,8.566,2.661,17.116
		c0.249,0.925,0.501,1.83,0.755,2.709l0.005,0.002c0.794-0.454,1.604-0.929,2.428-1.42c7.585-4.54,13.427-8.978,13.822-10.434
		l0.026-0.013c0,0-1.056,6.512-5.211,12.619c-4.153,6.111-11.925,7.076-13.911,6.271c-1.989-0.805-6.896-6.909-5.625-14.187
		C110.886,78.741,114.663,73.334,114.663,73.334z"/>
	
		<linearGradient id="SVGID_8_" gradientUnits="userSpaceOnUse" x1="2903.8491" y1="1296.9028" x2="2899.8813" y2="1292.9709" gradientTransform="matrix(-0.7103 -0.7039 -0.7039 0.7103 3079.7385 1222.2286)">
		<stop  offset="0" style="stop-color:#FFD002"/>
		<stop  offset="1" style="stop-color:#F9A11B"/>
	</linearGradient>
	<path fill="url(#SVGID_8_)" d="M109.146,104.323c0.953-8.236,0.934-14.636-0.115-14.777c-1.161-0.156-3.143,7.42-4.429,16.925
		c-0.128,0.949-0.245,1.882-0.348,2.791L109.146,104.323z"/>
	
		<linearGradient id="SVGID_9_" gradientUnits="userSpaceOnUse" x1="929.4146" y1="1294.3745" x2="918.7935" y2="1294.3745" gradientTransform="matrix(0.7103 0.7039 -0.7039 0.7103 368.8825 -1463.0544)">
		<stop  offset="0" style="stop-color:#FCF8CC"/>
		<stop  offset="0.3276" style="stop-color:#FDE682"/>
		<stop  offset="0.6488" style="stop-color:#FED540"/>
		<stop  offset="0.8806" style="stop-color:#FFCB18"/>
		<stop  offset="1" style="stop-color:#FFC708"/>
	</linearGradient>
	<path fill="url(#SVGID_9_)" d="M109.151,104.329c8.23-1.026,14.627-1.065,14.778-0.02c0.169,1.161-7.392,3.212-16.882,4.584
		c-0.948,0.136-1.881,0.262-2.788,0.375L109.151,104.329z"/>
	
		<linearGradient id="SVGID_10_" gradientUnits="userSpaceOnUse" x1="2907.8696" y1="1299.1362" x2="2885.8694" y2="1299.1362" gradientTransform="matrix(-0.7103 -0.7039 -0.7039 0.7103 3079.7385 1222.2286)">
		<stop  offset="0" style="stop-color:#FBF5B5"/>
		<stop  offset="0.0236" style="stop-color:#FBF3A7"/>
		<stop  offset="0.1754" style="stop-color:#FCE84E"/>
		<stop  offset="0.282" style="stop-color:#FDE216"/>
		<stop  offset="0.3333" style="stop-color:#FDDF00"/>
		<stop  offset="0.5" style="stop-color:#FFDE00"/>
		<stop  offset="1" style="stop-color:#F58B1F"/>
	</linearGradient>
	<path fill="url(#SVGID_10_)" d="M108.75,89.628l-0.003,0.023c-1.179,0.925-2.958,8.05-4.145,16.818
		c-0.128,0.949-0.245,1.882-0.348,2.791l0.002,0.003c0.909-0.113,1.839-0.237,2.787-0.374c8.748-1.265,15.851-3.105,16.777-4.295
		l0.028-0.004c0,0-3.483,5.6-9.673,9.636c-6.188,4.036-13.732,1.931-15.254,0.421c-1.523-1.509-3.698-9.034,0.278-15.259
		C103.18,93.164,108.75,89.628,108.75,89.628z"/>
	
		<linearGradient id="SVGID_11_" gradientUnits="userSpaceOnUse" x1="2518.7563" y1="1482.0181" x2="2513.7549" y2="1474.3135" gradientTransform="matrix(-0.5445 -0.8388 -0.8388 0.5445 2702.2009 1416.1199)">
		<stop  offset="0" style="stop-color:#FFD002"/>
		<stop  offset="1" style="stop-color:#F9A11B"/>
	</linearGradient>
	<path fill="url(#SVGID_11_)" d="M93.448,115.699c2.682-7.846,4.022-14.103,3.027-14.465c-1.101-0.399-4.648,6.582-7.924,15.597
		c-0.327,0.899-0.638,1.786-0.934,2.654L93.448,115.699z"/>
	
		<linearGradient id="SVGID_12_" gradientUnits="userSpaceOnUse" x1="1314.5757" y1="1477.4604" x2="1303.9546" y2="1477.4604" gradientTransform="matrix(0.5445 0.8388 -0.8388 0.5445 624.2203 -1783.4883)">
		<stop  offset="0" style="stop-color:#FCF8CC"/>
		<stop  offset="0.3276" style="stop-color:#FDE682"/>
		<stop  offset="0.6488" style="stop-color:#FED540"/>
		<stop  offset="0.8806" style="stop-color:#FFCB18"/>
		<stop  offset="1" style="stop-color:#FFC708"/>
	</linearGradient>
	<path fill="url(#SVGID_12_)" d="M93.454,115.705c8.256,0.746,14.517,2.068,14.442,3.123c-0.082,1.168-7.903,1.566-17.47,0.89
		c-0.957-0.067-1.891-0.144-2.806-0.228L93.454,115.705z"/>
	
		<linearGradient id="SVGID_13_" gradientUnits="userSpaceOnUse" x1="2521.6284" y1="1482.23" x2="2501.0037" y2="1482.23" gradientTransform="matrix(-0.5445 -0.8388 -0.8388 0.5445 2702.2009 1416.1208)">
		<stop  offset="0" style="stop-color:#FBF5B5"/>
		<stop  offset="0.0236" style="stop-color:#FBF3A7"/>
		<stop  offset="0.1754" style="stop-color:#FCE84E"/>
		<stop  offset="0.282" style="stop-color:#FDE216"/>
		<stop  offset="0.3333" style="stop-color:#FDDF00"/>
		<stop  offset="0.5" style="stop-color:#FFDE00"/>
		<stop  offset="1" style="stop-color:#F58B1F"/>
	</linearGradient>
	<path fill="url(#SVGID_13_)" d="M96.182,101.256l-0.007,0.021c-1.35,0.653-4.603,7.235-7.624,15.553
		c-0.327,0.899-0.638,1.786-0.934,2.654l0.001,0.003c0.911,0.082,1.849,0.158,2.804,0.226c8.819,0.625,16.149,0.334,17.309-0.63
		l0.026,0.002c0,0-4.594,4.733-11.498,7.361c-6.905,2.628-13.828-1.035-14.997-2.832c-1.166-1.799-1.693-9.613,3.518-14.851
		C89.991,103.526,96.182,101.256,96.182,101.256z"/>
	
		<linearGradient id="SVGID_14_" gradientUnits="userSpaceOnUse" x1="3956.6099" y1="-1042.2461" x2="3945.9888" y2="-1042.2461" gradientTransform="matrix(-0.8637 0.5039 0.5039 0.8637 4052.0645 -1046.0681)">
		<stop  offset="0" style="stop-color:#FFD002"/>
		<stop  offset="1" style="stop-color:#F9A11B"/>
	</linearGradient>
	<path fill="url(#SVGID_14_)" d="M119.615,43.65c-7.71-3.052-13.896-4.689-14.303-3.714c-0.452,1.082,6.352,4.958,15.201,8.66
		c0.882,0.369,1.752,0.723,2.604,1.058L119.615,43.65z"/>
	
		<linearGradient id="SVGID_15_" gradientUnits="userSpaceOnUse" x1="-123.8926" y1="-1046.9653" x2="-123.8926" y2="-1036.343" gradientTransform="matrix(0.8637 -0.5039 0.5039 0.8637 755.7331 877.58)">
		<stop  offset="0" style="stop-color:#FCF8CC"/>
		<stop  offset="0.3276" style="stop-color:#FDE682"/>
		<stop  offset="0.6488" style="stop-color:#FED540"/>
		<stop  offset="0.8806" style="stop-color:#FFCB18"/>
		<stop  offset="1" style="stop-color:#FFC708"/>
	</linearGradient>
	<path fill="url(#SVGID_15_)" d="M119.622,43.646c1.139-8.214,2.756-14.404,3.805-14.28c1.163,0.139,1.19,7.97,0.059,17.495
		c-0.113,0.951-0.232,1.882-0.36,2.79L119.622,43.646z"/>
	
		<linearGradient id="SVGID_16_" gradientUnits="userSpaceOnUse" x1="3945.9829" y1="-1048.5576" x2="3945.9829" y2="-1026.7327" gradientTransform="matrix(-0.8637 0.5039 0.5039 0.8637 4052.0645 -1046.0681)">
		<stop  offset="0" style="stop-color:#FBF5B5"/>
		<stop  offset="0.0236" style="stop-color:#FBF3A7"/>
		<stop  offset="0.1754" style="stop-color:#FCE84E"/>
		<stop  offset="0.282" style="stop-color:#FDE216"/>
		<stop  offset="0.3333" style="stop-color:#FDDF00"/>
		<stop  offset="0.5" style="stop-color:#FFDE00"/>
		<stop  offset="1" style="stop-color:#F58B1F"/>
	</linearGradient>
	<path fill="url(#SVGID_16_)" d="M105.318,40.23l0.021,0.007c0.589,1.38,7.008,4.942,15.174,8.358
		c0.882,0.369,1.752,0.723,2.604,1.058l0.004-0.002c0.126-0.907,0.246-1.837,0.358-2.789c1.046-8.779,1.104-16.113,0.195-17.317
		l0.005-0.028c0,0,4.509,4.814,6.805,11.836c2.296,7.024-1.692,13.766-3.544,14.845c-1.853,1.08-9.683,1.234-14.667-4.22
		C107.291,46.523,105.318,40.23,105.318,40.23z"/>
	
		<linearGradient id="SVGID_17_" gradientUnits="userSpaceOnUse" x1="3824.0845" y1="-1517.5508" x2="3813.3945" y2="-1517.5508" gradientTransform="matrix(-0.726 0.6877 0.6877 0.726 3917.8643 -1494.8867)">
		<stop  offset="0" style="stop-color:#FFD002"/>
		<stop  offset="1" style="stop-color:#F9A11B"/>
	</linearGradient>
	<path fill="url(#SVGID_17_)" d="M106.793,27.253c-8.201-1.213-14.599-1.396-14.772-0.353c-0.194,1.155,7.316,3.376,16.775,4.962
		c0.944,0.158,1.871,0.303,2.778,0.437L106.793,27.253z"/>
	
		<linearGradient id="SVGID_18_" gradientUnits="userSpaceOnUse" x1="7.3647" y1="-1524.4316" x2="7.3647" y2="-1513.4485" gradientTransform="matrix(0.726 -0.6877 0.6877 0.726 1147.7211 1129.129)">
		<stop  offset="0" style="stop-color:#FCF8CC"/>
		<stop  offset="0.3276" style="stop-color:#FDE682"/>
		<stop  offset="0.6488" style="stop-color:#FED540"/>
		<stop  offset="0.8806" style="stop-color:#FFCB18"/>
		<stop  offset="1" style="stop-color:#FFC708"/>
	</linearGradient>
	<path fill="url(#SVGID_18_)" d="M106.798,27.247c-0.765-8.256-0.602-14.653,0.449-14.771c1.165-0.13,2.976,7.489,4.047,17.02
		c0.104,0.952,0.2,1.886,0.286,2.798L106.798,27.247z"/>
	
		<linearGradient id="SVGID_19_" gradientUnits="userSpaceOnUse" x1="3888.1157" y1="21.2275" x2="3872.4041" y2="36.9391" gradientTransform="matrix(-1 0 0 1 3989.0225 0)">
		<stop  offset="0" style="stop-color:#FBF5B5"/>
		<stop  offset="0.0236" style="stop-color:#FBF3A7"/>
		<stop  offset="0.1754" style="stop-color:#FCE84E"/>
		<stop  offset="0.282" style="stop-color:#FDE216"/>
		<stop  offset="0.3333" style="stop-color:#FDDF00"/>
		<stop  offset="0.5" style="stop-color:#FFDE00"/>
		<stop  offset="1" style="stop-color:#F58B1F"/>
	</linearGradient>
	<path fill="url(#SVGID_19_)" d="M92.093,27.185l0.023,0.002c0.888,1.209,7.952,3.212,16.68,4.675
		c0.944,0.158,1.871,0.303,2.778,0.437l0.002-0.001c-0.084-0.913-0.18-1.847-0.286-2.798c-0.985-8.786-2.603-15.941-3.762-16.906
		l-0.002-0.028c0,0,5.486,3.66,9.327,9.973c3.837,6.313,1.491,13.787-0.064,15.263c-1.557,1.474-9.147,3.409-15.241-0.764
		C95.451,32.862,92.093,27.185,92.093,27.185z"/>
	<linearGradient id="SVGID_20_" gradientUnits="userSpaceOnUse" x1="65.5757" y1="119.771" x2="87.068" y2="141.2634">
		<stop  offset="0" style="stop-color:#FFD002"/>
		<stop  offset="1" style="stop-color:#FAA919"/>
	</linearGradient>
	<path fill="url(#SVGID_20_)" d="M61.826,122.076c0,0,19.673,4.753,29.362,14.092c1.218,1.176-4.542,6.536-6.108,4.815
		c-6.239-6.855-11.489-11.177-23.958-16.559C59.726,123.823,61.826,122.076,61.826,122.076z"/>
	<linearGradient id="SVGID_21_" gradientUnits="userSpaceOnUse" x1="29.6572" y1="62.7505" x2="19.0347" y2="62.7505">
		<stop  offset="0" style="stop-color:#FCF8CC"/>
		<stop  offset="0.3276" style="stop-color:#FDE682"/>
		<stop  offset="0.6488" style="stop-color:#FED540"/>
		<stop  offset="0.8806" style="stop-color:#FFCB18"/>
		<stop  offset="1" style="stop-color:#FFC708"/>
	</linearGradient>
	<path fill="url(#SVGID_21_)" d="M19.035,64.511c5.123-6.521,9.641-11.053,10.485-10.416c0.935,0.707-2.99,7.483-8.767,15.138
		c-0.577,0.766-1.151,1.509-1.718,2.23V64.511z"/>
	
		<linearGradient id="SVGID_22_" gradientUnits="userSpaceOnUse" x1="3807.2935" y1="62.7495" x2="3796.6743" y2="62.7495" gradientTransform="matrix(-1 0 0 1 3815.7002 0)">
		<stop  offset="0" style="stop-color:#FFD002"/>
		<stop  offset="1" style="stop-color:#F9A11B"/>
	</linearGradient>
	<path fill="url(#SVGID_22_)" d="M19.027,64.511C13.906,57.99,9.388,53.458,8.545,54.096c-0.936,0.707,2.989,7.483,8.765,15.138
		c0.578,0.766,1.15,1.509,1.717,2.23V64.511z"/>
	<linearGradient id="SVGID_23_" gradientUnits="userSpaceOnUse" x1="9.833" y1="53.5605" x2="28.0274" y2="71.7549">
		<stop  offset="0" style="stop-color:#FBF5B5"/>
		<stop  offset="0.0236" style="stop-color:#FBF3A7"/>
		<stop  offset="0.1754" style="stop-color:#FCE84E"/>
		<stop  offset="0.282" style="stop-color:#FDE216"/>
		<stop  offset="0.3333" style="stop-color:#FDDF00"/>
		<stop  offset="0.5" style="stop-color:#FFDE00"/>
		<stop  offset="1" style="stop-color:#F58B1F"/>
	</linearGradient>
	<path fill="url(#SVGID_23_)" d="M29.662,54.352l-0.015,0.018c0.187,1.489-3.563,7.801-8.894,14.864
		c-0.577,0.766-1.151,1.509-1.718,2.23h-0.003c-0.566-0.721-1.139-1.465-1.717-2.23C11.99,62.178,8.242,55.872,8.42,54.375
		l-0.017-0.022c0,0-1.467,6.43,0.088,13.653c1.556,7.224,8.397,11.037,10.541,11.037c2.144,0,8.985-3.813,10.542-11.037
		C31.129,60.782,29.662,54.352,29.662,54.352z"/>
	<linearGradient id="SVGID_24_" gradientUnits="userSpaceOnUse" x1="27.7603" y1="73.145" x2="23.6998" y2="89.6907">
		<stop  offset="0" style="stop-color:#FCF8CC"/>
		<stop  offset="0.3276" style="stop-color:#FDE682"/>
		<stop  offset="0.6488" style="stop-color:#FED540"/>
		<stop  offset="0.8806" style="stop-color:#FFCB18"/>
		<stop  offset="1" style="stop-color:#FFC708"/>
	</linearGradient>
	<path fill="url(#SVGID_24_)" d="M22.267,86.74c2.299-7.969,4.782-13.865,5.805-13.592c1.133,0.304,0.039,8.058-2.44,17.324
		c-0.248,0.925-0.5,1.83-0.755,2.709L22.267,86.74z"/>
	
		<linearGradient id="SVGID_25_" gradientUnits="userSpaceOnUse" x1="3894.1714" y1="-679.0112" x2="3879.0837" y2="-672.8977" gradientTransform="matrix(-0.9268 0.3755 0.3755 0.9268 3872.6768 -745.9417)">
		<stop  offset="0" style="stop-color:#FFD002"/>
		<stop  offset="1" style="stop-color:#F9A11B"/>
	</linearGradient>
	<path fill="url(#SVGID_25_)" d="M22.26,86.742c-7.196-4.121-13.085-6.625-13.627-5.716c-0.603,1.005,5.582,5.812,13.809,10.738
		c0.823,0.492,1.633,0.967,2.429,1.421L22.26,86.742z"/>
	
		<linearGradient id="SVGID_26_" gradientUnits="userSpaceOnUse" x1="-74.688" y1="-685.9595" x2="-56.2488" y2="-667.5203" gradientTransform="matrix(0.9268 -0.3755 0.3755 0.9268 336.1504 687.6318)">
		<stop  offset="0" style="stop-color:#FBF5B5"/>
		<stop  offset="0.0236" style="stop-color:#FBF3A7"/>
		<stop  offset="0.1754" style="stop-color:#FCE84E"/>
		<stop  offset="0.282" style="stop-color:#FDE216"/>
		<stop  offset="0.3333" style="stop-color:#FDDF00"/>
		<stop  offset="0.5" style="stop-color:#FFDE00"/>
		<stop  offset="1" style="stop-color:#F58B1F"/>
	</linearGradient>
	<path fill="url(#SVGID_26_)" d="M28.299,73.334l-0.006,0.021c0.732,1.31-0.374,8.566-2.661,17.116
		c-0.248,0.925-0.5,1.83-0.755,2.709l-0.002,0.002c-0.796-0.454-1.604-0.929-2.428-1.42C14.86,87.223,9.019,82.786,8.622,81.33
		l-0.025-0.013c0,0,1.055,6.512,5.209,12.619c4.154,6.111,11.927,7.076,13.914,6.271c1.986-0.805,6.895-6.909,5.625-14.187
		C32.075,78.741,28.299,73.334,28.299,73.334z"/>
	
		<linearGradient id="SVGID_27_" gradientUnits="userSpaceOnUse" x1="175.6704" y1="-1412.0508" x2="165.0474" y2="-1412.0508" gradientTransform="matrix(0.7103 -0.7039 0.7039 0.7103 909.2838 1222.2286)">
		<stop  offset="0" style="stop-color:#FFD002"/>
		<stop  offset="1" style="stop-color:#F9A11B"/>
	</linearGradient>
	<path fill="url(#SVGID_27_)" d="M33.814,104.323c-0.952-8.236-0.933-14.636,0.116-14.777c1.161-0.156,3.144,7.42,4.429,16.925
		c0.127,0.949,0.242,1.882,0.348,2.791L33.814,104.323z"/>
	
		<linearGradient id="SVGID_28_" gradientUnits="userSpaceOnUse" x1="3661.269" y1="-1412.8652" x2="3650.6489" y2="-1412.8652" gradientTransform="matrix(-0.7103 0.7039 0.7039 0.7103 3620.1399 -1463.0544)">
		<stop  offset="0" style="stop-color:#FCF8CC"/>
		<stop  offset="0.3276" style="stop-color:#FDE682"/>
		<stop  offset="0.6488" style="stop-color:#FED540"/>
		<stop  offset="0.8806" style="stop-color:#FFCB18"/>
		<stop  offset="1" style="stop-color:#FFC708"/>
	</linearGradient>
	<path fill="url(#SVGID_28_)" d="M33.808,104.329c-8.227-1.026-14.625-1.065-14.776-0.02c-0.168,1.161,7.39,3.212,16.882,4.584
		c0.948,0.136,1.88,0.262,2.788,0.375L33.808,104.329z"/>
	
		<linearGradient id="SVGID_29_" gradientUnits="userSpaceOnUse" x1="165.0444" y1="-1421.5098" x2="165.0444" y2="-1394.601" gradientTransform="matrix(0.7103 -0.7039 0.7039 0.7103 909.2838 1222.2286)">
		<stop  offset="0" style="stop-color:#FBF5B5"/>
		<stop  offset="0.0236" style="stop-color:#FBF3A7"/>
		<stop  offset="0.1754" style="stop-color:#FCE84E"/>
		<stop  offset="0.282" style="stop-color:#FDE216"/>
		<stop  offset="0.3333" style="stop-color:#FDDF00"/>
		<stop  offset="0.5" style="stop-color:#FFDE00"/>
		<stop  offset="1" style="stop-color:#F58B1F"/>
	</linearGradient>
	<path fill="url(#SVGID_29_)" d="M34.211,89.628l0.002,0.023c1.181,0.925,2.96,8.05,4.146,16.818
		c0.127,0.949,0.242,1.882,0.348,2.791l-0.002,0.003c-0.909-0.113-1.839-0.237-2.788-0.374c-8.75-1.265-15.851-3.105-16.777-4.295
		l-0.028-0.004c0,0,3.483,5.6,9.671,9.636c6.19,4.036,13.734,1.931,15.256,0.421c1.522-1.509,3.698-9.034-0.28-15.259
		C39.78,93.164,34.211,89.628,34.211,89.628z"/>
	
		<linearGradient id="SVGID_30_" gradientUnits="userSpaceOnUse" x1="427.6743" y1="-1747.5815" x2="417.0513" y2="-1747.5815" gradientTransform="matrix(0.5445 -0.8388 0.8388 0.5445 1286.8206 1416.1199)">
		<stop  offset="0" style="stop-color:#FFD002"/>
		<stop  offset="1" style="stop-color:#F9A11B"/>
	</linearGradient>
	<path fill="url(#SVGID_30_)" d="M49.512,115.699c-2.68-7.846-4.021-14.103-3.027-14.465c1.101-0.399,4.648,6.582,7.924,15.597
		c0.327,0.899,0.639,1.786,0.934,2.654L49.512,115.699z"/>
	
		<linearGradient id="SVGID_31_" gradientUnits="userSpaceOnUse" x1="3408.6196" y1="-1748.4048" x2="3397.9985" y2="-1748.4048" gradientTransform="matrix(-0.5445 0.8388 0.8388 0.5445 3364.8022 -1783.4883)">
		<stop  offset="0" style="stop-color:#FCF8CC"/>
		<stop  offset="0.3276" style="stop-color:#FDE682"/>
		<stop  offset="0.6488" style="stop-color:#FED540"/>
		<stop  offset="0.8806" style="stop-color:#FFCB18"/>
		<stop  offset="1" style="stop-color:#FFC708"/>
	</linearGradient>
	<path fill="url(#SVGID_31_)" d="M49.508,115.705c-8.258,0.746-14.519,2.068-14.443,3.123c0.082,1.168,7.903,1.566,17.471,0.89
		c0.956-0.067,1.891-0.144,2.804-0.228L49.508,115.705z"/>
	
		<linearGradient id="SVGID_32_" gradientUnits="userSpaceOnUse" x1="417.0474" y1="-1757.0405" x2="417.0474" y2="-1730.1324" gradientTransform="matrix(0.5445 -0.8388 0.8388 0.5445 1286.8206 1416.1208)">
		<stop  offset="0" style="stop-color:#FBF5B5"/>
		<stop  offset="0.0236" style="stop-color:#FBF3A7"/>
		<stop  offset="0.1754" style="stop-color:#FCE84E"/>
		<stop  offset="0.282" style="stop-color:#FDE216"/>
		<stop  offset="0.3333" style="stop-color:#FDDF00"/>
		<stop  offset="0.5" style="stop-color:#FFDE00"/>
		<stop  offset="1" style="stop-color:#F58B1F"/>
	</linearGradient>
	<path fill="url(#SVGID_32_)" d="M46.777,101.256l0.008,0.021c1.35,0.653,4.601,7.235,7.624,15.553
		c0.327,0.899,0.639,1.786,0.934,2.654l-0.002,0.003c-0.912,0.082-1.848,0.158-2.804,0.226c-8.817,0.625-16.148,0.334-17.307-0.63
		l-0.028,0.002c0,0,4.594,4.733,11.5,7.361c6.906,2.628,13.828-1.035,14.997-2.832c1.167-1.799,1.694-9.613-3.517-14.851
		C52.97,103.526,46.777,101.256,46.777,101.256z"/>
	
		<linearGradient id="SVGID_33_" gradientUnits="userSpaceOnUse" x1="634.4097" y1="895.9917" x2="623.7886" y2="895.9917" gradientTransform="matrix(0.8637 0.5039 -0.5039 0.8637 -63.0423 -1046.0681)">
		<stop  offset="0" style="stop-color:#FCF8CC"/>
		<stop  offset="0.3276" style="stop-color:#FDE682"/>
		<stop  offset="0.6488" style="stop-color:#FED540"/>
		<stop  offset="0.8806" style="stop-color:#FFCB18"/>
		<stop  offset="1" style="stop-color:#FFC708"/>
	</linearGradient>
	<path fill="url(#SVGID_33_)" d="M23.346,43.65c7.709-3.052,13.896-4.689,14.303-3.714c0.453,1.082-6.353,4.958-15.201,8.66
		c-0.883,0.369-1.753,0.723-2.605,1.058L23.346,43.65z"/>
	
		<linearGradient id="SVGID_34_" gradientUnits="userSpaceOnUse" x1="3203.6196" y1="895.5601" x2="3192.9976" y2="895.5601" gradientTransform="matrix(-0.8637 -0.5039 -0.5039 0.8637 3233.2893 877.58)">
		<stop  offset="0" style="stop-color:#FFD002"/>
		<stop  offset="1" style="stop-color:#F9A11B"/>
	</linearGradient>
	<path fill="url(#SVGID_34_)" d="M23.339,43.646c-1.137-8.214-2.756-14.404-3.807-14.28c-1.162,0.139-1.188,7.97-0.057,17.495
		c0.114,0.951,0.234,1.882,0.359,2.79L23.339,43.646z"/>
	
		<linearGradient id="SVGID_35_" gradientUnits="userSpaceOnUse" x1="613.5532" y1="899.9409" x2="634.1857" y2="899.9409" gradientTransform="matrix(0.8637 0.5039 -0.5039 0.8637 -63.0423 -1046.0681)">
		<stop  offset="0" style="stop-color:#FBF5B5"/>
		<stop  offset="0.0236" style="stop-color:#FBF3A7"/>
		<stop  offset="0.1754" style="stop-color:#FCE84E"/>
		<stop  offset="0.282" style="stop-color:#FDE216"/>
		<stop  offset="0.3333" style="stop-color:#FDDF00"/>
		<stop  offset="0.5" style="stop-color:#FFDE00"/>
		<stop  offset="1" style="stop-color:#F58B1F"/>
	</linearGradient>
	<path fill="url(#SVGID_35_)" d="M37.642,40.23l-0.021,0.007c-0.59,1.38-7.01,4.942-15.173,8.358
		c-0.883,0.369-1.753,0.723-2.605,1.058l-0.004-0.002c-0.126-0.907-0.246-1.837-0.359-2.789c-1.043-8.779-1.102-16.113-0.195-17.317
		l-0.003-0.028c0,0-4.508,4.814-6.804,11.836c-2.296,7.024,1.691,13.766,3.542,14.845c1.853,1.08,9.683,1.234,14.666-4.22
		C35.669,46.523,37.642,40.23,37.642,40.23z"/>
	
		<linearGradient id="SVGID_36_" gradientUnits="userSpaceOnUse" x1="1031.8647" y1="1127.3657" x2="1021.1748" y2="1127.3657" gradientTransform="matrix(0.726 0.6877 -0.6877 0.726 71.1583 -1494.8867)">
		<stop  offset="0" style="stop-color:#FCF8CC"/>
		<stop  offset="0.3276" style="stop-color:#FDE682"/>
		<stop  offset="0.6488" style="stop-color:#FED540"/>
		<stop  offset="0.8806" style="stop-color:#FFCB18"/>
		<stop  offset="1" style="stop-color:#FFC708"/>
	</linearGradient>
	<path fill="url(#SVGID_36_)" d="M36.167,27.253c8.203-1.213,14.6-1.396,14.774-0.353c0.193,1.155-7.317,3.376-16.775,4.962
		c-0.946,0.158-1.873,0.303-2.779,0.437L36.167,27.253z"/>
	
		<linearGradient id="SVGID_37_" gradientUnits="userSpaceOnUse" x1="2805.2036" y1="1127.3589" x2="2794.2209" y2="1127.3589" gradientTransform="matrix(-0.726 -0.6877 -0.6877 0.726 2841.3013 1129.1281)">
		<stop  offset="0" style="stop-color:#FFD002"/>
		<stop  offset="1" style="stop-color:#F9A11B"/>
	</linearGradient>
	<path fill="url(#SVGID_37_)" d="M36.161,27.247c0.766-8.256,0.603-14.653-0.448-14.771c-1.164-0.13-2.976,7.489-4.047,17.02
		c-0.104,0.952-0.202,1.886-0.286,2.798L36.161,27.247z"/>
	<linearGradient id="SVGID_38_" gradientUnits="userSpaceOnUse" x1="27.208" y1="21.1816" x2="42.4235" y2="36.3971">
		<stop  offset="0" style="stop-color:#FBF5B5"/>
		<stop  offset="0.0236" style="stop-color:#FBF3A7"/>
		<stop  offset="0.1754" style="stop-color:#FCE84E"/>
		<stop  offset="0.282" style="stop-color:#FDE216"/>
		<stop  offset="0.3333" style="stop-color:#FDDF00"/>
		<stop  offset="0.5" style="stop-color:#FFDE00"/>
		<stop  offset="1" style="stop-color:#F58B1F"/>
	</linearGradient>
	<path fill="url(#SVGID_38_)" d="M50.866,27.185l-0.021,0.002c-0.889,1.209-7.953,3.212-16.679,4.675
		c-0.946,0.158-1.873,0.303-2.779,0.437l-0.003-0.001c0.084-0.913,0.179-1.847,0.286-2.798c0.986-8.786,2.602-15.941,3.762-16.906
		l0.001-0.028c0,0-5.486,3.66-9.325,9.973c-3.837,6.313-1.493,13.787,0.064,15.263c1.556,1.474,9.145,3.409,15.241-0.764
		C47.51,32.862,50.866,27.185,50.866,27.185z"/>
</g>
</svg>
