<?xml version="1.0" encoding="utf-8"?>
<!-- Generator: Adobe Illustrator 16.0.0, SVG Export Plug-In . SVG Version: 6.00 Build 0)  -->
<!DOCTYPE svg PUBLIC "-//W3C//DTD SVG 1.1//EN" "http://www.w3.org/Graphics/SVG/1.1/DTD/svg11.dtd">
<svg version="1.1" id="Layer_1" xmlns="http://www.w3.org/2000/svg" xmlns:xlink="http://www.w3.org/1999/xlink" x="0px" y="0px"
	 width="141.7px" height="141.7px" viewBox="0 0 141.7 141.7" enable-background="new 0 0 141.7 141.7" xml:space="preserve">
<g>
	<g>
		<g>
			<polygon fill="#FFFFFF" points="32.579,71.809 71.227,6.2 109.86,71.809 71.227,137.427 			"/>
			<path fill="#231F20" d="M71.226,11.132l35.729,60.677l-35.729,60.686L35.484,71.809L71.226,11.132 M71.227,1.268l-4.314,7.324
				L31.17,69.269l-1.496,2.541l1.496,2.54l35.742,60.686l4.314,7.325l4.313-7.325l35.729-60.686l1.496-2.54l-1.496-2.54L75.54,8.592
				L71.227,1.268L71.227,1.268z"/>
		</g>
	</g>
	<g>
		<rect x="66.927" y="35.618" fill="#231F20" width="8.372" height="72.392"/>
	</g>
	<g>
		<rect x="82.622" y="53.195" fill="#231F20" width="8.372" height="37.238"/>
	</g>
	<g>
		<rect x="52.657" y="53.195" fill="#231F20" width="8.373" height="37.238"/>
	</g>
</g>
</svg>
