<?xml version="1.0" encoding="utf-8"?>
<!-- Generator: Adobe Illustrator 16.0.0, SVG Export Plug-In . SVG Version: 6.00 Build 0)  -->
<!DOCTYPE svg PUBLIC "-//W3C//DTD SVG 1.1//EN" "http://www.w3.org/Graphics/SVG/1.1/DTD/svg11.dtd">
<svg version="1.1" id="Layer_1" xmlns="http://www.w3.org/2000/svg" xmlns:xlink="http://www.w3.org/1999/xlink" x="0px" y="0px"
	 width="141.7px" height="141.7px" viewBox="0 0 141.7 141.7" enable-background="new 0 0 141.7 141.7" xml:space="preserve">
<g>
	<g>
		<path fill="#FFFFFF" d="M71.106,80.371c-1.191-0.004-2.36-0.237-3.476-0.695c-2.731-1.126-4.681-3.436-5.363-6.19h-0.271
			l-0.039-2.277c0.003-1.19,0.237-2.361,0.697-3.48c1.122-2.721,3.436-4.674,6.19-5.359v-0.277l2.282-0.034
			c1.192,0.004,2.362,0.239,3.476,0.697c2.729,1.124,4.679,3.433,5.36,6.189h0.276l0.034,2.283c-0.005,1.193-0.24,2.362-0.698,3.476
			c-1.12,2.72-3.434,4.674-6.188,5.357v0.274L71.106,80.371z"/>
		<path fill="#231F20" d="M71.119,64.33c0.872,0.003,1.759,0.172,2.619,0.526c2.658,1.095,4.249,3.664,4.219,6.361h0.045
			c-0.004,0.872-0.173,1.759-0.527,2.621c-1.083,2.63-3.614,4.218-6.28,4.218c-0.026,0-0.053-0.001-0.08-0.001v0.044
			c-0.873-0.003-1.759-0.172-2.622-0.525c-2.656-1.096-4.249-3.665-4.218-6.36h-0.043c0.002-0.873,0.172-1.76,0.526-2.622
			c1.085-2.631,3.616-4.218,6.285-4.218c0.025,0,0.05,0,0.076,0V64.33 M66.573,59.766v0.975c-2.673,1.145-4.856,3.303-6.018,6.117
			c-0.575,1.399-0.866,2.859-0.87,4.345l-0.01,4.556h0.962c1.142,2.672,3.297,4.852,6.121,6.017c1.397,0.572,2.854,0.863,4.34,0.868
			l4.561,0.016v-0.971c2.674-1.145,4.857-3.304,6.018-6.12c0.57-1.386,0.863-2.843,0.869-4.331l0.021-4.566h-0.974
			c-1.142-2.674-3.3-4.855-6.125-6.019c-1.387-0.571-2.844-0.863-4.332-0.869L66.573,59.766L66.573,59.766z"/>
	</g>
	<g>
		<path fill="#FFFFFF" d="M63.547,131.812v-16.637c-3.237-0.564-6.402-1.479-9.434-2.726c-14.006-5.774-24.09-18.329-26.709-33.067
			H11.115V64.244H27.05c0.552-3.434,1.502-6.801,2.833-10.034c5.865-14.235,18.647-24.362,33.665-26.823V11.813h15.138v15.438
			c3.232,0.563,6.397,1.479,9.434,2.729c14.253,5.871,24.382,18.657,26.83,33.674h0.835l-0.002,0.589h15.333v15.138h-16.14
			c-0.569,3.018-1.451,5.982-2.628,8.839c-5.865,14.232-18.646,24.357-33.662,26.817v16.773H63.547z M42.915,79.382
			c2.365,8.587,8.552,15.602,16.964,19.068c1.181,0.487,2.408,0.9,3.669,1.235V87.809h15.138v11.773
			c8.867-2.238,16.107-8.49,19.667-17.13c0.412-1,0.771-2.026,1.073-3.07H87.112V64.244h12.53
			c-2.089-9.142-8.403-16.607-17.288-20.267c-1.184-0.488-2.411-0.901-3.669-1.236v13.076H63.547V42.842
			c-8.868,2.239-16.108,8.492-19.668,17.133c-0.568,1.38-1.034,2.808-1.392,4.269h12.633v15.138H42.915z"/>
		<path fill="#231F20" d="M76.413,14.086v15.119c3.698,0.477,7.329,1.431,10.841,2.877c14.305,5.893,23.981,18.837,25.718,33.845
			h0.532l-0.002,0.589h15.341V77.11h-15.793c-0.501,3.494-1.435,6.923-2.804,10.245c-5.875,14.257-18.841,23.959-33.833,25.708
			v16.477H65.82v-16.317c-3.704-0.479-7.334-1.431-10.842-2.874c-14.111-5.818-23.7-18.496-25.625-33.238H13.388V66.517h15.643
			c0.448-3.906,1.43-7.74,2.954-11.442c5.875-14.26,18.841-23.963,33.836-25.713V14.086H76.413 M65.82,53.545V40.06
			c-10.671,1.682-19.813,8.783-24.042,19.049c-0.992,2.408-1.67,4.887-2.057,7.408h13.127V77.11H40.075
			c1.841,10.413,8.835,19.278,18.938,23.442c2.213,0.913,4.491,1.554,6.808,1.955V90.082h10.592v12.283
			c10.669-1.681,19.812-8.781,24.041-19.046c0.834-2.026,1.448-4.1,1.855-6.209H89.384V66.517h12.979
			c-1.497-10.933-8.654-20.32-19.145-24.641c-2.216-0.913-4.493-1.556-6.807-1.957v13.626H65.82 M80.958,9.541h-4.546H65.82h-4.545
			v4.545v11.411c-14.962,3.103-27.577,13.486-33.493,27.846c-1.15,2.794-2.029,5.683-2.628,8.628H13.388H8.843v4.545V77.11v4.545
			h4.545H25.54c3.248,14.684,13.58,27.071,27.706,32.896c2.596,1.068,5.284,1.903,8.029,2.497v12.492v4.545h4.545h10.592h4.546
			v-4.545v-12.611c14.961-3.103,27.573-13.484,33.489-27.842c0.995-2.413,1.788-4.9,2.372-7.432h12.022h4.545V77.11V66.517v-4.545
			h-4.545h-10.78l0.002-0.589h-1.225c-3.092-14.962-13.479-27.581-27.854-33.502c-2.598-1.07-5.285-1.906-8.026-2.5V14.086V9.541
			L80.958,9.541z M61.275,58.09h4.545h10.592h4.546v-4.545v-7.678c0.177,0.068,0.354,0.139,0.529,0.211
			c7.271,2.995,12.673,8.749,15.143,15.893h-7.246h-4.546v4.545V77.11v4.545h4.546h6.839c-2.901,6.99-8.418,12.276-15.265,14.841
			v-6.414v-4.546h-4.546H65.82h-4.545v4.546v6.48c-0.178-0.069-0.354-0.14-0.529-0.212c-6.793-2.8-12.011-8.105-14.667-14.695h6.77
			h4.545V77.11V66.517v-4.545h-4.545h-7.304c0.137-0.381,0.283-0.758,0.437-1.131c2.894-7.024,8.425-12.337,15.294-14.911v7.615
			V58.09L61.275,58.09z"/>
	</g>
</g>
</svg>
