<?xml version="1.0" encoding="utf-8"?>
<!-- Generator: Adobe Illustrator 25.0.0, SVG Export Plug-In . SVG Version: 6.00 Build 0)  -->
<svg version="1.1" id="Layer_1" xmlns="http://www.w3.org/2000/svg" xmlns:xlink="http://www.w3.org/1999/xlink" x="0px" y="0px"
	 viewBox="0 0 141.7 141.7" style="enable-background:new 0 0 141.7 141.7;" xml:space="preserve">
<style type="text/css">
	.st0{fill:#FFFFFF;}
	.st1{fill:#1D1D1B;}
</style>
<g>
	<path class="st0" d="M99.6,45.7C99.6,29.8,86.8,17,71,17S42.4,29.8,42.4,45.7l0,80l57.2,0.1L99.6,45.7L99.6,45.7z"/>
	<path class="st1" d="M71,17c15.8,0,28.6,12.8,28.6,28.7h0l0,80.1l-57.2-0.1l0-80C42.4,29.8,55.2,17,71,17 M71,12.5
		c-8.9,0-17.2,3.5-23.4,9.7c-6.2,6.3-9.7,14.6-9.6,23.5l0,80l0,4.5l4.5,0l57.2,0.1l4.5,0l0-4.5l0-75.6h0l0-4.5
		C104.1,27.4,89.2,12.5,71,12.5L71,12.5z"/>
	<g>
		<path class="st1" d="M89.1,115.3l-36.3-0.1l0-69.6h0c0-10.1,8.1-18.1,18.1-18.1c10,0,18.1,8.1,18.2,18.2L89.1,115.3z"/>
	</g>
</g>
</svg>
