<?xml version="1.0" encoding="utf-8"?>
<!-- Generator: Adobe Illustrator 16.0.0, SVG Export Plug-In . SVG Version: 6.00 Build 0)  -->
<!DOCTYPE svg PUBLIC "-//W3C//DTD SVG 1.1//EN" "http://www.w3.org/Graphics/SVG/1.1/DTD/svg11.dtd">
<svg version="1.1" id="Layer_1" xmlns="http://www.w3.org/2000/svg" xmlns:xlink="http://www.w3.org/1999/xlink" x="0px" y="0px"
	 width="141.7px" height="141.7px" viewBox="0 0 141.7 141.7" enable-background="new 0 0 141.7 141.7" xml:space="preserve">
<g>
	<g>
		<polygon fill="#FFFFFF" points="32.742,71.809 71.388,6.2 110.024,71.809 71.388,137.427 		"/>
		<path fill="#231F20" d="M71.388,11.132l35.731,60.677l-35.731,60.686L35.647,71.809L71.388,11.132 M71.389,1.268l-4.314,7.324
			L31.333,69.269l-1.496,2.541l1.496,2.54l35.741,60.686l4.314,7.325l4.313-7.325l35.731-60.686l1.496-2.54l-1.496-2.54
			L75.702,8.592L71.389,1.268L71.389,1.268z"/>
	</g>
</g>
<g>
	<polygon fill="#231F20" points="49.671,71.809 71.385,34.942 93.095,71.809 71.385,108.684 	"/>
</g>
<g>
	<rect x="32.914" y="63.1" fill="#FFFFFF" width="76.936" height="17.429"/>
	<path fill="#231F20" d="M107.578,65.373v12.884H35.187V65.373H107.578 M112.124,60.827h-4.546H35.187h-4.545v4.545v12.884v4.546
		h4.545h72.391h4.546v-4.546V65.373V60.827L112.124,60.827z"/>
</g>
</svg>
