<?xml version="1.0" encoding="utf-8"?>
<!-- Generator: Adobe Illustrator 16.0.0, SVG Export Plug-In . SVG Version: 6.00 Build 0)  -->
<!DOCTYPE svg PUBLIC "-//W3C//DTD SVG 1.1//EN" "http://www.w3.org/Graphics/SVG/1.1/DTD/svg11.dtd">
<svg version="1.1" id="Layer_1" xmlns="http://www.w3.org/2000/svg" xmlns:xlink="http://www.w3.org/1999/xlink" x="0px" y="0px"
	 width="141.7px" height="141.7px" viewBox="0 0 141.7 141.7" enable-background="new 0 0 141.7 141.7" xml:space="preserve">
<g>
	<g>
		<polygon fill="#FFFFFF" points="32.598,71.809 71.245,6.2 109.878,71.809 71.245,137.427 		"/>
		<path fill="#231F20" d="M71.245,11.132l35.729,60.677l-35.729,60.686L35.502,71.809L71.245,11.132 M71.246,1.268l-4.314,7.324
			L31.189,69.269l-1.496,2.541l1.496,2.54l35.742,60.686l4.314,7.325l4.313-7.325l35.729-60.686l1.496-2.54l-1.496-2.54
			L75.558,8.592L71.246,1.268L71.246,1.268z"/>
	</g>
</g>
<g>
	<polygon fill="#231F20" points="49.526,71.809 71.241,34.942 92.951,71.809 71.241,108.684 	"/>
</g>
<g>
	<g>
		<rect x="32.77" y="54.349" fill="#FFFFFF" width="76.936" height="17.43"/>
		<path fill="#231F20" d="M107.433,56.622v12.885H35.042V56.622H107.433 M111.979,52.076h-4.546H35.042h-4.545v4.545v12.885v4.546
			h4.545h72.391h4.546v-4.546V56.622V52.076L111.979,52.076z"/>
	</g>
	<g>
		<rect x="32.77" y="71.849" fill="#FFFFFF" width="76.936" height="17.428"/>
		<path fill="#231F20" d="M107.433,74.122v12.883H35.042V74.122H107.433 M111.979,69.576h-4.546H35.042h-4.545v4.545v12.883v4.546
			h4.545h72.391h4.546v-4.546V74.122V69.576L111.979,69.576z"/>
	</g>
</g>
</svg>
