<?xml version="1.0" encoding="UTF-8"?>
<svg id="Layer_2" data-name="Layer 2" xmlns="http://www.w3.org/2000/svg" viewBox="0 0 440.04 5">
  <defs>
    <style>
      .cls-1 {
        fill: #c12a2a;
        fill-rule: evenodd;
      }
    </style>
  </defs>
  <g id="Layer_1-2" data-name="Layer 1">
    <g>
      <path class="cls-1" d="M440,5h-165c0-.88-.05-1.76-.17-2.63-.04-.34-.98-.63-1.76-.6-2.36,.11-4.71,.23-7.04,.41-.74,.06-1.64,.21-1.52,.75,.29,.01,.59,.03,.9,.04h0s0,0,0,0h0s0,0,0,0h0c.61,.03,1.23,.06,1.85,.09,.14,0,.28,.01,.42,.02,.54,.02,1.09,.03,1.4,.27,.3,.24-.72,.68-1.86,.74-.67,.03-1.55,.06-2.02-.07-1.07-.31-2.17-.22-3.19-.15-.37,.03-.72,.06-1.07,.06-.12-.06-.23-.1-.33-.14-.18-.07-.31-.12-.36-.19-.78-1-2.34-1.47-5.07-1.18-.14,.01-.28,.02-.42,.03-2.05,.04-2.79-.12-3.63-.83-.25-.21-.47-.42-.71-.66h0c-.1-.1-.19-.19-.3-.29h0c-1.79,.03-2.66,.05-3.52-.04-.81-.08-1.62-.24-3.18-.56h-.03c-.12-.03-.26-.05-.39-.07-.6-.04-1.17,.02-1.35,.25-.1,.12,.1,.36,.34,.41,.69,.15,1.42,.27,2.15,.39h0s0,0,0,0h0c.3,.05,.6,.1,.9,.15,.94,.16,1.66,.41,1.98,.81,.32,.4,.16,.75-.63,1.05-.75,.29-1.52,.44-2.63,.29-2.86-.36-2.85-.35-2.64,.79h0c.03,.18-.01,.36-.06,.53-.02,.1-.05,.21-.06,.31h-14.87s.01-.04,.01-.06c.22-1.64,.32-3.29,.35-4.94h149.45c.48,.29,.97,.57,1.46,.85,1.02,.57,2.26,.56,3.21,0,.45-.27,.88-.54,1.37-.85h1.91c.12,.07,.25,.14,.37,.21h0s0,0,0,0c.75,.44,1.41,.83,2.11,1.19,1.81,.97,3.33,.92,4.51-.09,.34-.28,.64-.57,1-.91,.14-.13,.28-.26,.44-.41h.26c.4,.14,.79,.26,1.16,.38,.82,.26,1.55,.49,2.17,.78,1.5,.69,3.05,1.1,4.8,1.03,6.15-.22,12.18,.86,18.21,2.19,.23,.05,.46,.11,.68,.16,.39,.1,.77,.19,1.17,.26,1.54,.29,3.02-.12,3.14-.89,.06-.29,.04-.58,.03-.88-.02-.34-.03-.69,.05-1.01v-.02c.39-1.32,.54-1.83-.49-2h16.51"/>
      <path class="cls-1" d="M146.16,0h-60.18c.12,.13,.19,.26,.2,.38,.15,1.54,.25,3.08,.26,4.62h74.13c-.24-.41-.8-.79-1.75-1.14-1.78-.66-3.6-1-6.23-.63-6.75,.91-6.75,.88-6.27-1.8v-.02c.07-.41-.03-.82-.14-1.24h0c-.01-.05-.03-.11-.04-.16Z"/>
      <path class="cls-1" d="M186.89,5h15.55c-.54-.26-.85-.63-.74-1.18,.71-.04,1.43-.08,2.16-.13h0c1.44-.08,2.92-.17,4.39-.25,.32-.02,.65-.03,.98-.05,1.28-.05,2.57-.09,3.31-.67,.7-.57-1.71-1.58-4.42-1.7-1.59-.06-3.67-.12-4.78,.21-2.53,.75-5.12,.57-7.54,.41-.87-.06-1.71-.12-2.52-.13-.28,.13-.55,.24-.77,.33-.42,.17-.72,.3-.84,.45-.99,1.29-2.54,2.22-4.78,2.7Z"/>
      <path class="cls-1" d="M77.51,5s.02-.02,.03-.03c.41-.5-1.21-1.2-2.96-1.15-1.03,.03-2.37,.09-3.06,.41-1.58,.74-3.26,.73-4.83,.72-.56,0-1.11,0-1.63,.03-.01,.01-.03,.02-.04,.03h12.49Z"/>
      <path class="cls-1" d="M34.6,5c.34-.61,1.47-1.1,2.76-1.16,.4-.02,.8-.02,1.2-.01h0c.23,0,.47,0,.7,0,6.18-.07,12.3-.38,18.24-1.98,1.7-.47,3.29-.41,4.91-.08,.67,.14,1.43,.2,2.29,.27,.45,.04,.92,.07,1.42,.12,.14-.21,.27-.4,.39-.58h0s0,0,0,0c.27-.41,.51-.76,.77-1.11,.13-.18,.27-.34,.42-.48H0V6.5c0-.93,.37-1.91,.92-2.05,.58-.16,1.14-.38,1.71-.59h0c1.41-.53,2.82-1.06,4.33-.79,1.77,.32,3.52,.83,5.26,1.35,.37,.1,.74,.31,1.07,.58h21.3Z"/>
      <path class="cls-1" d="M73.8,0c.06,.02,.12,.04,.18,.06h0c.47,.14,.96,.3,1.51,.46l.23-.24h0s0,0,0,0h0s0,0,0,0c.09-.1,.19-.19,.27-.28h-2.2Z"/>
    </g>
  </g>
</svg>