<?xml version="1.0" encoding="UTF-8"?>
<svg id="Layer_2" data-name="Layer 2" xmlns="http://www.w3.org/2000/svg" viewBox="0 0 5 445">
  <defs>
    <style>
      .cls-1 {
        fill: #c12a2a;
        fill-rule: evenodd;
      }
    </style>
  </defs>
  <g id="Layer_1-2" data-name="Layer 1">
    <g>
      <path class="cls-1" d="M.04,0H5V26c-1.71,0-3.36,.32-5,.71V5"/>
      <path class="cls-1" d="M0,440v-7.88c1.21-1.62,2.86-2.63,5-2.63v15.5H.07"/>
      <path class="cls-1" d="M5,422.65c-1.66-.42-3.33-.81-5-1.14v-132.67c.08,1.27,.15,2.53,.24,3.77l.04,.62c.17,2.52,.34,5.12,.63,7.22,.1,.68,.17,1.56,.24,2.44h0c.18,2.23,.38,4.52,.96,4.03,.47-.39,.57-2.58,.67-4.73h0c.04-.84,.08-1.67,.14-2.39,.36-4.3,.9-6.03,1.81-5.06,.09,.09,.18,.16,.27,.21v127.68Z"/>
      <path class="cls-1" d="M5,279.43v-24.91c-.23-.06-.45-.15-.68-.24-.33-.13-.66-.27-.99-.3-.48-.04-.96,2.42-.92,4.95,.04,2.46,.16,4.99,.36,7.23,.2,2.25,.44,4.4,.7,6.61h0s0,.02,0,.02c.11,.97,.22,1.94,.33,2.95l.32,.98c.31,.95,.6,1.86,.88,2.73Z"/>
      <path class="cls-1" d="M5,246.03v-4.2c-.16,1.59-.17,2.73,0,4.2Z"/>
      <path class="cls-1" d="M5,229.45v-24.51c-.06,.08-.12,.16-.18,.24-1.04,1.29-1.86,2.88-2.49,4.77-.31,.92-.64,1.83-1.01,2.7-.21,.49-.51,1.14-.79,1.29-.19,.1-.36,.22-.52,.36v59.01c.17,.21,.34,.48,.52,.79,.57,.98,1.13-1.34,1.15-4.59,.01-2.55-.07-5.12-.15-7.67v-.05c-.01-.3-.02-.59-.03-.88-.03-1.17-.09-2.34-.14-3.51-.09-2.03-.18-4.05-.18-6.07,.01-3.43-.08-6.21-.42-9.28-.49-4.48-.01-8.67,.96-9.68l.03-.03s.05-.04,.07-.07c.24-.24,.51-.5,.72-.12,1,1.78,1.79,.47,2.47-2.7Z"/>
      <path class="cls-1" d="M0,210.75c.42-.04,.89-.81,.88-1.53,0-.27-.04-.53-.07-.79H.81c-.02-.19-.05-.37-.06-.56-.09-1.36,.02-1.86,.87-2.66,.66-.63,.89-1.41,.9-2.47,0-.21,0-.42-.02-.63-.03-.64-.06-1.29,.23-2.09,.82-.66,1.58-1.67,2.13-3.21,.04-.12,.09-.23,.14-.35V122.12c-.35,.08-.7,.29-1.01,.61-.32,.32-.62,.7-.92,1.1h0s-.11,.14-.11,.14c-.04,.06-.09,.11-.13,.16l-.04,.05-.05,.06-.05,.06-.04,.06-.13,.51c-.28,1.07-.53,2-.78,2.93-.06,.21-.12,.42-.18,.62-.1,.33-.2,.65-.27,1-.15,.67-.2,1.38,.08,2.04,.1,.24,.19,.5,.27,.78v.02c.12,.46,.27,1.03-.03,1.33-.2,.19-.52,.17-.74,0-.43-.3-.74-.96-.65-1.91,.13-1.27,.04-2.43-.18-3.65-.02-.09-.03-.19-.04-.28v40.47s.08,.05,.12,.07c.44,.26,.91,.37,1.37-.04,.16-.15,.34-.28,.53-.38h.02c.31-.17,.7-.37,.89,.1,.12,.32,.09,.81-.03,1.15-.22,.65-.67,1.11-1.3,.93-.55-.17-1.07-.19-1.6-.1v40.79Z"/>
      <path class="cls-1" d="M0,119.23l.07-.06c.37-.29,.76-.55,1.14-.8h0s0,0,0,0l.1-.07,.08-.05c.1-.06,.19-.13,.29-.19,0-.08,.02-.16,.03-.23,.01-.12,.02-.23,.04-.35h0c.05-.48,.1-.92,.18-1.32,.04-.23,.22-.49,.34-.48,.13,0,.3,.23,.38,.47,.34,1.05,.28,2.13,.11,3.28-.12,.86,.24,1.68,.71,1.67,.37,0,.73-.15,1.1-.29,.05-.02,.09-.03,.13-.05,.1-.04,.2-.09,.31-.14v-9.19c-.6,.18-1.19,.33-1.79,.46-.32,.07-.7-.52-.74-1.09-.13-1.74-.26-3.48-.34-5.22-.02-.55,.03-1.25,.55-1.33,.04,.21,.09,.43,.14,.65,.09,.43,.18,.87,.27,1.31,.02,.1,.04,.2,.06,.3,.07,.39,.14,.78,.4,.93,.25,.14,.56-.72,.5-1.57-.04-.5-.1-1.14-.27-1.44-.4-.68-.43-1.5-.46-2.26-.01-.27-.02-.54-.05-.79-.06-.07-.12-.14-.16-.19-.09-.11-.15-.18-.21-.2-1.02-.26-1.62-1.24-1.63-3.3,0-.1,0-.21-.02-.31-.17-1.5-.4-1.98-1.15-2.38-.03-.02-.07-.03-.1-.05v24.3Z"/>
      <path class="cls-1" d="M0,91.86s.03,.01,.05,.02c.41,.11,.72-.11,.92-.78,.19-.63,.26-1.23,0-1.99-.63-1.96-.62-1.96,.47-2.15h0c.17-.03,.33-.12,.49-.2,.14-.07,.28-.15,.42-.18,.38-.12,.77,.45,.84,1.21,.02,.19,.03,.39,.03,.58,0,.11,0,.23,.01,.34,.17,2.99,.46,5.93,1.38,8.63,.27,.77,.28,1.55,.15,2.38-.06,.34-.07,.72-.08,1.14,0,.22-.01,.46-.03,.71,.05,.02,.11,.04,.15,.06,.05,.02,.09,.04,.14,.06,.01,0,.02,0,.03,.01V41.39s0,.02-.01,.02c-.51,.98-1.68,1.98-2.89,2.43-.79,.29-1.49,.15-2.09-.18v48.2Z"/>
      <path class="cls-1" d="M5,201.15c-.02,.26-.02,.5,0,.72v-.72Z"/>
    </g>
  </g>
</svg>