<?xml version="1.0" encoding="UTF-8"?>
<svg id="Layer_2" data-name="Layer 2" xmlns="http://www.w3.org/2000/svg" viewBox="0 0 426.2 5">
  <defs>
    <style>
      .cls-1 {
        fill: #c12a2a;
        fill-rule: evenodd;
      }
    </style>
  </defs>
  <g id="Layer_1-2" data-name="Layer 1">
    <g>
      <path class="cls-1" d="M1.95,0c-.11,.99-.27,1.96-.63,2.84-.29,.74-.75,1.5-1.32,2.16H49.89c.1-.12,.22-.23,.33-.28,.27-.11,.44,.04,.54,.28h2.68c-.08-.84,.05-1.17,.87-1.68,.66-.41,.89-.93,.9-1.63,0-.14,0-.28-.02-.42-.03-.39-.05-.8,.18-1.28H1.95Z"/>
      <path class="cls-1" d="M58.04,0c-.06,.04-.12,.08-.17,.11l-.04,.03c-.36,1.03,.03,1.56,.47,2.15l.06,.08s.05,.06,.07,.09c-.13,.12-.24,.22-.34,.32h0c-.22,.21-.39,.37-.56,.51-.61,.5-1.15,1.07-1.61,1.7h94.67c0-.25-.07-.5-.14-.76-.08-.28-.16-.56-.13-.84,.04-.75,2.23-1.28,4.65-1.17,.62,.02,1.24,.08,1.85,.13h0c.36,.03,.72,.06,1.08,.08,9.53,.64,19.01,1.05,28.41,.21,2.69-.25,5.14-.02,7.58,.49,1.01,.21,2.18,.36,3.48,.52,.69,.08,1.41,.17,2.17,.28,.25-.18,.47-.34,.68-.5h0s0,0,0,0c.49-.36,.9-.66,1.36-.96,1.61-1.09,3.95-1.28,6.92-.55,1.15,.28,2.24,.58,3.48,.92h0c.69,.19,1.43,.39,2.25,.61l.39-.2c1.08-.55,1.93-.98,2.82-1.4,1.35-.63,3.25-.77,4.94-.33,2.32,.62,4.58,1.25,6.67,1.93,.85,.29,1.68,.73,1.67,1.09,0,.15,0,.3,0,.45h182.23c-.12-.19-.24-.39-.37-.59h0c-.29-.48-.61-.99-.96-1.55l.12-.51c.2-.82,.39-1.6,.57-2.35H106.84s.01,.02,.02,.02l.32,.14h0s.03,.02,.03,.02c.68,.31,1.27,.58,1.86,.85,.14,.06,.27,.13,.4,.2h0c.21,.11,.42,.21,.65,.3,.44,.17,.9,.24,1.35-.03,.16-.09,.34-.18,.53-.24h.01c.31-.11,.69-.24,.88,.06,.12,.2,.09,.52-.03,.74-.22,.42-.66,.71-1.28,.59-.83-.17-1.6-.11-2.41,.08-.44,.1-.96,.1-1.41,.04-.9-.14-1.43,.11-1.78,.73-.06,.1-.1,.22-.14,.34-.1,.31-.2,.63-.66,.68-.58,.07-.77-.26-.95-.58-.07-.13-.14-.25-.24-.35-.29-.3-.46-.68-.62-1.04l-.04-.09c-.18-.38-.33-.77-.48-1.16h0c-.06-.16-.12-.32-.19-.48-.13-.03-.26-.05-.38-.08h0c-.32-.06-.6-.12-.86-.21-.15-.05-.31-.24-.3-.35,0-.06,.03-.12,.08-.18H58.04Z"/>
      <path class="cls-1" d="M426.2,5h-3.61c.25-.94,.35-1.95,.45-2.96,.07-.69,.13-1.37,.25-2.04h2.84"/>
    </g>
  </g>
</svg>