<?xml version="1.0" encoding="UTF-8"?>
<svg id="Layer_2" data-name="Layer 2" xmlns="http://www.w3.org/2000/svg" viewBox="0 0 5 438.49">
  <defs>
    <style>
      .cls-1 {
        fill: rgba(4, 16, 32, 1);
        fill-rule: evenodd;
      }
    </style>
  </defs>
  <g id="Layer_1-2" data-name="Layer 1">
    <g>
      <path class="cls-1" d="M5,11.04c-.15,.13-.31,.24-.47,.33-.87,.47-1.52-.42-2.02-1.22-.29-.47-.55-.95-.89-1.54h0s0,0,0,0h0c-.14-.25-.28-.51-.45-.8l.06-.26c.22-1.01,.41-1.87,.61-2.79-.17-.38-.35-.77-.53-1.15h0s0,0,0,0C.91,2.73,.49,1.85,.15,.93,.05,.65,0,.33,0,0V55.37s.03,.04,.05,.06c.29,.3,.46,.68,.62,1.04h0s.04,.09,.04,.09c.18,.38,.33,.77,.48,1.16,.06,.16,.12,.32,.19,.48,.13,.03,.26,.05,.38,.08,.32,.06,.6,.12,.86,.21,.15,.05,.31,.23,.3,.35,0,.13-.17,.3-.32,.36-.7,.31-1.41,.22-2.16,.03-.15-.04-.3-.04-.44-.02v4.3c.06,.11,.12,.22,.21,.33,.33,.44,.21,.87-.21,1.14v9.72c.13-.15,.27-.27,.4-.31,.94-.32,1.56-1.06,2.15-1.92,.06-.09,.14-.16,.23-.24h0s.03-.03,.05-.04c.33-.31,.86-.25,1,.13,.08,.21,.12,.46,.13,.7,.03,.58-.18,1.14-.45,1.71-.65,1.38-.64,1.39,.14,2.19l.02,.02s.06,.06,.1,.09h0s0,0,0,0h0c.09,.08,.17,.16,.23,.25,.17,.26,.12,.6-.06,.9-.13,.22-.33,.47-.52,.55-.32,.13-.5-.11-.59-.41-.03-.09-.05-.17-.07-.26-.04-.14-.07-.28-.12-.41-.3-.74-.88-1.07-1.61-1.15-.44-.05-.98,.49-.97,1,0,.18,.04,.35,.07,.52,.02,.12,.05,.25,.06,.37,.06,.54,.04,.88-.18,1.18v23.88c.63,.06,1.24,0,1.88-.15,.44-.1,.96-.11,1.41-.04,.84,.13,1.36-.08,1.72-.62V11.04Z"/>
      <path class="cls-1" d="M5,109.08c-.11,.04-.22,.06-.34,.06-.33,0-.65-.02-.98-.04-.35-.02-.7-.04-1.06-.04-.16,0-.4,.14-.45,.25-.05,.11,.04,.3,.14,.41,.06,.07,.15,.12,.24,.17,.08,.04,.15,.09,.21,.14,.48,.44,.48,.63,.04,1.1-.07,.08-.15,.15-.23,.23h0c-.18,.17-.36,.34-.46,.53-.23,.4-.3,.82,.26,1.12,.03,0,.06,0,.09,0h0c.06,0,.11,0,.13-.01,.67-.6,1.43-.94,2.41-.82v65.69c-.38-.86-.77-1.53-1.17-2.01-.08-.1-.2-.39-.35-.79h0c-.08-.22-.18-.46-.29-.73-.16-.8-.31-1.63-.47-2.48h0c-.43-2.39-.9-4.94-1.72-7.35-.33-.98-.7-2.8-1-4.3v-4.12c.24,.69,.45,1.6,.65,2.5,.07,.32,.15,.65,.22,.96,.34,1.44,.67,2.88,1,4.28,.17,.71,.33,1.41,.49,2.1,.57,.16,.27-1.95-.04-3.67-.75-4.09-1.53-8.21-2.33-12.34v-12.72c.29-.13,.57-.26,.85-.4l.09-.04c.36-.18,.72-.36,1.01-.66,.09-.1,.22-.18,.34-.25,.31-.2,.64-.4,.54-.97-.08-.46-.39-.55-.71-.63-.12-.03-.24-.07-.35-.12-.63-.33-.91-.85-.8-1.75,.05-.45,.02-.97-.09-1.4-.22-.8-.31-1.57-.18-2.4,.09-.62-.22-1.05-.65-1.26-.02,0-.04-.02-.06-.02v-22.92c.31-.05,.63,.01,.93,.13,.22,.09,.43,.19,.64,.3h0c.13,.07,.27,.13,.4,.2,.6,.28,1.21,.55,1.9,.87h0s.32,.15,.32,.15c.11,.14,.22,.29,.33,.43h0c.16,.21,.32,.42,.47,.62v2.03Z"/>
      <path class="cls-1" d="M0,170.43v113.93s.03,0,.04,0c.41,.07,.72-.08,.92-.51,.19-.41,.26-.81,0-1.31-.63-1.29-.62-1.29,.47-1.42h0c.17-.02,.33-.08,.49-.13,.14-.05,.28-.1,.42-.12,.38-.08,.77,.3,.84,.79,.02,.13,.03,.26,.03,.38,0,.08,0,.15,.01,.23,.17,1.97,.46,3.91,1.38,5.68,.27,.51,.28,1.02,.15,1.57-.06,.22-.07,.47-.08,.75,0,.15-.01,.3-.03,.46,.1,.03,.2,.06,.29,.08,.01,0,.03,0,.04,0v-100.02c-.42-1.7-.86-3.38-1.32-5.07-.71-2.59-1.13-5.01-1.41-7.46-.11-1.01-.29-2.17-.5-3.46h0c-.11-.68-.22-1.4-.33-2.15-.15-.22-.28-.42-.4-.6h0c-.29-.43-.53-.8-.79-1.21-.08-.14-.17-.28-.25-.43Z"/>
      <path class="cls-1" d="M5,297.24c-.6,.12-1.2,.22-1.8,.3-.32,.05-.7-.34-.74-.72-.13-1.15-.26-2.29-.34-3.44-.02-.36,.03-.82,.55-.88,.04,.12,.07,.23,.11,.35l.02,.07h0c.09,.28,.18,.58,.27,.87,.02,.06,.04,.13,.06,.2,.07,.26,.14,.51,.4,.61,.25,.09,.56-.48,.5-1.04-.04-.33-.1-.75-.27-.95-.4-.45-.43-.99-.46-1.49-.01-.18-.02-.35-.05-.52-.06-.05-.12-.09-.16-.13-.09-.07-.15-.12-.21-.13-1.02-.17-1.62-.82-1.63-2.18,0-.07,0-.14-.02-.2-.17-.99-.4-1.3-1.15-1.57-.03-.01-.06-.02-.09-.03v16l.07-.04c.37-.19,.75-.36,1.14-.52h0s0,0,0,0c.16-.07,.31-.14,.47-.21,.02-.13,.04-.26,.06-.38,.05-.32,.1-.6,.18-.87,.04-.15,.22-.32,.34-.32,.13,0,.3,.15,.38,.31,.34,.69,.28,1.4,.12,2.16-.12,.57,.24,1.11,.71,1.1,.37,0,.73-.1,1.1-.19l.08-.02,.06-.02c.1-.02,.21-.06,.31-.09v-6.05Z"/>
      <path class="cls-1" d="M5,304.28c-.35,.05-.7,.19-1.01,.4-.32,.21-.62,.46-.92,.73-.14,.12-.27,.23-.41,.35l-.13,.32h0s0,0,0,0h0c-.28,.71-.53,1.33-.78,1.93-.06,.14-.12,.27-.18,.41h0c-.1,.21-.19,.43-.27,.66-.15,.44-.2,.91,.08,1.35,.1,.16,.19,.33,.27,.51v.02c.12,.3,.27,.68-.03,.88-.2,.13-.52,.11-.74,0-.43-.2-.74-.63-.65-1.26,.13-.83,.04-1.6-.18-2.4-.02-.06-.03-.12-.04-.17v18.21c.16-.02,.33-.02,.47,.01,1.2,.31,2.1-.04,2.86-.73,.02-.02,.07-.01,.13-.01h.03s.01,0,.01,0c0,0,.02,0,.03,0h.02c.55,.3,.48,.73,.26,1.12-.11,.2-.29,.36-.46,.53-.08,.08-.16,.15-.23,.23-.44,.47-.44,.67,.04,1.1,.06,.06,.14,.1,.21,.14,.09,.05,.18,.1,.24,.17,.1,.11,.19,.3,.14,.41-.06,.12-.3,.26-.45,.26-.35,0-.7-.02-1.06-.04-.32-.02-.65-.04-.97-.04-.47,0-.95,.35-.91,.71,.04,.35,.16,.72,.36,1.04,.2,.33,.44,.64,.69,.95h0c.11,.14,.22,.28,.33,.43l.32,.14c.69,.31,1.3,.59,1.9,.87,.14,.06,.27,.13,.4,.2h0c.21,.11,.42,.21,.64,.3,0,0,0,0,0,0v-29.74Z"/>
      <path class="cls-1" d="M5,335.07c-.32,.03-.63,.08-.95,.16-.44,.1-.96,.1-1.41,.04-.9-.14-1.43,.11-1.78,.73-.06,.1-.1,.22-.14,.34h0c-.1,.31-.2,.63-.66,.68-.02,0-.04,0-.06,0v25.63c.42-.02,.89-.53,.89-1.01,0-.18-.04-.35-.07-.52-.02-.12-.05-.24-.06-.37-.1-.9,.02-1.23,.87-1.75,.66-.41,.89-.93,.9-1.63,0-.14,0-.28-.02-.42-.03-.42-.06-.85,.23-1.38,.82-.43,1.58-1.1,2.13-2.11,.04-.07,.09-.15,.14-.22v-18.18Z"/>
      <path class="cls-1" d="M5,356.37c-.02,.14-.01,.27,0,.4v-.4Z"/>
      <path class="cls-1" d="M5,358.83c-.06,.05-.12,.1-.18,.15-1.04,.85-1.86,1.9-2.49,3.14-.31,.61-.64,1.21-1.01,1.78-.21,.32-.51,.75-.79,.85-.19,.06-.37,.15-.53,.24v14.82c.16,.03,.33,.07,.49,.11,.56,.14,1.11-.19,1.13-.66,.01-.37-.07-.74-.15-1.11h0s-.01-.06-.01-.06l-.02-.07c-.03-.17-.09-.34-.14-.5h0s0,0,0,0c-.09-.29-.18-.58-.18-.87,.01-.5-.08-.9-.41-1.34-.48-.65-.01-1.25,.95-1.4h.06s.04-.01,.04-.01c.24-.04,.5-.07,.71-.02,1.03,.27,1.83,.05,2.52-.45v-14.59Z"/>
      <path class="cls-1" d="M5,375.97c-.28-.3-.28-.49,0-.82v.82Z"/>
      <path class="cls-1" d="M5,377.1c-.25,0-.5-.02-.76-.04-.32-.02-.65-.04-.97-.04-.47,0-.95,.35-.91,.71,.04,.35,.16,.72,.36,1.04,.2,.33,.44,.64,.69,.95h0c.11,.14,.22,.28,.33,.43l.32,.14c.33,.15,.65,.29,.95,.43v-3.63Z"/>
      <path class="cls-1" d="M5,382.94c-.12,0-.24-.02-.35-.04-.9-.14-1.43,.11-1.78,.73-.06,.1-.1,.22-.14,.35-.1,.31-.2,.62-.66,.68-.58,.07-.77-.26-.95-.58-.07-.13-.14-.25-.24-.35-.29-.3-.46-.68-.62-1.04h0s-.04-.09-.04-.09c-.08-.16-.15-.33-.22-.5v56.4H7.81c-.15-.2-.3-.41-.43-.61-.61-.9-1.19-1.83-1.9-2.98h0s0,0,0,0c-.29-.47-.61-.98-.96-1.54l.12-.5c.12-.52,.24-1.01,.36-1.49v-5.77c-.06-.12-.13-.24-.19-.36-.87-1.69-1.75-3.39-2.49-5.15-.84-2.08,.07-5.4,1.66-5.77,.34-.09,.68-.18,1.02-.28v-31.09Z"/>
    </g>
  </g>
</svg>