<svg width="100" height="100" viewBox="0 0 100 100" fill="none" xmlns="http://www.w3.org/2000/svg">
<g clip-path="url(#clip0_61_30939)">
<path d="M89.4836 26.1331H9.89453V73.638H89.4836V26.1331Z" fill="url(#paint0_linear_61_30939)"/>
<path d="M91 76.0886H8V24.0593H91V76.0886ZM11.79 72.3184H87.2101V27.8296H11.79V72.3184Z" fill="#C12A2A"/>
<path d="M10.8815 24.3349L8.90234 27.5503L88.1161 75.8022L90.0952 72.5868L10.8815 24.3349Z" fill="#C12A2A"/>
<path d="M88.1171 24.3441L8.90332 72.5959L10.8824 75.8113L90.0962 27.5594L88.1171 24.3441Z" fill="#C12A2A"/>
<path d="M43.4174 87.7782C42.2671 88.1175 41.5148 88.4059 41.1623 88.6453C40.808 88.8847 40.5882 89.2542 40.4991 89.7575C41.0676 89.0789 41.7877 88.7396 42.6594 88.7396C43.2904 88.7396 43.9442 88.9941 44.6207 89.503C45.2972 90.012 45.7804 90.2665 46.0703 90.2665C46.2598 90.2665 46.474 90.1723 46.7146 89.9838C45.9566 89.8329 45.5776 89.4182 45.5776 88.7396C45.5776 88.3494 45.7198 88.0195 46.004 87.7499C46.2882 87.4803 46.6388 87.3446 47.0557 87.3446C47.5996 87.3446 48.0468 87.5651 48.4011 88.0044C48.7555 88.4436 48.9317 88.9978 48.9317 89.6633C48.9317 90.5436 48.6248 91.309 48.0127 91.9631C47.4006 92.6173 46.6824 92.9434 45.8619 92.9434C45.0414 92.9434 44.0995 92.572 43.1521 91.8312C42.4945 91.3165 42.0662 91.0583 41.8635 91.0583C41.7365 91.0583 41.6171 91.1205 41.5034 91.2468C41.5792 91.3844 41.6171 91.5164 41.6171 91.6427C41.6171 92.0329 41.4674 92.3552 41.1718 92.6135C40.8743 92.8718 40.4991 92.9999 40.0443 92.9999C39.3867 92.9999 38.8372 92.7323 38.3957 92.1988C37.9541 91.6653 37.7324 90.9961 37.7324 90.1911C37.7324 88.2174 39.2162 86.6527 42.1856 85.4972C43.3226 85.0579 44.056 84.7111 44.3838 84.4604C44.7116 84.2096 44.8765 83.8703 44.8765 83.4424C44.8765 83.0654 44.7059 82.7637 44.3648 82.5375C44.0237 82.3113 43.5746 82.1982 43.0194 82.1982C42.4642 82.1982 41.9715 82.3245 41.5034 82.5752C41.7441 82.8901 41.8635 83.2105 41.8635 83.5366C41.8635 84.0136 41.6872 84.4189 41.3329 84.7525C40.9785 85.0862 40.5503 85.2521 40.0443 85.2521C39.4758 85.2521 39.0115 85.0636 38.6515 84.6866C38.2914 84.3095 38.1114 83.8251 38.1114 83.235C38.1114 82.2039 38.589 81.365 39.5421 80.7184C40.4953 80.0718 41.7365 79.7476 43.2658 79.7476C44.795 79.7476 46.0286 80.0869 46.9325 80.7655C47.8364 81.4442 48.2874 82.3622 48.2874 83.5178C48.2874 84.7375 47.7891 85.68 46.7904 86.3455C46.0192 86.8601 44.8954 87.3389 43.4174 87.7782Z" fill="#C12A2A"/>
<path d="M50.1631 89.0035C50.1631 87.584 50.9533 86.5208 52.5318 85.8176C51.3702 85.3143 50.7884 84.4849 50.7884 83.3293C50.7884 82.2868 51.2527 81.4291 52.1812 80.7561C53.1098 80.0831 54.2885 79.7476 55.7154 79.7476C57.1423 79.7476 58.321 80.0869 59.2495 80.7655C60.178 81.4442 60.6423 82.3057 60.6423 83.3481C60.6423 84.4924 60.0549 85.3143 58.88 85.8176C60.4718 86.5208 61.2677 87.584 61.2677 89.0035C61.2677 90.1855 60.756 91.1469 59.7327 91.8877C58.7094 92.6286 57.3697 92.9999 55.7154 92.9999C54.0611 92.9999 52.7213 92.6323 51.698 91.8971C50.6747 91.1619 50.1631 90.1968 50.1631 89.0035ZM55.7154 86.9864C54.9953 86.9864 54.404 87.1523 53.9436 87.486C53.4831 87.8196 53.2519 88.2438 53.2519 88.7584C53.2519 89.2731 53.4736 89.6916 53.9151 90.012C54.3567 90.3325 54.9441 90.4927 55.6775 90.4927C56.4108 90.4927 57.0229 90.3325 57.4777 90.012C57.9325 89.6916 58.1599 89.2731 58.1599 88.7584C58.1599 88.2438 57.9287 87.8347 57.4682 87.4954C57.0077 87.1561 56.4222 86.9864 55.7154 86.9864ZM55.6585 82.0474C55.1526 82.0474 54.7432 82.1605 54.4268 82.3867C54.1103 82.6129 53.953 82.9089 53.953 83.2727C53.953 83.6366 54.1179 83.9608 54.4457 84.2059C54.7736 84.4509 55.1905 84.5735 55.6964 84.5735C56.2024 84.5735 56.625 84.4509 56.9661 84.2059C57.3071 83.9608 57.4777 83.6554 57.4777 83.2916C57.4777 82.9278 57.3034 82.645 56.9566 82.4056C56.6098 82.1662 56.1758 82.0474 55.6585 82.0474Z" fill="#C12A2A"/>
<path d="M30.7306 17.1428L32.6445 14.466L30.7495 11.5817C30.3193 10.9276 29.9025 10.6015 29.4988 10.6015H29.2335C29.1577 10.6147 29.0497 10.6203 28.9114 10.6203C28.2159 10.6203 27.8691 10.2244 27.8691 9.43269C27.8691 9.00477 28.0056 8.65979 28.2766 8.39587C28.5475 8.13196 28.8981 8 29.3283 8C29.5689 8 29.7888 8.0132 29.9915 8.0377C30.812 8.13761 31.3047 8.18851 31.4696 8.18851C31.7103 8.18851 32.0627 8.15646 32.5308 8.09426C32.9988 8.03205 33.3513 8 33.592 8C33.9463 8 34.2325 8.12253 34.4542 8.3676C34.6759 8.61266 34.7858 8.92936 34.7858 9.31958C34.7858 9.6721 34.6778 9.91717 34.4637 10.0548L34.1605 10.2433C34.0089 10.3319 33.9331 10.4375 33.9331 10.5638C33.9331 10.7278 34.0146 10.9596 34.1794 11.2613L35.108 12.9767L36.1881 11.2613C36.4022 10.9219 36.5102 10.6901 36.5102 10.5638C36.5102 10.4507 36.4288 10.3432 36.2639 10.2433C35.8849 10.0039 35.6954 9.70226 35.6954 9.33843C35.6954 8.9369 35.8034 8.61266 36.0175 8.3676C36.2317 8.12253 36.5159 8 36.8703 8C37.0977 8 37.4388 8.03205 37.8936 8.09426C38.3484 8.15646 38.6951 8.18851 38.9358 8.18851C39.1632 8.18851 39.4967 8.15646 39.9401 8.09426C40.3817 8.03205 40.7114 8 40.9255 8C41.2666 8 41.5566 8.13761 41.7972 8.41473C42.0379 8.69184 42.1573 9.03116 42.1573 9.43269C42.1573 9.78521 42.0625 10.0736 41.873 10.2998C41.6835 10.5261 41.4372 10.6392 41.134 10.6392C41.1093 10.6392 41.0714 10.6335 41.0203 10.6203H40.8876C40.7114 10.5958 40.6034 10.5826 40.5655 10.5826C40.2756 10.5826 39.889 10.9163 39.4096 11.5817L37.5146 14.1832L39.4096 17.1428L39.7506 17.5953L40.0349 18.01C40.1732 18.1231 40.3248 18.1796 40.4897 18.1796C40.6167 18.1796 40.7304 18.1664 40.8308 18.1419C40.8819 18.1419 40.9445 18.1363 41.0203 18.1231H41.1908C41.8484 18.1231 42.1762 18.5246 42.1762 19.3296C42.1762 19.7311 42.0493 20.0685 41.7972 20.3381C41.5452 20.6077 41.223 20.7434 40.8308 20.7434C40.7171 20.7434 40.3893 20.7 39.8454 20.6114C39.618 20.5737 39.2447 20.5549 38.7274 20.5549C38.1835 20.5549 37.7799 20.5737 37.5146 20.6114C36.9082 20.7 36.5671 20.7434 36.4913 20.7434C36.1748 20.7434 35.9228 20.6265 35.7333 20.3947C35.5438 20.1628 35.4491 19.8631 35.4491 19.4992C35.4491 19.1976 35.4926 18.9865 35.5817 18.8677C35.6708 18.7489 35.8603 18.6076 36.1502 18.4436C36.3264 18.3436 36.4155 18.2362 36.4155 18.1231C36.4155 18.0345 36.3397 17.8592 36.1881 17.5953L35.108 15.729L34.0089 17.3879C33.7568 17.7649 33.6299 18.0232 33.6299 18.1608C33.6299 18.2607 33.6867 18.3493 33.8004 18.4247L34.1605 18.6509C34.4258 18.8149 34.5584 19.0977 34.5584 19.4992C34.5584 20.3287 34.1737 20.7434 33.4025 20.7434C33.3513 20.7434 32.9098 20.6925 32.076 20.5926C31.7349 20.5549 31.4317 20.536 31.1664 20.536C30.8386 20.536 30.5278 20.5605 30.2379 20.6114C29.7452 20.7 29.4098 20.7434 29.2335 20.7434C28.8299 20.7434 28.5002 20.6114 28.2481 20.3475C27.9961 20.0836 27.8691 19.7443 27.8691 19.3296C27.8691 18.5246 28.197 18.1231 28.8545 18.1231C28.9436 18.1231 29.0687 18.1363 29.2335 18.1608C29.3984 18.1853 29.5178 18.1985 29.5936 18.1985C29.7319 18.1985 29.8361 18.1702 29.9062 18.1137C29.9764 18.0571 30.1242 17.8912 30.3516 17.6141L30.7306 17.1428Z" fill="#C12A2A"/>
<path d="M45.2081 17.1428L47.122 14.466L45.227 11.5817C44.7969 10.9276 44.38 10.6015 43.9764 10.6015H43.7111C43.6353 10.6147 43.5273 10.6203 43.3889 10.6203C42.6935 10.6203 42.3467 10.2244 42.3467 9.43269C42.3467 9.00477 42.4831 8.65979 42.7541 8.39587C43.0251 8.13196 43.3757 8 43.8058 8C44.0465 8 44.2663 8.0132 44.4691 8.0377C45.2896 8.13761 45.7823 8.18851 45.9471 8.18851C46.1878 8.18851 46.5403 8.15646 47.0083 8.09426C47.4764 8.03205 47.8288 8 48.0695 8C48.4239 8 48.71 8.12253 48.9317 8.3676C49.1534 8.61266 49.2633 8.92936 49.2633 9.31958C49.2633 9.6721 49.1553 9.91717 48.9412 10.0548L48.638 10.2433C48.4864 10.3319 48.4106 10.4375 48.4106 10.5638C48.4106 10.7278 48.4921 10.9596 48.657 11.2613L49.5855 12.9767L50.6656 11.2613C50.8798 10.9219 50.9878 10.6901 50.9878 10.5638C50.9878 10.4507 50.9063 10.3432 50.7414 10.2433C50.3624 10.0039 50.1729 9.70226 50.1729 9.33843C50.1729 8.9369 50.2809 8.61266 50.4951 8.3676C50.7092 8.12253 50.9935 8 51.3478 8C51.5752 8 51.9163 8.03205 52.3711 8.09426C52.8259 8.15646 53.1727 8.18851 53.4133 8.18851C53.6407 8.18851 53.9743 8.15646 54.4177 8.09426C54.8592 8.03205 55.1889 8 55.4031 8C55.7442 8 56.0341 8.13761 56.2748 8.41473C56.5154 8.69184 56.6348 9.03116 56.6348 9.43269C56.6348 9.78521 56.5401 10.0736 56.3506 10.2998C56.1611 10.5261 55.9147 10.6392 55.6115 10.6392C55.5869 10.6392 55.549 10.6335 55.4978 10.6203H55.3652C55.1889 10.5958 55.0809 10.5826 55.043 10.5826C54.7531 10.5826 54.3665 10.9163 53.8871 11.5817L51.9921 14.1832L53.8871 17.1428L54.2282 17.5953L54.5124 18.01C54.6508 18.1231 54.8024 18.1796 54.9672 18.1796C55.0942 18.1796 55.2079 18.1664 55.3083 18.1419C55.3595 18.1419 55.422 18.1363 55.4978 18.1231H55.6684C56.3259 18.1231 56.6538 18.5246 56.6538 19.3296C56.6538 19.7311 56.5268 20.0685 56.2748 20.3381C56.0227 20.6077 55.7006 20.7434 55.3083 20.7434C55.1946 20.7434 54.8668 20.7 54.3229 20.6114C54.0955 20.5737 53.7222 20.5549 53.2049 20.5549C52.661 20.5549 52.2574 20.5737 51.9921 20.6114C51.3857 20.7 51.0446 20.7434 50.9688 20.7434C50.6524 20.7434 50.4003 20.6265 50.2108 20.3947C50.0213 20.1628 49.9266 19.8631 49.9266 19.4992C49.9266 19.1976 49.9702 18.9865 50.0592 18.8677C50.1483 18.7489 50.3378 18.6076 50.6277 18.4436C50.804 18.3436 50.893 18.2362 50.893 18.1231C50.893 18.0345 50.8172 17.8592 50.6656 17.5953L49.5855 15.729L48.4864 17.3879C48.2344 17.7649 48.1074 18.0232 48.1074 18.1608C48.1074 18.2607 48.1643 18.3493 48.278 18.4247L48.638 18.6509C48.9033 18.8149 49.0359 19.0977 49.0359 19.4992C49.0359 20.3287 48.6513 20.7434 47.88 20.7434C47.8288 20.7434 47.3873 20.6925 46.5535 20.5926C46.2124 20.5549 45.9092 20.536 45.6439 20.536C45.3161 20.536 45.0053 20.5605 44.7154 20.6114C44.2227 20.7 43.8873 20.7434 43.7111 20.7434C43.3074 20.7434 42.9777 20.6114 42.7257 20.3475C42.4736 20.0836 42.3467 19.7443 42.3467 19.3296C42.3467 18.5246 42.6745 18.1231 43.3321 18.1231C43.4211 18.1231 43.5462 18.1363 43.7111 18.1608C43.8759 18.1853 43.9953 18.1985 44.0711 18.1985C44.2094 18.1985 44.3137 18.1702 44.3838 18.1137C44.4539 18.0571 44.6017 17.8912 44.8291 17.6141L45.2081 17.1428Z" fill="#C12A2A"/>
<path d="M59.6856 17.1428L61.5996 14.466L59.7046 11.5817C59.2744 10.9276 58.8575 10.6015 58.4539 10.6015H58.1886C58.1128 10.6147 58.0048 10.6203 57.8665 10.6203C57.171 10.6203 56.8242 10.2244 56.8242 9.43269C56.8242 9.00477 56.9607 8.65979 57.2316 8.39587C57.5026 8.13196 57.8532 8 58.2834 8C58.524 8 58.7438 8.0132 58.9466 8.0377C59.7671 8.13761 60.2598 8.18851 60.4247 8.18851C60.6653 8.18851 61.0178 8.15646 61.4859 8.09426C61.9539 8.03205 62.3064 8 62.5471 8C62.9014 8 63.1876 8.12253 63.4093 8.3676C63.631 8.61266 63.7409 8.92936 63.7409 9.31958C63.7409 9.6721 63.6329 9.91717 63.4187 10.0548L63.1155 10.2433C62.9639 10.3319 62.8881 10.4375 62.8881 10.5638C62.8881 10.7278 62.9696 10.9596 63.1345 11.2613L64.063 12.9767L65.1432 11.2613C65.3573 10.9219 65.4653 10.6901 65.4653 10.5638C65.4653 10.4507 65.3838 10.3432 65.219 10.2433C64.84 10.0039 64.6505 9.70226 64.6505 9.33843C64.6505 8.9369 64.7585 8.61266 64.9726 8.3676C65.1868 8.12253 65.471 8 65.8254 8C66.0528 8 66.3939 8.03205 66.8486 8.09426C67.3034 8.15646 67.6502 8.18851 67.8909 8.18851C68.1183 8.18851 68.4518 8.15646 68.8952 8.09426C69.3368 8.03205 69.6665 8 69.8806 8C70.2217 8 70.5116 8.13761 70.7523 8.41473C70.993 8.69184 71.1123 9.03116 71.1123 9.43269C71.1123 9.78521 71.0176 10.0736 70.8281 10.2998C70.6386 10.5261 70.3923 10.6392 70.0891 10.6392C70.0644 10.6392 70.0265 10.6335 69.9754 10.6203H69.8427C69.6665 10.5958 69.5585 10.5826 69.5206 10.5826C69.2306 10.5826 68.8441 10.9163 68.3646 11.5817L66.4697 14.1832L68.3646 17.1428L68.7057 17.5953L68.99 18.01C69.1283 18.1231 69.2799 18.1796 69.4448 18.1796C69.5717 18.1796 69.6854 18.1664 69.7859 18.1419C69.837 18.1419 69.8996 18.1363 69.9754 18.1231H70.1459C70.8035 18.1231 71.1313 18.5246 71.1313 19.3296C71.1313 19.7311 71.0043 20.0685 70.7523 20.3381C70.5003 20.6077 70.1781 20.7434 69.7859 20.7434C69.6722 20.7434 69.3443 20.7 68.8005 20.6114C68.5731 20.5737 68.1998 20.5549 67.6824 20.5549C67.1386 20.5549 66.7349 20.5737 66.4697 20.6114C65.8633 20.7 65.5222 20.7434 65.4464 20.7434C65.1299 20.7434 64.8779 20.6265 64.6884 20.3947C64.4989 20.1628 64.4041 19.8631 64.4041 19.4992C64.4041 19.1976 64.4477 18.9865 64.5368 18.8677C64.6258 18.7489 64.8153 18.6076 65.1053 18.4436C65.2815 18.3436 65.3706 18.2362 65.3706 18.1231C65.3706 18.0345 65.2948 17.8592 65.1432 17.5953L64.063 15.729L62.9639 17.3879C62.7119 17.7649 62.5849 18.0232 62.5849 18.1608C62.5849 18.2607 62.6418 18.3493 62.7555 18.4247L63.1155 18.6509C63.3808 18.8149 63.5135 19.0977 63.5135 19.4992C63.5135 20.3287 63.1288 20.7434 62.3576 20.7434C62.3064 20.7434 61.8649 20.6925 61.0311 20.5926C60.69 20.5549 60.3868 20.536 60.1215 20.536C59.7936 20.536 59.4829 20.5605 59.1929 20.6114C58.7002 20.7 58.3648 20.7434 58.1886 20.7434C57.785 20.7434 57.4552 20.6114 57.2032 20.3475C56.9512 20.0836 56.8242 19.7443 56.8242 19.3296C56.8242 18.5246 57.1521 18.1231 57.8096 18.1231C57.8987 18.1231 58.0237 18.1363 58.1886 18.1608C58.3535 18.1853 58.4728 18.1985 58.5486 18.1985C58.687 18.1985 58.7912 18.1702 58.8613 18.1137C58.9314 18.0571 59.0792 17.8912 59.3066 17.6141L59.6856 17.1428Z" fill="#C12A2A"/>
</g>
<defs>
<linearGradient id="paint0_linear_61_30939" x1="75.9995" y1="39.0001" x2="9.99951" y2="81.0001" gradientUnits="userSpaceOnUse">
<stop stop-color="#0A0C0F"/>
<stop offset="1" stop-color="#1F2329" stop-opacity="0"/>
</linearGradient>
<clipPath id="clip0_61_30939">
<rect width="83" height="85" fill="white" transform="translate(8 8)"/>
</clipPath>
</defs>
</svg>
