<svg width="100" height="100" viewBox="0 0 100 100" fill="none" xmlns="http://www.w3.org/2000/svg">
<g clip-path="url(#clip0_2656_4120)">
<path d="M41.6233 80C40.9219 80 40.3193 79.4667 40.25 78.7575L39.5902 72.0427C39.5157 71.2868 40.0733 70.612 40.8301 70.5395L52.1874 69.4316C52.5545 69.3954 52.913 69.5041 53.1988 69.7388C53.4845 69.9718 53.6612 70.3031 53.6958 70.669L54.3556 77.3821C54.4301 78.1379 53.8742 78.8127 53.1156 78.8869L41.7584 79.9948C41.7134 80 41.6683 80.0017 41.6233 80.0017V80ZM41.348 72.2239L41.9385 78.2432L52.5996 77.2043L52.009 71.185L41.348 72.2239V72.2239Z" fill="#C12A2A"/>
<path d="M51.5034 76.4209C50.828 76.4209 50.2357 75.9256 50.137 75.2405L49.1706 68.5636C49.0615 67.8129 49.5862 67.1123 50.3413 67.0053L60.656 65.5229C61.4093 65.4142 62.1107 65.9371 62.2198 66.6895L63.1862 73.3663C63.2953 74.117 62.7706 74.8177 62.0172 74.9247L51.7025 76.4071C51.6367 76.4174 51.5692 76.4209 51.5051 76.4209H51.5034ZM50.9353 68.6637L51.8012 74.6485L61.4215 73.2662L60.5556 67.2814L50.9353 68.6637V68.6637Z" fill="#C12A2A"/>
<path d="M20.4671 72.9728C19.4609 72.6864 9.86836 71.4369 9.73155 68.2098C9.72981 68.1667 9.7506 68.127 9.78696 68.1046C10.1351 67.8802 11.9898 66.617 12.5007 64.8619C13.2246 62.3752 12.4834 48.1604 15.7912 40.0115C19.9597 29.7434 31.6633 24.706 34.1484 23.7897C46.6521 19.1855 60.6781 22.6024 69.3043 30.52C75.9025 36.5773 79.3488 40.7018 80.9074 53.127C81.0027 53.8812 81.0581 55.5499 81.6002 57.4413C82.2929 59.8573 87.6615 60.7202 90.2593 63.1362C90.5121 63.3709 84.0247 63.6539 84.0247 63.6539C74.6244 63.9439 73.3966 68.0269 55.2766 72.11C55.2766 72.11 40.0366 75.5614 27.3943 74.1808C26.8211 74.1187 21.6793 73.318 20.4671 72.9728V72.9728Z" fill="url(#paint0_linear_2656_4120)"/>
<path d="M33.9012 76.2362C31.6585 76.2362 29.4002 76.1362 27.206 75.8963C26.5999 75.8307 21.3421 75.0144 19.9965 74.633C19.8943 74.6072 19.5202 74.5364 19.1912 74.4743C13.471 73.3974 8.15431 71.903 8.00018 68.2841C7.97247 67.6335 8.29632 67.0105 8.84531 66.6567C9.41161 66.2926 10.5563 65.3469 10.8352 64.3822C11.0031 63.8024 11.0967 61.6366 11.1867 59.5433C11.4309 53.8467 11.7998 45.2371 14.1845 39.3661C18.8552 27.8642 32.0586 22.7198 33.5497 22.171C46.0205 17.5789 60.8621 20.4246 70.4789 29.2517C77.5308 35.7249 81.0291 40.1686 82.6276 52.9131C82.6484 53.0856 82.6691 53.3014 82.6934 53.555C82.7696 54.3799 82.8839 55.6259 83.2684 56.9668C83.4433 57.5743 85.3777 58.463 86.6593 59.0515C88.2802 59.7953 90.116 60.6391 91.4443 61.8748C91.9621 62.3562 92.1387 63.0931 91.8928 63.7524C91.4876 64.8465 90.4398 64.9483 89.4267 65.0484C88.8846 65.1019 88.1434 65.1571 87.2238 65.214C85.6756 65.309 84.1187 65.378 84.1031 65.378H84.0806C79.6541 65.516 77.1966 66.5429 73.4784 68.0995C69.807 69.6353 64.776 71.739 55.6615 73.7943C55.1385 73.9134 44.7285 76.2362 33.903 76.2362H33.9012ZM11.9487 68.6189C12.3661 68.9226 13.1316 69.3437 14.5239 69.8079C16.4289 70.443 18.5625 70.8451 19.8354 71.085C20.4329 71.1971 20.729 71.2541 20.9438 71.3162C22.0123 71.6199 27.0883 72.4138 27.5836 72.4673C29.6115 72.6882 31.7157 72.7813 33.8146 72.7813C44.3458 72.7813 54.7679 70.4568 54.8926 70.4292C63.7144 68.4411 68.3834 66.4876 72.1345 64.9189C76.0605 63.2761 78.8973 62.0905 83.9593 61.9317C84.1654 61.9231 84.375 61.9127 84.5863 61.9024C82.4284 60.8997 80.4923 59.8643 79.9346 57.9177C79.4601 56.2644 79.3233 54.7665 79.2419 53.8709C79.2228 53.6638 79.2072 53.486 79.1899 53.3428C77.7265 41.6769 74.6959 37.8164 68.1323 31.7902C64.0694 28.0609 58.635 25.3481 52.83 24.1504C46.6837 22.882 40.4319 23.3186 34.7498 25.4102C34.2147 25.6069 21.5793 30.3596 17.397 40.6604C15.2374 45.9791 14.8841 54.2315 14.6504 59.6917C14.5187 62.7635 14.4373 64.4099 14.1654 65.3452C13.755 66.7551 12.7817 67.8751 11.9487 68.6206V68.6189Z" fill="#C12A2A"/>
</g>
<defs>
<linearGradient id="paint0_linear_2656_4120" x1="42.9998" y1="61" x2="37.9998" y2="22" gradientUnits="userSpaceOnUse">
<stop stop-color="#0A0C0F"/>
<stop offset="1" stop-color="#1F2329" stop-opacity="0"/>
</linearGradient>
<clipPath id="clip0_2656_4120">
<rect width="84" height="60" fill="white" transform="translate(8 20)"/>
</clipPath>
</defs>
</svg>
