<svg width="123" height="100" viewBox="0 0 123 100" fill="none" xmlns="http://www.w3.org/2000/svg">
<path d="M2.07771 62.1634C2.07771 62.1634 12.6895 40.1612 42.5406 30.9458C39.3493 28.8796 32.846 26.0221 32.846 26.0221L62.1484 24.4838L48.6038 44.1108L47.0122 35.3626C47.0122 35.3626 27.158 43.625 19.46 71.1595" fill="url(#paint0_linear_2656_14776)"/>
<path d="M20.4368 72.9139L17.7141 72.1506L18.098 70.7777C19.8912 64.3619 22.4897 58.4439 25.8209 53.1868C28.4912 48.9723 31.6353 45.1705 35.1664 41.8895C41.2101 36.2728 46.2644 34.1336 46.4774 34.0453L48.09 33.3741L49.384 40.4879L59.343 26.0572L38.5944 27.146C40.2746 27.9837 42.0334 28.9181 43.3081 29.7438L45.8729 31.4034L42.949 32.3061C36.2645 34.3703 30.0182 37.2637 24.3842 40.9079C19.8818 43.8201 15.7596 47.2147 12.1289 50.9969C5.9728 57.4107 3.37438 62.7275 3.34873 62.78L2.72878 64.0642L0.186484 62.8265L0.806431 61.5423C0.918812 61.3096 3.63303 55.7581 10.1011 49.0186C13.8849 45.0766 18.1789 41.5413 22.8655 38.509C27.8477 35.2865 33.2857 32.6307 39.0703 30.5915C35.9712 28.9536 32.3256 27.3462 32.2767 27.3257L26.7824 24.9105L64.9542 22.909L47.8241 47.7323L45.9566 37.4649C43.8213 38.6312 40.4573 40.826 36.9791 44.0743C33.6467 47.1873 30.6773 50.7934 28.1531 54.7921C24.9968 59.792 22.5299 65.4277 20.8207 71.5409L20.4368 72.9139Z" fill="#2E3A45"/>
<path d="M55.1817 90.3406C55.1817 90.3406 85.0195 84.6767 105.692 51.7931C107.146 56.2905 108.486 65.02 108.486 65.02L119.762 30.325L91.833 40.2754L101.827 45.0018C101.827 45.0018 85.5154 66.1865 49.9715 66.571" fill="url(#paint1_linear_2656_14776)"/>
<path d="M48.1788 64.8334L48.2193 68.3489L49.9917 68.3296C58.2736 68.2406 66.2168 67.0243 73.6022 64.7155C79.5227 62.8648 85.1001 60.3123 90.1767 57.1275C98.8666 51.6769 103.062 46.2955 103.237 46.0681L104.562 44.3474L96.4349 40.5043L116.97 33.1878L108.986 57.7551C108.52 55.4677 107.964 53.0548 107.383 51.2583L106.215 47.6441L104.19 50.865C99.56 58.2284 94.0752 64.7987 87.8858 70.3921C82.9398 74.862 77.5365 78.7201 71.8262 81.8633C62.1427 87.1924 54.9215 88.602 54.8502 88.6159L53.1084 88.9472L53.7767 92.3986L55.5185 92.0673C55.834 92.0072 63.3744 90.534 73.5494 84.9351C79.501 81.6595 85.1284 77.6404 90.278 72.9878C95.7512 68.0416 100.691 62.3655 105.001 56.0748C105.971 60.3236 106.728 65.219 106.737 65.2843L107.869 72.6598L122.556 27.4623L87.233 40.0465L98.9624 45.5931C96.8746 47.7821 93.1563 51.1158 88.1362 54.2476C83.3253 57.2479 78.0391 59.6535 72.4248 61.3981C65.4046 63.5796 57.8428 64.7287 49.9512 64.8142L48.1788 64.8334Z" fill="#2E3A45"/>
<defs>
<linearGradient id="paint0_linear_2656_14776" x1="38.0071" y1="18.7042" x2="25.1243" y2="72.5155" gradientUnits="userSpaceOnUse">
<stop stop-color="#0A0C0F"/>
<stop offset="1" stop-color="#1F2329" stop-opacity="0"/>
</linearGradient>
<linearGradient id="paint1_linear_2656_14776" x1="118.934" y1="61.1768" x2="50.1656" y2="59.3322" gradientUnits="userSpaceOnUse">
<stop stop-color="#0A0C0F"/>
<stop offset="1" stop-color="#1F2329" stop-opacity="0"/>
</linearGradient>
</defs>
</svg>
