<svg width="100" height="100" viewBox="0 0 100 100" fill="none" xmlns="http://www.w3.org/2000/svg">
<g clip-path="url(#clip0_2656_14948)">
<path d="M41.6228 80C40.9214 80 40.3188 79.4667 40.2495 78.7575L39.5897 72.0427C39.5152 71.2868 40.0729 70.612 40.8297 70.5395L52.1869 69.4316C52.5541 69.3954 52.9125 69.5041 53.1983 69.7388C53.484 69.9718 53.6607 70.3031 53.6953 70.669L54.3551 77.3821C54.4296 78.1379 53.8737 78.8127 53.1152 78.8869L41.7579 79.9948C41.7129 80 41.6679 80.0017 41.6228 80.0017V80ZM41.3475 72.2239L41.938 78.2432L52.5991 77.2043L52.0085 71.185L41.3475 72.2239V72.2239Z" fill="#2E3A45"/>
<path d="M51.5034 76.421C50.828 76.421 50.2357 75.9258 50.137 75.2406L49.1706 68.5638C49.0615 67.8131 49.5862 67.1125 50.3413 67.0055L60.656 65.5231C61.4093 65.4144 62.1107 65.9373 62.2198 66.6897L63.1862 73.3665C63.2953 74.1172 62.7706 74.8178 62.0172 74.9248L51.7025 76.4072C51.6367 76.4176 51.5692 76.421 51.5051 76.421H51.5034ZM50.9353 68.6639L51.8012 74.6487L61.4215 73.2664L60.5556 67.2816L50.9353 68.6639V68.6639Z" fill="#2E3A45"/>
<path d="M20.468 72.9724C19.4619 72.6859 9.86934 71.4365 9.73252 68.2094C9.73079 68.1663 9.75157 68.1266 9.78794 68.1041C10.136 67.8798 11.9908 66.6166 12.5017 64.8615C13.2256 62.3747 12.4844 48.1599 15.7921 40.0111C19.9606 29.743 31.6642 24.7056 34.1494 23.7893C46.6531 19.185 60.6791 22.602 69.3053 30.5196C75.9035 36.5769 79.3498 40.7014 80.9084 53.1266C81.0037 53.8807 81.0591 55.5495 81.6012 57.4409C82.2939 59.8569 87.6625 60.7198 90.2602 63.1358C90.5131 63.3705 84.0257 63.6535 84.0257 63.6535C74.6254 63.9434 73.3975 68.0265 55.2775 72.1096C55.2775 72.1096 40.0376 75.561 27.3953 74.1804C26.8221 74.1183 21.6803 73.3176 20.468 72.9724V72.9724Z" fill="url(#paint0_linear_2656_14948)"/>
<path d="M33.9017 76.2361C31.659 76.2361 29.4007 76.136 27.2065 75.8961C26.6004 75.8305 21.3426 75.0142 19.997 74.6329C19.8948 74.607 19.5207 74.5362 19.1917 74.4741C13.4715 73.3972 8.1548 71.9028 8.00067 68.2839C7.97296 67.6333 8.29681 67.0103 8.8458 66.6566C9.4121 66.2924 10.5568 65.3467 10.8357 64.3821C11.0036 63.8022 11.0972 61.6364 11.1872 59.5431C11.4314 53.8465 11.8003 45.2369 14.185 39.366C18.8557 27.864 32.0591 22.7196 33.5501 22.1708C46.021 17.5787 60.8626 20.4244 70.4794 29.2515C77.5313 35.7247 81.0296 40.1684 82.6281 52.9129C82.6489 53.0855 82.6696 53.3012 82.6939 53.5549C82.7701 54.3798 82.8844 55.6257 83.2688 56.9666C83.4438 57.5741 85.3782 58.4628 86.6597 59.0513C88.2807 59.7951 90.1164 60.639 91.4447 61.8746C91.9626 62.3561 92.1392 63.0929 91.8933 63.7522C91.488 64.8463 90.4403 64.9481 89.4272 65.0482C88.8851 65.1017 88.1439 65.1569 87.2243 65.2139C85.6761 65.3088 84.1192 65.3778 84.1036 65.3778H84.0811C79.6545 65.5159 77.1971 66.5427 73.4789 68.0993C69.8074 69.6352 64.7765 71.7388 55.662 73.7942C55.139 73.9132 44.729 76.2361 33.9034 76.2361H33.9017ZM11.9492 68.6187C12.3666 68.9224 13.132 69.3435 14.5244 69.8077C16.4294 70.4428 18.563 70.8449 19.8359 71.0848C20.4334 71.1969 20.7295 71.2539 20.9443 71.316C22.0128 71.6197 27.0887 72.4136 27.584 72.4671C29.612 72.688 31.7162 72.7812 33.8151 72.7812C44.3463 72.7812 54.7684 70.4566 54.893 70.429C63.7149 68.441 68.3839 66.4874 72.135 64.9188C76.061 63.2759 78.8977 62.0903 83.9598 61.9315C84.1659 61.9229 84.3755 61.9125 84.5868 61.9022C82.4289 60.8995 80.4927 59.8641 79.9351 57.9175C79.4606 56.2642 79.3238 54.7663 79.2424 53.8707C79.2233 53.6636 79.2077 53.4858 79.1904 53.3426C77.727 41.6767 74.6964 37.8163 68.1328 31.79C64.0699 28.0607 58.6355 25.3479 52.8304 24.1502C46.6842 22.8818 40.4324 23.3184 34.7503 25.41C34.2152 25.6067 21.5798 30.3594 17.3975 40.6602C15.2379 45.9789 14.8846 54.2313 14.6508 59.6915C14.5192 62.7633 14.4378 64.4097 14.1659 65.345C13.7555 66.7549 12.7822 67.8749 11.9492 68.6204V68.6187Z" fill="#2E3A45"/>
</g>
<defs>
<linearGradient id="paint0_linear_2656_14948" x1="46.5007" y1="63.4995" x2="41.5007" y2="18.9995" gradientUnits="userSpaceOnUse">
<stop stop-color="#0A0C0F"/>
<stop offset="1" stop-color="#1F2329" stop-opacity="0"/>
</linearGradient>
<clipPath id="clip0_2656_14948">
<rect width="84" height="60" fill="white" transform="translate(8 20)"/>
</clipPath>
</defs>
</svg>
