<svg width="100" height="100" viewBox="0 0 100 100" fill="none" xmlns="http://www.w3.org/2000/svg">
<g clip-path="url(#clip0_2656_14913)">
<path d="M89.4841 26.1329H9.89502V73.6379H89.4841V26.1329Z" fill="url(#paint0_linear_2656_14913)"/>
<path d="M91 76.0886H8V24.0593H91V76.0886ZM11.79 72.3184H87.2101V27.8296H11.79V72.3184Z" fill="#2E3A45"/>
<path d="M10.8815 24.3351L8.90234 27.5504L88.1161 75.8023L90.0952 72.5869L10.8815 24.3351Z" fill="#2E3A45"/>
<path d="M88.1171 24.344L8.90332 72.5959L10.8824 75.8112L90.0962 27.5594L88.1171 24.344Z" fill="#2E3A45"/>
<path d="M43.4174 87.7782C42.2671 88.1175 41.5148 88.406 41.1623 88.6454C40.808 88.8848 40.5882 89.2543 40.4991 89.7576C41.0676 89.079 41.7877 88.7396 42.6594 88.7396C43.2904 88.7396 43.9442 88.9941 44.6207 89.5031C45.2972 90.0121 45.7804 90.2666 46.0703 90.2666C46.2598 90.2666 46.474 90.1723 46.7146 89.9838C45.9566 89.833 45.5776 89.4183 45.5776 88.7396C45.5776 88.3494 45.7198 88.0195 46.004 87.7499C46.2882 87.4804 46.6388 87.3446 47.0557 87.3446C47.5996 87.3446 48.0468 87.5652 48.4011 88.0044C48.7555 88.4437 48.9317 88.9979 48.9317 89.6633C48.9317 90.5437 48.6248 91.3091 48.0127 91.9632C47.4006 92.6173 46.6824 92.9435 45.8619 92.9435C45.0414 92.9435 44.0995 92.5721 43.1521 91.8312C42.4945 91.3166 42.0662 91.0583 41.8635 91.0583C41.7365 91.0583 41.6171 91.1205 41.5034 91.2468C41.5792 91.3845 41.6171 91.5164 41.6171 91.6427C41.6171 92.0329 41.4674 92.3553 41.1718 92.6136C40.8743 92.8718 40.4991 93 40.0443 93C39.3867 93 38.8372 92.7323 38.3957 92.1988C37.9541 91.6653 37.7324 90.9961 37.7324 90.1912C37.7324 88.2175 39.2162 86.6528 42.1856 85.4972C43.3226 85.058 44.056 84.7111 44.3838 84.4604C44.7116 84.2097 44.8765 83.8704 44.8765 83.4425C44.8765 83.0654 44.7059 82.7638 44.3648 82.5376C44.0237 82.3114 43.5746 82.1983 43.0194 82.1983C42.4642 82.1983 41.9715 82.3246 41.5034 82.5753C41.7441 82.8901 41.8635 83.2106 41.8635 83.5367C41.8635 84.0136 41.6872 84.4189 41.3329 84.7526C40.9785 85.0863 40.5503 85.2522 40.0443 85.2522C39.4758 85.2522 39.0115 85.0637 38.6515 84.6866C38.2914 84.3096 38.1114 83.8251 38.1114 83.2351C38.1114 82.2039 38.589 81.3651 39.5421 80.7185C40.4953 80.0719 41.7365 79.7476 43.2658 79.7476C44.795 79.7476 46.0286 80.0869 46.9325 80.7656C47.8364 81.4442 48.2874 82.3623 48.2874 83.5179C48.2874 84.7375 47.7891 85.6801 46.7904 86.3455C46.0192 86.8602 44.8954 87.339 43.4174 87.7782Z" fill="#2E3A45"/>
<path d="M50.1636 89.0036C50.1636 87.5841 50.9538 86.5208 52.5323 85.8177C51.3707 85.3144 50.7889 84.4849 50.7889 83.3293C50.7889 82.2869 51.2532 81.4291 52.1817 80.7562C53.1103 80.0832 54.2889 79.7476 55.7159 79.7476C57.1428 79.7476 58.3215 80.0869 59.25 80.7656C60.1785 81.4442 60.6428 82.3057 60.6428 83.3482C60.6428 84.4925 60.0554 85.3144 58.8805 85.8177C60.4722 86.5208 61.2681 87.5841 61.2681 89.0036C61.2681 90.1855 60.7565 91.1469 59.7332 91.8878C58.7099 92.6286 57.3702 93 55.7159 93C54.0615 93 52.7218 92.6324 51.6985 91.8972C50.6752 91.162 50.1636 90.1968 50.1636 89.0036ZM55.7159 86.9865C54.9958 86.9865 54.4045 87.1524 53.9441 87.486C53.4836 87.8197 53.2524 88.2438 53.2524 88.7585C53.2524 89.2731 53.4741 89.6916 53.9156 90.0121C54.3572 90.3326 54.9446 90.4928 55.678 90.4928C56.4113 90.4928 57.0234 90.3326 57.4782 90.0121C57.933 89.6916 58.1604 89.2731 58.1604 88.7585C58.1604 88.2438 57.9292 87.8348 57.4687 87.4955C57.0082 87.1561 56.4227 86.9865 55.7159 86.9865ZM55.659 82.0475C55.153 82.0475 54.7437 82.1606 54.4273 82.3868C54.1108 82.613 53.9535 82.909 53.9535 83.2728C53.9535 83.6366 54.1184 83.9609 54.4462 84.2059C54.7741 84.451 55.1909 84.5735 55.6969 84.5735C56.2029 84.5735 56.6254 84.451 56.9665 84.2059C57.3076 83.9609 57.4782 83.6555 57.4782 83.2916C57.4782 82.9278 57.3038 82.645 56.9571 82.4056C56.6103 82.1662 56.1763 82.0475 55.659 82.0475Z" fill="#2E3A45"/>
<path d="M30.7301 17.1428L32.644 14.466L30.749 11.5817C30.3189 10.9276 29.902 10.6015 29.4983 10.6015H29.233C29.1572 10.6147 29.0492 10.6203 28.9109 10.6203C28.2154 10.6203 27.8687 10.2244 27.8687 9.43269C27.8687 9.00477 28.0051 8.65979 28.2761 8.39587C28.5471 8.13196 28.8976 8 29.3278 8C29.5684 8 29.7883 8.0132 29.991 8.0377C30.8116 8.13761 31.3042 8.18851 31.4691 8.18851C31.7098 8.18851 32.0622 8.15646 32.5303 8.09426C32.9984 8.03205 33.3508 8 33.5915 8C33.9458 8 34.232 8.12253 34.4537 8.3676C34.6754 8.61266 34.7853 8.92936 34.7853 9.31958C34.7853 9.6721 34.6773 9.91717 34.4632 10.0548L34.16 10.2433C34.0084 10.3319 33.9326 10.4375 33.9326 10.5638C33.9326 10.7278 34.0141 10.9596 34.1789 11.2613L35.1075 12.9767L36.1876 11.2613C36.4017 10.9219 36.5097 10.6901 36.5097 10.5638C36.5097 10.4507 36.4283 10.3432 36.2634 10.2433C35.8844 10.0039 35.6949 9.70226 35.6949 9.33843C35.6949 8.9369 35.8029 8.61266 36.0171 8.3676C36.2312 8.12253 36.5154 8 36.8698 8C37.0972 8 37.4383 8.03205 37.8931 8.09426C38.3479 8.15646 38.6947 8.18851 38.9353 8.18851C39.1627 8.18851 39.4962 8.15646 39.9397 8.09426C40.3812 8.03205 40.7109 8 40.925 8C41.2661 8 41.5561 8.13761 41.7967 8.41473C42.0374 8.69184 42.1568 9.03116 42.1568 9.43269C42.1568 9.78521 42.062 10.0736 41.8725 10.2998C41.683 10.5261 41.4367 10.6392 41.1335 10.6392C41.1089 10.6392 41.071 10.6335 41.0198 10.6203H40.8871C40.7109 10.5958 40.6029 10.5826 40.565 10.5826C40.2751 10.5826 39.8885 10.9163 39.4091 11.5817L37.5141 14.1832L39.4091 17.1428L39.7502 17.5953L40.0344 18.01C40.1727 18.1231 40.3243 18.1796 40.4892 18.1796C40.6162 18.1796 40.7299 18.1664 40.8303 18.1419C40.8815 18.1419 40.944 18.1363 41.0198 18.1231H41.1903C41.8479 18.1231 42.1757 18.5246 42.1757 19.3296C42.1757 19.7311 42.0488 20.0685 41.7967 20.3381C41.5447 20.6077 41.2226 20.7434 40.8303 20.7434C40.7166 20.7434 40.3888 20.7 39.8449 20.6114C39.6175 20.5737 39.2442 20.5549 38.7269 20.5549C38.183 20.5549 37.7794 20.5737 37.5141 20.6114C36.9077 20.7 36.5666 20.7434 36.4908 20.7434C36.1743 20.7434 35.9223 20.6265 35.7328 20.3947C35.5433 20.1628 35.4486 19.8631 35.4486 19.4992C35.4486 19.1976 35.4921 18.9865 35.5812 18.8677C35.6703 18.7489 35.8598 18.6076 36.1497 18.4436C36.3259 18.3436 36.415 18.2362 36.415 18.1231C36.415 18.0345 36.3392 17.8592 36.1876 17.5953L35.1075 15.729L34.0084 17.3879C33.7563 17.7649 33.6294 18.0232 33.6294 18.1608C33.6294 18.2607 33.6862 18.3493 33.7999 18.4247L34.16 18.6509C34.4253 18.8149 34.5579 19.0977 34.5579 19.4992C34.5579 20.3287 34.1732 20.7434 33.402 20.7434C33.3508 20.7434 32.9093 20.6925 32.0755 20.5926C31.7344 20.5549 31.4312 20.536 31.1659 20.536C30.8381 20.536 30.5273 20.5605 30.2374 20.6114C29.7447 20.7 29.4093 20.7434 29.233 20.7434C28.8294 20.7434 28.4997 20.6114 28.2476 20.3475C27.9956 20.0836 27.8687 19.7443 27.8687 19.3296C27.8687 18.5246 28.1965 18.1231 28.854 18.1231C28.9431 18.1231 29.0682 18.1363 29.233 18.1608C29.3979 18.1853 29.5173 18.1985 29.5931 18.1985C29.7314 18.1985 29.8356 18.1702 29.9058 18.1137C29.9759 18.0571 30.1237 17.8912 30.3511 17.6141L30.7301 17.1428Z" fill="#2E3A45"/>
<path d="M45.2076 17.1428L47.1215 14.466L45.2266 11.5817C44.7964 10.9276 44.3795 10.6015 43.9759 10.6015H43.7106C43.6348 10.6147 43.5268 10.6203 43.3884 10.6203C42.693 10.6203 42.3462 10.2244 42.3462 9.43269C42.3462 9.00477 42.4826 8.65979 42.7536 8.39587C43.0246 8.13196 43.3752 8 43.8053 8C44.046 8 44.2658 8.0132 44.4686 8.0377C45.2891 8.13761 45.7818 8.18851 45.9466 8.18851C46.1873 8.18851 46.5398 8.15646 47.0078 8.09426C47.4759 8.03205 47.8284 8 48.069 8C48.4234 8 48.7095 8.12253 48.9312 8.3676C49.1529 8.61266 49.2629 8.92936 49.2629 9.31958C49.2629 9.6721 49.1548 9.91717 48.9407 10.0548L48.6375 10.2433C48.4859 10.3319 48.4101 10.4375 48.4101 10.5638C48.4101 10.7278 48.4916 10.9596 48.6565 11.2613L49.585 12.9767L50.6651 11.2613C50.8793 10.9219 50.9873 10.6901 50.9873 10.5638C50.9873 10.4507 50.9058 10.3432 50.7409 10.2433C50.3619 10.0039 50.1724 9.70226 50.1724 9.33843C50.1724 8.9369 50.2805 8.61266 50.4946 8.3676C50.7087 8.12253 50.993 8 51.3473 8C51.5747 8 51.9158 8.03205 52.3706 8.09426C52.8254 8.15646 53.1722 8.18851 53.4129 8.18851C53.6403 8.18851 53.9738 8.15646 54.4172 8.09426C54.8587 8.03205 55.1884 8 55.4026 8C55.7437 8 56.0336 8.13761 56.2743 8.41473C56.5149 8.69184 56.6343 9.03116 56.6343 9.43269C56.6343 9.78521 56.5396 10.0736 56.3501 10.2998C56.1606 10.5261 55.9142 10.6392 55.611 10.6392C55.5864 10.6392 55.5485 10.6335 55.4973 10.6203H55.3647C55.1885 10.5958 55.0804 10.5826 55.0425 10.5826C54.7526 10.5826 54.366 10.9163 53.8866 11.5817L51.9916 14.1832L53.8866 17.1428L54.2277 17.5953L54.5119 18.01C54.6503 18.1231 54.8019 18.1796 54.9667 18.1796C55.0937 18.1796 55.2074 18.1664 55.3078 18.1419C55.359 18.1419 55.4215 18.1363 55.4973 18.1231H55.6679C56.3254 18.1231 56.6533 18.5246 56.6533 19.3296C56.6533 19.7311 56.5263 20.0685 56.2743 20.3381C56.0222 20.6077 55.7001 20.7434 55.3078 20.7434C55.1941 20.7434 54.8663 20.7 54.3224 20.6114C54.095 20.5737 53.7217 20.5549 53.2044 20.5549C52.6606 20.5549 52.2569 20.5737 51.9916 20.6114C51.3852 20.7 51.0441 20.7434 50.9683 20.7434C50.6519 20.7434 50.3998 20.6265 50.2103 20.3947C50.0208 20.1628 49.9261 19.8631 49.9261 19.4992C49.9261 19.1976 49.9697 18.9865 50.0587 18.8677C50.1478 18.7489 50.3373 18.6076 50.6272 18.4436C50.8035 18.3436 50.8925 18.2362 50.8925 18.1231C50.8925 18.0345 50.8167 17.8592 50.6651 17.5953L49.585 15.729L48.4859 17.3879C48.2339 17.7649 48.1069 18.0232 48.1069 18.1608C48.1069 18.2607 48.1638 18.3493 48.2775 18.4247L48.6375 18.6509C48.9028 18.8149 49.0355 19.0977 49.0355 19.4992C49.0355 20.3287 48.6508 20.7434 47.8795 20.7434C47.8284 20.7434 47.3868 20.6925 46.553 20.5926C46.2119 20.5549 45.9087 20.536 45.6435 20.536C45.3156 20.536 45.0048 20.5605 44.7149 20.6114C44.2222 20.7 43.8868 20.7434 43.7106 20.7434C43.3069 20.7434 42.9772 20.6114 42.7252 20.3475C42.4732 20.0836 42.3462 19.7443 42.3462 19.3296C42.3462 18.5246 42.674 18.1231 43.3316 18.1231C43.4206 18.1231 43.5457 18.1363 43.7106 18.1608C43.8754 18.1853 43.9948 18.1985 44.0706 18.1985C44.209 18.1985 44.3132 18.1702 44.3833 18.1137C44.4534 18.0571 44.6012 17.8912 44.8286 17.6141L45.2076 17.1428Z" fill="#2E3A45"/>
<path d="M59.6851 17.1428L61.5991 14.466L59.7041 11.5817C59.2739 10.9276 58.857 10.6015 58.4534 10.6015H58.1881C58.1123 10.6147 58.0043 10.6203 57.866 10.6203C57.1705 10.6203 56.8237 10.2244 56.8237 9.43269C56.8237 9.00477 56.9602 8.65979 57.2311 8.39587C57.5021 8.13196 57.8527 8 58.2829 8C58.5235 8 58.7433 8.0132 58.9461 8.0377C59.7666 8.13761 60.2593 8.18851 60.4242 8.18851C60.6648 8.18851 61.0173 8.15646 61.4854 8.09426C61.9534 8.03205 62.3059 8 62.5466 8C62.9009 8 63.1871 8.12253 63.4088 8.3676C63.6305 8.61266 63.7404 8.92936 63.7404 9.31958C63.7404 9.6721 63.6324 9.91717 63.4183 10.0548L63.1151 10.2433C62.9635 10.3319 62.8877 10.4375 62.8877 10.5638C62.8877 10.7278 62.9691 10.9596 63.134 11.2613L64.0625 12.9767L65.1427 11.2613C65.3568 10.9219 65.4648 10.6901 65.4648 10.5638C65.4648 10.4507 65.3833 10.3432 65.2185 10.2433C64.8395 10.0039 64.65 9.70226 64.65 9.33843C64.65 8.9369 64.758 8.61266 64.9721 8.3676C65.1863 8.12253 65.4705 8 65.8249 8C66.0523 8 66.3934 8.03205 66.8482 8.09426C67.303 8.15646 67.6497 8.18851 67.8904 8.18851C68.1178 8.18851 68.4513 8.15646 68.8947 8.09426C69.3363 8.03205 69.666 8 69.8801 8C70.2212 8 70.5112 8.13761 70.7518 8.41473C70.9925 8.69184 71.1119 9.03116 71.1119 9.43269C71.1119 9.78521 71.0171 10.0736 70.8276 10.2998C70.6381 10.5261 70.3918 10.6392 70.0886 10.6392C70.0639 10.6392 70.026 10.6335 69.9749 10.6203H69.8422C69.666 10.5958 69.558 10.5826 69.5201 10.5826C69.2301 10.5826 68.8436 10.9163 68.3641 11.5817L66.4692 14.1832L68.3641 17.1428L68.7052 17.5953L68.9895 18.01C69.1278 18.1231 69.2794 18.1796 69.4443 18.1796C69.5712 18.1796 69.6849 18.1664 69.7854 18.1419C69.8365 18.1419 69.8991 18.1363 69.9749 18.1231H70.1454C70.803 18.1231 71.1308 18.5246 71.1308 19.3296C71.1308 19.7311 71.0038 20.0685 70.7518 20.3381C70.4998 20.6077 70.1776 20.7434 69.7854 20.7434C69.6717 20.7434 69.3438 20.7 68.8 20.6114C68.5726 20.5737 68.1993 20.5549 67.682 20.5549C67.1381 20.5549 66.7345 20.5737 66.4692 20.6114C65.8628 20.7 65.5217 20.7434 65.4459 20.7434C65.1294 20.7434 64.8774 20.6265 64.6879 20.3947C64.4984 20.1628 64.4036 19.8631 64.4036 19.4992C64.4036 19.1976 64.4472 18.9865 64.5363 18.8677C64.6254 18.7489 64.8149 18.6076 65.1048 18.4436C65.281 18.3436 65.3701 18.2362 65.3701 18.1231C65.3701 18.0345 65.2943 17.8592 65.1427 17.5953L64.0625 15.729L62.9635 17.3879C62.7114 17.7649 62.5845 18.0232 62.5845 18.1608C62.5845 18.2607 62.6413 18.3493 62.755 18.4247L63.1151 18.6509C63.3804 18.8149 63.513 19.0977 63.513 19.4992C63.513 20.3287 63.1283 20.7434 62.3571 20.7434C62.3059 20.7434 61.8644 20.6925 61.0306 20.5926C60.6895 20.5549 60.3863 20.536 60.121 20.536C59.7932 20.536 59.4824 20.5605 59.1925 20.6114C58.6998 20.7 58.3643 20.7434 58.1881 20.7434C57.7845 20.7434 57.4548 20.6114 57.2027 20.3475C56.9507 20.0836 56.8237 19.7443 56.8237 19.3296C56.8237 18.5246 57.1516 18.1231 57.8091 18.1231C57.8982 18.1231 58.0233 18.1363 58.1881 18.1608C58.353 18.1853 58.4724 18.1985 58.5482 18.1985C58.6865 18.1985 58.7907 18.1702 58.8608 18.1137C58.9309 18.0571 59.0788 17.8912 59.3062 17.6141L59.6851 17.1428Z" fill="#2E3A45"/>
</g>
<defs>
<linearGradient id="paint0_linear_2656_14913" x1="76" y1="39" x2="9.99999" y2="81" gradientUnits="userSpaceOnUse">
<stop stop-color="#0A0C0F"/>
<stop offset="1" stop-color="#1F2329" stop-opacity="0"/>
</linearGradient>
<clipPath id="clip0_2656_14913">
<rect width="83" height="85" fill="white" transform="translate(8 8)"/>
</clipPath>
</defs>
</svg>
