<svg width="100" height="100" viewBox="0 0 100 100" fill="none" xmlns="http://www.w3.org/2000/svg">
<g clip-path="url(#clip0_2656_14563)">
<path d="M88.9263 99.5714C87.0066 91.191 82.9619 79.2643 73.3769 68.8177C65.5293 60.2643 59.5073 58.7401 53.4123 52.8642C45.7202 45.4468 38.0568 31.2309 40.5505 1.15955H5L6.29962 99.5714H88.9263Z" fill="url(#paint0_linear_2656_14563)"/>
<path d="M87.0183 100C84.2981 88.1195 79.2206 78.0668 71.9258 70.117C67.5739 65.3733 63.8229 62.8841 60.1966 60.4757C57.4016 58.6209 54.762 56.8679 52.0437 54.2481C47.2119 49.5889 43.5953 43.4766 41.2916 36.0784C38.3565 26.6544 37.4523 14.8507 38.6003 1L42.4262 1.31715C41.3185 14.6739 42.1689 25.9835 44.9563 34.9348C47.0948 41.8044 50.2834 47.2151 54.7063 51.4784C57.1731 53.856 59.6706 55.5148 62.3178 57.2716C65.9576 59.6877 70.0849 62.4286 74.7535 67.5164C82.5032 75.9621 87.8879 86.6029 90.7598 99.1408L87.0183 100Z" fill="#2E3A45"/>
<path d="M48.2045 10.2838L44.2634 12.5615L40.3223 14.8391V10.2838V5.72644L44.2634 8.00606L48.2045 10.2838Z" fill="#2E3A45"/>
<path d="M49.306 22.7294L45.7738 25.603L42.2435 28.4765L41.5236 23.9788L40.8037 19.4791L45.0539 21.1033L49.306 22.7294Z" fill="#2E3A45"/>
<path d="M52.8058 35.0386L50.0031 38.6291L47.2004 42.2176L45.4976 37.9929L43.793 33.7681L48.3004 34.4024L52.8058 35.0386Z" fill="#2E3A45"/>
<path d="M58.1423 45.7697L57.0251 50.1867L55.9078 54.6037L52.6463 51.4264L49.3848 48.2492L53.7635 47.0094L58.1423 45.7697Z" fill="#2E3A45"/>
<path d="M67.9674 53.2775L67.7159 57.8271L67.4625 62.3767L63.6539 59.8837L59.8452 57.3908L63.9053 55.3341L67.9674 53.2775Z" fill="#2E3A45"/>
<path d="M79.0092 62.4036L77.6386 66.7494L76.2679 71.0934L73.1964 67.7336L70.123 64.3718L74.5671 63.3877L79.0092 62.4036Z" fill="#2E3A45"/>
<path d="M87.0986 73.1174L85.0906 77.2057L83.0826 81.296L80.5506 77.5114L78.0166 73.7248L82.5586 73.4211L87.0986 73.1174Z" fill="#2E3A45"/>
<path d="M94.0002 85.7706L91.3971 89.5091L88.794 93.2457L86.8628 89.1189L84.9316 84.9922L89.4659 85.3824L94.0002 85.7706Z" fill="#2E3A45"/>
</g>
<defs>
<linearGradient id="paint0_linear_2656_14563" x1="46.9632" y1="1.15955" x2="46.9632" y2="99.5714" gradientUnits="userSpaceOnUse">
<stop stop-color="#0A0C0F"/>
<stop offset="1" stop-color="#1F2329" stop-opacity="0"/>
</linearGradient>
<clipPath id="clip0_2656_14563">
<rect width="89" height="99" fill="white" transform="translate(5 1)"/>
</clipPath>
</defs>
</svg>
