<svg width="123" height="100" viewBox="0 0 123 100" fill="none" xmlns="http://www.w3.org/2000/svg">
<path d="M2.07722 62.1635C2.07722 62.1635 12.6891 40.1613 42.5401 30.9459C39.3488 28.8798 32.8456 26.0222 32.8456 26.0222L62.1479 24.4839L48.6033 44.1109L47.0117 35.3627C47.0117 35.3627 27.1575 43.6251 19.4595 71.1596" fill="url(#paint0_linear_2656_12250)"/>
<path d="M20.4363 72.914L17.7136 72.1507L18.0975 70.7777C19.8907 64.362 22.4892 58.444 25.8204 53.1868C28.4907 48.9724 31.6349 45.1706 35.1659 41.8895C41.2096 36.2729 46.2639 34.1337 46.4769 34.0454L48.0896 33.3742L49.3835 40.488L59.3426 26.0572L38.5939 27.146C40.2741 27.9838 42.0329 28.9181 43.3076 29.7438L45.8725 31.4034L42.9485 32.3062C36.2641 34.3703 30.0177 37.2638 24.3837 40.908C19.8813 43.8201 15.7591 47.2148 12.1284 50.9969C5.97231 57.4108 3.37389 62.7276 3.34824 62.7801L2.72829 64.0643L0.185996 62.8266L0.805943 61.5424C0.918324 61.3097 3.63254 55.7582 10.1006 49.0187C13.8844 45.0767 18.1784 41.5413 22.865 38.5091C27.8472 35.2866 33.2852 32.6307 39.0698 30.5916C35.9707 28.9537 32.3251 27.3463 32.2762 27.3258L26.7819 24.9106L64.9537 22.9091L47.8236 47.7323L45.9562 37.4649C43.8209 38.6313 40.4568 40.8261 36.9786 44.0743C33.6462 47.1874 30.6768 50.7935 28.1526 54.7922C24.9964 59.7921 22.5294 65.4277 20.8203 71.541L20.4363 72.914Z" fill="#C12A2A"/>
<path d="M55.1812 90.3405C55.1812 90.3405 85.019 84.6765 105.692 51.7929C107.146 56.2903 108.485 65.0198 108.485 65.0198L119.762 30.3248L91.8325 40.2752L101.826 45.0016C101.826 45.0016 85.5149 66.1863 49.971 66.5708" fill="url(#paint1_linear_2656_12250)"/>
<path d="M48.1783 64.8333L48.2188 68.3487L49.9912 68.3295C58.2731 68.2404 66.2163 67.0242 73.6017 64.7153C79.5222 62.8647 85.0997 60.3122 90.1762 57.1274C98.8662 51.6767 103.062 46.2954 103.236 46.068L104.561 44.3472L96.4344 40.5042L116.969 33.1877L108.985 57.755C108.52 55.4676 107.964 53.0547 107.382 51.2582L106.214 47.644L104.189 50.8649C99.5595 58.2282 94.0747 64.7986 87.8853 70.3919C82.9393 74.8618 77.5361 78.72 71.8257 81.8631C62.1422 87.1922 54.921 88.6019 54.8497 88.6158L53.1079 88.947L53.7763 92.3984L55.518 92.0672C55.8336 92.0071 63.3739 90.5339 73.5489 84.935C79.5005 81.6594 85.1279 77.6402 90.2775 72.9877C95.7507 68.0414 100.69 62.3654 105 56.0746C105.97 60.3235 106.727 65.2189 106.736 65.2841L107.869 72.6596L122.556 27.4622L87.2325 40.0464L98.9619 45.5929C96.8742 47.782 93.1558 51.1157 88.1357 54.2475C83.3248 57.2478 78.0386 59.6534 72.4243 61.398C65.4041 63.5795 57.8423 64.7286 49.9507 64.814L48.1783 64.8333Z" fill="#C12A2A"/>
<defs>
<linearGradient id="paint0_linear_2656_12250" x1="38.0066" y1="18.7044" x2="25.1239" y2="72.5157" gradientUnits="userSpaceOnUse">
<stop stop-color="#0A0C0F"/>
<stop offset="1" stop-color="#1F2329" stop-opacity="0"/>
</linearGradient>
<linearGradient id="paint1_linear_2656_12250" x1="118.934" y1="61.1766" x2="50.1651" y2="59.332" gradientUnits="userSpaceOnUse">
<stop stop-color="#0A0C0F"/>
<stop offset="1" stop-color="#1F2329" stop-opacity="0"/>
</linearGradient>
</defs>
</svg>
