<!-- Generated by IcoMoon.io -->
<svg version="1.1" xmlns="http://www.w3.org/2000/svg" width="1024" height="1024" viewBox="0 0 1024 1024">
<title></title>
<g id="icomoon-ignore">
</g>
<path fill="#fff" d="M579.13 823.304h103.042l213.701-623.2h-103.068l-146.899 463.374c-1.381 4.82-2.882 10.729-4.686 17.45-1.644 6.883-3.299 14.032-4.807 21.438-1.523 7.285-2.882 14.706-4.267 22.138-1.238 7.285-2.199 14.153-2.748 20.334h-2.476c-0.54-5.903-1.498-12.632-2.748-20.194-1.381-7.422-2.882-14.987-4.686-22.531-1.778-7.566-3.562-14.851-5.481-21.986-1.804-7.002-3.582-13.183-5.224-18.273l-144.434-461.737h-100.309l215.064 623.2zM275.58 281.451h54.67v-81.347h-202.133v81.347h53.594v460.076h-53.594v81.775h202.133v-81.775h-54.67v-460.076z"></path>
</svg>
