<!-- Generated by IcoMoon.io -->
<svg version="1.1" xmlns="http://www.w3.org/2000/svg" width="1024" height="1024" viewBox="0 0 1024 1024">
<title></title>
<g id="icomoon-ignore">
</g>
<path fill="#fff" d="M339.976 831.29h104.872l218.872-639.194h-105.69l-150.396 475.266c-1.27 4.946-2.818 11.008-4.516 17.9-1.686 7.058-3.246 14.392-4.78 21.988-1.42 7.472-2.956 15.083-4.226 22.706-0.977 4.595-2.173 11.687-3.16 18.842l-0.224 2.012h-2.404c-0.262-6.054-1.132-12.954-2.526-20.716-1.42-7.612-2.956-15.372-4.806-23.113-2.261-10.645-4.167-18.223-6.254-25.718l0.75 3.164c-1.974-7.182-3.657-13.525-4.93-18.742l-148.268-473.588h-104.028l221.705 639.194zM850.759 275.532h54.97v-83.434h-207.323v83.434h56.076v471.882h-56.076v83.877h207.323v-83.877h-54.97v-471.882z"></path>
</svg>
