<?xml version="1.0" encoding="utf-8"?>
<!-- Generator: Adobe Illustrator 16.0.0, SVG Export Plug-In . SVG Version: 6.00 Build 0)  -->
<!DOCTYPE svg PUBLIC "-//W3C//DTD SVG 1.1//EN" "http://www.w3.org/Graphics/SVG/1.1/DTD/svg11.dtd">
<svg version="1.1" id="Layer_1" xmlns="http://www.w3.org/2000/svg" xmlns:xlink="http://www.w3.org/1999/xlink" x="0px" y="0px"
	 width="141.7px" height="141.7px" viewBox="0 0 141.7 141.7" enable-background="new 0 0 141.7 141.7" xml:space="preserve">
<g>
	<path d="M138.667,110.239c-0.426-1.883-1.559-3.484-3.189-4.514c-0.496-0.314-1.025-0.563-1.576-0.748
		c0.178-3.46-0.902-6.934-3.092-9.697l-0.211-0.267c0.824-1.914,0.172-4.198-1.645-5.346l-3.506-2.216
		c-0.693-0.436-1.488-0.665-2.303-0.665l0,0c-1.146,0-2.215,0.447-3.01,1.227l-16.424-9.345c0.008-0.406-0.014-0.813-0.105-1.22
		c-0.293-1.298-1.074-2.405-2.203-3.116c-0.795-0.501-1.715-0.768-2.656-0.768c-0.961,0-1.871,0.278-2.652,0.77l-0.006-0.004
		l-3.303-1.879l19.189-13.39c0.555,0.251,1.162,0.394,1.795,0.394c0.822,0,1.623-0.233,2.318-0.673
		c1.396-0.881,2.096-2.435,1.986-3.979l0.037-0.025l7.182-5.011c0.623,0.231,1.289,0.353,1.969,0.353c1.063,0,2.098-0.3,2.998-0.869
		c2.621-1.656,3.406-5.136,1.752-7.759l-6-9.501c-1.039-1.643-2.818-2.623-4.76-2.623c-1.063,0-2.1,0.301-3,0.869
		c-1.521,0.962-2.449,2.555-2.6,4.262l-7.613,4.331l-0.018,0.011c-0.645-0.369-1.381-0.573-2.154-0.573
		c-0.82,0-1.621,0.232-2.316,0.671c-0.979,0.619-1.658,1.581-1.914,2.711c-0.066,0.293-0.1,0.589-0.105,0.883L71.594,59.566
		l-0.729,0.414l-30.67-17.45c-0.027-1.412-0.734-2.784-2.015-3.593c-0.695-0.439-1.496-0.67-2.316-0.67
		c-0.772,0-1.51,0.204-2.154,0.572l-0.019-0.01L26.08,34.5c-0.149-1.707-1.077-3.299-2.596-4.261
		c-0.904-0.569-1.941-0.87-3.003-0.87c-1.943,0-3.722,0.98-4.759,2.622l-6.001,9.502c-1.654,2.622-0.868,6.102,1.752,7.759
		c0.899,0.568,1.936,0.869,2.998,0.869c0.681,0,1.346-0.122,1.968-0.353l7.182,5.011l0.037,0.026
		c-0.109,1.542,0.591,3.097,1.988,3.979c0.694,0.439,1.496,0.672,2.316,0.672c0.634,0,1.241-0.143,1.796-0.395l19.19,13.391
		l-3.302,1.879l-0.007,0.004c-0.781-0.491-1.691-0.77-2.652-0.77c-0.942,0-1.861,0.267-2.66,0.77
		c-1.124,0.709-1.906,1.814-2.199,3.114c-0.092,0.407-0.114,0.813-0.105,1.22l-16.423,9.345c-0.796-0.779-1.865-1.227-3.012-1.227
		c-0.814,0-1.609,0.229-2.299,0.663l-3.509,2.216c-1.816,1.148-2.467,3.434-1.644,5.348l-0.21,0.267
		c-2.19,2.762-3.271,6.235-3.092,9.697c-0.552,0.185-1.082,0.434-1.579,0.75c-1.629,1.027-2.762,2.629-3.188,4.512
		c-0.425,1.882-0.091,3.816,0.938,5.446c1.331,2.108,3.616,3.366,6.111,3.366c1.363,0,2.694-0.385,3.851-1.114
		c0.496-0.313,0.949-0.686,1.349-1.104c2.091,1.134,4.452,1.74,6.867,1.74c1.084,0,2.167-0.123,3.222-0.365l0.32-0.074
		c0.812,0.932,1.98,1.478,3.244,1.478c0.814,0,1.608-0.229,2.299-0.664l3.509-2.218c0.973-0.612,1.65-1.569,1.904-2.695
		c0.179-0.79,0.121-1.592-0.134-2.34l15.489-10.81c0.688,0.352,1.457,0.547,2.26,0.547c0.942,0,1.861-0.267,2.659-0.771
		c1.673-1.057,2.497-2.952,2.28-4.798l0.005-0.004l11.373-7.937l0.253-0.176l11.627,8.112l0.004,0.004
		c-0.216,1.846,0.608,3.741,2.282,4.798c0.797,0.505,1.715,0.771,2.658,0.771c0.803,0,1.572-0.195,2.26-0.547l15.49,10.81
		c-0.258,0.748-0.314,1.552-0.135,2.343c0.254,1.125,0.932,2.082,1.906,2.696l3.504,2.211c0.691,0.438,1.486,0.667,2.299,0.667
		c1.266,0,2.434-0.546,3.246-1.478l0.32,0.074c1.055,0.242,2.139,0.365,3.223,0.365c2.414,0,4.773-0.606,6.865-1.74
		c0.4,0.418,0.852,0.788,1.348,1.102c1.158,0.731,2.49,1.116,3.854,1.116c2.494,0,4.779-1.258,6.109-3.366
		C138.756,114.055,139.092,112.121,138.667,110.239z"/>
	<g>
		<path fill="#FFFFFF" d="M32.411,41.083l-9.053-5.15c0.421-1.29-0.063-2.746-1.261-3.504c-1.416-0.893-3.289-0.471-4.184,0.945
			l-6,9.501c-0.894,1.416-0.47,3.288,0.945,4.183c1.198,0.758,2.723,0.567,3.705-0.366l8.541,5.96L32.411,41.083z"/>
		<polygon fill="#FFFFFF" points="119.168,90.448 102.424,80.92 91.165,98.749 106.963,109.774 		"/>
		<path fill="#FFFFFF" d="M134.094,107.917c-0.98-0.619-2.102-0.822-3.164-0.66c0.965-3.599,0.152-7.457-2.154-10.367
			l-11.865,18.792c3.617,0.832,7.451-0.091,10.285-2.51c0.311,1.026,0.975,1.952,1.953,2.572c2.162,1.363,5.021,0.719,6.387-1.443
			C136.901,112.141,136.254,109.282,134.094,107.917z"/>
		<path fill="#FFFFFF" d="M129.819,42.876l-6-9.501c-0.895-1.416-2.766-1.838-4.182-0.945c-1.199,0.758-1.684,2.215-1.264,3.504
			l-9.051,5.15l7.307,11.569l8.541-5.96c0.98,0.934,2.506,1.124,3.703,0.366C130.292,46.164,130.713,44.292,129.819,42.876z"/>
		<polygon fill="#FFFFFF" points="89.741,71.417 110.5,56.93 102.827,44.78 72.875,61.82 		"/>
		<polygon fill="#FFFFFF" points="57.756,93.734 69.13,85.797 51.885,73.764 46.927,76.584 		"/>
		<polygon fill="#FFFFFF" points="34.77,109.774 50.568,98.749 39.308,80.92 22.564,90.448 		"/>
		<path fill="#FFFFFF" d="M12.956,96.89c-2.306,2.908-3.12,6.767-2.154,10.367c-1.062-0.162-2.183,0.041-3.163,0.66
			c-2.162,1.364-2.807,4.224-1.442,6.384c1.366,2.162,4.225,2.807,6.386,1.443c0.979-0.62,1.643-1.546,1.954-2.572
			c2.834,2.419,6.669,3.342,10.286,2.51L12.956,96.89z"/>
		<polygon fill="#FFFFFF" points="94.805,76.584 38.906,44.78 31.234,56.93 83.977,93.734 		"/>
		<path fill="#FFFFFF" d="M34.389,41.674c0.515-0.817,1.593-1.059,2.408-0.543c0.815,0.515,1.059,1.591,0.543,2.407l-7.901,12.511
			c-0.515,0.815-1.592,1.06-2.408,0.543c-0.814-0.515-1.058-1.592-0.543-2.407L34.389,41.674z"/>
		<path fill="#FFFFFF" d="M107.342,41.674c-0.514-0.817-1.59-1.059-2.406-0.543c-0.814,0.515-1.059,1.591-0.543,2.407l7.9,12.511
			c0.516,0.815,1.592,1.06,2.408,0.543c0.814-0.515,1.059-1.592,0.545-2.407L107.342,41.674z"/>
		<path fill="#FFFFFF" d="M45.009,77.27c-0.705-1.114-2.181-1.449-3.297-0.743c-1.117,0.704-1.45,2.179-0.746,3.297l11.305,17.902
			c0.706,1.115,2.182,1.449,3.298,0.744c1.116-0.706,1.449-2.183,0.744-3.298L45.009,77.27z"/>
		<path fill="#FFFFFF" d="M20.044,90.181c-0.507-0.804-1.57-1.044-2.374-0.537l-3.506,2.215c-0.804,0.508-1.042,1.571-0.536,2.375
			l13.884,21.983c0.507,0.804,1.57,1.043,2.374,0.536l3.506-2.214c0.803-0.507,1.044-1.571,0.537-2.375L20.044,90.181z"/>
		<path fill="#FFFFFF" d="M96.723,77.27c0.705-1.114,2.182-1.449,3.297-0.743c1.119,0.704,1.451,2.179,0.746,3.297L89.461,97.726
			c-0.705,1.115-2.182,1.449-3.299,0.744c-1.115-0.706-1.447-2.183-0.744-3.298L96.723,77.27z"/>
		<path fill="#FFFFFF" d="M121.688,90.181c0.508-0.804,1.57-1.044,2.375-0.537l3.506,2.215c0.803,0.508,1.045,1.571,0.535,2.375
			l-13.883,21.983c-0.508,0.804-1.57,1.043-2.375,0.536l-3.506-2.214c-0.803-0.507-1.043-1.571-0.537-2.375L121.688,90.181z"/>
	</g>
</g>
</svg>
