<?xml version="1.0" encoding="utf-8"?>
<!-- Generator: Adobe Illustrator 22.0.1, SVG Export Plug-In . SVG Version: 6.00 Build 0)  -->
<svg version="1.1" id="Layer_1" xmlns="http://www.w3.org/2000/svg" xmlns:xlink="http://www.w3.org/1999/xlink" x="0px" y="0px"
	 viewBox="0 0 1024 1024" style="enable-background:new 0 0 1024 1024;" xml:space="preserve">
<style type="text/css">
	.st0{fill:url(#SVGID_1_);}
	.st1{fill:url(#SVGID_2_);}
	.st2{fill:url(#SVGID_3_);}
	.st3{fill:url(#SVGID_4_);}
	.st4{fill:url(#SVGID_5_);}
	.st5{fill:url(#SVGID_6_);}
	.st6{fill:url(#SVGID_7_);}
	.st7{fill:url(#SVGID_8_);}
	.st8{fill:url(#SVGID_9_);}
	.st9{fill:url(#SVGID_10_);}
	.st10{fill:url(#SVGID_11_);}
	.st11{fill:url(#SVGID_12_);}
	.st12{fill:url(#SVGID_13_);}
	.st13{fill:url(#SVGID_14_);}
	.st14{fill:url(#SVGID_15_);}
	.st15{fill:url(#SVGID_16_);}
	.st16{fill:url(#SVGID_17_);}
	.st17{fill:url(#SVGID_18_);}
	.st18{fill:url(#SVGID_19_);}
	.st19{fill:url(#SVGID_20_);}
	.st20{fill:url(#SVGID_21_);}
	.st21{fill:url(#SVGID_22_);}
	.st22{fill:url(#SVGID_23_);}
	.st23{fill:url(#SVGID_24_);}
	.st24{fill:url(#SVGID_25_);}
	.st25{fill:url(#SVGID_26_);}
	.st26{fill:url(#SVGID_27_);}
	.st27{fill:url(#SVGID_28_);}
	.st28{fill:url(#SVGID_29_);}
	.st29{fill:url(#SVGID_30_);}
	.st30{fill:url(#SVGID_31_);}
	.st31{fill:url(#SVGID_32_);}
	.st32{fill:url(#SVGID_33_);}
	.st33{fill:url(#SVGID_34_);}
	.st34{fill:url(#SVGID_35_);}
	.st35{fill:url(#SVGID_36_);}
	.st36{fill:url(#SVGID_37_);}
	.st37{fill:url(#SVGID_38_);}
</style>
<g>
	
		<linearGradient id="SVGID_1_" gradientUnits="userSpaceOnUse" x1="4474.7998" y1="1022.261" x2="4315.1499" y2="862.6109" gradientTransform="matrix(-1 0 0 1 4872.3223 0)">
		<stop  offset="0" style="stop-color:#FFD002"/>
		<stop  offset="1" style="stop-color:#FAA919"/>
	</linearGradient>
	<path class="st0" d="M583.7,881c0,0-146.1,35.3-218.1,104.7c-9,8.7,33.7,48.5,45.4,35.8c46.3-50.9,85.4-83,178-123
		C599.3,894,583.7,881,583.7,881z"/>
	
		<linearGradient id="SVGID_2_" gradientUnits="userSpaceOnUse" x1="4049.6467" y1="440.3564" x2="3970.7576" y2="440.3564" gradientTransform="matrix(-1 0 0 1 4872.3223 0)">
		<stop  offset="0" style="stop-color:#FFD002"/>
		<stop  offset="1" style="stop-color:#F9A11B"/>
	</linearGradient>
	<path class="st1" d="M901.6,453.4c-38-48.4-71.6-82.1-77.9-77.4c-6.9,5.2,22.2,55.6,65.1,112.5c4.3,5.7,8.6,11.2,12.7,16.6V453.4z"
		/>
	
		<linearGradient id="SVGID_3_" gradientUnits="userSpaceOnUse" x1="815.6465" y1="388.0437" x2="725.6685" y2="478.0217" gradientTransform="matrix(1 0 0 1 173.3223 0)">
		<stop  offset="0" style="stop-color:#FCF8CC"/>
		<stop  offset="0.3276" style="stop-color:#FDE682"/>
		<stop  offset="0.6488" style="stop-color:#FED540"/>
		<stop  offset="0.8806" style="stop-color:#FFCB18"/>
		<stop  offset="1" style="stop-color:#FFC708"/>
	</linearGradient>
	<path class="st2" d="M901.6,453.4c38-48.4,71.6-82.1,77.9-77.4c6.9,5.2-22.2,55.6-65.1,112.5c-4.3,5.7-8.6,11.2-12.8,16.6V453.4z"
		/>
	
		<linearGradient id="SVGID_4_" gradientUnits="userSpaceOnUse" x1="4030.9197" y1="380.2234" x2="3906.7327" y2="504.4104" gradientTransform="matrix(-1 0 0 1 4872.3223 0)">
		<stop  offset="0" style="stop-color:#FBF5B5"/>
		<stop  offset="2.359513e-02" style="stop-color:#FBF3A7"/>
		<stop  offset="0.1754" style="stop-color:#FCE84E"/>
		<stop  offset="0.282" style="stop-color:#FDE216"/>
		<stop  offset="0.3333" style="stop-color:#FDDF00"/>
		<stop  offset="0.5" style="stop-color:#FFDE00"/>
		<stop  offset="1" style="stop-color:#F58B1F"/>
	</linearGradient>
	<path class="st3" d="M822.6,378l0.1,0.1c-1.4,11.1,26.5,57.9,66.1,110.4c4.3,5.7,8.6,11.2,12.7,16.6h0c4.2-5.4,8.5-10.9,12.8-16.6
		c39.5-52.4,67.4-99.3,66.1-110.4l0.1-0.2c0,0,10.9,47.8-0.7,101.4c-11.6,53.7-62.4,82-78.3,82c-15.9,0-66.7-28.3-78.3-82
		C811.7,425.7,822.6,378,822.6,378z"/>
	
		<linearGradient id="SVGID_5_" gradientUnits="userSpaceOnUse" x1="4035.5537" y1="517.5751" x2="4005.3938" y2="640.4705" gradientTransform="matrix(-1 0 0 1 4872.3223 0)">
		<stop  offset="0" style="stop-color:#FFD002"/>
		<stop  offset="1" style="stop-color:#F9A11B"/>
	</linearGradient>
	<path class="st4" d="M877.6,618.6c-17.1-59.2-35.5-103-43.1-101c-8.4,2.2-0.3,59.8,18.1,128.7c1.8,6.9,3.7,13.6,5.6,20.1
		L877.6,618.6z"/>
	
		<linearGradient id="SVGID_6_" gradientUnits="userSpaceOnUse" x1="1179.3048" y1="1140.7015" x2="1067.233" y2="1186.1127" gradientTransform="matrix(0.9268 0.3755 -0.3755 0.9268 314.515 -879.4515)">
		<stop  offset="0" style="stop-color:#FCF8CC"/>
		<stop  offset="0.3276" style="stop-color:#FDE682"/>
		<stop  offset="0.6488" style="stop-color:#FED540"/>
		<stop  offset="0.8806" style="stop-color:#FFCB18"/>
		<stop  offset="1" style="stop-color:#FFC708"/>
	</linearGradient>
	<path class="st5" d="M877.6,618.6c53.5-30.6,97.2-49.2,101.2-42.5c4.5,7.5-41.5,43.2-102.6,79.8c-6.1,3.6-12.1,7.2-18,10.6
		L877.6,618.6z"/>
	
		<linearGradient id="SVGID_7_" gradientUnits="userSpaceOnUse" x1="3671.0183" y1="1107.267" x2="3541.8613" y2="1236.4238" gradientTransform="matrix(-0.9268 -0.3755 -0.3755 0.9268 4669.6831 885.8004)">
		<stop  offset="0" style="stop-color:#FBF5B5"/>
		<stop  offset="2.359513e-02" style="stop-color:#FBF3A7"/>
		<stop  offset="0.1754" style="stop-color:#FCE84E"/>
		<stop  offset="0.282" style="stop-color:#FDE216"/>
		<stop  offset="0.3333" style="stop-color:#FDDF00"/>
		<stop  offset="0.5" style="stop-color:#FFDE00"/>
		<stop  offset="1" style="stop-color:#F58B1F"/>
	</linearGradient>
	<path class="st6" d="M832.8,519l0,0.2c-5.4,9.7,2.8,63.6,19.8,127.1c1.8,6.9,3.7,13.6,5.6,20.1l0,0c5.9-3.4,11.9-6.9,18-10.6
		c56.3-33.7,99.7-66.7,102.7-77.5l0.2-0.1c0,0-7.8,48.4-38.7,93.7c-30.8,45.4-88.6,52.6-103.3,46.6c-14.8-6-51.2-51.3-41.8-105.4
		C804.7,559.1,832.8,519,832.8,519z"/>
	
		<linearGradient id="SVGID_8_" gradientUnits="userSpaceOnUse" x1="3075.887" y1="1712.9174" x2="3046.4138" y2="1683.7097" gradientTransform="matrix(-0.7103 -0.7039 -0.7039 0.7103 4145.9697 1661.0519)">
		<stop  offset="0" style="stop-color:#FFD002"/>
		<stop  offset="1" style="stop-color:#F9A11B"/>
	</linearGradient>
	<path class="st7" d="M791.8,749.2c7.1-61.2,6.9-108.7-0.9-109.8c-8.6-1.2-23.4,55.1-32.9,125.7c-0.9,7.1-1.8,14-2.6,20.7
		L791.8,749.2z"/>
	
		<linearGradient id="SVGID_9_" gradientUnits="userSpaceOnUse" x1="1753.5983" y1="1699.395" x2="1674.7097" y2="1699.395" gradientTransform="matrix(0.7103 0.7039 -0.7039 0.7103 807.7061 -1645.9856)">
		<stop  offset="0" style="stop-color:#FCF8CC"/>
		<stop  offset="0.3276" style="stop-color:#FDE682"/>
		<stop  offset="0.6488" style="stop-color:#FED540"/>
		<stop  offset="0.8806" style="stop-color:#FFCB18"/>
		<stop  offset="1" style="stop-color:#FFC708"/>
	</linearGradient>
	<path class="st8" d="M791.8,749.2c61.1-7.6,108.6-7.9,109.8-0.1c1.3,8.6-54.9,23.9-125.4,34.1c-7,1-14,1.9-20.7,2.8L791.8,749.2z"
		/>
	
		<linearGradient id="SVGID_10_" gradientUnits="userSpaceOnUse" x1="3105.8035" y1="1729.5291" x2="2942.3613" y2="1729.5291" gradientTransform="matrix(-0.7103 -0.7039 -0.7039 0.7103 4145.9697 1661.0519)">
		<stop  offset="0" style="stop-color:#FBF5B5"/>
		<stop  offset="2.359513e-02" style="stop-color:#FBF3A7"/>
		<stop  offset="0.1754" style="stop-color:#FCE84E"/>
		<stop  offset="0.282" style="stop-color:#FDE216"/>
		<stop  offset="0.3333" style="stop-color:#FDDF00"/>
		<stop  offset="0.5" style="stop-color:#FFDE00"/>
		<stop  offset="1" style="stop-color:#F58B1F"/>
	</linearGradient>
	<path class="st9" d="M788.9,640l0,0.2c-8.8,6.9-22,59.8-30.8,124.9c-0.9,7.1-1.8,14-2.6,20.7l0,0c6.8-0.9,13.7-1.8,20.7-2.8
		c65-9.4,117.7-23.1,124.6-31.9l0.2,0c0,0-25.9,41.6-71.9,71.6c-46,30-102,14.3-113.3,3.1c-11.3-11.2-27.5-67.1,2.1-113.4
		C747.5,666.3,788.9,640,788.9,640z"/>
	
		<linearGradient id="SVGID_11_" gradientUnits="userSpaceOnUse" x1="2701.6082" y1="1969.3436" x2="2664.4568" y2="1912.1118" gradientTransform="matrix(-0.5445 -0.8388 -0.8388 0.5445 3754.7837 1987.7471)">
		<stop  offset="0" style="stop-color:#FFD002"/>
		<stop  offset="1" style="stop-color:#F9A11B"/>
	</linearGradient>
	<path class="st10" d="M675.2,833.7c19.9-58.3,29.9-104.8,22.5-107.4c-8.2-3-34.5,48.9-58.9,115.9c-2.4,6.7-4.7,13.3-6.9,19.7
		L675.2,833.7z"/>
	
		<linearGradient id="SVGID_12_" gradientUnits="userSpaceOnUse" x1="2132.5803" y1="1940.7415" x2="2053.6902" y2="1940.7415" gradientTransform="matrix(0.5445 0.8388 -0.8388 0.5445 1195.8477 -1952.7721)">
		<stop  offset="0" style="stop-color:#FCF8CC"/>
		<stop  offset="0.3276" style="stop-color:#FDE682"/>
		<stop  offset="0.6488" style="stop-color:#FED540"/>
		<stop  offset="0.8806" style="stop-color:#FFCB18"/>
		<stop  offset="1" style="stop-color:#FFC708"/>
	</linearGradient>
	<path class="st11" d="M675.2,833.7c61.3,5.5,107.8,15.4,107.3,23.2c-0.6,8.7-58.7,11.6-129.8,6.6c-7.1-0.5-14-1.1-20.8-1.7
		L675.2,833.7z"/>
	
		<linearGradient id="SVGID_13_" gradientUnits="userSpaceOnUse" x1="2722.9534" y1="1970.8846" x2="2569.7415" y2="1970.8846" gradientTransform="matrix(-0.5445 -0.8388 -0.8388 0.5445 3754.7837 1987.748)">
		<stop  offset="0" style="stop-color:#FBF5B5"/>
		<stop  offset="2.359513e-02" style="stop-color:#FBF3A7"/>
		<stop  offset="0.1754" style="stop-color:#FCE84E"/>
		<stop  offset="0.282" style="stop-color:#FDE216"/>
		<stop  offset="0.3333" style="stop-color:#FDDF00"/>
		<stop  offset="0.5" style="stop-color:#FFDE00"/>
		<stop  offset="1" style="stop-color:#F58B1F"/>
	</linearGradient>
	<path class="st12" d="M695.5,726.4l-0.1,0.2c-10,4.9-34.2,53.8-56.6,115.5c-2.4,6.7-4.7,13.3-6.9,19.7l0,0
		c6.8,0.6,13.7,1.2,20.8,1.7c65.5,4.6,120,2.5,128.6-4.7l0.2,0c0,0-34.1,35.2-85.4,54.7c-51.3,19.5-102.7-7.7-111.4-21
		c-8.7-13.4-12.6-71.4,26.1-110.3C649.5,743.2,695.5,726.4,695.5,726.4z"/>
	
		<linearGradient id="SVGID_14_" gradientUnits="userSpaceOnUse" x1="4106.0732" y1="-617.9352" x2="4027.1741" y2="-617.9352" gradientTransform="matrix(-0.8637 0.5039 0.5039 0.8637 4652.6191 -1208.4185)">
		<stop  offset="0" style="stop-color:#FFD002"/>
		<stop  offset="1" style="stop-color:#F9A11B"/>
	</linearGradient>
	<path class="st13" d="M869.6,298.5c-57.3-22.7-103.2-34.8-106.2-27.6c-3.4,8,47.2,36.8,112.9,64.3c6.6,2.8,13,5.4,19.4,7.9
		L869.6,298.5z"/>
	
		<linearGradient id="SVGID_15_" gradientUnits="userSpaceOnUse" x1="712.3982" y1="-650.2129" x2="712.3982" y2="-571.3092" gradientTransform="matrix(0.8637 -0.5039 0.5039 0.8637 593.3822 1160.3246)">
		<stop  offset="0" style="stop-color:#FCF8CC"/>
		<stop  offset="0.3276" style="stop-color:#FDE682"/>
		<stop  offset="0.6488" style="stop-color:#FED540"/>
		<stop  offset="0.8806" style="stop-color:#FFCB18"/>
		<stop  offset="1" style="stop-color:#FFC708"/>
	</linearGradient>
	<path class="st14" d="M869.6,298.4c8.4-61,20.5-107,28.3-106.1c8.6,1,8.8,59.2,0.4,130c-0.8,7.1-1.7,14-2.7,20.7L869.6,298.4z"/>
	
		<linearGradient id="SVGID_16_" gradientUnits="userSpaceOnUse" x1="4027.1511" y1="-664.8203" x2="4027.1511" y2="-502.6927" gradientTransform="matrix(-0.8637 0.5039 0.5039 0.8637 4652.6191 -1208.4185)">
		<stop  offset="0" style="stop-color:#FBF5B5"/>
		<stop  offset="2.359513e-02" style="stop-color:#FBF3A7"/>
		<stop  offset="0.1754" style="stop-color:#FCE84E"/>
		<stop  offset="0.282" style="stop-color:#FDE216"/>
		<stop  offset="0.3333" style="stop-color:#FDDF00"/>
		<stop  offset="0.5" style="stop-color:#FFDE00"/>
		<stop  offset="1" style="stop-color:#F58B1F"/>
	</linearGradient>
	<path class="st15" d="M763.4,273.1l0.2,0.1c4.4,10.2,52.1,36.7,112.7,62.1c6.6,2.8,13,5.4,19.4,7.9l0,0c0.9-6.7,1.8-13.6,2.7-20.7
		c7.8-65.2,8.2-119.7,1.5-128.6l0-0.2c0,0,33.5,35.8,50.5,87.9c17.1,52.2-12.6,102.3-26.3,110.3c-13.8,8-71.9,9.2-108.9-31.3
		C778,319.8,763.4,273.1,763.4,273.1z"/>
	
		<linearGradient id="SVGID_17_" gradientUnits="userSpaceOnUse" x1="3968.2825" y1="-1144.0533" x2="3888.8826" y2="-1144.0533" gradientTransform="matrix(-0.726 0.6877 0.6877 0.726 4376.4297 -1677.597)">
		<stop  offset="0" style="stop-color:#FFD002"/>
		<stop  offset="1" style="stop-color:#F9A11B"/>
	</linearGradient>
	<path class="st16" d="M774.3,176.7c-60.9-9-108.4-10.4-109.7-2.6c-1.4,8.6,54.3,25.1,124.6,36.9c7,1.2,13.9,2.3,20.6,3.2
		L774.3,176.7z"/>
	
		<linearGradient id="SVGID_18_" gradientUnits="userSpaceOnUse" x1="848.1535" y1="-1195.1071" x2="848.1535" y2="-1113.5204" gradientTransform="matrix(0.726 -0.6877 0.6877 0.726 965.0113 1553.8635)">
		<stop  offset="0" style="stop-color:#FCF8CC"/>
		<stop  offset="0.3276" style="stop-color:#FDE682"/>
		<stop  offset="0.6488" style="stop-color:#FED540"/>
		<stop  offset="0.8806" style="stop-color:#FFCB18"/>
		<stop  offset="1" style="stop-color:#FFC708"/>
	</linearGradient>
	<path class="st17" d="M774.4,176.6c-5.7-61.3-4.5-108.9,3.3-109.7c8.7-1,22.1,55.6,30.1,126.4c0.8,7.1,1.5,14,2.1,20.8L774.4,176.6
		z"/>
	
		<linearGradient id="SVGID_19_" gradientUnits="userSpaceOnUse" x1="4141.7202" y1="131.9181" x2="4025.0125" y2="248.6257" gradientTransform="matrix(-1 0 0 1 4872.3223 0)">
		<stop  offset="0" style="stop-color:#FBF5B5"/>
		<stop  offset="2.359513e-02" style="stop-color:#FBF3A7"/>
		<stop  offset="0.1754" style="stop-color:#FCE84E"/>
		<stop  offset="0.282" style="stop-color:#FDE216"/>
		<stop  offset="0.3333" style="stop-color:#FDDF00"/>
		<stop  offset="0.5" style="stop-color:#FFDE00"/>
		<stop  offset="1" style="stop-color:#F58B1F"/>
	</linearGradient>
	<path class="st18" d="M665.1,176.2l0.2,0c6.6,9,59.1,23.9,123.9,34.7c7,1.2,13.9,2.3,20.6,3.2l0,0c-0.6-6.8-1.3-13.7-2.1-20.8
		c-7.3-65.3-19.3-118.4-28-125.6l0-0.2c0,0,40.8,27.2,69.3,74.1c28.5,46.9,11.1,102.4-0.5,113.4c-11.6,11-67.9,25.3-113.2-5.7
		C690.1,218.3,665.1,176.2,665.1,176.2z"/>
	<linearGradient id="SVGID_20_" gradientUnits="userSpaceOnUse" x1="468.136" y1="863.9202" x2="627.7864" y2="1023.5706">
		<stop  offset="0" style="stop-color:#FFD002"/>
		<stop  offset="1" style="stop-color:#FAA919"/>
	</linearGradient>
	<path class="st19" d="M440.3,881c0,0,146.1,35.3,218.1,104.7c9.1,8.7-33.7,48.5-45.4,35.8c-46.3-50.9-85.4-83-178-123
		C424.7,894,440.3,881,440.3,881z"/>
	<linearGradient id="SVGID_21_" gradientUnits="userSpaceOnUse" x1="201.3238" y1="440.3564" x2="122.4203" y2="440.3564">
		<stop  offset="0" style="stop-color:#FCF8CC"/>
		<stop  offset="0.3276" style="stop-color:#FDE682"/>
		<stop  offset="0.6488" style="stop-color:#FED540"/>
		<stop  offset="0.8806" style="stop-color:#FFCB18"/>
		<stop  offset="1" style="stop-color:#FFC708"/>
	</linearGradient>
	<path class="st20" d="M122.4,453.4c38-48.4,71.6-82.1,77.9-77.4c7,5.2-22.2,55.6-65.1,112.5c-4.3,5.7-8.5,11.2-12.8,16.6V453.4z"/>
	
		<linearGradient id="SVGID_22_" gradientUnits="userSpaceOnUse" x1="4655.5288" y1="440.3564" x2="4576.6377" y2="440.3564" gradientTransform="matrix(-1 0 0 1 4699 0)">
		<stop  offset="0" style="stop-color:#FFD002"/>
		<stop  offset="1" style="stop-color:#F9A11B"/>
	</linearGradient>
	<path class="st21" d="M122.4,453.4c-38-48.4-71.6-82.1-77.9-77.4c-7,5.2,22.2,55.6,65.1,112.5c4.3,5.7,8.6,11.2,12.8,16.6V453.4z"
		/>
	<linearGradient id="SVGID_23_" gradientUnits="userSpaceOnUse" x1="54.0645" y1="372.0855" x2="189.2162" y2="507.2372">
		<stop  offset="0" style="stop-color:#FBF5B5"/>
		<stop  offset="2.359513e-02" style="stop-color:#FBF3A7"/>
		<stop  offset="0.1754" style="stop-color:#FCE84E"/>
		<stop  offset="0.282" style="stop-color:#FDE216"/>
		<stop  offset="0.3333" style="stop-color:#FDDF00"/>
		<stop  offset="0.5" style="stop-color:#FFDE00"/>
		<stop  offset="1" style="stop-color:#F58B1F"/>
	</linearGradient>
	<path class="st22" d="M201.4,378l-0.1,0.1c1.4,11.1-26.5,57.9-66.1,110.4c-4.3,5.7-8.5,11.2-12.8,16.6h0
		c-4.2-5.4-8.5-10.9-12.8-16.6c-39.5-52.4-67.4-99.3-66.1-110.4l-0.1-0.2c0,0-10.9,47.8,0.6,101.4c11.6,53.7,62.4,82,78.3,82
		c15.9,0,66.7-28.3,78.3-82C212.3,425.7,201.4,378,201.4,378z"/>
	<linearGradient id="SVGID_24_" gradientUnits="userSpaceOnUse" x1="187.2307" y1="517.5713" x2="157.0697" y2="640.4713">
		<stop  offset="0" style="stop-color:#FCF8CC"/>
		<stop  offset="0.3276" style="stop-color:#FDE682"/>
		<stop  offset="0.6488" style="stop-color:#FED540"/>
		<stop  offset="0.8806" style="stop-color:#FFCB18"/>
		<stop  offset="1" style="stop-color:#FFC708"/>
	</linearGradient>
	<path class="st23" d="M146.4,618.6c17.1-59.2,35.5-103,43.1-101c8.4,2.2,0.3,59.8-18.1,128.7c-1.8,6.9-3.7,13.6-5.6,20.1
		L146.4,618.6z"/>
	
		<linearGradient id="SVGID_25_" gradientUnits="userSpaceOnUse" x1="4746.0728" y1="-304.4013" x2="4634.0034" y2="-258.9912" gradientTransform="matrix(-0.9268 0.3755 0.3755 0.9268 4557.8076 -879.4515)">
		<stop  offset="0" style="stop-color:#FFD002"/>
		<stop  offset="1" style="stop-color:#F9A11B"/>
	</linearGradient>
	<path class="st24" d="M146.4,618.6C92.9,588,49.2,569.4,45.1,576.1c-4.5,7.5,41.5,43.2,102.6,79.8c6.1,3.6,12.1,7.2,18,10.6
		L146.4,618.6z"/>
	
		<linearGradient id="SVGID_26_" gradientUnits="userSpaceOnUse" x1="-21.6653" y1="-351.7081" x2="115.2994" y2="-214.7434" gradientTransform="matrix(0.9268 -0.3755 0.3755 0.9268 202.64 885.8004)">
		<stop  offset="0" style="stop-color:#FBF5B5"/>
		<stop  offset="2.359513e-02" style="stop-color:#FBF3A7"/>
		<stop  offset="0.1754" style="stop-color:#FCE84E"/>
		<stop  offset="0.282" style="stop-color:#FDE216"/>
		<stop  offset="0.3333" style="stop-color:#FDDF00"/>
		<stop  offset="0.5" style="stop-color:#FFDE00"/>
		<stop  offset="1" style="stop-color:#F58B1F"/>
	</linearGradient>
	<path class="st25" d="M191.2,519l-0.1,0.2c5.4,9.7-2.8,63.6-19.8,127.1c-1.8,6.9-3.7,13.6-5.6,20.1l0,0c-5.9-3.4-11.9-6.9-18-10.6
		C91.4,622.1,48,589.2,45.1,578.4l-0.2-0.1c0,0,7.8,48.4,38.7,93.7c30.9,45.4,88.6,52.6,103.4,46.6c14.8-6,51.2-51.3,41.8-105.4
		C219.3,559.1,191.2,519,191.2,519z"/>
	
		<linearGradient id="SVGID_27_" gradientUnits="userSpaceOnUse" x1="369.7849" y1="-1008.6177" x2="290.8702" y2="-1008.6177" gradientTransform="matrix(0.7103 -0.7039 0.7039 0.7103 726.3522 1661.0519)">
		<stop  offset="0" style="stop-color:#FFD002"/>
		<stop  offset="1" style="stop-color:#F9A11B"/>
	</linearGradient>
	<path class="st26" d="M232.2,749.2c-7.1-61.2-6.9-108.7,0.9-109.8c8.6-1.2,23.4,55.1,32.9,125.7c0.9,7.1,1.8,14,2.6,20.7
		L232.2,749.2z"/>
	
		<linearGradient id="SVGID_28_" gradientUnits="userSpaceOnUse" x1="4487.0571" y1="-1009.433" x2="4408.1733" y2="-1009.433" gradientTransform="matrix(-0.7103 0.7039 0.7039 0.7103 4064.6162 -1645.9856)">
		<stop  offset="0" style="stop-color:#FCF8CC"/>
		<stop  offset="0.3276" style="stop-color:#FDE682"/>
		<stop  offset="0.6488" style="stop-color:#FED540"/>
		<stop  offset="0.8806" style="stop-color:#FFCB18"/>
		<stop  offset="1" style="stop-color:#FFC708"/>
	</linearGradient>
	<path class="st27" d="M232.1,749.2c-61.1-7.6-108.6-7.9-109.8-0.1c-1.3,8.6,54.9,23.9,125.4,34.1c7,1,14,1.9,20.7,2.8L232.1,749.2z
		"/>
	
		<linearGradient id="SVGID_29_" gradientUnits="userSpaceOnUse" x1="290.8516" y1="-1078.8876" x2="290.8516" y2="-878.9988" gradientTransform="matrix(0.7103 -0.7039 0.7039 0.7103 726.3527 1661.0519)">
		<stop  offset="0" style="stop-color:#FBF5B5"/>
		<stop  offset="2.359513e-02" style="stop-color:#FBF3A7"/>
		<stop  offset="0.1754" style="stop-color:#FCE84E"/>
		<stop  offset="0.282" style="stop-color:#FDE216"/>
		<stop  offset="0.3333" style="stop-color:#FDDF00"/>
		<stop  offset="0.5" style="stop-color:#FFDE00"/>
		<stop  offset="1" style="stop-color:#F58B1F"/>
	</linearGradient>
	<path class="st28" d="M235.2,640l0,0.2c8.8,6.9,22,59.8,30.8,124.9c0.9,7.1,1.8,14,2.6,20.7l0,0c-6.8-0.9-13.7-1.8-20.7-2.8
		c-65-9.4-117.7-23.1-124.6-31.9l-0.2,0c0,0,25.9,41.6,71.9,71.6c46,30,102,14.3,113.3,3.1c11.3-11.2,27.5-67.1-2.1-113.4
		C276.5,666.3,235.2,640,235.2,640z"/>
	
		<linearGradient id="SVGID_30_" gradientUnits="userSpaceOnUse" x1="628.3314" y1="-1286.1963" x2="549.4269" y2="-1286.1963" gradientTransform="matrix(0.5445 -0.8388 0.8388 0.5445 1117.5376 1987.7471)">
		<stop  offset="0" style="stop-color:#FFD002"/>
		<stop  offset="1" style="stop-color:#F9A11B"/>
	</linearGradient>
	<path class="st29" d="M348.8,833.7c-19.9-58.3-29.9-104.8-22.5-107.4c8.2-3,34.5,48.9,58.9,115.9c2.4,6.7,4.7,13.3,6.9,19.7
		L348.8,833.7z"/>
	
		<linearGradient id="SVGID_31_" gradientUnits="userSpaceOnUse" x1="4227.8535" y1="-1287.0204" x2="4148.9629" y2="-1287.0204" gradientTransform="matrix(-0.5445 0.8388 0.8388 0.5445 3676.4746 -1952.7721)">
		<stop  offset="0" style="stop-color:#FCF8CC"/>
		<stop  offset="0.3276" style="stop-color:#FDE682"/>
		<stop  offset="0.6488" style="stop-color:#FED540"/>
		<stop  offset="0.8806" style="stop-color:#FFCB18"/>
		<stop  offset="1" style="stop-color:#FFC708"/>
	</linearGradient>
	<path class="st30" d="M348.8,833.7c-61.3,5.5-107.9,15.4-107.3,23.2c0.6,8.7,58.7,11.6,129.8,6.6c7.1-0.5,14-1.1,20.8-1.7
		L348.8,833.7z"/>
	
		<linearGradient id="SVGID_32_" gradientUnits="userSpaceOnUse" x1="549.4048" y1="-1356.4634" x2="549.4048" y2="-1156.5898" gradientTransform="matrix(0.5445 -0.8388 0.8388 0.5445 1117.5375 1987.748)">
		<stop  offset="0" style="stop-color:#FBF5B5"/>
		<stop  offset="2.359513e-02" style="stop-color:#FBF3A7"/>
		<stop  offset="0.1754" style="stop-color:#FCE84E"/>
		<stop  offset="0.282" style="stop-color:#FDE216"/>
		<stop  offset="0.3333" style="stop-color:#FDDF00"/>
		<stop  offset="0.5" style="stop-color:#FFDE00"/>
		<stop  offset="1" style="stop-color:#F58B1F"/>
	</linearGradient>
	<path class="st31" d="M328.5,726.4l0.1,0.2c10,4.9,34.2,53.8,56.6,115.5c2.4,6.7,4.7,13.3,6.9,19.7l0,0c-6.8,0.6-13.7,1.2-20.8,1.7
		c-65.5,4.6-120,2.5-128.6-4.7l-0.2,0c0,0,34.1,35.2,85.4,54.7c51.3,19.5,102.7-7.7,111.4-21c8.7-13.4,12.6-71.4-26.1-110.3
		C374.5,743.2,328.5,726.4,328.5,726.4z"/>
	
		<linearGradient id="SVGID_33_" gradientUnits="userSpaceOnUse" x1="781.927" y1="1321.4398" x2="703.0254" y2="1321.4398" gradientTransform="matrix(0.8637 0.5039 -0.5039 0.8637 219.7025 -1208.4185)">
		<stop  offset="0" style="stop-color:#FCF8CC"/>
		<stop  offset="0.3276" style="stop-color:#FDE682"/>
		<stop  offset="0.6488" style="stop-color:#FED540"/>
		<stop  offset="0.8806" style="stop-color:#FFCB18"/>
		<stop  offset="1" style="stop-color:#FFC708"/>
	</linearGradient>
	<path class="st32" d="M154.4,298.5c57.3-22.7,103.2-34.8,106.2-27.6c3.4,8-47.2,36.8-112.9,64.3c-6.6,2.8-13,5.4-19.4,7.9
		L154.4,298.5z"/>
	
		<linearGradient id="SVGID_34_" gradientUnits="userSpaceOnUse" x1="4076.0083" y1="1321.0088" x2="3997.0955" y2="1321.0088" gradientTransform="matrix(-0.8637 -0.5039 -0.5039 0.8637 4278.9399 1160.3246)">
		<stop  offset="0" style="stop-color:#FFD002"/>
		<stop  offset="1" style="stop-color:#F9A11B"/>
	</linearGradient>
	<path class="st33" d="M154.4,298.4c-8.5-61-20.5-107-28.3-106.1c-8.6,1-8.8,59.2-0.4,130c0.8,7.1,1.7,14,2.7,20.7L154.4,298.4z"/>
	
		<linearGradient id="SVGID_35_" gradientUnits="userSpaceOnUse" x1="627" y1="1350.7687" x2="780.2618" y2="1350.7687" gradientTransform="matrix(0.8637 0.5039 -0.5039 0.8637 219.7025 -1208.4185)">
		<stop  offset="0" style="stop-color:#FBF5B5"/>
		<stop  offset="2.359513e-02" style="stop-color:#FBF3A7"/>
		<stop  offset="0.1754" style="stop-color:#FCE84E"/>
		<stop  offset="0.282" style="stop-color:#FDE216"/>
		<stop  offset="0.3333" style="stop-color:#FDDF00"/>
		<stop  offset="0.5" style="stop-color:#FFDE00"/>
		<stop  offset="1" style="stop-color:#F58B1F"/>
	</linearGradient>
	<path class="st34" d="M260.6,273.1l-0.1,0.1c-4.4,10.2-52.1,36.7-112.7,62.1c-6.6,2.8-13,5.4-19.4,7.9l0,0
		c-0.9-6.7-1.8-13.6-2.7-20.7c-7.7-65.2-8.2-119.7-1.4-128.6l0-0.2c0,0-33.5,35.8-50.5,87.9S86.3,383.7,100,391.7
		c13.8,8,71.9,9.2,108.9-31.3C246,319.8,260.6,273.1,260.6,273.1z"/>
	
		<linearGradient id="SVGID_36_" gradientUnits="userSpaceOnUse" x1="1174.4253" y1="1502.4176" x2="1095.0187" y2="1502.4176" gradientTransform="matrix(0.726 0.6877 -0.6877 0.726 495.8928 -1677.597)">
		<stop  offset="0" style="stop-color:#FCF8CC"/>
		<stop  offset="0.3276" style="stop-color:#FDE682"/>
		<stop  offset="0.6488" style="stop-color:#FED540"/>
		<stop  offset="0.8806" style="stop-color:#FFCB18"/>
		<stop  offset="1" style="stop-color:#FFC708"/>
	</linearGradient>
	<path class="st35" d="M249.7,176.7c60.9-9,108.5-10.4,109.8-2.6c1.4,8.6-54.4,25.1-124.6,36.9c-7,1.2-13.9,2.3-20.6,3.2
		L249.7,176.7z"/>
	
		<linearGradient id="SVGID_37_" gradientUnits="userSpaceOnUse" x1="3683.7556" y1="1502.4119" x2="3602.1755" y2="1502.4119" gradientTransform="matrix(-0.726 -0.6877 -0.6877 0.726 3907.311 1553.8625)">
		<stop  offset="0" style="stop-color:#FFD002"/>
		<stop  offset="1" style="stop-color:#F9A11B"/>
	</linearGradient>
	<path class="st36" d="M249.6,176.6c5.7-61.3,4.5-108.9-3.3-109.7c-8.7-1-22.1,55.6-30.1,126.4c-0.8,7.1-1.5,14-2.1,20.8
		L249.6,176.6z"/>
	<linearGradient id="SVGID_38_" gradientUnits="userSpaceOnUse" x1="183.1239" y1="131.5645" x2="296.1506" y2="244.5913">
		<stop  offset="0" style="stop-color:#FBF5B5"/>
		<stop  offset="2.359513e-02" style="stop-color:#FBF3A7"/>
		<stop  offset="0.1754" style="stop-color:#FCE84E"/>
		<stop  offset="0.282" style="stop-color:#FDE216"/>
		<stop  offset="0.3333" style="stop-color:#FDDF00"/>
		<stop  offset="0.5" style="stop-color:#FFDE00"/>
		<stop  offset="1" style="stop-color:#F58B1F"/>
	</linearGradient>
	<path class="st37" d="M358.9,176.2l-0.2,0c-6.6,9-59.1,23.9-123.9,34.7c-7,1.2-13.9,2.3-20.6,3.2l0,0c0.6-6.8,1.3-13.7,2.1-20.8
		c7.3-65.3,19.3-118.4,28-125.6v-0.2c0,0-40.8,27.2-69.3,74.1c-28.5,46.9-11.1,102.4,0.5,113.4c11.6,11,67.9,25.3,113.2-5.7
		C333.9,218.3,358.9,176.2,358.9,176.2z"/>
</g>
<g>
</g>
<g>
</g>
<g>
</g>
<g>
</g>
<g>
</g>
</svg>
