<?xml version="1.0" encoding="utf-8"?>
<!-- Generator: Adobe Illustrator 16.0.0, SVG Export Plug-In . SVG Version: 6.00 Build 0)  -->
<!DOCTYPE svg PUBLIC "-//W3C//DTD SVG 1.1//EN" "http://www.w3.org/Graphics/SVG/1.1/DTD/svg11.dtd">
<svg version="1.1" id="Layer_1" xmlns="http://www.w3.org/2000/svg" xmlns:xlink="http://www.w3.org/1999/xlink" x="0px" y="0px"
	 width="141.7px" height="141.7px" viewBox="0 0 141.7 141.7" enable-background="new 0 0 141.7 141.7" xml:space="preserve">
<g>
	<path d="M122.51,74.034c-2.107-0.756-4.498-1.611-5.383-3.328c-0.621-1.204-1.293-3.056-2.07-5.201
		c-2.225-6.133-5.271-14.532-11.732-21.738c-7.59-8.458-19.576-13.506-32.069-13.506h-0.001c-5.291,0-10.685,0.869-16.033,2.581
		c-15.53,4.974-22.481,16.375-25.577,25.061c-6.131,17.208-1.185,34.043-0.676,35.677c-0.115,0.883-1.859,3.092-2.525,3.935
		c-1.31,1.659-2.101,2.662-1.931,4.063c0.089,0.736,0.458,1.393,1.041,1.845c2.54,1.976,7.057,2.271,9.524,2.271
		c1.985,0,4.012-0.179,5.964-0.508c4.027,6.549,6.294,9.559,7.632,10.981v4.09l8.435,5.38h15.273v-0.949
		c18.385-6.732,20.379-30.683,20.48-32.117c8.113-2.947,17.459-7.284,17.961-7.519l4.566-1.938c2.578-0.135,4.82-0.275,6.529-0.482
		c1.855-0.227,5.313-0.646,5.662-3.467C127.979,75.993,124.819,74.86,122.51,74.034z M50.026,113.815
		c-1.791-2.158-4.578-6.486-6.277-9.202c0.553-0.141,1.099-0.289,1.625-0.456c1.883-0.598,3.795-1.364,5.709-2.231
		c1.584,2.915,4.811,8.759,6.701,11.503L50.026,113.815z M53.426,100.811c1.284-0.635,2.564-1.301,3.829-1.986l4.409-0.424
		c0.55-0.054,11.414-1.11,19.923-2.714c-2.281,13.191-11.758,19.782-11.859,19.852l-1.135,0.771v0.051l-7.248-3.109l-0.329,0.017
		l-0.426-0.412C59.693,111.958,56.37,106.24,53.426,100.811z M69.789,123.042H57.864l-6.598-4.208v-2.484l9.608-0.479l8.915,3.825
		V123.042z M72.381,121.904v-3.918l-1.013-0.434c1.44-1.041,10.923-8.374,12.933-22.417c0.754-0.166,1.479-0.336,2.154-0.51
		c1.129-0.294,2.383-0.676,3.705-1.114C89.59,98.215,86.524,116.046,72.381,121.904z M85.803,92.115
		c-8.335,2.161-24.388,3.705-24.388,3.705s10.033-6.79,20.839-9.57c10.805-2.778,27.475-3.55,27.475-3.55
		S94.139,89.955,85.803,92.115z M122.038,79.998l-12.43,0.111c-0.691,0.032-17.063,0.817-28,3.629
		c-11.113,2.859-21.221,9.646-21.646,9.936l-5.398,3.652c-3.338,1.757-6.707,3.323-9.974,4.36c-2.989,0.946-6.425,1.412-9.513,1.412
		c-3.45,0-6.464-0.582-7.931-1.722c-0.73-0.568,5.249-5.712,4.323-8.49c-1.057-3.17-4.82-18.853,0.618-34.113
		c3.437-9.642,10.514-19.167,23.925-23.462c5.323-1.705,10.438-2.458,15.242-2.458c13.027-0.001,23.761,5.537,30.138,12.645
		c8.48,9.454,10.92,21.528,13.43,26.396c2.455,4.764,10.496,4.479,10.186,6.948C124.94,79.397,123.868,79.747,122.038,79.998z"/>
	<path fill="#FFFFFF" d="M50.026,113.815c-1.791-2.158-4.578-6.486-6.277-9.202c0.553-0.141,1.099-0.289,1.625-0.456
		c1.883-0.598,3.795-1.364,5.709-2.231c1.584,2.915,4.811,8.759,6.701,11.503L50.026,113.815z"/>
	<polygon fill="#FFFFFF" points="69.789,123.042 57.864,123.042 51.266,118.833 51.266,116.349 60.874,115.871 69.789,119.696 	"/>
	<path fill="#FFFFFF" d="M72.381,121.904v-3.918l-1.013-0.434c1.44-1.041,10.923-8.374,12.933-22.417
		c0.754-0.166,1.479-0.336,2.154-0.51c1.129-0.294,2.383-0.676,3.705-1.114C89.59,98.215,86.524,116.046,72.381,121.904z"/>
	<path fill="#FFFFFF" d="M85.803,92.115c-8.335,2.161-24.388,3.705-24.388,3.705s10.033-6.79,20.839-9.57
		c10.805-2.778,27.475-3.55,27.475-3.55S94.139,89.955,85.803,92.115z"/>
	<path fill="#FFFFFF" d="M122.038,79.998l-12.43,0.111c-0.691,0.032-17.063,0.817-28,3.629c-11.113,2.859-21.221,9.646-21.646,9.936
		l-5.398,3.652c-3.338,1.757-6.707,3.323-9.974,4.36c-2.989,0.946-6.425,1.412-9.513,1.412c-3.45,0-6.464-0.582-7.931-1.722
		c-0.73-0.568,5.249-5.712,4.323-8.49c-1.057-3.17-4.82-18.853,0.618-34.113c3.437-9.642,10.514-19.167,23.925-23.462
		c5.323-1.705,10.438-2.458,15.242-2.458c13.027-0.001,23.761,5.537,30.138,12.645c8.48,9.454,10.92,21.528,13.43,26.396
		c2.455,4.764,10.496,4.479,10.186,6.948C124.94,79.397,123.868,79.747,122.038,79.998z"/>
</g>
</svg>
