<?xml version="1.0" encoding="utf-8"?>
<!-- Generator: Adobe Illustrator 22.0.1, SVG Export Plug-In . SVG Version: 6.00 Build 0)  -->
<svg version="1.1" id="Layer_1" xmlns="http://www.w3.org/2000/svg" xmlns:xlink="http://www.w3.org/1999/xlink" x="0px" y="0px"
	 viewBox="0 0 1024 1024" style="enable-background:new 0 0 1024 1024;" xml:space="preserve">
<style type="text/css">
	.st0{fill:url(#SVGID_1_);}
	.st1{fill:#E6E7E8;}
</style>
<g>
	<radialGradient id="SVGID_1_" cx="513.7922" cy="473.7633" r="336.6132" gradientUnits="userSpaceOnUse">
		<stop  offset="0.2867" style="stop-color:#BBBDBF"/>
		<stop  offset="0.3939" style="stop-color:#AEB0B2"/>
		<stop  offset="0.5576" style="stop-color:#929497"/>
		<stop  offset="0.6491" style="stop-color:#7A7B7D"/>
		<stop  offset="0.8432" style="stop-color:#3D3B3C"/>
		<stop  offset="0.9224" style="stop-color:#231F20"/>
	</radialGradient>
	<path class="st0" d="M512.2,784.7c-55.3-31.8-98.9-65.9-133.3-104.4c-31.3-35.1-54-72.9-69.5-115.7c-29-79.9-27.5-165.4-26.1-248.1
		c0.2-14.6,0.5-29.6,0.6-44.5c76.3-11.6,197.3-56,228.4-67.7c38.9,14.7,153.9,56.4,228.4,67.7c0,11,0.2,22.1,0.3,32.9
		c0.8,84.5,1.7,171.9-27.4,253.9c-15.6,43.9-38.3,82.7-69.4,118.7C610.1,716.9,566.9,752,512.2,784.7z"/>
	<path class="st1" d="M512.3,216.3c40.7,15.2,144.1,52.4,217.2,65.2c0.1,7.9,0.1,15.7,0.2,23.4c0.4,42.1,0.8,85.6-2.5,127.8
		c-3.7,46.5-11.6,86.5-24.3,122.2c-15.1,42.5-37.1,80.2-67.3,115.1c-32.1,37.2-72.6,70.4-123.5,101.4
		c-51.5-30.2-92.4-62.6-124.7-98.8c-30.3-34-52.4-70.6-67.4-112c-12.6-34.8-20.4-73.7-23.8-119.1c-3.1-41.2-2.4-83.8-1.7-125
		c0.2-11.5,0.4-23.3,0.5-35.1C368.2,268.7,471.6,231.6,512.3,216.3 M512.3,192.2C512.3,192.2,512.3,192.2,512.3,192.2
		C512.3,192.2,512.3,192.2,512.3,192.2c-0.2,0-155.3,59.9-239.7,69.9c0,185.6-32.8,382.1,239.7,535.6
		C775.8,643.5,752,447.7,752,262.1C667.6,252.1,512.5,192.2,512.3,192.2L512.3,192.2z"/>
</g>
<g>
</g>
<g>
</g>
<g>
</g>
<g>
</g>
<g>
</g>
</svg>
