<?xml version="1.0" encoding="utf-8"?>
<!-- Generator: Adobe Illustrator 22.0.1, SVG Export Plug-In . SVG Version: 6.00 Build 0)  -->
<svg version="1.1" id="Layer_1" xmlns="http://www.w3.org/2000/svg" xmlns:xlink="http://www.w3.org/1999/xlink" x="0px" y="0px"
	 viewBox="0 0 1024 1024" style="enable-background:new 0 0 1024 1024;" xml:space="preserve">
<style type="text/css">
	.st0{fill:url(#SVGID_1_);}
	.st1{fill:url(#SVGID_2_);}
	.st2{fill:url(#SVGID_3_);}
	.st3{fill:url(#SVGID_4_);}
	.st4{fill:url(#SVGID_5_);}
	.st5{fill:url(#SVGID_6_);}
	.st6{fill:url(#SVGID_7_);}
	.st7{fill:url(#SVGID_8_);}
	.st8{fill:url(#SVGID_9_);}
	.st9{fill:url(#SVGID_10_);}
	.st10{fill:url(#SVGID_11_);}
	.st11{fill:url(#SVGID_12_);}
	.st12{fill:url(#SVGID_13_);}
	.st13{fill:url(#SVGID_14_);}
	.st14{fill:url(#SVGID_15_);}
	.st15{fill:url(#SVGID_16_);}
	.st16{fill:url(#SVGID_17_);}
	.st17{fill:url(#SVGID_18_);}
	.st18{fill:url(#SVGID_19_);}
	.st19{fill:url(#SVGID_20_);}
	.st20{fill:url(#SVGID_21_);}
	.st21{fill:url(#SVGID_22_);}
	.st22{fill:url(#SVGID_23_);}
	.st23{fill:url(#SVGID_24_);}
	.st24{fill:url(#SVGID_25_);}
	.st25{fill:url(#SVGID_26_);}
	.st26{fill:url(#SVGID_27_);}
	.st27{fill:url(#SVGID_28_);}
	.st28{fill:url(#SVGID_29_);}
	.st29{fill:url(#SVGID_30_);}
	.st30{fill:url(#SVGID_31_);}
	.st31{fill:url(#SVGID_32_);}
	.st32{fill:url(#SVGID_33_);}
	.st33{fill:url(#SVGID_34_);}
	.st34{fill:url(#SVGID_35_);}
	.st35{fill:url(#SVGID_36_);}
	.st36{fill:url(#SVGID_37_);}
	.st37{fill:url(#SVGID_38_);}
</style>
<g>
	
		<linearGradient id="SVGID_1_" gradientUnits="userSpaceOnUse" x1="4474.7935" y1="1022.2709" x2="4315.1533" y2="862.6306" gradientTransform="matrix(-1 0 0 1 4872.3223 0)">
		<stop  offset="0" style="stop-color:#D0D2D3"/>
		<stop  offset="1" style="stop-color:#6D6E70"/>
	</linearGradient>
	<path class="st0" d="M583.7,881.1c0,0-146.1,35.3-218.1,104.7c-9,8.7,33.8,48.5,45.4,35.8c46.3-50.9,85.4-83,178-123
		C599.3,894,583.7,881.1,583.7,881.1z"/>
	
		<linearGradient id="SVGID_2_" gradientUnits="userSpaceOnUse" x1="4049.6438" y1="440.3639" x2="3970.7551" y2="440.3639" gradientTransform="matrix(-1 0 0 1 4872.3223 0)">
		<stop  offset="0" style="stop-color:#D0D2D3"/>
		<stop  offset="1" style="stop-color:#626366"/>
	</linearGradient>
	<path class="st1" d="M901.6,453.4c-38-48.4-71.6-82.1-77.9-77.4c-6.9,5.3,22.2,55.6,65.1,112.5c4.3,5.7,8.6,11.2,12.7,16.6V453.4z"
		/>
	
		<linearGradient id="SVGID_3_" gradientUnits="userSpaceOnUse" x1="815.6466" y1="388.0532" x2="725.6682" y2="478.0316" gradientTransform="matrix(1 0 0 1 173.3223 0)">
		<stop  offset="0" style="stop-color:#FFFFFF"/>
		<stop  offset="0.4265" style="stop-color:#CACBCD"/>
		<stop  offset="0.805" style="stop-color:#A2A3A6"/>
		<stop  offset="1" style="stop-color:#929497"/>
	</linearGradient>
	<path class="st2" d="M901.6,453.4c38-48.4,71.6-82.1,77.9-77.4c6.9,5.3-22.2,55.6-65.1,112.5c-4.3,5.7-8.6,11.2-12.8,16.6V453.4z"
		/>
	
		<linearGradient id="SVGID_4_" gradientUnits="userSpaceOnUse" x1="4030.9231" y1="380.2297" x2="3906.7271" y2="504.4259" gradientTransform="matrix(-1 0 0 1 4872.3223 0)">
		<stop  offset="0" style="stop-color:#FFFFFF"/>
		<stop  offset="0.166" style="stop-color:#E6E7E7"/>
		<stop  offset="0.3333" style="stop-color:#D0D2D3"/>
		<stop  offset="0.3412" style="stop-color:#CED0D1"/>
		<stop  offset="0.4272" style="stop-color:#C0C2C4"/>
		<stop  offset="0.5" style="stop-color:#BBBDBF"/>
		<stop  offset="1" style="stop-color:#4D4D4F"/>
	</linearGradient>
	<path class="st3" d="M822.6,378l0.1,0.1c-1.4,11.1,26.5,57.9,66.1,110.4c4.3,5.7,8.6,11.2,12.7,16.6h0c4.2-5.3,8.5-10.9,12.8-16.6
		c39.5-52.4,67.4-99.3,66.1-110.4l0.1-0.2c0,0,10.9,47.8-0.6,101.4c-11.6,53.7-62.4,82-78.3,82c-15.9,0-66.7-28.3-78.3-82
		C811.7,425.8,822.6,378,822.6,378z"/>
	
		<linearGradient id="SVGID_5_" gradientUnits="userSpaceOnUse" x1="4035.5579" y1="517.5762" x2="4005.3958" y2="640.4803" gradientTransform="matrix(-1 0 0 1 4872.3223 0)">
		<stop  offset="0" style="stop-color:#D0D2D3"/>
		<stop  offset="1" style="stop-color:#626366"/>
	</linearGradient>
	<path class="st4" d="M877.6,618.6c-17.1-59.2-35.5-103-43.1-101c-8.4,2.2-0.3,59.9,18.1,128.7c1.8,6.9,3.7,13.6,5.6,20.1
		L877.6,618.6z"/>
	
		<linearGradient id="SVGID_6_" gradientUnits="userSpaceOnUse" x1="1179.3138" y1="1140.7098" x2="1067.238" y2="1186.1224" gradientTransform="matrix(0.9268 0.3755 -0.3755 0.9268 314.515 -879.4515)">
		<stop  offset="0" style="stop-color:#FFFFFF"/>
		<stop  offset="0.4265" style="stop-color:#CACBCD"/>
		<stop  offset="0.805" style="stop-color:#A2A3A6"/>
		<stop  offset="1" style="stop-color:#929497"/>
	</linearGradient>
	<path class="st5" d="M877.6,618.6c53.5-30.6,97.2-49.2,101.2-42.5c4.5,7.5-41.5,43.2-102.6,79.8c-6.1,3.6-12.1,7.2-18,10.5
		L877.6,618.6z"/>
	
		<linearGradient id="SVGID_7_" gradientUnits="userSpaceOnUse" x1="3671.0078" y1="1107.2788" x2="3541.8572" y2="1236.4296" gradientTransform="matrix(-0.9268 -0.3755 -0.3755 0.9268 4669.6831 885.8004)">
		<stop  offset="0" style="stop-color:#FFFFFF"/>
		<stop  offset="0.166" style="stop-color:#E6E7E7"/>
		<stop  offset="0.3333" style="stop-color:#D0D2D3"/>
		<stop  offset="0.3412" style="stop-color:#CED0D1"/>
		<stop  offset="0.4272" style="stop-color:#C0C2C4"/>
		<stop  offset="0.5" style="stop-color:#BBBDBF"/>
		<stop  offset="1" style="stop-color:#4D4D4F"/>
	</linearGradient>
	<path class="st6" d="M832.8,519l0,0.2c-5.4,9.7,2.8,63.6,19.8,127.1c1.8,6.9,3.7,13.6,5.6,20.1l0,0c5.9-3.4,11.9-6.9,18-10.6
		c56.4-33.7,99.7-66.7,102.7-77.5l0.2-0.1c0,0-7.8,48.4-38.7,93.8c-30.9,45.4-88.6,52.5-103.3,46.6c-14.8-6-51.2-51.3-41.8-105.4
		C804.7,559.2,832.8,519,832.8,519z"/>
	
		<linearGradient id="SVGID_8_" gradientUnits="userSpaceOnUse" x1="3075.8779" y1="1712.9303" x2="3046.4019" y2="1683.7197" gradientTransform="matrix(-0.7103 -0.7039 -0.7039 0.7103 4145.9697 1661.0519)">
		<stop  offset="0" style="stop-color:#D0D2D3"/>
		<stop  offset="1" style="stop-color:#626366"/>
	</linearGradient>
	<path class="st7" d="M791.8,749.2c7.1-61.2,6.9-108.7-0.9-109.8c-8.6-1.2-23.4,55.1-32.9,125.7c-0.9,7-1.8,14-2.6,20.7L791.8,749.2
		z"/>
	
		<linearGradient id="SVGID_9_" gradientUnits="userSpaceOnUse" x1="1753.6035" y1="1699.4038" x2="1674.7161" y2="1699.4038" gradientTransform="matrix(0.7103 0.7039 -0.7039 0.7103 807.7061 -1645.9856)">
		<stop  offset="0" style="stop-color:#FFFFFF"/>
		<stop  offset="0.4265" style="stop-color:#CACBCD"/>
		<stop  offset="0.805" style="stop-color:#A2A3A6"/>
		<stop  offset="1" style="stop-color:#929497"/>
	</linearGradient>
	<path class="st8" d="M791.8,749.2c61.1-7.6,108.6-7.9,109.8-0.1c1.3,8.6-54.9,23.9-125.4,34.1c-7,1-14,1.9-20.7,2.8L791.8,749.2z"
		/>
	
		<linearGradient id="SVGID_10_" gradientUnits="userSpaceOnUse" x1="3105.7949" y1="1729.5361" x2="2942.3518" y2="1729.5361" gradientTransform="matrix(-0.7103 -0.7039 -0.7039 0.7103 4145.9697 1661.0519)">
		<stop  offset="0" style="stop-color:#FFFFFF"/>
		<stop  offset="0.166" style="stop-color:#E6E7E7"/>
		<stop  offset="0.3333" style="stop-color:#D0D2D3"/>
		<stop  offset="0.3412" style="stop-color:#CED0D1"/>
		<stop  offset="0.4272" style="stop-color:#C0C2C4"/>
		<stop  offset="0.5" style="stop-color:#BBBDBF"/>
		<stop  offset="1" style="stop-color:#4D4D4F"/>
	</linearGradient>
	<path class="st9" d="M788.9,640l0,0.2c-8.8,6.9-22,59.8-30.8,125c-0.9,7-1.8,14-2.6,20.7l0,0c6.8-0.9,13.7-1.8,20.7-2.8
		c65-9.4,117.7-23.1,124.6-31.9l0.2,0c0,0-25.9,41.6-71.9,71.6c-46,30-102,14.3-113.3,3.1c-11.3-11.2-27.5-67.1,2.1-113.4
		C747.5,666.3,788.9,640,788.9,640z"/>
	
		<linearGradient id="SVGID_11_" gradientUnits="userSpaceOnUse" x1="2701.5964" y1="1969.3513" x2="2664.4438" y2="1912.118" gradientTransform="matrix(-0.5445 -0.8388 -0.8388 0.5445 3754.7837 1987.7471)">
		<stop  offset="0" style="stop-color:#D0D2D3"/>
		<stop  offset="1" style="stop-color:#626366"/>
	</linearGradient>
	<path class="st10" d="M675.2,833.7c19.9-58.3,29.9-104.8,22.5-107.4c-8.2-3-34.5,48.9-58.9,115.9c-2.4,6.7-4.7,13.3-6.9,19.7
		L675.2,833.7z"/>
	
		<linearGradient id="SVGID_12_" gradientUnits="userSpaceOnUse" x1="2132.5908" y1="1940.7487" x2="2053.6914" y2="1940.7487" gradientTransform="matrix(0.5445 0.8388 -0.8388 0.5445 1195.8477 -1952.7721)">
		<stop  offset="0" style="stop-color:#FFFFFF"/>
		<stop  offset="0.4265" style="stop-color:#CACBCD"/>
		<stop  offset="0.805" style="stop-color:#A2A3A6"/>
		<stop  offset="1" style="stop-color:#929497"/>
	</linearGradient>
	<path class="st11" d="M675.2,833.7c61.3,5.5,107.8,15.4,107.3,23.2c-0.6,8.7-58.7,11.6-129.8,6.6c-7.1-0.5-14-1.1-20.8-1.7
		L675.2,833.7z"/>
	
		<linearGradient id="SVGID_13_" gradientUnits="userSpaceOnUse" x1="2722.9446" y1="1970.8953" x2="2569.7312" y2="1970.8953" gradientTransform="matrix(-0.5445 -0.8388 -0.8388 0.5445 3754.7837 1987.748)">
		<stop  offset="0" style="stop-color:#FFFFFF"/>
		<stop  offset="0.166" style="stop-color:#E6E7E7"/>
		<stop  offset="0.3333" style="stop-color:#D0D2D3"/>
		<stop  offset="0.3412" style="stop-color:#CED0D1"/>
		<stop  offset="0.4272" style="stop-color:#C0C2C4"/>
		<stop  offset="0.5" style="stop-color:#BBBDBF"/>
		<stop  offset="1" style="stop-color:#4D4D4F"/>
	</linearGradient>
	<path class="st12" d="M695.5,726.4l-0.1,0.1c-10,4.9-34.2,53.7-56.6,115.5c-2.4,6.7-4.7,13.3-6.9,19.7l0,0
		c6.8,0.6,13.7,1.2,20.8,1.7c65.5,4.6,120,2.5,128.6-4.7l0.2,0c0,0-34.1,35.2-85.4,54.7c-51.3,19.5-102.7-7.7-111.4-21
		c-8.7-13.4-12.6-71.4,26.1-110.3C649.5,743.3,695.5,726.4,695.5,726.4z"/>
	
		<linearGradient id="SVGID_14_" gradientUnits="userSpaceOnUse" x1="4106.0757" y1="-617.926" x2="4027.1677" y2="-617.926" gradientTransform="matrix(-0.8637 0.5039 0.5039 0.8637 4652.6191 -1208.4185)">
		<stop  offset="0" style="stop-color:#D0D2D3"/>
		<stop  offset="1" style="stop-color:#626366"/>
	</linearGradient>
	<path class="st13" d="M869.6,298.5c-57.3-22.7-103.2-34.8-106.2-27.6c-3.4,8,47.2,36.8,112.9,64.3c6.6,2.7,13,5.4,19.4,7.9
		L869.6,298.5z"/>
	
		<linearGradient id="SVGID_15_" gradientUnits="userSpaceOnUse" x1="712.3915" y1="-650.1962" x2="712.3915" y2="-571.292" gradientTransform="matrix(0.8637 -0.5039 0.5039 0.8637 593.3822 1160.3246)">
		<stop  offset="0" style="stop-color:#FFFFFF"/>
		<stop  offset="0.4265" style="stop-color:#CACBCD"/>
		<stop  offset="0.805" style="stop-color:#A2A3A6"/>
		<stop  offset="1" style="stop-color:#929497"/>
	</linearGradient>
	<path class="st14" d="M869.6,298.5c8.4-61,20.5-107,28.3-106.1c8.6,1,8.8,59.2,0.4,129.9c-0.9,7.1-1.7,14-2.7,20.7L869.6,298.5z"/>
	
		<linearGradient id="SVGID_16_" gradientUnits="userSpaceOnUse" x1="4027.1545" y1="-664.814" x2="4027.1545" y2="-502.6849" gradientTransform="matrix(-0.8637 0.5039 0.5039 0.8637 4652.6191 -1208.4185)">
		<stop  offset="0" style="stop-color:#FFFFFF"/>
		<stop  offset="0.166" style="stop-color:#E6E7E7"/>
		<stop  offset="0.3333" style="stop-color:#D0D2D3"/>
		<stop  offset="0.3412" style="stop-color:#CED0D1"/>
		<stop  offset="0.4272" style="stop-color:#C0C2C4"/>
		<stop  offset="0.5" style="stop-color:#BBBDBF"/>
		<stop  offset="1" style="stop-color:#4D4D4F"/>
	</linearGradient>
	<path class="st15" d="M763.4,273.1l0.1,0.1c4.4,10.2,52.1,36.7,112.7,62.1c6.6,2.7,13,5.4,19.4,7.9l0,0c0.9-6.7,1.8-13.6,2.7-20.7
		c7.8-65.2,8.2-119.7,1.5-128.6l0-0.2c0,0,33.5,35.8,50.5,87.9c17.1,52.2-12.6,102.3-26.3,110.3c-13.7,8-71.9,9.2-109-31.4
		C778,319.8,763.4,273.1,763.4,273.1z"/>
	
		<linearGradient id="SVGID_17_" gradientUnits="userSpaceOnUse" x1="3968.2944" y1="-1144.0424" x2="3888.8887" y2="-1144.0424" gradientTransform="matrix(-0.726 0.6877 0.6877 0.726 4376.4297 -1677.597)">
		<stop  offset="0" style="stop-color:#D0D2D3"/>
		<stop  offset="1" style="stop-color:#626366"/>
	</linearGradient>
	<path class="st16" d="M774.3,176.7c-60.9-9-108.4-10.4-109.7-2.6c-1.4,8.6,54.4,25.1,124.6,36.9c7,1.2,13.9,2.3,20.6,3.3
		L774.3,176.7z"/>
	
		<linearGradient id="SVGID_18_" gradientUnits="userSpaceOnUse" x1="848.145" y1="-1195.0936" x2="848.145" y2="-1113.509" gradientTransform="matrix(0.726 -0.6877 0.6877 0.726 965.0113 1553.8635)">
		<stop  offset="0" style="stop-color:#FFFFFF"/>
		<stop  offset="0.4265" style="stop-color:#CACBCD"/>
		<stop  offset="0.805" style="stop-color:#A2A3A6"/>
		<stop  offset="1" style="stop-color:#929497"/>
	</linearGradient>
	<path class="st17" d="M774.4,176.6c-5.7-61.3-4.5-108.9,3.3-109.7c8.7-1,22.1,55.6,30.1,126.4c0.8,7.1,1.5,14,2.1,20.8L774.4,176.6
		z"/>
	
		<linearGradient id="SVGID_19_" gradientUnits="userSpaceOnUse" x1="4141.7197" y1="131.9278" x2="4025.0083" y2="248.6392" gradientTransform="matrix(-1 0 0 1 4872.3223 0)">
		<stop  offset="0" style="stop-color:#FFFFFF"/>
		<stop  offset="0.166" style="stop-color:#E6E7E7"/>
		<stop  offset="0.3333" style="stop-color:#D0D2D3"/>
		<stop  offset="0.3412" style="stop-color:#CED0D1"/>
		<stop  offset="0.4272" style="stop-color:#C0C2C4"/>
		<stop  offset="0.5" style="stop-color:#BBBDBF"/>
		<stop  offset="1" style="stop-color:#4D4D4F"/>
	</linearGradient>
	<path class="st18" d="M665.1,176.2l0.2,0c6.6,9,59.1,23.9,123.9,34.7c7,1.2,13.9,2.3,20.6,3.3l0,0c-0.6-6.8-1.3-13.7-2.1-20.8
		c-7.3-65.2-19.3-118.4-27.9-125.6l0-0.2c0,0,40.8,27.2,69.3,74.1c28.5,46.9,11.1,102.4-0.5,113.4c-11.6,10.9-67.9,25.3-113.2-5.7
		C690.1,218.3,665.1,176.2,665.1,176.2z"/>
	<linearGradient id="SVGID_20_" gradientUnits="userSpaceOnUse" x1="468.1396" y1="863.9395" x2="627.7803" y2="1023.5802">
		<stop  offset="0" style="stop-color:#D0D2D3"/>
		<stop  offset="1" style="stop-color:#6D6E70"/>
	</linearGradient>
	<path class="st19" d="M440.3,881.1c0,0,146.1,35.3,218.1,104.7c9.1,8.7-33.7,48.5-45.4,35.8c-46.3-50.9-85.4-83-178-123
		C424.7,894,440.3,881.1,440.3,881.1z"/>
	<linearGradient id="SVGID_21_" gradientUnits="userSpaceOnUse" x1="201.3234" y1="440.3639" x2="122.4204" y2="440.3639">
		<stop  offset="0" style="stop-color:#FFFFFF"/>
		<stop  offset="0.4265" style="stop-color:#CACBCD"/>
		<stop  offset="0.805" style="stop-color:#A2A3A6"/>
		<stop  offset="1" style="stop-color:#929497"/>
	</linearGradient>
	<path class="st20" d="M122.4,453.4c38.1-48.4,71.6-82.1,77.9-77.4c7,5.3-22.2,55.6-65.1,112.5c-4.3,5.7-8.5,11.2-12.8,16.6V453.4z"
		/>
	
		<linearGradient id="SVGID_22_" gradientUnits="userSpaceOnUse" x1="4655.5303" y1="440.3639" x2="4576.6338" y2="440.3639" gradientTransform="matrix(-1 0 0 1 4699 0)">
		<stop  offset="0" style="stop-color:#D0D2D3"/>
		<stop  offset="1" style="stop-color:#626366"/>
	</linearGradient>
	<path class="st21" d="M122.4,453.4c-38-48.4-71.6-82.1-77.9-77.4c-7,5.3,22.2,55.6,65.1,112.5c4.3,5.7,8.6,11.2,12.8,16.6V453.4z"
		/>
	<linearGradient id="SVGID_23_" gradientUnits="userSpaceOnUse" x1="54.0635" y1="372.0919" x2="189.2214" y2="507.2498">
		<stop  offset="0" style="stop-color:#FFFFFF"/>
		<stop  offset="0.166" style="stop-color:#E6E7E7"/>
		<stop  offset="0.3333" style="stop-color:#D0D2D3"/>
		<stop  offset="0.3412" style="stop-color:#CED0D1"/>
		<stop  offset="0.4272" style="stop-color:#C0C2C4"/>
		<stop  offset="0.5" style="stop-color:#BBBDBF"/>
		<stop  offset="1" style="stop-color:#4D4D4F"/>
	</linearGradient>
	<path class="st22" d="M201.4,378l-0.1,0.1c1.4,11.1-26.5,57.9-66.1,110.4c-4.3,5.7-8.5,11.2-12.8,16.6h0
		c-4.2-5.3-8.5-10.9-12.8-16.6c-39.5-52.4-67.4-99.3-66.1-110.4l-0.1-0.2c0,0-10.9,47.8,0.6,101.4c11.6,53.7,62.4,82,78.3,82
		c15.9,0,66.7-28.3,78.3-82C212.3,425.8,201.4,378,201.4,378z"/>
	<linearGradient id="SVGID_24_" gradientUnits="userSpaceOnUse" x1="187.2332" y1="517.5697" x2="157.0698" y2="640.4797">
		<stop  offset="0" style="stop-color:#FFFFFF"/>
		<stop  offset="0.4265" style="stop-color:#CACBCD"/>
		<stop  offset="0.805" style="stop-color:#A2A3A6"/>
		<stop  offset="1" style="stop-color:#929497"/>
	</linearGradient>
	<path class="st23" d="M146.4,618.6c17.1-59.2,35.5-103,43.1-101c8.4,2.2,0.3,59.9-18.1,128.7c-1.8,6.9-3.7,13.6-5.6,20.1
		L146.4,618.6z"/>
	
		<linearGradient id="SVGID_25_" gradientUnits="userSpaceOnUse" x1="4746.0776" y1="-304.3914" x2="4634.0112" y2="-258.9826" gradientTransform="matrix(-0.9268 0.3755 0.3755 0.9268 4557.8076 -879.4515)">
		<stop  offset="0" style="stop-color:#D0D2D3"/>
		<stop  offset="1" style="stop-color:#626366"/>
	</linearGradient>
	<path class="st24" d="M146.4,618.6C92.9,588,49.2,569.4,45.1,576.1c-4.5,7.5,41.5,43.2,102.6,79.8c6.1,3.6,12.1,7.2,18,10.5
		L146.4,618.6z"/>
	
		<linearGradient id="SVGID_26_" gradientUnits="userSpaceOnUse" x1="-21.6695" y1="-351.696" x2="115.2963" y2="-214.7302" gradientTransform="matrix(0.9268 -0.3755 0.3755 0.9268 202.64 885.8004)">
		<stop  offset="0" style="stop-color:#FFFFFF"/>
		<stop  offset="0.166" style="stop-color:#E6E7E7"/>
		<stop  offset="0.3333" style="stop-color:#D0D2D3"/>
		<stop  offset="0.3412" style="stop-color:#CED0D1"/>
		<stop  offset="0.4272" style="stop-color:#C0C2C4"/>
		<stop  offset="0.5" style="stop-color:#BBBDBF"/>
		<stop  offset="1" style="stop-color:#4D4D4F"/>
	</linearGradient>
	<path class="st25" d="M191.2,519l-0.1,0.2c5.4,9.7-2.8,63.6-19.8,127.1c-1.8,6.9-3.7,13.6-5.6,20.1l0,0c-5.9-3.4-11.9-6.9-18-10.6
		C91.4,622.2,48,589.2,45.1,578.4l-0.2-0.1c0,0,7.8,48.4,38.7,93.8c30.9,45.4,88.6,52.5,103.4,46.6c14.8-6,51.2-51.3,41.8-105.4
		C219.3,559.2,191.2,519,191.2,519z"/>
	
		<linearGradient id="SVGID_27_" gradientUnits="userSpaceOnUse" x1="369.7732" y1="-1008.6069" x2="290.8608" y2="-1008.6069" gradientTransform="matrix(0.7103 -0.7039 0.7039 0.7103 726.3522 1661.0519)">
		<stop  offset="0" style="stop-color:#D0D2D3"/>
		<stop  offset="1" style="stop-color:#626366"/>
	</linearGradient>
	<path class="st26" d="M232.2,749.2c-7.1-61.2-6.9-108.7,0.9-109.8c8.6-1.2,23.4,55.1,32.9,125.7c0.9,7,1.8,14,2.6,20.7L232.2,749.2
		z"/>
	
		<linearGradient id="SVGID_28_" gradientUnits="userSpaceOnUse" x1="4487.0615" y1="-1009.4241" x2="4408.1826" y2="-1009.4241" gradientTransform="matrix(-0.7103 0.7039 0.7039 0.7103 4064.6162 -1645.9856)">
		<stop  offset="0" style="stop-color:#FFFFFF"/>
		<stop  offset="0.4265" style="stop-color:#CACBCD"/>
		<stop  offset="0.805" style="stop-color:#A2A3A6"/>
		<stop  offset="1" style="stop-color:#929497"/>
	</linearGradient>
	<path class="st27" d="M232.1,749.2c-61.1-7.6-108.6-7.9-109.8-0.1c-1.3,8.6,54.9,23.9,125.4,34.1c7,1,14,1.9,20.7,2.8L232.1,749.2z
		"/>
	
		<linearGradient id="SVGID_29_" gradientUnits="userSpaceOnUse" x1="290.8437" y1="-1078.8759" x2="290.8437" y2="-878.9888" gradientTransform="matrix(0.7103 -0.7039 0.7039 0.7103 726.3527 1661.0519)">
		<stop  offset="0" style="stop-color:#FFFFFF"/>
		<stop  offset="0.166" style="stop-color:#E6E7E7"/>
		<stop  offset="0.3333" style="stop-color:#D0D2D3"/>
		<stop  offset="0.3412" style="stop-color:#CED0D1"/>
		<stop  offset="0.4272" style="stop-color:#C0C2C4"/>
		<stop  offset="0.5" style="stop-color:#BBBDBF"/>
		<stop  offset="1" style="stop-color:#4D4D4F"/>
	</linearGradient>
	<path class="st28" d="M235.2,640l0,0.2c8.8,6.9,22,59.8,30.8,125c0.9,7,1.8,14,2.6,20.7l0,0c-6.8-0.9-13.7-1.8-20.7-2.8
		c-65-9.4-117.7-23.1-124.6-31.9l-0.2,0c0,0,25.9,41.6,71.8,71.6c46,30,102,14.3,113.3,3.1c11.3-11.2,27.5-67.1-2.1-113.4
		C276.5,666.3,235.2,640,235.2,640z"/>
	
		<linearGradient id="SVGID_30_" gradientUnits="userSpaceOnUse" x1="628.316" y1="-1286.189" x2="549.4191" y2="-1286.189" gradientTransform="matrix(0.5445 -0.8388 0.8388 0.5445 1117.5376 1987.7471)">
		<stop  offset="0" style="stop-color:#D0D2D3"/>
		<stop  offset="1" style="stop-color:#626366"/>
	</linearGradient>
	<path class="st29" d="M348.8,833.7c-19.9-58.3-29.9-104.8-22.5-107.4c8.2-3,34.5,48.9,58.9,115.9c2.4,6.7,4.7,13.3,6.9,19.7
		L348.8,833.7z"/>
	
		<linearGradient id="SVGID_31_" gradientUnits="userSpaceOnUse" x1="4227.8638" y1="-1287.012" x2="4148.9624" y2="-1287.012" gradientTransform="matrix(-0.5445 0.8388 0.8388 0.5445 3676.4746 -1952.7721)">
		<stop  offset="0" style="stop-color:#FFFFFF"/>
		<stop  offset="0.4265" style="stop-color:#CACBCD"/>
		<stop  offset="0.805" style="stop-color:#A2A3A6"/>
		<stop  offset="1" style="stop-color:#929497"/>
	</linearGradient>
	<path class="st30" d="M348.8,833.7c-61.3,5.5-107.9,15.4-107.3,23.2c0.6,8.7,58.7,11.6,129.8,6.6c7.1-0.5,14-1.1,20.8-1.7
		L348.8,833.7z"/>
	
		<linearGradient id="SVGID_32_" gradientUnits="userSpaceOnUse" x1="549.3951" y1="-1356.4575" x2="549.3951" y2="-1156.5797" gradientTransform="matrix(0.5445 -0.8388 0.8388 0.5445 1117.5375 1987.748)">
		<stop  offset="0" style="stop-color:#FFFFFF"/>
		<stop  offset="0.166" style="stop-color:#E6E7E7"/>
		<stop  offset="0.3333" style="stop-color:#D0D2D3"/>
		<stop  offset="0.3412" style="stop-color:#CED0D1"/>
		<stop  offset="0.4272" style="stop-color:#C0C2C4"/>
		<stop  offset="0.5" style="stop-color:#BBBDBF"/>
		<stop  offset="1" style="stop-color:#4D4D4F"/>
	</linearGradient>
	<path class="st31" d="M328.5,726.4l0.1,0.1c10,4.9,34.2,53.7,56.6,115.5c2.4,6.7,4.7,13.3,6.9,19.7l0,0c-6.8,0.6-13.7,1.2-20.8,1.7
		c-65.5,4.6-120,2.5-128.6-4.7l-0.2,0c0,0,34.1,35.2,85.4,54.7c51.3,19.5,102.7-7.7,111.4-21c8.7-13.4,12.6-71.4-26.1-110.3
		C374.5,743.3,328.5,726.4,328.5,726.4z"/>
	
		<linearGradient id="SVGID_33_" gradientUnits="userSpaceOnUse" x1="781.9348" y1="1321.4438" x2="703.0319" y2="1321.4438" gradientTransform="matrix(0.8637 0.5039 -0.5039 0.8637 219.7025 -1208.4185)">
		<stop  offset="0" style="stop-color:#FFFFFF"/>
		<stop  offset="0.4265" style="stop-color:#CACBCD"/>
		<stop  offset="0.805" style="stop-color:#A2A3A6"/>
		<stop  offset="1" style="stop-color:#929497"/>
	</linearGradient>
	<path class="st32" d="M154.4,298.5c57.3-22.7,103.2-34.8,106.3-27.6c3.4,8-47.2,36.8-112.9,64.3c-6.6,2.7-13,5.4-19.4,7.9
		L154.4,298.5z"/>
	
		<linearGradient id="SVGID_34_" gradientUnits="userSpaceOnUse" x1="4076.0002" y1="1321.0251" x2="3997.0945" y2="1321.0251" gradientTransform="matrix(-0.8637 -0.5039 -0.5039 0.8637 4278.9399 1160.3246)">
		<stop  offset="0" style="stop-color:#D0D2D3"/>
		<stop  offset="1" style="stop-color:#626366"/>
	</linearGradient>
	<path class="st33" d="M154.4,298.5c-8.5-61-20.5-107-28.3-106.1c-8.6,1-8.8,59.2-0.4,129.9c0.8,7.1,1.7,14,2.7,20.7L154.4,298.5z"
		/>
	
		<linearGradient id="SVGID_35_" gradientUnits="userSpaceOnUse" x1="627.0021" y1="1350.7756" x2="780.2633" y2="1350.7756" gradientTransform="matrix(0.8637 0.5039 -0.5039 0.8637 219.7025 -1208.4185)">
		<stop  offset="0" style="stop-color:#FFFFFF"/>
		<stop  offset="0.166" style="stop-color:#E6E7E7"/>
		<stop  offset="0.3333" style="stop-color:#D0D2D3"/>
		<stop  offset="0.3412" style="stop-color:#CED0D1"/>
		<stop  offset="0.4272" style="stop-color:#C0C2C4"/>
		<stop  offset="0.5" style="stop-color:#BBBDBF"/>
		<stop  offset="1" style="stop-color:#4D4D4F"/>
	</linearGradient>
	<path class="st34" d="M260.6,273.1l-0.1,0.1c-4.4,10.2-52.1,36.7-112.7,62.1c-6.6,2.7-13,5.4-19.4,7.9l0,0
		c-0.9-6.7-1.8-13.6-2.7-20.7c-7.7-65.2-8.2-119.7-1.5-128.6l0-0.2c0,0-33.5,35.8-50.5,87.9C56.6,333.6,86.3,383.7,100,391.7
		c13.8,8,71.9,9.2,108.9-31.4C246,319.8,260.6,273.1,260.6,273.1z"/>
	
		<linearGradient id="SVGID_36_" gradientUnits="userSpaceOnUse" x1="1174.4338" y1="1502.4314" x2="1095.02" y2="1502.4314" gradientTransform="matrix(0.726 0.6877 -0.6877 0.726 495.8928 -1677.597)">
		<stop  offset="0" style="stop-color:#FFFFFF"/>
		<stop  offset="0.4265" style="stop-color:#CACBCD"/>
		<stop  offset="0.805" style="stop-color:#A2A3A6"/>
		<stop  offset="1" style="stop-color:#929497"/>
	</linearGradient>
	<path class="st35" d="M249.7,176.7c60.9-9,108.5-10.4,109.8-2.6c1.4,8.6-54.4,25.1-124.6,36.9c-7,1.2-13.9,2.3-20.6,3.3
		L249.7,176.7z"/>
	
		<linearGradient id="SVGID_37_" gradientUnits="userSpaceOnUse" x1="3683.7427" y1="1502.4237" x2="3602.1682" y2="1502.4237" gradientTransform="matrix(-0.726 -0.6877 -0.6877 0.726 3907.311 1553.8625)">
		<stop  offset="0" style="stop-color:#D0D2D3"/>
		<stop  offset="1" style="stop-color:#626366"/>
	</linearGradient>
	<path class="st36" d="M249.6,176.6c5.7-61.3,4.5-108.9-3.3-109.7c-8.7-1-22.1,55.6-30.1,126.4c-0.8,7.1-1.5,14-2.1,20.8
		L249.6,176.6z"/>
	<linearGradient id="SVGID_38_" gradientUnits="userSpaceOnUse" x1="183.1246" y1="131.5789" x2="296.1483" y2="244.6027">
		<stop  offset="0" style="stop-color:#FFFFFF"/>
		<stop  offset="0.166" style="stop-color:#E6E7E7"/>
		<stop  offset="0.3333" style="stop-color:#D0D2D3"/>
		<stop  offset="0.3412" style="stop-color:#CED0D1"/>
		<stop  offset="0.4272" style="stop-color:#C0C2C4"/>
		<stop  offset="0.5" style="stop-color:#BBBDBF"/>
		<stop  offset="1" style="stop-color:#4D4D4F"/>
	</linearGradient>
	<path class="st37" d="M358.9,176.2l-0.2,0c-6.6,9-59.1,23.9-123.9,34.7c-7,1.2-13.9,2.3-20.6,3.3l0,0c0.6-6.8,1.3-13.7,2.1-20.8
		c7.3-65.2,19.3-118.4,28-125.6v-0.2c0,0-40.7,27.2-69.3,74.1c-28.5,46.9-11.1,102.4,0.5,113.4c11.6,10.9,67.9,25.3,113.2-5.7
		C334,218.3,358.9,176.2,358.9,176.2z"/>
</g>
<g>
</g>
<g>
</g>
<g>
</g>
<g>
</g>
<g>
</g>
</svg>
