<?xml version="1.0" encoding="utf-8"?>
<!-- Generator: Adobe Illustrator 22.0.1, SVG Export Plug-In . SVG Version: 6.00 Build 0)  -->
<svg version="1.1" id="Layer_7" xmlns="http://www.w3.org/2000/svg" xmlns:xlink="http://www.w3.org/1999/xlink" x="0px" y="0px"
	 viewBox="0 0 50 50" style="enable-background:new 0 0 50 50;" xml:space="preserve">
<style type="text/css">
	.Drop_x0020_Shadow{fill:none;}
	.Outer_x0020_Glow_x0020_5_x0020_pt{fill:none;}
	.Jive_GS{fill:#A6D0E4;}
	.st0{fill:#9D6928;}
	.st1{fill:#B0762A;}
	.st2{fill:#E2B139;}
	.st3{fill:#FBED62;}
	.st4{fill:#E5A930;}
	.st5{fill:#895C24;}
	.st6{fill:#F8E97B;}
	.st7{fill:#EBC84D;}
	.st8{fill:#FBED63;}
	.st9{fill:#C88C2B;}
</style>
<g>
	<g>
		<polygon class="st0" points="25,45.6 28.1,50 24.9,48.3 24.9,45.6 		"/>
		<polygon class="st1" points="24.9,45.6 24.9,48.3 21.8,50 24.9,45.6 		"/>
		<polygon class="st2" points="25,45.6 27.5,46.5 28.1,50 25,45.6 		"/>
		<polygon class="st3" points="24.9,45.6 21.8,50 22.4,46.5 24.9,45.6 		"/>
		<polygon class="st4" points="24.9,45.6 22.4,46.5 19.8,43.9 24.9,45.6 		"/>
		<polygon class="st5" points="25,45.6 30.1,43.9 27.5,46.5 25,45.6 		"/>
		<polygon class="st6" points="24.9,45.6 19.8,43.9 23.4,43.4 24.9,45.6 		"/>
		<polygon class="st7" points="25,45.6 26.5,43.4 30.1,43.9 25,45.6 		"/>
		<polygon class="st8" points="24.9,45.6 23.4,43.4 24.9,40.2 24.9,45.6 		"/>
		<polygon class="st9" points="24.9,45.6 24.9,40.2 26.5,43.4 25,45.6 		"/>
	</g>
	<g>
		<polygon class="st0" points="34.3,43.6 36.3,46.3 34.3,45.2 34.3,43.6 		"/>
		<polygon class="st1" points="34.3,43.6 34.3,45.2 32.4,46.3 34.3,43.6 		"/>
		<polygon class="st2" points="34.3,43.6 35.9,44.1 36.3,46.3 34.3,43.6 		"/>
		<polygon class="st3" points="34.3,43.6 32.4,46.3 32.7,44.1 34.3,43.6 		"/>
		<polygon class="st4" points="34.3,43.6 32.7,44.1 31.2,42.5 34.3,43.6 		"/>
		<polygon class="st5" points="34.3,43.6 37.5,42.5 35.9,44.1 34.3,43.6 		"/>
		<polygon class="st6" points="34.3,43.6 31.2,42.5 33.4,42.2 34.3,43.6 		"/>
		<polygon class="st7" points="34.3,43.6 35.3,42.2 37.5,42.5 34.3,43.6 		"/>
		<polygon class="st8" points="34.3,43.6 33.4,42.2 34.3,40.2 34.3,43.5 		"/>
		<polygon class="st9" points="34.3,43.5 34.3,40.2 35.3,42.2 34.3,43.6 		"/>
	</g>
	<g>
		<polygon class="st0" points="15.7,43.6 17.6,46.3 15.7,45.2 15.7,43.6 		"/>
		<polygon class="st1" points="15.7,43.6 15.7,45.2 13.7,46.3 15.7,43.6 		"/>
		<polygon class="st2" points="15.7,43.6 17.3,44.1 17.6,46.3 15.7,43.6 		"/>
		<polygon class="st3" points="15.7,43.6 13.7,46.3 14.1,44.1 15.7,43.6 		"/>
		<polygon class="st4" points="15.7,43.6 14.1,44.1 12.5,42.5 15.7,43.6 		"/>
		<polygon class="st5" points="15.7,43.6 18.8,42.5 17.3,44.1 15.7,43.6 		"/>
		<polygon class="st6" points="15.7,43.6 12.5,42.5 14.7,42.2 15.7,43.6 		"/>
		<polygon class="st7" points="15.7,43.6 16.6,42.2 18.8,42.5 15.7,43.6 		"/>
		<polygon class="st8" points="15.7,43.6 14.7,42.2 15.7,40.2 15.7,43.5 		"/>
		<polygon class="st9" points="15.7,43.5 15.7,40.2 16.6,42.2 15.7,43.6 		"/>
	</g>
</g>
<g>
</g>
<g>
</g>
<g>
</g>
<g>
</g>
<g>
</g>
</svg>
