<?xml version="1.0" encoding="utf-8"?>
<!-- Generator: Adobe Illustrator 22.0.1, SVG Export Plug-In . SVG Version: 6.00 Build 0)  -->
<svg version="1.1" id="Layer_4" xmlns="http://www.w3.org/2000/svg" xmlns:xlink="http://www.w3.org/1999/xlink" x="0px" y="0px"
	 viewBox="0 0 50 50" style="enable-background:new 0 0 50 50;" xml:space="preserve">
<style type="text/css">
	.Drop_x0020_Shadow{fill:none;}
	.Outer_x0020_Glow_x0020_5_x0020_pt{fill:none;}
	.Jive_GS{fill:#A6D0E4;}
	.st0{fill:none;}
	.st1{fill:#9D6928;}
	.st2{fill:#B0762A;}
	.st3{fill:#E2B139;}
	.st4{fill:#FBED62;}
	.st5{fill:#E5A930;}
	.st6{fill:#895C24;}
	.st7{fill:#F8E97B;}
	.st8{fill:#EBC84D;}
	.st9{fill:#FBED63;}
	.st10{fill:#C88C2B;}
</style>
<rect class="st0" width="50" height="50"/>
<g>
	<polygon class="st1" points="25,43.5 27,46.2 25,45.2 25,43.5 	"/>
	<polygon class="st2" points="25,43.5 25,45.2 23,46.2 25,43.5 	"/>
	<polygon class="st3" points="25,43.5 26.6,44 27,46.2 25,43.5 	"/>
	<polygon class="st4" points="25,43.5 23,46.2 23.4,44 25,43.5 	"/>
	<polygon class="st5" points="25,43.5 23.4,44 21.8,42.5 25,43.5 	"/>
	<polygon class="st6" points="25,43.5 28.2,42.5 26.6,44 25,43.5 	"/>
	<polygon class="st7" points="25,43.5 21.8,42.5 24,42.2 25,43.5 	"/>
	<polygon class="st8" points="25,43.5 26,42.2 28.2,42.5 25,43.5 	"/>
	<polygon class="st9" points="25,43.5 24,42.2 25,40.2 25,43.5 	"/>
	<polygon class="st10" points="25,43.5 25,40.2 26,42.2 25,43.5 	"/>
</g>
<g>
</g>
<g>
</g>
<g>
</g>
<g>
</g>
<g>
</g>
</svg>
