<?xml version="1.0" encoding="utf-8"?>
<!-- Generator: Adobe Illustrator 22.0.1, SVG Export Plug-In . SVG Version: 6.00 Build 0)  -->
<svg version="1.1" id="Layer_6" xmlns="http://www.w3.org/2000/svg" xmlns:xlink="http://www.w3.org/1999/xlink" x="0px" y="0px"
	 viewBox="0 0 50 50" style="enable-background:new 0 0 50 50;" xml:space="preserve">
<style type="text/css">
	.Drop_x0020_Shadow{fill:none;}
	.Outer_x0020_Glow_x0020_5_x0020_pt{fill:none;}
	.Jive_GS{fill:#A6D0E4;}
	.st0{fill:none;}
	.st1{fill:#9D6928;}
	.st2{fill:#B0762A;}
	.st3{fill:#E2B139;}
	.st4{fill:#FBED62;}
	.st5{fill:#E5A930;}
	.st6{fill:#895C24;}
	.st7{fill:#F8E97B;}
	.st8{fill:#EBC84D;}
	.st9{fill:#FBED63;}
	.st10{fill:#C88C2B;}
</style>
<rect class="st0" width="50" height="50"/>
<g>
	<g>
		<polygon class="st1" points="29.8,45.3 31.7,48.1 29.8,47 29.8,45.3 		"/>
		<polygon class="st2" points="29.8,45.3 29.8,47 27.8,48.1 29.8,45.3 		"/>
		<polygon class="st3" points="29.8,45.3 31.4,45.9 31.7,48.1 29.8,45.3 		"/>
		<polygon class="st4" points="29.8,45.3 27.8,48.1 28.2,45.9 29.8,45.3 		"/>
		<polygon class="st5" points="29.8,45.3 28.2,45.9 26.6,44.3 29.8,45.3 		"/>
		<polygon class="st6" points="29.8,45.3 32.9,44.3 31.4,45.9 29.8,45.3 		"/>
		<polygon class="st7" points="29.8,45.3 26.6,44.3 28.8,44 29.8,45.3 		"/>
		<polygon class="st8" points="29.8,45.3 30.7,44 32.9,44.3 29.8,45.3 		"/>
		<polygon class="st9" points="29.8,45.3 28.8,44 29.8,42 29.8,45.3 		"/>
		<polygon class="st10" points="29.8,45.3 29.8,42 30.7,44 29.8,45.3 		"/>
	</g>
	<g>
		<polygon class="st1" points="20.2,45.3 22.2,48.1 20.2,47 20.2,45.3 		"/>
		<polygon class="st2" points="20.2,45.3 20.2,47 18.3,48.1 20.2,45.3 		"/>
		<polygon class="st3" points="20.2,45.3 21.8,45.9 22.2,48.1 20.2,45.3 		"/>
		<polygon class="st4" points="20.2,45.3 18.3,48.1 18.6,45.9 20.2,45.3 		"/>
		<polygon class="st5" points="20.2,45.3 18.6,45.9 17.1,44.3 20.2,45.3 		"/>
		<polygon class="st6" points="20.2,45.3 23.4,44.3 21.8,45.9 20.2,45.3 		"/>
		<polygon class="st7" points="20.2,45.3 17.1,44.3 19.3,44 20.2,45.3 		"/>
		<polygon class="st8" points="20.2,45.3 21.2,44 23.4,44.3 20.2,45.3 		"/>
		<polygon class="st9" points="20.2,45.3 19.3,44 20.2,42 20.2,45.3 		"/>
		<polygon class="st10" points="20.2,45.3 20.2,42 21.2,44 20.2,45.3 		"/>
	</g>
</g>
<g>
</g>
<g>
</g>
<g>
</g>
<g>
</g>
<g>
</g>
</svg>
