<?xml version="1.0" encoding="utf-8"?>
<!-- Generator: Adobe Illustrator 22.0.1, SVG Export Plug-In . SVG Version: 6.00 Build 0)  -->
<svg version="1.1" id="Layer_9" xmlns="http://www.w3.org/2000/svg" xmlns:xlink="http://www.w3.org/1999/xlink" x="0px" y="0px"
	 viewBox="0 0 50 50" style="enable-background:new 0 0 50 50;" xml:space="preserve">
<style type="text/css">
	.Drop_x0020_Shadow{fill:none;}
	.Outer_x0020_Glow_x0020_5_x0020_pt{fill:none;}
	.Jive_GS{fill:#A6D0E4;}
	.st0{fill:url(#SVGID_1_);stroke:#E4A12D;stroke-width:0.3049;stroke-linejoin:round;stroke-miterlimit:10;}
	.st1{fill:url(#SVGID_2_);stroke:#E4A12D;stroke-width:0.3049;stroke-linejoin:round;stroke-miterlimit:10;}
	.st2{fill:url(#SVGID_3_);stroke:#E4A12D;stroke-width:0.3049;stroke-linejoin:round;stroke-miterlimit:10;}
	.st3{fill:url(#SVGID_4_);stroke:#E4A12D;stroke-width:0.3049;stroke-linejoin:round;stroke-miterlimit:10;}
	.st4{fill:url(#SVGID_5_);stroke:#E4A12D;stroke-width:0.3049;stroke-linejoin:round;stroke-miterlimit:10;}
</style>
<g>
	<linearGradient id="SVGID_1_" gradientUnits="userSpaceOnUse" x1="48.319" y1="28.5546" x2="40.741" y2="34.9486">
		<stop  offset="0" style="stop-color:#EC1C24"/>
		<stop  offset="0.1663" style="stop-color:#E81B23"/>
		<stop  offset="0.3265" style="stop-color:#DD1920"/>
		<stop  offset="0.4841" style="stop-color:#C9161C"/>
		<stop  offset="0.6402" style="stop-color:#AE1116"/>
		<stop  offset="0.7952" style="stop-color:#8B0B0E"/>
		<stop  offset="0.9474" style="stop-color:#600304"/>
		<stop  offset="1" style="stop-color:#500000"/>
	</linearGradient>
	<path class="st0" d="M45.1,37.1c0,0-2.3-2.8-3-3.6c-0.7-0.7-2.8,0.5-3.7,0c-0.8-0.5,0.5-3.5,3.8-5.4c0.2,3.1,0.8,4.5,0.8,4.5h4.9
		C47.8,32.6,44.5,35.4,45.1,37.1z"/>
	<linearGradient id="SVGID_2_" gradientUnits="userSpaceOnUse" x1="39.3717" y1="34.5047" x2="41.3001" y2="33.2191">
		<stop  offset="0" style="stop-color:#EC1C24"/>
		<stop  offset="0.2239" style="stop-color:#C11218"/>
		<stop  offset="0.448" style="stop-color:#9E0A0D"/>
		<stop  offset="0.6587" style="stop-color:#840506"/>
		<stop  offset="0.8486" style="stop-color:#740102"/>
		<stop  offset="1" style="stop-color:#6F0000"/>
	</linearGradient>
	<path class="st1" d="M38.4,33.6l1.8,2c0,0,2.3-1.5,1.9-2C41.4,32.8,39.3,34.1,38.4,33.6z"/>
	
		<linearGradient id="SVGID_3_" gradientUnits="userSpaceOnUse" x1="-6405.6592" y1="28.5546" x2="-6413.2373" y2="34.9486" gradientTransform="matrix(-1 0 0 1 -6403.9785 0)">
		<stop  offset="0" style="stop-color:#EC1C24"/>
		<stop  offset="0.1663" style="stop-color:#E81B23"/>
		<stop  offset="0.3265" style="stop-color:#DD1920"/>
		<stop  offset="0.4841" style="stop-color:#C9161C"/>
		<stop  offset="0.6402" style="stop-color:#AE1116"/>
		<stop  offset="0.7952" style="stop-color:#8B0B0E"/>
		<stop  offset="0.9474" style="stop-color:#600304"/>
		<stop  offset="1" style="stop-color:#500000"/>
	</linearGradient>
	<path class="st2" d="M4.9,37.1c0,0,2.3-2.8,3-3.6c0.7-0.7,2.8,0.5,3.7,0c0.8-0.5-0.5-3.5-3.8-5.4C7.7,31.2,7,32.6,7,32.6H2.2
		C2.2,32.6,5.5,35.4,4.9,37.1z"/>
	
		<linearGradient id="SVGID_4_" gradientUnits="userSpaceOnUse" x1="-6414.6064" y1="34.5047" x2="-6412.6782" y2="33.2191" gradientTransform="matrix(-1 0 0 1 -6403.9785 0)">
		<stop  offset="0" style="stop-color:#EC1C24"/>
		<stop  offset="0.2239" style="stop-color:#C11218"/>
		<stop  offset="0.448" style="stop-color:#9E0A0D"/>
		<stop  offset="0.6587" style="stop-color:#840506"/>
		<stop  offset="0.8486" style="stop-color:#740102"/>
		<stop  offset="1" style="stop-color:#6F0000"/>
	</linearGradient>
	<path class="st3" d="M11.6,33.6l-1.8,2c0,0-2.3-1.5-1.9-2C8.6,32.8,10.7,34.1,11.6,33.6z"/>
	
		<radialGradient id="SVGID_5_" cx="25.2723" cy="38.608" r="23.2782" gradientTransform="matrix(1 0 0 0.5992 0 15.4749)" gradientUnits="userSpaceOnUse">
		<stop  offset="0" style="stop-color:#EC1C24"/>
		<stop  offset="0.2083" style="stop-color:#E81B23"/>
		<stop  offset="0.4088" style="stop-color:#DD181F"/>
		<stop  offset="0.6061" style="stop-color:#C91319"/>
		<stop  offset="0.8014" style="stop-color:#AE0C10"/>
		<stop  offset="0.9937" style="stop-color:#8B0304"/>
		<stop  offset="1" style="stop-color:#8A0304"/>
	</radialGradient>
	<path class="st4" d="M42.1,33.6c-4.1,4.9-10.2,8-17.1,8c-6.9,0-13-3.1-17.1-8l0,0l-5.1,6c5.5,6,13.4,9.8,22.2,9.8
		s16.7-3.8,22.2-9.8L42.1,33.6L42.1,33.6z"/>
</g>
<g>
</g>
<g>
</g>
<g>
</g>
<g>
</g>
<g>
</g>
</svg>
