<?xml version="1.0" encoding="utf-8"?>
<!-- Generator: Adobe Illustrator 22.0.1, SVG Export Plug-In . SVG Version: 6.00 Build 0)  -->
<svg version="1.1" id="Layer_10" xmlns="http://www.w3.org/2000/svg" xmlns:xlink="http://www.w3.org/1999/xlink" x="0px" y="0px"
	 viewBox="0 0 50 50" style="enable-background:new 0 0 50 50;" xml:space="preserve">
<style type="text/css">
	.Drop_x0020_Shadow{fill:none;}
	.Outer_x0020_Glow_x0020_5_x0020_pt{fill:none;}
	.Jive_GS{fill:#A6D0E4;}
	.st0{fill:url(#SVGID_1_);stroke:#E4A12D;stroke-width:0.3049;stroke-linejoin:round;stroke-miterlimit:10;}
	.st1{fill:url(#SVGID_2_);stroke:#E4A12D;stroke-width:0.3049;stroke-linejoin:round;stroke-miterlimit:10;}
</style>
<g>
	
		<linearGradient id="SVGID_1_" gradientUnits="userSpaceOnUse" x1="68.3556" y1="-23.0003" x2="77.2201" y2="-24.5839" gradientTransform="matrix(1 7.650486e-03 -7.650486e-03 1 -28.5791 43.3741)">
		<stop  offset="3.562899e-02" style="stop-color:#8A0304"/>
		<stop  offset="0.4832" style="stop-color:#EC1C24"/>
		<stop  offset="0.5699" style="stop-color:#E81B23"/>
		<stop  offset="0.6532" style="stop-color:#DD181F"/>
		<stop  offset="0.7352" style="stop-color:#C91319"/>
		<stop  offset="0.8165" style="stop-color:#AE0C10"/>
		<stop  offset="0.8964" style="stop-color:#8B0304"/>
		<stop  offset="0.8991" style="stop-color:#8A0304"/>
	</linearGradient>
	<path class="st0" d="M40.3,25.7c3.1,0.6,7.8-1.1,8-3.6c0.1-2.2-0.6-5.9-1.6-7.7c-1.2,2.4-4.4,3.5-6.9,3.5
		C40.2,20.8,40.3,23.1,40.3,25.7z"/>
	
		<linearGradient id="SVGID_2_" gradientUnits="userSpaceOnUse" x1="-7949.6572" y1="38.3432" x2="-7940.7925" y2="36.7596" gradientTransform="matrix(-1 7.650486e-03 7.650486e-03 1 -7939.668 43.3741)">
		<stop  offset="3.562899e-02" style="stop-color:#8A0304"/>
		<stop  offset="0.4832" style="stop-color:#EC1C24"/>
		<stop  offset="0.5699" style="stop-color:#E81B23"/>
		<stop  offset="0.6532" style="stop-color:#DD181F"/>
		<stop  offset="0.7352" style="stop-color:#C91319"/>
		<stop  offset="0.8165" style="stop-color:#AE0C10"/>
		<stop  offset="0.8964" style="stop-color:#8B0304"/>
		<stop  offset="0.8991" style="stop-color:#8A0304"/>
	</linearGradient>
	<path class="st1" d="M9.7,25.7c-3.1,0.6-7.8-1.1-8-3.6c-0.1-2.2,0.6-5.9,1.6-7.7c1.2,2.4,4.4,3.5,6.9,3.5
		C9.8,20.8,9.7,23.1,9.7,25.7z"/>
</g>
<g>
</g>
<g>
</g>
<g>
</g>
<g>
</g>
<g>
</g>
</svg>
