<?xml version="1.0" encoding="utf-8"?>
<!-- Generator: Adobe Illustrator 22.0.1, SVG Export Plug-In . SVG Version: 6.00 Build 0)  -->
<svg version="1.1" id="Layer_3" xmlns="http://www.w3.org/2000/svg" xmlns:xlink="http://www.w3.org/1999/xlink" x="0px" y="0px"
	 viewBox="0 0 50 50" style="enable-background:new 0 0 50 50;" xml:space="preserve">
<style type="text/css">
	.Drop_x0020_Shadow{fill:none;}
	.Outer_x0020_Glow_x0020_5_x0020_pt{fill:none;}
	.Jive_GS{fill:#A6D0E4;}
	.st0{fill:url(#SVGID_1_);stroke:#E4A12D;stroke-width:0.2776;stroke-linejoin:round;stroke-miterlimit:10;}
	.st1{fill:url(#SVGID_2_);stroke:#E4A12D;stroke-width:0.2776;stroke-linejoin:round;stroke-miterlimit:10;}
	.st2{fill:url(#SVGID_3_);stroke:#E4A12D;stroke-width:0.2776;stroke-linejoin:round;stroke-miterlimit:10;}
	.st3{fill:url(#SVGID_4_);stroke:#E4A12D;stroke-width:0.2776;stroke-linejoin:round;stroke-miterlimit:10;}
	.st4{fill:url(#SVGID_5_);stroke:#E4A12D;stroke-width:0.2776;stroke-linejoin:round;stroke-miterlimit:10;}
</style>
<g>
	<linearGradient id="SVGID_1_" gradientUnits="userSpaceOnUse" x1="43.6164" y1="29.7031" x2="37.5662" y2="34.8079">
		<stop  offset="0" style="stop-color:#EC1C24"/>
		<stop  offset="0.1663" style="stop-color:#E81B23"/>
		<stop  offset="0.3265" style="stop-color:#DD1920"/>
		<stop  offset="0.4841" style="stop-color:#C9161C"/>
		<stop  offset="0.6402" style="stop-color:#AE1116"/>
		<stop  offset="0.7952" style="stop-color:#8B0B0E"/>
		<stop  offset="0.9474" style="stop-color:#600304"/>
		<stop  offset="1" style="stop-color:#500000"/>
	</linearGradient>
	<path class="st0" d="M41,36.5c0,0-1.9-2.2-2.4-2.9c-0.5-0.6-2.3,0.4-2.9,0s0.4-2.8,3-4.3c0.1,2.5,0.6,3.6,0.6,3.6h3.9
		C43.2,33,40.6,35.2,41,36.5z"/>
	<linearGradient id="SVGID_2_" gradientUnits="userSpaceOnUse" x1="36.4729" y1="34.4536" x2="38.0125" y2="33.4272">
		<stop  offset="0" style="stop-color:#EC1C24"/>
		<stop  offset="0.2239" style="stop-color:#C11218"/>
		<stop  offset="0.448" style="stop-color:#9E0A0D"/>
		<stop  offset="0.6587" style="stop-color:#840506"/>
		<stop  offset="0.8486" style="stop-color:#740102"/>
		<stop  offset="1" style="stop-color:#6F0000"/>
	</linearGradient>
	<path class="st1" d="M35.7,33.7l1.4,1.6c0,0,1.9-1.2,1.5-1.6C38.1,33.1,36.4,34.1,35.7,33.7z"/>
	
		<linearGradient id="SVGID_3_" gradientUnits="userSpaceOnUse" x1="-6410.3594" y1="29.7031" x2="-6416.4097" y2="34.8079" gradientTransform="matrix(-1 0 0 1 -6403.9785 0)">
		<stop  offset="0" style="stop-color:#EC1C24"/>
		<stop  offset="0.1663" style="stop-color:#E81B23"/>
		<stop  offset="0.3265" style="stop-color:#DD1920"/>
		<stop  offset="0.4841" style="stop-color:#C9161C"/>
		<stop  offset="0.6402" style="stop-color:#AE1116"/>
		<stop  offset="0.7952" style="stop-color:#8B0B0E"/>
		<stop  offset="0.9474" style="stop-color:#600304"/>
		<stop  offset="1" style="stop-color:#500000"/>
	</linearGradient>
	<path class="st2" d="M9,36.5c0,0,1.9-2.2,2.4-2.9c0.5-0.6,2.3,0.4,2.9,0c0.7-0.4-0.4-2.8-3-4.3c-0.1,2.5-0.6,3.6-0.6,3.6H6.8
		C6.8,33,9.4,35.2,9,36.5z"/>
	
		<linearGradient id="SVGID_4_" gradientUnits="userSpaceOnUse" x1="-6417.5029" y1="34.4536" x2="-6415.9634" y2="33.4272" gradientTransform="matrix(-1 0 0 1 -6403.9785 0)">
		<stop  offset="0" style="stop-color:#EC1C24"/>
		<stop  offset="0.2239" style="stop-color:#C11218"/>
		<stop  offset="0.448" style="stop-color:#9E0A0D"/>
		<stop  offset="0.6587" style="stop-color:#840506"/>
		<stop  offset="0.8486" style="stop-color:#740102"/>
		<stop  offset="1" style="stop-color:#6F0000"/>
	</linearGradient>
	<path class="st3" d="M14.3,33.7l-1.4,1.6c0,0-1.9-1.2-1.5-1.6C11.9,33.1,13.6,34.1,14.3,33.7z"/>
	
		<radialGradient id="SVGID_5_" cx="25.2161" cy="37.7296" r="18.5851" gradientTransform="matrix(1 0 0 0.5992 0 15.1228)" gradientUnits="userSpaceOnUse">
		<stop  offset="0" style="stop-color:#EC1C24"/>
		<stop  offset="0.2083" style="stop-color:#E81B23"/>
		<stop  offset="0.4088" style="stop-color:#DD181F"/>
		<stop  offset="0.6061" style="stop-color:#C91319"/>
		<stop  offset="0.8014" style="stop-color:#AE0C10"/>
		<stop  offset="0.9937" style="stop-color:#8B0304"/>
		<stop  offset="1" style="stop-color:#8A0304"/>
	</radialGradient>
	<path class="st4" d="M38.7,33.7c-3.3,3.9-8.2,6.4-13.7,6.4c-5.5,0-10.4-2.5-13.7-6.4l0,0l-4.1,4.8c4.4,4.8,10.7,7.8,17.7,7.8
		s13.3-3,17.7-7.8L38.7,33.7L38.7,33.7z"/>
</g>
<g>
</g>
<g>
</g>
<g>
</g>
<g>
</g>
<g>
</g>
</svg>
