<?xml version="1.0" encoding="utf-8"?>
<!-- Generator: Adobe Illustrator 22.0.1, SVG Export Plug-In . SVG Version: 6.00 Build 0)  -->
<svg version="1.1" id="Layer_1" xmlns="http://www.w3.org/2000/svg" xmlns:xlink="http://www.w3.org/1999/xlink" x="0px" y="0px"
	 viewBox="0 0 1024 1024" style="enable-background:new 0 0 1024 1024;" xml:space="preserve">
<style type="text/css">
	.st0{fill:#E6E7E8;}
	.st1{fill:url(#SVGID_1_);}
	.st2{fill:url(#SVGID_2_);}
	.st3{fill:url(#SVGID_3_);}
	.st4{fill:#FFFFFF;}
	.st5{fill:#A6A8AB;}
	.st6{fill:#BBBDBF;}
	.st7{fill:#6D6E70;}
</style>
<g>
	<polygon class="st0" points="198.2,181.2 338.3,224.3 657.1,571.8 617.1,600.1 	"/>
	<linearGradient id="SVGID_1_" gradientUnits="userSpaceOnUse" x1="592.4128" y1="623.8436" x2="171.4278" y2="202.8585">
		<stop  offset="0" style="stop-color:#58595B"/>
		<stop  offset="8.617119e-02" style="stop-color:#48494A"/>
		<stop  offset="0.1583" style="stop-color:#404041"/>
		<stop  offset="0.336" style="stop-color:#434344"/>
		<stop  offset="0.4834" style="stop-color:#4D4D4F"/>
		<stop  offset="0.62" style="stop-color:#5E5F60"/>
		<stop  offset="0.7499" style="stop-color:#767778"/>
		<stop  offset="0.8749" style="stop-color:#949697"/>
		<stop  offset="0.9953" style="stop-color:#B9BBBD"/>
		<stop  offset="1" style="stop-color:#BBBDBF"/>
	</linearGradient>
	<polygon class="st1" points="198.2,181.2 241.4,321.3 588.8,640.1 617.1,600.1 	"/>
	<linearGradient id="SVGID_2_" gradientUnits="userSpaceOnUse" x1="735.5307" y1="656.8016" x2="683.3748" y2="720.3218">
		<stop  offset="0.116" style="stop-color:#BBBDBF"/>
		<stop  offset="0.2413" style="stop-color:#98999B"/>
		<stop  offset="0.3989" style="stop-color:#747475"/>
		<stop  offset="0.5559" style="stop-color:#575657"/>
		<stop  offset="0.7099" style="stop-color:#434142"/>
		<stop  offset="0.8596" style="stop-color:#363435"/>
		<stop  offset="1" style="stop-color:#323031"/>
	</linearGradient>
	<polygon class="st2" points="693.7,618.2 770.9,716.2 752,735 752,735 732.7,754.4 634.7,677.2 	"/>
	<radialGradient id="SVGID_3_" cx="742.6689" cy="728.782" r="96.111" gradientUnits="userSpaceOnUse">
		<stop  offset="0" style="stop-color:#FFFFFF"/>
		<stop  offset="1" style="stop-color:#404041"/>
	</radialGradient>
	<path class="st3" d="M779,740.2c5.8,0,11.3,2.3,15.4,6.4c4.1,4.1,6.4,9.6,6.4,15.4c0,5.8-2.3,11.3-6.4,15.4
		c-4.1,4.1-9.6,6.4-15.4,6.4c-5.8,0-11.3-2.3-15.4-6.4c-4.1-4.1-6.4-9.6-6.4-15.4c0-5.8,2.3-11.3,6.4-15.4
		C767.7,742.5,773.2,740.2,779,740.2 M779,715.3c-12,0-23.9,4.6-33.1,13.7c-18.3,18.3-18.3,47.9,0,66.1c9.1,9.1,21.1,13.7,33.1,13.7
		c12,0,23.9-4.6,33-13.7c18.3-18.3,18.3-47.9,0-66.1C803,719.8,791,715.3,779,715.3L779,715.3z"/>
	<polygon class="st4" points="617.1,600 633.6,616.6 730.6,519.6 	"/>
	<polygon class="st5" points="617.1,600 536.1,714.1 633.6,616.6 	"/>
	<polygon class="st6" points="730.6,519.6 633.6,616.6 664.5,647.4 761.4,550.5 	"/>
	<polygon class="st7" points="536.1,714.1 567,744.9 664.5,647.4 633.6,616.6 	"/>
</g>
<g>
</g>
<g>
</g>
<g>
</g>
<g>
</g>
<g>
</g>
</svg>
