<?xml version="1.0" encoding="utf-8"?>
<!-- Generator: Adobe Illustrator 22.0.1, SVG Export Plug-In . SVG Version: 6.00 Build 0)  -->
<svg version="1.1" id="Layer_1" xmlns="http://www.w3.org/2000/svg" xmlns:xlink="http://www.w3.org/1999/xlink" x="0px" y="0px"
	 viewBox="0 0 1024 1024" style="enable-background:new 0 0 1024 1024;" xml:space="preserve">
<style type="text/css">
	.st0{fill:#FFFFFF;}
	.st1{fill:url(#SVGID_1_);}
	.st2{fill:url(#SVGID_2_);}
	.st3{fill:url(#SVGID_3_);}
	.st4{fill:#CCCCCC;}
	.st5{fill:#808080;}
	.st6{fill:#E6E7E8;}
	.st7{fill:#58595B;}
</style>
<g>
	<polygon class="st0" points="825.8,181.2 685.7,224.3 366.9,571.8 406.9,600.1 	"/>
	<linearGradient id="SVGID_1_" gradientUnits="userSpaceOnUse" x1="432.8542" y1="622.5765" x2="851.4664" y2="203.9642">
		<stop  offset="0" style="stop-color:#58595B"/>
		<stop  offset="0.1483" style="stop-color:#646567"/>
		<stop  offset="0.3173" style="stop-color:#6D6E70"/>
		<stop  offset="0.4932" style="stop-color:#707173"/>
		<stop  offset="0.639" style="stop-color:#7A7C7E"/>
		<stop  offset="0.7741" style="stop-color:#8B8D8F"/>
		<stop  offset="0.902" style="stop-color:#A3A5A7"/>
		<stop  offset="1" style="stop-color:#BBBDBF"/>
	</linearGradient>
	<polygon class="st1" points="825.8,181.2 782.6,321.3 435.2,640.1 406.9,600.1 	"/>
	<linearGradient id="SVGID_2_" gradientUnits="userSpaceOnUse" x1="287.7225" y1="654.8167" x2="337.8078" y2="717.4234">
		<stop  offset="0.1134" style="stop-color:#FFFFFF"/>
		<stop  offset="0.1559" style="stop-color:#EBEBEB"/>
		<stop  offset="0.2696" style="stop-color:#BABABA"/>
		<stop  offset="0.3862" style="stop-color:#908F90"/>
		<stop  offset="0.5039" style="stop-color:#6E6D6E"/>
		<stop  offset="0.623" style="stop-color:#545253"/>
		<stop  offset="0.744" style="stop-color:#413F40"/>
		<stop  offset="0.8681" style="stop-color:#363435"/>
		<stop  offset="1" style="stop-color:#323031"/>
	</linearGradient>
	<polygon class="st2" points="330.3,618.2 253.1,716.2 272,735 272,735 291.3,754.4 389.3,677.2 	"/>
	<radialGradient id="SVGID_3_" cx="214.5947" cy="729.0409" r="91.0275" gradientUnits="userSpaceOnUse">
		<stop  offset="0" style="stop-color:#FFFFFF"/>
		<stop  offset="1" style="stop-color:#404041"/>
	</radialGradient>
	<path class="st3" d="M245,740.2c5.8,0,11.3,2.3,15.4,6.4c4.1,4.1,6.4,9.6,6.4,15.4c0,5.8-2.3,11.3-6.4,15.4
		c-4.1,4.1-9.6,6.4-15.4,6.4c-5.8,0-11.3-2.3-15.4-6.4c-4.1-4.1-6.4-9.6-6.4-15.4c0-5.8,2.3-11.3,6.4-15.4
		C233.7,742.5,239.1,740.2,245,740.2 M245,715.3c-12,0-23.9,4.6-33,13.7c-18.3,18.2-18.3,47.8,0,66.1c9.1,9.1,21.1,13.7,33,13.7
		c12,0,23.9-4.6,33.1-13.7c18.3-18.2,18.3-47.8,0-66.1C268.9,719.8,256.9,715.3,245,715.3L245,715.3z"/>
	<polygon class="st4" points="406.9,600 390.4,616.6 293.4,519.6 	"/>
	<polygon class="st5" points="406.9,600 487.9,714.1 390.4,616.6 	"/>
	<polygon class="st6" points="293.4,519.6 390.4,616.6 359.5,647.4 262.6,550.5 	"/>
	<polygon class="st7" points="487.9,714.1 457,744.9 359.5,647.4 390.4,616.6 	"/>
</g>
<g>
</g>
<g>
</g>
<g>
</g>
<g>
</g>
<g>
</g>
</svg>
