<?xml version="1.0" encoding="utf-8"?>
<!-- Generator: Adobe Illustrator 16.0.0, SVG Export Plug-In . SVG Version: 6.00 Build 0)  -->
<!DOCTYPE svg PUBLIC "-//W3C//DTD SVG 1.1//EN" "http://www.w3.org/Graphics/SVG/1.1/DTD/svg11.dtd">
<svg version="1.1" id="Layer_1" xmlns="http://www.w3.org/2000/svg" xmlns:xlink="http://www.w3.org/1999/xlink" x="0px" y="0px"
	 width="141.7px" height="141.7px" viewBox="0 0 141.7 141.7" enable-background="new 0 0 141.7 141.7" xml:space="preserve">
<g>
	<path d="M140.362,75.982l-1.723-1.059c-0.095-1.013-0.414-1.977-0.927-2.829l0.967-1.438l-2.148-1.449l-1.983-1.336l-1.571-1.059
		v-2.231v-2.593h-2.593h-13.105v-2.054V47.402V44.81h-2.593H99.762v-3.405v-2.593h-1.214v-1.413h-2.593H79.653h-2.594v1.413h-1.214
		v2.593v3.409h-0.978h-0.15l-0.148,0.018l-2.038,0.235l-0.262-1.869l-2.566,0.357l-5.938,0.825l-2.568,0.357l0.225,1.618
		l-7.738,0.897l-1.982,0.229l-0.019,0.131l-0.185-0.002c-1.236,0-2.297,0.768-2.78,1.923h-5.047
		c-0.553-0.472-1.269-0.757-2.052-0.757h-1.548c-0.783,0-1.499,0.285-2.052,0.757h-5.581c-1.6,0-2.649,0.454-3.334,1.088H2.776
		H0.184v2.593v4.626v2.592h2.593h26.33c0.685,0.633,1.734,1.086,3.333,1.086h5.534c0.209,0.186,0.442,0.343,0.695,0.468
		l-9.417,0.752l-1.926,0.154l-0.399,1.87l-1.083,0.8h-4.471H18.78v2.592v3.133h-3.605h-0.159l-0.158,0.021l-5.996,0.737l-1.221,0.15
		l-0.656,1.041l-4.245,6.736l-2.505,3.976h3.521v2.261v3.078L5.65,88.96c0.667,2.783,2.224,5.636,4.772,7.19
		c1.208,0.737,8.538,5.111,14.195,8.063c2.282,1.189,4.67,1.9,6.391,1.9h81.352c0.793,0,1.777,0,11.443-3.509
		c0.365-0.134,8.944-3.253,10.55-4.108c1.627-0.873,2.984-1.97,4.043-3.262c1.711-2.093,2.58-4.576,2.58-7.378
		c0-1.949-0.366-3.578-0.902-4.92h1.525v-2.593v-2.153V76.74L140.362,75.982z M43.717,61.518h0.82l-0.904,0.073
		C43.662,61.566,43.689,61.542,43.717,61.518z"/>
	<path fill="#FFFFFF" d="M139.006,78.192l-2.964-1.82l-0.04-0.02c0.049-0.258,0.074-0.521,0.074-0.789
		c0-1.336-0.635-2.525-1.615-3.281l0.621-0.924l-1.984-1.336l-0.946,1.402c-0.072-0.004-0.145-0.005-0.22-0.005
		c-1.092,0-2.084,0.422-2.825,1.112l-0.003-0.002l-0.944-4.714h2.224v-3.234h-29.711l-1.079-4.647h15.092V47.402H95.956v-1.485
		h1.214v-4.513h-1.214v-1.413H79.653v1.413h-1.215v4.513h1.215v1.488h-4.785l-4.555,0.527l-0.253-1.811l-5.938,0.825l0.233,1.677
		l-10.373,1.202l-0.332,2.298h-0.854l0.173-1.087c0.044-0.354-0.103-0.666-0.329-0.694l-1.108-0.139
		c-0.227-0.029-0.446,0.235-0.491,0.59l-0.204,1.33h-8.646v-0.183c0-0.316-0.257-0.574-0.573-0.574h-1.548
		c-0.316,0-0.573,0.257-0.573,0.574v0.183h-7.059c-0.914,0-1.684,0.07-1.924,1.089H2.776v4.626h27.738
		c0.24,1.019,1.011,1.086,1.924,1.086h7.059v0.225c0,0.315,0.257,0.572,0.573,0.572h1.548c0.316,0,0.573-0.257,0.573-0.572v-0.225
		h7.857l-0.026,0.194c-0.044,0.355,0.103,0.42,0.33,0.447l1.107,0.138c0.228,0.03,0.447-0.235,0.49-0.589l0.056-0.191h0.841
		l-0.617,4.58l-22.774,1.818l-0.201,0.942l-2.56,1.89h-5.324v5.726h-6.198L9.179,74.62l-4.245,6.736H6.35v4.854l1.515-0.262
		c0,0.063-0.001,0.128,0,0.19c0.08,2.66,1.336,6.23,3.908,7.8c1.465,0.895,8.57,5.121,14.043,7.978
		c1.901,0.992,3.892,1.606,5.191,1.606h81.352c0.396,0,1.321,0,10.56-3.354c4.246-1.543,9.268-3.455,10.213-3.958
		c1.315-0.706,2.411-1.584,3.257-2.617c1.323-1.616,1.995-3.546,1.995-5.735c0-3.406-1.355-5.541-2.493-6.736
		c-0.285-0.299-0.572-0.554-0.846-0.776h3.961V78.192z M121.796,87.818c0,0.025-0.002,0.047-0.002,0.074
		c0,3.116,1.8,5.805,4.413,7.101c-1.2,0.451-2.49,0.927-3.805,1.404c-1.705,0.62-3.106,1.116-4.281,1.522
		c0.403-0.926,0.64-1.944,0.64-3.02c0-1.659-0.534-3.191-1.436-4.438L121.796,87.818z M103.979,92.542
		c-0.243,0.744-0.375,1.534-0.375,2.357c0,1.805,0.645,3.449,1.698,4.75h-8.182c1.054-1.301,1.699-2.945,1.699-4.75
		c0-0.823-0.134-1.613-0.376-2.357H103.979z M84.038,92.542c-0.244,0.744-0.378,1.534-0.378,2.357c0,1.805,0.646,3.449,1.699,4.75
		h-8.181c1.053-1.301,1.699-2.945,1.699-4.75c0-0.823-0.135-1.613-0.378-2.357H84.038z M64.094,92.542
		c-0.243,0.744-0.376,1.534-0.376,2.357c0,1.805,0.645,3.449,1.699,4.75h-8.18c1.053-1.301,1.697-2.945,1.697-4.75
		c0-0.823-0.132-1.613-0.375-2.357H64.094z M44.151,92.542c-0.242,0.744-0.375,1.534-0.375,2.357c0,1.805,0.646,3.449,1.698,4.75
		h-7.674c1.053-1.301,1.698-2.945,1.698-4.75c0-0.823-0.133-1.613-0.377-2.357H44.151z M24.714,92.542
		c-0.243,0.744-0.376,1.534-0.376,2.357c0,0.795,0.132,1.56,0.359,2.28c-2.177-1.178-4.453-2.466-6.439-3.611
		c0.875-0.208,1.7-0.547,2.428-1.026H24.714z"/>
</g>
</svg>
