<?xml version="1.0" encoding="utf-8"?>
<!-- Generator: Adobe Illustrator 22.0.1, SVG Export Plug-In . SVG Version: 6.00 Build 0)  -->
<svg version="1.1" id="Layer_14" xmlns="http://www.w3.org/2000/svg" xmlns:xlink="http://www.w3.org/1999/xlink" x="0px" y="0px"
	 viewBox="0 0 50 50" style="enable-background:new 0 0 50 50;" xml:space="preserve">
<style type="text/css">
	.Drop_x0020_Shadow{fill:none;}
	.Outer_x0020_Glow_x0020_5_x0020_pt{fill:none;}
	.Jive_GS{fill:#A6D0E4;}
	.st0{fill:#FFFFFF;}
	.st1{fill:#231F20;}
</style>
<g>
	<path class="st0" d="M25,43.8c-5.7,0-11.1-2.4-14.9-6.7l-0.3-0.4l0.4-0.3c2-1.6,5.3-2.8,7.4-3.6c1-0.4,1.9-0.7,2.1-0.9
		c0.7-0.5,1.2-2.3,0.6-3.3c-1-1.4-1.3-2.9-1.4-3.7c-0.8-0.2-0.9-1.1-1-1.7c0-0.2,0-0.5-0.1-0.6l-0.1-0.3c-0.3-0.5-0.5-1.1-0.4-1.8
		c0.1-0.3,0.3-0.5,0.5-0.6c-0.7-2.8-0.4-5.5,0.8-7.3c1.1-1.5,2.8-2.4,4.9-2.6c0.3,0,0.5,0,0.8,0c4.4,0,5.9,2.7,6.3,3.6
		c0.3,0.1,0.8,0.3,1.2,0.8c0.8,1.1,0.9,2.8,0.4,5.3c0.2,0.1,0.5,0.3,0.5,0.7c0.2,0.8-0.1,1.5-0.4,2.1c-0.1,0.1-0.1,0.4-0.1,0.6
		c0,0.5-0.1,1.5-1,1.7c-0.1,0.8-0.4,2.3-1.5,3.8c-0.5,0.9,0,2.7,0.6,3.2c0.2,0.2,1.1,0.5,2.1,0.9c2.1,0.8,5.3,2,7.3,3.6l0.4,0.3
		l-0.3,0.4C36.1,41.3,30.7,43.8,25,43.8z"/>
	<path class="st1" d="M24.3,10.6c4.9,0,6,3.6,6,3.6s2.9,0.1,1.3,6.1c0,0,0.1,0,0.2,0c0.2,0,0.4,0.1,0.5,0.4c0.2,0.7,0,1.1-0.3,1.8
		c-0.3,0.6,0.1,2-1,2c0,0-0.1,0-0.1,0c0,0.6-0.2,2.3-1.4,4c-0.6,1.1-0.1,3.2,0.7,3.9c0.8,0.6,6.5,2.2,9.4,4.5
		c-3.6,4-8.8,6.5-14.5,6.5c-5.8,0-11-2.5-14.6-6.5c3-2.3,8.6-3.9,9.5-4.5c0.8-0.6,1.4-2.7,0.7-3.9c-1.2-1.7-1.4-3.3-1.4-3.9
		c0,0-0.1,0-0.1,0c-1.1,0-0.7-1.4-1-2c-0.3-0.6-0.6-1.1-0.5-1.8c0.1-0.3,0.5-0.3,0.6-0.4c-1.4-4.5,0-9.3,5.2-9.7
		C23.8,10.6,24,10.6,24.3,10.6 M24.3,9.7L24.3,9.7c-0.3,0-0.5,0-0.8,0c-2.3,0.2-4.1,1.1-5.2,2.8c-1.3,1.9-1.7,4.6-1,7.4
		c-0.2,0.2-0.3,0.4-0.4,0.6c-0.2,0.9,0.1,1.6,0.4,2.1c0,0.1,0.1,0.2,0.1,0.3c0,0.1,0,0.3,0.1,0.4c0,0.5,0.1,1.6,1,2
		c0.1,0.9,0.5,2.2,1.4,3.6c0.4,0.8,0,2.3-0.5,2.6c-0.2,0.1-1.2,0.5-2,0.8c-2.2,0.8-5.4,2.1-7.5,3.7l-0.8,0.6l0.7,0.7
		c3.9,4.3,9.4,6.8,15.3,6.8c5.8,0,11.3-2.5,15.2-6.8l0.7-0.7l-0.8-0.6c-2.1-1.6-5.3-2.8-7.5-3.7c-0.8-0.3-1.8-0.7-2-0.8
		c-0.5-0.3-0.9-1.9-0.5-2.7c1-1.4,1.4-2.8,1.5-3.7c0.9-0.4,1-1.5,1-2c0-0.1,0-0.4,0.1-0.4c0.3-0.6,0.6-1.4,0.4-2.4
		c-0.1-0.3-0.2-0.6-0.5-0.8c0.5-2.5,0.3-4.3-0.5-5.4c-0.4-0.5-0.8-0.8-1.2-0.9C30.4,12.3,28.7,9.7,24.3,9.7L24.3,9.7z"/>
</g>
<g>
</g>
<g>
</g>
<g>
</g>
<g>
</g>
<g>
</g>
</svg>
