<?xml version="1.0" encoding="utf-8"?>
<!-- Generator: Adobe Illustrator 24.1.2, SVG Export Plug-In . SVG Version: 6.00 Build 0)  -->
<svg version="1.1" id="Layer_1" xmlns="http://www.w3.org/2000/svg" xmlns:xlink="http://www.w3.org/1999/xlink" x="0px" y="0px"
	 viewBox="0 0 141.7 141.7" style="enable-background:new 0 0 141.7 141.7;" xml:space="preserve">
<style type="text/css">
	.st0{fill:#DFDAD6;}
</style>
<g>
	<path class="st0" d="M32.4,41.1l-9.1-5.2c0.4-1.3-0.1-2.7-1.3-3.5c-1.4-0.9-3.3-0.5-4.2,0.9l-6,9.5c-0.9,1.4-0.5,3.3,0.9,4.2
		c1.2,0.8,2.7,0.6,3.7-0.4l8.5,6L32.4,41.1z"/>
	<polygon class="st0" points="119.2,90.4 102.4,80.9 91.2,98.7 107,109.8 	"/>
	<path class="st0" d="M134.1,107.9c-1-0.6-2.1-0.8-3.2-0.7c1-3.6,0.2-7.5-2.2-10.4l-11.9,18.8c3.6,0.8,7.5-0.1,10.3-2.5
		c0.3,1,1,2,2,2.6c2.2,1.4,5,0.7,6.4-1.4C136.9,112.1,136.3,109.3,134.1,107.9z"/>
	<path class="st0" d="M129.8,42.9l-6-9.5c-0.9-1.4-2.8-1.8-4.2-0.9c-1.2,0.8-1.7,2.2-1.3,3.5l-9.1,5.2l7.3,11.6l8.5-6
		c1,0.9,2.5,1.1,3.7,0.4C130.3,46.2,130.7,44.3,129.8,42.9z"/>
	<polygon class="st0" points="89.7,71.4 110.5,56.9 102.8,44.8 72.9,61.8 	"/>
	<polygon class="st0" points="57.8,93.7 69.1,85.8 51.9,73.8 46.9,76.6 	"/>
	<polygon class="st0" points="34.8,109.8 50.6,98.7 39.3,80.9 22.6,90.4 	"/>
	<path class="st0" d="M13,96.9c-2.3,2.9-3.1,6.8-2.2,10.4c-1.1-0.2-2.2,0-3.2,0.7c-2.2,1.4-2.8,4.2-1.4,6.4c1.4,2.2,4.2,2.8,6.4,1.4
		c1-0.6,1.6-1.5,2-2.6c2.8,2.4,6.7,3.3,10.3,2.5L13,96.9z"/>
	<polygon class="st0" points="94.8,76.6 38.9,44.8 31.2,56.9 84,93.7 	"/>
	<path class="st0" d="M34.4,41.7c0.5-0.8,1.6-1.1,2.4-0.5c0.8,0.5,1.1,1.6,0.5,2.4L29.4,56c-0.5,0.8-1.6,1.1-2.4,0.5
		c-0.8-0.5-1.1-1.6-0.5-2.4L34.4,41.7z"/>
	<path class="st0" d="M107.3,41.7c-0.5-0.8-1.6-1.1-2.4-0.5c-0.8,0.5-1.1,1.6-0.5,2.4l7.9,12.5c0.5,0.8,1.6,1.1,2.4,0.5
		c0.8-0.5,1.1-1.6,0.5-2.4L107.3,41.7z"/>
	<path class="st0" d="M45,77.3c-0.7-1.1-2.2-1.4-3.3-0.7c-1.1,0.7-1.5,2.2-0.7,3.3l11.3,17.9c0.7,1.1,2.2,1.4,3.3,0.7
		c1.1-0.7,1.4-2.2,0.7-3.3L45,77.3z"/>
	<path class="st0" d="M20,90.2c-0.5-0.8-1.6-1-2.4-0.5l-3.5,2.2c-0.8,0.5-1,1.6-0.5,2.4l13.9,22c0.5,0.8,1.6,1,2.4,0.5l3.5-2.2
		c0.8-0.5,1-1.6,0.5-2.4L20,90.2z"/>
	<path class="st0" d="M96.7,77.3c0.7-1.1,2.2-1.4,3.3-0.7c1.1,0.7,1.5,2.2,0.7,3.3L89.5,97.7c-0.7,1.1-2.2,1.4-3.3,0.7
		c-1.1-0.7-1.4-2.2-0.7-3.3L96.7,77.3z"/>
	<path class="st0" d="M121.7,90.2c0.5-0.8,1.6-1,2.4-0.5l3.5,2.2c0.8,0.5,1,1.6,0.5,2.4l-13.9,22c-0.5,0.8-1.6,1-2.4,0.5l-3.5-2.2
		c-0.8-0.5-1-1.6-0.5-2.4L121.7,90.2z"/>
</g>
</svg>
