<?xml version="1.0" encoding="utf-8"?>
<!-- Generator: Adobe Illustrator 24.1.2, SVG Export Plug-In . SVG Version: 6.00 Build 0)  -->
<svg version="1.1" id="Layer_1" xmlns="http://www.w3.org/2000/svg" xmlns:xlink="http://www.w3.org/1999/xlink" x="0px" y="0px"
	 viewBox="0 0 141.7 141.7" style="enable-background:new 0 0 141.7 141.7;" xml:space="preserve">
<style type="text/css">
	.st0{fill:#DFDAD6;}
</style>
<g>
	<polygon class="st0" points="33.1,47.5 33.8,44.8 31.2,45.6 20.1,58.6 	"/>
	<polygon class="st0" points="44,34.5 46.7,33.8 57.8,20.8 44.7,31.8 	"/>
	<path class="st0" d="M124.1,93.2c-0.2-0.2-0.6-0.3-1.1-0.3c-4.1,0-17.1,5.9-20.5,5.9c-0.3,0-0.6,0-0.7-0.2
		c-1.3-1.7-18.7-21.4-17.7-23.4S109,31.9,111,27.5c1.6-3.7-1.3-10.5-5.2-10.5c-0.8,0-1.7,0.2-2.6,1c-5.1,3.8-42.9,31.7-42.9,31.7
		C53,42,50,38.9,47.8,38.9c-0.9,0-1.7,0.5-2.6,1.4c-2.2-2.1-4.3-2.6-5.8-2.6c-1.3,0-2.2,0.4-2.2,0.4s-1.8,4,2.2,8
		c-3.2,3.1-1.4,4.8,9.4,15.1c0,0-27.9,37.8-31.7,42.9c-3.2,4.2,2.6,8.1,7.1,8.1c0.9,0,1.8-0.2,2.5-0.5c4.4-2,45.7-25.9,47.7-26.9
		c0,0,0.1,0,0.2,0c2.9,0,21.5,16.5,23.2,17.7c1.8,1.3-7.3,20.2-5.4,22.3c0.9,1.1,2.2,1.5,3.6,1.5c6.1,0,14.9-7.9,15.4-10.2
		c0.2-1.2,0-2.3-0.3-3.2l6.1,5.1l-5.1-6.1c0.6,0.2,1.3,0.4,2.1,0.4c0.4,0,0.7,0,1.1-0.1C118.1,111.6,129.5,98.3,124.1,93.2z"/>
</g>
</svg>
