<?xml version="1.0" encoding="utf-8"?>
<!-- Generator: Adobe Illustrator 24.1.2, SVG Export Plug-In . SVG Version: 6.00 Build 0)  -->
<svg version="1.1" id="Layer_1" xmlns="http://www.w3.org/2000/svg" xmlns:xlink="http://www.w3.org/1999/xlink" x="0px" y="0px"
	 viewBox="0 0 141.7 141.7" style="enable-background:new 0 0 141.7 141.7;" xml:space="preserve">
<style type="text/css">
	.st0{fill:#DFDAD6;}
</style>
<g>
	<path class="st0" d="M48,108c-1.8-2.2-4.6-6.5-6.3-9.2c0.6-0.1,1.1-0.3,1.6-0.5c1.9-0.6,3.8-1.4,5.7-2.2c1.6,2.9,4.8,8.8,6.7,11.5
		L48,108z"/>
	<polygon class="st0" points="67.8,117.2 55.9,117.2 49.3,113 49.3,110.5 58.9,110 67.8,113.9 	"/>
	<path class="st0" d="M70.4,116.1v-3.9l-1-0.4c1.4-1,10.9-8.4,12.9-22.4c0.8-0.2,1.5-0.3,2.2-0.5c1.1-0.3,2.4-0.7,3.7-1.1
		C87.6,92.4,84.5,110.2,70.4,116.1z"/>
	<path class="st0" d="M83.8,86.3C75.5,88.4,59.4,90,59.4,90s10-6.8,20.8-9.6c10.8-2.8,27.5-3.6,27.5-3.6S92.1,84.1,83.8,86.3z"/>
	<path class="st0" d="M120,74.2l-12.4,0.1c-0.7,0-17.1,0.8-28,3.6c-11.1,2.9-21.2,9.6-21.6,9.9l-5.4,3.7c-3.3,1.8-6.7,3.3-10,4.4
		c-3,0.9-6.4,1.4-9.5,1.4c-3.5,0-6.5-0.6-7.9-1.7c-0.7-0.6,5.2-5.7,4.3-8.5c-1.1-3.2-4.8-18.9,0.6-34.1c3.4-9.6,10.5-19.2,23.9-23.5
		c5.3-1.7,10.4-2.5,15.2-2.5c13,0,23.8,5.5,30.1,12.6c8.5,9.5,10.9,21.5,13.4,26.4c2.5,4.8,10.5,4.5,10.2,6.9
		C122.9,73.6,121.9,73.9,120,74.2z"/>
</g>
</svg>
