<?xml version="1.0" encoding="utf-8"?>
<!-- Generator: Adobe Illustrator 24.1.2, SVG Export Plug-In . SVG Version: 6.00 Build 0)  -->
<svg version="1.1" id="Layer_1" xmlns="http://www.w3.org/2000/svg" xmlns:xlink="http://www.w3.org/1999/xlink" x="0px" y="0px"
	 viewBox="0 0 141.7 141.7" style="enable-background:new 0 0 141.7 141.7;" xml:space="preserve">
<style type="text/css">
	.st0{fill:#DFDAD6;}
</style>
<g>
	
		<rect x="25.8" y="108.7" transform="matrix(0.7071 -0.7071 0.7071 0.7071 -78.6795 56.0319)" class="st0" width="5.1" height="28.6"/>
	<polygon class="st0" points="72.3,58.7 92.5,79 100.8,64.4 86.9,50.5 	"/>
	
		<rect x="60.4" y="88.8" transform="matrix(0.7072 -0.7071 0.7071 0.7072 -46.4087 75.7867)" class="st0" width="15.8" height="10.2"/>
	
		<rect x="48.2" y="101.6" transform="matrix(0.7071 -0.7072 0.7072 0.7071 -59.2269 70.4943)" class="st0" width="14.6" height="10.2"/>
	
		<rect x="49.9" y="78" transform="matrix(0.7071 -0.7072 0.7072 0.7071 -42.0767 65.3369)" class="st0" width="15.8" height="10.9"/>
	<path class="st0" d="M26.6,88.2l6.3,6.3l10.4-10.4l-7.6-7.6C32.2,80.3,29.1,84.3,26.6,88.2z"/>
	<path class="st0" d="M37.8,74.4c0,0-0.1,0.1-0.1,0.1l7.7,7.7L56.5,71l-6.6-6.6C45.7,67.2,41.7,70.5,37.8,74.4z"/>
	<path class="st0" d="M82.4,92.8l6.1,6.1c2.6-4.3,4.7-8.6,6.1-12.7l-2.8-2.8L82.4,92.8z"/>
	<path class="st0" d="M69.2,106l7.6,7.6c0,0,0.1-0.1,0.1-0.1c3.9-3.9,7.2-7.9,10-12.1l-6.6-6.6L69.2,106z"/>
	
		<rect x="37.7" y="90.8" transform="matrix(0.7071 -0.7072 0.7072 0.7071 -54.8933 60.0289)" class="st0" width="14.6" height="10.9"/>
	<path class="st0" d="M44.5,130.7l1.6,1.6c4.6-1.2,9.5-3.2,14.3-6.1l-5.8-5.8L44.5,130.7z"/>
	<path class="st0" d="M52.4,62.7l6.2,6.2l9.4-9.4l-2.9-2.9C60.9,58,56.6,60.1,52.4,62.7z"/>
	
		<rect x="63.5" y="65.6" transform="matrix(0.7071 -0.7071 0.7071 0.7071 -29.7289 70.4436)" class="st0" width="13.3" height="10.9"/>
	<path class="st0" d="M19,105.1l1.7,1.7l10.2-10.2L25,90.8C22.2,95.7,20.2,100.5,19,105.1z"/>
	<path class="st0" d="M56.8,118.4l6.3,6.3c4-2.5,7.9-5.5,11.6-9.1l-7.6-7.6L56.8,118.4z"/>
	
		<rect x="25.4" y="103.1" transform="matrix(0.7072 -0.7071 0.7071 0.7072 -67.2339 54.9021)" class="st0" width="14.4" height="10.9"/>
	
		<rect x="35.9" y="114" transform="matrix(0.7071 -0.7071 0.7071 0.7071 -71.5713 65.3722)" class="st0" width="14.4" height="10.2"/>
	
		<rect x="74" y="76.5" transform="matrix(0.7071 -0.7071 0.7071 0.7071 -34.0636 80.9082)" class="st0" width="13.3" height="10.2"/>
	<g>
		<path class="st0" d="M67.1,52.1v0.5h8l0.1-0.1c-2.2-0.2-4.9-0.4-7.7-0.4C67.4,52,67.2,52.1,67.1,52.1z"/>
		<path class="st0" d="M87.1,33c-2.5-1-5-1.8-7.6-2.3c0.2,1.9,1,3.8,2.5,5.2c1.6,1.6,3.8,2.5,6.1,2.5c2.1,0,4-0.7,5.6-2
			C91.6,35.1,89.4,33.9,87.1,33z"/>
		<path class="st0" d="M45.7,45.7c4.9-4.9,12.1-7.3,21.8-7.3c0.6,0,1.2,0,1.8,0c-3.5-7.6-2.1-16.9,4.2-23.2c0.1-0.1,0.1-0.1,0.2-0.1
			h-6.5v15.2l-0.9,0.1c-14.7,1.7-27.4,11.3-33,25.1c-0.6,1.4-1,2.8-1.5,4.3L45.7,45.7z"/>
		<path class="st0" d="M16.5,74.9l7.4-7.4h-9.2v8.6h0.9C15.8,75.7,16.1,75.3,16.5,74.9z"/>
		<path class="st0" d="M112.2,66c-0.5-3.9-1.5-7.6-3-11.2l-6.2,6.2l0.6,0.6l2.2,2.2l-1.5,2.7l-0.6,1l0,0.1h-0.1l-4.9,8.6h5l-0.2,1.2
			c-0.4,2.2-1.1,4.3-1.9,6.4c-1.2,3-2.8,5.7-4.8,8.1c-1.3,3-2.9,6.1-4.8,9.1l0.1,0.1l-1,1.5l-1.8,2.9l-0.1-0.1
			c-1.1,1.6-2.4,3.2-3.6,4.7c10.7-3.9,19.5-12.1,24-23c1.3-3.2,2.2-6.6,2.7-10l0.1-0.9h15.7v-8.6h-15.7L112.2,66z"/>
		<path class="st0" d="M67.1,126.8v1.7h8.6v-8.4C72.9,122.6,70,124.8,67.1,126.8z"/>
	</g>
	<g>
		<path class="st0" d="M125.2,27.7l-2.3-2.3c-0.8-0.8-1.8-1.2-2.8-1.2c-1,0-2,0.4-2.8,1.2l-1.5,1.5c-0.1-0.4-0.3-0.7-0.6-1
			c-0.5-0.5-1.3-0.8-2-0.8c-0.7,0-1.4,0.3-2,0.8l-2.5,2.5c0,0.5,0.1,1,0.1,1.5c0,5.5-2.1,10.7-6.1,14.6c-2.8,2.8-6.3,4.7-10,5.5
			l-0.4,0.4l7.9,7.9l25-25C126.7,31.7,126.7,29.2,125.2,27.7z"/>
		<path class="st0" d="M73.4,44.5c-0.6-0.6-1.1-1.2-1.7-1.9c-1.4-0.1-2.8-0.1-4.3-0.1c-6.6,0-14,1.2-19,6.2L19.3,77.8
			c-1.1,1.1-1.1,2.9,0,3.9c0.5,0.5,1.3,0.8,2,0.8c0.7,0,1.4-0.3,2-0.8l29.2-29.2C56.1,48.9,62,48,67.5,48c3.1,0,6.1,0.3,8.6,0.5
			c1.1,0.1,2,0.2,2.8,0.2c0.3,0,0.6,0.1,0.9,0.1C77.5,47.8,75.3,46.4,73.4,44.5z"/>
	</g>
	<path class="st0" d="M100.2,17.7c-3.2-3.2-7.5-5-12.1-5s-8.9,1.8-12.1,5c-3.2,3.2-5,7.5-5,12.1s1.8,8.9,5,12.1
		c3.2,3.2,7.5,5,12.1,5s8.9-1.8,12.1-5c3.2-3.2,5-7.5,5-12.1S103.4,21,100.2,17.7z M96.6,38.4c-4.7,4.7-12.4,4.7-17.1,0
		c-4.7-4.7-4.7-12.4,0-17.1c2.4-2.4,5.5-3.5,8.6-3.5c3.1,0,6.2,1.2,8.6,3.5C101.3,26,101.3,33.7,96.6,38.4z"/>
</g>
</svg>
