<?xml version="1.0" encoding="utf-8"?>
<!-- Generator: Adobe Illustrator 24.1.2, SVG Export Plug-In . SVG Version: 6.00 Build 0)  -->
<svg version="1.1" id="Layer_1" xmlns="http://www.w3.org/2000/svg" xmlns:xlink="http://www.w3.org/1999/xlink" x="0px" y="0px"
	 viewBox="0 0 141.7 141.7" style="enable-background:new 0 0 141.7 141.7;" xml:space="preserve">
<style type="text/css">
	.st0{fill:#DFDAD6;}
</style>
<g>
	<path class="st0" d="M88.3,99.4h-35l-6.7,20H25.4l36.1-97H80l36.3,97H95.1L88.3,99.4z M58.7,83.2h24.3L70.8,46.9L58.7,83.2z"/>
	<path class="st0" d="M68.6,75.7c0.6,0.2,1.1,0.4,1.7,0.4l0.5,0c0,0,0,0,0.1,0c1.6,0,3.1-0.7,4.2-1.8l-3.3-9.8
		c-0.2,0-0.3-0.1-0.5-0.1l-0.5,0c0,0,0,0-0.1,0c-0.4,0-0.7,0-1.1,0.1l-3.2,9.6C67,74.8,67.8,75.3,68.6,75.7z"/>
	<g>
		<path class="st0" d="M30.1,76c0.5,3.6,1.4,7,2.8,10.3l7.3-19.7h-1.9l0.2-1.2c0.4-2.6,1.1-5.2,2.1-7.6c1.6-3.9,3.9-7.3,6.7-10.2
			l5.3-14.3c-8.9,4.3-16,11.8-19.9,21.3c-1.5,3.6-2.4,7.3-2.9,11.2l-0.1,0.9H14.1v8.6H30L30.1,76z"/>
		<rect x="66.6" y="14.1" class="st0" width="8.6" height="3.7"/>
		<path class="st0" d="M111.8,66.6l-0.1-1.5c-1.6-13.8-10.3-25.9-22.8-31.9l5.3,14.2c4.8,4.8,7.9,11.1,8.9,18.2l0.2,1.1h-1.8
			l7.4,19.9c0.1-0.1,0.1-0.3,0.2-0.4c1.3-3.2,2.2-6.6,2.7-10l0.1-0.9h15.7v-8.6L111.8,66.6z"/>
		<path class="st0" d="M85.1,103.9H56.6l-1.5,4.5c0,0,0,0,0,0c3.4,1.4,6.9,2.3,10.6,2.8l0.9,0.1v16.2h8.6v-16.4l0.9-0.1
			c3.7-0.4,7.2-1.3,10.6-2.7L85.1,103.9z"/>
	</g>
</g>
</svg>
