<?xml version="1.0" encoding="utf-8"?>
<!-- Generator: Adobe Illustrator 24.1.2, SVG Export Plug-In . SVG Version: 6.00 Build 0)  -->
<svg version="1.1" id="Layer_1" xmlns="http://www.w3.org/2000/svg" xmlns:xlink="http://www.w3.org/1999/xlink" x="0px" y="0px"
	 viewBox="0 0 141.7 141.7" style="enable-background:new 0 0 141.7 141.7;" xml:space="preserve">
<style type="text/css">
	.st0{fill:#DFDAD6;}
</style>
<g>
	<path class="st0" d="M76.4,55.8L56.1,76.1c-2.8,2.8-2.8,7.4,0,10.3c1.4,1.4,3.3,2.1,5.1,2.1c1.9,0,3.7-0.7,5.1-2.1l20.3-20.3
		L76.4,55.8z"/>
	<path class="st0" d="M125.4,17.1c-1.4-1.4-3.3-2.1-5.1-2.1s-3.7,0.7-5.1,2.1L79.6,52.6l0,0l10.3,10.3l0,0l35.4-35.4
		C128.2,24.6,128.2,19.9,125.4,17.1z"/>
	<path class="st0" d="M69.6,89.6c-2.2,2.2-5.2,3.5-8.4,3.5c-3.2,0-6.1-1.2-8.4-3.5c-2.2-2.2-3.5-5.2-3.5-8.4c0-3.2,1.2-6.1,3.5-8.4
		l6.9-6.9l-13-13L13.8,85.9l11.1,31.6l31.6,11.1l32.9-32.9l-13-13L69.6,89.6z"/>
	<g>
		<path class="st0" d="M43.5,49.8l3.2-3.2l1.1,1.1c4.7-4.5,10.7-7.6,17.3-8.6l1.2-0.2v13.7h6.9l1.7-1.7V38.7l1.2,0.2
			c2.4,0.4,4.8,1.1,7,2c0.4,0.2,0.8,0.3,1.2,0.5l6.4-6.4c-1.4-0.8-2.8-1.5-4.3-2.1c-3.4-1.4-7-2.3-10.6-2.8L75,30.1v-15h-8.6v15.2
			l-0.9,0.1c-14.7,1.7-27.4,11.3-33,25.1c-1,2.5-1.8,5.1-2.3,7.8L43.5,49.8z"/>
		<path class="st0" d="M111.5,66.1c-0.6-5-2.1-9.7-4.3-14.1l-6.4,6.4c1,2.5,1.8,5.2,2.1,7.9l0.2,1.1H91.7l-1.7,1.7v6.8h13.1
			l-0.2,1.2c-0.4,2.2-1.1,4.3-1.9,6.4c-1.6,4-3.9,7.5-6.8,10.4l1.7,1.7L92.6,99l-12.3,12.2c12.7-3,23.4-12,28.5-24.3
			c1.3-3.2,2.2-6.6,2.7-10l0.1-0.9h15.7v-8.6h-15.7L111.5,66.1z"/>
		<polygon class="st0" points="25.8,67.5 13.9,67.5 13.9,76.1 17.2,76.1 		"/>
		<polygon class="st0" points="66.4,125.2 66.4,128.5 75,128.5 75,116.7 		"/>
	</g>
</g>
</svg>
