<?xml version="1.0" encoding="utf-8"?>
<!-- Generator: Adobe Illustrator 24.1.2, SVG Export Plug-In . SVG Version: 6.00 Build 0)  -->
<svg version="1.1" id="Layer_1" xmlns="http://www.w3.org/2000/svg" xmlns:xlink="http://www.w3.org/1999/xlink" x="0px" y="0px"
	 viewBox="0 0 141.7 141.7" style="enable-background:new 0 0 141.7 141.7;" xml:space="preserve">
<style type="text/css">
	.st0{fill:#DFDAD6;}
</style>
<polygon class="st0" points="35.2,66 28.5,72.7 70.7,114.8 77.3,108.1 59.8,83.5 "/>
<path class="st0" d="M52.6,103.2L40.1,90.7l-15.6,19.8l0.1,0.1c-0.6-0.1-1.2-0.1-1.7-0.1c-2.6,0-5.2,1-7.2,3c-2,2-3,4.6-3,7.2
	c0,2.6,1,5.2,3,7.2c2,2,4.6,3,7.2,3c2.6,0,5.2-1,7.2-3c2-2,3-4.6,3-7.2c0-0.6-0.1-1.2-0.2-1.8L52.6,103.2z M26.2,123.9
	c-0.9,0.9-2.1,1.4-3.3,1.4c-1.3,0-2.4-0.5-3.3-1.4c-0.9-0.9-1.4-2.1-1.4-3.3c0-1.3,0.5-2.5,1.4-3.3c0.9-0.9,2.1-1.4,3.3-1.4
	c1.3,0,2.4,0.5,3.3,1.4c0.9,0.9,1.4,2.1,1.4,3.3C27.6,121.8,27.1,123,26.2,123.9z"/>
<polygon class="st0" points="98.2,24.2 54.4,74 62.5,79.8 63.1,80.2 63.5,80.8 69.4,89.1 119.2,45.2 128.6,14.9 "/>
<g>
	<path class="st0" d="M34.3,90.7l2.6-3.3l-6.2-6.2C31.5,84.6,32.8,87.8,34.3,90.7z"/>
	<polygon class="st0" points="50.7,71.4 51.4,70.6 51.4,67.5 45.2,67.5 	"/>
	<polygon class="st0" points="75,96.9 75,91.1 74,91.1 72,92.8 	"/>
	<path class="st0" d="M32,62.8l2.7-2.7l3.1,2.2l1.1,0.8c0.4-1.5,0.9-3,1.4-4.4C44.8,48.2,54,40.8,65.2,39.1l1.2-0.2v13.7h0.9
		l7.7-8.8v-5l1.2,0.2c0.9,0.2,1.7,0.3,2.6,0.6l6.2-7.1c-2.9-1.1-6-1.9-9.1-2.3L75,30.1v-15h-8.6v15.2l-0.9,0.1
		c-14.7,1.7-27.4,11.3-33,25.1c-1.3,3.1-2.1,6.2-2.6,9.5L32,62.8z"/>
	<polygon class="st0" points="73.9,118 70.7,121.2 67.4,118 66.4,117 66.4,128.5 75,128.5 75,116.9 	"/>
	<path class="st0" d="M112.1,66.9h-0.4l-0.1-0.9c-0.3-2.3-0.8-4.6-1.4-6.8l-7.3,6.5c0,0.2,0.1,0.4,0.1,0.6l0.2,1.1h-2.3L91,76.1
		h12.1l-0.2,1.2c-0.4,2.2-1.1,4.3-1.9,6.4c-4,9.6-12,16.5-21.9,19l2,2.8l2.2,3.1l-2.6,2.6c12.6-3.1,23.1-12,28.2-24.2
		c1.3-3.2,2.2-6.6,2.7-10l0.1-0.9h15.7v-8.6h-15.3L112.1,66.9z"/>
	<polygon class="st0" points="25.3,75.9 22.1,72.7 25.3,69.5 27.3,67.5 13.9,67.5 13.9,76.1 25.5,76.1 	"/>
	<path class="st0" d="M55.9,106.4l-2.7,2.2c0.6,0.3,1.2,0.6,1.8,0.8c1.9,0.8,3.8,1.4,5.8,1.9L55.9,106.4z"/>
</g>
</svg>
