<?xml version="1.0" encoding="utf-8"?>
<!-- Generator: Adobe Illustrator 24.1.2, SVG Export Plug-In . SVG Version: 6.00 Build 0)  -->
<svg version="1.1" id="Layer_1" xmlns="http://www.w3.org/2000/svg" xmlns:xlink="http://www.w3.org/1999/xlink" x="0px" y="0px"
	 viewBox="0 0 141.7 141.7" style="enable-background:new 0 0 141.7 141.7;" xml:space="preserve">
<style type="text/css">
	.st0{fill:#DFDAD6;}
</style>
<g>
	<path class="st0" d="M110.3,87.4c1.1-2.7,2-5.5,2.5-8.4l0.3-1.8h15.8V66.5h-16l-0.1-2.6c-2.3-14.1-12.1-26.3-25.4-31.8
		c-2.9-1.2-5.9-2.1-9-2.6l-1.9-0.3V14.1H65.8v15.2l-1.9,0.3C49.7,31.9,37.5,41.7,32,55.1c-1.3,3.1-2.2,6.3-2.7,9.5L29,66.5H13.4
		v10.6h15.9l0.3,1.9c2.5,13.9,12.2,26,25.4,31.4c2.9,1.2,5.9,2.1,9,2.6l1.9,0.3v16.3l10.6,0v-16.4l1.9-0.3
		C92.5,110.5,104.8,100.7,110.3,87.4z M79.2,101.8l-2.8,0.7V90.1H65.8v12.6l-2.8-0.8c-1.4-0.4-2.7-0.8-3.9-1.3
		C50,96.8,43.3,89.3,40.7,80L40,77.1h12.9V66.5H39.6l0.7-2.8c0.4-1.6,0.9-3.1,1.5-4.6c3.8-9.3,11.6-16,21.2-18.5l2.8-0.7v13.6h10.6
		V39.8l2.8,0.8c1.4,0.4,2.7,0.8,3.9,1.3c9.6,3.9,16.4,11.9,18.6,21.8l0.6,2.8H89.4v10.6h13.1l-0.8,2.9c-0.3,1.1-0.7,2.2-1.2,3.3
		C96.6,92.6,88.9,99.3,79.2,101.8z"/>
	<circle class="st0" cx="71.1" cy="71.2" r="6.9"/>
</g>
</svg>
