<?xml version="1.0" encoding="utf-8"?>
<!-- Generator: Adobe Illustrator 24.1.2, SVG Export Plug-In . SVG Version: 6.00 Build 0)  -->
<svg version="1.1" id="Layer_1" xmlns="http://www.w3.org/2000/svg" xmlns:xlink="http://www.w3.org/1999/xlink" x="0px" y="0px"
	 viewBox="0 0 141.7 141.7" style="enable-background:new 0 0 141.7 141.7;" xml:space="preserve">
<style type="text/css">
	.st0{fill:#DFDAD6;}
</style>
<path class="st0" d="M139,78.2l-3-1.8l0,0c0-0.3,0.1-0.5,0.1-0.8c0-1.3-0.6-2.5-1.6-3.3l0.6-0.9l-2-1.3l-0.9,1.4c-0.1,0-0.1,0-0.2,0
	c-1.1,0-2.1,0.4-2.8,1.1l0,0l-0.9-4.7h2.2v-3.2h-29.7l-1.1-4.6h15.1V47.4H96v-1.5h1.2v-4.5H96V40H79.7v1.4h-1.2v4.5h1.2v1.5h-4.8
	l-4.6,0.5l-0.3-1.8l-5.9,0.8l0.2,1.7L54,49.8l-0.3,2.3h-0.9L53,51c0-0.4-0.1-0.7-0.3-0.7l-1.1-0.1c-0.2,0-0.4,0.2-0.5,0.6l-0.2,1.3
	h-8.6v-0.2c0-0.3-0.3-0.6-0.6-0.6h-1.5c-0.3,0-0.6,0.3-0.6,0.6v0.2h-7.1c-0.9,0-1.7,0.1-1.9,1.1H2.8v4.6h27.7c0.2,1,1,1.1,1.9,1.1
	h7.1v0.2c0,0.3,0.3,0.6,0.6,0.6h1.5c0.3,0,0.6-0.3,0.6-0.6v-0.2H50l0,0.2c0,0.4,0.1,0.4,0.3,0.4l1.1,0.1c0.2,0,0.4-0.2,0.5-0.6
	l0.1-0.2h0.8l-0.6,4.6l-22.8,1.8l-0.2,0.9l-2.6,1.9h-5.3v5.7h-6.2l-6,0.7l-4.2,6.7h1.4v4.9l1.5-0.3c0,0.1,0,0.1,0,0.2
	c0.1,2.7,1.3,6.2,3.9,7.8c1.5,0.9,8.6,5.1,14,8c1.9,1,3.9,1.6,5.2,1.6h81.4c0.4,0,1.3,0,10.6-3.4c4.2-1.5,9.3-3.5,10.2-4
	c1.3-0.7,2.4-1.6,3.3-2.6c1.3-1.6,2-3.5,2-5.7c0-3.4-1.4-5.5-2.5-6.7c-0.3-0.3-0.6-0.6-0.8-0.8h4V78.2z M121.8,87.8
	C121.8,87.8,121.8,87.9,121.8,87.8c0,3.2,1.8,5.9,4.4,7.2c-1.2,0.5-2.5,0.9-3.8,1.4c-1.7,0.6-3.1,1.1-4.3,1.5c0.4-0.9,0.6-1.9,0.6-3
	c0-1.7-0.5-3.2-1.4-4.4L121.8,87.8z M104,92.5c-0.2,0.7-0.4,1.5-0.4,2.4c0,1.8,0.6,3.4,1.7,4.8h-8.2c1.1-1.3,1.7-2.9,1.7-4.8
	c0-0.8-0.1-1.6-0.4-2.4H104z M84,92.5c-0.2,0.7-0.4,1.5-0.4,2.4c0,1.8,0.6,3.4,1.7,4.8h-8.2c1.1-1.3,1.7-2.9,1.7-4.8
	c0-0.8-0.1-1.6-0.4-2.4H84z M64.1,92.5c-0.2,0.7-0.4,1.5-0.4,2.4c0,1.8,0.6,3.4,1.7,4.8h-8.2c1.1-1.3,1.7-2.9,1.7-4.8
	c0-0.8-0.1-1.6-0.4-2.4H64.1z M44.2,92.5c-0.2,0.7-0.4,1.5-0.4,2.4c0,1.8,0.6,3.4,1.7,4.8h-7.7c1.1-1.3,1.7-2.9,1.7-4.8
	c0-0.8-0.1-1.6-0.4-2.4H44.2z M24.7,92.5c-0.2,0.7-0.4,1.5-0.4,2.4c0,0.8,0.1,1.6,0.4,2.3c-2.2-1.2-4.5-2.5-6.4-3.6
	c0.9-0.2,1.7-0.5,2.4-1H24.7z"/>
</svg>
