<?xml version="1.0" encoding="utf-8"?>
<!-- Generator: Adobe Illustrator 24.1.2, SVG Export Plug-In . SVG Version: 6.00 Build 0)  -->
<svg version="1.1" id="Layer_1" xmlns="http://www.w3.org/2000/svg" xmlns:xlink="http://www.w3.org/1999/xlink" x="0px" y="0px"
	 viewBox="0 0 112 100" style="enable-background:new 0 0 112 100;" xml:space="preserve">
<style type="text/css">
	.st0{fill:url(#SVGID_1_);}
	.st1{fill:#C12A2A;}
	.st2{fill:#2E3A45;}
</style>
<g>
	<linearGradient id="SVGID_1_" gradientUnits="userSpaceOnUse" x1="56.383" y1="78.268" x2="56.383" y2="17.0386">
		<stop  offset="0" style="stop-color:#111215;stop-opacity:0"/>
		<stop  offset="0" style="stop-color:#111215;stop-opacity:4.189944e-02"/>
		<stop  offset="1" style="stop-color:#111215"/>
	</linearGradient>
	<path class="st0" d="M99.9,24L78.1,17L56.4,24L34.6,17L12.9,24L2.2,78.3l27.1-10.2l27.1,10.2l27.1-10.2l27.1,10.2L99.9,24z
		 M68.5,49.4l-6.8-23.1h13.5L68.5,49.4z"/>
	<path class="st1" d="M71.2,29.3l-2.7,9.3l-2.7-9.3H71.2 M75.2,26.3H61.7l6.8,23.1L75.2,26.3L75.2,26.3z"/>
	<g>
		<path class="st2" d="M112,79.9l-11.2-56.8L91,20c0,0,0,0,0-0.1c0,0-0.1,0-0.1,0l-6.2-2c-1.3-0.5-2.7-1-4.7-1.8l0.2,0.3l-0.3-0.1
			c-0.6-0.2-0.7-0.3-1.2-0.6c-0.3,0-0.3,0-0.2,0.1l-0.4-0.1l-3,0.9c-0.1,0-0.2,0.1-0.2,0.1c-0.9,0.3-1.7,0.4-2,0.3
			c-1.3,0.4,0.5,0.2-0.8,0.6l-0.4-0.1L71.5,18l-0.4,0.1c-0.6,0.1-1,0-1.1-0.1c0.2,0,0.6-0.2,0.8-0.3c-1.1,0.1-2.8,0.9-3.3,1.1
			l1.2-0.3c-3.4,1.3-7.8,2.4-11,3.8l0.1,0l-1.3,0.4l-5-1.6c-0.3-0.2-0.6-0.4-0.1-0.3c-1.3-0.3-1.7-0.4-2-0.4l-3.5-1.1
			c-1.5-0.7-2.7-0.9-3.6-1.2l-1.5-0.5c-0.2-0.1-0.4-0.2-0.6-0.4c-0.2,0-0.3,0.1-0.4,0.1l-2.4-0.8c-0.4-0.2-0.9-0.4-1.5-0.6
			c0.2,0.1,0.3,0,0.5,0.1c-0.2-0.1-0.4-0.2-0.7-0.3c-0.4-0.1-0.7-0.2-1.1-0.3c-0.3,0.1-0.7,0.3-1,0.4c-0.3,0.1-0.5,0.1-0.8,0.2
			c-0.3,0.3-0.8,0.4-1.1,0.6l-2.8,0.9c0.8-0.4,2.5-0.8,3.5-1.4c-0.7,0-2.4,1.1-1.9,0.4c-0.8,0.9-2.4,0.7-3.8,1.7l0-0.3
			c-0.2,0.1-0.7,0.4-1.2,0.6l0.7-0.6c-1.2,0.7-2.6,0.5-3.8,1.1c2.6-0.8,0.7,0.1,1.9,0c-0.1,0.1-0.3,0.1-0.4,0.2l-1.3,0.4
			c-1.2,0.2-1.3-0.4-3.8,0.5c0.6-0.2,1.7-0.3,1,0c-0.7,0.2-1.7,0.3-2.1,0.3c-2.4,0.8,0.5,0.2-0.5,0.7c-0.8-0.1-1.1,0.4-1.8,0.8
			l-0.3,0.1L14.8,22c-0.3,0.1-0.5,0.1-0.7,0.2c-0.1,0-0.2,0.1-0.3,0.1c-0.1,0-0.2,0.1-0.3,0.1c-0.4,0.1-0.5,0.3-0.6,0.3
			c0,0-0.1,0.1-0.1,0.1L12,23.1l-0.1,0.7c0-0.3,0-0.6,0-0.9l0.2-0.1L11.8,23l-0.3,1.8c-0.1-0.2-0.2-0.4-0.2-0.6
			c0,0.3-0.1,0.6-0.1,0.8c0,0.2,0,0.3,0,0.4c0,0.3-0.1,0.5-0.1,0.7c-0.1,0.5-0.2,0.9-0.4,1.6c0.2-0.2,0.3,0,0.3,0.4l-0.3,1.5
			c-0.1,0-0.1-0.3-0.3,1c-0.1-0.4-0.2-0.9,0.2-1.6c-0.1-0.1-0.1-0.4-0.2-0.5c-0.4,0.9-0.5,2.3-0.6,2.9c0.1-0.2,0.1-0.5,0.2-0.7
			l-0.1,2.6c-0.2,0.4-0.2,0-0.2-0.3c-0.1,0.5,0,0.9-0.1,1.7c-0.2-0.2-0.4-0.2-0.3-1.3l-0.2,2.5c-0.1,0.1-0.5,1.2-0.5,0.9
			c-0.4,1.3-0.2,3.4-0.7,5.2c0,0.1,0,0.3,0,0.7c-0.4,1.7-1,3.1-1,5.2L6,48.8c-0.2,1.6,0.8-1.4,0.5,1.2c-0.2,1.9-0.5,0.6-0.7,1.2
			c0,1,0.1,2.6-0.5,4.3c0-0.6,0.2-1,0.3-1.5l-0.5,1.2c-0.1-1.6,0.3-2.7-0.3-1.6c0.8,0.3-0.9,5-0.1,5.4l-0.3,0.8
			c0.1-0.2,0-0.3,0.1-0.5c-0.7,1.6,0.3,1.3-0.2,3.5c-0.2,0.7-0.4,1.2-0.4,0.7l-0.1,1.7c-0.1,0.4-0.2,0.4-0.2,0.1l-0.4,2.3l0,0
			c0,0.2,0.1,0.7,0.1,1l-0.1,0.5c0-0.1,0-0.1,0,0l0,0.4l-0.2,1.2c-0.1-0.1-0.1-1,0.1-1.7c-1.1,1.1,0,1.2-1.1,3.9l0.2-1.3
			c-0.3,0.4-0.5,0.8-0.6,1.4c-0.1,0.3-0.2,0.6-0.3,0.9c-0.1,0.3-0.2,0.6-0.2,0.9c-0.1,0.3-0.2,0.7-0.3,1.1c0.1-0.2,0.2-0.6,0.4-1.2
			c0-0.1,0.1-0.3,0.1-0.4L1,73.9l0-0.1c0,0,0,0,0-0.1c0.1-0.1,0.1-0.3,0.2-0.4c0.3-0.5,0.5-0.7,0.5,0.1c0,0.1-0.1,0.2-0.1,0.3
			c0,0,0,0.1,0,0.1c0,0,0,0.1,0,0.1c0,0.1,0,0.2-0.1,0.3c-0.1,0.5-0.2,1-0.2,1.6c-0.3,0.1-0.5,1.4-0.8,3l-0.5,0.3
			c-0.1,1-0.1,1.3,0,1.5c0.3-0.2,0.7-0.4,1.2-0.7c1.8-0.6,2-0.4,2.4-0.3c1.7-0.6,1.1-0.5,0.7-0.5c-0.5,0-0.7,0,1-0.7
			c0.3-0.1,0.6-0.2,0.9-0.3c0.2-0.1,0.5-0.2,0.7-0.2c0.3-0.1,0.7-0.3,1-0.4c0.7-0.3,1.4-0.7,2.2-1.1c1.1-0.3-0.1,0.3,0.3,0.3
			l0.8-0.6c0.2-0.1,0.2,0,0.2,0.1c0.4-0.2,0.4-0.3,0.4-0.5l3.1-1.2c0.6-0.1,1.1-0.3,1.6-0.6l0.4-0.1c0.1,0.1-0.2,0.3-0.1,0.4
			c1.2-0.6,1.6-0.8,2-1.1l3.3-1.3c0.2,0,0.4-0.1,0.6-0.1l-0.5,0.1l1.8-0.7l0.2,0.1l0-0.2l0.3-0.1l2.4-0.6c0.3-0.2,0.6-0.4,0.9-0.6
			l1.3-0.5l0,0c0.2,0.2,0.1,0.3,0.1,0.3c0.1,0,0.2,0,0.3,0l0.7,0.2l0.6,0.1l0.8,0.3c0,0.2,0.6,0.4,1.2,0.7c-0.1-0.1,0-0.2,0.1-0.2
			l2.6,1c-0.2-0.1-0.6-0.2-1-0.3c0.5,0.4,1,0.5,1.4,0.5l9.8,3.7c-0.1,0-0.1,0.1-0.2,0.1l0.3,0l1.4,0.5l-0.5,0.2
			c0.9,0,1.3,0.2,1.8,0.4l-0.1-0.2l0.8,0.3c-0.2,0-0.4,0-0.6-0.1c0.5,0.3,1.1,0.6,2.3,0.8c-0.1,0-0.2-0.1-0.2-0.2l1.9,0.7
			c0.1,0.1,0.3,0.2,0.5,0.3C53,78.3,53,78.2,53,78.1l1,0.4c0,0-0.1,0.1-0.2,0.1l0.4,0l2,0.8c0,0,0,0,0,0c0,0,0.1,0.1,0.1,0.1
			c0,0,0.1,0,0.1,0c0.1,0,0.2,0,0.3,0c-0.1,0,0-0.1,0.3-0.2c0.1,0,0.3-0.1,0.5-0.2c0.1,0,0.3-0.1,0.4-0.2c0.5-0.2,1.2-0.4,1.5-0.6
			l-0.9,0.2l0.2-0.1c0.1,0,0.2-0.1,0.3-0.1l4.4-1.7c0.1,0,0.1,0,0.2-0.1c0,0,0,0,0,0l1.5-0.6c-0.1,0.1-0.2,0.2-0.3,0.2
			c0.9-0.2,0.3,0.1,1.6-0.4c0.5,0-0.6,0.5-1,0.7l3.1-1c-0.3-0.3,2.2-1.3,2-1.5l0.5-0.2C71,74,71,74.1,71,74.1
			c0.1-0.1,0.9-0.5,1.5-0.8l0.6-0.2c0.1,0,0.1,0,0.2,0l-0.8,0.5c0.8-0.2,1.3-0.7,2-1l0.8-0.3c0.2,0,0.3-0.1,0.5-0.1
			c0.5-0.2,1.7-0.1,1.7-0.3c-0.2,0-0.4-0.1-0.5-0.2l2.6-1c0,0.1,0.2,0,0.7-0.1c-0.3,0.1-0.5,0.1-0.7,0.1l3.9-1.5L112,79.9z
			 M1.8,73.4c0-0.4,0-1.2,0.2-1.4C2.2,72.4,2,72.7,1.8,73.4z M102.3,74c0.4,0.1,0.8,0.2,1.5,0.6L102.3,74z M104.2,74.4
			C103.5,74,103.7,74.1,104.2,74.4C104.3,74.4,104.2,74.4,104.2,74.4z M98.9,24.8L98.9,24.8c0,0-0.1,0-0.1,0L98.9,24.8z M35.7,18.5
			C35.7,18.5,35.7,18.5,35.7,18.5C35.7,18.5,35.7,18.5,35.7,18.5z M33.7,18.5C33.7,18.5,33.7,18.5,33.7,18.5
			C33.7,18.5,33.7,18.5,33.7,18.5C33.6,18.5,33.7,18.5,33.7,18.5z M67.4,75.7c-0.1-0.1,0-0.3,0.3-0.5l2.9-1.1L67.4,75.7z M82.4,66.4
			c-0.2,0.1-0.3,0.1-0.5,0.2c-0.1,0-0.2,0.1-0.3,0.1c-0.4,0.2-0.8,0.3-1.2,0.5c-0.8,0.3-1.6,0.6-2.1,0.8l0,0.3
			c-1.2,0.4-2.3,0.9-3.7,1.6l0.2,0.2c-1.2,0.7-3.3,1-5.2,1.8c0.1-0.1,0.6-0.3,1-0.4c-2.6,0.3-4.8,2.3-7.1,2.7
			c-0.5,0.3-0.9,0.4-1.3,0.5c0,0,0.1,0,0.1-0.1c-0.1,0-0.1,0-0.2,0.1c-0.3,0-0.5,0.1-0.8,0.1c0.2,0,0.5-0.1,0.7-0.1
			c-0.4,0.2-1,0.4-1.6,0.7L60,75.3c0,0-0.1,0-0.1,0.1c-0.6,0.1-0.4,0.3,0,0.4c-0.2,0.1-0.4,0.2-0.6,0.3L59,76.2
			c-0.3-0.1-0.7,0.1-1,0.3c-0.2,0.1-0.4,0.2-0.6,0.3c0,0-0.1,0-0.1,0l0,0l0,0c-0.1,0-0.1,0-0.2,0c-0.1,0-0.1,0-0.2,0
			c0,0-0.1,0-0.1,0c0,0,0,0,0,0c0,0.1-0.1,0.2-0.3,0.3c0,0,0,0-0.1,0l-0.1,0c0,0-0.1,0-0.1,0c0,0-0.1,0-0.1,0l-0.1,0l-0.1,0
			c-0.1,0-0.2-0.1-0.4-0.1L52,75.5l0,0l-0.1,0l-2.2-0.8c0.1,0,0.3,0,0.5,0c-0.4-0.1-0.8-0.1-1-0.2L36,69.5c-0.9-0.4-1.8-0.8-2.5-1.1
			c0.1,0.1,0.1,0.2,0.1,0.2l-0.8-0.3c-0.5-0.3-1-0.6-1.2-0.5l-0.1,0c-0.2-0.2-0.5-0.4,0.1-0.3c-0.4-0.1-0.7-0.2-1-0.3
			c-0.5-0.2-0.9-0.3-1.3-0.5c-0.4,0.1-0.7,0.2-1.1,0.4c-0.1,0-0.3,0.1-0.4,0.1c-0.1,0-0.2,0.1-0.3,0.1c-0.4,0.2-0.8,0.4-1.1,0.7
			c-0.3-0.1,0.3-0.4,0.1-0.4c-0.1,0.1-0.6,0.4-0.8,0.3c-0.2,0,0.2-0.2,0.5-0.4c-1.5,0.6-1.8,1-1.9,1.4L3.8,76.5c0,0,0-0.1,0-0.1
			C4,76,4.1,75.7,4.2,75.6c0.1-0.1,0.1,0,0.1,0c0.2-0.3,0.2-0.4,0.2-0.4c0,0-0.1,0-0.2,0.1c-0.2,0.1-0.4,0.4-0.4-0.1
			C4,75.1,4.2,75.1,4.3,75c0.1-0.1,0.2-0.1,0.3-0.3c0.1-0.1,0-0.1,0-0.2c0-0.4,0-0.9,0.1-1.4c0.1-1,0.2-2.2,0.5-3
			c-0.2,0.3-0.3,0.5-0.4,0.2l0.4-1.8c0.4-1.1,0.8-2.4,0.7-3.3C5.9,65.1,6,65.1,6,65.1c0-0.4,0.1-0.9,0.1-1.4l0.7-3.6
			C6.9,59.9,7,59.6,7,59.3l0.8-4.1c0,0,0.1,0,0.1,0l0.5-3l0.1,0.1c0.3-1.1,0.3-1.8,0.3-2.4L9.2,48c0.3-1,0.4-1.7,0.5-2.4l0.9-4.4
			c0.4-1.4,0.9-3.2,1-4.9c0,0,0.1,0.1,0.1,0.3c0.3-3.1,2.2-7.1,1.5-8.5l0.7-3.4l6.8-2.2c3.1-0.9,6.2-1.8,9.2-2.7l-0.4-0.1l1.7-0.5
			c0,0.1-0.2,0.2-0.9,0.4c0.5,0,1.2-0.4,1.6-0.7l1.2-0.4c0.1,0.1-1.5,0.8-0.9,0.7l1-0.3L33,19c0.3-0.1,0.4-0.3,0.6-0.4
			c0.1,0.1,0.1,0.2,0,0.3l-0.1,0c0,0.6-0.3,0.8-0.5,1.4l0.3,0c-0.1,0.1-0.1,0.2-0.2,0.2c0.4,0.2,0.1-0.4,0.5-0.2
			c-0.6,0.1-0.1,1-0.8,1c0,0.2,0.3,0,0.3,0.2l-0.2,0l0.2,0.1c-0.1,0.1-0.3,0.2-0.4,0.2c0,0,0-0.1,0-0.1c-0.2,0.2,0,0.5-0.1,0.6
			l0.1-0.2c0.1,0.6-0.2,1.3,0.1,1.9l0.1,0c0.2,0.5-0.2,0.3-0.1,0.8l0,0c0.1,0.1,0.2,0.2,0.1,0.4c-0.1-0.1-0.3,0.2-0.5,0
			c0.2,0.5,0.2,0.3,0.7,0.6l-0.2,0c0.2,0.1,0.3,0.1,0.3,0.4c-0.2-0.2-0.4,0.1-0.6-0.1c-0.5,0.4,0.4,0.8-0.3,0.9
			c0.6,0.3,0.4-0.4,0.5-0.3c0.2-0.1,0.4,0.2,0.4,0.4c0,0.2-0.8,0.2-0.9,0.6c0,0,0,0,0-0.1c-0.2,0.1,0.2,0.3-0.1,0.5
			c0.4,0.1,0,0.2,0.4,0.3l-0.1-0.4c0.1,0.2,0.6,0.5,0.3,0.8c-0.1,0-0.2-0.2-0.3-0.2c-0.2,0.1,0.1,0.2-0.1,0.3
			c-0.5-0.1-0.1-0.5-0.4-0.7c-0.2,0.1,0.3,0.5-0.2,0.3c0.6,0.2-0.1,0.4,0.3,0.7l-0.3,0c0,0,0.2,0.2,0.2,0.2l-0.4-0.2
			c0.3,0.3-0.3,0.4-0.2,0.6c0-0.4,0.4-0.1,0.6-0.2c0.3,0.6-0.8,0.2-0.7,0.9c0-0.1,0.2-0.3,0.3-0.1c-0.1,0.1-0.2,0.3-0.4,0.3
			c0,0.4,0.3,0,0.5,0.2c-0.4,0.1,0.1,0.2,0.2,0.4l-0.3,0c-0.2,0.4,0.6,0.2,0.3,0.6l-0.4-0.2l0.1,0.2l-0.3-0.1c0.2,0.3,0.1,0.3,0,0.5
			c0.2,0,0.5,0.1,0.5,0.3c-0.2,0.1-0.3-0.1-0.3,0.2c-0.2-0.1-0.4-0.2-0.1-0.3c-0.1,0-0.2-0.1-0.3-0.1c-0.2,0.1-0.1,0.4-0.1,0.5
			c0,0,0-0.1,0.1-0.1l0.4,0.5c-0.1,0.1-0.2,0-0.3-0.1c0,0.1,0.2,0.2,0.2,0.3c-0.2-0.1-0.5-0.1-0.6-0.3l0.2,0.4
			c-0.1,0-0.3,0.2-0.4,0.1c-0.2,0.2,0.4,0.6,0.2,0.9c0,0,0.1,0.1,0.1,0.1c-0.1,0.3-0.4,0.5-0.1,0.8l-0.4,0.1
			c0.1,0.3,0.6-0.2,0.7,0.2c0.1,0.3-0.4,0.1-0.5,0.2c0.2,0.2,0.6,0.5,0.2,0.7c-0.1-0.1,0-0.2,0-0.3l-0.3,0.2
			c-0.4-0.3-0.2-0.5-0.6-0.3c0.8,0.1,0,0.8,0.8,0.9l-0.2,0.1c0,0,0-0.1,0-0.1c-0.4,0.2,0.6,0.3,0.4,0.6c-0.1,0.1-0.2,0.2-0.3,0.1
			l0.2,0.3c0,0.1-0.2,0-0.1,0l0,0.4l0,0c0.1,0.1,0.3,0.2,0.4,0.3c-0.1,0.1-0.1-0.1-0.2,0l0.2,0.3C31.2,39.3,31,39.1,31,39
			c-0.8,0.1,0.2,0.2-0.3,0.6l-0.1-0.2c-0.5,0.1-0.3,0.3-0.6,0.5c0.2,0,0.8-0.4,1-0.1c-0.1,0.1-0.1,0.2,0,0.3c-0.3,0-0.2,0.1-0.2,0.3
			l-0.4-0.1c0.1,0.2,0.3,0.2,0.5,0.3c-0.1,0.2-0.4,0.2-0.6,0.2c-0.1,0.3,0.4-0.1,0.5,0.2l-0.8,0.3l0.7,1.6c0,0,0,0-0.1,0
			c0.1,0.1,0.1,0.2,0.2,0.3l0.2,0.3l0.1-0.1c0,0,0.1,0.1,0.1,0.1l-0.3,0.2c0.3-0.2,0.6,0.1,0.9,0.4c0.1-0.1,0.3-0.1,0.3-0.1l0.2,0.4
			c-0.1,0-0.2,0-0.4-0.1c0,0,0.1,0.1,0.1,0.1c-0.2,0.1-0.4,0-0.6-0.1c0.1,0,0.2-0.1,0.3-0.1c-0.2-0.1-0.5-0.2-0.7-0.2
			c0,0,0.1,0.1,0.1,0.1c-0.1,0-0.1,0-0.2,0c0,0,0,0.1,0.1,0.1l-0.4,0l0.2,0l-0.3,0.4c0.4,0.4,1,0.7,1.1,1.2
			c-0.3-0.2-0.5-0.1-0.9-0.1c0.4-0.1-0.1-0.4,0-0.7c-0.1,0.1-0.2,0.1-0.3,0l0.3,0.5c-0.3,0-0.2,0.1-0.4,0.2c0.6,0,0.4,0.4,0.5,0.6
			c-0.2,0-0.4-0.1-0.3-0.3c-0.5,0.2,0.7,0.4,0.3,0.6c0-0.1,0-0.1-0.1-0.1c0.2,0.2,0,0.5-0.2,0.4l0-0.1c-0.1,0.4-0.1,1.1,0.4,1.2
			c-0.1,0-0.6-0.1-0.7-0.1l1.7,0.8c-0.4-0.1-1.5,0-1.7-0.3c-0.1,0.1-0.2,0.2,0,0.4c0.1-0.1,0.7-0.1,0.7,0c-0.5,0.2-0.3,0.1-0.7,0.4
			c0.1-0.1,0.8,0.1,0.7,0.2c-0.1,0-0.7-0.1-0.7-0.1l0.6,0.4c-0.1-0.1-0.6-0.1-0.8,0c0.1,0,0,0.3,0,0.4l0.2-0.1
			C30,50.5,31,50.6,30.9,51c-0.1-0.1-0.8-0.2-1,0c0.3,0.1,1.6,0.6,1.9,1l-0.2,0l0.2,0.3c-0.5-0.2-1.6-0.8-2-1.1
			c-0.2,0.1-0.2,0-0.2,0.2c-0.2,0.1-0.3-0.2-0.3-0.2l-0.2,0.5c0.4,0,0.4,0.4,0.7,0.5l-0.4-0.6c0.4,0,1.1,0.5,1,0.8
			c-0.2,0.1-0.7-0.1-0.9-0.2c0.1,0.1,0.2,0.4,0.1,0.4l-0.2-0.2c-0.2,0.2,0.5,0.4,0.1,0.6c0,0.1-0.5,0.2-0.3,0.2
			c0.5-0.1,1.9,0,2.2,0.2c0,0-0.5,0.4-0.7,0.5c-0.4,0.1-0.8-0.3-1.2-0.2c0.1,0,0.2,0.1,0.3,0.1c-0.1,0.1-0.3-0.1-0.3,0.1
			c0.4,0.1-0.1,0.4,0.3,0.1c0.1,0.2-0.1,0.2-0.1,0.4c0.3,0,0.9,0.3,1,0.5c-0.1,0-0.2,0-0.3,0c-0.1,0.4-0.3,0.6-0.3,0.9
			c-0.1,0-0.2,0.2-0.4,0.1c0.1,0.1,0.2,0.1,0.2,0.2c-0.4,0.2,0-0.3-0.5-0.1c0.2,0,0.3,0.3,0.4,0.5c0.4,0,0.1-0.4,0-0.5
			c0.5,0.1,1,0.4,1.2,0.8c0.1,0.3-0.3,0.1-0.3,0.2c-0.1,0.6,0.8,0.6,0.4,1c-0.3,0.2-0.6-0.1-0.9,0c-0.1-0.3,0.2-0.4,0.3-0.5
			l-0.2,0.2c-0.1-0.1-0.2-0.3-0.1-0.3c-0.3,0.1-0.2,1-0.5,1.4c0.1,0.1,0.2,0.2,0.3,0.2l0-0.1c0.3-0.1,0.3,0.3,0.5,0.1
			c0.2,0.2,0.4,0.4,0.3,0.7l-0.4,0c0.1,0,0.2-0.1,0.1-0.2c0.2,0.1-0.5,0.4-0.1,0.5l0.3-0.2c0.2,0.2,0.5,0.5,0.4,0.7
			c0.4-0.1,0-0.1,0.4-0.2c-0.5,0.1,0.1-0.6-0.5-0.4c0.5-0.1,0.2-0.3,0.7-0.5c-0.1,0-0.2,0.1-0.2-0.1c0,0-0.1,0-0.1-0.1c0,0,0,0,0,0
			c0,0,0,0,0,0c0,0,0,0,0,0c-0.1,0-0.1,0.1-0.2,0.1c-0.3-0.1-0.2-0.4-0.4-0.6c0.1-0.1,0.1,0.1,0.3,0l-0.2-0.2c0.3,0,0.5-0.3,0.6,0
			l0-0.2c0.2-0.1,0.2-0.3,0.1-0.5c0.1-0.1-0.3-0.3-0.1-0.2l-0.1-0.4l0.1,0c0.1-0.4-0.4-0.8,0.2-1.2c-0.1-0.1-0.1-0.3,0-0.5l0.2,0
			c-0.1-0.2,0.3-0.5,0.1-0.6c0.6-0.1,0.2-0.8,0.4-1.1l-0.3,0c0-0.2,0-0.4-0.1-0.7l-0.3,0c-0.2-0.2,0.3-0.5,0.3-0.9
			c0.1,0,0.1,0.1,0,0.2c0.7-0.3-0.4-0.9,0.1-1.2c-0.1-0.1,0-0.2,0-0.2c0,0,0,0,0,0c0,0,0,0,0,0c0.1,0,0.1-0.1,0.2-0.1
			c-0.1,0-0.1,0.1-0.2,0.1c0-0.1,0-0.2-0.1-0.3l0.3,0c0,0,0,0,0,0c0.1-0.1-0.1-0.1-0.4-0.1c0-0.1-0.1-0.1-0.2-0.2
			c0.5,0-0.1-0.3,0.4-0.4c-0.2-0.1-0.1-0.5-0.6-0.7c0.1,0,0.1,0,0.1,0c0.1-0.1,0.1-0.2,0-0.3l0.4,0l-0.5-0.3c0.2-0.1,0.4-0.2,0.6,0
			c-0.4-0.4-0.1-0.3-0.5-0.7l0.2,0c0-0.1-0.3-0.3-0.1-0.4c0.5-0.2,0.2-1.2,0.7-1.8c-0.7,0.1,0.3-0.3-0.2-0.4c0.2,0,0.3-0.1,0.4,0
			c-0.1-0.3,0.3-0.5-0.1-0.7c0.2,0,0.2,0.1,0.3,0.1c0,0-0.1-0.1,0-0.1c0.1,0,0.1,0.1,0.2,0.1c0-0.3-0.5-0.4-1-0.5
			c0.2-0.1,0.2-0.2-0.1-0.4c0.2,0,0.3-0.1,0.4,0.1c0-0.1,0.3-0.6,0-0.7l1.4-1.1l-1.2-1.6c0.3-0.1,0.6-0.2,0.7-0.3
			c0.1,0,0.1,0.1,0.1,0.1c0.4-0.4-0.4-0.1-0.4-0.4c0.2,0,0.5,0.1,0.6-0.1c0.2-0.1-0.6-0.6-0.2-0.9c-0.2,0-0.3,0.1-0.4-0.1
			c0-0.2,0.7-0.5,0.2-0.7c0,0,0.1,0,0.1,0c-0.1-0.2-0.2-0.5-0.4-0.7c1,0-0.4-1,0.5-0.9l0-0.5l0.1,0c0.1-0.3-0.1-0.4-0.3-0.6
			c0.1-0.1,0.2,0,0.2,0c0.2-0.4,0.2-0.5-0.2-0.9l0.3,0c-0.2-0.1,0.5-0.6,0.2-1.1c0,0,0.1,0,0.1,0.1c-0.3-0.5,1-1.1-0.1-1.4l-0.2-0.4
			c-0.1,0.4-0.5-0.1-0.7,0c0-0.2,0.4-0.4,0.4-0.2l-0.1,0c0.6,0.1,0.3-0.5,0.6-0.5c0.1-0.9,0.5-1.7,0.6-2.5l-0.5,0l0.1-0.3
			c0.1-0.1,0.4-0.1,0.3,0.1c0.3-0.1-0.2-0.4-0.3-0.4c0.2-0.4,0.5,0.2,0.5,0.1l0-0.2l-0.1,0c-0.2-0.2-0.4-0.2-0.3-0.4
			c0.1-0.1,0.3,0,0.3-0.1c0,0,0,0,0-0.1l0.1-0.3l-0.4,0.1c-0.2-0.2,0.1-0.3-0.4-0.2c0.6-0.2,0.4-1.3,0.6-1.4
			c-0.2-0.2-0.2-0.5-0.1-0.7c-0.1,0.1-0.5,0.1-0.4-0.2c0.8,0.2,0.4-0.4,1-0.5c-0.4,0.1,0-0.7-0.6-0.5c0.1-0.2,0.3,0,0.5-0.1
			c-0.3-0.5,0.3-1,0.3-1.6c-0.1,0-0.3,0.1-0.4-0.1l0.6-0.2c0-0.1-0.6-0.2-0.2-0.3c-0.1,0-0.2,0-0.3,0c0.6-1-0.1-2.1,0.7-3.1
			c0,0,0.1,0,0.1,0l2.1,0.7L37.3,19l17.1,5.4c0.3,0.1,0.5,0.3,0.7,0.5c-0.1-0.1,0-0.1,0.1-0.1c0.1,0,0.3,0,0.4,0.1
			c-0.2,0.2-0.6,0.5-0.1,0.7c-0.1,0.1-0.2-0.1-0.3,0c0.2,0.1,0.3,0.2,0.2,0.4l-0.1,0c0.1,0.6-0.2,0.9-0.3,1.6l0.3-0.1
			c0,0.1-0.1,0.2-0.2,0.3c0.4,0.2,0-0.4,0.5-0.3c-0.6,0.2,0,1.1-0.7,1.2c0,0.2,0.3-0.1,0.3,0.2l-0.2,0.1l0.2,0.1
			c0,0.2-0.3,0.2-0.4,0.2c0,0,0-0.1-0.1-0.1c-0.2,0.2,0.1,0.6,0,0.6l0.1-0.2c0.2,0.6-0.1,1.4,0.3,2l0.1,0c0.3,0.5-0.1,0.4,0,0.9l0,0
			c0.1,0.1,0.2,0.2,0.2,0.4c-0.2-0.1-0.3,0.2-0.5,0.1c0.3,0.5,0.2,0.2,0.7,0.6l-0.2,0.1c0.2,0.1,0.3,0.1,0.4,0.4
			c-0.2-0.2-0.3,0.2-0.6-0.1c-0.5,0.5,0.5,0.8-0.2,1c0.6,0.2,0.3-0.5,0.5-0.3c0.2-0.1,0.5,0.2,0.4,0.4c0,0.2-0.8,0.3-0.8,0.7
			c0,0,0,0,0-0.1c-0.2,0.2,0.2,0.3,0,0.5c0.4,0.1,0,0.3,0.5,0.3l-0.1-0.4c0.1,0.2,0.7,0.4,0.4,0.8c-0.1,0-0.2-0.1-0.3-0.2
			c-0.1,0.1,0.1,0.2-0.1,0.3c-0.5,0-0.1-0.5-0.5-0.7c-0.2,0.1,0.3,0.5-0.2,0.3c0.7,0.2-0.1,0.4,0.4,0.7L55,37c0,0,0.2,0.1,0.2,0.2
			l-0.4-0.2c0.3,0.2-0.3,0.5-0.1,0.7c0-0.5,0.3-0.1,0.6-0.3c0.4,0.6-0.8,0.3-0.6,1c0-0.1,0.2-0.3,0.3-0.2c-0.1,0.1-0.2,0.3-0.3,0.4
			c0.1,0.4,0.3-0.1,0.5,0.1c-0.4,0.1,0.1,0.2,0.3,0.4l-0.3,0c-0.2,0.5,0.6,0.1,0.4,0.6l-0.4-0.2l0.1,0.2l-0.3,0
			c0.2,0.3,0.2,0.3,0.1,0.6c0.2-0.1,0.5,0,0.5,0.2c-0.2,0.1-0.3-0.1-0.2,0.2c-0.2-0.1-0.4-0.1-0.1-0.3c-0.1,0-0.2-0.1-0.3-0.1
			c-0.2,0.2,0,0.4,0,0.5c0,0,0-0.1,0.1-0.1l0.4,0.4c-0.1,0.1-0.2,0-0.3,0c0,0.1,0.2,0.2,0.2,0.3c-0.2,0-0.5,0-0.6-0.2l0.3,0.4
			c-0.1,0-0.3,0.2-0.4,0.2c-0.1,0.2,0.5,0.6,0.3,0.9c0,0,0.1,0,0.1,0.1c-0.1,0.3-0.3,0.6,0,0.9L54.4,44c0.1,0.3,0.5-0.3,0.7,0.2
			c0.1,0.3-0.4,0.1-0.5,0.2c0.2,0.2,0.7,0.4,0.3,0.7c-0.1-0.1,0-0.2,0-0.3l-0.2,0.2c-0.4-0.3-0.3-0.5-0.6-0.3c0.8,0,0.1,0.9,0.9,0.9
			l-0.2,0.1c0,0,0,0,0-0.1c-0.4,0.3,0.6,0.2,0.5,0.6c-0.1,0.1-0.2,0.2-0.3,0.1l0.2,0.3c0,0.1-0.2,0.1-0.1,0l0.1,0.4l0,0
			c0.1,0.1,0.3,0.2,0.4,0.3c-0.1,0.1-0.1-0.1-0.2,0l0.2,0.2c-0.2,0.1-0.4-0.1-0.4-0.3c-0.8,0.2,0.2,0.2-0.3,0.7l-0.1-0.2
			c-0.5,0.1-0.3,0.3-0.6,0.6c0.2-0.1,0.7-0.5,0.9-0.3c-0.1,0.1-0.1,0.2,0.1,0.3c-0.3,0-0.2,0.1-0.2,0.3l-0.4,0
			c0.1,0.2,0.3,0.2,0.5,0.3c0,0.2-0.3,0.3-0.6,0.3c-0.1,0.3,0.5-0.2,0.6,0.2c-0.1,0.3,0,0.5,0.2,0.8c-0.1,0.2-0.2,0-0.3,0l0.3,0.2
			c0,0-0.1,0-0.2,0c0.1,0.1,0.4,0,0.5,0.2c0.4,0.1-0.6,0.5-0.1,0.8c-0.1,0.1-0.2,0-0.4,0c0.3,0.4,0.2,0.3,0.7,0.7l-0.3,0.3
			c0.3-0.2,0.6,0.1,0.9,0.3c0.1-0.1,0.3-0.1,0.3-0.2l0.2,0.4c-0.1,0-0.2,0-0.4-0.1c0,0,0.1,0,0.1,0.1c-0.1,0.1-0.4,0.1-0.6,0
			c0.1,0,0.2-0.1,0.2-0.1c-0.2-0.1-0.5-0.2-0.7-0.2c0,0,0.1,0.1,0.1,0.1c-0.1,0-0.1,0-0.2,0c0,0,0,0,0.1,0.1L55.2,53l0.2,0l-0.3,0.5
			c0.4,0.3,1.1,0.6,1.3,1.2c-0.3-0.1-0.5,0-0.9,0c0.4-0.1-0.2-0.4-0.1-0.7c0,0.1-0.2,0.1-0.3,0.1l0.4,0.5c-0.3,0-0.2,0.1-0.4,0.2
			c0.6-0.1,0.4,0.4,0.6,0.6c-0.2,0-0.4,0-0.4-0.3c-0.5,0.3,0.7,0.3,0.3,0.6c0-0.1,0-0.1-0.1-0.1c0.2,0.1,0,0.5-0.1,0.4l0-0.1
			c-0.1,0.4,0,1.2,0.5,1.3c-0.1,0-0.6-0.1-0.7-0.1l1.7,0.7c-0.4-0.1-1.5,0.2-1.7-0.2c-0.1,0.1-0.1,0.2,0,0.4
			c0.1-0.1,0.6-0.2,0.7-0.1c-0.5,0.2-0.3,0.2-0.7,0.5c0.1-0.1,0.8,0,0.8,0.2c-0.1,0-0.7,0-0.8,0l0.7,0.4c-0.1-0.1-0.6,0-0.8,0.1
			c0.1,0,0,0.3,0.1,0.4l0.2-0.2c-0.1,0.4,1,0.4,0.9,0.8c-0.1-0.1-0.9-0.1-1,0.1c0.3,0.1,1.7,0.4,1.9,0.8L57,61.1l0.2,0.3
			c-0.5-0.2-1.6-0.7-2.1-1c-0.2,0.2-0.2,0-0.2,0.3c-0.2,0.1-0.3-0.1-0.3-0.2L54.6,61c0.4,0,0.4,0.4,0.7,0.4l-0.4-0.6
			c0.4,0,1.2,0.4,1.1,0.7c-0.2,0.1-0.7-0.1-0.9-0.1c0.1,0.1,0.3,0.4,0.2,0.4l-0.2-0.2c-0.2,0.2,0.5,0.4,0.2,0.6
			c0,0.1-0.5,0.3-0.3,0.3c0.5-0.1,1.9-0.2,2.3-0.1c0,0-0.4,0.5-0.7,0.6c-0.4,0.2-0.9-0.2-1.2-0.1c0.1,0,0.2,0.1,0.3,0.1
			c-0.1,0.1-0.3,0-0.3,0.2c0.4,0,0,0.4,0.3,0.1c0.1,0.2-0.1,0.2-0.1,0.5c0.3-0.1,0.9,0.2,1,0.4c-0.1,0-0.2,0-0.3,0.1
			c0,0.4-0.2,0.6-0.2,1c-0.1,0-0.2,0.2-0.4,0.1c0.1,0.1,0.2,0.1,0.2,0.2c-0.4,0.2-0.1-0.3-0.5-0.1c0.2,0,0.3,0.3,0.5,0.5
			c0.4-0.1,0.1-0.4-0.1-0.6c0.5,0,1,0.3,1.3,0.7c0.1,0.3-0.3,0.1-0.3,0.2c-0.1,0.6,0.9,0.5,0.5,1c-0.3,0.2-0.6,0-0.9,0.1
			c-0.1-0.3,0.2-0.4,0.2-0.6l-0.2,0.2c-0.1-0.1-0.2-0.3-0.1-0.4c-0.3,0.2-0.1,1-0.3,1.5c0.1,0.1,0.2,0.2,0.4,0.2l0-0.1
			c0.3-0.1,0.4,0.3,0.5,0.1c0.2,0.2,0.5,0.4,0.3,0.7l-0.4,0.1c0.1,0,0.2-0.2,0.1-0.3c0.2,0.1-0.5,0.4,0,0.6l0.3-0.2
			c0.2,0.2,0.6,0.4,0.5,0.7c0.4-0.1,0-0.1,0.4-0.2c-0.5,0.2,0-0.6-0.5-0.4c0.5-0.2,0.2-0.3,0.6-0.6c-0.1,0-0.2,0.1-0.2-0.1
			c0,0-0.1,0-0.1,0c0,0,0,0,0,0c0,0,0,0,0,0c0,0,0,0,0,0c-0.1,0-0.1,0.1-0.2,0.1c-0.3-0.1-0.3-0.4-0.4-0.5c0.1-0.1,0.1,0.1,0.3,0
			l-0.2-0.2c0.3,0,0.5-0.3,0.6,0l0-0.3c0.2-0.2,0.2-0.4,0.1-0.5c0.1-0.1-0.3-0.3-0.1-0.2l-0.2-0.4l0.1,0c0-0.4-0.5-0.8,0-1.3
			c-0.1-0.1-0.2-0.3-0.1-0.5l0.2,0c-0.1-0.2,0.2-0.5,0-0.6c0.6-0.2,0.1-0.9,0.3-1.2L58,63c0-0.2-0.1-0.4-0.2-0.7l-0.3,0
			c-0.2-0.2,0.2-0.6,0.2-0.9c0.1,0,0.1,0.1,0,0.2c0.6-0.4-0.4-0.9,0-1.3c-0.1-0.1-0.1-0.2,0-0.2c0,0,0,0,0,0c0,0,0,0,0,0
			c0,0,0.1-0.1,0.1-0.1c-0.1,0-0.1,0.1-0.1,0.1c0-0.1,0-0.2-0.1-0.3l0.3,0c0,0,0,0,0,0c0.1-0.1-0.1-0.1-0.4,0c0-0.1-0.1-0.1-0.2-0.1
			c0.5-0.1-0.2-0.3,0.3-0.4c-0.2-0.1-0.2-0.6-0.7-0.6c0.1,0,0.1,0,0.1,0c0.1-0.1,0.1-0.2,0-0.4l0.4-0.1L57,57.8
			c0.2-0.2,0.4-0.2,0.6-0.1c-0.4-0.4-0.2-0.3-0.6-0.7l0.2,0c0-0.1-0.3-0.3-0.1-0.4c0.4-0.2,0.2-1,0.3-1.7l1,1.7l3.5-2l-1.2-2.1
			l-2.9,1.7c-0.1-0.3,0.3-0.5-0.2-0.7c0.2,0,0.2,0.1,0.3,0c0,0-0.1-0.1,0-0.1c0.1,0,0.1,0.1,0.2,0.1c0-0.4-0.5-0.4-1-0.4
			c0.2-0.2,0.2-0.3-0.1-0.4c0.2-0.1,0.3-0.2,0.4,0.1c0-0.1,0.2-0.8-0.2-0.8c0.1,0,0-0.2,0-0.2c0-0.3,0.1-0.3,0-0.6l-0.1,0.1
			C56.7,51.1,57,51,57,50.8l0,0c0.3-0.5-0.2-0.2,0.2-0.7l-0.3,0c-0.6,0,0.4-0.4,0.1-0.7l-0.2,0.1c-0.2-0.2,0.9-0.4,0.9-0.6
			c0.1,0,0.1,0.1,0.1,0.1c0.4-0.4-0.4-0.1-0.5-0.4c0.2-0.1,0.5,0.1,0.6-0.1c0.2-0.1-0.7-0.6-0.3-0.9c-0.2,0.1-0.3,0.1-0.4,0
			c-0.1-0.2,0.6-0.6,0.1-0.8c0,0,0.1,0,0.1,0c-0.1-0.2-0.2-0.6-0.5-0.7c1-0.2-0.5-1.1,0.4-1.1l0-0.5l0.1,0c0.1-0.3-0.2-0.5-0.4-0.6
			c0.1-0.1,0.1,0,0.2,0c0.2-0.5,0.1-0.5-0.3-1l0.3,0c-0.2-0.1,0.5-0.7,0.1-1.2c0,0,0.1,0,0.1,0.1c-0.4-0.5,0.8-1.3-0.3-1.5l-0.3-0.4
			c-0.1,0.5-0.5-0.1-0.7,0.1c-0.1-0.2,0.3-0.5,0.4-0.2l-0.1,0c0.6,0.1,0.2-0.6,0.6-0.6c0-0.9,0.3-1.8,0.3-2.6l-0.4,0.1l0-0.3
			c0.1-0.1,0.3-0.1,0.3,0.1c0.3-0.1-0.2-0.4-0.3-0.4c0.2-0.4,0.5,0.2,0.5,0l0-0.2l-0.1,0c-0.2-0.1-0.4-0.2-0.4-0.4
			c0.1-0.2,0.3-0.1,0.3-0.1c0,0,0,0,0-0.1l0-0.4l-0.4,0.1c-0.2-0.2,0-0.4-0.4-0.2c0.6-0.3,0.2-1.4,0.4-1.6c-0.3-0.2-0.3-0.5-0.2-0.7
			c-0.1,0.1-0.5,0.1-0.4-0.1c0.8,0.1,0.4-0.4,0.9-0.6c-0.4,0.2-0.1-0.7-0.6-0.4c0.1-0.2,0.3,0,0.5-0.2c-0.3-0.5,0.2-1.1,0.1-1.7
			c-0.1,0-0.3,0.1-0.4,0l0.5-0.3c-0.1-0.1-0.6-0.1-0.2-0.3c-0.1,0-0.2,0.1-0.3,0c0.5-1.2-0.4-2.4,0.6-3.6c-0.2,0.2-0.2,0.1-0.2-0.1
			c0,0.1-0.3,0-0.4,0l0.4-0.5c-0.1,0-0.1,0-0.1-0.1l1.5-0.5c0.1,0,0.2,0,0.3,0c0.5-0.2,1-0.4,1.5-0.6l0.9-0.3c2.1-0.6,4.6-1.2,6.9-2
			c0-0.1-0.1-0.1-0.2-0.1l1.1-0.4l1.1,0c0.3-0.1,0.4-0.4,0.7-0.5l0.9-0.3c0.1,0,0.1,0,0.2,0c0,0-0.1,0-0.1,0l5-1.6
			c0,0.1,0.1,0.2,0.3,0.3c-0.1,0.1-0.2,0-0.3,0c0.3,0.1,0.3,0.2,0.2,0.4l-0.1,0c0.1,0.6-0.1,0.8-0.2,1.5l0.3-0.1
			c0,0.1-0.1,0.2-0.2,0.3c0.4,0.1,0-0.4,0.5-0.3c-0.6,0.2,0.1,1-0.6,1.2c0,0.2,0.3-0.1,0.3,0.1l-0.2,0.1l0.2,0
			c0,0.1-0.2,0.2-0.4,0.3c0,0-0.1-0.1-0.1-0.1c-0.2,0.2,0.1,0.5,0.1,0.6l0.1-0.2c0.2,0.6,0.1,1.3,0.5,1.8l0.1-0.1
			c0.3,0.4-0.1,0.4,0.1,0.8l0,0c0.1,0.1,0.2,0.2,0.2,0.3c-0.2-0.1-0.3,0.3-0.5,0.1c0.3,0.4,0.2,0.2,0.8,0.5L78.2,26
			c0.2,0.1,0.3,0.1,0.4,0.3c-0.2-0.2-0.3,0.2-0.6,0c-0.4,0.6,0.6,0.7-0.1,1c0.6,0.2,0.3-0.5,0.4-0.4c0.2-0.1,0.5,0.1,0.4,0.3
			c0,0.2-0.8,0.4-0.7,0.8c0,0,0,0-0.1-0.1c-0.1,0.2,0.2,0.3,0,0.5c0.4,0.1,0,0.2,0.5,0.2l-0.1-0.4c0.1,0.2,0.7,0.3,0.5,0.7
			c-0.1,0-0.2-0.1-0.3-0.2c-0.1,0.1,0.1,0.2,0,0.3c-0.5,0-0.2-0.4-0.5-0.6c-0.2,0.1,0.4,0.4-0.1,0.3c0.7,0.1,0,0.4,0.5,0.6l-0.3,0
			c0,0,0.2,0.1,0.2,0.2l-0.4-0.1c0.3,0.2-0.2,0.5,0,0.6c-0.1-0.4,0.3-0.1,0.5-0.3c0.4,0.5-0.7,0.4-0.5,1c0-0.1,0.1-0.3,0.3-0.2
			c0,0.1-0.1,0.3-0.3,0.4c0.1,0.4,0.3-0.1,0.5,0.1c-0.3,0.2,0.2,0.2,0.3,0.3l-0.3,0c-0.1,0.5,0.6,0.1,0.4,0.5l-0.4-0.1l0.1,0.2
			l-0.3,0c0.3,0.2,0.2,0.3,0.1,0.5c0.2-0.1,0.5,0,0.6,0.2c-0.2,0.2-0.3,0-0.2,0.2c-0.2,0-0.4-0.1-0.2-0.2c-0.1,0-0.2,0-0.3,0
			c-0.2,0.2,0,0.4,0,0.5c0,0,0-0.1,0.1-0.1l0.4,0.4c-0.1,0.1-0.2,0-0.3,0c0,0.1,0.2,0.1,0.2,0.2c-0.2,0-0.5,0-0.6-0.1l0.3,0.4
			c-0.1,0-0.3,0.2-0.4,0.2c-0.1,0.2,0.5,0.5,0.4,0.8c0,0,0.1,0,0.1,0.1c0,0.3-0.3,0.6,0.1,0.9L78.1,36c0.1,0.2,0.5-0.3,0.7,0.1
			c0.2,0.3-0.3,0.2-0.5,0.3c0.2,0.1,0.7,0.3,0.4,0.7c-0.1-0.1,0-0.2-0.1-0.2l-0.2,0.2c-0.4-0.2-0.3-0.4-0.6-0.2
			c0.8-0.1,0.2,0.8,1,0.8l-0.2,0.2c0,0,0,0,0-0.1c-0.4,0.3,0.6,0.1,0.5,0.5c0,0.1-0.2,0.2-0.3,0.2l0.2,0.3c0,0.1-0.2,0.1-0.1,0
			l0.1,0.4l0,0c0.1,0,0.3,0.2,0.4,0.2c-0.1,0.1-0.1,0-0.2,0l0.2,0.2c-0.2,0.1-0.4-0.1-0.4-0.2c-0.8,0.3,0.2,0.2-0.2,0.7l-0.1-0.2
			c-0.4,0.2-0.3,0.3-0.5,0.6c0.1-0.1,0.7-0.6,0.9-0.3c-0.1,0.1-0.1,0.2,0.1,0.3c-0.3,0-0.2,0.2-0.2,0.3l-0.4,0
			c0.1,0.2,0.3,0.1,0.5,0.2c0,0.2-0.3,0.3-0.6,0.3c0,0.3,0.5-0.3,0.6,0.1c-0.1,0.3,0.1,0.4,0.3,0.7c-0.1,0.2-0.2,0-0.3,0.1l0.3,0.1
			c0,0-0.1,0-0.1,0c0.1,0.1,0.4,0,0.5,0.2c0.4,0-0.6,0.5-0.1,0.7c-0.1,0.1-0.2,0-0.4,0c0.4,0.3,0.3,0.3,0.7,0.5L80,44
			c0.3-0.2,0.6,0,0.9,0.2c0.1-0.1,0.2-0.2,0.3-0.2l0.2,0.3c-0.1,0-0.2,0-0.4,0c0,0,0.1,0,0.1,0.1c-0.1,0.1-0.4,0.1-0.6,0
			c0.1,0,0.1-0.1,0.2-0.1c-0.2-0.1-0.5-0.1-0.7-0.1c0,0,0.1,0.1,0.1,0.1c-0.1,0-0.1,0-0.2,0c0,0,0,0,0.2,0.1l-0.4,0.1l0.2,0
			l-0.2,0.5c0.5,0.3,1.1,0.5,1.4,1c-0.3-0.1-0.5,0-0.9,0.1c0.4-0.2-0.2-0.4-0.2-0.6c0,0.1-0.2,0.1-0.3,0.1l0.4,0.4
			c-0.3,0-0.2,0.1-0.3,0.3c0.6-0.2,0.4,0.3,0.6,0.5c-0.2,0-0.4,0-0.4-0.2c-0.4,0.3,0.7,0.3,0.4,0.5c0-0.1,0-0.1-0.1-0.1
			c0.2,0.1,0.1,0.4-0.1,0.4l0-0.1c0,0.4,0.1,1.1,0.6,1.1c-0.1,0-0.6,0-0.7,0l1.8,0.5c-0.4,0-1.5,0.3-1.8,0c-0.1,0.1-0.1,0.2,0.1,0.4
			c0.1-0.1,0.6-0.2,0.7-0.1c-0.5,0.3-0.2,0.2-0.6,0.5c0.1-0.1,0.8-0.1,0.8,0.1c-0.1,0-0.7,0.1-0.8,0l0.7,0.3c-0.1-0.1-0.6,0-0.8,0.1
			c0.1,0,0,0.2,0.1,0.3l-0.2,0l-0.1,0.4c0,0-0.1,0-0.1,0c-0.1,0.1,0,0.1,0.1,0.1l-0.4,1.8l1,0.2c0.1,0.1,0.2,0.2,0,0.3
			c0,0.1-0.5,0.3-0.3,0.3c0.4-0.2,1.9-0.4,2.2-0.3c0,0-0.4,0.5-0.6,0.6c-0.3,0.2-0.9-0.1-1.2,0c0.1,0,0.3,0.1,0.3,0.1
			c-0.1,0.1-0.3,0-0.3,0.2c0.4,0,0,0.4,0.4,0.1c0.1,0.2-0.1,0.2,0,0.4c0.3-0.1,0.9,0.1,1.1,0.3c-0.1,0-0.2,0.1-0.3,0.1
			c0,0.4-0.2,0.6-0.1,1c-0.1,0-0.2,0.2-0.4,0.2c0.1,0,0.2,0.1,0.2,0.2c-0.3,0.3-0.1-0.2-0.5,0c0.2,0,0.4,0.3,0.5,0.4
			c0.4-0.1,0-0.4-0.1-0.5c0.5-0.1,1.1,0.2,1.3,0.5c0.2,0.3-0.3,0.2-0.2,0.2c0,0.6,0.9,0.4,0.6,0.9c-0.3,0.2-0.6,0.1-0.9,0.1
			c-0.1-0.2,0.2-0.4,0.1-0.6l-0.1,0.2c-0.1-0.1-0.2-0.2-0.1-0.3c-0.3,0.2,0,1-0.2,1.4c0.1,0.1,0.2,0.2,0.4,0.1l-0.1-0.1
			c0.2-0.2,0.4,0.2,0.5,0c0.2,0.2,0.5,0.3,0.4,0.6l-0.4,0.1c0.1,0,0.2-0.2,0.1-0.3c0.2,0.1-0.5,0.5,0,0.5l0.2-0.2
			c0.2,0.2,0.6,0.4,0.5,0.6c0.4-0.1,0,0,0.4-0.3c-0.5,0.2,0-0.6-0.6-0.3c0.5-0.2,0.2-0.3,0.6-0.6c-0.1,0-0.2,0.1-0.2-0.1
			c0,0-0.1,0-0.1,0c0,0,0,0,0,0c0,0,0,0,0,0c0,0,0,0,0,0c0,0.1-0.1,0.1-0.2,0.1c-0.3-0.1-0.3-0.4-0.5-0.5c0-0.1,0.1,0,0.3,0
			l-0.2-0.1c0.3,0,0.4-0.4,0.6-0.1l0-0.2c0.1-0.2,0.2-0.4,0-0.5c0-0.1-0.3-0.3-0.1-0.2L83.8,57l0.1,0c0-0.4-0.5-0.7-0.1-1.2
			c-0.1-0.1-0.2-0.2-0.1-0.5l0.2-0.1c-0.1-0.2,0.2-0.5-0.1-0.6c0.6-0.2,0.1-0.8,0.1-1.1l-0.3,0c0-0.2-0.1-0.4-0.3-0.6l-0.3,0
			c-0.2-0.2,0.1-0.5,0.1-0.8l0.1-0.1c0,0,0,0.1,0,0.1c0.1-0.1,0.2-0.2,0.2-0.3l0.6-0.6l-0.7-0.6c0,0,0,0,0,0c0,0,0,0,0,0l-0.2-0.2
			l0.3-0.1c0,0,0,0,0,0c0.1-0.1-0.1-0.1-0.3,0l-0.2-0.1c0.4-0.1-0.2-0.2,0.3-0.4c-0.3,0-0.2-0.5-0.8-0.5c0.1,0,0.1,0,0.1,0
			c0-0.1,0.1-0.2-0.1-0.3l0.4-0.1l-0.5-0.2c0.2-0.2,0.3-0.3,0.6-0.1c-0.5-0.3-0.2-0.3-0.7-0.6l0.2,0c0-0.1-0.4-0.3-0.2-0.3
			c0.4-0.3-0.1-1.3,0.3-2c-0.7,0.2,0.3-0.3-0.3-0.3c0.2-0.1,0.2-0.2,0.4-0.1c-0.2-0.3,0.2-0.5-0.3-0.7c0.2-0.1,0.3,0,0.3,0
			c0,0-0.2-0.1-0.1-0.1c0.1,0,0.1,0,0.2,0.1c-0.1-0.3-0.6-0.3-1.1-0.3c0.2-0.2,0.2-0.3-0.2-0.4c0.2-0.1,0.3-0.2,0.4,0
			c0-0.1,0.2-0.7-0.2-0.7c0.1,0,0-0.2,0-0.2c0-0.3,0-0.3,0-0.6l-0.1,0.1c-0.5-0.1-0.1-0.2-0.2-0.4l0,0c0.3-0.5-0.2-0.2,0.2-0.7
			l-0.3,0.1c-0.6,0,0.3-0.5,0.1-0.7L81.2,41c-0.2-0.1,0.8-0.5,0.9-0.7c0.1,0,0.1,0,0.1,0.1c0.3-0.4-0.4,0-0.5-0.3
			c0.2-0.1,0.5,0,0.5-0.2c0.2-0.1-0.7-0.5-0.4-0.8c-0.2,0.1-0.3,0.2-0.4,0c-0.1-0.2,0.5-0.6,0-0.8c0,0,0.1,0,0.1-0.1
			c-0.1-0.1-0.3-0.5-0.5-0.6c1-0.3-0.6-0.9,0.3-1l-0.1-0.5l0.1,0c0-0.3-0.2-0.4-0.4-0.5c0.1-0.1,0.1,0,0.2,0
			c0.1-0.5,0.1-0.5-0.4-0.9l0.3-0.1c-0.2-0.1,0.4-0.7,0-1.1c0,0,0.1,0,0.1,0c-0.4-0.5,0.7-1.3-0.4-1.4l-0.3-0.3c0,0.4-0.5,0-0.6,0.2
			c-0.1-0.2,0.3-0.5,0.4-0.3l-0.1,0c0.6,0,0.1-0.6,0.5-0.6c-0.1-0.9,0.1-1.7,0-2.5l-0.4,0.1l0-0.3c0.1-0.1,0.3-0.1,0.3,0.1
			c0.2-0.1-0.2-0.3-0.3-0.3c0.1-0.4,0.5,0.1,0.5,0l0-0.2l0,0c-0.2-0.1-0.4-0.1-0.4-0.3c0.1-0.2,0.3-0.1,0.3-0.2c0,0,0,0,0-0.1l0-0.4
			l-0.3,0.2c-0.2-0.1,0-0.3-0.4-0.1c0.6-0.3,0.1-1.3,0.3-1.5c-0.3-0.2-0.3-0.4-0.3-0.7c-0.1,0.1-0.5,0.2-0.4-0.1
			c0.8,0,0.3-0.5,0.9-0.7c-0.4,0.2-0.2-0.6-0.7-0.3c0-0.2,0.3,0,0.5-0.2c-0.4-0.4,0.1-1-0.1-1.6c-0.1,0-0.3,0.1-0.4,0l0.5-0.4
			c-0.1-0.1-0.6,0-0.3-0.3c-0.1,0-0.2,0.1-0.3,0c0.4-1-0.4-2,0-3.1l8.9,2.8c1.1,0.4,2.2,0.9,3.3,1.4c-0.8-0.5-0.2-0.3,0.5-0.1
			C92,22.7,92,22.6,92,22.6l2.2,0.7l0.7,0.3c0.1,0,0.2,0,0.3,0l3.1,1c0.1,0.3,0.2,0.2,0.3,0.1l0.2,0.1l0.1,0.4l0.2,0l1.9,9.5l0,0
			c0,0.1,0,0.1,0,0.2l2.2,11.4l-0.4-1.1l0.5,1.3l0.7,3.7c0-0.1-0.1-0.2-0.2-0.4c0.1,0.2,0.1,0.3,0.2,0.5l2.3,11.6c0,0,0-0.1,0-0.1
			c0.5,2.2-0.3-0.6-0.1,1c-0.1-0.4-0.2-0.8-0.3-1.2c0,0.4,0.1,0.8,0.1,1.2c0,0,0,0,0-0.1l0,0c0,0,0,0,0,0c0-0.1,0-0.1,0,0
			c0,0,0,0,0,0c0,0,0.1,0,0.1,0.1c0.1,0.7,0,0.1-0.1-0.1c0,0,0,0,0,0c0,0,0,0,0,0l0.6,2.2c-0.1-0.5-0.2-1.1-0.4-2.1
			c0.2,0.2,0.4,0.6,0.5,0.8l0.7,3.3c-0.1,0.2-0.2,0.4-0.2,0.7c0.1,0,0.2,0,0.5,1l1.1,5.7c0-0.1-0.1-0.2-0.1-0.3
			c-0.1-0.2-0.1-0.3-0.2-0.5c-0.2-0.7-0.4-1.4-0.5-2.1c-0.2,0.7,0.1,0.3-0.1,1.4c0.2-0.5,0.4,0.4,0.5,1.3c0,0.1,0,0.2,0.1,0.3
			c0,0,0,0.1,0,0.1c0,0.1,0,0.1,0.1,0.2c0,0.1,0.1,0.1,0.2,0c-0.2,0.2-0.2,0.3-0.2,0.4c0,0.1,0,0.3-0.3,0.2c0.1,0.1,0.2,0.2,0.3,0.4
			c0,0-0.1,0-0.1-0.1c0,0,0,0.1,0,0.1c0,0,0,0,0,0c0,0,0,0,0,0c0,0,0,0,0,0c0.2,0.1,0.3,0.2,0.4,0.4c0.1,0.2-0.2,0.2-0.5,0.1
			c0,0,0,0,0,0l-0.8-0.3c0,0,0.1-0.1,0-0.1c-0.1,0-0.2,0-0.3,0l0,0l-0.4-0.1c-0.3-0.3-1.4-0.9,0.1-0.5l-1.4-0.6
			c-0.8-0.5-1.9-1-2.7-1.1c-0.7-0.3-1.8-0.4-1.2-0.3l-2.3-0.7l0-0.1c-2.2-0.9-4.7-1.3-7.1-2.7c-0.8-0.2-1.6-0.4-2.8-1l-0.2-0.3
			c-1-0.3-2.8-1.3-3.3-1.2c-0.1-0.2-0.4-0.3-0.7-0.5c-0.1,0-0.1-0.1-0.2-0.1c-0.2-0.1-0.3-0.1-0.5-0.2c-0.1,0-0.2-0.1-0.3-0.1l0.1,0
			c-0.1-0.2-0.3-0.5-0.2-0.7c-0.4,0.2,0.1,0.4,0,0.6l0,0c-0.2-0.1-0.4-0.2-0.6-0.2C83.1,66.1,82.8,66.2,82.4,66.4z M30.9,39.7
			c-0.1-0.1-0.2-0.2-0.1-0.2C31.2,39.6,31,39.6,30.9,39.7z M31.1,44.6c-0.1-0.1,0-0.1,0.1-0.2C31.2,44.4,31.2,44.5,31.1,44.6z
			 M31.7,58.2C31.7,58.2,31.7,58.2,31.7,58.2C31.9,58.1,31.8,58.1,31.7,58.2z M34.7,28L34.7,28C34.5,27.9,34.6,27.9,34.7,28z
			 M55.1,48.2C55,48.1,54.8,48,55,48C55.3,48,55.2,48.1,55.1,48.2z M55.8,53.3c-0.1,0,0-0.1,0.1-0.2C55.8,53.2,55.8,53.2,55.8,53.3z
			 M57.8,67.6C57.9,67.4,57.9,67.5,57.8,67.6C57.8,67.6,57.8,67.6,57.8,67.6z M57.4,54.3c0.1,0,0.2-0.1,0.4-0.1l-0.2,0.1
			C57.5,54.3,57.5,54.3,57.4,54.3z M57.6,35.4L57.6,35.4C57.4,35.4,57.5,35.4,57.6,35.4z M79.2,40c-0.1-0.1-0.3-0.2-0.1-0.2
			C79.4,39.8,79.3,39.9,79.2,40z M80.4,44.7c-0.1,0-0.1-0.1,0-0.2C80.5,44.6,80.5,44.6,80.4,44.7z M80.4,50.4l0.1-0.1
			c0,0.1,0,0.1,0,0.2L80.4,50.4z M83.8,57.9C83.9,57.7,83.9,57.8,83.8,57.9C83.8,57.9,83.8,57.9,83.8,57.9z M80.4,27.7L80.4,27.7
			C80.3,27.7,80.3,27.7,80.4,27.7z"/>
		<path class="st2" d="M101.7,42.3c0,0.1,0,0.1,0,0.2c0,0.2,0.1,0.4,0.1,0.7C101.9,42.9,102.1,44,101.7,42.3z"/>
		<path class="st2" d="M101.7,42.4C101.5,41.7,101.6,43,101.7,42.4L101.7,42.4z"/>
		<path class="st2" d="M102,45.7c0.3,1,0.3,0.8,0.4,0.2l-0.3-1C102,45.2,102.2,46,102,45.7z"/>
		<path class="st2" d="M102.9,46.8l-0.2-0.5C102.7,46.4,102.7,46.5,102.9,46.8z"/>
		<path class="st2" d="M102.4,45.2l0.3,1.1c0-0.2,0.2-0.2-0.1-0.5C102.8,45.8,102.6,45.6,102.4,45.2z"/>
		<path class="st2" d="M102.6,44.2c-0.4-1.9-0.7-1.5-0.2,0.3C102.3,44,102.3,43.3,102.6,44.2z"/>
		<path class="st2" d="M103.7,51.6l-0.2-0.7c0,0.4,0.1,1.1,0,1.2C103.5,52.1,103.6,51.7,103.7,51.6z"/>
		<path class="st2" d="M103.7,51.6l0.4,1.1C103.9,51.7,103.8,51.5,103.7,51.6z"/>
		<polygon class="st2" points="103.9,55.7 104.4,56.7 104.2,56.2 		"/>
		<path class="st2" d="M104.4,59.2c0.2,0.7,0.5,1.4,0.7,1.9c-0.2-0.6-0.3-1.3-0.3-2.1C104.5,58.6,104.6,59.7,104.4,59.2z"/>
		<path class="st2" d="M105.1,61.1c0.1,0.3,0.2,0.6,0.4,0.9C105.4,61.7,105.3,61.4,105.1,61.1z"/>
		<path class="st2" d="M104.3,55.4l0.2-0.5c0-0.1-0.1-0.3-0.1-0.4C104.4,54.6,104.2,54.8,104.3,55.4z"/>
		<path class="st2" d="M104.5,54.9L104.5,54.9c0.1,0.5,0.1,0.8,0.2,0.9C104.6,55.8,104.6,55.5,104.5,54.9z"/>
		<path class="st2" d="M104.4,54.4c0,0,0,0.1,0,0.1C104.4,54.5,104.4,54.4,104.4,54.4z"/>
		<path class="st2" d="M104.4,52.6c-0.1,0-0.1,0.3-0.3,0l0.4,1.2L104.4,52.6z"/>
		<polygon class="st2" points="104.8,54.4 104.6,53.8 104.6,54.2 		"/>
		<path class="st2" d="M105.4,60c0.2,0.5,0.3,1,0.5,1.6c-0.1-0.7-0.2-1.4-0.3-2C105.4,59.6,105.2,59.3,105.4,60z"/>
		<path class="st2" d="M105,57.5c0,0,0,0.1,0,0.1C105,57.6,105,57.5,105,57.5z"/>
		<path class="st2" d="M107,67.7c0,0,0-0.1,0-0.1c0,0,0,0,0,0L107,67.7z"/>
		<path class="st2" d="M105.5,59.5c0-0.5-0.2-0.8-0.3-1.1c0.1,0.4,0.2,0.8,0.3,1.2C105.6,59.7,105.6,59.7,105.5,59.5z"/>
		<path class="st2" d="M106,63.7c0-0.3,0-0.6,0-0.9C105.9,63.1,105.9,63.6,106,63.7z"/>
		<path class="st2" d="M105,57.8C104.9,57.8,104.9,57.8,105,57.8C104.9,57.9,104.9,57.9,105,57.8z"/>
		<path class="st2" d="M105,57.8c0.1,0.2,0.2,0.4,0.3,0.6c-0.1-0.3-0.2-0.6-0.2-0.8C105,57.7,105,57.8,105,57.8z"/>
		<path class="st2" d="M106.5,66.7c0.3,0.8,0.4,0.9,0.5,0.9l-0.4-2.3l0.1,0.2l-0.1-0.5C106.6,65.5,106.6,65.9,106.5,66.7z"/>
		<polygon class="st2" points="107,68 106.6,67.8 107.2,68.8 		"/>
		<polygon class="st2" points="107.5,70.9 107.5,70.4 107.2,70.3 		"/>
		<path class="st2" d="M3.6,63.5l0-0.6C3.6,63.2,3.6,63.4,3.6,63.5z"/>
		<path class="st2" d="M2.8,67.4l0.1,0.1C2.9,67.4,2.9,67.3,2.8,67.4z"/>
		<path class="st2" d="M59.6,75.1l0.3,0.2c0.5-0.2,0.9-0.4,1.3-0.4C60.4,74.9,59.5,74.9,59.6,75.1z"/>
		<path class="st2" d="M7.6,41.8l-0.1-0.7C7.3,42.2,7.5,41.7,7.6,41.8z"/>
		<path class="st2" d="M95.3,71c-0.6-0.3-1.1-0.6-1.6-0.8C94.5,70.7,95,71.1,95.3,71z"/>
		<path class="st2" d="M6.1,65.6c0-0.3,0-0.5-0.1-0.5C6,65.4,6,65.6,6.1,65.6z"/>
		<path class="st2" d="M91.8,69.5c0.1,0.1,0.2,0.1,0.3,0.2c0.5,0.1,1,0.3,1.6,0.5C93.2,69.9,92.5,69.6,91.8,69.5z"/>
		<path class="st2" d="M70.8,17.8c0.1,0,0.1,0,0.2,0C71,17.7,70.9,17.8,70.8,17.8z"/>
		<path class="st2" d="M92.2,22.7c0.2,0.1,0.4,0.2,0.9,0.3C92.9,23,92.5,22.8,92.2,22.7z"/>
		<path class="st2" d="M108,75.5C108.1,75.5,108,75.5,108,75.5L108,75.5z"/>
		<path class="st2" d="M108.3,75.8c-0.1-0.1-0.2-0.1-0.3-0.2C108.1,75.6,108.2,75.7,108.3,75.8z"/>
		<path class="st2" d="M108.1,75.6c0.1,0,0.1,0.1,0.2,0.1C108.3,75.6,108.2,75.6,108.1,75.6z"/>
		<path class="st2" d="M108,75.5c0,0-0.1,0-0.2-0.1C107.9,75.5,107.9,75.5,108,75.5C108,75.6,108,75.5,108,75.5z"/>
		<path class="st2" d="M48.6,76.7C48.7,76.7,48.7,76.7,48.6,76.7C48.7,76.7,48.7,76.7,48.6,76.7L48.6,76.7z"/>
		<path class="st2" d="M3.3,65.3l0-0.2C3.4,65.1,3.4,65.2,3.3,65.3z"/>
		<path class="st2" d="M7.6,42L7.6,42c0-0.1,0-0.1,0-0.1L7.6,42z"/>
		<path class="st2" d="M108.2,74.6c-0.1,0-0.2,0.1-0.2,0c0,0.1,0.1,0.2,0.1,0.3C108.1,74.7,108.2,74.7,108.2,74.6z"/>
		<path class="st2" d="M107.2,75.5c0,0,0.1,0.1,0.3,0.1c0.1,0.1,0-0.3,0.1-0.2c0-0.2-0.1-0.1-0.2,0
			C107.3,75.4,107.2,75.4,107.2,75.5z"/>
		<path class="st2" d="M62,77.4c-0.9,0.5-1.4,0.6-0.8,0.8c1.6-0.4,0.2-0.5,1.7-0.8C63.2,77.1,61.7,77.7,62,77.4z"/>
		<path class="st2" d="M62,77.4c0.1-0.1,0.3-0.2,0.4-0.3C62.2,77.3,62.1,77.3,62,77.4z"/>
		<polygon class="st2" points="97,24.5 96.7,24.5 97.6,24.9 		"/>
		<path class="st2" d="M0.6,76.5L0,78.2l0.1,0.1C0.3,77.9,0.4,77.4,0.6,76.5z"/>
		<polygon class="st2" points="3.5,62.1 3.4,62.4 3.9,62 		"/>
		<path class="st2" d="M5.4,50.3c-0.1,0.4-0.1,0.8-0.2,1.2C5.4,50.6,5.8,50.2,5.4,50.3z"/>
		<polygon class="st2" points="30.3,66.9 30.4,66.9 30.2,66.7 		"/>
		<path class="st2" d="M30.4,65.7c-0.4,0.1,0,0.4-0.1,0.6l-0.1,0l0.3,0.1C30.5,66.2,30.3,65.9,30.4,65.7z"/>
		<path class="st2" d="M31.4,65.3C31.4,65.3,31.4,65.3,31.4,65.3c0,0,0-0.1,0.1-0.1C31.3,65.2,31.3,65.1,31.4,65.3z"/>
		<path class="st2" d="M31.4,65.3C31.4,65.4,31.6,65.3,31.4,65.3L31.4,65.3z"/>
		<path class="st2" d="M31.4,64.7l0.1,0.2c0.1,0,0.1-0.2,0.2-0.1C31.6,64.6,31.5,64.7,31.4,64.7z"/>
		<path class="st2" d="M31.1,64.6L31.1,64.6C31.2,64.6,31.2,64.6,31.1,64.6z"/>
		<path class="st2" d="M31.2,64.7c-0.1,0,0,0,0.1,0.1L31.2,64.7C31.1,64.7,30.9,64.7,31.2,64.7z"/>
		<path class="st2" d="M30.9,64.9c0,0.3,0.3,0.3,0.3,0C31.1,65,31,65.1,30.9,64.9z"/>
		<path class="st2" d="M30,65.6l-0.1,0.1l0.1,0.1C29.9,65.8,30.1,65.6,30,65.6z"/>
		<path class="st2" d="M31.7,63.8c-0.1,0-0.2,0-0.4,0l0.1,0.1C31.5,63.9,31.6,63.8,31.7,63.8z"/>
		<path class="st2" d="M31.3,63.8l-0.1-0.2C31.2,63.8,31.2,63.8,31.3,63.8z"/>
		<polygon class="st2" points="30.6,64.4 30.6,64.5 30.9,64.8 		"/>
		<polygon class="st2" points="31.8,63.1 32,63.2 31.7,63 		"/>
		<path class="st2" d="M31.9,62.3c0.1,0.1,0,0.2-0.1,0.3c0.2,0.1,0.3-0.1,0.4,0C32.2,62.5,32,62.4,31.9,62.3z"/>
		<path class="st2" d="M31.7,62.1c0,0.1,0.1,0.1,0.2,0.2C31.9,62.2,31.8,62.2,31.7,62.1z"/>
		<path class="st2" d="M31.6,63.2l-0.3,0c0,0,0,0,0,0.1C31.3,63.3,31.5,63.3,31.6,63.2z"/>
		<path class="st2" d="M31.3,63.2L31.3,63.2c0-0.1,0-0.1,0-0.2C31.3,63.1,31.3,63.1,31.3,63.2z"/>
		<path class="st2" d="M31.3,63.3C31.3,63.3,31.3,63.3,31.3,63.3C31.2,63.3,31.2,63.3,31.3,63.3z"/>
		<path class="st2" d="M30.4,63.9c0.2,0.1,0.3,0,0.5,0.2C30.8,63.9,30.6,63.7,30.4,63.9z"/>
		<path class="st2" d="M31.1,63.6l-0.2-0.2l-0.1,0.2C30.9,63.6,31,63.5,31.1,63.6z"/>
		<polygon class="st2" points="30.9,63.3 30.9,63.4 31,63.3 		"/>
		<path class="st2" d="M31.5,62.4c-0.1-0.1-0.1-0.2-0.1-0.3c-0.1,0.1-0.1,0.2-0.1,0.3C31.3,62.5,31.5,62.5,31.5,62.4z"/>
		<path class="st2" d="M31.4,62.8C31.3,62.8,31.3,62.8,31.4,62.8C31.3,62.8,31.3,62.8,31.4,62.8z"/>
		<path class="st2" d="M31.5,61.1C31.4,61.1,31.4,61.1,31.5,61.1C31.4,61.1,31.4,61.1,31.5,61.1L31.5,61.1z"/>
		<path class="st2" d="M31.2,62.5c-0.1,0.1,0,0.1,0.1,0.2C31.2,62.6,31.2,62.5,31.2,62.5C31.2,62.4,31.2,62.4,31.2,62.5z"/>
		<path class="st2" d="M31.6,61.8c-0.1,0-0.1,0.1-0.2,0.1C31.6,61.9,31.7,61.8,31.6,61.8z"/>
		<path class="st2" d="M31.4,62.8C31.4,62.8,31.4,62.8,31.4,62.8C31.5,62.8,31.5,62.8,31.4,62.8z"/>
		<path class="st2" d="M31.4,62.8c0,0-0.1-0.1-0.1-0.1C31.3,62.7,31.3,62.7,31.4,62.8C31.4,62.8,31.4,62.8,31.4,62.8z"/>
		<path class="st2" d="M30,61.1c0.2,0.2,1,0.2,1.4,0.1c-0.1,0-0.2,0-0.3-0.2c-0.1,0.1-0.3,0.4-0.5,0.2c-0.1-0.3,0.1-0.2,0.2-0.3
			c-0.3,0.1-0.4-0.4-0.8-0.4l0.1,0.2c-0.1,0-0.2-0.1-0.2,0C30.1,60.7,30.3,60.9,30,61.1z"/>
		<path class="st2" d="M31.3,61.5L31.3,61.5c0.1,0,0.2-0.1,0.4-0.2c-0.1-0.1-0.2-0.2-0.3-0.2L31.3,61.5L31.3,61.5z"/>
		<path class="st2" d="M31.3,61.9c-0.3-0.1-0.3-0.3-0.6-0.2c0,0.2,0.2,0.2,0.3,0.3C31,61.7,31.1,62.2,31.3,61.9c0,0.1,0,0.1,0,0.2
			c0-0.1,0.1-0.1,0.1-0.2c0,0,0,0,0,0l0,0c0,0,0,0,0,0c0,0-0.1,0,0,0C31.4,62,31.4,61.9,31.3,61.9C31.4,61.9,31.4,61.9,31.3,61.9
			C31.4,61.8,31.4,61.9,31.3,61.9c0.1,0,0.1,0,0.1,0c0,0,0,0,0,0l-0.1-0.4C31.3,61.6,31.3,61.7,31.3,61.9z"/>
		<path class="st2" d="M29.8,63.6C29.9,63.6,29.9,63.6,29.8,63.6C29.9,63.6,29.9,63.6,29.8,63.6z"/>
		<path class="st2" d="M30.2,63.6c0.1-0.1,0.3-0.2,0.4-0.3c-0.2,0-0.4,0-0.6,0.1C30,63.5,30.1,63.5,30.2,63.6c-0.2,0.1-0.2,0-0.3,0
			C30,63.7,30.1,63.8,30.2,63.6L30.2,63.6z"/>
		<path class="st2" d="M30.6,63.4C30.6,63.4,30.6,63.4,30.6,63.4C30.7,63.4,30.6,63.4,30.6,63.4z"/>
		<path class="st2" d="M30.6,62.7l-0.1-0.3l-0.2,0.1l0.1,0C30.3,62.7,30.5,62.7,30.6,62.7z"/>
		<polygon class="st2" points="31.9,61.2 31.5,61 31.6,61.1 		"/>
		<polygon class="st2" points="31.7,60.6 31.6,60.7 31.8,60.7 		"/>
		<path class="st2" d="M31,38.1L31,38.1C30.9,38,31,38.1,31,38.1z"/>
		<path class="st2" d="M30.9,38.7l0.1,0C31,38.7,30.9,38.7,30.9,38.7z"/>
		<path class="st2" d="M32.9,50.8l-0.3,0c0,0.1,0,0.2-0.1,0.2C32.8,50.9,33.2,50.8,32.9,50.8z"/>
		<path class="st2" d="M31.9,44.3c0,0-0.1-0.1-0.2-0.1c0,0-0.1,0-0.1,0C31.7,44.2,31.8,44.3,31.9,44.3z"/>
		<path class="st2" d="M30.8,43.8c-0.1,0-0.1,0.1-0.2,0.2L30.8,43.8z"/>
		<path class="st2" d="M31.1,34.5l-0.3-0.1C30.8,34.5,30.9,34.5,31.1,34.5z"/>
		<path class="st2" d="M31.9,56.6c0.1-0.1,0.2-0.2,0.2-0.3C32,56.5,31.7,56.6,31.9,56.6z"/>
		<path class="st2" d="M33.7,38.6c0-0.1-0.1-0.1-0.2-0.1C33.6,38.6,33.7,38.6,33.7,38.6z"/>
		<path class="st2" d="M32.1,56.4c0.1-0.1,0.2-0.2,0-0.3c0,0,0,0-0.1,0.1C32.1,56.2,32.1,56.3,32.1,56.4z"/>
		<path class="st2" d="M32.6,21.7C32.7,21.7,32.7,21.7,32.6,21.7C32.6,21.7,32.6,21.7,32.6,21.7z"/>
		<path class="st2" d="M31.9,59.1C31.9,59.2,31.9,59.1,31.9,59.1L31.9,59.1z"/>
		<path class="st2" d="M30.7,59.4c0.1,0,0.1,0,0.1,0C30.8,59.4,30.7,59.4,30.7,59.4z"/>
		<path class="st2" d="M30.6,55.1C30.6,55,30.6,55,30.6,55.1C30.6,55.1,30.6,55.1,30.6,55.1z"/>
		<path class="st2" d="M31.8,59.2C31.8,59.2,31.8,59.2,31.8,59.2C31.8,59.2,31.8,59.2,31.8,59.2z"/>
		<path class="st2" d="M31.9,59.2C31.9,59.3,31.9,59.3,31.9,59.2C31.9,59.3,31.9,59.3,31.9,59.2z"/>
		<path class="st2" d="M31.9,59c0,0,0,0.1,0,0.1c0,0,0,0,0,0C31.9,59.1,31.9,59.1,31.9,59z"/>
		<path class="st2" d="M32.6,28.7C32.6,28.6,32.6,28.6,32.6,28.7C32.5,28.5,32.6,28.6,32.6,28.7z"/>
		<path class="st2" d="M30.1,48.5C30.1,48.5,30.1,48.5,30.1,48.5C30.1,48.5,30.1,48.5,30.1,48.5L30.1,48.5z"/>
		<path class="st2" d="M29.9,48.2c0.3,0.2,0.3,0.2,0.2,0.3l0.8,0L29.9,48.2z"/>
		<path class="st2" d="M30.8,44c0.1,0,0.1,0,0.2,0C30.9,44,30.8,43.9,30.8,44z"/>
		<path class="st2" d="M31.1,34.5C31.1,34.5,31.1,34.5,31.1,34.5C31.1,34.5,31.1,34.5,31.1,34.5L31.1,34.5z"/>
		<path class="st2" d="M29.6,53.8c0-0.1,0.1-0.1,0.2-0.1C29.7,53.7,29.6,53.7,29.6,53.8z"/>
		<path class="st2" d="M31.9,60l-0.1-0.2c0,0.1-0.1,0.1-0.1,0.2C31.8,60,31.9,60,31.9,60z"/>
		<path class="st2" d="M30,61.4C30,61.4,30,61.5,30,61.4l0.2,0.1C30.1,61.4,30,61.3,30,61.4z"/>
		<path class="st2" d="M30.8,60.3c0.3,0.1,0.2-0.1,0.1-0.2C30.7,60.1,30.8,60.2,30.8,60.3C30.8,60.3,30.8,60.3,30.8,60.3z"/>
		<path class="st2" d="M30.8,60.4c0,0,0,0.1,0,0.1C30.9,60.5,30.8,60.4,30.8,60.4z"/>
		<path class="st2" d="M31.7,58.8c-0.1,0.1,0.3,0.1,0.2,0.1C32.2,59,31.6,58.5,31.7,58.8z"/>
		<polygon class="st2" points="30.4,60.1 30.2,60 30.1,60.1 		"/>
		<path class="st2" d="M30.4,59.4c0-0.1,0.1-0.3,0-0.3L30.4,59.4C30.4,59.3,30.4,59.3,30.4,59.4z"/>
		<path class="st2" d="M30.5,59.5c0,0,0-0.1,0-0.2C30.4,59.4,30.4,59.5,30.5,59.5z"/>
		<polygon class="st2" points="30.2,59.6 30.1,59.8 30.1,59.8 		"/>
		<path class="st2" d="M30.7,56.9l-0.1-0.2c-0.1,0-0.2,0-0.1,0.1C30.6,56.9,30.6,57,30.7,56.9z"/>
		<path class="st2" d="M30.1,57.4l-0.4,0l0.1,0.1C29.9,57.5,30,57.5,30.1,57.4z"/>
		<path class="st2" d="M29.8,56.9c-0.1,0-0.3-0.4-0.3-0.1C29.6,56.8,29.7,57.1,29.8,56.9z"/>
		<polygon class="st2" points="30.6,53.6 30.6,53.6 31.3,53.7 		"/>
		<path class="st2" d="M29.6,50.8c0.1,0.1,0.2-0.2,0.3-0.1c-0.1-0.2,0-0.2-0.5-0.2C29.3,50.7,29.9,50.6,29.6,50.8z"/>
		<path class="st2" d="M29.9,50.7C30,50.7,30,50.7,29.9,50.7C30,50.7,30,50.7,29.9,50.7z"/>
		<path class="st2" d="M30.3,40l-0.2,0.1l0.1,0C30.3,40.1,30.3,40.1,30.3,40z"/>
		<polygon class="st2" points="30.6,37.8 30.6,37.9 31,37.8 		"/>
		<path class="st2" d="M30.4,35.8c0,0.1,0,0.1,0,0.2C30.4,35.9,30.8,35.9,30.4,35.8z"/>
		<path class="st2" d="M57.3,75.6c-0.4,0.1,0.1,0.4-0.1,0.7l-0.1,0l0.3,0.1C57.4,76.2,57.2,75.8,57.3,75.6z"/>
		<path class="st2" d="M58.2,75c-0.2,0-0.1-0.1-0.1,0.2c0,0,0,0,0,0C58.2,75.1,58.2,75,58.2,75z"/>
		<path class="st2" d="M58.2,75.1C58.2,75.2,58.4,75,58.2,75.1L58.2,75.1z"/>
		<path class="st2" d="M58.1,74.5l0.2,0.2c0.1,0,0.1-0.2,0.2-0.1C58.4,74.4,58.3,74.4,58.1,74.5z"/>
		<path class="st2" d="M57.8,74.3L57.8,74.3C57.9,74.4,57.9,74.4,57.8,74.3z"/>
		<path class="st2" d="M57.9,74.5c-0.1,0,0,0,0.1,0.1L57.9,74.5C57.8,74.5,57.7,74.5,57.9,74.5z"/>
		<path class="st2" d="M57.6,74.8c0.1,0.3,0.4,0.3,0.3,0C57.8,74.8,57.8,74.9,57.6,74.8z"/>
		<path class="st2" d="M56.8,75.6l-0.1,0.1l0.1,0.1C56.8,75.8,57,75.6,56.8,75.6z"/>
		<path class="st2" d="M58.3,73.4c-0.1,0-0.2,0.1-0.4,0.1l0.1,0.1C58.1,73.6,58.2,73.4,58.3,73.4z"/>
		<path class="st2" d="M58,73.5l-0.2-0.2C57.8,73.5,57.9,73.5,58,73.5z"/>
		<polygon class="st2" points="57.3,74.3 57.7,74.6 57.3,74.3 		"/>
		<polygon class="st2" points="58.4,72.7 58.6,72.8 58.2,72.6 		"/>
		<path class="st2" d="M58.4,71.9c0.1,0.1,0.1,0.2-0.1,0.4c0.2,0.1,0.3-0.1,0.4,0C58.7,72.1,58.5,72,58.4,71.9z"/>
		<path class="st2" d="M58.2,71.7c0,0.1,0.1,0.1,0.2,0.2C58.4,71.8,58.3,71.8,58.2,71.7z"/>
		<path class="st2" d="M58.1,72.8l-0.3,0.1c0,0,0,0,0,0.1C57.9,73,58.1,73,58.1,72.8z"/>
		<path class="st2" d="M57.9,72.9L57.9,72.9c0-0.1,0-0.1,0-0.2C57.9,72.8,57.9,72.8,57.9,72.9z"/>
		<path class="st2" d="M57.9,73C57.9,73,57.9,73,57.9,73C57.8,73,57.8,73,57.9,73z"/>
		<path class="st2" d="M57.6,73.8c-0.1-0.1-0.3-0.3-0.5-0.1C57.2,73.8,57.3,73.6,57.6,73.8z"/>
		<path class="st2" d="M57.5,73.1l-0.1,0.2c0.1,0,0.2,0,0.2,0L57.5,73.1z"/>
		<polygon class="st2" points="57.5,73 57.5,73.1 57.6,73 		"/>
		<path class="st2" d="M58,72c-0.1-0.1-0.1-0.2-0.1-0.3c-0.1,0.1-0.1,0.2-0.1,0.3C57.8,72.1,58,72.2,58,72z"/>
		<path class="st2" d="M57.9,72.5C57.9,72.5,57.9,72.5,57.9,72.5C57.9,72.5,57.8,72.5,57.9,72.5z"/>
		<path class="st2" d="M57.8,70.7C57.8,70.7,57.8,70.7,57.8,70.7C57.8,70.7,57.8,70.7,57.8,70.7L57.8,70.7z"/>
		<path class="st2" d="M57.7,72.1c-0.1,0.1,0,0.1,0.1,0.2C57.8,72.2,57.7,72.2,57.7,72.1C57.7,72.1,57.7,72.1,57.7,72.1z"/>
		<path class="st2" d="M58.1,71.4c-0.1,0-0.1,0.1-0.1,0.2C58,71.5,58.2,71.4,58.1,71.4z"/>
		<path class="st2" d="M57.9,72.4C58,72.4,58,72.4,57.9,72.4C58,72.4,58,72.4,57.9,72.4z"/>
		<path class="st2" d="M57.9,72.4c0,0-0.1-0.1-0.2-0.1C57.8,72.4,57.8,72.4,57.9,72.4C57.9,72.4,57.9,72.4,57.9,72.4z"/>
		<path class="st2" d="M56.4,70.8c0.2,0.2,1,0.1,1.4-0.1c-0.1,0-0.2,0-0.3-0.2c-0.1,0.1-0.3,0.4-0.5,0.3c-0.1-0.3,0.1-0.2,0.2-0.3
			c-0.3,0.1-0.4-0.3-0.9-0.3l0.2,0.2c-0.1,0-0.2-0.1-0.2,0C56.4,70.4,56.6,70.6,56.4,70.8z"/>
		<path class="st2" d="M57.8,71.1L57.8,71.1c0.1,0,0.2-0.1,0.4-0.2c-0.1-0.1-0.2-0.2-0.3-0.2L57.8,71.1L57.8,71.1z"/>
		<path class="st2" d="M57.8,71.5c-0.3-0.1-0.4-0.3-0.7-0.1c0,0.2,0.2,0.2,0.3,0.3C57.4,71.3,57.6,71.8,57.8,71.5c0,0.1,0,0.1,0,0.2
			c0-0.1,0.1-0.1,0.1-0.2c0,0,0,0,0,0l0,0c0,0,0,0,0,0c0,0-0.1,0,0,0c0,0,0,0,0,0C57.8,71.6,57.8,71.5,57.8,71.5
			c0.1-0.1,0.1,0,0.1,0c0,0,0,0,0,0c0,0,0,0,0,0l-0.1-0.4C57.7,71.3,57.8,71.4,57.8,71.5z"/>
		<path class="st2" d="M56.5,73.5C56.5,73.5,56.5,73.5,56.5,73.5C56.5,73.5,56.5,73.4,56.5,73.5z"/>
		<path class="st2" d="M57.2,73.2C57.2,73.1,57.2,73.1,57.2,73.2C57.3,73.1,57.2,73.1,57.2,73.2z"/>
		<path class="st2" d="M56.6,73.3c0,0,0.1,0.1,0.1,0.1c-0.1,0.1-0.1,0-0.2,0c0.1,0.1,0.2,0.2,0.3,0l0,0c0.1-0.1,0.3-0.3,0.4-0.3
			C57,73.2,56.8,73.2,56.6,73.3z"/>
		<path class="st2" d="M57.1,72.4L57,72.1l-0.2,0.2l0.1,0C56.9,72.4,57,72.4,57.1,72.4z"/>
		<polygon class="st2" points="58.2,70.7 57.8,70.5 58,70.7 		"/>
		<polygon class="st2" points="58,70.1 57.9,70.2 58.2,70.3 		"/>
		<path class="st2" d="M54.9,46.5L54.9,46.5C54.9,46.4,54.9,46.5,54.9,46.5z"/>
		<path class="st2" d="M54.9,47.2l0.1,0C55,47.2,54.9,47.2,54.9,47.2z"/>
		<path class="st2" d="M58.2,59.6l-0.3,0c0,0.1,0,0.2,0,0.2C58.1,59.8,58.5,59.6,58.2,59.6z"/>
		<path class="st2" d="M56.5,53c-0.1,0-0.1-0.1-0.2-0.1c0,0-0.1,0-0.1,0C56.3,52.9,56.4,52.9,56.5,53z"/>
		<path class="st2" d="M55.2,52.7l0.2-0.2C55.3,52.6,55.3,52.6,55.2,52.7z"/>
		<path class="st2" d="M54.7,42.7l-0.3-0.1C54.4,42.8,54.5,42.7,54.7,42.7z"/>
		<path class="st2" d="M57.8,65.9c0.1-0.1,0.1-0.2,0.2-0.3C57.8,65.8,57.6,65.9,57.8,65.9z"/>
		<path class="st2" d="M57.7,46.8c0-0.1-0.1-0.1-0.2-0.1C57.6,46.7,57.7,46.8,57.7,46.8z"/>
		<path class="st2" d="M58,65.6c0.1-0.1,0.2-0.2,0-0.3c0,0,0,0-0.1,0.1C58,65.4,58,65.5,58,65.6z"/>
		<path class="st2" d="M54.9,29.1C54.9,29.1,54.9,29.1,54.9,29.1C54.9,29.1,54.9,29.1,54.9,29.1z"/>
		<path class="st2" d="M57.5,25.1c0,0,0,0.1,0,0.2C57.6,25.3,57.6,25.2,57.5,25.1z"/>
		<path class="st2" d="M58,68.5C58.1,68.6,58.1,68.6,58,68.5L58,68.5z"/>
		<path class="st2" d="M56.9,68.9c0.1,0,0.1,0,0.1,0C57,69,56.9,68.9,56.9,68.9z"/>
		<path class="st2" d="M56.3,64.4C56.3,64.4,56.3,64.4,56.3,64.4C56.3,64.4,56.3,64.4,56.3,64.4z"/>
		<path class="st2" d="M57.9,68.7c0,0,0.1-0.1,0.1-0.1C58,68.6,57.9,68.6,57.9,68.7z"/>
		<path class="st2" d="M58,68.7C58,68.7,58,68.7,58,68.7C58.1,68.7,58.1,68.7,58,68.7z"/>
		<path class="st2" d="M58,68.4c0,0.1,0,0.1,0,0.1c0,0,0,0,0,0C58,68.5,58,68.5,58,68.4z"/>
		<path class="st2" d="M55.6,36.4C55.6,36.4,55.6,36.4,55.6,36.4C55.5,36.3,55.5,36.3,55.6,36.4z"/>
		<path class="st2" d="M55.2,57.6C55.2,57.6,55.2,57.6,55.2,57.6C55.2,57.6,55.2,57.6,55.2,57.6L55.2,57.6z"/>
		<path class="st2" d="M55,57.3c0.3,0.1,0.3,0.2,0.2,0.3l0.8-0.1L55,57.3z"/>
		<path class="st2" d="M55.4,52.7c0,0,0.1,0,0.2,0C55.5,52.7,55.4,52.7,55.4,52.7z"/>
		<path class="st2" d="M54.7,42.8C54.7,42.8,54.7,42.7,54.7,42.8C54.7,42.7,54.7,42.7,54.7,42.8L54.7,42.8z"/>
		<path class="st2" d="M55.2,63.2c0-0.1,0.1-0.1,0.2-0.1C55.3,63.1,55.2,63.1,55.2,63.2z"/>
		<path class="st2" d="M58.2,69.5l-0.1-0.2c0,0.1,0,0.1-0.1,0.2C58.1,69.4,58.2,69.4,58.2,69.5z"/>
		<path class="st2" d="M56.4,71.1C56.4,71.2,56.4,71.2,56.4,71.1l0.2,0.1C56.5,71.1,56.4,71,56.4,71.1z"/>
		<path class="st2" d="M57.1,69.9c0.3,0,0.2-0.1,0.1-0.2C56.9,69.7,57,69.8,57.1,69.9C57.1,69.9,57.1,69.9,57.1,69.9z"/>
		<path class="st2" d="M57.1,69.9c0,0,0,0.1,0,0.1C57.2,70.1,57.1,70,57.1,69.9z"/>
		<path class="st2" d="M57.8,68.2c-0.1,0.1,0.3,0,0.2,0.1C58.4,68.4,57.7,67.9,57.8,68.2z"/>
		<polygon class="st2" points="56.4,69.6 56.4,69.8 56.7,69.7 		"/>
		<path class="st2" d="M56.6,69c0-0.1,0.1-0.3,0-0.3l-0.1,0.2C56.6,68.9,56.6,68.9,56.6,69z"/>
		<path class="st2" d="M56.6,69c0,0.1,0,0.1,0.1,0.2C56.7,69.1,56.7,69,56.6,69z"/>
		<polygon class="st2" points="56.4,69.2 56.3,69.5 56.4,69.4 		"/>
		<path class="st2" d="M56.7,66.4l-0.1-0.2c-0.1,0-0.2,0-0.1,0.1C56.5,66.3,56.6,66.4,56.7,66.4z"/>
		<path class="st2" d="M55.8,67.1C55.9,67,56,67,56.1,67l-0.4,0L55.8,67.1z"/>
		<path class="st2" d="M55.7,66.4c-0.1,0-0.3-0.3-0.3,0C55.6,66.4,55.7,66.6,55.7,66.4z"/>
		<polygon class="st2" points="56.8,62.9 56.2,62.8 56.2,62.9 		"/>
		<path class="st2" d="M54.9,60c0.1,0.1,0.2-0.2,0.3-0.1c-0.2-0.2-0.1-0.3-0.5-0.2C54.6,60,55.1,59.8,54.9,60z"/>
		<path class="st2" d="M55.2,59.9C55.2,59.9,55.3,59.9,55.2,59.9C55.3,59.9,55.2,59.9,55.2,59.9z"/>
		<path class="st2" d="M54.5,48.6l-0.2,0.1l0.1,0C54.5,48.7,54.5,48.7,54.5,48.6z"/>
		<polygon class="st2" points="54.6,46.3 54.5,46.3 54.9,46.2 		"/>
		<path class="st2" d="M54.1,44.2c0,0.1,0,0.1,0,0.2C54.2,44.3,54.5,44.2,54.1,44.2z"/>
		<path class="st2" d="M85,64.8c-0.2,0.1-0.2-0.1,0,0.2c0,0,0,0,0,0C85,64.9,85,64.9,85,64.8z"/>
		<path class="st2" d="M85,64.9C85,65.1,85.1,64.8,85,64.9L85,64.9z"/>
		<path class="st2" d="M84.8,64.4l0.2,0.1c0.1,0,0.1-0.2,0.2-0.1C85.1,64.2,85,64.3,84.8,64.4z"/>
		<path class="st2" d="M84.5,64.3L84.5,64.3C84.6,64.3,84.6,64.3,84.5,64.3z"/>
		<path class="st2" d="M84.6,64.4C84.5,64.4,84.6,64.4,84.6,64.4L84.6,64.4C84.5,64.4,84.4,64.4,84.6,64.4z"/>
		<path class="st2" d="M84.4,64.7c0.1,0.3,0.4,0.2,0.3-0.1C84.6,64.7,84.5,64.8,84.4,64.7z"/>
		<path class="st2" d="M83.7,65.5l-0.1,0.1l0.2,0.1C83.6,65.7,83.8,65.5,83.7,65.5z"/>
		<path class="st2" d="M84.6,63.5l0.1,0.1c0.1-0.1,0.1-0.2,0.2-0.2C84.9,63.4,84.7,63.4,84.6,63.5z"/>
		<path class="st2" d="M84.6,63.5l-0.2-0.2C84.4,63.5,84.5,63.5,84.6,63.5z"/>
		<polygon class="st2" points="84,64.2 84,64.3 84.4,64.5 		"/>
		<polygon class="st2" points="84.8,62.6 84.9,62.7 85.1,62.7 		"/>
		<path class="st2" d="M84.9,61.9c0.1,0.1,0.1,0.2-0.1,0.4c0.2,0.1,0.3-0.1,0.4-0.1C85.2,62,85,61.9,84.9,61.9z"/>
		<path class="st2" d="M84.9,61.9c0,0-0.1-0.1-0.2-0.1C84.7,61.8,84.8,61.8,84.9,61.9z"/>
		<path class="st2" d="M84.7,62.8l-0.3,0.1c0,0,0,0,0,0.1C84.5,63,84.6,62.9,84.7,62.8z"/>
		<path class="st2" d="M84.4,62.8c0,0,0,0.1,0,0.2l0,0C84.4,62.8,84.4,62.8,84.4,62.8z"/>
		<path class="st2" d="M84.4,63C84.4,63,84.4,63,84.4,63C84.4,63,84.4,63,84.4,63z"/>
		<path class="st2" d="M84.2,63.8c-0.2-0.1-0.3-0.3-0.5-0.1C83.9,63.8,84,63.7,84.2,63.8z"/>
		<path class="st2" d="M84.3,63.3l-0.2-0.2l0,0.2C84.2,63.3,84.3,63.3,84.3,63.3z"/>
		<polygon class="st2" points="84,63 84.1,63.1 84.1,63.1 		"/>
		<path class="st2" d="M84.4,62.1c-0.1-0.1-0.1-0.2-0.2-0.3c0,0.1-0.1,0.2,0,0.3C84.3,62.2,84.5,62.2,84.4,62.1z"/>
		<path class="st2" d="M84.4,62.5C84.4,62.5,84.4,62.5,84.4,62.5C84.4,62.5,84.4,62.5,84.4,62.5z"/>
		<path class="st2" d="M84.2,60.8C84.2,60.8,84.1,60.8,84.2,60.8C84.1,60.8,84.2,60.8,84.2,60.8L84.2,60.8z"/>
		<path class="st2" d="M84.2,62.2c0,0.1,0,0.1,0.1,0.2C84.3,62.3,84.2,62.2,84.2,62.2C84.2,62.2,84.2,62.2,84.2,62.2z"/>
		<path class="st2" d="M84.5,61.5c0,0-0.1,0.1-0.1,0.2C84.5,61.6,84.6,61.5,84.5,61.5z"/>
		<path class="st2" d="M84.5,62.4C84.5,62.4,84.5,62.4,84.5,62.4C84.5,62.4,84.5,62.4,84.5,62.4z"/>
		<path class="st2" d="M84.5,62.4c0,0-0.1-0.1-0.2-0.1C84.3,62.4,84.4,62.4,84.5,62.4C84.4,62.5,84.4,62.4,84.5,62.4z"/>
		<path class="st2" d="M83.8,60.7c-0.1,0.1-0.3,0.4-0.5,0.3c-0.1-0.2,0.1-0.2,0.2-0.3c-0.3,0.1-0.5-0.3-0.9-0.2l0.2,0.2
			c-0.1,0-0.2-0.1-0.2,0c0.2,0,0.5,0.2,0.2,0.4c0.2,0.2,1,0,1.4-0.2C84,60.9,83.9,60.9,83.8,60.7z"/>
		<path class="st2" d="M84.1,61.2L84.1,61.2c0.1,0,0.2-0.1,0.3-0.2c-0.1-0.1-0.2-0.1-0.3-0.1L84.1,61.2L84.1,61.2z"/>
		<path class="st2" d="M84.2,61.6c-0.3,0-0.4-0.2-0.7-0.1c0,0.2,0.2,0.1,0.4,0.3C83.8,61.5,84.1,61.9,84.2,61.6c0,0.1,0,0.1,0.1,0.2
			c0-0.1,0.1-0.1,0.1-0.2c0,0,0,0,0,0l0,0c0,0,0,0,0,0c0,0-0.1,0,0,0c0,0,0,0,0,0C84.3,61.6,84.2,61.6,84.2,61.6c0-0.1,0.1,0,0.1,0
			c0,0,0,0,0,0c0,0,0,0,0,0l-0.2-0.4C84.1,61.4,84.2,61.5,84.2,61.6z"/>
		<path class="st2" d="M83.1,63.6C83.1,63.6,83.1,63.6,83.1,63.6C83.1,63.6,83.1,63.6,83.1,63.6z"/>
		<path class="st2" d="M83.8,63.2C83.8,63.2,83.8,63.2,83.8,63.2C83.8,63.2,83.8,63.2,83.8,63.2z"/>
		<path class="st2" d="M83.8,63.2c-0.2,0.1-0.4,0.1-0.6,0.2c0,0,0.1,0,0.1,0.1c-0.1,0.1-0.1,0-0.2,0c0.1,0,0.2,0.2,0.3,0l0,0
			C83.5,63.4,83.7,63.3,83.8,63.2z"/>
		<path class="st2" d="M83.7,62.5l-0.2-0.3l-0.2,0.2l0.1,0C83.4,62.6,83.6,62.5,83.7,62.5z"/>
		<polygon class="st2" points="84.6,60.8 84.2,60.7 84.3,60.8 		"/>
		<polygon class="st2" points="84.3,60.3 84.2,60.4 84.5,60.4 		"/>
		<path class="st2" d="M78.9,38.4L78.9,38.4C78.9,38.3,78.9,38.4,78.9,38.4z"/>
		<path class="st2" d="M79,39l0.1,0C79,39,79,39,79,39z"/>
		<path class="st2" d="M83.4,50.4l-0.3,0.1c0.1,0.1,0,0.2,0,0.2C83.4,50.5,83.7,50.3,83.4,50.4z"/>
		<path class="st2" d="M81.1,44.3c-0.1,0-0.1-0.1-0.2-0.1c0,0-0.1,0-0.1,0C80.9,44.3,81,44.3,81.1,44.3z"/>
		<path class="st2" d="M80,44c-0.1,0-0.1,0.1-0.2,0.2L80,44z"/>
		<path class="st2" d="M78.3,34.9L78,34.8C78,35,78.1,34.9,78.3,34.9z"/>
		<path class="st2" d="M83.7,56.3c0.1-0.1,0.1-0.2,0.1-0.3C83.7,56.2,83.5,56.3,83.7,56.3z"/>
		<path class="st2" d="M81.6,38.3c0.1,0.1,0.1,0.1,0.2,0.1C81.7,38.3,81.6,38.3,81.6,38.3z"/>
		<path class="st2" d="M83.8,55.7C83.8,55.7,83.8,55.8,83.8,55.7c0,0.1,0,0.2,0,0.3C83.9,55.9,84,55.8,83.8,55.7z"/>
		<path class="st2" d="M77.1,22C77.1,22,77.2,22,77.1,22C77.1,22,77.1,22,77.1,22z"/>
		<path class="st2" d="M84.2,58.8C84.2,58.9,84.2,58.8,84.2,58.8L84.2,58.8z"/>
		<path class="st2" d="M83,59.3c0.1,0,0.1,0,0.1,0C83.1,59.3,83.1,59.3,83,59.3z"/>
		<path class="st2" d="M82.1,55.1C82.1,55.1,82.1,55.1,82.1,55.1C82,55.1,82,55.1,82.1,55.1z"/>
		<path class="st2" d="M84.1,58.9c0,0,0.1-0.1,0.1-0.1C84.1,58.8,84.1,58.9,84.1,58.9z"/>
		<path class="st2" d="M84.2,58.9C84.2,58.9,84.2,58.9,84.2,58.9C84.2,59,84.2,59,84.2,58.9z"/>
		<path class="st2" d="M84.1,58.7c0,0,0,0.1,0,0.1c0,0,0,0,0,0C84.2,58.8,84.2,58.7,84.1,58.7z"/>
		<path class="st2" d="M78.6,28.8C78.6,28.8,78.6,28.8,78.6,28.8C78.5,28.7,78.5,28.8,78.6,28.8z"/>
		<path class="st2" d="M80.2,48.8C80.2,48.8,80.2,48.8,80.2,48.8C80.2,48.8,80.2,48.8,80.2,48.8L80.2,48.8z"/>
		<path class="st2" d="M80,48.5c0.3,0.1,0.3,0.2,0.2,0.3l0.7-0.2L80,48.5z"/>
		<path class="st2" d="M79.9,44.2c0,0,0.1,0,0.2,0C80.1,44.1,80,44.1,79.9,44.2z"/>
		<path class="st2" d="M78.3,34.9C78.3,34.9,78.3,34.9,78.3,34.9C78.3,34.9,78.3,34.9,78.3,34.9L78.3,34.9z"/>
		<path class="st2" d="M80.8,54c0-0.1,0.1-0.1,0.1-0.1C80.9,53.9,80.8,54,80.8,54z"/>
		<path class="st2" d="M84.4,59.6l-0.1-0.2c0,0.1,0,0.1-0.1,0.2C84.3,59.6,84.4,59.6,84.4,59.6z"/>
		<path class="st2" d="M82.8,61.4C82.8,61.4,82.8,61.5,82.8,61.4l0.2,0.1C82.9,61.3,82.8,61.3,82.8,61.4z"/>
		<path class="st2" d="M83.4,60.2c0.3,0,0.2-0.1,0.1-0.2C83.2,59.9,83.3,60.1,83.4,60.2C83.4,60.2,83.3,60.2,83.4,60.2z"/>
		<path class="st2" d="M83.4,60.2c0,0,0,0.1,0,0.1C83.5,60.3,83.4,60.3,83.4,60.2z"/>
		<path class="st2" d="M83.9,58.5c-0.1,0.1,0.3,0,0.2,0C84.5,58.6,83.7,58.2,83.9,58.5z"/>
		<polygon class="st2" points="82.7,60 82.6,60.1 82.9,60 		"/>
		<path class="st2" d="M82.8,59.1l-0.1,0.2c0.1,0,0.1,0,0.1,0C82.8,59.2,82.9,59.1,82.8,59.1z"/>
		<path class="st2" d="M82.8,59.3c0,0.1,0,0.1,0.1,0.2C82.9,59.4,82.9,59.4,82.8,59.3z"/>
		<polygon class="st2" points="82.6,59.6 82.5,59.8 82.6,59.8 		"/>
		<path class="st2" d="M82.6,56.9l-0.1-0.2c-0.1,0-0.2,0.1-0.1,0.1C82.4,56.8,82.5,56.9,82.6,56.9z"/>
		<path class="st2" d="M81.8,57.6c0.1-0.1,0.1-0.1,0.2-0.1l-0.4,0L81.8,57.6z"/>
		<path class="st2" d="M81.4,57c0.1,0,0.2,0.2,0.3,0C81.6,57,81.3,56.7,81.4,57z"/>
		<polygon class="st2" points="82.4,53.6 81.8,53.6 81.8,53.7 		"/>
		<path class="st2" d="M78.6,40.5c0.1,0,0.1-0.1,0.1-0.2L78.6,40.5L78.6,40.5z"/>
		<polygon class="st2" points="78.5,38.2 78.5,38.2 78.9,38.1 		"/>
		<path class="st2" d="M77.9,36.3c0,0.1,0,0.1,0.1,0.2C77.9,36.4,78.2,36.3,77.9,36.3z"/>
		<rect x="15" y="47.5" transform="matrix(0.9172 -0.3984 0.3984 0.9172 -18.0922 10.3569)" class="st2" width="1.8" height="2.4"/>
		<rect x="19.3" y="45.3" transform="matrix(0.9172 -0.3985 0.3985 0.9172 -16.8305 12.1488)" class="st2" width="3" height="2.4"/>
		<rect x="24.8" y="43" transform="matrix(0.9172 -0.3985 0.3985 0.9172 -15.4301 14.132)" class="st2" width="3" height="2.4"/>
		<rect x="39" y="50.8" transform="matrix(0.7975 -0.6033 0.6033 0.7975 -23.4954 34.8658)" class="st2" width="2.4" height="3.3"/>
		<rect x="35" y="45.4" transform="matrix(0.7975 -0.6033 0.6033 0.7975 -21.102 31.3623)" class="st2" width="2.4" height="3.3"/>
		<polygon class="st2" points="44.9,56.6 44.2,55.7 42.2,57.2 43.8,59.2 46.3,58.9 46,56.5 		"/>
		<rect x="50.1" y="55.7" transform="matrix(0.9932 -0.1165 0.1165 0.9932 -6.279 6.4535)" class="st2" width="4" height="2.4"/>
		<rect x="64.5" y="49.3" transform="matrix(0.8628 -0.5056 0.5056 0.8628 -16.4247 40.5522)" class="st2" width="4" height="2.4"/>
		<rect x="72.9" y="48.4" transform="matrix(0.1882 -0.9821 0.9821 0.1882 10.5981 113.7252)" class="st2" width="2.4" height="4"/>
		
			<rect x="84.4" y="45.7" transform="matrix(0.6467 -0.7627 0.7627 0.6467 -5.3987 82.1919)" class="st2" width="3.2" height="2.4"/>
		
			<rect x="88.5" y="40.9" transform="matrix(0.6467 -0.7627 0.7627 0.6467 -0.2791 83.6061)" class="st2" width="3.2" height="2.4"/>
		<rect x="92.9" y="36.6" transform="matrix(0.6467 -0.7627 0.7627 0.6467 4.2978 84.8702)" class="st2" width="1.8" height="2.4"/>
	</g>
	<ellipse transform="matrix(0.9814 -0.1918 0.1918 0.9814 -8.514 14.0759)" class="st1" cx="68.5" cy="51" rx="3.1" ry="2.2"/>
</g>
</svg>
